<!-- Generated by IcoMoon.io -->
<svg version="1.1" xmlns="http://www.w3.org/2000/svg" width="32" height="32" viewBox="0 0 32 32">
<title>image</title>
<path d="M22.998 10c0.001 0.001 0.001 0.001 0.002 0.002v11.996c-0.001 0.001-0.001 0.001-0.002 0.002h-13.996c-0.001-0.001-0.001-0.001-0.002-0.002v-11.996c0.001-0.001 0.001-0.001 0.002-0.002h13.996zM23 9h-14c-0.55 0-1 0.45-1 1v12c0 0.55 0.45 1 1 1h14c0.55 0 1-0.45 1-1v-12c0-0.55-0.45-1-1-1v0z"></path>
<path d="M21.185 12.37c0 0.859-0.696 1.556-1.556 1.556s-1.556-0.696-1.556-1.556 0.696-1.556 1.556-1.556 1.556 0.696 1.556 1.556z"></path>
<path d="M21.833 20.861h-11.667v-1.944l3.403-5.833 3.889 4.861h0.972l3.403-2.917z"></path>
</svg>
