<!-- Generated by IcoMoon.io -->
<svg version="1.1" xmlns="http://www.w3.org/2000/svg" width="11" height="14" viewBox="0 0 11 14">
<title>500px</title>
<path d="M10.945 12.086l-0.047 0.047c-0.586 0.586-1.266 1.047-2.023 1.367-0.789 0.328-1.617 0.5-2.477 0.5s-1.695-0.172-2.477-0.5c-0.758-0.32-1.445-0.781-2.023-1.367-0.586-0.578-1.047-1.258-1.367-2.016-0.195-0.477-0.352-0.969-0.422-1.477v0c-0.031-0.219 0.273-0.266 0.375-0.281 0.242-0.039 0.406-0.023 0.438 0.156 0.008 0.008 0.008 0.016 0.008 0.031 0.031 0.156 0.109 0.625 0.359 1.242 0.258 0.641 0.656 1.234 1.187 1.766 0.508 0.508 1.102 0.906 1.766 1.187 0.68 0.289 1.406 0.438 2.156 0.438 0.742 0 1.469-0.148 2.156-0.438 0.656-0.281 1.25-0.68 1.758-1.187l0.047-0.047c0.055-0.055 0.117-0.070 0.195-0.047 0.070 0.016 0.156 0.078 0.258 0.172v0c0.25 0.258 0.195 0.383 0.133 0.453zM7.258 7.281l-0.516 0.516 0.492 0.492c0.055 0.055 0.156 0.172-0.055 0.383-0.086 0.086-0.172 0.133-0.25 0.133-0.055 0-0.102-0.023-0.148-0.078l-0.484-0.477-0.516 0.516c-0.016 0.016-0.055 0.039-0.117 0.039-0.070 0-0.156-0.039-0.242-0.125l-0.016-0.016c-0.055-0.047-0.141-0.133-0.141-0.227 0-0.047 0.023-0.086 0.062-0.133l0.516-0.508-0.516-0.516c-0.086-0.086-0.047-0.195 0.109-0.352 0.094-0.094 0.172-0.141 0.242-0.141 0.039 0 0.070 0.016 0.102 0.039l0.508 0.516 0.508-0.508c0.086-0.086 0.227-0.047 0.375 0.102 0.094 0.094 0.195 0.227 0.086 0.344zM10.938 7.727c0 0.617-0.125 1.219-0.359 1.781-0.234 0.547-0.563 1.031-0.984 1.453s-0.914 0.75-1.461 0.984c-0.563 0.242-1.164 0.359-1.781 0.359s-1.219-0.117-1.781-0.359c-0.547-0.234-1.039-0.563-1.461-0.984s-0.75-0.906-0.977-1.453c-0.047-0.102-0.117-0.297-0.117-0.312h-0.008c-0.070-0.219 0.242-0.312 0.336-0.344 0.227-0.070 0.398-0.102 0.469 0.094 0.187 0.5 0.477 0.984 0.758 1.305h0.008v-2.664c0.016-0.656 0.289-1.32 0.797-1.812 0.523-0.516 1.227-0.805 1.977-0.805 1.531 0 2.773 1.234 2.773 2.75 0 1.531-1.25 2.773-2.773 2.773-0.305 0-0.531-0.023-0.875-0.125-0.039-0.016-0.219-0.094-0.102-0.477 0.031-0.102 0.125-0.398 0.344-0.336 0.016 0 0.398 0.094 0.602 0.094 1.086 0 1.937-0.844 1.937-1.922 0-0.508-0.203-0.984-0.563-1.336-0.359-0.359-0.844-0.555-1.367-0.555-0.539 0-1.031 0.219-1.391 0.625-0.312 0.352-0.5 0.82-0.5 1.25v3.227c0.563 0.344 1.211 0.523 1.891 0.523 1 0 1.969-0.398 2.664-1.094 0.703-0.703 1.094-1.648 1.094-2.641 0-1-0.391-1.937-1.102-2.648-0.703-0.703-1.641-1.094-2.648-1.094s-1.953 0.391-2.656 1.094c-0.008 0.008-0.453 0.469-0.602 0.68l-0.016 0.016c-0.094 0.133-0.18 0.258-0.57 0.172-0.195-0.047-0.406-0.164-0.406-0.336v-5.312c0-0.141 0.109-0.297 0.297-0.297h6.852c0.234 0 0.234 0.328 0.234 0.43 0 0.109 0 0.43-0.234 0.43h-6.336v3.773h0.008c0.438-0.461 1.195-0.945 1.641-1.133 0.555-0.234 1.18-0.359 1.805-0.359 0.617 0 1.219 0.117 1.781 0.359 0.547 0.234 1.039 0.563 1.461 0.984s0.75 0.906 0.984 1.453c0.234 0.57 0.359 1.164 0.359 1.789zM10.695 3.188c0.148 0.133 0.047 0.273-0.102 0.445-0.094 0.094-0.195 0.203-0.305 0.203-0.047 0-0.086-0.016-0.125-0.055-0.563-0.484-1.070-0.813-1.617-1.039-0.68-0.297-1.406-0.438-2.156-0.438-0.664 0-1.391 0.133-2.047 0.383-0.203 0.078-0.312-0.187-0.352-0.289-0.047-0.125-0.070-0.227-0.062-0.297 0.016-0.078 0.055-0.133 0.125-0.156 0.641-0.281 1.516-0.445 2.336-0.445 0.852 0 1.688 0.172 2.469 0.5 0.719 0.305 1.305 0.68 1.836 1.187z"></path>
</svg>
