<!-- Generated by IcoMoon.io -->
<svg version="1.1" xmlns="http://www.w3.org/2000/svg" width="16" height="14" viewBox="0 0 16 14">
<title>address-card-o</title>
<path d="M8 8.836c0 0.68-0.445 1.164-1 1.164h-4c-0.555 0-1-0.484-1-1.164 0-1.211 0.297-2.555 1.531-2.555 0.383 0.219 0.898 0.594 1.469 0.594s1.086-0.375 1.469-0.594c1.234 0 1.531 1.344 1.531 2.555zM6.773 4.773c0 0.984-0.797 1.773-1.773 1.773s-1.773-0.789-1.773-1.773c0-0.977 0.797-1.773 1.773-1.773s1.773 0.797 1.773 1.773zM14 8.25v0.5c0 0.141-0.109 0.25-0.25 0.25h-4.5c-0.141 0-0.25-0.109-0.25-0.25v-0.5c0-0.141 0.109-0.25 0.25-0.25h4.5c0.141 0 0.25 0.109 0.25 0.25zM14 6.281v0.438c0 0.156-0.125 0.281-0.281 0.281h-4.437c-0.156 0-0.281-0.125-0.281-0.281v-0.438c0-0.156 0.125-0.281 0.281-0.281h4.437c0.156 0 0.281 0.125 0.281 0.281zM14 4.25v0.5c0 0.141-0.109 0.25-0.25 0.25h-4.5c-0.141 0-0.25-0.109-0.25-0.25v-0.5c0-0.141 0.109-0.25 0.25-0.25h4.5c0.141 0 0.25 0.109 0.25 0.25zM15 11.75v-9.5c0-0.133-0.117-0.25-0.25-0.25h-13.5c-0.133 0-0.25 0.117-0.25 0.25v9.5c0 0.133 0.117 0.25 0.25 0.25h2.75v-0.75c0-0.141 0.109-0.25 0.25-0.25h0.5c0.141 0 0.25 0.109 0.25 0.25v0.75h6v-0.75c0-0.141 0.109-0.25 0.25-0.25h0.5c0.141 0 0.25 0.109 0.25 0.25v0.75h2.75c0.133 0 0.25-0.117 0.25-0.25zM16 2.25v9.5c0 0.688-0.563 1.25-1.25 1.25h-13.5c-0.688 0-1.25-0.563-1.25-1.25v-9.5c0-0.688 0.563-1.25 1.25-1.25h13.5c0.688 0 1.25 0.563 1.25 1.25z"></path>
</svg>
