<!-- Generated by IcoMoon.io -->
<svg version="1.1" xmlns="http://www.w3.org/2000/svg" width="13" height="14" viewBox="0 0 13 14">
<title>address-book-o</title>
<path d="M8.031 5.031c0 1.117-0.914 2.023-2.031 2.023s-2.031-0.906-2.031-2.023c0-1.125 0.914-2.031 2.031-2.031s2.031 0.906 2.031 2.031zM7.656 6.75c1.492 0 1.727 1.773 1.727 2.922 0 0.656-0.414 1.328-1.133 1.328h-4.5c-0.719 0-1.133-0.672-1.133-1.328 0-1.102 0.234-2.922 1.688-2.922h0.039c0.516 0.305 1.039 0.68 1.656 0.68s1.141-0.375 1.656-0.68zM13 4.75c0 0.133-0.117 0.25-0.25 0.25h-0.75v1h0.75c0.133 0 0.25 0.117 0.25 0.25v1.5c0 0.133-0.117 0.25-0.25 0.25h-0.75v1h0.75c0.133 0 0.25 0.117 0.25 0.25v1.5c0 0.133-0.117 0.25-0.25 0.25h-0.75v1.75c0 0.688-0.563 1.25-1.25 1.25h-9.5c-0.688 0-1.25-0.563-1.25-1.25v-11.5c0-0.688 0.563-1.25 1.25-1.25h9.5c0.688 0 1.25 0.563 1.25 1.25v1.75h0.75c0.133 0 0.25 0.117 0.25 0.25v1.5zM11 12.75v-11.5c0-0.133-0.117-0.25-0.25-0.25h-9.5c-0.133 0-0.25 0.117-0.25 0.25v11.5c0 0.133 0.117 0.25 0.25 0.25h9.5c0.133 0 0.25-0.117 0.25-0.25z"></path>
</svg>
