<!-- Generated by IcoMoon.io -->
<svg version="1.1" xmlns="http://www.w3.org/2000/svg" width="13" height="14" viewBox="0 0 13 14">
<title>address-book</title>
<path d="M9.383 9.672c0-1.383-0.336-2.922-1.727-2.922-0.43 0.25-1.016 0.68-1.656 0.68s-1.227-0.43-1.656-0.68c-1.391 0-1.727 1.539-1.727 2.922 0 0.773 0.508 1.328 1.133 1.328h4.5c0.625 0 1.133-0.555 1.133-1.328zM8.031 5.031c0-1.125-0.914-2.031-2.031-2.031s-2.031 0.906-2.031 2.031c0 1.117 0.914 2.023 2.031 2.023s2.031-0.906 2.031-2.023zM13 9.25v1.5c0 0.141-0.109 0.25-0.25 0.25h-0.75v1.75c0 0.688-0.563 1.25-1.25 1.25h-9.5c-0.688 0-1.25-0.563-1.25-1.25v-11.5c0-0.688 0.563-1.25 1.25-1.25h9.5c0.688 0 1.25 0.563 1.25 1.25v1.75h0.75c0.141 0 0.25 0.109 0.25 0.25v1.5c0 0.141-0.109 0.25-0.25 0.25h-0.75v1h0.75c0.141 0 0.25 0.109 0.25 0.25v1.5c0 0.141-0.109 0.25-0.25 0.25h-0.75v1h0.75c0.141 0 0.25 0.109 0.25 0.25z"></path>
</svg>
