<!-- Generated by IcoMoon.io -->
<svg version="1.1" xmlns="http://www.w3.org/2000/svg" width="14" height="14" viewBox="0 0 14 14">
<title>align-right</title>
<path d="M14 10.5v1c0 0.273-0.227 0.5-0.5 0.5h-13c-0.273 0-0.5-0.227-0.5-0.5v-1c0-0.273 0.227-0.5 0.5-0.5h13c0.273 0 0.5 0.227 0.5 0.5zM14 7.5v1c0 0.273-0.227 0.5-0.5 0.5h-10c-0.273 0-0.5-0.227-0.5-0.5v-1c0-0.273 0.227-0.5 0.5-0.5h10c0.273 0 0.5 0.227 0.5 0.5zM14 4.5v1c0 0.273-0.227 0.5-0.5 0.5h-12c-0.273 0-0.5-0.227-0.5-0.5v-1c0-0.273 0.227-0.5 0.5-0.5h12c0.273 0 0.5 0.227 0.5 0.5zM14 1.5v1c0 0.273-0.227 0.5-0.5 0.5h-9c-0.273 0-0.5-0.227-0.5-0.5v-1c0-0.273 0.227-0.5 0.5-0.5h9c0.273 0 0.5 0.227 0.5 0.5z"></path>
</svg>
