<!-- Generated by IcoMoon.io -->
<svg version="1.1" xmlns="http://www.w3.org/2000/svg" width="14" height="14" viewBox="0 0 14 14">
<title>amazon</title>
<path d="M12.117 11.531c0.234-0.117 0.414 0.062 0.172 0.375s-2.188 2.094-5.453 2.094-5.766-2.234-6.531-3.156c-0.211-0.242 0.031-0.352 0.172-0.258 2.289 1.391 5.867 3.68 11.641 0.945zM13.734 10.633c0.117 0.156 0 0.844-0.203 1.344-0.203 0.492-0.5 0.836-0.664 0.969-0.172 0.141-0.297 0.086-0.203-0.117s0.602-1.453 0.398-1.719c-0.203-0.258-1.156-0.133-1.5-0.102-0.336 0.031-0.406 0.062-0.438-0.008-0.070-0.18 0.68-0.484 1.172-0.547 0.492-0.055 1.281-0.023 1.438 0.18zM10.656 7.172c0 0.859 1.008 1.648 1.008 1.648l-1.773 1.75c-0.695-0.656-1.219-1.203-1.219-1.203-0.078-0.078-0.141-0.172-0.195-0.258-1.414 2.211-5.734 2.070-5.734-1.352 0-3.188 3.773-3.617 5.297-3.672v-0.992c0-0.211 0.078-1.172-1.109-1.172 0 0-1.187 0-1.695 1.547l-2.297-0.211c0-1.539 1.461-3.258 4.211-3.258 2.742 0 3.508 1.781 3.508 2.57v4.602zM5.406 7.336c0 1.586 2.633 1.961 2.633-0.539v-1.266c-1.055 0.031-2.633 0.328-2.633 1.805z"></path>
</svg>
