<!-- Generated by IcoMoon.io -->
<svg version="1.1" xmlns="http://www.w3.org/2000/svg" width="15" height="14" viewBox="0 0 15 14">
<title>ambulance</title>
<path d="M5 11c0-0.555-0.445-1-1-1s-1 0.445-1 1 0.445 1 1 1 1-0.445 1-1zM2 7h3v-2h-1.234c-0.047 0.008-0.133 0.039-0.172 0.070l-1.523 1.523c-0.023 0.039-0.062 0.125-0.070 0.172v0.234zM12 11c0-0.555-0.445-1-1-1s-1 0.445-1 1 0.445 1 1 1 1-0.445 1-1zM13 5.75v-1.5c0-0.141-0.109-0.25-0.25-0.25h-1.75v-1.75c0-0.141-0.109-0.25-0.25-0.25h-1.5c-0.141 0-0.25 0.109-0.25 0.25v1.75h-1.75c-0.141 0-0.25 0.109-0.25 0.25v1.5c0 0.141 0.109 0.25 0.25 0.25h1.75v1.75c0 0.141 0.109 0.25 0.25 0.25h1.5c0.141 0 0.25-0.109 0.25-0.25v-1.75h1.75c0.141 0 0.25-0.109 0.25-0.25zM15 1.5v9c0 0.273-0.227 0.5-0.5 0.5h-1.5c0 1.102-0.891 2-2 2-1.102 0-2-0.898-2-2h-3c0 1.102-0.891 2-2 2s-2-0.898-2-2h-1c-0.273 0-0.5-0.227-0.5-0.5s0.227-0.5 0.5-0.5v-3.25c0-0.273 0.156-0.656 0.352-0.852l1.547-1.547c0.195-0.195 0.578-0.352 0.852-0.352h1.25v-2.5c0-0.273 0.227-0.5 0.5-0.5h9c0.273 0 0.5 0.227 0.5 0.5z"></path>
</svg>
