<!-- Generated by IcoMoon.io -->
<svg version="1.1" xmlns="http://www.w3.org/2000/svg" width="18" height="14" viewBox="0 0 18 14">
<title>american-sign-language-interpreting</title>
<path d="M8.062 7.5c-0.273-0.008-0.531-0.164-0.656-0.43-0.172-0.352-0.516-0.57-0.906-0.57-0.555 0-1 0.445-1 1 0 0.266 0.094 0.523 0.281 0.695l0.078 0.062c0.172 0.156 0.398 0.242 0.641 0.242 0.391 0 0.734-0.219 0.906-0.57 0.125-0.266 0.383-0.422 0.656-0.43zM12.5 6.5c0-0.266-0.094-0.523-0.281-0.695l-0.078-0.062c-0.172-0.156-0.398-0.242-0.641-0.242-0.391 0-0.734 0.219-0.906 0.57-0.125 0.266-0.383 0.422-0.656 0.43 0.273 0.008 0.531 0.164 0.656 0.43 0.172 0.352 0.516 0.57 0.906 0.57 0.555 0 1-0.445 1-1zM9.172 4.773c-0.18 0.367-0.633 0.523-1 0.344-0.328-0.164-0.68-0.242-1.047-0.242-0.273 0-0.531 0.047-0.773 0.133 0.047 0 0.102-0.008 0.148-0.008 0.961 0 1.844 0.563 2.258 1.43 0.18 0.375 0.016 0.82-0.359 1-0.094 0.047-0.195 0.070-0.305 0.070 0.109 0 0.211 0.023 0.305 0.070 0.375 0.18 0.539 0.625 0.359 1-0.414 0.867-1.297 1.43-2.258 1.43v0h-0.047c-0.117-0.016-0.227-0.023-0.344-0.031l-2.266-0.211-1.867 0.937c-0.078 0.039-0.148 0.055-0.227 0.055-0.18 0-0.359-0.102-0.445-0.273l-1.25-2.5c-0.117-0.242-0.031-0.531 0.195-0.664l1.633-0.93 1.156-2.086c0.18-1.609 0.977-3.086 2.242-4.125 0.32-0.266 0.797-0.219 1.055 0.102 0.266 0.32 0.219 0.789-0.102 1.055-0.352 0.297-0.664 0.633-0.914 1 0.609-0.414 1.313-0.695 2.086-0.789 0.414-0.055 0.789 0.234 0.836 0.648 0.055 0.414-0.234 0.789-0.648 0.836-0.453 0.055-0.875 0.211-1.242 0.43 0.25-0.055 0.508-0.078 0.773-0.078 0.594 0 1.172 0.133 1.703 0.391 0.375 0.187 0.531 0.633 0.344 1.008zM16.695 3.523l1.25 2.5c0.117 0.242 0.031 0.531-0.195 0.664l-1.633 0.93-1.156 2.086c-0.18 1.609-0.977 3.086-2.242 4.125-0.141 0.117-0.312 0.172-0.477 0.172-0.219 0-0.43-0.094-0.578-0.273-0.266-0.32-0.219-0.789 0.102-1.055 0.352-0.297 0.664-0.633 0.914-1-0.609 0.414-1.313 0.695-2.086 0.789-0.031 0.008-0.062 0.008-0.094 0.008-0.375 0-0.695-0.281-0.742-0.656-0.055-0.414 0.234-0.789 0.648-0.836 0.453-0.055 0.875-0.211 1.242-0.43-0.25 0.055-0.508 0.078-0.773 0.078-0.594 0-1.172-0.133-1.703-0.391-0.375-0.187-0.531-0.633-0.344-1.008 0.18-0.367 0.633-0.523 1-0.344 0.328 0.164 0.68 0.242 1.047 0.242 0.273 0 0.531-0.047 0.773-0.133-0.047 0-0.102 0.008-0.148 0.008-0.961 0-1.844-0.563-2.258-1.43-0.18-0.375-0.016-0.82 0.359-1 0.094-0.047 0.195-0.070 0.305-0.070-0.109 0-0.211-0.023-0.305-0.070-0.375-0.18-0.539-0.625-0.359-1 0.414-0.867 1.297-1.43 2.258-1.43v0h0.055c0.109 0.016 0.219 0.023 0.328 0.031l2.273 0.211 1.867-0.937c0.078-0.039 0.148-0.055 0.227-0.055 0.18 0 0.359 0.102 0.445 0.273z"></path>
</svg>
