<!-- Generated by IcoMoon.io -->
<svg version="1.1" xmlns="http://www.w3.org/2000/svg" width="14" height="14" viewBox="0 0 14 14">
<title>anchor</title>
<path d="M7.5 2c0-0.273-0.227-0.5-0.5-0.5s-0.5 0.227-0.5 0.5 0.227 0.5 0.5 0.5 0.5-0.227 0.5-0.5zM14 9.25v2.75c0 0.102-0.062 0.195-0.156 0.234-0.031 0.008-0.062 0.016-0.094 0.016-0.062 0-0.125-0.023-0.18-0.070l-0.727-0.727c-1.227 1.477-3.43 2.422-5.844 2.422s-4.617-0.945-5.844-2.422l-0.727 0.727c-0.047 0.047-0.117 0.070-0.18 0.070-0.031 0-0.062-0.008-0.094-0.016-0.094-0.039-0.156-0.133-0.156-0.234v-2.75c0-0.141 0.109-0.25 0.25-0.25h2.75c0.102 0 0.195 0.062 0.234 0.156s0.016 0.195-0.055 0.273l-0.781 0.781c0.703 0.945 2.055 1.633 3.602 1.844v-5.055h-1.5c-0.273 0-0.5-0.227-0.5-0.5v-1c0-0.273 0.227-0.5 0.5-0.5h1.5v-1.273c-0.594-0.344-1-0.984-1-1.727 0-1.102 0.898-2 2-2s2 0.898 2 2c0 0.742-0.406 1.383-1 1.727v1.273h1.5c0.273 0 0.5 0.227 0.5 0.5v1c0 0.273-0.227 0.5-0.5 0.5h-1.5v5.055c1.547-0.211 2.898-0.898 3.602-1.844l-0.781-0.781c-0.070-0.078-0.094-0.18-0.055-0.273s0.133-0.156 0.234-0.156h2.75c0.141 0 0.25 0.109 0.25 0.25z"></path>
</svg>
