<!-- Generated by IcoMoon.io -->
<svg version="1.1" xmlns="http://www.w3.org/2000/svg" width="11" height="14" viewBox="0 0 11 14">
<title>android</title>
<path d="M3.852 3.773c0.172 0 0.305-0.141 0.305-0.305s-0.133-0.305-0.305-0.305c-0.164 0-0.297 0.141-0.297 0.305s0.133 0.305 0.297 0.305zM7.148 3.773c0.164 0 0.297-0.141 0.297-0.305s-0.133-0.305-0.297-0.305c-0.172 0-0.305 0.141-0.305 0.305s0.133 0.305 0.305 0.305zM0.805 5.211c0.438 0 0.797 0.359 0.797 0.797v3.359c0 0.445-0.352 0.805-0.797 0.805s-0.805-0.359-0.805-0.805v-3.359c0-0.438 0.359-0.797 0.805-0.797zM9.086 5.359v5.203c0 0.477-0.383 0.859-0.852 0.859h-0.586v1.773c0 0.445-0.359 0.805-0.805 0.805s-0.805-0.359-0.805-0.805v-1.773h-1.078v1.773c0 0.445-0.359 0.805-0.805 0.805-0.438 0-0.797-0.359-0.797-0.805l-0.008-1.773h-0.578c-0.477 0-0.859-0.383-0.859-0.859v-5.203h7.172zM7.273 2.195c1.094 0.563 1.836 1.641 1.836 2.883h-7.227c0-1.242 0.742-2.32 1.844-2.883l-0.555-1.023c-0.031-0.055-0.016-0.125 0.039-0.156 0.055-0.023 0.125-0.008 0.156 0.047l0.563 1.031c0.477-0.211 1.008-0.328 1.57-0.328s1.094 0.117 1.57 0.328l0.563-1.031c0.031-0.055 0.102-0.070 0.156-0.047 0.055 0.031 0.070 0.102 0.039 0.156zM11 6.008v3.359c0 0.445-0.359 0.805-0.805 0.805-0.438 0-0.797-0.359-0.797-0.805v-3.359c0-0.445 0.359-0.797 0.797-0.797 0.445 0 0.805 0.352 0.805 0.797z"></path>
</svg>
