<!-- Generated by IcoMoon.io -->
<svg version="1.1" xmlns="http://www.w3.org/2000/svg" width="10" height="14" viewBox="0 0 10 14">
<title>angellist</title>
<path d="M7.445 2.953l-0.891 2.563 0.914 0.164c0.234-0.641 1.289-3.523 1.289-4.047 0-0.195-0.062-0.438-0.297-0.438-0.438 0-0.906 1.422-1.016 1.758zM5.109 8.32c0.086 0.227 0.18 0.453 0.258 0.688 0.172-0.195 0.352-0.375 0.555-0.523-0.273-0.055-0.547-0.078-0.813-0.164zM2.828 1.32c0 0.797 0.945 3.281 1.242 4.070 0.109-0.062 0.25-0.078 0.383-0.078 0.187 0 0.398 0.023 0.586 0.039l-0.945-2.742c-0.102-0.297-0.555-1.719-0.961-1.719-0.211 0-0.305 0.25-0.305 0.43zM2.211 7.25c0 0.57 1.531 2.672 2.102 2.672 0.156 0 0.289-0.172 0.289-0.312 0-0.18-0.18-0.625-0.25-0.797-0.203-0.523-0.945-2.141-1.586-2.141-0.211 0-0.555 0.367-0.555 0.578zM0.977 9.867c0 0.281 0.094 0.555 0.195 0.813 0.617 1.523 2.008 2.414 3.633 2.414 1.187 0 2.188-0.453 2.984-1.328 0.844-0.937 1.187-2.094 1.187-3.336 0-0.438 0.008-1.133-0.336-1.445-0.656-0.578-2.883-0.797-3.766-0.797-0.109 0-0.297 0.008-0.383 0.086-0.094 0.039-0.094 0.187-0.094 0.273 0 1.195 2.523 1.086 3.281 1.086 0.148 0 0.219 0.039 0.312 0.148 0.102 0.125 0.133 0.273 0.148 0.43-0.203 0.203-0.484 0.32-0.75 0.422-0.258 0.094-0.508 0.195-0.727 0.359-0.602 0.438-1.195 1.187-1.195 1.961 0 0.484 0.289 0.898 0.289 1.375 0 0.008-0.055 0.18-0.055 0.203-0.891-0.062-1.109-0.945-1.141-1.688-0.094 0.023-0.219 0.016-0.32 0.016 0.016 0.055 0.016 0.109 0.016 0.164 0 0.57-0.508 0.984-1.055 0.984-0.844 0-1.961-0.992-1.961-1.852 0-0.234 0.102-0.367 0.258-0.523 0.156 0.195 0.32 0.391 0.469 0.594 0.227 0.305 0.617 0.813 1.039 0.813 0.109 0 0.32-0.094 0.32-0.227 0-0.352-1.281-2-1.594-2-0.492 0-0.758 0.648-0.758 1.055zM0.086 9.937c0-1.016 0.391-1.688 1.398-1.961-0.086-0.227-0.219-0.57-0.219-0.813 0-0.641 0.789-1.438 1.43-1.438 0.187 0 0.375 0.055 0.547 0.117-0.328-0.93-1.273-3.547-1.273-4.43 0-0.789 0.398-1.414 1.25-1.414 1.094 0 2.336 3.938 2.602 4.719 0.344-0.859 1.422-4.461 2.641-4.461 0.766 0 1.195 0.609 1.195 1.336 0 0.828-0.922 3.406-1.242 4.297 1.313 0.32 1.5 1.383 1.5 2.563 0 3.125-1.992 5.547-5.219 5.547-0.594 0-1.18-0.117-1.742-0.328-1.484-0.563-2.867-2.086-2.867-3.734z"></path>
</svg>
