<!-- Generated by IcoMoon.io -->
<svg version="1.1" xmlns="http://www.w3.org/2000/svg" width="11" height="14" viewBox="0 0 11 14">
<title>apple</title>
<path d="M10.883 9.492c-0.195 0.617-0.508 1.273-0.961 1.953-0.672 1.023-1.344 1.531-2.008 1.531-0.266 0-0.625-0.086-1.094-0.25-0.461-0.172-0.859-0.25-1.18-0.25-0.312 0-0.688 0.086-1.109 0.258-0.43 0.18-0.773 0.266-1.031 0.266-0.805 0-1.578-0.68-2.352-2.023-0.758-1.344-1.148-2.648-1.148-3.93 0-1.195 0.297-2.164 0.883-2.922 0.586-0.75 1.32-1.125 2.219-1.125 0.383 0 0.836 0.078 1.383 0.234 0.539 0.156 0.898 0.234 1.078 0.234 0.227 0 0.602-0.086 1.117-0.266 0.516-0.172 0.969-0.266 1.352-0.266 0.625 0 1.18 0.172 1.664 0.508 0.273 0.187 0.547 0.453 0.813 0.781-0.406 0.344-0.703 0.648-0.891 0.922-0.336 0.484-0.508 1.023-0.508 1.617 0 0.641 0.18 1.227 0.539 1.742s0.773 0.844 1.234 0.984zM7.945 0.328c0 0.32-0.078 0.68-0.227 1.062-0.156 0.391-0.398 0.75-0.727 1.078-0.281 0.281-0.563 0.469-0.844 0.563-0.18 0.055-0.445 0.102-0.813 0.133 0.016-0.773 0.219-1.445 0.609-2.008s1.047-0.945 1.953-1.156c0.016 0.070 0.031 0.125 0.039 0.172 0 0.055 0.008 0.102 0.008 0.156z"></path>
</svg>
