<!-- Generated by IcoMoon.io -->
<svg version="1.1" xmlns="http://www.w3.org/2000/svg" width="14" height="14" viewBox="0 0 14 14">
<title>archive</title>
<path d="M8.5 6.5c0-0.273-0.227-0.5-0.5-0.5h-2c-0.273 0-0.5 0.227-0.5 0.5s0.227 0.5 0.5 0.5h2c0.273 0 0.5-0.227 0.5-0.5zM13 5v7.5c0 0.273-0.227 0.5-0.5 0.5h-11c-0.273 0-0.5-0.227-0.5-0.5v-7.5c0-0.273 0.227-0.5 0.5-0.5h11c0.273 0 0.5 0.227 0.5 0.5zM13.5 1.5v2c0 0.273-0.227 0.5-0.5 0.5h-12c-0.273 0-0.5-0.227-0.5-0.5v-2c0-0.273 0.227-0.5 0.5-0.5h12c0.273 0 0.5 0.227 0.5 0.5z"></path>
</svg>
