<!-- Generated by IcoMoon.io -->
<svg version="1.1" xmlns="http://www.w3.org/2000/svg" width="12" height="14" viewBox="0 0 12 14">
<title>arrows-alt</title>
<path d="M10.023 4.227l-2.773 2.773 2.773 2.773 1.125-1.125c0.141-0.148 0.359-0.187 0.547-0.109 0.18 0.078 0.305 0.258 0.305 0.461v3.5c0 0.273-0.227 0.5-0.5 0.5h-3.5c-0.203 0-0.383-0.125-0.461-0.312-0.078-0.18-0.039-0.398 0.109-0.539l1.125-1.125-2.773-2.773-2.773 2.773 1.125 1.125c0.148 0.141 0.187 0.359 0.109 0.539-0.078 0.187-0.258 0.312-0.461 0.312h-3.5c-0.273 0-0.5-0.227-0.5-0.5v-3.5c0-0.203 0.125-0.383 0.312-0.461 0.18-0.078 0.398-0.039 0.539 0.109l1.125 1.125 2.773-2.773-2.773-2.773-1.125 1.125c-0.094 0.094-0.219 0.148-0.352 0.148-0.062 0-0.133-0.016-0.187-0.039-0.187-0.078-0.312-0.258-0.312-0.461v-3.5c0-0.273 0.227-0.5 0.5-0.5h3.5c0.203 0 0.383 0.125 0.461 0.312 0.078 0.18 0.039 0.398-0.109 0.539l-1.125 1.125 2.773 2.773 2.773-2.773-1.125-1.125c-0.148-0.141-0.187-0.359-0.109-0.539 0.078-0.187 0.258-0.312 0.461-0.312h3.5c0.273 0 0.5 0.227 0.5 0.5v3.5c0 0.203-0.125 0.383-0.305 0.461-0.062 0.023-0.133 0.039-0.195 0.039-0.133 0-0.258-0.055-0.352-0.148z"></path>
</svg>
