<!-- Generated by IcoMoon.io -->
<svg version="1.1" xmlns="http://www.w3.org/2000/svg" width="14" height="14" viewBox="0 0 14 14">
<title>arrows-h</title>
<path d="M14 7c0 0.133-0.055 0.258-0.148 0.352l-2 2c-0.094 0.094-0.219 0.148-0.352 0.148-0.273 0-0.5-0.227-0.5-0.5v-1h-8v1c0 0.273-0.227 0.5-0.5 0.5-0.133 0-0.258-0.055-0.352-0.148l-2-2c-0.094-0.094-0.148-0.219-0.148-0.352s0.055-0.258 0.148-0.352l2-2c0.094-0.094 0.219-0.148 0.352-0.148 0.273 0 0.5 0.227 0.5 0.5v1h8v-1c0-0.273 0.227-0.5 0.5-0.5 0.133 0 0.258 0.055 0.352 0.148l2 2c0.094 0.094 0.148 0.219 0.148 0.352z"></path>
</svg>
