<!-- Generated by IcoMoon.io -->
<svg version="1.1" xmlns="http://www.w3.org/2000/svg" width="12" height="14" viewBox="0 0 12 14">
<title>arrow-right</title>
<path d="M11.5 7.5c0 0.266-0.102 0.523-0.289 0.711l-5.086 5.086c-0.187 0.18-0.445 0.289-0.711 0.289s-0.516-0.109-0.703-0.289l-0.586-0.586c-0.187-0.187-0.297-0.445-0.297-0.711s0.109-0.523 0.297-0.711l2.289-2.289h-5.5c-0.563 0-0.914-0.469-0.914-1v-1c0-0.531 0.352-1 0.914-1h5.5l-2.289-2.297c-0.187-0.18-0.297-0.438-0.297-0.703s0.109-0.523 0.297-0.703l0.586-0.586c0.187-0.187 0.438-0.297 0.703-0.297s0.523 0.109 0.711 0.297l5.086 5.086c0.187 0.18 0.289 0.438 0.289 0.703z"></path>
</svg>
