<!-- Generated by IcoMoon.io -->
<svg version="1.1" xmlns="http://www.w3.org/2000/svg" width="12" height="14" viewBox="0 0 12 14">
<title>arrow-circle-left</title>
<path d="M10 7.5v-1c0-0.273-0.227-0.5-0.5-0.5h-3.922l1.477-1.477c0.094-0.094 0.148-0.219 0.148-0.352s-0.055-0.258-0.148-0.352l-0.711-0.711c-0.094-0.094-0.219-0.141-0.352-0.141s-0.258 0.047-0.352 0.141l-3.539 3.539c-0.094 0.094-0.141 0.219-0.141 0.352s0.047 0.258 0.141 0.352l3.539 3.539c0.094 0.094 0.219 0.141 0.352 0.141s0.258-0.047 0.352-0.141l0.711-0.711c0.094-0.094 0.141-0.219 0.141-0.352s-0.047-0.258-0.141-0.352l-1.477-1.477h3.922c0.273 0 0.5-0.227 0.5-0.5zM12 7c0 3.313-2.687 6-6 6s-6-2.687-6-6 2.687-6 6-6 6 2.687 6 6z"></path>
</svg>
