<!-- Generated by IcoMoon.io -->
<svg version="1.1" xmlns="http://www.w3.org/2000/svg" width="12" height="14" viewBox="0 0 12 14">
<title>arrow-circle-o-down</title>
<path d="M8.75 7.25c0 0.070-0.031 0.133-0.078 0.187l-2.492 2.492c-0.055 0.047-0.117 0.070-0.18 0.070s-0.125-0.023-0.18-0.070l-2.5-2.5c-0.070-0.078-0.094-0.18-0.055-0.273s0.133-0.156 0.234-0.156h1.5v-2.75c0-0.141 0.109-0.25 0.25-0.25h1.5c0.141 0 0.25 0.109 0.25 0.25v2.75h1.5c0.141 0 0.25 0.109 0.25 0.25zM6 2.75c-2.344 0-4.25 1.906-4.25 4.25s1.906 4.25 4.25 4.25 4.25-1.906 4.25-4.25-1.906-4.25-4.25-4.25zM12 7c0 3.313-2.687 6-6 6s-6-2.687-6-6 2.687-6 6-6v0c3.313 0 6 2.687 6 6z"></path>
</svg>
