<!-- Generated by IcoMoon.io -->
<svg version="1.1" xmlns="http://www.w3.org/2000/svg" width="13" height="14" viewBox="0 0 13 14">
<title>arrow-left</title>
<path d="M12 7v1c0 0.531-0.352 1-0.914 1h-5.5l2.289 2.297c0.187 0.18 0.297 0.438 0.297 0.703s-0.109 0.523-0.297 0.703l-0.586 0.594c-0.18 0.18-0.438 0.289-0.703 0.289s-0.523-0.109-0.711-0.289l-5.086-5.094c-0.18-0.18-0.289-0.437-0.289-0.703s0.109-0.523 0.289-0.711l5.086-5.078c0.187-0.187 0.445-0.297 0.711-0.297s0.516 0.109 0.703 0.297l0.586 0.578c0.187 0.187 0.297 0.445 0.297 0.711s-0.109 0.523-0.297 0.711l-2.289 2.289h5.5c0.563 0 0.914 0.469 0.914 1z"></path>
</svg>
