<!-- Generated by IcoMoon.io -->
<svg version="1.1" xmlns="http://www.w3.org/2000/svg" width="13" height="14" viewBox="0 0 13 14">
<title>arrow-down</title>
<path d="M12.586 6.5c0 0.266-0.109 0.523-0.289 0.703l-5.086 5.094c-0.187 0.18-0.445 0.289-0.711 0.289s-0.523-0.109-0.703-0.289l-5.086-5.094c-0.187-0.18-0.297-0.438-0.297-0.703s0.109-0.523 0.297-0.711l0.578-0.586c0.187-0.18 0.445-0.289 0.711-0.289s0.523 0.109 0.703 0.289l2.297 2.297v-5.5c0-0.547 0.453-1 1-1h1c0.547 0 1 0.453 1 1v5.5l2.297-2.297c0.18-0.18 0.438-0.289 0.703-0.289s0.523 0.109 0.711 0.289l0.586 0.586c0.18 0.187 0.289 0.445 0.289 0.711z"></path>
</svg>
