<!-- Generated by IcoMoon.io -->
<svg version="1.1" xmlns="http://www.w3.org/2000/svg" width="12" height="14" viewBox="0 0 12 14">
<title>arrow-circle-o-left</title>
<path d="M9 6.25v1.5c0 0.133-0.117 0.25-0.25 0.25h-2.75v1.5c0 0.141-0.109 0.25-0.25 0.25-0.070 0-0.133-0.031-0.187-0.078l-2.492-2.492c-0.047-0.047-0.070-0.117-0.070-0.18s0.023-0.133 0.070-0.18l2.5-2.5c0.047-0.047 0.117-0.070 0.18-0.070 0.133 0 0.25 0.117 0.25 0.25v1.5h2.75c0.133 0 0.25 0.117 0.25 0.25zM10.25 7c0-2.344-1.906-4.25-4.25-4.25s-4.25 1.906-4.25 4.25 1.906 4.25 4.25 4.25 4.25-1.906 4.25-4.25zM12 7c0 3.313-2.687 6-6 6s-6-2.687-6-6 2.687-6 6-6 6 2.687 6 6z"></path>
</svg>
