<!-- Generated by IcoMoon.io -->
<svg version="1.1" xmlns="http://www.w3.org/2000/svg" width="6" height="14" viewBox="0 0 6 14">
<title>arrows-v</title>
<path d="M5.5 2.5c0 0.273-0.227 0.5-0.5 0.5h-1v8h1c0.273 0 0.5 0.227 0.5 0.5 0 0.133-0.055 0.258-0.148 0.352l-2 2c-0.094 0.094-0.219 0.148-0.352 0.148s-0.258-0.055-0.352-0.148l-2-2c-0.094-0.094-0.148-0.219-0.148-0.352 0-0.273 0.227-0.5 0.5-0.5h1v-8h-1c-0.273 0-0.5-0.227-0.5-0.5 0-0.133 0.055-0.258 0.148-0.352l2-2c0.094-0.094 0.219-0.148 0.352-0.148s0.258 0.055 0.352 0.148l2 2c0.094 0.094 0.148 0.219 0.148 0.352z"></path>
</svg>
