<!-- Generated by IcoMoon.io -->
<svg version="1.1" xmlns="http://www.w3.org/2000/svg" width="12" height="14" viewBox="0 0 12 14">
<title>arrow-circle-down</title>
<path d="M10.031 7.008c0-0.133-0.047-0.258-0.141-0.352l-0.711-0.711c-0.094-0.094-0.219-0.141-0.352-0.141s-0.258 0.047-0.352 0.141l-1.477 1.477v-3.922c0-0.273-0.227-0.5-0.5-0.5h-1c-0.273 0-0.5 0.227-0.5 0.5v3.922l-1.477-1.477c-0.094-0.094-0.219-0.148-0.352-0.148s-0.258 0.055-0.352 0.148l-0.711 0.711c-0.094 0.094-0.141 0.219-0.141 0.352s0.047 0.258 0.141 0.352l3.539 3.539c0.094 0.094 0.219 0.141 0.352 0.141s0.258-0.047 0.352-0.141l3.539-3.539c0.094-0.094 0.141-0.219 0.141-0.352zM12 7c0 3.313-2.687 6-6 6s-6-2.687-6-6 2.687-6 6-6 6 2.687 6 6z"></path>
</svg>
