<!-- Generated by IcoMoon.io -->
<svg version="1.1" xmlns="http://www.w3.org/2000/svg" width="13" height="14" viewBox="0 0 13 14">
<title>arrow-up</title>
<path d="M12.586 7.586c0 0.266-0.109 0.516-0.289 0.703l-0.586 0.586c-0.187 0.187-0.445 0.297-0.711 0.297s-0.523-0.109-0.703-0.297l-2.297-2.289v5.5c0 0.563-0.469 0.914-1 0.914h-1c-0.531 0-1-0.352-1-0.914v-5.5l-2.297 2.289c-0.18 0.187-0.438 0.297-0.703 0.297s-0.523-0.109-0.703-0.297l-0.586-0.586c-0.187-0.187-0.297-0.438-0.297-0.703s0.109-0.523 0.297-0.711l5.086-5.086c0.18-0.187 0.438-0.289 0.703-0.289s0.523 0.102 0.711 0.289l5.086 5.086c0.18 0.187 0.289 0.445 0.289 0.711z"></path>
</svg>
