<!-- Generated by IcoMoon.io -->
<svg version="1.1" xmlns="http://www.w3.org/2000/svg" width="14" height="14" viewBox="0 0 14 14">
<title>assistive-listening-systems</title>
<path d="M1 13.5c0 0.273-0.227 0.5-0.5 0.5s-0.5-0.227-0.5-0.5 0.227-0.5 0.5-0.5 0.5 0.227 0.5 0.5zM2.5 12c0 0.273-0.227 0.5-0.5 0.5s-0.5-0.227-0.5-0.5 0.227-0.5 0.5-0.5 0.5 0.227 0.5 0.5zM2.852 9.148l2 2-0.703 0.703-2-2zM5.5 9c0 0.273-0.227 0.5-0.5 0.5s-0.5-0.227-0.5-0.5 0.227-0.5 0.5-0.5 0.5 0.227 0.5 0.5zM11.023 6.5c0 1.297-0.609 1.992-1.141 2.609-0.492 0.563-0.883 1.008-0.883 1.891 0 1.656-1.344 3-3 3-0.273 0-0.5-0.227-0.5-0.5s0.227-0.5 0.5-0.5c1.102 0 2-0.898 2-2 0-1.258 0.602-1.945 1.125-2.547 0.484-0.555 0.898-1.031 0.898-1.953 0-1.93-1.57-3.5-3.5-3.5s-3.5 1.57-3.5 3.5c0 0.273-0.227 0.5-0.5 0.5s-0.5-0.227-0.5-0.5c0-2.484 2.016-4.5 4.5-4.5s4.5 2.016 4.5 4.5zM7 7.5c0 0.273-0.227 0.5-0.5 0.5s-0.5-0.227-0.5-0.5 0.227-0.5 0.5-0.5 0.5 0.227 0.5 0.5zM9.25 6.5c0 0.273-0.227 0.5-0.5 0.5s-0.5-0.227-0.5-0.5c0-0.969-0.781-1.75-1.75-1.75-0.961 0-1.75 0.781-1.75 1.75 0 0.273-0.227 0.5-0.5 0.5s-0.5-0.227-0.5-0.5c0-1.516 1.234-2.75 2.75-2.75s2.75 1.234 2.75 2.75zM12.328 4.242c0.102 0.258-0.031 0.547-0.289 0.648-0.055 0.023-0.117 0.031-0.18 0.031-0.195 0-0.391-0.117-0.461-0.32-0.352-0.914-0.961-1.711-1.75-2.305-0.219-0.164-0.266-0.477-0.102-0.695 0.172-0.219 0.484-0.266 0.703-0.102 0.937 0.703 1.656 1.656 2.078 2.742zM13.969 3.609c0.094 0.258-0.031 0.547-0.289 0.648-0.062 0.023-0.117 0.031-0.18 0.031-0.203 0-0.391-0.117-0.469-0.32-0.469-1.219-1.273-2.281-2.32-3.070-0.227-0.164-0.266-0.477-0.102-0.695 0.164-0.227 0.477-0.266 0.695-0.102 1.203 0.898 2.125 2.117 2.664 3.508z"></path>
</svg>
