<!-- Generated by IcoMoon.io -->
<svg version="1.1" xmlns="http://www.w3.org/2000/svg" width="13" height="14" viewBox="0 0 13 14">
<title>asterisk</title>
<path d="M11.578 8.203c0.477 0.273 0.641 0.891 0.367 1.367l-0.5 0.859c-0.273 0.477-0.891 0.641-1.367 0.367l-2.078-1.195v2.398c0 0.547-0.453 1-1 1h-1c-0.547 0-1-0.453-1-1v-2.398l-2.078 1.195c-0.477 0.273-1.094 0.109-1.367-0.367l-0.5-0.859c-0.273-0.477-0.109-1.094 0.367-1.367l2.078-1.203-2.078-1.203c-0.477-0.273-0.641-0.891-0.367-1.367l0.5-0.859c0.273-0.477 0.891-0.641 1.367-0.367l2.078 1.195v-2.398c0-0.547 0.453-1 1-1h1c0.547 0 1 0.453 1 1v2.398l2.078-1.195c0.477-0.273 1.094-0.109 1.367 0.367l0.5 0.859c0.273 0.477 0.109 1.094-0.367 1.367l-2.078 1.203z"></path>
</svg>
