<!-- Generated by IcoMoon.io -->
<svg version="1.1" xmlns="http://www.w3.org/2000/svg" width="12" height="14" viewBox="0 0 12 14">
<title>at</title>
<path d="M7.594 6.055c0-1.125-0.586-1.797-1.57-1.797-1.297 0-2.687 1.289-2.687 3.375 0 1.164 0.578 1.828 1.594 1.828 1.57 0 2.664-1.797 2.664-3.406zM12 7c0 2.43-1.734 3.344-3.219 3.391-0.102 0-0.141 0.008-0.25 0.008-0.484 0-0.867-0.141-1.109-0.414-0.148-0.172-0.234-0.391-0.258-0.648-0.484 0.609-1.328 1.203-2.383 1.203-1.68 0-2.641-1.039-2.641-2.852 0-2.492 1.727-4.516 3.836-4.516 0.914 0 1.648 0.391 2.039 1.055l0.016-0.148 0.086-0.438c0.008-0.062 0.062-0.141 0.117-0.141h0.922c0.039 0 0.078 0.055 0.102 0.086 0.023 0.023 0.031 0.086 0.023 0.125l-0.937 4.797c-0.031 0.148-0.039 0.266-0.039 0.375 0 0.422 0.125 0.508 0.445 0.508 0.531-0.016 2.25-0.234 2.25-2.391 0-3.039-1.961-5-5-5-2.758 0-5 2.242-5 5s2.242 5 5 5c1.148 0 2.273-0.398 3.164-1.125 0.109-0.094 0.266-0.078 0.352 0.031l0.32 0.383c0.039 0.055 0.062 0.117 0.055 0.187-0.008 0.062-0.039 0.125-0.094 0.172-1.062 0.867-2.414 1.352-3.797 1.352-3.305 0-6-2.695-6-6s2.695-6 6-6c3.586 0 6 2.414 6 6z"></path>
</svg>
