<!-- Generated by IcoMoon.io -->
<svg version="1.1" xmlns="http://www.w3.org/2000/svg" width="18" height="14" viewBox="0 0 18 14">
<title>audio-description</title>
<path d="M3.938 7.766h1.336l-0.008-2.070zM11.953 6.992c0-0.867-0.5-1.508-1.539-1.508h-0.422v3.031h0.406c0.977 0 1.555-0.711 1.555-1.523zM7.469 4.047l0.008 5.906c0 0.148-0.117 0.266-0.258 0.266h-1.688c-0.141 0-0.258-0.117-0.258-0.266v-0.484h-2.273l-0.43 0.633c-0.047 0.070-0.133 0.117-0.219 0.117h-2.086c-0.219 0-0.344-0.242-0.211-0.414l4.344-5.914c0.047-0.070 0.125-0.109 0.211-0.109h2.594c0.148 0 0.266 0.117 0.266 0.266zM13.93 6.992c0 2.055-1.5 3.227-3.516 3.227h-2.109c-0.148 0-0.266-0.117-0.266-0.266v-5.906c0-0.148 0.117-0.266 0.266-0.266h2.094c2.031 0 3.531 1.156 3.531 3.211zM15.148 7c0 0 0.031 2.031-1.156 3.227h-0.398c1.062-1.266 1.086-3.234 1.086-3.234s0.016-1.547-1.055-3.203h0.336c1.156 1.32 1.187 3.211 1.187 3.211zM16.586 7c0 0 0.031 2.031-1.164 3.227h-0.398c1.062-1.266 1.086-3.234 1.086-3.234s0.016-1.547-1.047-3.203h0.336c1.156 1.32 1.187 3.211 1.187 3.211zM18 7c0 0 0.031 2.031-1.156 3.227h-0.398c1.055-1.266 1.078-3.234 1.078-3.234s0.016-1.547-1.047-3.203h0.336c1.156 1.32 1.187 3.211 1.187 3.211z"></path>
</svg>
