<!-- Generated by IcoMoon.io -->
<svg version="1.1" xmlns="http://www.w3.org/2000/svg" width="16" height="14" viewBox="0 0 16 14">
<title>automobile</title>
<path d="M3.75 8.5c0-0.688-0.563-1.25-1.25-1.25s-1.25 0.563-1.25 1.25 0.563 1.25 1.25 1.25 1.25-0.563 1.25-1.25zM4.031 6h7.937l-0.695-2.789c-0.023-0.086-0.18-0.211-0.273-0.211h-6c-0.094 0-0.25 0.125-0.273 0.211zM14.75 8.5c0-0.688-0.563-1.25-1.25-1.25s-1.25 0.563-1.25 1.25 0.563 1.25 1.25 1.25 1.25-0.563 1.25-1.25zM16 7.75v3c0 0.141-0.109 0.25-0.25 0.25h-0.75v1c0 0.828-0.672 1.5-1.5 1.5s-1.5-0.672-1.5-1.5v-1h-8v1c0 0.828-0.672 1.5-1.5 1.5s-1.5-0.672-1.5-1.5v-1h-0.75c-0.141 0-0.25-0.109-0.25-0.25v-3c0-0.969 0.781-1.75 1.75-1.75h0.219l0.82-3.273c0.242-0.984 1.195-1.727 2.211-1.727h6c1.016 0 1.969 0.742 2.211 1.727l0.82 3.273h0.219c0.969 0 1.75 0.781 1.75 1.75z"></path>
</svg>
