<!-- Generated by IcoMoon.io -->
<svg version="1.1" xmlns="http://www.w3.org/2000/svg" width="17" height="14" viewBox="0 0 17 14">
<title>balance-scale</title>
<path d="M13.5 3.5l-3 5.5h6zM3.5 3.5l-3 5.5h6zM9.914 2c-0.148 0.422-0.492 0.766-0.914 0.914v10.086h4.75c0.141 0 0.25 0.109 0.25 0.25v0.5c0 0.141-0.109 0.25-0.25 0.25h-10.5c-0.141 0-0.25-0.109-0.25-0.25v-0.5c0-0.141 0.109-0.25 0.25-0.25h4.75v-10.086c-0.422-0.148-0.766-0.492-0.914-0.914h-3.836c-0.141 0-0.25-0.109-0.25-0.25v-0.5c0-0.141 0.109-0.25 0.25-0.25h3.836c0.211-0.586 0.758-1 1.414-1s1.203 0.414 1.414 1h3.836c0.141 0 0.25 0.109 0.25 0.25v0.5c0 0.141-0.109 0.25-0.25 0.25h-3.836zM8.5 2.125c0.344 0 0.625-0.281 0.625-0.625s-0.281-0.625-0.625-0.625-0.625 0.281-0.625 0.625 0.281 0.625 0.625 0.625zM17 9c0 1.609-2.227 2.25-3.5 2.25s-3.5-0.641-3.5-2.25v0c0-0.305 2.727-5.133 3.063-5.742 0.086-0.156 0.258-0.258 0.438-0.258s0.352 0.102 0.438 0.258c0.336 0.609 3.063 5.437 3.063 5.742v0zM7 9c0 1.609-2.227 2.25-3.5 2.25s-3.5-0.641-3.5-2.25v0c0-0.305 2.727-5.133 3.063-5.742 0.086-0.156 0.258-0.258 0.438-0.258s0.352 0.102 0.438 0.258c0.336 0.609 3.063 5.437 3.063 5.742z"></path>
</svg>
