<!-- Generated by IcoMoon.io -->
<svg version="1.1" xmlns="http://www.w3.org/2000/svg" width="12" height="14" viewBox="0 0 12 14">
<title>bars</title>
<path d="M12 10.5v1c0 0.273-0.227 0.5-0.5 0.5h-11c-0.273 0-0.5-0.227-0.5-0.5v-1c0-0.273 0.227-0.5 0.5-0.5h11c0.273 0 0.5 0.227 0.5 0.5zM12 6.5v1c0 0.273-0.227 0.5-0.5 0.5h-11c-0.273 0-0.5-0.227-0.5-0.5v-1c0-0.273 0.227-0.5 0.5-0.5h11c0.273 0 0.5 0.227 0.5 0.5zM12 2.5v1c0 0.273-0.227 0.5-0.5 0.5h-11c-0.273 0-0.5-0.227-0.5-0.5v-1c0-0.273 0.227-0.5 0.5-0.5h11c0.273 0 0.5 0.227 0.5 0.5z"></path>
</svg>
