<!-- Generated by IcoMoon.io -->
<svg version="1.1" xmlns="http://www.w3.org/2000/svg" width="14" height="14" viewBox="0 0 14 14">
<title>bath</title>
<path d="M13 8.5v1.5c0 0.891-0.391 1.68-1 2.234v1.516c0 0.141-0.109 0.25-0.25 0.25h-0.5c-0.141 0-0.25-0.109-0.25-0.25v-0.922c-0.312 0.109-0.648 0.172-1 0.172h-6c-0.352 0-0.688-0.062-1-0.172v0.859c0 0.172-0.109 0.312-0.25 0.312h-0.5c-0.141 0-0.25-0.141-0.25-0.312v-1.453c-0.609-0.555-1-1.344-1-2.234v-1.5h12zM5.5 5.25c0 0.141-0.109 0.25-0.25 0.25s-0.25-0.109-0.25-0.25 0.109-0.25 0.25-0.25 0.25 0.109 0.25 0.25zM6 4.75c0 0.141-0.109 0.25-0.25 0.25s-0.25-0.109-0.25-0.25 0.109-0.25 0.25-0.25 0.25 0.109 0.25 0.25zM5.5 4.25c0 0.141-0.109 0.25-0.25 0.25s-0.25-0.109-0.25-0.25 0.109-0.25 0.25-0.25 0.25 0.109 0.25 0.25zM6.5 4.25c0 0.141-0.109 0.25-0.25 0.25s-0.25-0.109-0.25-0.25 0.109-0.25 0.25-0.25 0.25 0.109 0.25 0.25zM6 3.75c0 0.141-0.109 0.25-0.25 0.25s-0.25-0.109-0.25-0.25 0.109-0.25 0.25-0.25 0.25 0.109 0.25 0.25zM5.5 3.25c0 0.141-0.109 0.25-0.25 0.25s-0.25-0.109-0.25-0.25 0.109-0.25 0.25-0.25 0.25 0.109 0.25 0.25zM14 7.25v0.5c0 0.141-0.109 0.25-0.25 0.25h-13.5c-0.141 0-0.25-0.109-0.25-0.25v-0.5c0-0.141 0.109-0.25 0.25-0.25h0.75v-5c0-1.102 0.898-2 2-2 0.563 0 1.070 0.234 1.438 0.609 0.484-0.195 1.062-0.125 1.492 0.211l0.172-0.172c0.047-0.047 0.125-0.047 0.172 0l0.328 0.328c0.047 0.047 0.047 0.125 0 0.172l-2.453 2.453c-0.047 0.047-0.125 0.047-0.172 0l-0.328-0.328c-0.047-0.047-0.047-0.125 0-0.172l0.172-0.172c-0.375-0.477-0.422-1.133-0.133-1.656-0.18-0.172-0.422-0.273-0.688-0.273-0.555 0-1 0.445-1 1v5h11.75c0.141 0 0.25 0.109 0.25 0.25zM7 3.75c0 0.141-0.109 0.25-0.25 0.25s-0.25-0.109-0.25-0.25 0.109-0.25 0.25-0.25 0.25 0.109 0.25 0.25zM6.5 3.25c0 0.141-0.109 0.25-0.25 0.25s-0.25-0.109-0.25-0.25 0.109-0.25 0.25-0.25 0.25 0.109 0.25 0.25zM6 2.75c0 0.141-0.109 0.25-0.25 0.25s-0.25-0.109-0.25-0.25 0.109-0.25 0.25-0.25 0.25 0.109 0.25 0.25zM7.5 3.25c0 0.141-0.109 0.25-0.25 0.25s-0.25-0.109-0.25-0.25 0.109-0.25 0.25-0.25 0.25 0.109 0.25 0.25zM7 2.75c0 0.141-0.109 0.25-0.25 0.25s-0.25-0.109-0.25-0.25 0.109-0.25 0.25-0.25 0.25 0.109 0.25 0.25zM6.5 2.25c0 0.141-0.109 0.25-0.25 0.25s-0.25-0.109-0.25-0.25 0.109-0.25 0.25-0.25 0.25 0.109 0.25 0.25zM8 2.75c0 0.141-0.109 0.25-0.25 0.25s-0.25-0.109-0.25-0.25 0.109-0.25 0.25-0.25 0.25 0.109 0.25 0.25zM7.5 2.25c0 0.141-0.109 0.25-0.25 0.25s-0.25-0.109-0.25-0.25 0.109-0.25 0.25-0.25 0.25 0.109 0.25 0.25zM8.5 2.25c0 0.141-0.109 0.25-0.25 0.25s-0.25-0.109-0.25-0.25 0.109-0.25 0.25-0.25 0.25 0.109 0.25 0.25z"></path>
</svg>
