<!-- Generated by IcoMoon.io -->
<svg version="1.1" xmlns="http://www.w3.org/2000/svg" width="18" height="14" viewBox="0 0 18 14">
<title>battery-3</title>
<path d="M2 10v-6h10v6h-10zM17 4.5c0.555 0 1 0.445 1 1v3c0 0.555-0.445 1-1 1v1.25c0 0.688-0.563 1.25-1.25 1.25h-14.5c-0.688 0-1.25-0.563-1.25-1.25v-7.5c0-0.688 0.563-1.25 1.25-1.25h14.5c0.688 0 1.25 0.563 1.25 1.25v1.25zM17 8.5v-3h-1v-2.25c0-0.141-0.109-0.25-0.25-0.25h-14.5c-0.141 0-0.25 0.109-0.25 0.25v7.5c0 0.141 0.109 0.25 0.25 0.25h14.5c0.141 0 0.25-0.109 0.25-0.25v-2.25h1z"></path>
</svg>
