<!-- Generated by IcoMoon.io -->
<svg version="1.1" xmlns="http://www.w3.org/2000/svg" width="12" height="14" viewBox="0 0 12 14">
<title>behance-square</title>
<path d="M9.75 1c1.242 0 2.25 1.008 2.25 2.25v7.5c0 1.242-1.008 2.25-2.25 2.25h-7.5c-1.242 0-2.25-1.008-2.25-2.25v-7.5c0-1.242 1.008-2.25 2.25-2.25h7.5zM3.898 3.867h-2.898v6.148h2.984c1.117 0 2.164-0.531 2.164-1.781 0-0.773-0.367-1.344-1.117-1.563 0.547-0.266 0.836-0.664 0.836-1.281 0-1.227-0.914-1.523-1.969-1.523zM3.727 6.352h-1.375v-1.438h1.273c0.484 0 0.93 0.133 0.93 0.703 0 0.523-0.344 0.734-0.828 0.734zM3.797 8.969h-1.445v-1.695h1.477c0.594 0 0.969 0.258 0.969 0.883s-0.445 0.813-1 0.813zM8.875 9.219c-0.719 0-1.094-0.422-1.094-1.133h3.211c0.008-0.078 0.008-0.156 0.008-0.234 0-1.313-0.773-2.414-2.172-2.414-1.352 0-2.281 1.023-2.281 2.359 0 1.391 0.875 2.336 2.281 2.336 1.070 0 1.758-0.477 2.086-1.492h-1.078c-0.117 0.375-0.594 0.578-0.961 0.578zM8.797 6.359c0.609 0 0.914 0.367 0.969 0.953h-1.984c0.039-0.586 0.43-0.953 1.016-0.953zM7.531 4.281h2.492v0.602h-2.492v-0.602z"></path>
</svg>
