<!-- Generated by IcoMoon.io -->
<svg version="1.1" xmlns="http://www.w3.org/2000/svg" width="16" height="14" viewBox="0 0 16 14">
<title>behance</title>
<path d="M14.438 2.648h-3.992v0.969h3.992v-0.969zM12.469 5.977c-0.937 0-1.563 0.586-1.625 1.523h3.188c-0.086-0.945-0.578-1.523-1.563-1.523zM12.594 10.547c0.594 0 1.359-0.32 1.547-0.93h1.727c-0.531 1.633-1.633 2.398-3.336 2.398-2.25 0-3.648-1.523-3.648-3.742 0-2.141 1.477-3.773 3.648-3.773 2.234 0 3.469 1.758 3.469 3.867 0 0.125-0.008 0.25-0.016 0.367h-5.141c0 1.141 0.602 1.812 1.75 1.812zM2.164 10.156h2.313c0.883 0 1.602-0.312 1.602-1.305 0-1.008-0.602-1.406-1.555-1.406h-2.359v2.711zM2.164 5.961h2.195c0.773 0 1.32-0.336 1.32-1.172 0-0.906-0.703-1.125-1.484-1.125h-2.031v2.297zM0 1.984h4.641c1.688 0 3.148 0.477 3.148 2.438 0 0.992-0.461 1.633-1.344 2.055 1.211 0.344 1.797 1.258 1.797 2.492 0 2-1.68 2.859-3.469 2.859h-4.773v-9.844z"></path>
</svg>
