<!-- Generated by IcoMoon.io -->
<svg version="1.1" xmlns="http://www.w3.org/2000/svg" width="14" height="14" viewBox="0 0 14 14">
<title>bell</title>
<path d="M7.125 13.25c0-0.070-0.055-0.125-0.125-0.125-0.617 0-1.125-0.508-1.125-1.125 0-0.070-0.055-0.125-0.125-0.125s-0.125 0.055-0.125 0.125c0 0.758 0.617 1.375 1.375 1.375 0.070 0 0.125-0.055 0.125-0.125zM13.5 11c0 0.547-0.453 1-1 1h-3.5c0 1.102-0.898 2-2 2s-2-0.898-2-2h-3.5c-0.547 0-1-0.453-1-1 1.156-0.977 2.5-2.727 2.5-6.5 0-1.5 1.242-3.141 3.313-3.445-0.039-0.094-0.062-0.195-0.062-0.305 0-0.414 0.336-0.75 0.75-0.75s0.75 0.336 0.75 0.75c0 0.109-0.023 0.211-0.062 0.305 2.070 0.305 3.313 1.945 3.313 3.445 0 3.773 1.344 5.523 2.5 6.5z"></path>
</svg>
