<!-- Generated by IcoMoon.io -->
<svg version="1.1" xmlns="http://www.w3.org/2000/svg" width="16" height="14" viewBox="0 0 16 14">
<title>bell-slash-o</title>
<path d="M8.125 13.25c0-0.070-0.055-0.125-0.125-0.125-0.617 0-1.125-0.508-1.125-1.125 0-0.070-0.055-0.125-0.125-0.125s-0.125 0.055-0.125 0.125c0 0.758 0.617 1.375 1.375 1.375 0.070 0 0.125-0.055 0.125-0.125zM3.93 9.539l6.852-5.938c-0.391-0.82-1.297-1.602-2.781-1.602-2.047 0-3 1.492-3 2.5 0 2-0.352 3.672-1.070 5.039zM14.5 11c0 0.547-0.453 1-1 1h-3.5c0 1.102-0.898 2-2 2s-1.992-0.891-2-1.992l1.164-1.008h5.914c-0.867-0.977-1.453-2.164-1.773-3.586l0.867-0.758c0.398 2.328 1.422 3.578 2.328 4.344zM15.172 0.125l0.656 0.75c0.086 0.109 0.078 0.266-0.023 0.359l-14.625 12.672c-0.102 0.086-0.266 0.078-0.352-0.031l-0.656-0.75c-0.086-0.109-0.078-0.266 0.023-0.352l1.453-1.258c-0.094-0.156-0.148-0.328-0.148-0.516 1.156-0.977 2.5-2.727 2.5-6.5 0-1.5 1.242-3.141 3.313-3.445-0.039-0.094-0.062-0.195-0.062-0.305 0-0.414 0.336-0.75 0.75-0.75s0.75 0.336 0.75 0.75c0 0.109-0.023 0.211-0.062 0.305 1.344 0.195 2.336 0.953 2.867 1.875l3.266-2.836c0.102-0.086 0.266-0.078 0.352 0.031z"></path>
</svg>
