<!-- Generated by IcoMoon.io -->
<svg version="1.1" xmlns="http://www.w3.org/2000/svg" width="18" height="14" viewBox="0 0 18 14">
<title>bicycle</title>
<path d="M5.953 9h-2.453c-0.414 0-0.648-0.469-0.398-0.797l1.469-1.961c-0.328-0.156-0.688-0.242-1.070-0.242-1.375 0-2.5 1.125-2.5 2.5s1.125 2.5 2.5 2.5c1.211 0 2.219-0.859 2.453-2zM4.5 8h1.453c-0.094-0.438-0.297-0.836-0.586-1.156zM8.25 8l2.25-3h-3.75l-0.773 1.031c0.523 0.516 0.875 1.203 0.984 1.969h1.289zM17 8.5c0-1.375-1.125-2.5-2.5-2.5-0.336 0-0.648 0.070-0.945 0.187l1.359 2.031c0.156 0.234 0.094 0.547-0.133 0.695-0.086 0.062-0.187 0.086-0.281 0.086-0.164 0-0.32-0.078-0.414-0.227l-1.359-2.031c-0.445 0.453-0.727 1.070-0.727 1.758 0 1.375 1.125 2.5 2.5 2.5s2.5-1.125 2.5-2.5zM18 8.5c0 1.93-1.57 3.5-3.5 3.5s-3.5-1.57-3.5-3.5c0-1.031 0.453-1.961 1.164-2.602l-0.508-0.766-2.758 3.664c-0.094 0.133-0.242 0.203-0.398 0.203h-1.539c-0.242 1.695-1.695 3-3.461 3-1.93 0-3.5-1.57-3.5-3.5s1.57-3.5 3.5-3.5c0.609 0 1.18 0.156 1.68 0.43l1.070-1.43h-1.75c-0.273 0-0.5-0.227-0.5-0.5s0.227-0.5 0.5-0.5h3v1h3.398l-0.664-1h-1.734c-0.273 0-0.5-0.227-0.5-0.5s0.227-0.5 0.5-0.5h2c0.164 0 0.32 0.086 0.414 0.219l2.086 3.125c0.453-0.219 0.961-0.344 1.5-0.344 1.93 0 3.5 1.57 3.5 3.5z"></path>
</svg>
