<!-- Generated by IcoMoon.io -->
<svg version="1.1" xmlns="http://www.w3.org/2000/svg" width="14" height="14" viewBox="0 0 14 14">
<title>binoculars</title>
<path d="M5.5 2.5v6c0 0.273-0.227 0.5-0.5 0.5v0 4.5c0 0.273-0.227 0.5-0.5 0.5h-4c-0.273 0-0.5-0.227-0.5-0.5v-4l1.945-6.82c0.031-0.109 0.133-0.18 0.242-0.18h3.313zM8 2.5v5.5h-2v-5.5h2zM14 9.5v4c0 0.273-0.227 0.5-0.5 0.5h-4c-0.273 0-0.5-0.227-0.5-0.5v-4.5c-0.273 0-0.5-0.227-0.5-0.5v-6h3.313c0.109 0 0.211 0.070 0.242 0.18zM5.75 0.25v1.75h-2.75v-1.75c0-0.141 0.109-0.25 0.25-0.25h2.25c0.141 0 0.25 0.109 0.25 0.25zM11 0.25v1.75h-2.75v-1.75c0-0.141 0.109-0.25 0.25-0.25h2.25c0.141 0 0.25 0.109 0.25 0.25z"></path>
</svg>
