<!-- Generated by IcoMoon.io -->
<svg version="1.1" xmlns="http://www.w3.org/2000/svg" width="14" height="14" viewBox="0 0 14 14">
<title>birthday-cake</title>
<path d="M14 11v3h-14v-3c0.766 0 1.172-0.344 1.492-0.617 0.266-0.234 0.445-0.383 0.844-0.383s0.57 0.148 0.844 0.383c0.32 0.273 0.719 0.617 1.492 0.617 0.766 0 1.164-0.344 1.492-0.617 0.266-0.234 0.438-0.383 0.836-0.383s0.578 0.148 0.844 0.383c0.32 0.273 0.727 0.617 1.492 0.617s1.172-0.344 1.492-0.617c0.266-0.234 0.445-0.383 0.844-0.383 0.391 0 0.57 0.148 0.836 0.383 0.32 0.273 0.727 0.617 1.492 0.617zM14 8.5v1.5c-0.398 0-0.57-0.148-0.844-0.383-0.32-0.273-0.719-0.617-1.484-0.617-0.773 0-1.172 0.344-1.492 0.617-0.273 0.234-0.445 0.383-0.844 0.383s-0.578-0.148-0.844-0.383c-0.32-0.273-0.719-0.617-1.492-0.617-0.766 0-1.164 0.344-1.492 0.617-0.266 0.234-0.438 0.383-0.836 0.383s-0.578-0.148-0.844-0.383c-0.32-0.273-0.727-0.617-1.492-0.617-0.773 0-1.172 0.344-1.492 0.617-0.266 0.234-0.445 0.383-0.844 0.383v-1.5c0-0.828 0.672-1.5 1.5-1.5h0.5v-3.5h2v3.5h2v-3.5h2v3.5h2v-3.5h2v3.5h0.5c0.828 0 1.5 0.672 1.5 1.5zM4 1.75c0 0.828-0.445 1.25-1 1.25s-1-0.445-1-1c0-0.969 1-0.719 1-2 0.375 0 1 0.922 1 1.75zM8 1.75c0 0.828-0.445 1.25-1 1.25s-1-0.445-1-1c0-0.969 1-0.719 1-2 0.375 0 1 0.922 1 1.75zM12 1.75c0 0.828-0.445 1.25-1 1.25s-1-0.445-1-1c0-0.969 1-0.719 1-2 0.375 0 1 0.922 1 1.75z"></path>
</svg>
