<!-- Generated by IcoMoon.io -->
<svg version="1.1" xmlns="http://www.w3.org/2000/svg" width="11" height="14" viewBox="0 0 11 14">
<title>bitbucket</title>
<path d="M6.367 6.711c0.086 0.656-0.711 1.172-1.266 0.836-0.625-0.273-0.625-1.266-0.016-1.547 0.523-0.32 1.281 0.102 1.281 0.711zM7.234 6.547c-0.141-1.109-1.398-1.844-2.422-1.383-0.648 0.289-1.086 0.977-1.055 1.703 0.039 0.953 0.945 1.734 1.898 1.648s1.695-1.016 1.578-1.969zM9.102 2.313c-0.344-0.453-0.93-0.531-1.445-0.617-1.461-0.234-2.961-0.242-4.422 0.016-0.484 0.078-1.031 0.164-1.336 0.602 0.5 0.469 1.211 0.539 1.852 0.617 1.156 0.148 2.344 0.156 3.5 0.008 0.648-0.078 1.367-0.141 1.852-0.625zM9.547 10.398c-0.219 0.766-0.094 1.797-0.906 2.242-1.398 0.773-3.094 0.859-4.633 0.586-0.813-0.148-1.766-0.406-2.211-1.172-0.195-0.75-0.32-1.516-0.445-2.281l0.047-0.125 0.141-0.070c2.328 1.539 5.586 1.539 7.922 0 0.367 0.109 0.094 0.555 0.086 0.82zM10.961 2.891c-0.266 1.711-0.57 3.414-0.867 5.117-0.086 0.5-0.57 0.781-0.977 0.992-1.461 0.734-3.164 0.859-4.766 0.688-1.086-0.117-2.195-0.406-3.078-1.086-0.414-0.32-0.414-0.867-0.492-1.328-0.273-1.602-0.586-3.203-0.781-4.82 0.094-0.703 0.883-1.008 1.469-1.227 0.781-0.289 1.617-0.422 2.445-0.5 1.766-0.172 3.57-0.109 5.281 0.391 0.609 0.18 1.266 0.43 1.68 0.953 0.187 0.242 0.125 0.547 0.086 0.82z"></path>
</svg>
