<!-- Generated by IcoMoon.io -->
<svg version="1.1" xmlns="http://www.w3.org/2000/svg" width="12" height="14" viewBox="0 0 12 14">
<title>bitbucket-square</title>
<path d="M6.625 6.797c0-0.445-0.547-0.75-0.922-0.523-0.445 0.211-0.445 0.93 0.008 1.117 0.406 0.242 0.977-0.125 0.914-0.594zM7.25 6.672c0.086 0.688-0.453 1.359-1.141 1.422s-1.336-0.5-1.367-1.195c-0.023-0.516 0.297-1.016 0.766-1.227 0.734-0.328 1.641 0.203 1.742 1zM8.594 3.617c-0.344 0.352-0.867 0.398-1.328 0.453-0.836 0.109-1.688 0.102-2.531 0-0.461-0.062-0.969-0.117-1.328-0.453 0.219-0.312 0.609-0.375 0.961-0.43 1.055-0.187 2.133-0.18 3.188-0.008 0.375 0.055 0.797 0.117 1.039 0.438zM8.922 9.445c0-0.187 0.195-0.508-0.070-0.586-1.68 1.109-4.023 1.109-5.711 0l-0.094 0.047-0.039 0.094c0.094 0.547 0.18 1.102 0.32 1.641 0.32 0.555 1.008 0.742 1.594 0.844 1.109 0.203 2.336 0.141 3.344-0.414 0.586-0.328 0.492-1.070 0.656-1.625zM9.937 4.031c0.031-0.187 0.070-0.414-0.062-0.586-0.297-0.375-0.766-0.555-1.211-0.688-1.234-0.359-2.539-0.406-3.805-0.281-0.602 0.055-1.203 0.156-1.766 0.359-0.422 0.164-0.992 0.383-1.062 0.883 0.141 1.172 0.367 2.32 0.563 3.484 0.062 0.328 0.062 0.719 0.359 0.953 0.633 0.484 1.438 0.695 2.219 0.781 1.156 0.125 2.383 0.039 3.438-0.492 0.297-0.156 0.641-0.359 0.703-0.719 0.219-1.227 0.43-2.453 0.625-3.695zM12 3.25v7.5c0 1.242-1.008 2.25-2.25 2.25h-7.5c-1.242 0-2.25-1.008-2.25-2.25v-7.5c0-1.242 1.008-2.25 2.25-2.25h7.5c1.242 0 2.25 1.008 2.25 2.25z"></path>
</svg>
