<!-- Generated by IcoMoon.io -->
<svg version="1.1" xmlns="http://www.w3.org/2000/svg" width="10" height="14" viewBox="0 0 10 14">
<title>bitcoin</title>
<path d="M9.117 5c0.102 1.039-0.336 1.664-1.023 2.016 1.141 0.273 1.859 0.953 1.719 2.477-0.18 1.898-1.586 2.406-3.602 2.516v1.992h-1.203v-1.961c-0.305 0-0.625 0-0.953-0.008v1.969h-1.203v-1.992c-0.281 0-0.563-0.008-0.852-0.008h-1.563l0.242-1.43c0.883 0.016 0.867 0 0.867 0 0.336 0 0.43-0.242 0.453-0.398v-3.141h0.125c-0.047-0.008-0.094-0.008-0.125-0.008v-2.242c-0.047-0.25-0.203-0.531-0.695-0.531 0 0 0.016-0.016-0.867 0v-1.281l1.656 0.008c0.242 0 0.5 0 0.758-0.008v-1.969h1.203v1.93c0.32-0.008 0.641-0.016 0.953-0.016v-1.914h1.203v1.969c1.547 0.133 2.773 0.609 2.906 2.031zM7.438 9.258c0-1.547-2.547-1.32-3.359-1.32v2.641c0.813 0 3.359 0.172 3.359-1.32zM6.883 5.539c0-1.414-2.125-1.203-2.805-1.203v2.398c0.68 0 2.805 0.156 2.805-1.195z"></path>
</svg>
