<!-- Generated by IcoMoon.io -->
<svg version="1.1" xmlns="http://www.w3.org/2000/svg" width="11" height="14" viewBox="0 0 11 14">
<title>blind</title>
<path d="M2.859 2.43c-0.672 0-1.219-0.547-1.219-1.219 0-0.664 0.547-1.211 1.219-1.211s1.211 0.547 1.211 1.211c0 0.672-0.539 1.219-1.211 1.219zM7.164 7.445c0 0.844-0.898 0.656-1.102 0.312l-2.867-3.422c-0.125-0.203-0.219-0.109-0.219-0.109s-0.055 0.062 0.031 0.164l0.953 1.086 0.008 2.766c-0.672 1.953-1.258 3.57-1.258 3.57-0.367 1.047-0.672 1.953-0.937 2.078-0.32 0.164-0.555 0.125-0.805 0.008-0.328-0.148-0.422-0.547-0.398-0.781 0 0 0.016-0.125 1.539-4.828l0.039-3.25-0.664 1.281 0.273 1.734c0.102 0.656-0.453 0.742-0.453 0.742-0.531 0.086-0.641-0.531-0.641-0.547l-0.359-2.336c1.641-2.961 1.648-2.977 1.648-2.977v0c0.125-0.187 0.406-0.266 0.883-0.266 0.422 0 0.688 0.125 0.836 0.312v0l3.313 4.070c0.047 0.031 0.078 0.078 0.109 0.133l0.023 0.023-0.008 0.008c0.039 0.070 0.055 0.148 0.055 0.227zM4.016 8.617c0.75 1.992 1.422 3.5 1.422 3.5 0.227 0.578 0.617 1.406 0.047 1.734-0.563 0.328-1.016-0.055-1.141-0.32v0h-0.008c-0.023-0.062-0.047-0.125-0.062-0.195l-0.969-2.742zM10.453 13.242c0.164 0.258 0.305 0.445 0.219 0.5-0.148 0.094-0.195-0.18-0.359-0.445 0 0-0.883-1.336-3.305-5.164 0.047 0.016 0.133-0.055 0.133-0.055s0.086-0.070 0.086-0.133c2.406 3.93 3.227 5.297 3.227 5.297z"></path>
</svg>
