<!-- Generated by IcoMoon.io -->
<svg version="1.1" xmlns="http://www.w3.org/2000/svg" width="12" height="14" viewBox="0 0 12 14">
<title>bluetooth</title>
<path d="M6.57 8.227l1.156 1.156-1.164 1.164zM6.563 3.453l1.164 1.164-1.156 1.156-0.008-2.32zM5.547 13.016l3.625-3.625-2.391-2.391 2.391-2.391-3.625-3.625v4.773l-1.992-1.992-0.727 0.727 2.5 2.508-2.5 2.508 0.727 0.727 1.992-1.992v4.773zM11.164 7c0 5.547-2.109 7-5.164 7v0c-3.055 0-5.164-1.453-5.164-7s2.109-7 5.164-7 5.164 1.453 5.164 7z"></path>
</svg>
