<!-- Generated by IcoMoon.io -->
<svg version="1.1" xmlns="http://www.w3.org/2000/svg" width="11" height="14" viewBox="0 0 11 14">
<title>bold</title>
<path d="M4.336 11.883c0.344 0.148 0.719 0.25 1.094 0.25 1.781 0 2.937-0.711 2.937-2.617 0-0.484-0.062-0.992-0.32-1.406-0.727-1.172-1.773-1.234-3.031-1.234-0.234 0-0.57 0-0.789 0.078 0 0.828-0.008 1.656-0.008 2.477 0 0.539-0.070 2 0.117 2.453zM4.227 6.055c0.281 0.047 0.57 0.055 0.852 0.055 1.609 0 2.758-0.453 2.758-2.258 0-1.523-1.352-2.047-2.656-2.047-0.344 0-0.68 0.047-1.016 0.102 0 0.789 0.062 1.578 0.062 2.367 0 0.414-0.008 0.828-0.008 1.242 0 0.18 0 0.359 0.008 0.539zM0 13l0.016-0.734c0.5-0.125 1.008-0.133 1.492-0.336 0.273-0.461 0.234-1.273 0.234-1.797 0-0.172 0.016-7.641-0.172-8.008-0.117-0.227-1.266-0.281-1.523-0.312l-0.031-0.648c1.859-0.031 3.719-0.164 5.57-0.164 0.352 0 0.711 0.008 1.062 0.008 1.766 0 3.711 0.844 3.711 2.875 0 1.398-1.062 1.922-2.164 2.422 1.484 0.336 2.805 1.344 2.805 2.984 0 2.687-2.445 3.578-4.734 3.578-0.688 0-1.375-0.047-2.062-0.047-1.398 0-2.812 0.125-4.203 0.18z"></path>
</svg>
