<!-- Generated by IcoMoon.io -->
<svg version="1.1" xmlns="http://www.w3.org/2000/svg" width="7" height="14" viewBox="0 0 7 14">
<title>bolt</title>
<path d="M6.914 4.422c0.086 0.094 0.109 0.227 0.055 0.344l-4.219 9.039c-0.062 0.117-0.187 0.195-0.328 0.195-0.031 0-0.070-0.008-0.109-0.016-0.172-0.055-0.273-0.219-0.234-0.383l1.539-6.312-3.172 0.789c-0.031 0.008-0.062 0.008-0.094 0.008-0.086 0-0.18-0.031-0.242-0.086-0.094-0.078-0.125-0.195-0.102-0.305l1.57-6.445c0.039-0.148 0.18-0.25 0.344-0.25h2.563c0.195 0 0.352 0.148 0.352 0.328 0 0.047-0.016 0.094-0.039 0.141l-1.336 3.617 3.094-0.766c0.031-0.008 0.062-0.016 0.094-0.016 0.102 0 0.195 0.047 0.266 0.117z"></path>
</svg>
