<!-- Generated by IcoMoon.io -->
<svg version="1.1" xmlns="http://www.w3.org/2000/svg" width="13" height="14" viewBox="0 0 13 14">
<title>book</title>
<path d="M12.805 3.734c0.195 0.281 0.25 0.648 0.141 1.008l-2.148 7.078c-0.195 0.664-0.883 1.18-1.555 1.18h-7.211c-0.797 0-1.648-0.633-1.937-1.445-0.125-0.352-0.125-0.695-0.016-0.992 0.016-0.156 0.047-0.312 0.055-0.5 0.008-0.125-0.062-0.227-0.047-0.32 0.031-0.187 0.195-0.32 0.32-0.531 0.234-0.391 0.5-1.023 0.586-1.43 0.039-0.148-0.039-0.32 0-0.453 0.039-0.148 0.187-0.258 0.266-0.398 0.211-0.359 0.484-1.055 0.523-1.422 0.016-0.164-0.062-0.344-0.016-0.469 0.055-0.18 0.227-0.258 0.344-0.414 0.187-0.258 0.5-1 0.547-1.414 0.016-0.133-0.062-0.266-0.039-0.406 0.031-0.148 0.219-0.305 0.344-0.484 0.328-0.484 0.391-1.555 1.383-1.273l-0.008 0.023c0.133-0.031 0.266-0.070 0.398-0.070h5.945c0.367 0 0.695 0.164 0.891 0.438 0.203 0.281 0.25 0.648 0.141 1.016l-2.141 7.078c-0.367 1.203-0.57 1.469-1.563 1.469h-6.789c-0.102 0-0.227 0.023-0.297 0.117-0.062 0.094-0.070 0.164-0.008 0.336 0.156 0.453 0.695 0.547 1.125 0.547h7.211c0.289 0 0.625-0.164 0.711-0.445l2.344-7.711c0.047-0.148 0.047-0.305 0.039-0.445 0.18 0.070 0.344 0.18 0.461 0.336zM4.492 3.75c-0.047 0.141 0.031 0.25 0.172 0.25h4.75c0.133 0 0.281-0.109 0.328-0.25l0.164-0.5c0.047-0.141-0.031-0.25-0.172-0.25h-4.75c-0.133 0-0.281 0.109-0.328 0.25zM3.844 5.75c-0.047 0.141 0.031 0.25 0.172 0.25h4.75c0.133 0 0.281-0.109 0.328-0.25l0.164-0.5c0.047-0.141-0.031-0.25-0.172-0.25h-4.75c-0.133 0-0.281 0.109-0.328 0.25z"></path>
</svg>
