<!-- Generated by IcoMoon.io -->
<svg version="1.1" xmlns="http://www.w3.org/2000/svg" width="10" height="14" viewBox="0 0 10 14">
<title>bookmark-o</title>
<path d="M9 2h-8v9.703l4-3.836 0.695 0.664 3.305 3.172v-9.703zM9.094 1c0.117 0 0.234 0.023 0.344 0.070 0.344 0.133 0.563 0.453 0.563 0.805v10.070c0 0.352-0.219 0.672-0.563 0.805-0.109 0.047-0.227 0.062-0.344 0.062-0.242 0-0.469-0.086-0.648-0.25l-3.445-3.313-3.445 3.313c-0.18 0.164-0.406 0.258-0.648 0.258-0.117 0-0.234-0.023-0.344-0.070-0.344-0.133-0.563-0.453-0.563-0.805v-10.070c0-0.352 0.219-0.672 0.563-0.805 0.109-0.047 0.227-0.070 0.344-0.070h8.187z"></path>
</svg>
