<!-- Generated by IcoMoon.io -->
<svg version="1.1" xmlns="http://www.w3.org/2000/svg" width="17" height="14" viewBox="0 0 17 14">
<title>braille</title>
<path d="M1.5 9.25c-0.688 0-1.25 0.563-1.25 1.25s0.563 1.25 1.25 1.25 1.25-0.563 1.25-1.25-0.563-1.25-1.25-1.25zM5.5 9.25c-0.688 0-1.25 0.563-1.25 1.25s0.563 1.25 1.25 1.25 1.25-0.563 1.25-1.25-0.563-1.25-1.25-1.25zM5.5 5.25c-0.688 0-1.25 0.563-1.25 1.25s0.563 1.25 1.25 1.25 1.25-0.563 1.25-1.25-0.563-1.25-1.25-1.25zM11.5 9.25c-0.688 0-1.25 0.563-1.25 1.25s0.563 1.25 1.25 1.25 1.25-0.563 1.25-1.25-0.563-1.25-1.25-1.25zM15.5 9.25c-0.688 0-1.25 0.563-1.25 1.25s0.563 1.25 1.25 1.25 1.25-0.563 1.25-1.25-0.563-1.25-1.25-1.25zM11.5 5.25c-0.688 0-1.25 0.563-1.25 1.25s0.563 1.25 1.25 1.25 1.25-0.563 1.25-1.25-0.563-1.25-1.25-1.25zM15.5 5.25c-0.688 0-1.25 0.563-1.25 1.25s0.563 1.25 1.25 1.25 1.25-0.563 1.25-1.25-0.563-1.25-1.25-1.25zM15.5 1.25c-0.688 0-1.25 0.563-1.25 1.25s0.563 1.25 1.25 1.25 1.25-0.563 1.25-1.25-0.563-1.25-1.25-1.25zM3 10.5c0 0.828-0.672 1.5-1.5 1.5s-1.5-0.672-1.5-1.5 0.672-1.5 1.5-1.5v0c0.828 0 1.5 0.672 1.5 1.5zM7 10.5c0 0.828-0.672 1.5-1.5 1.5s-1.5-0.672-1.5-1.5 0.672-1.5 1.5-1.5v0c0.828 0 1.5 0.672 1.5 1.5zM3 6.5c0 0.828-0.672 1.5-1.5 1.5s-1.5-0.672-1.5-1.5 0.672-1.5 1.5-1.5 1.5 0.672 1.5 1.5zM7 6.5c0 0.828-0.672 1.5-1.5 1.5s-1.5-0.672-1.5-1.5 0.672-1.5 1.5-1.5v0c0.828 0 1.5 0.672 1.5 1.5zM3 2.5c0 0.828-0.672 1.5-1.5 1.5s-1.5-0.672-1.5-1.5 0.672-1.5 1.5-1.5 1.5 0.672 1.5 1.5zM13 10.5c0 0.828-0.672 1.5-1.5 1.5s-1.5-0.672-1.5-1.5 0.672-1.5 1.5-1.5v0c0.828 0 1.5 0.672 1.5 1.5zM7 2.5c0 0.828-0.672 1.5-1.5 1.5s-1.5-0.672-1.5-1.5 0.672-1.5 1.5-1.5 1.5 0.672 1.5 1.5zM17 10.5c0 0.828-0.672 1.5-1.5 1.5s-1.5-0.672-1.5-1.5 0.672-1.5 1.5-1.5v0c0.828 0 1.5 0.672 1.5 1.5zM13 6.5c0 0.828-0.672 1.5-1.5 1.5s-1.5-0.672-1.5-1.5 0.672-1.5 1.5-1.5v0c0.828 0 1.5 0.672 1.5 1.5zM17 6.5c0 0.828-0.672 1.5-1.5 1.5s-1.5-0.672-1.5-1.5 0.672-1.5 1.5-1.5v0c0.828 0 1.5 0.672 1.5 1.5zM13 2.5c0 0.828-0.672 1.5-1.5 1.5s-1.5-0.672-1.5-1.5 0.672-1.5 1.5-1.5 1.5 0.672 1.5 1.5zM17 2.5c0 0.828-0.672 1.5-1.5 1.5s-1.5-0.672-1.5-1.5 0.672-1.5 1.5-1.5v0c0.828 0 1.5 0.672 1.5 1.5z"></path>
</svg>
