<!-- Generated by IcoMoon.io -->
<svg version="1.1" xmlns="http://www.w3.org/2000/svg" width="16" height="16" viewBox="0 0 16 16">
<title>brand277</title>
<path fill="#1ab7ea" d="M15.992 4.275c-0.070 1.56-1.16 3.697-3.263 6.41-2.18 2.832-4.020 4.248-5.53 4.248-0.94 0-1.72-0.862-2.37-2.588l-1.279-4.745c-0.48-1.724-0.993-2.587-1.542-2.587-0.12 0-0.538 0.252-1.255 0.755l-0.753-0.972c0.79-0.696 1.568-1.39 2.335-2.086 1.053-0.912 1.844-1.39 2.37-1.44 1.246-0.12 2.012 0.733 2.3 2.56 0.31 1.97 0.526 3.194 0.647 3.673 0.36 1.634 0.754 2.45 1.185 2.45 0.335 0 0.838-0.53 1.51-1.59 0.67-1.060 1.028-1.866 1.076-2.42 0.096-0.915-0.263-1.374-1.077-1.374-0.383 0-0.778 0.080-1.185 0.26 0.79-2.58 2.29-3.84 4.51-3.76 1.65 0.040 2.42 1.11 2.33 3.2z"></path>
</svg>
