<!-- Generated by IcoMoon.io -->
<svg version="1.1" xmlns="http://www.w3.org/2000/svg" width="16" height="16" viewBox="0 0 16 16">
<title>brand124</title>
<path fill="#4679a4" d="M14.063 7.5c0.006-0.094 0.014-0.186 0.014-0.28 0-2.59-2.13-4.69-4.76-4.69-0.005-0-0.011-0-0.017-0-1.87 0-3.489 1.078-4.268 2.646-0.38-0.255-0.846-0.426-1.352-0.426-1.214 0-2.198 0.968-2.198 2.162 0 0.225 0.035 0.442 0.1 0.645-0.95 0.555-1.578 1.569-1.582 2.729 0 1.737 1.417 3.147 3.175 3.173h9.506c0.060 0 0.12 0.010 0.18 0.010 1.74 0 3.15-1.39 3.15-3.11-0.008-1.288-0.798-2.389-1.919-2.852zM4.297 11.070c-0.32-0.29-0.52-0.64-0.6-1.055-0.025-0.129-0.040-0.277-0.040-0.429 0-0.002 0-0.004 0-0.007 0-0.59 0.215-1.076 0.645-1.46s0.975-0.576 1.638-0.576c0.68 0 1.32 0.255 1.888 0.764 0.14 0.127 0.278 0.27 0.41 0.428l0.728 0.857c0.126 0.172 0.26 0.32 0.4 0.447 0.375 0.336 0.78 0.504 1.124 0.504 0.292 0 0.535-0.090 0.73-0.268 0.161-0.148 0.268-0.351 0.29-0.58l0.005-0.102c0-0.001 0-0.003 0-0.004 0-0.098-0.016-0.192-0.045-0.28-0.145-0.387-0.518-0.662-0.954-0.662-0.012 0-0.024 0-0.036 0.001-0.361-0-0.72 0.122-1.114 0.504l-0.645-0.76-0.070-0.086c0.57-0.553 1.13-0.76 1.89-0.76 0.67 0 1.22 0.19 1.63 0.57l0.010 0.010c0.43 0.38 0.64 0.87 0.64 1.473 0 0.14-0.010 0.29-0.040 0.42-0.080 0.41-0.28 0.75-0.59 1.040-0.306 0.28-0.696 0.474-1.128 0.539-0.162 0.021-0.312 0.031-0.482 0.031-0.69 0-1.34-0.25-1.89-0.75-0.155-0.141-0.296-0.291-0.424-0.452l-0.736-0.858c-0.118-0.168-0.246-0.316-0.388-0.448-0.372-0.341-0.782-0.502-1.142-0.502-0.001 0-0.002 0-0.003 0-0.109 0-0.215 0.015-0.316 0.042-0.156 0.040-0.297 0.12-0.412 0.229-0.178 0.165-0.29 0.401-0.29 0.663 0 0.002 0 0.005 0 0.007 0 0.26 0.090 0.48 0.28 0.66l0.010 0.010c0.2 0.18 0.45 0.27 0.74 0.27 0.37 0 0.73-0.13 1.12-0.51l0.64 0.75 0.070 0.080c-0.58 0.56-1.14 0.77-1.87 0.77-0.67 0-1.22-0.19-1.64-0.57z"></path>
</svg>
