<!-- Generated by IcoMoon.io -->
<svg version="1.1" xmlns="http://www.w3.org/2000/svg" width="16" height="16" viewBox="0 0 16 16">
<title>brand216</title>
<path fill="#e7282d" d="M16 12.122v1.516h-3.26v-1.516h3.26zM0 12.052h7.67v1.517h-7.67v-1.52zM8.593 12.052h3.26v1.517h-3.26v-1.52zM12.741 9.647h3.259v1.516h-3.26v-1.516zM0 9.577h7.67v1.517h-7.67v-1.517zM8.593 9.577h3.26v1.517h-3.26v-1.517zM12.741 7.347h3.259v1.516h-3.26v-1.517zM0 7.277h7.67v1.513h-7.67v-1.513zM8.593 7.277h3.26v1.513h-3.26v-1.513zM12.74 4.87h3.26v1.52h-3.26v-1.52zM0 4.803h7.67v1.517h-7.67v-1.52zM8.593 4.803h3.26v1.517h-3.26v-1.52zM12.741 2.433h3.259v1.517h-3.26v-1.52zM0 2.36h7.67v1.516h-7.67v-1.514zM8.593 2.36h3.26v1.516h-3.26v-1.514z"></path>
</svg>
