<!-- Generated by IcoMoon.io -->
<svg version="1.1" xmlns="http://www.w3.org/2000/svg" width="16" height="16" viewBox="0 0 16 16">
<title>brand244</title>
<path fill="#003168" d="M0.327 11.316c-0.080 0.030-0.125-0.008-0.098-0.090l0.22-0.73c0.020-0.080 0.040-0.22 0.030-0.304l-0.479-4.594c-0.007-0.084 0.054-0.16 0.14-0.166l15.716-1.055c0.085-0.005 0.15 0.060 0.143 0.146l-0.64 6.954c-0.010 0.085-0.090 0.15-0.17 0.146l-13.36-0.86c-0.090-0.004-0.23 0.017-0.3 0.052l-1.21 0.5zM7.53 7.474c-0.178 0-0.318 0.056-0.42 0.162v-0.746h-0.335v1.556c0 0.228 0.070 0.416 0.204 0.557 0.13 0.14 0.32 0.212 0.55 0.212s0.42-0.072 0.55-0.212c0.13-0.14 0.2-0.33 0.2-0.557v-0.188c-0.010-0.52-0.26-0.784-0.77-0.784zM7.53 7.8c0.14 0 0.246 0.034 0.318 0.106 0.070 0.070 0.108 0.19 0.108 0.355v0.19c0 0.14-0.037 0.25-0.114 0.33-0.076 0.080-0.177 0.12-0.312 0.12-0.133 0-0.24-0.040-0.31-0.12-0.074-0.080-0.11-0.19-0.11-0.32v-0.19c0-0.16 0.036-0.28 0.105-0.35s0.177-0.1 0.315-0.1zM9.954 7.848h-1.057v-0.965h-0.345v2.313h0.345v-1.012h1.057v1.012h0.347v-2.313h-0.34v0.965zM12.918 7.474c-0.177 0-0.318 0.056-0.42 0.162v-0.746h-0.335v1.556c0 0.228 0.070 0.416 0.204 0.557s0.32 0.212 0.554 0.212c0.24 0 0.43-0.072 0.56-0.212 0.14-0.14 0.21-0.33 0.21-0.557v-0.188c0-0.52-0.26-0.784-0.76-0.784zM12.918 7.8c0.14 0 0.247 0.034 0.318 0.106 0.072 0.070 0.11 0.19 0.11 0.355v0.19c0 0.14-0.038 0.25-0.115 0.33-0.070 0.080-0.18 0.12-0.31 0.12s-0.24-0.040-0.31-0.12c-0.070-0.080-0.11-0.19-0.11-0.32v-0.19c0-0.16 0.040-0.28 0.11-0.35s0.18-0.1 0.32-0.1zM6.181 8.43c0 0.173-0.020 0.297-0.070 0.363-0.050 0.064-0.13 0.098-0.25 0.098h-0.010c-0.12 0-0.21-0.030-0.26-0.090-0.050-0.070-0.070-0.19-0.070-0.36v-0.91h-0.33v0.91c0 0.28 0.050 0.49 0.16 0.61 0.1 0.12 0.26 0.18 0.47 0.19h0.080c0.22 0 0.38-0.060 0.48-0.18s0.16-0.32 0.16-0.6v-0.91h-0.341v0.91zM11.571 8.43c0 0.173-0.020 0.295-0.070 0.363-0.050 0.064-0.13 0.098-0.25 0.098h-0.010c-0.12 0-0.21-0.030-0.25-0.090-0.050-0.070-0.070-0.19-0.070-0.36v-0.91h-0.33v0.91c0 0.28 0.050 0.49 0.16 0.61 0.1 0.12 0.26 0.18 0.48 0.19h0.080c0.22 0 0.37-0.060 0.47-0.18s0.16-0.32 0.16-0.6v-0.91h-0.33v0.91h0.010zM3.531 7.943l-0.8-0.268c-0.050-0.018-0.090-0.042-0.12-0.074-0.030-0.020-0.040-0.050-0.040-0.090v-0.050c0-0.18 0.16-0.28 0.48-0.29h0.030c0.32 0 0.49 0.090 0.51 0.26l0.010 0.030h0.35v-0.030c-0.020-0.39-0.3-0.59-0.85-0.59h-0.040c-0.54 0.010-0.81 0.22-0.81 0.63v0.060c0 0.12 0.040 0.22 0.11 0.3 0.070 0.090 0.18 0.15 0.31 0.19l0.79 0.27c0.13 0.050 0.2 0.12 0.2 0.23v0.050c0 0.1-0.050 0.18-0.14 0.23-0.1 0.060-0.24 0.090-0.42 0.090s-0.32-0.030-0.42-0.090c-0.090-0.050-0.14-0.13-0.14-0.23v-0.040h-0.341v0.040c0 0.21 0.080 0.37 0.24 0.49s0.38 0.18 0.66 0.18 0.51-0.050 0.662-0.17c0.16-0.12 0.24-0.28 0.24-0.48v-0.091c0-0.135-0.040-0.252-0.12-0.347-0.080-0.092-0.186-0.164-0.316-0.206zM4.671 8.778c-0.070-0.080-0.11-0.19-0.11-0.326v-0.594h0.36v-0.34h-0.36v-0.63h-0.34v1.564c0 0.228 0.070 0.416 0.21 0.556 0.12 0.12 0.27 0.19 0.46 0.207l0.040 0.002v-0.323l-0.031-0.004c-0.094-0.014-0.166-0.052-0.224-0.112zM13.601 7.426h0.050v0.122h0.020v-0.122h0.040v-0.016h-0.11v0.016zM13.801 7.509l-0.030-0.1h-0.030v0.13h0.020v-0.11l0.050 0.11h0.020l0.040-0.12v0.12h0.020v-0.139h-0.030l-0.040 0.1z"></path>
</svg>
