<!-- Generated by IcoMoon.io -->
<svg version="1.1" xmlns="http://www.w3.org/2000/svg" width="16" height="16" viewBox="0 0 16 16">
<title>brand192</title>
<path fill="#93c" d="M8 16s1.75 0 1.75-5.18c0-0.965-0.784-1.75-1.75-1.75s-1.75 0.785-1.75 1.75c0 5.18 1.75 5.18 1.75 5.18zM10.147 14.234c0.077-0.296 0.136-0.595 0.183-0.897l0.035-0.24c0.077-0.032 0.154-0.065 0.23-0.1 1.215-0.55 2.238-1.49 2.89-2.653 0.297-0.534 0.516-1.11 0.646-1.71 0.15-0.67 0.19-1.368 0.11-2.052-0.070-0.64-0.24-1.266-0.51-1.853-0.31-0.69-0.74-1.32-1.28-1.85-0.55-0.55-1.2-1-1.91-1.31-0.73-0.33-1.53-0.5-2.34-0.52s-1.62 0.11-2.38 0.4c-0.73 0.28-1.4 0.69-1.98 1.22-0.55 0.5-1.020 1.11-1.36 1.78-0.29 0.57-0.49 1.18-0.6 1.81-0.11 0.65-0.11 1.32-0.010 1.98 0.090 0.58 0.26 1.15 0.51 1.69 0.59 1.25 1.59 2.29 2.83 2.92 0.15 0.070 0.3 0.14 0.46 0.21 0.010 0.080 0.030 0.17 0.040 0.26 0.050 0.29 0.11 0.59 0.18 0.88-0.27-0.090-0.54-0.19-0.8-0.31-1.43-0.65-2.64-1.77-3.39-3.16-0.34-0.63-0.58-1.3-0.73-2-0.17-0.77-0.2-1.58-0.1-2.37 0.1-0.74 0.31-1.47 0.62-2.14 0.37-0.79 0.89-1.52 1.51-2.13 0.609-0.609 1.369-1.119 2.199-1.469 0.866-0.364 1.797-0.558 2.733-0.57 0.938-0.010 1.877 0.16 2.75 0.503 0.842 0.332 1.618 0.824 2.28 1.44 0.64 0.595 1.17 1.304 1.558 2.086 0.33 0.66 0.56 1.38 0.67 2.11 0.12 0.76 0.12 1.54-0.010 2.29-0.11 0.7-0.34 1.39-0.65 2.030-0.7 1.41-1.86 2.57-3.27 3.27-0.35 0.17-0.72 0.32-1.1 0.44zM10.493 11.38l0.006-0.312c0-0.21 0-0.42-0.030-0.627-0.010-0.080-0.030-0.15-0.050-0.23 0.37-0.3 0.68-0.68 0.91-1.11 0.17-0.32 0.3-0.67 0.37-1.030 0.080-0.4 0.1-0.82 0.040-1.24-0.050-0.37-0.15-0.73-0.3-1.070-0.19-0.41-0.45-0.79-0.77-1.11-0.33-0.32-0.7-0.58-1.12-0.77-0.46-0.2-0.96-0.32-1.46-0.33s-1.010 0.080-1.48 0.26c-0.42 0.17-0.81 0.41-1.15 0.72s-0.62 0.67-0.82 1.080c-0.17 0.33-0.29 0.68-0.36 1.050-0.070 0.38-0.080 0.77-0.030 1.15 0.050 0.37 0.15 0.73 0.3 1.070 0.23 0.51 0.57 0.96 0.99 1.33l-0.060 0.27c-0.040 0.21-0.030 0.41-0.030 0.63v0.28c-0.7-0.43-1.28-1.050-1.67-1.77-0.23-0.41-0.39-0.85-0.48-1.31-0.11-0.51-0.13-1.040-0.060-1.56 0.060-0.47 0.19-0.93 0.38-1.35 0.23-0.52 0.57-1 0.97-1.41 0.41-0.41 0.89-0.74 1.41-0.97 0.58-0.26 1.21-0.4 1.84-0.42 0.64-0.010 1.28 0.1 1.87 0.33 0.54 0.21 1.030 0.52 1.46 0.91 0.42 0.39 0.78 0.85 1.040 1.36 0.21 0.42 0.37 0.87 0.45 1.33 0.080 0.48 0.1 0.97 0.030 1.45-0.060 0.47-0.19 0.93-0.39 1.36-0.39 0.87-1.060 1.62-1.88 2.11zM8 5.016c0.974 0 1.764 0.79 1.764 1.765 0 0.98-0.79 1.77-1.764 1.77s-1.764-0.79-1.764-1.76 0.79-1.761 1.764-1.761z"></path>
</svg>
