<!-- Generated by IcoMoon.io -->
<svg version="1.1" xmlns="http://www.w3.org/2000/svg" width="16" height="16" viewBox="0 0 16 16">
<title>brand188</title>
<path fill="#c0379a" d="M4.992 5.773v-0.025h4.2c1.248 0 2.26 1.042 2.26 2.33s-1.012 2.332-2.262 2.332h-4.197v-0.030h-0.003v-4.607h0.003zM9.323 5.006v-0.016h-5.113v9.17c-2.068-1.274-3.445-3.557-3.445-6.162 0-3.994 3.24-7.232 7.233-7.232 3.995 0 7.232 3.238 7.232 7.232s-3.237 7.232-7.232 7.232c-1.073 0-2.090-0.233-3.007-0.653v-3.415h4.34v-0.013c1.61-0.010 2.92-1.38 2.92-3.080s-1.311-3.069-2.921-3.069zM8 16c4.418 0 8-3.582 8-8s-3.582-8-8-8-8 3.582-8 8 3.582 8 8 8z"></path>
</svg>
