<!-- Generated by IcoMoon.io -->
<svg version="1.1" xmlns="http://www.w3.org/2000/svg" width="16" height="16" viewBox="0 0 16 16">
<title>brand138</title>
<path fill="#00c300" d="M12.91 6.57c0.232 0 0.42 0.19 0.42 0.42s-0.188 0.42-0.42 0.42h-1.17v0.75h1.17c0.232 0 0.42 0.188 0.42 0.42 0 0.23-0.188 0.42-0.42 0.42h-1.59c-0.23 0-0.418-0.19-0.418-0.42v-3.18c0-0.23 0.188-0.42 0.42-0.42h1.59c0.23 0 0.418 0.19 0.418 0.42 0 0.232-0.188 0.42-0.42 0.42h-1.17v0.75h1.17zM10.34 8.58c0 0.18-0.116 0.34-0.288 0.398-0.043 0.014-0.088 0.020-0.133 0.020-0.14 0-0.26-0.060-0.34-0.167l-1.629-2.211v1.96c0 0.23-0.186 0.42-0.42 0.42-0.23 0-0.417-0.19-0.417-0.42v-3.18c0-0.18 0.115-0.34 0.286-0.397 0.040-0.015 0.090-0.022 0.13-0.022 0.13 0 0.25 0.070 0.33 0.17l1.641 2.219v-1.97c0-0.23 0.188-0.42 0.42-0.42 0.23 0 0.42 0.19 0.42 0.42v3.18zM6.512 8.58c0 0.23-0.188 0.42-0.42 0.42-0.23 0-0.418-0.19-0.418-0.42v-3.18c0-0.23 0.188-0.42 0.42-0.42 0.23 0 0.418 0.19 0.418 0.42v3.18zM4.868 9h-1.59c-0.23 0-0.42-0.19-0.42-0.42v-3.18c0-0.23 0.19-0.42 0.42-0.42 0.232 0 0.42 0.19 0.42 0.42v2.76h1.17c0.232 0 0.42 0.188 0.42 0.42 0 0.23-0.188 0.42-0.42 0.42zM16 6.87c0-3.58-3.59-6.494-8-6.494s-8 2.914-8 6.494c0 3.208 2.846 5.896 6.69 6.405 0.26 0.056 0.615 0.172 0.705 0.394 0.080 0.2 0.053 0.51 0.026 0.72l-0.11 0.68c-0.030 0.2-0.16 0.79 0.7 0.43s4.61-2.72 6.29-4.65c1.149-1.259 1.699-2.549 1.699-3.979z"></path>
</svg>
