<!-- Generated by IcoMoon.io -->
<svg version="1.1" xmlns="http://www.w3.org/2000/svg" width="16" height="16" viewBox="0 0 16 16">
<title>brand76</title>
<path fill="#f94877" d="M11.822 2.31l-0.358 1.866c-0.043 0.202-0.297 0.415-0.533 0.415h-3.321c-0.374 0-0.642 0.26-0.642 0.63v0.41c0 0.38 0.27 0.64 0.644 0.64h2.82c0.263 0 0.523 0.29 0.465 0.57l-0.357 1.84c-0.033 0.16-0.21 0.42-0.524 0.42h-2.304c-0.42 0-0.546 0.060-0.826 0.4-0.28 0.35-2.804 3.38-2.804 3.38-0.025 0.030-0.050 0.020-0.050-0.010v-10.591c0-0.24 0.207-0.52 0.518-0.52h6.85c0.25 0 0.486 0.237 0.422 0.547zM12.122 9.63c0.096-0.385 1.164-5.856 1.52-7.59zM12.327 0h-8.535c-1.177 0-1.522 0.886-1.522 1.443v13.56c0 0.627 0.336 0.86 0.526 0.937s0.713 0.142 1.027-0.22c0 0 4.030-4.675 4.098-4.744 0.11-0.105 0.11-0.105 0.21-0.105h2.61c1.1 0 1.27-0.78 1.39-1.24 0.1-0.38 1.17-5.85 1.52-7.59 0.269-1.321-0.071-2.041-1.321-2.041z"></path>
</svg>
