<!-- Generated by IcoMoon.io -->
<svg version="1.1" xmlns="http://www.w3.org/2000/svg" width="16" height="16" viewBox="0 0 16 16">
<title>brand217</title>
<path fill="#7ab55c" d="M10.225 15.987l4.81-1.042s-1.735-11.742-1.75-11.82c-0.012-0.077-0.076-0.128-0.14-0.128s-1.286-0.090-1.286-0.090-0.85-0.85-0.96-0.94c-0.030-0.025-0.050-0.038-0.080-0.050l-0.61 14.070zM7.807 7.537s-0.54-0.283-1.183-0.283c-0.965 0-1.003 0.605-1.003 0.76 0 0.822 2.16 1.144 2.16 3.086 0 1.53-0.96 2.508-2.27 2.508-1.57 0-2.36-0.978-2.36-0.978l0.43-1.39s0.83 0.71 1.52 0.71c0.45 0 0.65-0.362 0.65-0.62 0-1.080-1.77-1.13-1.77-2.906-0.021-1.492 1.049-2.944 3.219-2.944 0.838 0 1.25 0.24 1.25 0.24l-0.63 1.81zM7.447 0.553c0.090 0 0.18 0.026 0.27 0.090-0.656 0.31-1.376 1.093-1.672 2.662-0.437 0.142-0.862 0.27-1.26 0.386 0.347-1.191 1.183-3.131 2.662-3.131zM8.27 2.52v0.090c-0.502 0.155-1.055 0.322-1.595 0.49 0.31-1.184 0.888-1.762 1.39-1.98 0.128 0.333 0.205 0.784 0.205 1.4zM8.63 1.030c0.463 0.050 0.76 0.578 0.952 1.17-0.232 0.077-0.49 0.154-0.772 0.244v-0.167c0-0.502-0.064-0.914-0.18-1.248zM10.624 1.89c-0.013 0-0.040 0.014-0.052 0.014s-0.193 0.050-0.476 0.14c-0.282-0.822-0.784-1.58-1.672-1.58h-0.077c-0.257-0.324-0.567-0.464-0.837-0.464-2.070 0-3.060 2.585-3.37 3.897-0.796 0.244-1.375 0.425-1.44 0.45-0.45 0.142-0.462 0.155-0.514 0.58-0.050 0.308-1.22 9.375-1.22 9.375l9.040 1.698 0.617-14.11z"></path>
</svg>
