<!-- Generated by IcoMoon.io -->
<svg version="1.1" xmlns="http://www.w3.org/2000/svg" width="16" height="16" viewBox="0 0 16 16">
<title>brand227</title>
<path fill="#fffc00" d="M8.155 0.48c0.662 0 2.903 0.185 3.96 2.552 0.354 0.797 0.27 2.15 0.2 3.237l-0.002 0.040c-0.008 0.12-0.015 0.23-0.020 0.34 0.050 0.030 0.135 0.060 0.268 0.060 0.2-0.010 0.44-0.080 0.69-0.2 0.11-0.060 0.23-0.070 0.31-0.070 0.12 0 0.24 0.020 0.34 0.060 0.3 0.1 0.49 0.32 0.49 0.56 0.010 0.3-0.26 0.56-0.81 0.78-0.060 0.020-0.14 0.050-0.23 0.080-0.3 0.090-0.76 0.24-0.89 0.54-0.060 0.15-0.040 0.35 0.080 0.58l0.010 0.010c0.040 0.090 1.020 2.32 3.2 2.68 0.17 0.030 0.29 0.18 0.28 0.34 0 0.050-0.010 0.1-0.030 0.15-0.16 0.38-0.85 0.66-2.1 0.85-0.040 0.060-0.080 0.25-0.11 0.38-0.020 0.12-0.050 0.24-0.090 0.37-0.050 0.18-0.18 0.27-0.37 0.27h-0.020c-0.090 0-0.21-0.020-0.36-0.050-0.24-0.050-0.51-0.090-0.85-0.090-0.2 0-0.4 0.010-0.61 0.050-0.4 0.070-0.75 0.31-1.15 0.59-0.57 0.4-1.22 0.86-2.2 0.86-0.040 0-0.080-0.010-0.12-0.010h-0.1c-0.98 0-1.62-0.45-2.19-0.86-0.4-0.28-0.74-0.52-1.14-0.59-0.21-0.030-0.42-0.050-0.62-0.050-0.36 0-0.64 0.060-0.85 0.1-0.14 0.030-0.26 0.050-0.36 0.050-0.25 0-0.35-0.15-0.39-0.28s-0.060-0.26-0.090-0.38-0.070-0.33-0.11-0.38c-1.281-0.149-1.971-0.429-2.131-0.819-0.020-0.042-0.034-0.1-0.036-0.15-0.010-0.162 0.11-0.31 0.28-0.34 2.18-0.36 3.16-2.59 3.2-2.684l0.010-0.020c0.12-0.23 0.15-0.43 0.080-0.58-0.13-0.29-0.59-0.44-0.89-0.54-0.080-0.020-0.16-0.050-0.23-0.080-0.74-0.29-0.84-0.62-0.8-0.85 0.060-0.32 0.45-0.53 0.78-0.53 0.097 0 0.18 0.020 0.256 0.050 0.28 0.13 0.527 0.2 0.737 0.2 0.156 0 0.256-0.040 0.31-0.070l-0.030-0.38c-0.065-1.086-0.15-2.438 0.205-3.23 1.028-2.356 3.263-2.536 3.923-2.536l0.28-0.010h0.040z"></path>
</svg>
