<!-- Generated by IcoMoon.io -->
<svg version="1.1" xmlns="http://www.w3.org/2000/svg" width="16" height="16" viewBox="0 0 16 16">
<title>brand176</title>
<path fill="#f56c2d" d="M8.392 2.073c0.839 0.052 1.615 0.273 2.311 0.628 0.674 0.342 1.273 0.81 1.765 1.374 0.506 0.584 0.888 1.242 1.149 1.982s0.365 1.519 0.31 2.335c-0.022 0.424-0.090 0.835-0.204 1.232-0.126 0.437-0.279 0.813-0.465 1.169-0.278 0.532-0.604 1.068-0.964 1.574s-0.75 0.977-1.175 1.413c-0.425 0.435-0.876 0.835-1.355 1.2s-0.98 0.693-1.502 0.987l-0.025 0.017c-0.018 0.010-0.041 0.016-0.064 0.016-0.003 0-0.006-0-0.009-0-0.042-0.010-0.079-0.033-0.105-0.065-0.026-0.030-0.041-0.069-0.041-0.112 0-0.001 0-0.002 0-0.003s-0-0.002-0-0.004c0-0.019 0.003-0.037 0.008-0.054 0.005-0.014 0.014-0.028 0.025-0.039 0.185-0.262 0.337-0.537 0.457-0.825s0.201-0.59 0.245-0.906c-0-0.023-0.010-0.043-0.025-0.057-0.014-0.015-0.035-0.025-0.057-0.025-0.152 0.020-0.336 0.035-0.521 0.041-0.042 0.001-0.081 0.002-0.12 0.002-0.148 0-0.294-0.009-0.437-0.028-0.822-0.051-1.598-0.271-2.294-0.627-0.674-0.342-1.273-0.81-1.765-1.374-0.491-0.564-0.879-1.221-1.136-1.94-0.219-0.612-0.339-1.27-0.339-1.955 0-0.148 0.006-0.296 0.017-0.441 0.021-0.405 0.089-0.816 0.203-1.213 0.114-0.398 0.264-0.77 0.45-1.119 0.293-0.577 0.62-1.118 0.979-1.624s0.75-0.977 1.175-1.413c0.425-0.435 0.876-0.835 1.355-1.2 0.48-0.364 0.98-0.693 1.502-0.987l0.025-0.017c0.019-0.010 0.041-0.016 0.064-0.016 0.003 0 0.006 0 0.009 0 0.044 0.010 0.080 0.033 0.106 0.065 0.028 0.033 0.041 0.071 0.041 0.115 0 0.001 0 0.002 0 0.004 0 0.019-0.003 0.037-0.008 0.054-0.005 0.014-0.013 0.028-0.024 0.039-0.172 0.238-0.325 0.51-0.448 0.797-0.13 0.316-0.21 0.618-0.254 0.934 0 0.022 0.008 0.041 0.024 0.057 0.014 0.015 0.035 0.025 0.057 0.025 0.174-0.022 0.351-0.036 0.53-0.041 0.18-0.005 0.357 0.003 0.531 0.024zM7.854 10.318c0.056 0.005 0.122 0.008 0.188 0.008 0.576 0 1.101-0.22 1.495-0.581 0.478-0.424 0.738-0.957 0.782-1.598 0.005-0.056 0.008-0.121 0.008-0.187 0-0.579-0.22-1.107-0.581-1.505-0.388-0.456-0.957-0.75-1.595-0.773-0.060-0.005-0.125-0.008-0.191-0.008-0.579 0-1.107 0.22-1.505 0.581-0.456 0.388-0.751 0.956-0.774 1.594-0.005 0.061-0.008 0.126-0.008 0.193 0 0.577 0.217 1.104 0.574 1.503 0.417 0.482 0.953 0.741 1.606 0.773z"></path>
</svg>
