<!-- Generated by IcoMoon.io -->
<svg version="1.1" xmlns="http://www.w3.org/2000/svg" width="16" height="16" viewBox="0 0 16 16">
<title>brand210</title>
<path fill="#ec4047" d="M15.204 0.002l-14.422-0.002-0.005 9.18h2.493c2.053 0.040 1.862 1.434 2.042 2.705 0.183 1.292 1.418 1.925 2.455 1.925 1.357 0 2.43-1.164 2.43-2.55 0-1.070-0.49-1.84-2.6-2.74-2.393-1.010-2.997-2.436-2.997-3.824 0-2.27 1.735-3.79 3.75-3.79 1.057 0 2.208 0.338 2.988 1.217 0.63 0.71 0.857 1.427 0.832 2.312-0.010 0.388-0.056 0.885 0.73 0.896l2.304 0.010v-5.341z"></path>
<path fill="#ec4047" d="M15.223 6.62l-2.174-0.008s-2.3 0.18-2.17-1.584c0.060-0.85-0.19-1.498-0.37-1.77-0.46-0.71-1.23-1.064-2.15-1.064-1.359 0-2.359 1.13-2.359 2.313 0 1.030 0.5 2.183 2.63 3.008 1.847 0.713 2.996 1.954 2.996 3.68 0 1.818-1.383 3.94-3.87 3.94-1.28 0-2.44-0.305-3.33-1.576-0.45-0.65-0.625-1.48-0.655-2.32-0.020-0.64-0.19-0.78-0.63-0.78h-2.371v5.541h14.43v-9.3l0.007-0.080z"></path>
</svg>
