<!-- Generated by IcoMoon.io -->
<svg version="1.1" xmlns="http://www.w3.org/2000/svg" width="16" height="16" viewBox="0 0 16 16">
<title>brand184</title>
<path fill="#fff000" d="M7.973 11.87l5.307-2.264-4.7 4.828c-0.083-0.878-0.288-1.74-0.607-2.563zM16 7.413c-3.4-0.157-6.805 0.276-10.058 1.28 0.683 0.715 1.254 1.528 1.69 2.414 2.695-1.5 6.43-3.415 8.368-3.687v-0.010zM7.617 7.596l0.138-0.040c1.025-0.306 2.033-0.676 3.015-1.104 0.995-0.39 1.93-0.92 2.773-1.578 0.896-0.713 1.57-1.666 1.944-2.748 0.080-0.178 0.14-0.366 0.177-0.558-1.35 1.84-6.694 2.032-6.694 2.032l1.26-1.156c-3.67 0.013-7.25 1.173-10.23 3.32 2.020 0.215 3.918 1.064 5.426 2.423 0.724-0.224 1.464-0.384 2.19-0.586v-0.004z"></path>
</svg>
