<!-- Generated by IcoMoon.io -->
<svg version="1.1" xmlns="http://www.w3.org/2000/svg" width="16" height="16" viewBox="0 0 16 16">
<title>brand300</title>
<path d="M13.853 12.497c-0.497 0.475-1.040 0.678-1.695 0.678-0.88 0-2.214-0.407-3.23-1.107-1.086-0.746-2.51-1.492-3.708-1.514 0.882-1.198 2.26-2.418 3.548-3.865 0.475-0.52 3.322-3.8 3.82-4.39 0.36-0.43 0.542-0.95 0.542-1.47 0-0.2-0.023-0.39-0.068-0.57-1.356 0.27-2.373 0.4-4 0.4-1.785 0.011-3.072-0.209-3.82-0.659-0.52 0.678-1.040 1.582-1.040 2.080 0 0.632 0.612 1.152 2.126 1.152 0.497 0 1.31-0.023 2.44-0.113-2.328 3-4.632 5.44-6.010 6.98-0.476 0.52-0.747 1.22-0.747 1.92 0 0.27 0.050 0.54 0.12 0.79 0.43-0.070 0.86-0.12 1.31-0.12 0.93 0 1.86 0.2 2.72 0.56 1.71 0.76 3.31 2.75 5.12 2.75 1.47 0 2.71-1.16 2.71-2.69 0-0.27-0.040-0.55-0.13-0.82z"></path>
</svg>
