<!-- Generated by IcoMoon.io -->
<svg version="1.1" xmlns="http://www.w3.org/2000/svg" width="16" height="16" viewBox="0 0 16 16">
<title>brand168</title>
<path d="M13.202 8.187c1.406 0 2.545-1.135 2.545-2.536s-1.14-2.53-2.545-2.53c-1.406 0-2.546 1.14-2.546 2.54s1.14 2.54 2.546 2.54zM7.467 8.657c1.265 0 2.29-1.022 2.29-2.283s-1.025-2.283-2.29-2.283c-1.266 0-2.29 1.030-2.29 2.29s1.023 2.289 2.29 2.289zM2.267 9.080c1.14 0 2.062-0.92 2.062-2.054 0-1.136-0.93-2.056-2.070-2.056s-2.059 0.92-2.059 2.060c0 1.133 0.924 2.052 2.063 2.052zM2.267 9.55c-1.307 0-2.267 1.145-2.267 2.33v0.798c0 0.113 0.092 0.206 0.206 0.206h4.12c0.114 0 0.206-0.093 0.206-0.206v-0.798c0-1.186-0.958-2.333-2.266-2.333zM7.467 9.177c-1.453 0-2.52 1.276-2.52 2.593v0.887c0 0.126 0.104 0.23 0.23 0.23h4.58c0.126 0 0.228-0.104 0.228-0.23v-0.887c0-1.317-1.065-2.593-2.518-2.593zM13.202 8.765c-1.615 0-2.798 1.417-2.798 2.882v0.985c0 0.14 0.114 0.254 0.254 0.254h5.087c0.14 0 0.255-0.115 0.255-0.254v-0.985c0-1.465-1.184-2.882-2.798-2.882z"></path>
</svg>
