<!-- Generated by IcoMoon.io -->
<svg version="1.1" xmlns="http://www.w3.org/2000/svg" width="16" height="16" viewBox="0 0 16 16">
<title>brand264</title>
<path fill="#53b50a" d="M8 0c-2.54 0.014-4.18 1.72-4.18 4.297 0 2.134 1.392 3.96 2.185 6.733 0.455 1.59 0.7 3.534 0.827 4.97h2.336c0.128-1.436 0.372-3.38 0.827-4.97 0.793-2.774 2.185-4.6 2.185-6.733 0-2.577-1.64-4.283-4.18-4.297zM8.013 6.567c-1.056 0-1.913-0.857-1.913-1.912s0.857-1.912 1.913-1.912c1.057 0 1.913 0.856 1.913 1.912s-0.856 1.912-1.913 1.912z"></path>
</svg>
