<!-- Generated by IcoMoon.io -->
<svg version="1.1" xmlns="http://www.w3.org/2000/svg" width="16" height="16" viewBox="0 0 16 16">
<title>brand287</title>
<path d="M16 9.65c0 0.003 0 0.006 0 0.010 0 2.723-2.207 4.93-4.93 4.93 0 0 0 0-0 0-1.141-0.011-2.185-0.413-3.009-1.077-0.829 0.664-1.899 1.061-3.061 1.061-2.735 0-4.957-2.195-4.999-4.92l-0-7.774h0.94v7.77c0 0.001 0 0.002 0 0.003 0 2.209 1.791 4 4 4 0.901 0 1.732-0.298 2.4-0.8-0.757-0.847-1.214-1.971-1.22-3.201v-6.361c0-1.038 0.842-1.88 1.88-1.88s1.88 0.842 1.88 1.88v6.36c0 0.005 0 0.011 0 0.017 0 1.222-0.447 2.34-1.185 3.2 0.658 0.475 1.478 0.764 2.365 0.764 2.202 0 3.989-1.78 4-3.979v-7.771h0.94zM8.94 3.29c0-0.519-0.421-0.94-0.94-0.94s-0.94 0.421-0.94 0.94v6.36c0.002 0.982 0.357 1.881 0.945 2.576 0.578-0.695 0.934-1.594 0.935-2.576z"></path>
</svg>
