<!-- Generated by IcoMoon.io -->
<svg version="1.1" xmlns="http://www.w3.org/2000/svg" width="16" height="16" viewBox="0 0 16 16">
<title>brand249</title>
<path fill="#fbb631" d="M6.6 12.822c-0.397-0.896-0.614-1.866-0.638-2.84-0.642 0.993-1.127 1.992-1.45 2.737-0.016 0.030-0.253 0.62-0.322 0.8-0.086 0.22 0.030 0.49 0.256 0.57 0.182 0.070 0.776 0.28 0.813 0.3 0.76 0.25 1.81 0.56 2.97 0.75-0.69-0.66-1.24-1.45-1.63-2.33zM8.14 5.59c-2.255-4.607-7.265-4.442-8.055-2.383-0.607 1.582 2.048 5.35 8.16 2.63l0.002-0.003c-0.020-0.038-0.092-0.2-0.107-0.242zM9.2 5.275c-1.25-3.097 0.935-4.875 2.137-4.413 0.893 0.343 1.375 3.012-2.076 4.55 0-0.023-0.050-0.115-0.060-0.137zM15.607 8.785c-0.523-1.175-1.482-2.015-2.597-2.415-0.112-0.042-0.227-0.060-0.34-0.060-0.58 0-1.138 0.482-1.19 1.084-0.090 1.004 0.11 2.026 0.55 3.010 0.43 0.973 1.044 1.794 1.833 2.397 0.205 0.16 0.456 0.24 0.707 0.24 0.452 0 0.903-0.24 1.082-0.67 0.46-1.1 0.482-2.39-0.045-3.58z"></path>
<path fill="#fbb631" d="M12.987 13.946c-0.965-0.74-1.73-1.733-2.274-2.954-0.552-1.24-0.777-2.492-0.67-3.724 0.030-0.343 0.13-0.674 0.292-0.976l-0.092 0.023c-0.508 0.127-1 0.348-1.437 0.635-0.633 0.417-1.192 1.034-1.432 1.764-0.065 0.197-0.114 0.413-0.13 0.62-0.077 0.986 0.084 2.006 0.514 2.973 0.417 0.936 1.040 1.716 1.79 2.31 0.456 0.365 1.28 0.594 1.954 0.594 0.633 0 1.257-0.18 1.818-0.47 0.175-0.090 0.56-0.33 0.586-0.35-0.334-0.080-0.648-0.23-0.92-0.44z"></path>
</svg>
