<!-- Generated by IcoMoon.io -->
<svg version="1.1" xmlns="http://www.w3.org/2000/svg" width="16" height="16" viewBox="0 0 16 16">
<title>brand25</title>
<path fill="#f38936" d="M14.65 16h-13.3c-0.75 0-1.35-0.6-1.35-1.35v-13.3c0-0.75 0.6-1.35 1.35-1.35h13.35c0.7 0 1.3 0.6 1.3 1.35v13.3c0 0.75-0.6 1.35-1.35 1.35zM8 2.65h-2c-1.85 0-3.35 1.5-3.35 3.35v4c0 1.85 1.5 3.35 3.35 3.35h4c1.85 0 3.35-1.5 3.35-3.35v-2.65c0-0.4-0.3-0.7-0.7-0.7h-0.65c-0.35 0-0.65-0.3-0.65-0.65 0-1.85-1.5-3.35-3.35-3.35zM10.050 10.65h-4.050c-0.35 0-0.65-0.3-0.65-0.65s0.3-0.65 0.65-0.65h4.050c0.35 0 0.65 0.3 0.65 0.65s-0.3 0.65-0.65 0.65zM8.35 5.35c0.35 0 0.65 0.3 0.65 0.65s-0.3 0.65-0.65 0.65h-2.4c-0.35 0-0.65-0.3-0.65-0.65s0.3-0.65 0.65-0.65h2.4z"></path>
</svg>
