<!-- Generated by IcoMoon.io -->
<svg version="1.1" xmlns="http://www.w3.org/2000/svg" width="16" height="16" viewBox="0 0 16 16">
<title>brand221</title>
<path fill="#2fcea0" d="M5.313 11.717c-0.018-0.004-0.038-0.006-0.059-0.006-0.105 0-0.197 0.056-0.248 0.14-0.27 0.57-0.84 0.957-1.5 0.957-0.103 0-0.204-0.009-0.301-0.027-0.007-0.087-0.017-0.19-0.017-0.295 0-0.659 0.388-1.227 0.949-1.488 0.094-0.056 0.15-0.148 0.15-0.252 0-0.146-0.108-0.267-0.248-0.287-0.17-0.033-0.363-0.052-0.561-0.052-0.906 0-1.72 0.398-2.275 1.029-0.608 0.825-0.971 1.858-0.971 2.975 0 0.357 0.037 0.705 0.108 1.041 0.016 0.090 0.111 0.186 0.232 0.207 0.304 0.051 0.652 0.080 1.006 0.080 0.001 0 0.001 0 0.002 0 0.071 0.004 0.154 0.007 0.237 0.007 1.191 0 2.269-0.48 3.053-1.257 0.45-0.53 0.723-1.222 0.723-1.979 0-0.198-0.019-0.392-0.055-0.58-0.012-0.106-0.105-0.205-0.225-0.23zM15.866 0.135c-0.114-0.113-0.348-0.060-0.348-0.060-0.383-0.046-0.828-0.074-1.278-0.075-0.034-0-0.072-0.001-0.11-0.001-2.847 0-5.427 1.146-7.303 3.001-0.232 0.234-0.455 0.482-0.664 0.74-0.489-0.206-1.045-0.338-1.632-0.338-0.487 0-0.952 0.090-1.381 0.255-1.5 0.647-2.392 2.517-3.13 4.441-0.012 0.031-0.019 0.067-0.019 0.104 0 0.16 0.13 0.29 0.29 0.29 0.068 0 0.13-0.023 0.18-0.063 0.625-0.469 1.414-0.751 2.27-0.751 0.489 0 0.956 0.092 1.386 0.26l-0.388 1.301c-0.006 0.022-0.010 0.048-0.010 0.075 0 0.103 0.053 0.193 0.134 0.244 0.986 0.743 1.835 1.591 2.555 2.542 0.076 0.114 0.166 0.168 0.269 0.168 0.027 0 0.054-0.004 0.079-0.011l1.308-0.36c0.165 0.407 0.261 0.88 0.261 1.375 0 0.855-0.286 1.643-0.768 2.274-0.032 0.040-0.056 0.103-0.056 0.171 0 0.16 0.13 0.29 0.29 0.29 0.038 0 0.074-0.007 0.107-0.021 1.921-0.739 3.791-1.629 4.445-3.149 0.156-0.403 0.247-0.869 0.247-1.356 0-0.586-0.131-1.141-0.365-1.637 0.284-0.203 0.53-0.429 0.765-0.666 1.864-1.896 3.015-4.497 3.015-7.367 0-0.467-0.030-0.927-0.089-1.377s0.056-0.182-0.058-0.297zM14.238 0.58c0 0 0 0 0.001 0 0.397 0 0.789 0.021 1.174 0.062-0.012 0.326 0.008 0.708 0.008 1.096 0 0.158-0.003 0.316-0.010 0.472-0.425-0.070-0.799-0.258-1.082-0.538-0.282-0.282-0.472-0.657-0.518-1.075 0.139-0.015 0.281-0.020 0.423-0.020zM7.238 3.41c1.558-1.547 3.639-2.569 5.954-2.78 0.089 0.47 0.269 0.893 0.542 1.239l-1.804 1.795c-0.396-0.314-0.902-0.503-1.453-0.503-1.298 0-2.35 1.052-2.35 2.35 0 0.551 0.19 1.057 0.507 1.458l-2.104 2.095c-0.525-0.509-1.098-0.977-1.708-1.393 0.424-1.692 1.278-3.118 2.416-4.261zM12.258 5.517c0 0 0 0.001 0 0.001 0 0.98-0.794 1.774-1.774 1.774s-1.774-0.794-1.774-1.774c0-0.98 0.794-1.774 1.774-1.774 0 0 0.001 0 0.001 0 0.979 0.001 1.772 0.794 1.774 1.773zM0.878 7.517c0.628-1.504 1.394-2.847 2.522-3.332 0.33-0.126 0.713-0.199 1.112-0.199 0.456 0 0.89 0.095 1.283 0.267-0.666 0.883-1.182 1.919-1.514 3.034-0.469-0.115-0.993-0.225-1.542-0.225-0.68 0-1.321 0.168-1.884 0.464zM6.81 11.647c-0.727-0.922-1.534-1.727-2.426-2.43l0.232-0.979c1.24 0.864 2.285 1.908 3.123 3.107zM11.82 12.597c-0.485 1.133-1.827 1.9-3.33 2.528 0.283-0.539 0.449-1.178 0.449-1.856 0-0.551-0.11-1.077-0.309-1.556 1.201-0.326 2.239-0.845 3.162-1.514 0.133 0.392 0.228 0.825 0.228 1.281 0 0.402-0.074 0.787-0.209 1.142zM8.36 11.223c-0.444-0.655-0.91-1.228-1.421-1.757l2.104-2.096c0.396 0.314 0.902 0.503 1.453 0.503 1.298 0 2.35-1.052 2.35-2.35 0-0.551-0.19-1.057-0.507-1.458l1.804-1.795c0.341 0.268 0.763 0.448 1.223 0.499-0.202 2.353-1.224 4.433-2.77 5.992-1.142 1.136-2.568 1.989-4.163 2.441z"></path>
</svg>
