<!-- Generated by IcoMoon.io -->
<svg version="1.1" xmlns="http://www.w3.org/2000/svg" width="16" height="16" viewBox="0 0 16 16">
<title>brand274</title>
<path fill="#6fda44" d="M12.374 8.774c-0.735 0-1.424-0.311-2.050-0.818l0.152-0.717 0.005-0.028c0.138-0.762 0.566-2.040 1.893-2.040 0.994 0 1.802 0.808 1.802 1.802 0 0.993-0.808 1.801-1.802 1.801zM12.374 3.347c-1.693 0-3.007 1.1-3.54 2.911-0.813-1.223-1.432-2.691-1.791-3.928h-1.824v4.742c-0.001 0.937-0.761 1.697-1.698 1.698-0.937-0.002-1.696-0.761-1.697-1.698v-4.742h-1.824v4.742c0 1.942 1.58 3.535 3.521 3.535 1.942 0 3.522-1.593 3.522-3.535v-0.794c0.353 0.738 0.788 1.486 1.316 2.147l-1.116 5.249h1.865l0.809-3.807c0.708 0.453 1.523 0.74 2.457 0.74 2 0 3.626-1.635 3.626-3.634s-1.626-3.626-3.626-3.626z"></path>
</svg>
