<!-- Generated by IcoMoon.io -->
<svg version="1.1" xmlns="http://www.w3.org/2000/svg" width="16" height="16" viewBox="0 0 16 16">
<title>brand104</title>
<path fill="#1bacf7" d="M12.286 6.899c0.174 0 0.319 0.139 0.319 0.319v1.437c0 0.214 0.174 0.388 0.388 0.388h2.84c0.197 0 0.237 0.284 0.046 0.336l-5.714 1.646c-0.026 0.008-0.057 0.013-0.088 0.013-0.172 0-0.312-0.14-0.312-0.312 0-0.001 0-0.001 0-0.002v-1.501c-0.001-0.077-0.062-0.139-0.139-0.14h-6.264c-0.076-0.001-0.138-0.062-0.14-0.138v-1.687c0-0.001 0-0.001 0-0.002 0-0.235-0.188-0.426-0.421-0.432l-2.667-0.047c-0.157-0.006-0.186-0.226-0.035-0.272l5.842-1.687c0.011-0.003 0.023-0.005 0.035-0.005 0.076 0 0.138 0.062 0.138 0.138 0 0 0 0 0 0.001v1.628c0 0.174 0.145 0.319 0.32 0.319h5.852zM5.86 3.028c0.203-0.035 0.25 0.232 0.25 0.232s0.017 0.631 0 0.892c-0.018 0.26-0.255 0.25-0.255 0.25h-2.319s-0.21-0.076-0.238-0.349c-0.035-0.272 0.29-0.423 0.29-0.423s2.069-0.567 2.271-0.602zM9.784 2.292s-0.030-0.307 0.313-0.44c0.342-0.128 2.179-0.603 2.179-0.603s0.342-0.134 0.365 0.313c0.023 0.446 0 4.12 0 4.12s0.011 0.301-0.313 0.324c-0.325 0.024-2.15 0-2.15 0s-0.394 0.035-0.394-0.278v-3.437zM9.836 11.848c0.017-0.26 0.255-0.25 0.25-0.255h2.317s0.203 0.075 0.238 0.348c0.035 0.272-0.29 0.423-0.29 0.423s-2.069 0.568-2.272 0.602c-0.203 0.041-0.243-0.226-0.243-0.226s-0.017-0.631 0-0.892zM6.156 13.708s0.035 0.307-0.313 0.44c-0.342 0.128-2.179 0.603-2.179 0.603s-0.342 0.134-0.365-0.313c-0.023-0.446 0-4.12 0-4.12s-0.012-0.301 0.313-0.324c0.324-0.024 2.15 0 2.15 0s0.353-0.035 0.394 0.278c0.040 0.307 0 0.527 0 0.527v2.91z"></path>
</svg>
