<!-- Generated by IcoMoon.io -->
<svg version="1.1" xmlns="http://www.w3.org/2000/svg" width="16" height="16" viewBox="0 0 16 16">
<title>brand275</title>
<path fill="#f88d2d" d="M6.742 14.658h0.020c0.772 0 1.48-0.187 2.125-0.56s1.156-0.903 1.536-1.59c0.378-0.685 0.568-1.425 0.568-2.22 0-0.643-0.11-1.237-0.34-1.78 0.38-0.080 0.84-0.236 1.32-0.533 0.29 0.702 0.44 1.463 0.44 2.284 0 1.53-0.52 2.87-1.58 4.020-1.061 1.141-2.411 1.721-4.061 1.721-1.66 0-3.015-0.573-4.067-1.72-1.050-1.147-1.57-2.488-1.57-4.020 0-1.522 0.498-2.84 1.494-3.957 1.090-1.23 2.473-1.846 4.143-1.846 0.704 0 1.356 0.11 1.957 0.328-0.195 0.382-0.372 0.85-0.42 1.353-0.477-0.2-0.99-0.3-1.54-0.3-1.158 0-2.152 0.435-2.983 1.303-0.83 0.87-1.246 1.92-1.246 3.15 0 0.8 0.19 1.54 0.57 2.22 0.378 0.69 0.89 1.22 1.534 1.59 0.43 0.25 0.885 0.42 1.368 0.5 4.137-1.6 3.65-9.44 3.62-9.87l0.035 0.11c2.43 6.49-2.867 9.83-2.867 9.83h-0.050zM14.056 0.363c-0.676 1.438-1.93 1.705-1.93 1.705-1.252 0.318-1.69 0.8-1.69 0.8-1.252 1.26-0.266 2.788-0.266 2.788 2.705-0.616 3.693-2.838 3.693-2.838-0.12 1.493-3.34 3.257-3.34 3.257 1.066 1.042 2.083 0.917 2.755 0.517 0.89-0.53 1.318-1.69 1.318-1.69 0.863-2.58-0.54-4.54-0.54-4.54zM7.406 0c1.33 2.236 2.054 4.243 2.217 4.72v-0.020c-0.328-3.445-2.22-4.7-2.22-4.7z"></path>
</svg>
