<!-- Generated by IcoMoon.io -->
<svg version="1.1" xmlns="http://www.w3.org/2000/svg" width="16" height="16" viewBox="0 0 16 16">
<title>brand238</title>
<path d="M2.076 11.964c-0.020-0.142-0.014-0.476-0.014-0.476h-0.192c-0.442 0-0.614-0.178-0.614-0.62v-1.758c0-0.794-0.186-0.988-0.558-1.11v-0.040c0.372-0.122 0.558-0.325 0.558-1.118v-1.752c0-0.442 0.172-0.58 0.613-0.58h0.19s0.010-0.306 0.030-0.483c-0.090-0.012-0.44-0.020-0.44-0.020-0.89 0-1.14 0.43-1.14 1.32v1.595c0 0.652-0.38 0.74-0.52 0.74v0.634c0.14 0 0.51 0.088 0.51 0.73v1.605c0 0.89 0.25 1.31 1.14 1.31 0 0 0.35 0.030 0.42 0.030z"></path>
<path d="M1.535 8.394c0.326 0 0.79 0.112 0.79 0.932v2.044c0 1.133 0.272 1.7 1.406 1.7h0.51v-0.605h-0.26c-0.56 0-0.77-0.233-0.77-0.794v-2.241c0-1.010-0.32-1.257-0.88-1.414v-0.046c0.56-0.158 0.89-0.416 0.89-1.426v-2.236c0-0.56 0.21-0.727 0.77-0.727h0.26v-0.65h-0.5c-1.13 0-1.4 0.55-1.4 1.68v2.040c0 0.83-0.46 0.95-0.79 0.95v0.8zM9.198 10.994c0.31-0.087 0.57-0.213 0.785-0.377s0.38-0.365 0.5-0.602c0.117-0.237 0.177-0.5 0.177-0.79 0-0.253-0.044-0.47-0.132-0.65s-0.23-0.337-0.424-0.475c-0.196-0.137-0.444-0.26-0.746-0.367s-0.667-0.214-1.095-0.32c-0.46-0.116-0.778-0.22-0.957-0.31-0.18-0.093-0.27-0.242-0.27-0.448 0-0.237 0.094-0.41 0.282-0.516 0.187-0.11 0.418-0.16 0.694-0.16 0.298 0 0.596 0.040 0.894 0.14 0.298 0.090 0.615 0.25 0.952 0.46l0.63-0.95c-0.367-0.23-0.763-0.41-1.187-0.55-0.42-0.14-0.85-0.2-1.27-0.2-0.34 0-0.66 0.040-0.95 0.13s-0.55 0.22-0.77 0.39c-0.22 0.17-0.39 0.38-0.51 0.62s-0.18 0.52-0.18 0.82c0 0.23 0.040 0.42 0.12 0.59s0.2 0.31 0.37 0.44c0.17 0.13 0.39 0.24 0.67 0.34s0.61 0.2 1 0.29c0.52 0.12 0.88 0.23 1.1 0.34 0.22 0.1 0.33 0.26 0.33 0.47s-0.090 0.38-0.27 0.49c-0.18 0.11-0.44 0.17-0.76 0.17-0.71 0-1.45-0.25-2.21-0.75l-0.65 1.080c0.18 0.12 0.38 0.23 0.61 0.33s0.47 0.18 0.72 0.25 0.51 0.12 0.78 0.16c0.27 0.040 0.52 0.050 0.76 0.050 0.38 0 0.72-0.050 1.030-0.14zM14.176 4.51c0.44 0 0.568 0.138 0.568 0.58v1.75c0 0.793 0.14 0.996 0.698 1.12v0.034c-0.558 0.123-0.698 0.317-0.698 1.11v1.762c0 0.44-0.128 0.62-0.568 0.62h-0.194s-0.002 0.333-0.020 0.474c0.077 0 0.384-0.010 0.384-0.010 0.89 0 1.096-0.432 1.096-1.322v-1.6c0-0.643 0.372-0.73 0.558-0.73v-0.638c-0.186 0-0.558-0.088-0.558-0.74v-1.593c0-0.89-0.206-1.322-1.096-1.322 0 0-0.314 0.010-0.407 0.022 0.020 0.177 0.040 0.484 0.040 0.484h0.19z"></path>
<path d="M13.628 11.368v-2.043c0-0.82 0.465-0.932 0.79-0.932v-0.807c-0.325 0-0.79-0.112-0.79-0.943v-2.033c0-1.133-0.18-1.68-1.314-1.68h-0.547v0.65h0.3c0.56 0 0.724 0.167 0.724 0.728v2.234c0 1.010 0.28 1.268 0.84 1.425v0.045c-0.56 0.157-0.83 0.404-0.83 1.414v2.244c0 0.562-0.16 0.795-0.72 0.795h-0.3v0.605h0.55c1.14 0 1.32-0.568 1.32-1.702z"></path>
</svg>
