<!-- Generated by IcoMoon.io -->
<svg version="1.1" xmlns="http://www.w3.org/2000/svg" width="16" height="16" viewBox="0 0 16 16">
<title>brand165</title>
<path fill="#ffc619" d="M13.148 0.402h-10.278c-1.419 0-2.57 1.151-2.57 2.57v10.278c0 1.419 1.151 2.57 2.57 2.57h10.278c1.419 0 2.57-1.151 2.57-2.57v-10.278c0-1.419-1.151-2.57-2.57-2.57zM8.224 10.87l-0.556-4.342-1.657 2.98-1.66-2.97-0.55 4.332h-1.241l0.9-6.48h0.97l1.58 2.95 1.576-2.95h0.972l0.898 6.48h-1.23zM12.418 7.185h-1.018v2.092c0 0.704 0.056 0.74 0.704 0.74h0.315l-0.11 0.945h-0.83c-0.87 0-1.24-0.61-1.24-1.213v-2.569h-0.66l0.1-0.944h0.55v-1.014l1.15-0.12v1.14h1.020v0.943zM13.496 10.963h-0.954l0.103-0.954h0.954l-0.11 0.95z"></path>
</svg>
