<!-- Generated by IcoMoon.io -->
<svg version="1.1" xmlns="http://www.w3.org/2000/svg" width="16" height="16" viewBox="0 0 16 16">
<title>brand36</title>
<path d="M15.988 5.443c-0.004-0.020-0.007-0.040-0.012-0.058l-0.010-0.033c-0.006-0.017-0.012-0.034-0.020-0.050-0.003-0.012-0.010-0.023-0.014-0.034l-0.023-0.045-0.020-0.032-0.030-0.040-0.030-0.030-0.040-0.030-0.030-0.020-0.040-0.030-0.030-0.020-0.010-0.010-7.299-4.891c-0.23-0.154-0.53-0.154-0.76 0l-7.398 4.935-0.025 0.027-0.034 0.037-0.024 0.030-0.030 0.040c-0.010 0.010-0.020 0.020-0.020 0.030l-0.030 0.040-0.010 0.040c-0.010 0.010-0.010 0.030-0.020 0.050l-0.010 0.030c-0.010 0.020-0.010 0.040-0.010 0.060v0.030c-0.009 0.031-0.009 0.061-0.009 0.091v4.875c0 0.030 0.002 0.060 0.006 0.090l0.007 0.030c0.003 0.020 0.006 0.040 0.013 0.058l0.010 0.033c0.006 0.018 0.010 0.035 0.018 0.050l0.015 0.033c0 0.010 0.010 0.030 0.020 0.040l0.020 0.030c0.010 0.010 0.020 0.030 0.030 0.040l0.020 0.030 0.030 0.030c0.010 0.010 0.010 0.020 0.020 0.020l0.040 0.030 0.030 0.020 0.010 0.010 7.31 4.88c0.11 0.080 0.25 0.11 0.38 0.11s0.26-0.040 0.38-0.12l7.401-4.911 0.030-0.026 0.035-0.037 0.024-0.030 0.030-0.040 0.020-0.032 0.020-0.046 0.010-0.036 0.020-0.050 0.010-0.030 0.020-0.050v-5c0-0.030 0-0.060-0.010-0.090l-0.010-0.030zM8 9.626l-2.432-1.626 2.432-1.626 2.432 1.626-2.432 1.626zM7.312 5.18l-2.98 1.993-2.406-1.61 5.386-3.59v3.207zM3.095 8l-1.72 1.15v-2.3l1.72 1.15zM4.332 8.828l2.98 1.993v3.21l-5.386-3.59 2.406-1.61zM8.687 10.821l2.98-1.99 2.407 1.61-5.387 3.59v-3.2zM12.905 8l1.72-1.15v2.3l-1.72-1.15zM11.668 7.173l-2.98-1.993v-3.21l5.386 3.59-2.406 1.61z"></path>
</svg>
