<!-- Generated by IcoMoon.io -->
<svg version="1.1" xmlns="http://www.w3.org/2000/svg" width="16" height="16" viewBox="0 0 16 16">
<title>brand276</title>
<path fill="#7c529e" d="M13.874 1.56c-0.398-0.366-2.004-1.533-5.584-1.55 0 0-4.22-0.253-6.277 1.634-1.145 1.146-1.548 2.82-1.59 4.9-0.043 2.076-0.098 5.97 3.657 7.026h0.003l-0.003 1.612s-0.023 0.652 0.406 0.785c0.52 0.16 0.824-0.336 1.32-0.87 0.273-0.293 0.648-0.724 0.932-1.054 2.567 0.216 4.542-0.277 4.766-0.35 0.518-0.17 3.45-0.544 3.928-4.438 0.492-4.015-0.238-6.553-1.558-7.698zM14.309 8.968c-0.41 3.25-2.79 3.457-3.22 3.597-0.19 0.060-1.93 0.492-4.11 0.35 0 0-1.63 1.96-2.13 2.47-0.080 0.080-0.18 0.11-0.24 0.096-0.090-0.020-0.11-0.12-0.11-0.27l0.010-2.67c-0.010 0 0 0 0 0-3.18-0.89-2.99-4.2-2.95-5.94 0.030-1.73 0.36-3.15 1.33-4.11 1.741-1.581 5.331-1.341 5.331-1.341 3.028 0.010 4.48 0.923 4.815 1.23 1.116 0.955 1.685 3.243 1.27 6.595zM5.16 3.32c0.162 0 0.307 0.073 0.42 0.207 0.002 0.002 0.387 0.464 0.553 0.69 0.157 0.213 0.367 0.553 0.474 0.743 0.19 0.34 0.070 0.688-0.115 0.832l-0.377 0.3c-0.19 0.152-0.167 0.436-0.167 0.436s0.56 2.105 2.64 2.635c0 0 0.283 0.026 0.436-0.164l0.3-0.38c0.142-0.19 0.49-0.31 0.83-0.12 0.19 0.1 0.53 0.31 0.744 0.47 0.226 0.16 0.688 0.55 0.69 0.55 0.22 0.18 0.27 0.46 0.12 0.74v0.010c-0.154 0.27-0.36 0.52-0.622 0.76h-0.005c-0.21 0.18-0.42 0.28-0.63 0.3-0.020 0-0.050 0.010-0.090 0-0.090 0-0.18-0.020-0.27-0.040v-0.010c-0.32-0.090-0.85-0.32-1.73-0.81-0.57-0.32-1.050-0.64-1.46-0.97-0.21-0.17-0.43-0.36-0.65-0.58l-0.051-0.019-0.040-0.040c-0.22-0.22-0.41-0.44-0.58-0.653-0.32-0.406-0.64-0.885-0.96-1.46-0.49-0.88-0.72-1.41-0.81-1.73h-0.010c-0.030-0.090-0.050-0.18-0.040-0.27-0.010-0.040 0-0.070 0-0.093 0.020-0.2 0.126-0.41 0.305-0.63h0.003c0.237-0.26 0.492-0.47 0.764-0.622 0.11-0.060 0.22-0.090 0.32-0.090h0.010zM7.89 2.864h0.078l0.050 0.002h0.013l0.060 0.003h0.34l0.090 0.010h0.050l0.1 0.010h0.020l0.070 0.010h0.010l0.050 0.010c0.030 0 0.050 0.010 0.070 0.010h0.060l0.050 0.020 0.080 0.020 0.020 0.010h0.030l0.030 0.010h0.020l0.050 0.010 0.060 0.020 0.040 0.010 0.020 0.010c0.020 0 0.040 0.010 0.060 0.010l0.060 0.020 0.080 0.030 0.040 0.020 0.090 0.040 0.060 0.020 0.060 0.030 0.040 0.010 0.020 0.010 0.050 0.020 0.060 0.030 0.030 0.010 0.030 0.020 0.040 0.020 0.030 0.020 0.060 0.030 0.030 0.020 0.050 0.030 0.030 0.010 0.050 0.030 0.010 0.010 0.030 0.020 0.060 0.050 0.060 0.040 0.020 0.010 0.030 0.020 0.050 0.050 0.040 0.030 0.030 0.020 0.010 0.010 0.020 0.010 0.050 0.040 0.050 0.050 0.060 0.040 0.020 0.010 0.23 0.23c0.010 0.010 0.030 0.030 0.040 0.050l0.020 0.020 0.11 0.13 0.030 0.040c0.010 0.010 0.010 0.020 0.020 0.020l0.060 0.090 0.030 0.030 0.060 0.080 0.050 0.080 0.030 0.060 0.040 0.070 0.16 0.32 0.020 0.050c0.040 0.090 0.070 0.18 0.11 0.28 0.050 0.13 0.090 0.27 0.12 0.42 0.030 0.11 0.050 0.21 0.070 0.32l0.020 0.18 0.030 0.2c0.010 0.080 0.020 0.17 0.020 0.25 0.010 0.080 0.010 0.16 0.010 0.24v0.17c0 0.010-0.005 0.020-0.010 0.030-0.010 0.020-0.020 0.030-0.040 0.050-0.014 0.010-0.033 0.030-0.053 0.030-0.020 0.010-0.040 0.010-0.060 0.010h-0.030c-0.020 0-0.040-0.010-0.060-0.020s-0.040-0.020-0.050-0.040c-0.010-0.020-0.030-0.040-0.040-0.060s-0.020-0.040-0.020-0.060v-0.239c-0.010-0.14-0.020-0.284-0.040-0.426-0.010-0.098-0.030-0.19-0.040-0.28 0-0.050-0.010-0.098-0.020-0.14l-0.020-0.1-0.024-0.090-0.010-0.060-0.030-0.1c-0.020-0.080-0.050-0.16-0.080-0.24-0.020-0.060-0.040-0.11-0.070-0.16l-0.020-0.050-0.090-0.18-0.020-0.030c-0.040-0.090-0.090-0.18-0.15-0.26l-0.030-0.050h-0.134l-0.043-0.060c-0.036-0.060-0.076-0.11-0.12-0.16l-0.083-0.1-0.010-0.010-0.030-0.038-0.024-0.030-0.050-0.050-0.010-0.020-0.047-0.040-0.030-0.030-0.055-0.050-0.027-0.025-0.040-0.040c-0.010-0.010-0.030-0.030-0.050-0.040l-0.051-0.041-0.020-0.010-0.040-0.030-0.080-0.064-0.020-0.010-0.040-0.036c0-0.010-0.010-0.010-0.020-0.010l-0.030-0.030v-0.010l-0.020-0.010-0.040-0.025-0.030-0.020-0.050-0.030-0.040-0.030-0.040-0.020h-0.060l-0.013-0.010-0.044-0.023-0.005-0.010-0.050-0.025h-0.008l-0.030-0.010-0.017-0.010-0.030-0.010-0.007-0.007-0.020-0.010-0.035-0.020-0.020-0.010-0.060-0.020-0.050-0.020-0.090-0.010-0.030-0.020c-0.010-0.006-0.020-0.010-0.030-0.010l-0.020-0.010c-0.020-0.007-0.030-0.010-0.050-0.020l-0.020-0.010h-0.020l-0.060-0.030-0.030-0.010h-0.061c-0.005 0-0.012-0.003-0.020-0.005h-0.060l-0.030-0.010h-0.010l-0.030-0.010h-0.027c-0.017-0.010-0.030-0.010-0.047-0.010l-0.006-0.010-0.040-0.010c-0.020-0.010-0.037-0.010-0.056-0.010l-0.030-0.010-0.033-0.010-0.030-0.010-0.040-0.010h-0.041l-0.12-0.018h-0.060l-0.078-0.010h-0.050l-0.046-0.006h-0.020l-0.036-0.010h-0.19l-0.007-0.010h-0.040c-0.020 0-0.043-0.010-0.060-0.020-0.020-0.010-0.040-0.020-0.054-0.040l-0.020-0.030c-0.020-0.020-0.020-0.040-0.030-0.060s-0.010-0.040-0.010-0.060c0-0.020 0-0.040 0.010-0.060s0.020-0.040 0.040-0.050c0.010-0.020 0.030-0.030 0.050-0.040s0.040-0.020 0.060-0.020h0.040zM8.26 3.914l0.024 0.002 0.040 0.004c0.006 0 0.012 0 0.020 0.002 0.015 0 0.030 0.003 0.050 0.004l0.040 0.005 0.016 0.010 0.030 0.010 0.032 0.010 0.030 0.010h0.020l0.028 0.010 0.047 0.010 0.037 0.010 0.018 0.010h0.048l0.080 0.020 0.090 0.030s0.010 0 0.010 0.010l0.090 0.030c0.010 0 0.020 0.010 0.030 0.010 0.005 0 0.010 0.010 0.017 0.010l0.043 0.020h0.020l0.060 0.020 0.033 0.020 0.030 0.020 0.073 0.030 0.040 0.010 0.020 0.020c0.030 0.010 0.060 0.030 0.090 0.040l0.064 0.040 0.033 0.020c0.030 0.020 0.054 0.030 0.080 0.050l0.020 0.010 0.027 0.020 0.015 0.010 0.050 0.030 0.025 0.020 0.043 0.030 0.040 0.020 0.030 0.020 0.040 0.030c0.010 0.010 0.015 0.010 0.023 0.020 0.006 0.010 0.010 0.010 0.017 0.020l0.022 0.020 0.024 0.020 0.15 0.15c0 0.010 0.010 0.020 0.020 0.020l0.040 0.040 0.020 0.030 0.020 0.020 0.030 0.040 0.030 0.030 0.060 0.080 0.010 0.020 0.040 0.050 0.040 0.080c0.010 0.010 0.010 0.020 0.020 0.040l0.030 0.050 0.010 0.010 0.020 0.040 0.020 0.030c0.010 0.010 0.010 0.020 0.020 0.030l0.020 0.030 0.040 0.080 0.010 0.030c0.010 0.030 0.030 0.050 0.040 0.080 0 0.010 0.010 0.020 0.010 0.030l0.030 0.080 0.040 0.13c0 0.010 0.010 0.030 0.010 0.040l0.030 0.090 0.030 0.12 0.030 0.16c0.010 0.050 0.010 0.090 0.020 0.14 0.010 0.080 0.020 0.16 0.020 0.24l0.010 0.14v0.11c0 0.010 0 0.020-0.010 0.030l-0.029 0.029c-0.020 0.015-0.030 0.030-0.050 0.040s-0.040 0.020-0.060 0.027c-0.020 0.010-0.050 0.010-0.070 0.010s-0.040-0.010-0.060-0.020c-0.010 0-0.020-0.010-0.030-0.014-0.020-0.010-0.040-0.026-0.050-0.044-0.020-0.020-0.030-0.040-0.030-0.060l-0.010-0.030v-0.209c0-0.088-0.010-0.17-0.020-0.256-0.010-0.090-0.030-0.19-0.050-0.28-0.020-0.060-0.030-0.12-0.050-0.174l-0.020-0.060-0.020-0.050-0.010-0.020-0.030-0.080-0.080-0.16-0.046-0.080v-0.010l-0.020-0.032-0.020-0.025-0.030-0.050-0.090-0.12c-0.030-0.040-0.060-0.080-0.094-0.118-0.010-0.010-0.020-0.020-0.020-0.030l-0.030-0.030-0.020-0.010-0.020-0.018v-0.097l-0.080-0.076-0.050-0.045v-0.010l-0.020-0.020-0.025-0.020-0.010-0.010c0-0.010-0.010-0.010-0.020-0.010l-0.030-0.010-0.010-0.010-0.040-0.030-0.020-0.020c-0.008-0.010-0.015-0.010-0.020-0.010l-0.040-0.030-0.010-0.010-0.040-0.020-0.007-0.010-0.030-0.020-0.020-0.010-0.040-0.040h-0.010c-0.020-0.020-0.040-0.030-0.070-0.040l-0.030-0.020-0.020-0.010-0.010-0.010-0.030-0.020-0.030-0.010-0.040-0.020-0.030-0.010-0.010-0.010-0.037-0.010v-0.010l-0.060-0.020-0.060-0.030h-0.040c-0.020-0.010-0.030-0.010-0.050-0.020h-0.031l-0.030-0.010h-0.030l-0.030-0.010-0.020-0.010h-0.040l-0.040-0.010-0.020-0.010h-0.11l-0.046-0.010h-0.234l-0.030-0.010c-0.020-0.010-0.040-0.020-0.060-0.040-0.010-0.020-0.030-0.040-0.040-0.060s-0.020-0.040-0.020-0.060v-0.060c0.003-0.030 0.010-0.050 0.020-0.070 0.005-0.010 0.010-0.020 0.020-0.030 0.012-0.020 0.030-0.040 0.050-0.050 0.010-0.010 0.020-0.010 0.030-0.020 0.020-0.010 0.040-0.010 0.060-0.010h0.040zM8.562 5c0.010 0 0.020 0 0.030 0.002 0.010 0 0.020 0 0.030 0.002l0.034 0.003c0.070 0.006 0.142 0.016 0.212 0.030l0.070 0.016 0.017 0.005 0.076 0.020 0.040 0.013 0.030 0.010c0.030 0.010 0.060 0.030 0.090 0.040l0.010 0.010 0.12 0.060c0.010 0.010 0.020 0.010 0.030 0.020s0.030 0.020 0.040 0.030c0.040 0.020 0.070 0.050 0.1 0.070l0.070 0.060 0.060 0.060 0.040 0.050 0.040 0.040 0.030 0.040 0.060 0.090 0.050 0.090 0.040 0.080 0.030 0.070c0.030 0.070 0.040 0.13 0.060 0.2 0.020 0.060 0.030 0.13 0.040 0.19l0.010 0.1 0.010 0.090v0.040c0 0.030-0.010 0.050-0.020 0.070s-0.030 0.050-0.050 0.060c-0.020 0.020-0.040 0.030-0.070 0.040-0.020 0.010-0.040 0.010-0.060 0.010s-0.040 0-0.060-0.010l-0.070-0.030c-0.020-0.020-0.040-0.030-0.060-0.060-0.010-0.020-0.020-0.040-0.030-0.070v-0.11l-0.010-0.070-0.010-0.080-0.010-0.070-0.010-0.040c0-0.010-0.010-0.030-0.010-0.040-0.020-0.080-0.060-0.16-0.1-0.24l-0.040-0.040-0.030-0.040-0.030-0.030-0.010-0.020-0.050-0.040-0.040-0.040-0.040-0.030c-0.010-0.010-0.020-0.010-0.040-0.020l-0.060-0.040-0.060-0.030h-0.010l-0.051-0.021-0.060-0.020-0.060-0.010h-0.050l-0.030-0.010-0.024-0.005h-0.030l-0.040-0.010h-0.17l-0.010-0.050h-0.026c-0.020-0.003-0.036-0.010-0.053-0.020-0.023-0.014-0.043-0.030-0.060-0.053-0.012-0.020-0.023-0.040-0.030-0.060-0.005-0.020-0.008-0.040-0.008-0.060 0-0.025 0-0.050 0.010-0.076s0.020-0.047 0.040-0.066l0.040-0.030c0.020-0.010 0.040-0.020 0.060-0.020l0.041-0.050h0.020z"></path>
</svg>
