<!-- Generated by IcoMoon.io -->
<svg version="1.1" xmlns="http://www.w3.org/2000/svg" width="16" height="16" viewBox="0 0 16 16">
<title>brand119</title>
<path fill="#f7df1e" d="M0 0h16v16h-16v-16zM14.69 12.184c-0.117-0.73-0.593-1.343-2.003-1.915-0.49-0.23-1.035-0.39-1.198-0.76-0.060-0.22-0.070-0.34-0.030-0.47 0.1-0.43 0.61-0.56 1.010-0.44 0.26 0.080 0.5 0.28 0.65 0.6 0.69-0.45 0.69-0.45 1.17-0.75-0.18-0.28-0.27-0.4-0.39-0.52-0.42-0.47-0.98-0.71-1.89-0.69l-0.47 0.060c-0.45 0.11-0.88 0.35-1.14 0.67-0.76 0.86-0.54 2.36 0.38 2.98 0.91 0.68 2.24 0.83 2.41 1.47 0.16 0.78-0.58 1.030-1.31 0.94-0.54-0.12-0.84-0.39-1.17-0.89l-1.22 0.7c0.14 0.32 0.3 0.46 0.54 0.74 1.16 1.17 4.060 1.11 4.58-0.67 0.020-0.060 0.16-0.47 0.050-1.1zM8.7 7.354h-1.498c0 1.292-0.006 2.576-0.006 3.87 0 0.822 0.042 1.576-0.092 1.807-0.22 0.46-0.786 0.4-1.044 0.32-0.264-0.13-0.398-0.31-0.553-0.57-0.042-0.070-0.074-0.13-0.085-0.13l-1.217 0.75c0.203 0.42 0.5 0.78 0.883 1.010 0.57 0.34 1.336 0.45 2.138 0.27 0.522-0.15 0.972-0.46 1.207-0.94 0.34-0.62 0.268-1.38 0.265-2.23 0.008-1.37 0-2.74 0-4.12z"></path>
</svg>
