<!-- Generated by IcoMoon.io -->
<svg version="1.1" xmlns="http://www.w3.org/2000/svg" width="16" height="16" viewBox="0 0 16 16">
<title>brand83</title>
<path fill="#f14e32" d="M15.698 7.287l-6.99-6.985c-0.403-0.402-1.056-0.402-1.46 0l-1.448 1.45 1.84 1.84c0.43-0.144 0.92-0.047 1.26 0.294 0.344 0.343 0.44 0.838 0.292 1.267l1.774 1.773c0.43-0.148 0.925-0.052 1.268 0.29 0.48 0.48 0.48 1.256 0 1.735-0.48 0.48-1.256 0.48-1.735 0-0.36-0.36-0.45-0.89-0.27-1.33l-1.659-1.651v4.352c0.117 0.057 0.227 0.134 0.325 0.23 0.475 0.48 0.475 1.255 0 1.734-0.48 0.48-1.26 0.48-1.74 0s-0.48-1.254 0-1.733c0.12-0.12 0.257-0.21 0.403-0.27v-4.393c-0.145-0.060-0.282-0.148-0.4-0.267-0.363-0.363-0.45-0.895-0.264-1.34l-1.81-1.816-4.794 4.787c-0.4 0.404-0.4 1.056 0 1.46l6.992 6.984c0.402 0.403 1.055 0.403 1.458 0l6.958-6.953c0.403-0.402 0.403-1.055 0-1.458z"></path>
</svg>
