<!-- Generated by IcoMoon.io -->
<svg version="1.1" xmlns="http://www.w3.org/2000/svg" width="16" height="16" viewBox="0 0 16 16">
<title>brand148</title>
<path d="M12.82 2.786l-2.71 1.552v-3.12l-2.114-1.218-2.11 1.22v3.118l-2.698-1.558-2.116 1.22v2.443l2.7 1.557-2.702 1.562v2.438l2.11 1.22 2.696-1.558v3.12l2.114 1.218 2.116-1.22v-3.118l2.7 1.552 2.116-1.22v-2.43l-2.695-1.564 2.705-1.557v-2.443l-2.11-1.214zM13.068 5.073v-1.263l1.093 0.628v1.27l-1.090-0.635zM14.161 11.263l-4.050-2.336 1.1-0.63 2.949 1.703v1.264zM9.61 8.63l-1.1-0.63 4.3-2.484 1.094 0.63-4.297 2.484zM2.090 6.146l1.094-0.63 4.302 2.484-1.093 0.63-4.303-2.484zM5.884 8.926l-4.050 2.338v-1.264l2.956-1.703 1.094 0.63zM1.834 5.71v-1.27l1.093-0.63v1.265l-1.093 0.635zM8.252 5.71v-4.677l1.093 0.624v3.416l-1.093 0.635zM6.65 5.070v-3.408l1.093-0.63v4.67l-1.093-0.632zM12.56 3.81v1.265l-4.303 2.49v-1.27l4.303-2.485zM7.742 6.293v1.265l-4.306-2.485v-1.263l4.307 2.48zM6.14 10.635l-2.956 1.703-1.093-0.63 4.049-2.338v1.265zM6.65 9.073l1.093-0.63v4.968l-1.093 0.64v-4.971zM9.088 14.483l-1.093 0.635-1.093-0.634 1.093-0.63 1.093 0.63zM9.35 14.045l-1.098-0.634v-4.961l1.098 0.63v4.972zM13.904 11.708l-1.093 0.63-2.95-1.703v-1.265l4.050 2.338z"></path>
</svg>
