<!-- Generated by IcoMoon.io -->
<svg version="1.1" xmlns="http://www.w3.org/2000/svg" width="16" height="16" viewBox="0 0 16 16">
<title>brand175</title>
<path fill="#ff1b2d" d="M5.367 3.492c-0.885 1.044-1.457 2.588-1.497 4.32v0.376c0.040 1.732 0.612 3.276 1.497 4.32 1.147 1.49 2.853 2.435 4.76 2.435 1.17 0 2.267-0.357 3.204-0.98-1.411 1.267-3.281 2.037-5.331 2.037-0.128 0-0.255-0.003-0.38-0.010-4.243-0.197-7.62-3.7-7.62-7.99 0-4.42 3.582-8 8-8h0.030c2.037 0.008 3.894 0.777 5.302 2.036-0.938-0.62-2.034-0.98-3.206-0.98-1.906 0-3.612 0.946-4.76 2.436zM16 8c0 2.37-1.030 4.498-2.668 5.963-2.052 1-3.964 0.3-4.597-0.137 2.015-0.442 3.538-2.88 3.538-5.826 0-2.948-1.523-5.384-3.538-5.827 0.632-0.436 2.545-1.136 4.597-0.137 1.638 1.464 2.668 3.594 2.668 5.964z"></path>
</svg>
