<!-- Generated by IcoMoon.io -->
<svg version="1.1" xmlns="http://www.w3.org/2000/svg" width="16" height="16" viewBox="0 0 16 16">
<title>brand</title>
<path fill="#0099e5" d="M14.008 13.3c-0.113-0.114-0.21-0.18-0.294-0.204-0.085-0.025-0.16-0.007-0.22 0.053l-0.056 0.050c-0.58 0.58-1.26 1.040-2.012 1.35-0.78 0.33-1.61 0.49-2.464 0.49s-1.684-0.17-2.465-0.5c-0.753-0.32-1.43-0.78-2.012-1.36-0.606-0.61-1.062-1.29-1.357-2.010-0.287-0.71-0.38-1.25-0.41-1.42l-0.008-0.040c-0.040-0.21-0.23-0.22-0.504-0.18-0.114 0.020-0.46 0.070-0.428 0.32v0.010c0.093 0.57 0.255 1.14 0.483 1.68 0.37 0.86 0.89 1.64 1.56 2.31s1.45 1.19 2.31 1.56c0.9 0.38 1.85 0.57 2.84 0.57 0.98 0 1.94-0.19 2.83-0.57 0.87-0.37 1.65-0.89 2.31-1.56l0.060-0.060c0.080-0.080 0.14-0.22-0.15-0.51zM8.95 1.71c-0.938 0-1.936 0.19-2.67 0.507-0.077 0.030-0.124 0.093-0.134 0.182-0.010 0.080 0.013 0.19 0.070 0.33 0.044 0.12 0.165 0.42 0.4 0.33 0.75-0.29 1.58-0.45 2.334-0.45 0.857 0 1.688 0.17 2.47 0.5 0.62 0.26 1.207 0.64 1.844 1.19 0.046 0.040 0.096 0.060 0.146 0.060 0.125 0 0.244-0.12 0.346-0.24 0.17-0.19 0.287-0.35 0.12-0.51-0.61-0.58-1.276-1.010-2.1-1.36-0.895-0.38-1.846-0.57-2.826-0.57zM7.672 9.65c0 0.106 0.098 0.2 0.156 0.255l0.018 0.018c0.1 0.098 0.194 0.148 0.28 0.148 0.074 0 0.118-0.030 0.134-0.050 0.044-0.040 0.54-0.54 0.586-0.59l0.552 0.55c0.052 0.060 0.107 0.090 0.172 0.090 0.088 0 0.184-0.050 0.286-0.15 0.238-0.24 0.12-0.37 0.060-0.44l-0.56-0.55 0.585-0.59c0.13-0.14 0.020-0.28-0.090-0.4-0.16-0.16-0.32-0.2-0.42-0.11l-0.58 0.58-0.58-0.58c-0.030-0.030-0.070-0.040-0.11-0.040-0.070 0-0.17 0.060-0.27 0.16-0.18 0.18-0.22 0.31-0.12 0.41l0.59 0.59-0.58 0.59c-0.050 0.050-0.070 0.1-0.070 0.15zM3.991 10.561c0 0.010 0.090 0.24 0.14 0.35 0.26 0.63 0.64 1.19 1.12 1.67s1.040 0.86 1.67 1.12c0.65 0.27 1.34 0.41 2.040 0.41 0.71 0 1.4-0.14 2.040-0.41 0.63-0.26 1.19-0.64 1.67-1.12s0.86-1.040 1.12-1.67c0.28-0.64 0.41-1.33 0.41-2.040 0-0.7-0.13-1.39-0.41-2.030-0.26-0.62-0.64-1.18-1.12-1.67-0.48-0.48-1.040-0.85-1.66-1.12-0.64-0.27-1.33-0.41-2.040-0.41s-1.43 0.14-2.060 0.41c-0.51 0.22-1.37 0.77-1.88 1.29v0.010-4.361h7.24c0.26-0.004 0.26-0.37 0.26-0.493 0-0.12 0-0.49-0.26-0.49h-7.891c-0.212 0-0.344 0.17-0.344 0.34v6.070c0 0.19 0.244 0.33 0.47 0.38 0.443 0.094 0.545-0.050 0.653-0.2l0.010-0.020c0.16-0.242 0.68-0.762 0.69-0.77 0.8-0.804 1.88-1.25 3.030-1.25 1.14 0 2.22 0.445 3.030 1.25 0.81 0.81 1.25 1.883 1.25 3.020 0 1.143-0.45 2.216-1.25 3.020-0.8 0.796-1.91 1.25-3.050 1.25-0.78 0-1.52-0.204-2.16-0.594v-3.693c0-0.49 0.21-1.020 0.57-1.43 0.41-0.46 0.97-0.71 1.58-0.71 0.59 0 1.15 0.225 1.56 0.635 0.41 0.408 0.63 0.95 0.63 1.528 0 1.23-0.97 2.19-2.21 2.19-0.24 0-0.68-0.107-0.69-0.11-0.25-0.076-0.36 0.27-0.39 0.386-0.14 0.44 0.070 0.52 0.11 0.54 0.4 0.12 0.66 0.14 1 0.14 1.75 0 3.17-1.42 3.17-3.17 0-1.74-1.42-3.15-3.17-3.15-0.86 0-1.66 0.32-2.26 0.92-0.58 0.56-0.91 1.32-0.91 2.060v3.040c-0.33-0.37-0.65-0.92-0.87-1.49-0.090-0.22-0.28-0.18-0.54-0.1-0.12 0.030-0.46 0.14-0.39 0.39z"></path>
</svg>
