<!-- Generated by IcoMoon.io -->
<svg version="1.1" xmlns="http://www.w3.org/2000/svg" width="16" height="16" viewBox="0 0 16 16">
<title>brand3</title>
<path fill="#0085ca" d="M8 16l8-8-8-8-8 8 8 8zM8 3.095c2.707 0 4.905 2.198 4.905 4.905s-2.198 4.905-4.905 4.905c-2.707 0-4.905-2.198-4.905-4.905s2.198-4.905 4.905-4.905zM8 3.585c2.436 0 4.414 1.98 4.414 4.415s-1.978 4.414-4.414 4.414-4.414-1.978-4.414-4.414 1.978-4.414 4.414-4.414zM8.152 8.409c-0.023 0.020-0.050 0.047-0.082 0.074-0.080 0.070-0.174 0.122-0.277 0.15-0.063 0.018-0.136 0.028-0.22 0.028-0.164 0-0.296-0.052-0.395-0.157-0.1-0.104-0.15-0.263-0.15-0.476 0-0.2 0.048-0.358 0.14-0.476 0.093-0.118 0.224-0.176 0.394-0.176 0.070 0 0.137 0.008 0.203 0.027 0.060 0.018 0.115 0.040 0.163 0.067 0.044 0.024 0.086 0.052 0.126 0.084 0.034 0.026 0.066 0.054 0.098 0.083h0.085v-0.57c-0.22-0.112-0.46-0.17-0.707-0.17-0.152 0-0.303 0.020-0.45 0.063-0.136 0.038-0.263 0.105-0.373 0.195-0.11 0.093-0.197 0.21-0.262 0.352s-0.097 0.315-0.097 0.52c0 0.188 0.030 0.352 0.090 0.492 0.054 0.133 0.14 0.252 0.248 0.346 0.11 0.095 0.24 0.164 0.38 0.205 0.145 0.044 0.307 0.066 0.482 0.066 0.093 0 0.168-0.006 0.224-0.015s0.117-0.023 0.18-0.040c0.053-0.015 0.104-0.032 0.154-0.053 0.043-0.020 0.087-0.038 0.132-0.057v-0.561h-0.086zM6.092 9.083v-1.446c0-0.25-0.083-0.436-0.25-0.558-0.167-0.123-0.434-0.184-0.8-0.184-0.15 0-0.297 0.013-0.443 0.040-0.148 0.025-0.254 0.047-0.32 0.066v0.514h0.058c0.1-0.044 0.2-0.080 0.305-0.11 0.105-0.028 0.196-0.042 0.273-0.042 0.173 0 0.302 0.022 0.388 0.068 0.086 0.044 0.13 0.125 0.13 0.242v0.012c-0.192 0.012-0.37 0.030-0.536 0.052-0.166 0.024-0.31 0.064-0.43 0.12-0.117 0.058-0.208 0.135-0.27 0.232-0.063 0.098-0.094 0.224-0.094 0.383 0 0.193 0.060 0.35 0.185 0.477 0.123 0.126 0.28 0.19 0.466 0.19 0.1 0 0.18-0.010 0.235-0.023 0.060-0.016 0.12-0.038 0.174-0.065 0.060-0.030 0.108-0.060 0.144-0.090l0.122-0.103v0.224h0.663zM8.586 6.96v2.125h0.663v-1.508c0.050-0.033 0.1-0.063 0.152-0.090 0.052-0.024 0.106-0.037 0.16-0.037 0.070 0 0.126 0.010 0.166 0.032 0.040 0.020 0.072 0.056 0.090 0.1 0.018 0.045 0.030 0.104 0.034 0.176 0.004 0.073 0.006 0.16 0.006 0.264v1.063h0.663v-1.508c0.050-0.036 0.105-0.068 0.162-0.094 0.050-0.020 0.1-0.033 0.15-0.033 0.072 0 0.128 0.010 0.168 0.032 0.040 0.020 0.072 0.056 0.088 0.1 0.020 0.044 0.030 0.104 0.034 0.175 0.004 0.072 0.006 0.16 0.006 0.265v1.064h0.664v-1.384c0-0.15-0.015-0.274-0.045-0.368s-0.074-0.175-0.134-0.243c-0.054-0.062-0.12-0.11-0.2-0.14-0.077-0.033-0.165-0.050-0.263-0.050-0.116 0-0.23 0.033-0.344 0.097-0.112 0.064-0.233 0.155-0.36 0.273-0.052-0.122-0.127-0.214-0.226-0.276s-0.212-0.093-0.342-0.093c-0.113 0-0.224 0.026-0.323 0.080-0.11 0.060-0.212 0.132-0.307 0.215v-0.237h-0.663zM5.43 8.53v-0.44c-0.112 0.010-0.202 0.020-0.27 0.030-0.070 0.007-0.138 0.023-0.203 0.047-0.058 0.020-0.102 0.050-0.135 0.090-0.030 0.042-0.047 0.097-0.047 0.163 0 0.1 0.026 0.168 0.080 0.205 0.052 0.037 0.13 0.055 0.235 0.055 0.058 0 0.116-0.013 0.176-0.040 0.060-0.024 0.114-0.062 0.164-0.11z"></path>
</svg>
