<!-- Generated by IcoMoon.io -->
<svg version="1.1" xmlns="http://www.w3.org/2000/svg" width="16" height="16" viewBox="0 0 16 16">
<title>brand207</title>
<path fill="#cc342d" d="M13.437 0.056c2.023 0.35 2.595 1.732 2.553 3.18l0.010-0.020-0.91 11.925-11.82 0.81c-0.982-0.041-3.17-0.131-3.27-3.191l1.096-2 2.215 5.172 1.87-6.096-0.020 0.005 0.010-0.020 6.17 1.97-0.93-3.62-0.66-2.6 5.88-0.38-0.41-0.34-4.221-3.441 2.44-1.36zM0 12.726v0.018-0.020zM3.42 3.383c2.374-2.355 5.438-3.747 6.614-2.56 1.175 1.185-0.070 4.070-2.448 6.424-2.376 2.355-5.402 3.823-6.576 2.638-1.177-1.185 0.030-4.145 2.408-6.5z"></path>
</svg>
