<!-- Generated by IcoMoon.io -->
<svg version="1.1" xmlns="http://www.w3.org/2000/svg" width="16" height="16" viewBox="0 0 16 16">
<title>brand288</title>
<path fill="#ffc233" d="M15.279 1.434c0.25 0.007 0.81-0.063 0.68 0.347-0.040 0.094-0.15 0.183-0.21 0.27-0.080 0.090-0.15 0.19-0.21 0.29-0.1 0.16-0.2 0.32-0.29 0.49-0.23 0.4-0.42 0.82-0.64 1.23-0.5 0.88-1.020 1.75-1.66 2.54-0.48 0.58-1.040 1.17-1.75 1.46 0.54 0.98 1.070 1.98 1.6 2.97 0.46 0.85 0.91 1.7 1.4 2.55l0.070 0.12c0.070 0.12 0.16 0.288 0.16 0.428 0 0.28-0.41 0.29-0.6 0.29h-0.63l-1.090-0.010c-0.21 0-0.43 0.010-0.64-0.010-0.55-0.050-1.050-0.33-1.37-0.77-0.11-0.15-1.090-1.75-1.48-2.4-0.15-0.25-0.62-0.98-0.62-0.98s-0.47 0.73-0.62 0.98c-0.4 0.65-1.38 2.26-1.48 2.41-0.33 0.45-0.83 0.72-1.37 0.78-0.22 0.030-0.44 0.020-0.65 0.020-0.37 0.010-0.73 0.010-1.090 0.020-0.21 0-0.42 0.010-0.63 0.010-0.2 0-0.6-0.010-0.6-0.28-0.001-0.13 0.090-0.3 0.153-0.42l0.070-0.12c0.483-0.84 0.943-1.7 1.403-2.55l1.588-3c-0.705-0.29-1.275-0.88-1.747-1.46-0.638-0.79-1.167-1.65-1.66-2.54-0.225-0.4-0.416-0.82-0.642-1.22-0.094-0.17-0.192-0.33-0.292-0.49-0.063-0.1-0.135-0.2-0.208-0.29-0.064-0.080-0.177-0.17-0.207-0.27-0.132-0.41 0.426-0.34 0.676-0.34h1.755c0.575 0 1.101 0.44 1.505 0.79 0.394 0.34 0.731 0.75 1.054 1.16 0.118-0.32 0.268-0.63 0.428-0.91 0.205-0.41 0.611-0.8 1.065-0.89 0.23-0.050 0.486-0.020 0.72-0.020h1.539c0.23 0 0.49-0.020 0.72 0.030 0.46 0.090 0.86 0.48 1.070 0.89 0.16 0.28 0.31 0.59 0.43 0.91 0.32-0.41 0.66-0.82 1.060-1.15 0.404-0.347 0.933-0.784 1.506-0.784l0.725 0.002h1.035zM7.582 5.285c-0.003 0.004-0.006 0.010-0.006 0.016 0 0.010 0.004 0.020 0.010 0.020 0.014 0.020 0.030 0.030 0.048 0.040 0.093 0.070 0.208 0.1 0.342 0.1 0.136 0 0.244-0.030 0.342-0.1 0.017-0.010 0.035-0.020 0.050-0.040 0.014-0.010 0.020-0.020 0.010-0.030s-0.024-0.010-0.040 0-0.030 0.030-0.046 0.040c-0.090 0.060-0.19 0.090-0.316 0.090-0.123 0-0.23-0.030-0.314-0.090-0.017-0.010-0.030-0.020-0.044-0.030-0.010 0-0.026 0-0.036 0.010zM9.737 4.177c-0.037-0.074-0.078-0.127-0.122-0.16-0.142-0.105-0.357-0.105-0.485 0.020-0.060 0.060-0.104 0.13-0.137 0.208-0.074 0.173-0.13 0.37-0.118 0.562 0.007 0.086 0.036 0.176 0.097 0.24 0.073 0.076 0.178 0.107 0.28 0.127 0.1 0.020 0.217 0.037 0.31-0.013 0.11-0.050 0.155-0.19 0.185-0.3 0.038-0.14 0.074-0.29 0.060-0.44-0.010-0.080-0.033-0.17-0.070-0.24zM6.142 4.42c-0.015 0.148 0.020 0.3 0.060 0.44 0.030 0.11 0.074 0.243 0.183 0.3 0.094 0.050 0.21 0.035 0.31 0.014 0.102-0.020 0.208-0.050 0.28-0.128 0.060-0.063 0.090-0.153 0.098-0.24 0.012-0.19-0.044-0.388-0.118-0.56-0.033-0.078-0.077-0.15-0.137-0.208-0.128-0.126-0.343-0.126-0.485-0.020-0.044 0.032-0.085 0.085-0.122 0.16-0.030 0.073-0.060 0.16-0.060 0.242zM8.982 5.065l0.003 0.007c-0.002-0.002-0.003-0.005-0.003-0.007v0zM6.964 5.071h0.003l-0.003 0.010zM6.938 3.8c-0.022-0.224-0.053-0.335-0.095-0.33-0.158 0.013-0.396 0.015-0.716 0.010 0.012 0.023 0.046 0.062 0.090 0.096 0.060 0.047 0.14 0.11 0.274 0.155 0.050 0.020 0.1 0.040 0.15 0.050l0.11 0.020c0.090 0.010 0.19 0.020 0.19 0.010zM9.198 3.794c0.053-0.010 0.1-0.017 0.11-0.020 0.050-0.010 0.1-0.025 0.15-0.043 0.132-0.040 0.214-0.1 0.272-0.15 0.045-0.030 0.080-0.070 0.090-0.090-0.32 0.010-0.557 0.010-0.715-0.010-0.043 0-0.074 0.11-0.095 0.33-0.002 0.020 0.1 0.010 0.187 0z"></path>
</svg>
