<!-- Generated by IcoMoon.io -->
<svg version="1.1" xmlns="http://www.w3.org/2000/svg" width="16" height="16" viewBox="0 0 16 16">
<title>brand290</title>
<path fill="#107c10" d="M2.734 14.024c1.406 1.232 3.25 1.978 5.266 1.978s3.86-0.746 5.267-1.978c1.253-1.276-2.877-5.808-5.267-7.614-2.388 1.806-6.52 6.338-5.266 7.614zM10.174 4.417c1.667 1.974 4.99 6.877 4.050 8.61 1.11-1.373 1.776-3.12 1.776-5.025 0-2.227-0.91-4.242-2.38-5.692 0 0-0.018-0.015-0.056-0.028-0.040-0.015-0.1-0.030-0.187-0.030-0.394 0-1.323 0.29-3.203 2.165zM2.436 2.282c-0.038 0.013-0.055 0.027-0.057 0.028-1.469 1.45-2.379 3.465-2.379 5.692 0 1.903 0.665 3.65 1.774 5.023-0.934-1.737 2.386-6.635 4.053-8.608-1.88-1.876-2.81-2.164-3.204-2.164-0.087 0-0.148 0.014-0.187 0.030zM8 2.365s-1.964-1.148-3.497-1.203c-0.602-0.022-0.97 0.197-1.014 0.226 1.43-0.96 2.95-1.39 4.5-1.39h0.011c1.556 0 3.070 0.43 4.51 1.39-0.045-0.030-0.41-0.248-1.013-0.226-1.533 0.055-3.497 1.2-3.497 1.2v0.004z"></path>
</svg>
