<!-- Generated by IcoMoon.io -->
<svg version="1.1" xmlns="http://www.w3.org/2000/svg" width="16" height="16" viewBox="0 0 16 16">
<title>brand123</title>
<path fill="#5091cd" d="M11.146 9.84l-3.554 3.558c-0.912 0.91-2.198 1.22-3.365 0.932-0.218 0.95-1.070 1.66-2.087 1.66-1.182 0-2.14-0.958-2.14-2.14 0-1.012 0.703-1.86 1.646-2.083-0.298-1.173 0.010-2.47 0.93-3.386l0.12-0.12 1.58 1.58-0.122 0.12c-0.513 0.52-0.513 1.35 0 1.86 0.514 0.52 1.348 0.52 1.858 0l0.31-0.31 3.246-3.251 1.578 1.58zM11.762 14.276c-1.215 0.374-2.59 0.080-3.552-0.88l-0.12-0.122 1.577-1.58 0.12 0.122c0.514 0.512 1.345 0.512 1.858 0 0.51-0.51 0.512-1.34-0.003-1.854l-3.555-3.558 1.58-1.58 3.554 3.56c0.91 0.907 1.23 2.185 0.94 3.347 1.040 0.15 1.84 1.040 1.84 2.12 0 1.19-0.96 2.14-2.14 2.14-1.030 0-1.9-0.73-2.090-1.71zM4.65 6.308l3.56-3.557c0.95-0.95 2.305-1.25 3.51-0.89 0.142-1.041 1.037-1.851 2.12-1.851 1.182 0 2.14 0.958 2.14 2.14 0 1.087-0.81 1.985-1.86 2.123 0.346 1.2 0.046 2.545-0.9 3.49l-0.12 0.123-1.58-1.58 0.122-0.122c0.513-0.513 0.513-1.344 0-1.856-0.51-0.51-1.34-0.512-1.854 0.002l-3.558 3.556-1.58-1.578zM2.882 8.073l-0.308-0.308c-0.954-0.954-1.25-2.317-0.888-3.526-0.953-0.219-1.666-1.069-1.666-2.089 0-1.18 0.96-2.14 2.14-2.14 1.064 0 1.947 0.777 2.113 1.794 1.154-0.27 2.418 0.044 3.32 0.944l0.122 0.123-1.58 1.58-0.122-0.12c-0.513-0.51-1.344-0.51-1.857 0-0.514 0.52-0.513 1.35-0.003 1.86l3.56 3.56-1.578 1.58-3.253-3.25z"></path>
</svg>
