<!-- Generated by IcoMoon.io -->
<svg version="1.1" xmlns="http://www.w3.org/2000/svg" width="16" height="16" viewBox="0 0 16 16">
<title>brand108</title>
<path d="M7.974 0h0.015c0.918 0.003 1.782 0.232 2.541 0.633 0.695-0.395 1.553-0.619 2.464-0.619h0.017l0.435 0.001v15.985l-0.438-0.001c-0.001 0-0.002 0-0.002 0-2.903 0-5.532-1.178-7.432-3.083-1.898-1.882-3.073-4.49-3.073-7.373 0-0.019 0-0.039 0-0.058l-0-5.47 0.452-0.001c0.867 0 1.724 0.208 2.494 0.605 0.734-0.39 1.604-0.619 2.528-0.619zM7.974 0.437c-0.921 0-1.784 0.248-2.527 0.68-0.716-0.419-1.576-0.667-2.494-0.667-0 0-0.001 0-0.001 0h-0.015v5.038c-0.016 5.566 4.51 10.059 10.072 10.074v-15.112h-0.015c-0.001 0-0.003 0-0.004 0-0.917 0-1.776 0.247-2.514 0.679-0.696-0.439-1.562-0.691-2.487-0.693h-0.015zM10.142 2.272c1.192 0.001 2.158 0.968 2.158 2.16s-0.967 2.16-2.16 2.16c-0.431 0-0.833-0.126-1.17-0.344l-1.002 1.010-1.005-1.010c-0.326 0.207-0.723 0.33-1.148 0.33-1.193 0-2.16-0.967-2.16-2.16s0.967-2.16 2.16-2.16c1.128 0 2.055 0.865 2.152 1.968l0.011-0.006 0.010 0.013c0.105-1.105 1.028-1.962 2.151-1.962 0.001 0 0.003 0 0.004 0zM5.812 5.86c0.002 0 0.004 0 0.006 0 0.795 0 1.44-0.645 1.44-1.44 0-0.151-0.023-0.296-0.066-0.433-0.112 0.264-0.363 0.436-0.655 0.436-0.398 0-0.72-0.322-0.72-0.72 0-0.292 0.174-0.544 0.424-0.656-0.124-0.044-0.273-0.068-0.426-0.068-0.794 0-1.437 0.643-1.439 1.436 0 0.002-0 0.003-0 0.005 0 0.794 0.643 1.438 1.437 1.44zM10.132 5.872c0.001 0 0.002 0 0.003 0 0.795 0 1.44-0.645 1.44-1.44s-0.645-1.44-1.44-1.44c-0.15 0-0.295 0.023-0.431 0.066 0.263 0.112 0.436 0.363 0.436 0.655 0 0.398-0.322 0.72-0.72 0.72-0.293 0-0.545-0.175-0.657-0.426-0.043 0.124-0.068 0.272-0.068 0.425 0 0.794 0.642 1.438 1.435 1.44z"></path>
</svg>
