<!-- Generated by IcoMoon.io -->
<svg version="1.1" xmlns="http://www.w3.org/2000/svg" width="16" height="16" viewBox="0 0 16 16">
<title>brand137</title>
<path fill="#f8c300" d="M14.667 12.45l-2.954-1.704-3.19 1.843v3.411l6.144-3.55zM7.477 16v-3.413l-3.19-1.842-2.954 1.705 6.145 3.55zM7.997 11.683l3.193-1.843v-3.684l-3.19-1.84-3.19 1.84v3.686l3.188 1.84zM0.813 4.453v7.095l2.954-1.706v-3.684l-2.955-1.706zM13.89 5.2l-1.656 0.957v3.683l2.954 1.706v-7.096l-1.298 0.75zM1.333 3.548l2.957 1.706 3.188-1.842v-3.412l-6.145 3.548zM11.713 5.254l2.955-1.706-6.146-3.55v3.414l3.19 1.842z"></path>
</svg>
