<!-- Generated by IcoMoon.io -->
<svg version="1.1" xmlns="http://www.w3.org/2000/svg" width="16" height="16" viewBox="0 0 16 16">
<title>brand201</title>
<path fill="#00d8ff" d="M8.007 2.65l0.007-0.008c0.333-0.32 0.685-0.62 1.062-0.887 0.148-0.105 0.3-0.205 0.457-0.3 0.136-0.080 0.275-0.155 0.417-0.224 0.11-0.050 0.22-0.1 0.333-0.14 0.1-0.040 0.205-0.070 0.31-0.1 0.16-0.040 0.322-0.080 0.487-0.090h0.182c0.047 0 0.094 0 0.14 0.010 0.1 0.010 0.2 0.030 0.297 0.060 0.080 0.030 0.16 0.060 0.24 0.1 0.050 0.030 0.090 0.060 0.14 0.090 0.080 0.060 0.15 0.12 0.21 0.19 0.050 0.070 0.11 0.13 0.15 0.2 0.1 0.16 0.18 0.33 0.24 0.5 0.020 0.050 0.030 0.1 0.050 0.16 0.020 0.070 0.030 0.14 0.050 0.21 0.020 0.090 0.030 0.18 0.050 0.27l0.030 0.34c0.010 0.14 0.010 0.29 0.010 0.44 0 0.19-0.010 0.38-0.030 0.57-0.030 0.24-0.060 0.47-0.1 0.7-0.030 0.14-0.050 0.28-0.080 0.42l-0.060 0.24 0.13 0.040c0.24 0.070 0.47 0.15 0.71 0.24 0.18 0.070 0.37 0.15 0.55 0.24 0.16 0.080 0.32 0.16 0.47 0.25 0.17 0.1 0.33 0.2 0.48 0.32 0.13 0.1 0.26 0.21 0.38 0.32 0.090 0.090 0.17 0.18 0.25 0.28 0.060 0.080 0.12 0.17 0.17 0.26 0.070 0.13 0.12 0.26 0.16 0.4 0.020 0.080 0.030 0.17 0.030 0.26 0 0.050 0 0.11-0.010 0.17-0.010 0.090-0.030 0.19-0.060 0.28-0.020 0.090-0.060 0.17-0.1 0.25-0.090 0.17-0.2 0.33-0.33 0.48-0.040 0.050-0.080 0.090-0.12 0.13-0.060 0.060-0.11 0.11-0.17 0.16-0.070 0.060-0.15 0.13-0.23 0.18-0.1 0.080-0.2 0.15-0.3 0.21-0.13 0.090-0.27 0.17-0.41 0.24-0.18 0.090-0.35 0.18-0.53 0.26s-0.36 0.15-0.55 0.22c-0.16 0.060-0.32 0.11-0.48 0.16l-0.050 0.020c0.020 0.080 0.040 0.16 0.050 0.24 0.020 0.12 0.050 0.24 0.070 0.36 0.040 0.24 0.080 0.49 0.1 0.73 0.010 0.19 0.020 0.38 0.020 0.56 0 0.15-0.010 0.3-0.020 0.44-0.010 0.12-0.020 0.23-0.040 0.35-0.020 0.090-0.030 0.19-0.050 0.28l-0.060 0.22c-0.040 0.12-0.090 0.25-0.14 0.37-0.050 0.090-0.1 0.19-0.16 0.28s-0.13 0.17-0.21 0.25c-0.090 0.090-0.19 0.16-0.29 0.22-0.080 0.040-0.17 0.080-0.25 0.1-0.14 0.040-0.28 0.060-0.42 0.068-0.19 0.006-0.38-0.020-0.57-0.060-0.12-0.027-0.23-0.060-0.34-0.1-0.13-0.040-0.25-0.094-0.37-0.15-0.15-0.066-0.29-0.14-0.43-0.22-0.16-0.090-0.32-0.19-0.47-0.3-0.39-0.27-0.76-0.58-1.1-0.91l-0.080 0.070c-0.16 0.15-0.32 0.29-0.48 0.43-0.17 0.13-0.34 0.26-0.52 0.39-0.16 0.11-0.32 0.21-0.49 0.31-0.16 0.090-0.33 0.17-0.49 0.24-0.12 0.050-0.24 0.1-0.36 0.14-0.12 0.036-0.23 0.070-0.35 0.090-0.19 0.040-0.37 0.060-0.56 0.056-0.15 0-0.3-0.020-0.44-0.070-0.090-0.024-0.18-0.060-0.26-0.11-0.060-0.030-0.11-0.070-0.16-0.11-0.040-0.030-0.070-0.060-0.1-0.090-0.030-0.020-0.050-0.040-0.070-0.070-0.14-0.15-0.25-0.32-0.33-0.51l-0.030-0.090c-0.010-0.040-0.030-0.080-0.040-0.11-0.020-0.050-0.030-0.11-0.050-0.16-0.020-0.070-0.030-0.13-0.050-0.2-0.020-0.090-0.040-0.174-0.050-0.263-0.010-0.11-0.030-0.23-0.030-0.34-0.010-0.15-0.010-0.29-0.010-0.44 0-0.19 0.010-0.38 0.030-0.56 0.020-0.24 0.060-0.47 0.1-0.71l0.12-0.57-0.2-0.060c-0.24-0.073-0.47-0.16-0.7-0.25-0.16-0.060-0.31-0.13-0.47-0.21-0.14-0.070-0.28-0.14-0.42-0.23-0.18-0.1-0.347-0.21-0.508-0.33-0.13-0.1-0.26-0.21-0.39-0.33 0.039-0.212-0.051-0.312-0.131-0.412-0.070-0.090-0.133-0.183-0.19-0.282-0.050-0.090-0.090-0.186-0.126-0.284-0.010-0.044-0.024-0.090-0.034-0.134-0.025-0.092-0.038-0.187-0.040-0.282 0-0.060 0.002-0.12 0.008-0.178 0.006-0.044 0.013-0.090 0.023-0.133l0.029-0.107c0.064-0.21 0.175-0.406 0.31-0.58 0.018-0.026 0.037-0.050 0.057-0.074 0.026-0.032 0.053-0.063 0.080-0.093 0.038-0.042 0.077-0.082 0.118-0.122l0.17-0.15c0.075-0.060 0.15-0.12 0.228-0.18 0.1-0.070 0.204-0.14 0.31-0.21 0.13-0.080 0.266-0.16 0.404-0.23 0.176-0.090 0.356-0.17 0.54-0.25 0.33-0.14 0.668-0.25 1.012-0.35l0.080-0.020c-0.050-0.21-0.1-0.42-0.14-0.63-0.040-0.22-0.080-0.45-0.1-0.68-0.020-0.18-0.030-0.36-0.040-0.55-0.010-0.14 0-0.29 0-0.44 0-0.11 0.010-0.22 0.030-0.33 0.010-0.090 0.020-0.18 0.040-0.27 0.010-0.070 0.030-0.14 0.050-0.21 0.010-0.050 0.030-0.11 0.050-0.16l0.040-0.1c0.010-0.030 0.020-0.060 0.040-0.090 0.080-0.18 0.18-0.36 0.32-0.51 0.030-0.030 0.060-0.060 0.1-0.090 0.030-0.030 0.060-0.050 0.090-0.080 0.040-0.030 0.090-0.060 0.14-0.090 0.080-0.040 0.16-0.080 0.25-0.1 0.1-0.030 0.2-0.050 0.3-0.060 0.030 0 0.060-0.010 0.090-0.010h0.15l0.11 0.010c0.16 0.020 0.32 0.050 0.48 0.090 0.1 0.030 0.21 0.060 0.31 0.1 0.11 0.040 0.21 0.090 0.32 0.14 0.16 0.080 0.31 0.16 0.46 0.25 0.16 0.1 0.32 0.2 0.48 0.31 0.18 0.13 0.36 0.27 0.54 0.42 0.14 0.12 0.27 0.24 0.41 0.36l0.090 0.090zM12.014 10.848c-0.117 0.027-0.235 0.053-0.353 0.076-0.27 0.055-0.54 0.102-0.81 0.142-0.29 0.042-0.58 0.077-0.88 0.105-0.040 0.010-0.080 0.010-0.12 0.020-0.18 0.27-0.38 0.54-0.58 0.79-0.21 0.28-0.43 0.55-0.66 0.8l-0.1 0.11c0.3 0.29 0.61 0.56 0.95 0.8 0.14 0.1 0.28 0.19 0.42 0.28 0.12 0.080 0.25 0.14 0.38 0.21 0.11 0.050 0.22 0.1 0.34 0.14 0.090 0.030 0.18 0.060 0.28 0.080 0.080 0.020 0.16 0.040 0.24 0.040 0.070 0.010 0.14 0.010 0.2 0.010 0.1 0 0.21-0.020 0.3-0.060l0.080-0.040c0.060-0.030 0.11-0.080 0.15-0.13 0.060-0.070 0.11-0.15 0.16-0.23 0.020-0.020 0.030-0.050 0.050-0.080l0.050-0.12c0.020-0.050 0.040-0.1 0.050-0.16 0.020-0.070 0.040-0.13 0.050-0.2 0.020-0.090 0.030-0.18 0.050-0.27s0.020-0.19 0.030-0.29c0.010-0.22 0.010-0.44-0.010-0.66-0.010-0.21-0.040-0.43-0.070-0.64-0.030-0.17-0.060-0.35-0.1-0.52l-0.040-0.17zM4.021 10.878l-0.060 0.29c-0.070 0.332-0.12 0.668-0.15 1.007-0.020 0.224-0.020 0.45-0.020 0.674 0.010 0.090 0.010 0.19 0.020 0.29 0.010 0.090 0.030 0.17 0.040 0.26 0.010 0.060 0.030 0.13 0.040 0.19 0.020 0.050 0.030 0.1 0.050 0.15 0.020 0.040 0.030 0.080 0.050 0.12l0.050 0.090c0.010 0.020 0.020 0.040 0.040 0.060l0.030 0.050 0.030 0.040c0.060 0.080 0.12 0.15 0.21 0.2l0.060 0.030c0.050 0.020 0.090 0.040 0.14 0.050 0.070 0.010 0.13 0.020 0.2 0.020s0.14 0 0.2-0.010c0.080-0.010 0.16-0.030 0.24-0.040 0.1-0.020 0.19-0.050 0.28-0.080 0.11-0.040 0.21-0.080 0.32-0.13 0.15-0.070 0.29-0.14 0.42-0.22 0.15-0.090 0.3-0.19 0.45-0.29 0.15-0.11 0.3-0.22 0.44-0.34 0.090-0.070 0.17-0.14 0.26-0.22 0.070-0.070 0.15-0.13 0.22-0.2l0.030-0.030-0.17-0.19c-0.23-0.26-0.45-0.53-0.67-0.8-0.18-0.23-0.36-0.47-0.53-0.71h-0.060c-0.31-0.030-0.62-0.060-0.92-0.1-0.28-0.040-0.56-0.090-0.84-0.14l-0.33-0.070zM8.971 11.24c-0.3 0.014-0.61 0.020-0.92 0.022-0.29 0-0.58-0.004-0.88-0.015l-0.1-0.003 0.21 0.262c0.2 0.246 0.4 0.486 0.61 0.72 0.050 0.057 0.1 0.114 0.16 0.17l0.080-0.090c0.21-0.237 0.41-0.483 0.61-0.735 0.080-0.1 0.17-0.21 0.25-0.33zM9.471 5.478c-0.31-0.024-0.63-0.040-0.95-0.048-0.15-0.004-0.3-0.006-0.46-0.007h-0.070c-0.15 0-0.29 0.002-0.44 0.006-0.33 0-0.66 0.020-0.99 0.040-0.19 0.28-0.37 0.56-0.55 0.85-0.2 0.33-0.39 0.67-0.57 1.010-0.11 0.21-0.22 0.43-0.33 0.65 0.12 0.24 0.24 0.48 0.37 0.71 0.19 0.35 0.39 0.69 0.59 1.030 0.17 0.26 0.34 0.53 0.51 0.78l0.6 0.030c0.29 0.010 0.57 0.010 0.86 0.010 0.49 0 0.98-0.020 1.46-0.050 0.17-0.25 0.33-0.51 0.49-0.76 0.35-0.58 0.68-1.17 0.97-1.78-0.1-0.21-0.2-0.41-0.31-0.61-0.14-0.27-0.29-0.53-0.44-0.78-0.21-0.36-0.43-0.72-0.67-1.070l-0.040-0.060zM4.731 8.808c-0.070 0.18-0.15 0.366-0.22 0.55-0.11 0.285-0.21 0.572-0.3 0.86 0.17 0.040 0.35 0.072 0.52 0.102 0.25 0.044 0.51 0.080 0.76 0.112 0.070 0.010 0.14 0.017 0.21 0.024-0.11-0.173-0.22-0.348-0.32-0.524-0.22-0.368-0.43-0.744-0.63-1.125zM11.301 8.782c-0.1 0.197-0.21 0.39-0.31 0.585-0.12 0.216-0.24 0.43-0.37 0.644-0.080 0.15-0.17 0.29-0.26 0.44l0.15-0.020c0.25-0.030 0.5-0.070 0.74-0.11 0.2-0.030 0.41-0.070 0.61-0.12-0.080-0.27-0.18-0.54-0.29-0.81-0.070-0.2-0.16-0.4-0.24-0.59zM3.561 5.982l-0.22 0.066c-0.24 0.075-0.49 0.16-0.72 0.258-0.14 0.058-0.28 0.12-0.42 0.19-0.15 0.073-0.29 0.152-0.44 0.24-0.12 0.075-0.25 0.158-0.36 0.248-0.090 0.066-0.17 0.136-0.25 0.212-0.070 0.063-0.13 0.13-0.19 0.2-0.040 0.055-0.080 0.11-0.12 0.17-0.030 0.050-0.060 0.1-0.080 0.154-0.030 0.073-0.050 0.15-0.050 0.23v0.060c0 0.088 0.030 0.176 0.060 0.257l0.020 0.043 0.030 0.052 0.040 0.070 0.060 0.085 0.080 0.096c0.030 0.040 0.070 0.078 0.1 0.115 0.050 0.046 0.090 0.090 0.14 0.134 0.060 0.050 0.11 0.097 0.17 0.143 0.080 0.060 0.16 0.12 0.24 0.176 0.1 0.070 0.2 0.14 0.31 0.2 0.14 0.080 0.28 0.15 0.42 0.22 0.17 0.080 0.35 0.16 0.52 0.23 0.16 0.060 0.31 0.12 0.46 0.16l0.23 0.070 0.21-0.63c0.13-0.35 0.26-0.69 0.41-1.030l0.18-0.38-0.17-0.38c-0.15-0.34-0.29-0.7-0.42-1.050-0.070-0.19-0.14-0.39-0.2-0.59zM12.471 5.992c-0.050 0.172-0.11 0.343-0.17 0.513-0.12 0.358-0.26 0.712-0.42 1.060l-0.19 0.425 0.24 0.52c0.15 0.325 0.28 0.654 0.4 0.987 0.070 0.172 0.13 0.346 0.18 0.52l0.12-0.036c0.14-0.040 0.27-0.080 0.4-0.13 0.27-0.090 0.53-0.2 0.78-0.33 0.16-0.070 0.31-0.16 0.45-0.25 0.13-0.070 0.25-0.16 0.37-0.25 0.090-0.060 0.17-0.13 0.25-0.21 0.070-0.060 0.14-0.14 0.2-0.21 0.050-0.050 0.090-0.11 0.13-0.17 0.030-0.050 0.060-0.1 0.080-0.15 0.040-0.070 0.060-0.15 0.060-0.24 0.010-0.020 0.010-0.040 0-0.070 0-0.050-0.010-0.11-0.030-0.16-0.020-0.070-0.050-0.13-0.090-0.19l-0.030-0.060-0.050-0.070c-0.020-0.030-0.050-0.060-0.070-0.090-0.030-0.030-0.060-0.070-0.1-0.11s-0.090-0.080-0.13-0.12c-0.060-0.050-0.12-0.1-0.19-0.15-0.070-0.060-0.15-0.11-0.22-0.16-0.1-0.070-0.2-0.13-0.31-0.19-0.13-0.070-0.27-0.14-0.41-0.2-0.16-0.080-0.33-0.14-0.5-0.21-0.23-0.090-0.47-0.16-0.71-0.23zM8 6.559c-0.79 0-1.43 0.64-1.43 1.43 0 0.788 0.64 1.428 1.43 1.428s1.43-0.64 1.43-1.427c0-0.79-0.64-1.43-1.43-1.43zM10.336 5.57c0.176 0.274 0.345 0.554 0.508 0.837 0.15 0.262 0.298 0.527 0.44 0.795 0.085-0.202 0.167-0.406 0.245-0.612 0.090-0.253 0.18-0.508 0.26-0.766-0.17-0.040-0.34-0.075-0.52-0.107-0.32-0.060-0.63-0.108-0.95-0.148zM5.666 5.567c-0.145 0.018-0.288 0.038-0.432 0.060-0.245 0.037-0.49 0.080-0.733 0.13-0.090 0.018-0.19 0.038-0.28 0.060 0.090 0.275 0.18 0.548 0.28 0.817 0.070 0.19 0.15 0.38 0.23 0.567 0.18-0.34 0.37-0.69 0.57-1.020 0.13-0.2 0.25-0.41 0.38-0.61zM11.979 5.165l0.030-0.133c0.040-0.174 0.070-0.348 0.1-0.524 0.040-0.228 0.060-0.46 0.080-0.69 0.010-0.225 0.020-0.452 0.010-0.678-0.010-0.102-0.010-0.205-0.030-0.306-0.010-0.090-0.030-0.177-0.040-0.264-0.020-0.068-0.030-0.135-0.050-0.2-0.020-0.050-0.030-0.1-0.050-0.15l-0.029-0.116-0.037-0.078c-0.013-0.024-0.025-0.048-0.040-0.070-0.010-0.020-0.022-0.040-0.035-0.058-0.010-0.013-0.018-0.027-0.027-0.040-0.050-0.080-0.13-0.15-0.21-0.2-0.020-0.017-0.050-0.030-0.080-0.040-0.070-0.030-0.15-0.044-0.23-0.050-0.020 0-0.040 0-0.060-0.002h-0.020c-0.020 0-0.040 0-0.070 0.003-0.060 0-0.12 0.010-0.18 0.020-0.070 0.010-0.15 0.030-0.22 0.050l-0.27 0.090c-0.1 0.040-0.2 0.090-0.31 0.14-0.13 0.060-0.25 0.14-0.38 0.21-0.13 0.080-0.27 0.17-0.4 0.27-0.32 0.23-0.62 0.49-0.91 0.77l0.13 0.14c0.26 0.28 0.5 0.57 0.73 0.87 0.17 0.21 0.33 0.44 0.49 0.66l0.41 0.040c0.3 0.030 0.6 0.080 0.9 0.13 0.28 0.040 0.56 0.1 0.83 0.16zM7.53 3.137c-0.015-0.013-0.030-0.026-0.043-0.040-0.13-0.12-0.262-0.24-0.4-0.354-0.15-0.127-0.307-0.25-0.468-0.365-0.15-0.102-0.29-0.198-0.44-0.288-0.13-0.078-0.27-0.15-0.4-0.217-0.1-0.047-0.2-0.090-0.3-0.13-0.090-0.034-0.19-0.064-0.28-0.090-0.070-0.020-0.14-0.034-0.21-0.047-0.070-0.010-0.13-0.018-0.19-0.022l-0.070-0.002h-0.010c-0.020 0-0.040 0-0.060 0.002-0.1 0.005-0.2 0.023-0.29 0.062-0.030 0.013-0.060 0.028-0.090 0.046-0.060 0.037-0.11 0.084-0.15 0.135-0.060 0.070-0.11 0.147-0.15 0.228l-0.040 0.084c-0.020 0.030-0.030 0.070-0.040 0.11-0.020 0.050-0.040 0.090-0.050 0.14-0.010 0.060-0.030 0.13-0.040 0.19-0.010 0.080-0.030 0.16-0.040 0.25s-0.020 0.19-0.020 0.29c-0.010 0.22 0 0.44 0.010 0.66 0.020 0.34 0.080 0.68 0.15 1.020 0.020 0.11 0.050 0.22 0.070 0.33 0.1-0.030 0.21-0.050 0.31-0.070 0.24-0.050 0.49-0.1 0.74-0.13 0.27-0.050 0.55-0.080 0.82-0.11l0.25-0.030c0.16-0.23 0.33-0.45 0.5-0.67 0.22-0.28 0.45-0.56 0.69-0.82l0.18-0.2zM8.008 3.625l-0.163 0.18c-0.214 0.24-0.42 0.486-0.618 0.738l-0.17 0.22c0.124-0.007 0.247-0.012 0.37-0.015 0.16-0.005 0.32-0.007 0.48-0.008h0.116c0.144 0 0.288 0.002 0.432 0.005 0.165 0.004 0.33 0.010 0.494 0.017l-0.16-0.2c-0.21-0.272-0.43-0.538-0.66-0.794l-0.129-0.143z"></path>
</svg>
