<!-- Generated by IcoMoon.io -->
<svg version="1.1" xmlns="http://www.w3.org/2000/svg" width="16" height="16" viewBox="0 0 16 16">
<title>brand232</title>
<path fill="#1ed760" d="M8 0c-4.4 0-8 3.6-8 8s3.6 8 8 8 8-3.6 8-8-3.56-8-8-8zM11.68 11.56c-0.16 0.24-0.44 0.32-0.68 0.16-1.88-1.16-4.24-1.4-7.040-0.76-0.28 0.080-0.52-0.12-0.6-0.36-0.080-0.28 0.12-0.52 0.36-0.6 3.040-0.68 5.68-0.4 7.76 0.88 0.28 0.12 0.32 0.44 0.2 0.68zM12.64 9.36c-0.2 0.28-0.56 0.4-0.84 0.2-2.16-1.32-5.44-1.72-7.96-0.92-0.32 0.080-0.68-0.080-0.76-0.4s0.080-0.68 0.4-0.76c2.92-0.88 6.52-0.44 9 1.080 0.24 0.12 0.36 0.52 0.16 0.8zM12.72 7.12c-2.56-1.52-6.84-1.68-9.28-0.92-0.4 0.12-0.8-0.12-0.92-0.48-0.12-0.4 0.12-0.8 0.48-0.92 2.84-0.84 7.52-0.68 10.48 1.080 0.36 0.2 0.48 0.68 0.28 1.040-0.2 0.28-0.68 0.4-1.040 0.2z"></path>
</svg>
