<!-- Generated by IcoMoon.io -->
<svg version="1.1" xmlns="http://www.w3.org/2000/svg" width="16" height="16" viewBox="0 0 16 16">
<title>brand106</title>
<path fill="#430098" d="M13.74 0h-11.48c-0.8 0-1.44 0.64-1.44 1.44v13.12c0 0.8 0.64 1.44 1.44 1.44h11.48c0.8 0 1.44-0.64 1.44-1.44v-13.12c0-0.8-0.64-1.44-1.44-1.44zM14.38 14.56c0 0.36-0.28 0.64-0.64 0.64h-11.48c-0.36 0-0.64-0.28-0.64-0.64v-13.12c0-0.36 0.28-0.64 0.64-0.64h11.48c0.36 0 0.64 0.28 0.64 0.64v13.12zM4.42 13.6l1.8-1.6-1.8-1.6v3.2zM10.9 7.12c-0.32-0.32-0.92-0.72-1.92-0.72-1.080 0-2.2 0.28-3 0.56v-4.56h-1.6v6.92l1.12-0.52s1.84-0.84 3.44-0.84c0.8 0 1 0.44 1 0.84v4.8h1.6v-4.8c0.040-0.12 0.040-1-0.64-1.68zM8.78 5h1.6c0.72-0.84 1.080-1.68 1.2-2.6h-1.6c-0.16 0.92-0.56 1.76-1.2 2.6z"></path>
</svg>
