<!-- Generated by IcoMoon.io -->
<svg version="1.1" xmlns="http://www.w3.org/2000/svg" width="16" height="16" viewBox="0 0 16 16">
<title>brand5</title>
<path fill="#ff5a5f" d="M15.222 11.355c-0.072-0.2-0.156-0.396-0.235-0.577-0.123-0.277-0.252-0.556-0.376-0.825v-0.020c-1.11-2.404-2.29-4.84-3.53-7.24l-0.050-0.1c-0.12-0.246-0.25-0.5-0.39-0.75-0.15-0.29-0.33-0.598-0.57-0.885-0.541-0.618-1.271-0.958-2.071-0.958s-1.524 0.34-2.052 0.96c-0.244 0.285-0.418 0.593-0.574 0.884-0.135 0.252-0.267 0.508-0.394 0.755l-0.050 0.090c-1.234 2.401-2.423 4.841-3.53 7.241l-0.018 0.035c-0.12 0.265-0.248 0.538-0.368 0.81-0.080 0.182-0.163 0.376-0.235 0.578-0.21 0.59-0.28 1.154-0.19 1.725 0.17 1.19 0.97 2.213 2.080 2.666 0.41 0.168 0.85 0.253 1.31 0.253 0.14 0 0.28-0.010 0.42-0.026 0.54-0.060 1.080-0.24 1.61-0.54 0.65-0.36 1.29-0.9 1.99-1.66 0.7 0.77 1.34 1.3 1.99 1.67 0.53 0.3 1.070 0.48 1.6 0.55 0.14 0.020 0.28 0.030 0.42 0.030 0.45 0 0.89-0.080 1.31-0.25 1.11-0.45 1.91-1.47 2.080-2.66 0.080-0.57 0.020-1.13-0.19-1.72zM14.4 12.935c-0.12 0.834-0.678 1.548-1.46 1.864-0.38 0.15-0.8 0.21-1.225 0.16-0.407-0.050-0.808-0.19-1.225-0.42-0.577-0.33-1.162-0.83-1.82-1.56 1.048-1.3 1.702-2.49 1.944-3.55 0.11-0.49 0.134-0.95 0.070-1.37-0.063-0.41-0.206-0.78-0.426-1.1-0.49-0.7-1.333-1.12-2.258-1.12-0.924 0-1.768 0.42-2.258 1.14-0.22 0.32-0.363 0.68-0.425 1.090-0.064 0.42-0.040 0.88 0.070 1.36 0.24 1.060 0.895 2.25 1.942 3.55-0.66 0.73-1.25 1.23-1.82 1.55-0.42 0.24-0.82 0.38-1.23 0.42-0.43 0.050-0.85 0-1.23-0.16-0.78-0.31-1.34-1.030-1.46-1.86-0.060-0.41-0.020-0.8 0.14-1.24 0.050-0.16 0.12-0.32 0.2-0.5 0.11-0.26 0.24-0.53 0.36-0.79l0.010-0.030c1.1-2.39 2.28-4.81 3.51-7.2l0.050-0.1c0.12-0.25 0.25-0.5 0.38-0.74 0.13-0.25 0.27-0.5 0.45-0.71 0.34-0.39 0.78-0.6 1.27-0.6 0.5 0 0.94 0.21 1.27 0.6 0.18 0.21 0.31 0.45 0.45 0.71 0.13 0.24 0.26 0.49 0.38 0.73l0.050 0.1c1.23 2.39 2.41 4.81 3.51 7.2l0.010 0.020c0.12 0.26 0.25 0.54 0.37 0.81 0.080 0.18 0.15 0.34 0.21 0.5 0.15 0.44 0.2 0.83 0.14 1.24zM8 12.19c-0.866-1.102-1.422-2.123-1.617-2.98-0.082-0.36-0.1-0.69-0.056-0.98 0.040-0.254 0.126-0.48 0.258-0.673 0.3-0.435 0.828-0.696 1.415-0.696s1.116 0.27 1.415 0.7c0.133 0.2 0.22 0.42 0.258 0.67 0.045 0.29 0.026 0.63-0.056 0.98-0.195 0.86-0.75 1.88-1.617 2.98z"></path>
</svg>
