<!-- Generated by IcoMoon.io -->
<svg version="1.1" xmlns="http://www.w3.org/2000/svg" width="16" height="16" viewBox="0 0 16 16">
<title>brand66</title>
<path fill="#f45800" d="M5.728 1.63c0-0.217 0.022-0.347 0.392-0.347h4.978c0.87 0 1.348 0.74 1.695 2.13l0.283 1.11h0.848c0.152-3.153 0.283-4.523 0.283-4.523s-2.13 0.24-3.392 0.24h-6.37l-3.41-0.11v0.913l1.15 0.218c0.805 0.16 1 0.33 1.066 1.070 0 0 0.070 2.18 0.070 5.76 0 3.59-0.060 5.74-0.060 5.74 0 0.65-0.26 0.89-1.060 1.050l-1.15 0.22v0.9l3.42-0.11h5.7c1.29 0 4.26 0.11 4.26 0.11 0.070-0.78 0.5-4.32 0.57-4.71h-0.8l-0.85 1.94c-0.67 1.52-1.65 1.63-2.74 1.63h-3.271c-1.087 0-1.61-0.43-1.61-1.37v-4.961s2.414 0 3.197 0.065c0.61 0.043 0.978 0.217 1.174 1.065l0.26 1.13h0.94l-0.060-2.848 0.13-2.87h-0.93l-0.3 1.26c-0.19 0.828-0.32 0.98-1.17 1.067-1.11 0.11-3.21 0.090-3.21 0.090v-5.859z"></path>
</svg>
