<!-- Generated by IcoMoon.io -->
<svg version="1.1" xmlns="http://www.w3.org/2000/svg" width="16" height="16" viewBox="0 0 16 16">
<title>brand121</title>
<path fill="#d24939" d="M1.914 16h-0.65c-0.017-0.044-0.032-0.088-0.046-0.132-0.144-0.444-0.396-0.993-0.462-1.436-0.098-0.656 0.52-0.693 0.916-0.977 0.61-0.44 1.090-0.683 1.752-1.080 0.196-0.118 0.787-0.415 0.854-0.552 0.134-0.272-0.23-0.655-0.327-0.868-0.15-0.337-0.23-0.623-0.25-0.955-0.55-0.088-0.97-0.418-1.23-0.79-0.42-0.617-0.71-1.758-0.35-2.625 0.030-0.068 0.17-0.203 0.19-0.308 0.040-0.206-0.070-0.48-0.080-0.7-0.040-1.128 0.19-2.1 0.95-2.44 0.309-1.227 1.409-1.635 2.449-2.245 0.387-0.228 0.816-0.374 1.26-0.537 1.58-0.585 4.018-0.475 5.33 0.522 0.557 0.422 1.45 1.314 1.77 1.96 0.842 1.703 0.782 4.55 0.192 6.623-0.080 0.28-0.194 0.688-0.355 1.022-0.112 0.233-0.46 0.7-0.417 0.907 0.043 0.21 0.793 0.78 0.954 0.93 0.29 0.28 0.84 0.65 0.883 1 0.048 0.37-0.165 0.89-0.273 1.25-0.145 0.48-0.29 0.96-0.437 1.42h-12.624zM9.317 13.638c-0.363-0.198-0.908-0.414-1.376-0.503-0.58-0.11-0.52 0.792-0.5 1.33 0.020 0.427 0.24 0.878 0.34 1.162 0.050 0.132 0.060 0.273 0.17 0.3 0.2 0.045 0.86-0.218 1.050-0.32 0.4-0.218 0.71-0.562 1.050-0.793 0.010-0.112 0.010-0.225 0.020-0.337-0.2-0.1-0.43-0.173-0.73-0.186 0.21-0.1 0.5-0.1 0.69-0.22l0.010-0.13c-0.33-0.020-0.46-0.17-0.68-0.29zM14.287 15.596c0.13-0.412 0.24-0.814 0.31-1.168 0.040-0.192 0.144-0.612 0.12-0.783-0.040-0.307-0.457-0.534-0.67-0.724-0.39-0.35-0.634-0.65-1.040-0.98-0.166 0.25-0.52 0.41-0.655 0.61 0.964-0.46 1.138 1.75 0.76 2.46 0.060 0.22 0.26 0.3 0.342 0.49l-0.058 0.11h0.86c0.010 0 0.022 0 0.030 0.010zM9.864 15.589c-0.032-0.050-0.066-0.090-0.1-0.14l-0.2 0.13h0.3zM11.712 15.589c0.006-0.14 0.012-0.27 0.020-0.4-0.353 0.020-0.55-0.32-0.797-0.35-0.216-0.030-0.4 0.24-0.68 0.13-0.064 0.070-0.123 0.15-0.19 0.21 0.103 0.12 0.196 0.25 0.282 0.39h0.544c0.010-0.11 0.090-0.19 0.2-0.19s0.19 0.080 0.19 0.18h0.44zM13.122 15.589c-0.21-0.32-0.632-0.6-1.12-0.37l-0.020 0.36h1.14zM7.449 15.589l-0.070-0.23c-0.15-0.48-0.24-0.84-0.27-1.12-0.61-0.29-1.25-0.58-1.77-0.95-0.1-0.070-0.74-0.9-0.82-0.87-1.16 0.45-2.24 1.24-3.21 1.99 0.17 0.37 0.32 0.76 0.46 1.16h5.67zM12.959 14.179c-0.020-0.34-0.11-1.040-0.32-1.16-0.44-0.26-1.23 0.52-1.56 0.63 0.030 0.1 0.090 0.18 0.1 0.32 0.19-0.050 0.43-0.020 0.6 0.060-0.2 0.020-0.42 0.020-0.55 0.11-0.050 0.13 0.010 0.32-0.020 0.51 0.46 0.13 1 0.2 1.59 0.22 0.11-0.15 0.15-0.43 0.14-0.72zM10.239 13.939c-0.030 0.25 0.030 0.34 0.080 0.63 0.84 0.26 0.69-1.16-0.090-0.64zM5.84 13c-0.3 0.304 0.848 0.72 1.21 0.743 0-0.194 0.11-0.376 0.090-0.515-0.433-0.077-1.002-0.027-1.297-0.23zM9.55 13.142c0 0.030-0.040 0.020-0.045 0.043 0.387 0.302 0.675 0.365 1.202 0.34 0.236-0.174 0.447-0.375 0.695-0.537-0.57 0.050-1.288 0.404-1.85 0.153zM11.83 1.324c-1.070-0.604-2.9-1.060-4.050-0.487-0.92 0.462-2.18 1.227-2.6 2.195 0.4 0.935-0.11 1.79-0.15 2.74-0.012 0.505 0.24 0.946 0.26 1.495-0.134 0.225-0.55 0.253-0.84 0.238-0.097-0.486-0.267-1.033-0.77-1.088-0.71-0.077-1.23 0.51-1.26 1.122-0.040 0.72 0.555 1.91 1.39 1.83 0.326-0.030 0.406-0.36 0.76-0.36 0.19 0.38-0.297 0.5-0.35 0.77-0.010 0.070 0.040 0.34 0.070 0.47 0.156 0.63 0.496 1.44 0.83 1.92 0.423 0.6 1.256 0.7 2.153 0.76 0.16-0.35 0.75-0.32 1.136-0.23-0.46-0.18-0.89-0.63-1.25-1.020-0.41-0.45-0.82-0.94-0.84-1.52 0.77 1.070 1.4 2 2.8 2.47 1.060 0.35 2.3-0.17 3.11-0.74 0.34-0.24 0.54-0.62 0.78-0.96 0.9-1.29 1.32-3.14 1.23-4.93-0.040-0.74-0.040-1.48-0.29-1.97-0.26-0.52-1.13-0.98-1.65-0.52-0.1-0.51 0.42-0.82 1.030-0.64-0.44-0.57-0.89-1.24-1.51-1.59zM9.054 9.93c0.41 1.030 1.817 0.91 3.004 0.883-0.056 0.13-0.17 0.29-0.31 0.343-0.38 0.155-1.43 0.272-1.958-0.008-0.337-0.18-0.55-0.582-0.735-0.818-0.090-0.114-0.53-0.405-0.007-0.406zM9.164 9.35c0.595 0.31 1.68 0.345 2.488 0.32 0.045 0.178 0.044 0.396 0.046 0.61-1.035 0.053-2.258-0.203-2.53-0.93zM13.614 8.96c-0.315 0.6-0.763 1.265-1.692 1.285-0.016-0.19-0.030-0.49 0-0.603 0.71-0.068 1.15-0.43 1.695-0.677zM13.182 8.515c-0.68 0.44-1.436 0.917-2.55 0.807-0.234-0.207-0.324-0.667-0.093-0.972 0.12 0.208 0.040 0.59 0.38 0.646 0.63 0.11 1.36-0.386 1.82-0.56 0.28-0.475-0.030-0.65-0.28-0.955-0.52-0.62-1.22-1.4-1.2-2.34 0.21-0.15 0.23 0.23 0.26 0.3 0.27 0.64 0.95 1.45 1.45 2 0.12 0.14 0.32 0.26 0.34 0.35 0.060 0.26-0.17 0.57-0.14 0.74zM4.222 8.065c-0.21-0.123-0.262-0.66-0.512-0.674-0.357-0.020-0.292 0.7-0.29 1.12-0.247-0.22-0.29-0.91-0.11-1.26-0.205-0.1-0.297 0.11-0.412 0.19 0.147-1.060 1.56-0.49 1.326 0.64zM3.142 3.995c-0.457 0.504-0.36 1.45-0.306 2.125 0.83-0.523 1.933 0.040 1.922 0.93 0.397-0.010 0.148-0.496 0.077-0.81-0.235-1.020 0.395-2.125 0.028-3.060-0.71 0.056-1.294 0.347-1.72 0.81zM9.222 4.738c0.205 0.374 0.27 0.765 0.56 1.046 0.13 0.128 0.383 0.283 0.258 0.635-0.030 0.080-0.244 0.26-0.367 0.3-0.45 0.13-1.503 0.020-1.147-0.54 0.374 0.010 0.876 0.24 1.155-0.030-0.21-0.35-0.59-1.020-0.45-1.42zM13.356 4.728h0.045c0.22 0.446 0.4 0.917 0.67 1.31-0.18 0.42-1.37 0.794-1.35 0.038 0.26-0.113 0.7-0.023 0.93-0.167-0.13-0.37-0.32-0.67-0.29-1.18zM8.736 3.65c-0.948-0.22-1.42 0.395-1.706 1.035-0.256-0.062-0.154-0.41-0.090-0.588 0.17-0.467 0.854-1.088 1.412-1.004 0.24 0.038 0.566 0.257 0.384 0.556zM6.428 1.060c-1.040 0.294-2.373 1.050-2.8 1.983 0.33-0.047 0.56-0.214 0.887-0.234 0.123-0.010 0.285 0.050 0.427 0.010 0.282-0.070 0.52-0.71 0.734-0.94 0.208-0.23 0.457-0.33 0.628-0.54 0.11-0.060 0.272-0.050 0.28-0.22-0.050-0.050-0.1-0.090-0.156-0.070z"></path>
</svg>
