<!-- Generated by IcoMoon.io -->
<svg version="1.1" xmlns="http://www.w3.org/2000/svg" width="16" height="16" viewBox="0 0 16 16">
<title>brand69</title>
<path fill="#2dbe60" d="M11.277 7.568c-0.216-0.007-0.424 0.006-0.618 0.037 0.050-0.44 0.23-0.98 0.88-0.96 0.71 0.026 0.81 0.7 0.81 1.157-0.3-0.134-0.68-0.22-1.080-0.234zM14.319 2.784c-0.12-0.64-0.5-0.953-0.84-1.077-0.37-0.134-1.12-0.273-2.070-0.384-0.76-0.090-1.65-0.082-2.19-0.065-0.059-0.443-0.369-0.848-0.719-0.988-0.92-0.373-2.35-0.283-2.718-0.18-0.29 0.082-0.613 0.25-0.793 0.507-0.12 0.172-0.2 0.392-0.2 0.7 0 0.175 0 0.586 0.010 0.95l0.010 0.697c0 0.326-0.27 0.59-0.6 0.59h-1.5c-0.32 0-0.57 0.055-0.76 0.14s-0.32 0.2-0.42 0.335c-0.2 0.26-0.24 0.6-0.24 0.94 0 0 0 0.27 0.070 0.81 0.050 0.41 0.5 3.31 0.93 4.19 0.17 0.34 0.28 0.48 0.6 0.63 0.73 0.31 2.39 0.65 3.16 0.75 0.78 0.1 1.27 0.3 1.56-0.3 0-0.010 0.050-0.16 0.13-0.38 0.25-0.77 0.28-1.44 0.28-1.93 0-0.050 0.070-0.050 0.070 0 0 0.34-0.070 1.57 0.85 1.9 0.36 0.13 1.12 0.24 1.89 0.33 0.69 0.080 1.2 0.35 1.2 2.14 0 1.080-0.23 1.23-1.42 1.23-0.97 0-1.34 0.020-1.34-0.74 0-0.62 0.61-0.56 1.070-0.56 0.2 0 0.050-0.15 0.050-0.54 0-0.38 0.23-0.6 0.010-0.61-1.58-0.050-2.5 0-2.5 1.96 0 1.78 0.68 2.12 2.91 2.12 1.75 0 2.37-0.060 3.090-2.3 0.14-0.45 0.49-1.8 0.7-4.060 0.13-1.44-0.13-5.77-0.33-6.86zM2.6 3.060h1.51c0.086 0 0.156-0.070 0.156-0.16 0 0-0.014-1.29-0.014-1.65 0-0.297 0.060-0.55 0.17-0.768l0.050-0.1c-0.005 0-0.010 0-0.016 0.010l-2.9 2.92c-0.006 0.004-0.010 0.010-0.010 0.016l0.153-0.075c0.25-0.116 0.56-0.18 0.93-0.18z"></path>
</svg>
