<!-- Generated by IcoMoon.io -->
<svg version="1.1" xmlns="http://www.w3.org/2000/svg" width="16" height="16" viewBox="0 0 16 16">
<title>brand67</title>
<path fill="#f6682f" d="M5.41 0h7.355c0.118 0 0.177 0.060 0.177 0.178v2.755c0 0.12-0.060 0.178-0.177 0.178h-6.49c-0.118 0-0.177 0.060-0.177 0.18v3c0.030 0.12 0.090 0.18 0.178 0.18h5.755c0.12 0 0.18 0.060 0.18 0.18v2.66c0 0.12-0.060 0.18-0.18 0.18h-5.751c-0.090 0-0.148 0.060-0.178 0.18v3.020c0 0.12 0.060 0.18 0.177 0.18h6.71c0.090 0 0.15 0.050 0.18 0.14 0.040 0.15 0.070 0.33 0.080 0.56s-0.010 0.48-0.080 0.77c-0.070 0.29-0.19 0.56-0.36 0.8-0.17 0.25-0.45 0.46-0.83 0.63-0.39 0.17-0.86 0.26-1.4 0.26h-7.659c-0.118 0-0.178-0.060-0.178-0.18v-13.181c0-0.74 0.26-1.37 0.778-1.89 0.52-0.52 1.148-0.78 1.89-0.78z"></path>
</svg>
