<!-- Generated by IcoMoon.io -->
<svg version="1.1" xmlns="http://www.w3.org/2000/svg" width="16" height="16" viewBox="0 0 16 16">
<title>brand296</title>
<path fill="#c41200" d="M14.073 12.152c-0.094 0.646-1.414 2.323-2.020 2.565-0.207 0.083-0.408 0.063-0.566-0.060-0.103-0.080-0.21-0.244-1.633-2.552l-0.422-0.688c-0.162-0.247-0.132-0.572 0.070-0.82 0.197-0.24 0.487-0.33 0.74-0.233 0.014 0.008 1.065 0.354 1.065 0.354 2.392 0.786 2.47 0.816 2.572 0.892 0.15 0.124 0.22 0.317 0.19 0.542zM9.278 8.64c-0.17-0.257-0.167-0.56 0.007-0.77l0.666-0.906c1.46-1.99 1.54-2.095 1.64-2.164 0.17-0.114 0.38-0.12 0.58-0.022 0.58 0.282 1.75 2.020 1.82 2.687v0.023c0.020 0.227-0.070 0.412-0.23 0.523-0.11 0.070-0.21 0.11-2.93 0.77-0.43 0.11-0.67 0.17-0.81 0.22l0.020-0.020c-0.27 0.080-0.57-0.050-0.74-0.32zM7.608 7.61c-0.13 0.040-0.526 0.163-1.013-0.625 0 0-3.288-5.174-3.365-5.333-0.047-0.18 0.010-0.383 0.17-0.548 0.49-0.507 3.145-1.25 3.84-1.080 0.227 0.058 0.383 0.2 0.438 0.403 0.040 0.223 0.363 5.024 0.41 6.1 0.044 0.92-0.35 1.044-0.48 1.083zM8.042 12.872c-0.007 2.517-0.012 2.6-0.054 2.72-0.070 0.188-0.23 0.312-0.454 0.353-0.64 0.11-2.645-0.63-3.063-1.126-0.080-0.11-0.13-0.22-0.14-0.33-0.010-0.080 0-0.16 0.030-0.23 0.050-0.13 0.12-0.23 1.92-2.34l0.53-0.63c0.18-0.23 0.5-0.3 0.8-0.18 0.29 0.11 0.47 0.36 0.45 0.63v1.12zM2.586 11.262c-0.197-0.006-0.373-0.124-0.476-0.32-0.075-0.143-0.127-0.38-0.16-0.668-0.090-0.868 0.020-2.176 0.28-2.592 0.122-0.19 0.3-0.29 0.497-0.283 0.13 0 0.246 0.040 2.82 1.1l0.753 0.3c0.27 0.1 0.437 0.38 0.42 0.7-0.020 0.31-0.198 0.55-0.463 0.62l-1.070 0.34c-2.394 0.77-2.473 0.79-2.6 0.78zM12.572 16h-0.002l-0.004 0.002 0.006-0.002z"></path>
</svg>
