<!-- Generated by IcoMoon.io -->
<svg version="1.1" xmlns="http://www.w3.org/2000/svg" width="16" height="16" viewBox="0 0 16 16">
<title>brand159</title>
<path fill="#d24726" d="M15.66 2.665h-5.696v2.125c0.343-0.26 0.755-0.392 1.237-0.392v2.065h2.050c-0.010 0.58-0.21 1.068-0.6 1.463s-0.88 0.598-1.46 0.61c-0.45-0.012-0.86-0.148-1.22-0.41v1.42h4.48v0.697h-4.481v0.862h4.477v0.688h-4.48v1.56h5.697c0.23 0 0.34-0.12 0.34-0.358v-9.99c0-0.227-0.11-0.34-0.34-0.34zM11.523 6.123v-2.083c0.58 0.013 1.067 0.215 1.46 0.607 0.39 0.392 0.593 0.884 0.604 1.476h-2.064zM5.505 6.158c-0.035-0.134-0.093-0.238-0.175-0.314-0.080-0.075-0.188-0.13-0.322-0.165-0.15-0.040-0.305-0.060-0.46-0.060l-0.48 0.010v2h0.017c0.174 0.010 0.357 0.010 0.55 0 0.19-0.010 0.37-0.060 0.54-0.15 0.208-0.15 0.333-0.35 0.373-0.61s0.026-0.51-0.043-0.74zM0 2.038v11.967l9.128 1.577v-15.164l-9.128 1.62zM6.81 7.43c-0.25 0.58-0.623 0.95-1.122 1.11-0.5 0.16-1.040 0.222-1.62 0.187v2.282l-1.202-0.14v-6.269l1.907-0.1c0.354-0.022 0.703 0.017 1.045 0.12 0.343 0.102 0.614 0.307 0.815 0.615s0.313 0.664 0.34 1.070c0.025 0.407-0.028 0.782-0.162 1.125z"></path>
</svg>
