<!-- Generated by IcoMoon.io -->
<svg version="1.1" xmlns="http://www.w3.org/2000/svg" width="16" height="16" viewBox="0 0 16 16">
<title>brand229</title>
<path fill="#f30" d="M0.773 8.13c-0.034 0-0.062 0.030-0.067 0.066l-0.156 1.437 0.156 1.405c0.005 0.038 0.033 0.065 0.067 0.065s0.060-0.027 0.066-0.065l0.17-1.405-0.18-1.437c0-0.038-0.030-0.066-0.060-0.066zM0.169 8.682c-0.040 0-0.060 0.025-0.070 0.062l-0.11 0.89 0.11 0.872c0 0.037 0.030 0.063 0.060 0.063s0.060-0.030 0.070-0.070l0.14-0.88-0.14-0.89c0-0.040-0.030-0.060-0.060-0.060zM1.389 7.849c-0.040 0-0.080 0.030-0.080 0.070l-0.14 1.71 0.15 1.64c0 0.040 0.030 0.080 0.080 0.080 0.040 0 0.070-0.040 0.080-0.080l0.17-1.65-0.17-1.7c-0.010-0.040-0.040-0.080-0.080-0.080zM2.029 7.779c-0.050 0-0.090 0.040-0.1 0.090l-0.129 1.761 0.14 1.697c0.010 0.052 0.050 0.092 0.1 0.092s0.090-0.040 0.1-0.1l0.16-1.69-0.16-1.75c0-0.050-0.040-0.090-0.090-0.090zM2.8 8.019c-0.003-0.060-0.050-0.1-0.106-0.1-0.060 0-0.106 0.040-0.11 0.1l-0.144 1.621 0.133 1.71c0 0.060 0.050 0.105 0.106 0.105 0.050 0 0.1-0.046 0.1-0.106l0.15-1.71-0.15-1.63zM3.34 6.879c-0.067 0-0.12 0.060-0.12 0.12l-0.14 2.64 0.124 1.71c0 0.060 0.054 0.11 0.12 0.11 0.063 0 0.116-0.060 0.12-0.12l0.14-1.71-0.14-2.65c-0.005-0.070-0.058-0.12-0.12-0.12zM3.964 6.249c-0.070 0-0.13 0.060-0.135 0.13l-0.12 3.25 0.11 1.7c0 0.080 0.060 0.14 0.13 0.14s0.13-0.060 0.14-0.14l0.13-1.7-0.13-3.24c-0.010-0.080-0.070-0.14-0.14-0.14zM4.609 5.949c-0.080 0-0.14 0.060-0.15 0.14l-0.11 3.52 0.11 1.68c0.010 0.080 0.070 0.15 0.15 0.15s0.15-0.070 0.15-0.15l0.13-1.68-0.13-3.52c0-0.080-0.070-0.15-0.15-0.15zM5.439 5.969c0-0.090-0.070-0.16-0.16-0.16-0.080 0-0.16 0.070-0.16 0.16l-0.1 3.63 0.1 1.67c0.010 0.090 0.080 0.16 0.17 0.16s0.16-0.070 0.16-0.16l0.11-1.67-0.11-3.64zM5.939 5.879c-0.090 0-0.17 0.080-0.17 0.17l-0.1 3.55 0.1 1.65c0 0.1 0.080 0.17 0.17 0.17s0.17-0.080 0.17-0.18l0.1-1.65-0.11-3.54c0-0.1-0.080-0.18-0.18-0.18zM6.589 5.979c-0.11 0-0.19 0.090-0.19 0.19l-0.069 3.431 0.090 1.65c0 0.1 0.080 0.185 0.19 0.185 0.1 0 0.18-0.080 0.19-0.19l0.080-1.63-0.090-3.41c-0.008-0.11-0.090-0.19-0.19-0.19zM7.39 5.385c-0.030-0.020-0.070-0.030-0.11-0.030s-0.080 0.010-0.11 0.030c-0.060 0.036-0.1 0.1-0.1 0.17v0.040l-0.070 4.035 0.077 1.634v0.005c0.005 0.040 0.020 0.090 0.050 0.12 0.038 0.040 0.094 0.070 0.156 0.070 0.054 0 0.105-0.030 0.14-0.060 0.038-0.040 0.060-0.090 0.060-0.15l0.010-0.16 0.078-1.47-0.090-4.060c0-0.070-0.040-0.13-0.090-0.16zM8.061 5.019c-0.030-0.030-0.060-0.040-0.1-0.040-0.050 0-0.1 0.010-0.14 0.040-0.050 0.040-0.080 0.1-0.080 0.16v0.020l-0.090 4.41 0.050 0.81 0.040 0.79c0 0.11 0.1 0.21 0.22 0.21s0.22-0.1 0.22-0.22l0.1-1.61-0.1-4.428c0-0.080-0.050-0.147-0.11-0.185zM14.031 7.496c-0.27 0-0.53 0.057-0.76 0.155-0.16-1.77-1.64-3.16-3.46-3.16-0.44 0-0.87 0.090-1.26 0.24-0.15 0.060-0.18 0.12-0.19 0.24v6.25c0.010 0.12 0.1 0.22 0.22 0.23h5.46c1.080 0.010 1.96-0.86 1.96-1.95s-0.88-1.97-1.96-1.97z"></path>
</svg>
