<!-- Generated by IcoMoon.io -->
<svg version="1.1" xmlns="http://www.w3.org/2000/svg" width="16" height="16" viewBox="0 0 16 16">
<title>brand215</title>
<path fill="#fb4226" d="M15.8 14.4c0.3-0.5 0.3-1 0-1.5l-6.5-11.3c-0.3-0.5-0.8-0.7-1.3-0.7s-1 0.3-1.3 0.7l-2.1 3.7 0.5 0.3c1.6 0.9 2.9 2.2 3.8 3.8 0.8 1.4 1.3 2.9 1.4 4.5h-1.5c-0.1-1.3-0.5-2.6-1.2-3.8-0.7-1.4-1.8-2.5-3.2-3.3l-0.5-0.3-2 3.4 0.5 0.3c1.3 0.8 2.2 2.1 2.4 3.6h-3.3c-0.1 0-0.2-0.1-0.2-0.1s-0.1-0.1 0-0.2l0.9-1.6c-0.3-0.3-0.7-0.5-1.1-0.6l-0.9 1.6c-0.3 0.5-0.3 1 0 1.5s0.7 0.7 1.3 0.7h4.6v-0.6c0-1.1-0.3-2.1-0.8-3.1-0.4-0.8-1-1.4-1.7-1.9l0.7-1.3c0.9 0.7 1.7 1.5 2.3 2.5 0.7 1.2 1 2.5 1 3.8v0.6h3.9v-0.6c0-2-0.5-4-1.6-5.8-0.8-1.6-2.1-2.9-3.6-3.9l1.5-2.6c0.1-0.1 0.2-0.1 0.2-0.1 0.1 0 0.1 0 0.2 0.1l6.5 11.3c0.1 0.1 0 0.2 0 0.2s-0.1 0.1-0.2 0.1h-1.5v1.2h1.5c0.6 0.1 1-0.1 1.3-0.6z"></path>
</svg>
