<!-- Generated by IcoMoon.io -->
<svg version="1.1" xmlns="http://www.w3.org/2000/svg" width="16" height="16" viewBox="0 0 16 16">
<title>brand79</title>
<path fill="#396" d="M8 16c-4.418 0-8-3.582-8-8s3.582-8 8-8c4.418 0 8 3.582 8 8s-3.582 8-8 8zM8 14.89c3.805 0 6.89-3.085 6.89-6.89s-3.085-6.89-6.89-6.89c-3.805 0-6.89 3.085-6.89 6.89s3.085 6.89 6.89 6.89zM10.32 10.073c0-1.116-0.718-1.607-1.92-1.65l-0.75-0.035c-0.63-0.022-0.798-0.055-0.798-0.29 0-0.090 0.067-0.212 0.202-0.28 0.123 0.024 0.213 0.035 0.337 0.035 1.61 0 2.42-0.78 2.42-1.986 0-0.2-0.050-0.38-0.15-0.49h0.64v-1.34h-1.901c-0.315-0.077-0.595-0.133-0.977-0.133-1.695 0-2.536 0.982-2.536 2.12 0 0.713 0.337 1.227 0.84 1.494-0.39 0.156-0.682 0.58-0.682 1.027 0 0.39 0.215 0.702 0.54 0.858-0.426 0.224-0.81 0.77-0.81 1.294 0 1.105 0.9 1.65 2.427 1.65 1.915 0 3.13-1.070 3.13-2.274zM8.32 6.033c0 0.473-0.334 0.76-0.883 0.76-0.596 0-0.895-0.298-0.895-0.783 0-0.453 0.322-0.773 0.883-0.773 0.597 0 0.895 0.32 0.895 0.795zM8.764 10.273c0 0.42-0.408 0.742-1.213 0.742-0.63 0-1-0.27-1-0.667 0-0.236 0.15-0.473 0.4-0.666 0.060 0.010 0.15 0 0.22 0.010l0.9 0.022c0.53 0.022 0.72 0.258 0.72 0.56zM11.758 7.237c-0.66 0-1.216 0.556-1.216 1.23 0 0.672 0.556 1.215 1.216 1.215 0.673 0 1.23-0.543 1.23-1.216s-0.557-1.23-1.23-1.23z"></path>
</svg>
