<!-- Generated by IcoMoon.io -->
<svg version="1.1" xmlns="http://www.w3.org/2000/svg" width="16" height="16" viewBox="0 0 16 16">
<title>brand2</title>
<path fill="#044a75" d="M13.024 6.096c-0.916 0-1.422 0.675-1.53 1.41h3.072c-0.084-0.7-0.578-1.41-1.542-1.41zM11.518 8.506c0.157 0.77 0.795 1.313 1.687 1.313 0.482 0 1.18-0.18 1.59-0.61l0.783 0.9c-0.71 0.74-1.77 0.95-2.493 0.95-1.76 0-3.133-1.27-3.133-3.070 0-1.69 1.264-3.080 3.048-3.080 1.722 0 3 1.32 3 3.070v0.51h-4.482zM7.192 11.058v-3.793c0-0.65-0.288-1.024-0.89-1.024-0.543 0-0.904 0.39-1.145 0.67v4.16h-1.567v-3.8c0-0.65-0.276-1.020-0.878-1.020-0.542 0-0.917 0.39-1.145 0.67v4.16h-1.567v-6.081h1.567v0.767c0.265-0.31 0.867-0.84 1.807-0.84 0.83 0 1.397 0.35 1.65 1.060 0.35-0.508 1-1.060 1.94-1.060 1.133 0 1.795 0.673 1.795 1.974v4.16h-1.569z"></path>
</svg>
