<!-- Generated by IcoMoon.io -->
<svg version="1.1" xmlns="http://www.w3.org/2000/svg" width="16" height="16" viewBox="0 0 16 16">
<title>brand32</title>
<path d="M6.096 8c0-1.056 0.856-1.904 1.904-1.904s1.904 0.856 1.904 1.904-0.856 1.904-1.904 1.904-1.904-0.856-1.904-1.904zM8 0c-3.736 0-6.864 2.56-7.752 6.016-0.008 0.024-0.008 0.048-0.008 0.080 0 0.208 0.168 0.384 0.384 0.384h3.224c0.152 0 0.288-0.088 0.344-0.224 0.664-1.44 2.12-2.448 3.808-2.448 2.312 0 4.192 1.88 4.192 4.192s-1.88 4.192-4.192 4.192c-1.688 0-3.144-1-3.808-2.448-0.064-0.128-0.192-0.224-0.344-0.224h-3.224c-0.208 0-0.384 0.168-0.384 0.384 0 0.024 0.008 0.048 0.008 0.080 0.88 3.456 4.016 6.016 7.752 6.016 4.416 0 8-3.584 8-8s-3.584-8-8-8z"></path>
</svg>
