<!-- Generated by IcoMoon.io -->
<svg version="1.1" xmlns="http://www.w3.org/2000/svg" width="16" height="16" viewBox="0 0 16 16">
<title>brand6</title>
<path fill="#f90" d="M0.030 12.015c0.048-0.078 0.125-0.083 0.232-0.015 2.424 1.406 5.062 2.11 7.913 2.11 1.9 0 3.777-0.355 5.63-1.063l0.21-0.087c0.092-0.040 0.157-0.068 0.196-0.087 0.15-0.058 0.26-0.030 0.35 0.087 0.080 0.116 0.060 0.223-0.080 0.32-0.17 0.126-0.4 0.272-0.67 0.436-0.83 0.495-1.76 0.878-2.79 1.15-1.020 0.27-2.030 0.407-3.010 0.407-1.51 0-2.94-0.265-4.29-0.793s-2.551-1.273-3.621-2.233c-0.070-0.047-0.1-0.097-0.1-0.145 0-0.030 0.010-0.058 0.030-0.087zM4.406 7.87c0-0.67 0.165-1.242 0.495-1.717s0.78-0.834 1.36-1.077c0.53-0.223 1.17-0.383 1.94-0.48 0.26-0.030 0.69-0.068 1.28-0.116v-0.247c0-0.62-0.070-1.038-0.2-1.25-0.2-0.292-0.52-0.438-0.96-0.438h-0.121c-0.32 0.030-0.597 0.13-0.83 0.306-0.233 0.18-0.383 0.42-0.45 0.73-0.040 0.2-0.137 0.31-0.29 0.34l-1.68-0.21c-0.165-0.040-0.248-0.12-0.248-0.26 0-0.030 0.005-0.060 0.015-0.1 0.165-0.86 0.57-1.5 1.214-1.92 0.65-0.41 1.4-0.65 2.26-0.7h0.36c1.1 0 1.97 0.29 2.59 0.86 0.090 0.1 0.18 0.2 0.27 0.32 0.080 0.11 0.15 0.21 0.19 0.3 0.050 0.090 0.1 0.22 0.13 0.38 0.040 0.17 0.070 0.28 0.090 0.34 0.020 0.070 0.040 0.2 0.050 0.41s0.020 0.33 0.020 0.37v3.52c0 0.25 0.040 0.48 0.11 0.69s0.14 0.36 0.21 0.45l0.34 0.45c0.060 0.090 0.090 0.17 0.090 0.24 0 0.080-0.040 0.15-0.12 0.21-0.8 0.7-1.24 1.080-1.31 1.14-0.11 0.090-0.25 0.1-0.42 0.030-0.13-0.11-0.25-0.22-0.35-0.33l-0.21-0.23c-0.040-0.050-0.11-0.14-0.21-0.28l-0.2-0.29c-0.54 0.59-1.070 0.96-1.6 1.11-0.33 0.1-0.73 0.15-1.22 0.15-0.74 0-1.36-0.23-1.84-0.69s-0.72-1.11-0.72-1.96zM6.908 7.578c0 0.378 0.094 0.68 0.283 0.91 0.19 0.227 0.45 0.34 0.77 0.34 0.030 0 0.070-0.004 0.13-0.013s0.090-0.015 0.11-0.015c0.41-0.107 0.72-0.368 0.95-0.785 0.11-0.185 0.19-0.386 0.24-0.604 0.060-0.21 0.080-0.39 0.090-0.53 0.010-0.13 0.010-0.36 0.010-0.67v-0.36c-0.56 0-0.99 0.040-1.28 0.12-0.85 0.24-1.28 0.78-1.28 1.62zM13.016 12.262c0.020-0.040 0.050-0.078 0.087-0.117 0.243-0.164 0.476-0.276 0.7-0.334 0.367-0.090 0.726-0.15 1.075-0.16 0.097-0.010 0.19 0 0.276 0.020 0.437 0.040 0.7 0.11 0.786 0.22 0.040 0.060 0.058 0.15 0.058 0.26v0.1c0 0.34-0.092 0.74-0.276 1.2-0.185 0.46-0.442 0.83-0.77 1.12-0.050 0.040-0.093 0.060-0.132 0.060-0.020 0-0.040 0-0.058-0.010-0.060-0.030-0.073-0.080-0.044-0.16 0.36-0.84 0.538-1.43 0.538-1.76 0-0.1-0.020-0.18-0.058-0.23-0.097-0.11-0.368-0.17-0.815-0.17-0.164 0-0.358 0.010-0.58 0.030-0.244 0.030-0.467 0.060-0.67 0.090-0.060 0-0.097-0.010-0.117-0.030s-0.024-0.030-0.014-0.050c0-0.010 0.004-0.020 0.014-0.040z"></path>
</svg>
