<!-- Generated by IcoMoon.io -->
<svg version="1.1" xmlns="http://www.w3.org/2000/svg" width="16" height="16" viewBox="0 0 16 16">
<title>brand112</title>
<path fill="#0071ce" d="M10.23 8.337l1.58 2.088c0.132 0.173 0.14 0.46 0.017 0.64l-0.080 0.118c-0.12 0.18-0.366 0.43-0.543 0.554l-0.19 0.134c-0.177 0.13-0.464 0.13-0.637-0.010l-2.090-1.58c-0.17-0.13-0.454-0.13-0.627 0l-2.090 1.58c-0.172 0.14-0.46 0.14-0.638 0.020l-0.138-0.090c-0.18-0.12-0.427-0.37-0.55-0.54l-0.12-0.17c-0.124-0.18-0.12-0.46 0.012-0.64l1.584-2.1c0.13-0.17 0.13-0.45 0-0.63l-1.588-2.091c-0.13-0.175-0.136-0.46-0.010-0.638l0.134-0.19c0.124-0.176 0.373-0.42 0.552-0.543l0.117-0.080c0.18-0.13 0.468-0.12 0.64 0.010l2.090 1.58c0.173 0.13 0.456 0.13 0.628 0l2.090-1.59c0.172-0.13 0.466-0.15 0.653-0.040l0.22 0.13c0.187 0.11 0.426 0.35 0.53 0.54l0.080 0.14c0.103 0.19 0.082 0.48-0.050 0.66l-1.58 2.090c-0.13 0.17-0.13 0.45 0 0.63zM8 0c-4.42 0-8 3.582-8 8s3.58 8 8 8c4.418 0 8-3.582 8-8s-3.582-8-8-8z"></path>
</svg>
