<!-- Generated by IcoMoon.io -->
<svg version="1.1" xmlns="http://www.w3.org/2000/svg" width="16" height="16" viewBox="0 0 16 16">
<title>brand130</title>
<path fill="#82bc23" d="M7.654 11.174c-0.006 0.458-0.373 0.827-0.825 0.827-0.46 0-0.82-0.36-0.83-0.82h-0.010v-4.161h0.011v-0.020c0-0.462 0.37-0.837 0.825-0.837 0.454 0 0.824 0.375 0.824 0.838v0.030h0.010v4.15h-0.010zM15.079 7.914c0.5 0 0.92 0.412 0.92 0.918 0 0.507-0.42 0.917-0.92 0.917-0.51 0-0.93-0.41-0.93-0.92s0.41-0.92 0.92-0.92zM13.689 10.704c0.080 0.13 0.13 0.288 0.13 0.457 0 0.47-0.37 0.84-0.83 0.84-0.31 0-0.58-0.17-0.72-0.42l-1.369-1.831-0.42 0.39v1.090h-0.010c-0.025 0.435-0.38 0.78-0.815 0.78-0.45 0-0.815-0.37-0.815-0.827v-0.016h-0.010v-6.3h0.018v-0.030c0-0.46 0.367-0.835 0.82-0.835 0.45 0 0.817 0.374 0.817 0.835v0.047h0.010l0.007 3.064 1.54-1.507c0.153-0.17 0.373-0.27 0.618-0.27 0.46 0 0.833 0.38 0.833 0.84 0 0.23-0.088 0.43-0.23 0.58l0.008 0.010-1.080 1.070 1.52 2.040-0.010 0.010zM4.859 10.704c0.080 0.13 0.13 0.288 0.13 0.457 0 0.47-0.37 0.84-0.83 0.84-0.31 0-0.58-0.17-0.72-0.42l-1.369-1.831-0.42 0.39v1.088h-0.010c-0.024 0.436-0.38 0.78-0.814 0.78-0.45 0-0.816-0.37-0.816-0.826v-0.016h-0.010v-6.3h0.020c-0.002-0.010-0.002-0.020-0.002-0.030 0-0.46 0.367-0.834 0.82-0.834 0.45 0 0.817 0.372 0.817 0.833v0.047h0.010l0.007 3.066 1.54-1.507c0.153-0.17 0.374-0.27 0.62-0.27 0.458 0 0.83 0.38 0.83 0.84 0 0.22-0.087 0.43-0.23 0.58l0.010 0.010-1.084 1.070 1.514 2.040-0.010 0.010z"></path>
</svg>
