<!-- Generated by IcoMoon.io -->
<svg version="1.1" xmlns="http://www.w3.org/2000/svg" width="16" height="16" viewBox="0 0 16 16">
<title>brand61</title>
<path fill="#0678be" d="M13.65 2.35c-1.51-1.513-3.516-2.35-5.65-2.35-4.407 0-8 3.593-8 8s3.593 8 8 8 8-3.593 8-8c0-2.133-0.838-4.14-2.35-5.65zM8 13.192c-2.413 0-4.38-1.968-4.38-4.38 0-2.045 1.37-3.416 2.577-4.623 0.8-0.8 1.575-1.58 1.803-2.44 0.23 0.86 0.99 1.63 1.803 2.43 1.207 1.211 2.577 2.581 2.577 4.621 0 2.41-1.966 4.38-4.38 4.38z"></path>
</svg>
