<!-- Generated by IcoMoon.io -->
<svg version="1.1" xmlns="http://www.w3.org/2000/svg" width="16" height="16" viewBox="0 0 16 16">
<title>brand200</title>
<path fill="#008fd5" d="M15.594 4.374c-1.85 0.054-4.084-1.398-4.95-1.945-0.080-0.050-0.097-0.1-0.18-0.14-0.090-0.050-0.184-0.1-0.278-0.15v5.34h-0.002c0.003 0.48-0.204 0.98-0.503 1.46l-0.020 0.040c-0.86 1.4-2.68 2.21-4.39 1.63-1.66-0.56-2.1-2.17-1.22-3.59l0.029-0.019c0.85-1.39 2.67-2.21 4.38-1.63 0.13 0.043 0.252 0.096 0.37 0.154v-3.864c-0.614-0.165-1.26-0.26-1.945-0.26-3.95 0-6.885 2.957-6.885 6.6v0.047c0 3.643 2.91 6.553 6.837 6.553 3.95 0 6.884-2.957 6.884-6.6v-0.047c0-0.284-0.020-0.563-0.050-0.837 2.060-0.536 2.91-2.666 1.93-2.742z"></path>
</svg>
