<!-- Generated by IcoMoon.io -->
<svg version="1.1" xmlns="http://www.w3.org/2000/svg" width="16" height="16" viewBox="0 0 16 16">
<title>brand155</title>
<path fill="#ba141a" d="M16 10.012c-0.034 0.362-0.516 0.65-1.443 0.86-0.928 0.214-2.092 0.32-3.494 0.32-0.414 0-0.81-0.005-1.19-0.017v2.188c0.38 0.023 0.776 0.035 1.19 0.035 1.396-0.012 2.56-0.136 3.49-0.375 0.93-0.238 1.413-0.538 1.447-0.9v-2.11zM11.046 8.435c-0.402 0-0.8-0.010-1.19-0.034l0.018 2.23c0.38 0.010 0.775 0.020 1.19 0.020 1.4-0.010 2.565-0.13 3.493-0.37 0.927-0.23 1.41-0.53 1.443-0.89v-2.151c-0.034 0.362-0.518 0.652-1.452 0.87-0.933 0.22-2.1 0.33-3.502 0.33zM11.046 5.687c-0.402 0-0.8-0.012-1.19-0.035v2.223c0.39 0.023 0.788 0.035 1.19 0.035 1.4-0.012 2.57-0.135 3.502-0.37 0.934-0.236 1.418-0.535 1.452-0.897v-2.137c-0.034 0.362-0.518 0.65-1.452 0.862s-2.1 0.32-3.502 0.32zM11.046 2.602c-0.402 0-0.8 0.017-1.19 0.052v2.464c0.39 0.023 0.788 0.034 1.19 0.034 1.4-0.010 2.57-0.133 3.502-0.366 0.934-0.232 1.418-0.533 1.452-0.9-0.034-0.362-0.518-0.664-1.452-0.905s-2.1-0.36-3.502-0.37zM4.316 6.074c-0.022 0.132-0.114 0.55-0.275 1.25l-0.3 1.223 1.2 0.017-0.28-1.224c-0.17-0.712-0.28-1.14-0.3-1.26h-0.040zM0 2.102v11.84l9.030 1.558v-15l-9.030 1.602zM5.523 10.925l-0.336-1.335-1.663-0.060-0.32 1.257-1.060-0.070 1.613-5.65 1.232-0.070 1.76 5.997-1.23-0.070z"></path>
</svg>
