<!-- Generated by IcoMoon.io -->
<svg version="1.1" xmlns="http://www.w3.org/2000/svg" width="16" height="16" viewBox="0 0 16 16">
<title>brand294</title>
<path fill="#0072c6" d="M13.86 4.33c0.323-0.258 0.405-0.723 0.178-1.077-0.2-0.312-0.577-0.44-0.916-0.343l-0.093 0.050c-0.54 0.297-4.19 2.85-3.78 3.138 0.41 0.286 2.9-0.836 4.6-1.77zM13.849 12.008c-1.71-0.934-4.2-2.055-4.61-1.77-0.41 0.288 3.23 2.842 3.77 3.138l0.090 0.050c0.34 0.1 0.71-0.030 0.91-0.342 0.23-0.355 0.14-0.82-0.18-1.077zM15.329 7.329c-0.040-0.010-0.070-0.010-0.11-0.010-0.62 0-5.040 0.48-4.82 0.93 0.22 0.44 2.94 0.66 4.88 0.66 0.4-0.070 0.7-0.44 0.67-0.86-0.030-0.37-0.29-0.67-0.64-0.74zM3.609 11.159c-0.5 1.43-0.97 2.1-2.050 2.1-0.1 0-0.47-0.020-0.49-0.030-0.35-0.020-0.67 0.21-0.76 0.56-0.11 0.39 0.12 0.8 0.52 0.92 0.28 0.050 0.58 0.060 0.84 0.060 1.98 0 2.64-1.14 3.29-2.81l3.9-9.66c0.14-0.44-0.11-0.9-0.54-1.040s-0.88 0.090-1.040 0.5l-2.72 7.2h-0.040l-2.859-7.249c-0.18-0.4-0.66-0.6-1.090-0.44-0.44 0.16-0.67 0.65-0.522 1.090l3.606 8.8z"></path>
</svg>
