<!-- Generated by IcoMoon.io -->
<svg version="1.1" xmlns="http://www.w3.org/2000/svg" width="16" height="16" viewBox="0 0 16 16">
<title>brand24</title>
<path fill="#ee6123" d="M8.72 14.2c-0.898 0.016-1.553-0.273-1.593-1.057-0.015-0.295-0.010-0.608 0.004-0.798 0.090-1.146 0.89-1.97 1.69-2.13 0.99-0.197 1.64 0.254 1.64 1.542 0 0.87-0.24 2.417-1.73 2.443zM7.964 0c-4.41 0-7.964 3.538-7.964 8.165 0 2.4 1.283 4.717 3.088 6.11 0.347 0.268 0.76 0.243 1 0.013 0.198-0.193 0.182-0.66-0.19-0.987-1.443-1.26-2.44-3.18-2.44-5.1 0-3.44 3.060-6.34 6.506-6.34 4.194 0 6.437 3.41 6.437 6.3 0 1.77-0.86 3.9-2.42 5.26 0.010 0 0.33-0.63 0.33-1.86 0-2.090-1.32-3.23-2.86-3.23-1.11 0-1.78 0.4-2.23 0.77 0-0.85 0.030-2.44 0.030-2.44 0-1.050-0.36-1.89-1.65-1.91-0.74-0.010-1.29 0.33-1.63 1.1-0.12 0.29-0.080 0.61 0.17 0.75 0.2 0.12 0.54 0.030 0.7-0.19 0.11-0.14 0.17-0.17 0.27-0.16 0.16 0.020 0.17 0.27 0.17 0.44 0.010 0.13 0.13 1.94 0.060 6.59-0.010 1.28 1 2.75 3.41 2.75 1.040 0 1.84-0.29 3-0.95 1.77-1 4.28-3.22 4.28-6.98-0.031-4.731-3.831-8.101-8.061-8.101z"></path>
</svg>
