<!-- Generated by IcoMoon.io -->
<svg version="1.1" xmlns="http://www.w3.org/2000/svg" width="16" height="16" viewBox="0 0 16 16">
<title>brand190</title>
<path fill="#e9443d" d="M7.506 15.994c-0.362-0.032-0.72-0.077-0.95-0.12-1.37-0.252-2.638-0.852-3.727-1.763-0.227-0.188-0.748-0.71-0.943-0.94-1.036-1.235-1.654-2.671-1.849-4.294-0.050-0.416-0.050-1.343 0-1.76 0.223-1.857 1.003-3.469 2.306-4.774 1.305-1.303 2.92-2.083 4.777-2.306 0.417-0.050 1.345-0.050 1.76 0 1.623 0.194 3.054 0.81 4.293 1.85 0.23 0.19 0.75 0.712 0.942 0.94 1.040 1.243 1.66 2.68 1.85 4.29 0.026 0.222 0.035 0.448 0.035 0.88 0 0.435-0.010 0.66-0.035 0.88-0.19 1.617-0.804 3.040-1.85 4.292-0.19 0.228-0.713 0.75-0.942 0.94-1.247 1.040-2.685 1.662-4.272 1.847-0.26 0.030-1.19 0.055-1.394 0.037zM6.21 14.037c0.37-0.064 0.76-0.22 1.080-0.433 0.182-0.122 0.577-0.51 0.69-0.68 0.225-0.334 0.373-0.754 0.4-1.13l0.006-0.070 0.307-0.013c1.222-0.054 2.268-0.415 3.174-1.093 1.076-0.806 1.732-1.855 1.922-3.075 0.050-0.315 0.050-1.007 0-1.32-0.155-0.988-0.628-1.88-1.38-2.603-0.898-0.863-1.99-1.373-3.263-1.525-0.36-0.043-1.066-0.043-1.433 0-0.935 0.11-1.744 0.4-2.472 0.884-1.198 0.796-1.936 1.88-2.155 3.16-0.064 0.374-0.073 0.852-0.066 3.32l0.008 2.423 0.045 0.198c0.242 1.080 1.164 1.864 2.336 1.99 0.198 0.020 0.582 0.005 0.8-0.033zM5.46 12.765c-0.598-0.096-1.050-0.51-1.12-1.020-0.013-0.108-0.018-0.966-0.013-2.69 0.007-2.477 0.010-2.534 0.050-2.747 0.058-0.302 0.143-0.553 0.282-0.83 0.16-0.325 0.34-0.568 0.63-0.862 0.702-0.703 1.53-1.1 2.563-1.227 0.253-0.032 0.914-0.032 1.157 0 0.103 0.012 0.297 0.045 0.432 0.072 1.26 0.254 2.393 1.136 2.86 2.23 0.275 0.644 0.3 1.498 0.068 2.197-0.28 0.838-0.995 1.615-1.908 2.070-0.367 0.185-0.74 0.305-1.215 0.393-0.207 0.040-0.314 0.043-1.192 0.052l-0.964 0.010v0.635c0 0.887-0.026 0.99-0.334 1.3-0.19 0.19-0.38 0.302-0.635 0.373-0.163 0.046-0.502 0.067-0.66 0.042zM8.835 7.983c0.894-0.247 1.23-1.167 0.66-1.798-0.42-0.465-1.127-0.595-1.702-0.313-0.35 0.172-0.59 0.44-0.672 0.756-0.023 0.090-0.030 0.25-0.030 0.763v0.65l0.797-0.007c0.735-0.007 0.808-0.010 0.947-0.050z"></path>
</svg>
