<!-- Generated by IcoMoon.io -->
<svg version="1.1" xmlns="http://www.w3.org/2000/svg" width="16" height="16" viewBox="0 0 16 16">
<title>brand266</title>
<path fill="#f22f46" d="M8 0c-0.003 0-0.006 0-0.010 0-4.413 0-7.99 3.577-7.99 7.99 0 0.004 0 0.007 0 0.011 0 4.426 3.573 7.999 8 7.999s8-3.573 8-8-3.573-8-8-8zM8 13.867c-0.005 0-0.011 0-0.017 0-3.231 0-5.85-2.619-5.85-5.85 0-0.006 0-0.012 0-0.018-0-0.004-0-0.010-0-0.016 0-3.231 2.619-5.85 5.85-5.85 0.006 0 0.012 0 0.018 0 0.004-0 0.010-0 0.016-0 3.231 0 5.85 2.619 5.85 5.85 0 0.006-0 0.012-0 0.018 0 0.004 0 0.010 0 0.016 0 3.231-2.619 5.85-5.85 5.85-0.006 0-0.012-0-0.018-0zM11.627 6.027c0 0.906-0.747 1.653-1.654 1.653-0.911-0.005-1.648-0.742-1.653-1.653 0-0.907 0.747-1.654 1.653-1.654s1.654 0.747 1.654 1.654zM11.627 9.973c0 0.907-0.747 1.654-1.654 1.654-0.911-0.005-1.648-0.743-1.653-1.654 0-0.906 0.747-1.653 1.653-1.653s1.654 0.747 1.654 1.653zM7.68 9.973c0 0.907-0.747 1.654-1.653 1.654-0.912-0.005-1.649-0.742-1.654-1.654 0-0.906 0.747-1.653 1.654-1.653 0.906 0 1.653 0.747 1.653 1.653zM7.68 6.027c0 0.906-0.747 1.653-1.653 1.653-0.911-0.005-1.649-0.742-1.654-1.653 0-0.907 0.747-1.654 1.654-1.654 0.906 0 1.653 0.747 1.653 1.654z"></path>
</svg>
