<!-- Generated by IcoMoon.io -->
<svg version="1.1" xmlns="http://www.w3.org/2000/svg" width="16" height="16" viewBox="0 0 16 16">
<title>brand285</title>
<path d="M8.044 8.748c-0.623 1.285-1.475 3.026-1.898 3.81-0.41 0.715-0.75 0.62-1.020 0.020-0.935-2.21-2.856-6.084-3.76-8.256-0.167-0.4-0.293-0.657-0.412-0.758-0.12-0.1-0.368-0.16-0.746-0.18-0.14-0.017-0.208-0.050-0.208-0.106v-0.303l0.034-0.030c0.615-0.003 3.594 0 3.594 0l0.034 0.030v0.288c0 0.080-0.050 0.118-0.15 0.118l-0.375 0.020c-0.322 0.020-0.483 0.11-0.483 0.29 0 0.090 0.034 0.22 0.11 0.4 0.72 1.76 3.206 7 3.206 7l0.090 0.030 1.604-3.2-0.32-0.71-1.104-2.171s-0.212-0.435-0.285-0.58c-0.484-0.96-0.473-1.010-0.963-1.076-0.137-0.016-0.208-0.033-0.208-0.1v-0.31l0.040-0.030h2.856l0.075 0.025v0.3c0 0.070-0.050 0.1-0.15 0.1l-0.205 0.031c-0.527 0.040-0.44 0.254-0.090 0.946l1.052 2.164 1.17-2.332c0.195-0.425 0.155-0.532 0.074-0.63-0.047-0.056-0.203-0.146-0.54-0.16l-0.134-0.014c-0.034 0-0.065-0.010-0.096-0.034-0.030-0.020-0.045-0.050-0.045-0.085v-0.285l0.040-0.030c0.83-0.005 2.69 0 2.69 0l0.040 0.030v0.29c0 0.080-0.040 0.118-0.13 0.118-0.43 0.020-0.52 0.063-0.68 0.292-0.080 0.124-0.25 0.392-0.43 0.692l-1.531 2.843-0.044 0.090 1.858 3.8 0.113 0.032 2.926-6.945c0.102-0.28 0.086-0.48-0.044-0.595s-0.23-0.182-0.57-0.196l-0.28-0.010c-0.040 0-0.070-0.010-0.1-0.030s-0.050-0.050-0.050-0.080v-0.29l0.040-0.030h3.3l0.030 0.030v0.29c0 0.080-0.050 0.12-0.14 0.12-0.43 0.020-0.75 0.12-0.96 0.28-0.21 0.17-0.37 0.41-0.49 0.71 0 0-2.69 6.16-3.61 8.21-0.35 0.67-0.7 0.61-1-0.020-0.38-0.78-1.18-2.52-1.76-3.8z"></path>
</svg>
