<!-- Generated by IcoMoon.io -->
<svg version="1.1" xmlns="http://www.w3.org/2000/svg" width="16" height="16" viewBox="0 0 16 16">
<title>brand281</title>
<path fill="#6383a8" d="M7.828 12.526h0.957s0.288-0.032 0.436-0.19c0.14-0.147 0.14-0.42 0.14-0.42s-0.020-1.284 0.58-1.473c0.59-0.187 1.34 1.24 2.14 1.788 0.61 0.42 1.070 0.33 1.070 0.33l2.14-0.030s1.12-0.070 0.59-0.95c-0.040-0.070-0.3-0.65-1.58-1.84-1.34-1.24-1.16-1.040 0.45-3.19 0.98-1.31 1.38-2.11 1.25-2.45-0.11-0.32-0.84-0.24-0.84-0.24l-2.4 0.020s-0.18-0.020-0.31 0.060-0.21 0.26-0.21 0.26-0.38 1.020-0.89 1.88c-1.081 1.819-1.511 1.919-1.681 1.799-0.403-0.26-0.3-1.053-0.3-1.62 0-1.76 0.27-2.5-0.52-2.69-0.26-0.060-0.454-0.1-1.123-0.11-0.86-0.010-1.585 0.006-1.996 0.207-0.27 0.135-0.48 0.434-0.36 0.45 0.16 0.020 0.52 0.098 0.71 0.358 0.25 0.337 0.24 1.090 0.24 1.090s0.14 2.077-0.33 2.335c-0.33 0.174-0.77-0.187-1.73-1.837-0.49-0.84-0.86-1.78-0.86-1.78s-0.070-0.17-0.2-0.27c-0.15-0.11-0.37-0.15-0.37-0.15l-2.29 0.020s-0.34 0.010-0.46 0.16c-0.11 0.13-0.010 0.41-0.010 0.41s1.79 4.19 3.82 6.3c1.86 1.935 3.97 1.81 3.97 1.81z"></path>
</svg>
