<!-- Generated by IcoMoon.io -->
<svg version="1.1" xmlns="http://www.w3.org/2000/svg" width="16" height="16" viewBox="0 0 16 16">
<title>brand62</title>
<path fill="#e53238" d="M4.037 8.073v-3.28h0.8v2.017c0.394-0.468 0.935-0.604 1.468-0.604 0.894 0 1.886 0.603 1.886 1.904 0 0.155-0.010 0.304-0.040 0.445 0.16-0.635 0.85-0.87 1.93-0.896 0.34-0.010 0.73-0.010 1.040-0.010v-0.090c0-0.59-0.37-0.83-1.020-0.83-0.48 0-0.83 0.2-0.87 0.54h-0.85c0.090-0.86 1-1.080 1.79-1.080 0.71 0 1.33 0.18 1.61 0.68l-0.29-0.56h0.94l1.37 2.75 1.37-2.75h0.829l-2.48 4.87h-0.897l0.713-1.36-1.553-2.92c0.086 0.17 0.134 0.37 0.134 0.62v1.64c0 0.23 0.007 0.46 0.027 0.67h-0.744c-0.020-0.17-0.030-0.34-0.030-0.51-0.402 0.49-0.88 0.64-1.547 0.64-0.987 0-1.515-0.52-1.515-1.13 0-0.1 0.010-0.19 0.025-0.27-0.2 0.83-0.907 1.39-1.843 1.39-0.58 0-1.13-0.21-1.467-0.62 0 0.16-0.010 0.33-0.027 0.49h-0.786c0.013-0.26 0.027-0.57 0.027-0.83v-0.7h-3.22c0.043 0.73 0.545 1.16 1.235 1.16 0.478 0 0.903-0.2 1.045-0.62h0.827c-0.16 0.86-1.074 1.15-1.86 1.15-1.43 0.011-2.064-0.779-2.064-1.839 0-1.17 0.655-1.94 2.077-1.94 1.126 0 1.953 0.59 1.96 1.87zM10.129 8.195c-0.73 0.023-1.18 0.155-1.18 0.633 0 0.31 0.24 0.647 0.87 0.647 0.84 0 1.29-0.46 1.29-1.21v-0.085c-0.3 0-0.66 0.004-0.99 0.015zM6.089 9.445c0.74 0 1.25-0.537 1.25-1.347s-0.51-1.345-1.26-1.345c-0.74 0-1.26 0.536-1.26 1.345 0 0.81 0.51 1.346 1.25 1.346zM3.189 7.768c-0.030-0.75-0.57-1.030-1.15-1.030-0.63 0-1.13 0.315-1.21 1.030h2.36z"></path>
</svg>
