<!-- Generated by IcoMoon.io -->
<svg version="1.1" xmlns="http://www.w3.org/2000/svg" width="16" height="16" viewBox="0 0 16 16">
<title>brand254</title>
<path fill="#c00" d="M8 3.575l1.65-2.018s2.83 0.060 5.647 1.37c-0.722 1.090-2.154 1.625-2.154 1.625-0.097-0.96-0.77-1.194-2.904-1.194l-2.239 12.642-2.254-12.644c-2.12 0-2.792 0.236-2.89 1.195 0 0-1.43-0.53-2.153-1.62 2.817-1.311 5.647-1.371 5.647-1.371l1.65 2.014-0.003 0.002h0.003v-0.002zM8 0.975c2.277-0.020 4.884 0.352 7.552 1.52 0.357-0.645 0.448-0.93 0.448-0.93-2.917-1.157-5.648-1.555-8-1.565-2.352 0.010-5.083 0.407-8 1.566 0 0 0.13 0.35 0.448 0.93 2.668-1.17 5.275-1.54 7.552-1.523z"></path>
</svg>
