<!-- Generated by IcoMoon.io -->
<svg version="1.1" xmlns="http://www.w3.org/2000/svg" width="16" height="16" viewBox="0 0 16 16">
<title>brand262</title>
<path fill="#0079bf" d="M2 0h12c1.104 0 2 0.895 2 2v12c0 1.104-0.895 2-2 2h-12c-1.104 0-2-0.895-2-2v-12c0-1.104 0.895-2 2-2zM10 2.080c-0.53 0-0.96 0.43-0.96 0.96v5.080c0 0.53 0.43 0.96 0.96 0.96h2.96c0.53 0 0.96-0.43 0.96-0.96v-5.080c0-0.53-0.43-0.96-0.96-0.96h-2.96zM3.040 2.080c-0.53 0-0.96 0.43-0.96 0.96v9.080c0 0.53 0.43 0.96 0.96 0.96h2.96c0.53 0 0.96-0.43 0.96-0.96v-9.080c0-0.53-0.43-0.96-0.96-0.96h-2.96z"></path>
</svg>
