<!-- Generated by IcoMoon.io -->
<svg version="1.1" xmlns="http://www.w3.org/2000/svg" width="16" height="16" viewBox="0 0 16 16">
<title>brand113</title>
<path fill="#e6b91e" d="M14.919 0h0.025c0.592 0.046 1.056 0.546 1.056 1.14v13.72c0 0.587-0.457 1.088-1.037 1.14h-13.896c-0.010 0-0.020 0-0.030-0.002-0.562-0.050-0.997-0.495-1.037-1.078v-13.856c0.040-0.568 0.495-1.024 1.080-1.064h13.84zM1.925 5.507v4.91h1.27v-4.91h-1.27zM9.525 10.417c0.302 0 0.533-0.020 0.682-0.050 0.154-0.032 0.28-0.090 0.38-0.177 0.104-0.080 0.176-0.2 0.217-0.348 0.040-0.15 0.068-0.443 0.068-0.88v-1.725c0-0.465-0.018-0.778-0.050-0.935-0.027-0.16-0.095-0.303-0.208-0.43-0.113-0.13-0.28-0.22-0.497-0.28-0.213-0.054-0.57-0.086-1.18-0.086h-0.95v4.91h1.537zM12.951 9.227c0 0.235-0.010 0.385-0.030 0.448s-0.12 0.095-0.2 0.095c-0.070 0-0.12-0.032-0.15-0.090-0.020-0.060-0.040-0.2-0.040-0.416v-1.298c0-0.222 0.020-0.362 0.040-0.416s0.070-0.080 0.15-0.080c0.080 0 0.18 0.026 0.21 0.094 0.030 0.063 0.040 0.2 0.040 0.402v1.26zM9.54 6.393c0.050 0.027 0.080 0.072 0.094 0.136 0.020 0.060 0.023 0.2 0.023 0.42v1.91c0 0.32-0.023 0.52-0.063 0.59s-0.154 0.11-0.335 0.11v-3.209c0.13 0 0.23 0.014 0.28 0.046zM5.9 5.507l-0.294 2.296-0.18-1.247c-0.055-0.403-0.105-0.75-0.154-1.050h-1.646v4.91h1.112l0.005-3.24 0.465 3.24h0.792l0.447-3.314v3.314h1.108v-4.91h-1.655zM11.302 5.507v4.91h1.144l0.077-0.313c0.104 0.126 0.217 0.222 0.344 0.285 0.12 0.050 0.307 0.090 0.452 0.090 0.2 0 0.37-0.050 0.52-0.16 0.14-0.11 0.23-0.23 0.27-0.38 0.030-0.15 0.060-0.36 0.060-0.66v-1.369c0-0.294-0.010-0.488-0.030-0.58-0.020-0.090-0.050-0.184-0.12-0.28-0.070-0.094-0.17-0.166-0.29-0.22-0.13-0.050-0.27-0.077-0.44-0.077-0.15 0-0.33 0.030-0.46 0.085-0.13 0.060-0.24 0.15-0.34 0.267v-1.6h-1.2z"></path>
</svg>
