<!-- Generated by IcoMoon.io -->
<svg version="1.1" xmlns="http://www.w3.org/2000/svg" width="16" height="16" viewBox="0 0 16 16">
<title>brand173</title>
<path fill="#f4731c" d="M9.67 11.626l2.31 2.31c0.472 0.47 0.472 1.237 0 1.71-0.473 0.472-1.24 0.472-1.71 0l-2.27-2.27-2.281 2.27c-0.23 0.236-0.54 0.354-0.85 0.354s-0.62-0.118-0.85-0.354c-0.48-0.473-0.48-1.24 0-1.71l2.31-2.31c-0.841-0.191-1.651-0.523-2.397-0.993-0.566-0.356-0.736-1.102-0.38-1.668 0.355-0.566 1.102-0.737 1.668-0.38 1.69 1.063 3.868 1.063 5.56 0 0.566-0.357 1.312-0.186 1.668 0.38 0.356 0.565 0.186 1.312-0.378 1.668-0.748 0.469-1.56 0.803-2.4 0.993zM8 8.258c-2.277 0-4.13-1.852-4.13-4.128 0-2.278 1.853-4.13 4.13-4.13s4.13 1.852 4.13 4.13c0 2.276-1.852 4.128-4.13 4.128zM8 2.42c-0.942 0-1.71 0.767-1.71 1.71 0 0.942 0.768 1.71 1.71 1.71s1.71-0.768 1.71-1.71c0-0.943-0.767-1.71-1.71-1.71z"></path>
</svg>
