<!-- Generated by IcoMoon.io -->
<svg version="1.1" xmlns="http://www.w3.org/2000/svg" width="16" height="16" viewBox="0 0 16 16">
<title>brand253</title>
<path fill="#12b7f5" d="M13.39 7.805c-0.042-0.605-0.157-1.33-0.468-1.758 0.3-3.824-2.3-6.086-4.924-6.047-2.624 0.043-5.223 2.223-4.923 6.047-0.31 0.428-0.427 1.15-0.466 1.758-0.77 1.18-1.62 2.98-0.673 4.717 0.482-0.21 0.87-0.666 0.997-1.23 0.367 0.9 0.903 1.753 1.625 2.41-1.035 0.202-1.77 0.69-1.745 1.222 0.030 0.656 1.203 1.137 2.617 1.070 1.177-0.057 2.15-0.47 2.427-0.988 0.030 0.004 0.253 0.004 0.283 0 0.276 0.52 1.25 0.934 2.427 0.988 1.414 0.064 2.587-0.414 2.617-1.070 0.024-0.533-0.71-1.020-1.744-1.22 0.723-0.66 1.26-1.51 1.625-2.41 0.127 0.564 0.514 1.020 0.996 1.23 0.943-1.736 0.094-3.537-0.674-4.717h-0.002v-0.002zM9.32 2.512c0.52 0.016 0.924 0.65 0.9 1.416-0.025 0.766-0.467 1.373-0.986 1.355s-0.92-0.648-0.897-1.416c0.023-0.765 0.466-1.37 0.983-1.355zM6.598 2.426c0.536-0.020 0.99 0.607 1.016 1.398s-0.39 1.445-0.925 1.46c-0.535 0.020-0.99-0.606-1.015-1.397-0.025-0.79 0.388-1.446 0.923-1.46zM4.94 6.164c0.070-0.31 1.917-0.686 3.058-0.69 1.143-0.007 2.988 0.382 3.060 0.69 0.046 0.227-0.966 1.012-1.604 1.266-0.615 0.24-0.753 0.582-1.455 0.582-0.7 0-0.84-0.34-1.453-0.582-0.64-0.254-1.652-1.040-1.607-1.266zM7.998 14.619c-2.435-0.007-4.84-1.93-3.783-5.724 0.146 0.080 0.303 0.152 0.468 0.225-0.034 0.476-0.137 2.020-0.093 2.265 0.050 0.295 1.62 0.516 1.76 0.412 0.124-0.090 0.11-1.605 0.093-2.146 0.502 0.095 1.028 0.147 1.555 0.147 1.413 0.002 2.82-0.387 3.783-0.9 1.060 3.792-1.346 5.73-3.782 5.722z"></path>
<path fill="#12b7f5" d="M6.915 3.182c-0.226 0.008-0.4 0.295-0.39 0.643 0.010 0.35 0.202 0.625 0.427 0.62 0.225-0.010 0.4-0.296 0.39-0.644s-0.202-0.624-0.427-0.618zM7.032 4.012c-0.084 0.004-0.157-0.107-0.16-0.25-0.006-0.143 0.058-0.258 0.143-0.26 0.085-0.004 0.157 0.11 0.162 0.25s-0.060 0.258-0.145 0.26zM9.618 4.195h-0.005c-0.057-0.002-0.102-0.050-0.1-0.105 0.006-0.1-0.012-0.377-0.138-0.51-0.047-0.050-0.104-0.072-0.178-0.072-0.342 0-0.35 0.502-0.352 0.523 0 0.060-0.043 0.105-0.104 0.105s-0.1-0.050-0.1-0.106c0-0.253 0.118-0.73 0.558-0.73 0.13 0 0.238 0.047 0.326 0.137 0.213 0.223 0.197 0.645 0.195 0.66 0 0.053-0.045 0.096-0.102 0.098zM7.998 7.666c0.132 0.004 0.2-0.008 0.298-0.025 0.25-0.048 0.504-0.286 0.744-0.42 0.517-0.32 0.612-0.26 1.43-0.987-0.552 0.447-1.070 0.685-1.607 0.843-0.147 0.043-0.497 0.070-0.864 0.072-0.367 0.006-0.717-0.030-0.863-0.072-0.538-0.158-1.056-0.394-1.606-0.844 0.817 0.727 0.914 0.666 1.43 0.986 0.24 0.135 0.494 0.375 0.744 0.422 0.095 0.018 0.165 0.022 0.294 0.026z"></path>
</svg>
