<!-- Generated by IcoMoon.io -->
<svg version="1.1" xmlns="http://www.w3.org/2000/svg" width="16" height="16" viewBox="0 0 16 16">
<title>brand127</title>
<path fill="#20beff" d="M12.55 15.906c-0.015 0.062-0.078 0.094-0.187 0.094h-2.093c-0.124 0-0.234-0.055-0.328-0.165l-3.452-4.393-0.965 0.916v3.407c0 0.157-0.078 0.235-0.235 0.235h-1.62c-0.158 0-0.236-0.078-0.236-0.235v-15.53c0-0.155 0.078-0.235 0.236-0.235h1.62c0.157 0 0.235 0.080 0.235 0.235v9.562l4.135-4.182c0.11-0.11 0.22-0.164 0.33-0.164h2.16c0.095 0 0.157 0.040 0.19 0.12 0.030 0.1 0.023 0.17-0.024 0.21l-4.37 4.23 4.557 5.67c0.063 0.070 0.078 0.14 0.047 0.24z"></path>
</svg>
