<!-- Generated by IcoMoon.io -->
<svg version="1.1" xmlns="http://www.w3.org/2000/svg" width="16" height="16" viewBox="0 0 16 16">
<title>brand97</title>
<path fill="#005ea5" d="M1.597 8.686c0.174-0.425-0.026-0.914-0.453-1.090-0.42-0.173-0.906 0.033-1.080 0.458-0.176 0.423 0.026 0.907 0.445 1.080 0.42 0.177 0.91-0.025 1.080-0.448zM2.159 6.528c0.17-0.423-0.030-0.912-0.46-1.090-0.42-0.172-0.91 0.035-1.090 0.457-0.18 0.424 0.020 0.91 0.44 1.083 0.43 0.177 0.91-0.026 1.090-0.45zM2.949 5.8c0.43 0.175 0.91-0.027 1.090-0.45 0.17-0.424-0.030-0.914-0.45-1.090-0.42-0.173-0.91 0.033-1.090 0.456-0.18 0.425 0.030 0.91 0.45 1.083zM5.049 6.499c0.43 0.17 0.91-0.030 1.090-0.45 0.17-0.43-0.030-0.92-0.46-1.090-0.42-0.18-0.91 0.030-1.080 0.45-0.18 0.42 0.030 0.91 0.45 1.080zM14.369 8.669c0.18 0.42 0.66 0.62 1.090 0.44 0.42-0.18 0.62-0.66 0.44-1.090s-0.67-0.63-1.090-0.45c-0.43 0.17-0.63 0.66-0.45 1.090zM14.859 6.949c0.42-0.17 0.62-0.66 0.45-1.090-0.18-0.42-0.67-0.63-1.090-0.45-0.43 0.18-0.63 0.66-0.45 1.090 0.17 0.42 0.66 0.62 1.080 0.45zM13 5.8c0.42-0.173 0.62-0.66 0.447-1.085-0.18-0.43-0.666-0.63-1.090-0.456-0.42 0.18-0.623 0.66-0.446 1.090 0.18 0.42 0.67 0.62 1.090 0.45zM10.731 6.369c0.42-0.18 0.62-0.67 0.45-1.090-0.18-0.43-0.66-0.63-1.090-0.46-0.42 0.18-0.62 0.67-0.44 1.090s0.66 0.62 1.090 0.44zM6.27 3.3l0.062 1.596 1.165-0.614c0.024 0.026 0.053 0.052 0.080 0.072-0.12 0.477-0.413 1.273-0.595 1.713-0.223 0.54 0.033 1.16 0.573 1.382 0.54 0.22 1.162-0.040 1.386-0.58 0.16-0.38 0.080-0.79-0.16-1.080-0.26-0.45-0.52-1.020-0.66-1.46 0.040-0.030 0.070-0.070 0.1-0.1l1.26 0.65 0.060-1.59-1.31 0.42c-0.010-0.020-0.020-0.040-0.030-0.050l0.51-1.45-1.55-0.050 0.47 1.43c-0.040 0.020-0.070 0.050-0.1 0.090l-1.261-0.379zM14.184 9.36c0.106 0.587 0.124 0.854-0.010 1.236-0.19-0.19-0.36-0.536-0.498-1.060l-0.58 1.856c0.345-0.23 0.608-0.376 0.907-0.38-0.542 1.14-1.21 1.428-1.637 1.345-0.523-0.105-0.765-0.577-0.673-0.975 0.116-0.56 0.7-0.7 0.963-0.045 0.528-1.042-0.345-1.382-0.91-1.080 0.874-0.852 0.976-1.614 0.284-2.552-0.974 0.736-0.992 1.47-0.566 2.51-0.56-0.656-1.45-0.31-1.14 0.74 0.417-0.632 0.953-0.23 0.864 0.376-0.073 0.53-0.774 0.94-1.637 0.86-1.24-0.11-1.3-0.97-1.32-1.68 0.3-0.050 0.85 0.24 1.32 0.9l0.19-1.97c-0.51 0.52-0.98 0.63-1.49 0.64 0.18-0.52 0.97-1.39 0.97-1.39l-2.48-0.030s0.79 0.88 0.96 1.41c-0.51-0.010-0.97-0.11-1.48-0.64l0.17 1.97c0.47-0.66 1.020-0.94 1.32-0.89-0.030 0.7-0.1 1.56-1.34 1.67-0.86 0.070-1.56-0.35-1.63-0.88-0.080-0.6 0.46-1 0.87-0.36 0.32-1.050-0.57-1.4-1.13-0.75 0.44-1.040 0.43-1.78-0.54-2.52-0.7 0.93-0.6 1.69 0.27 2.56-0.56-0.31-1.44 0.020-0.92 1.070 0.27-0.66 0.85-0.51 0.97 0.050 0.080 0.4-0.16 0.87-0.68 0.97-0.43 0.080-1.090-0.21-1.63-1.36 0.3 0.010 0.56 0.16 0.9 0.39l-0.571-1.851c-0.14 0.52-0.32 0.862-0.51 1.050-0.123-0.38-0.11-0.65 0.010-1.237l-1.2 0.408c0.614 0.84 1.236 2.010 1.723 4.060 1.514-0.25 4.096-0.4 5.66-0.4 1.56 0.010 4.143 0.19 5.65 0.46 0.51-2.050 1.14-3.21 1.76-4.040l-1.18-0.43z"></path>
</svg>
