<!-- Generated by IcoMoon.io -->
<svg version="1.1" xmlns="http://www.w3.org/2000/svg" width="16" height="16" viewBox="0 0 16 16">
<title>brand70</title>
<path fill="#fa4b32" d="M7.226 15.963c-4.053-0.39-7.226-3.81-7.226-7.963 0-4.415 3.585-8 8-8s8 3.585 8 8c0 4.154-3.173 7.573-7.226 7.963v-4.698c1.48-0.35 2.58-1.68 2.58-3.265 0-1.852-1.502-3.355-3.354-3.355s-3.355 1.503-3.355 3.355c0 1.585 1.102 2.915 2.58 3.265v4.698zM6.968 6.193c0.427 0 0.774 0.347 0.774 0.775 0 0.427-0.347 0.774-0.774 0.774-0.428 0-0.774-0.347-0.774-0.774 0-0.428 0.346-0.774 0.774-0.774z"></path>
</svg>
