<!-- Generated by IcoMoon.io -->
<svg version="1.1" xmlns="http://www.w3.org/2000/svg" width="16" height="16" viewBox="0 0 16 16">
<title>brand9</title>
<path fill="#999" d="M8.112 4.59c0.54 0 1.544-0.743 2.85-0.743 2.25 0 3.135 1.6 3.135 1.6s-1.73 0.885-1.73 3.032c0 2.42 2.155 3.25 2.155 3.25s-1.507 4.24-3.542 4.24c-0.935 0-1.662-0.63-2.647-0.63-1.004 0-2 0.65-2.648 0.65-1.86 0-4.207-4.030-4.207-7.26 0-3.19 1.988-4.85 3.852-4.85 1.21 0 2.152 0.69 2.782 0.69zM8.675 1.392c1.050-1.385 2.513-1.392 2.513-1.392s0.217 1.303-0.827 2.558c-1.11 1.34-2.38 1.12-2.38 1.12s-0.24-1.054 0.7-2.286z"></path>
</svg>
