<!-- Generated by IcoMoon.io -->
<svg version="1.1" xmlns="http://www.w3.org/2000/svg" width="16" height="16" viewBox="0 0 16 16">
<title>brand284</title>
<path fill="#25d366" d="M11.665 9.588c-0.2-0.1-1.177-0.578-1.36-0.644s-0.315-0.1-0.448 0.1c-0.132 0.197-0.514 0.643-0.63 0.775-0.116 0.13-0.232 0.14-0.43 0.050-0.2-0.1-0.842-0.31-1.602-0.99-0.592-0.53-0.99-1.18-1.107-1.38-0.116-0.2-0.013-0.31 0.087-0.41 0.090-0.090 0.2-0.23 0.3-0.35 0.098-0.12 0.13-0.2 0.198-0.33 0.066-0.14 0.033-0.25-0.017-0.35s-0.448-1.080-0.614-1.47c-0.16-0.39-0.325-0.34-0.448-0.34-0.115-0.010-0.248-0.010-0.38-0.010-0.134 0-0.35 0.050-0.532 0.24-0.182 0.2-0.696 0.68-0.696 1.65s0.713 1.91 0.812 2.050c0.1 0.13 1.404 2.13 3.4 2.99 0.476 0.2 0.846 0.32 1.136 0.42 0.476 0.15 0.91 0.13 1.253 0.080 0.383-0.060 1.178-0.48 1.344-0.95 0.17-0.47 0.17-0.86 0.12-0.95s-0.18-0.14-0.38-0.23zM8.040 14.5h-0.010c-1.18 0-2.35-0.32-3.37-0.92l-0.24-0.143-2.5 0.65 0.67-2.43-0.16-0.25c-0.66-1.050-1.010-2.26-1.010-3.506 0-3.63 2.97-6.59 6.628-6.59 1.77 0 3.43 0.69 4.68 1.94 1.25 1.24 1.94 2.9 1.94 4.66-0.003 3.63-2.973 6.59-6.623 6.59zM13.68 2.3c-1.52-1.47-3.52-2.3-5.65-2.3-4.388 0-7.96 3.556-7.963 7.928 0 1.397 0.366 2.76 1.063 3.964l-1.13 4.108 4.223-1.102c1.164 0.63 2.474 0.964 3.807 0.965h0.004c4.39 0 7.964-3.557 7.966-7.93 0-2.117-0.827-4.11-2.33-5.608z"></path>
</svg>
