<!-- Generated by IcoMoon.io -->
<svg version="1.1" xmlns="http://www.w3.org/2000/svg" width="16" height="16" viewBox="0 0 16 16">
<title>brand212</title>
<path fill="#0089cf" d="M14.15 2.76l-0.003 2.22h-7.067c-0.146 0-0.265 0.12-0.265 0.266 0 0.147 0.12 0.266 0.265 0.266l1.84-0.010c2.897 0 5.245 2.35 5.245 5.246 0 2.898-2.348 5.246-5.246 5.246l-7.089 0.006 0.003-2.25h7.090c1.658 0 3.003-1.344 3.003-3.003s-1.345-3.004-3.004-3.004l-1.848-0.020c-1.373 0-2.484-1.11-2.484-2.48 0-1.373 1.11-2.483 2.482-2.483h7.070zM1.84 13.228l-0.003-2.22h7.073c0.14 0 0.255-0.117 0.255-0.258 0-0.142-0.115-0.257-0.256-0.257h-1.829c-2.897 0-5.245-2.35-5.245-5.247s2.348-5.246 5.245-5.246l7.067 0.002 0.004 2.233-7.070 0.003c-1.66 0-3 1.345-3 3.004 0 1.66 1.35 3.003 3.010 3.003l1.85 0.020c1.37 0 2.48 1.112 2.48 2.482s-1.11 2.48-2.48 2.48h-7.1z"></path>
</svg>
