<!-- Generated by IcoMoon.io -->
<svg version="1.1" xmlns="http://www.w3.org/2000/svg" width="16" height="16" viewBox="0 0 16 16">
<title>brand26</title>
<path fill="#563d7c" d="M13.333 0h-10.666c-1.471 0.005-2.662 1.196-2.667 2.667v10.666c0 1.467 1.2 2.667 2.667 2.667h10.666c1.467 0 2.667-1.2 2.667-2.667v-10.666c0-1.467-1.2-2.667-2.667-2.667zM11.875 11.237c-0.138 0.33-0.348 0.607-0.611 0.82-0.284 0.233-0.639 0.416-1.076 0.553-0.436 0.135-0.954 0.203-1.555 0.203h-4.288v-9.336h4.535c0.838 0 1.51 0.19 2.014 0.575 0.505 0.385 0.758 0.962 0.758 1.74 0 0.47-0.115 0.872-0.345 1.207-0.23 0.33-0.56 0.59-0.988 0.77v0.030c0.57 0.12 1.010 0.39 1.3 0.81s0.44 0.95 0.44 1.59c0 0.36-0.070 0.7-0.2 1.020zM10.025 8.937c-0.273-0.25-0.658-0.372-1.154-0.372h-2.881v2.912h2.89c0.495 0 0.882-0.128 1.154-0.387 0.275-0.256 0.413-0.622 0.413-1.093-0.002-0.46-0.14-0.815-0.413-1.060zM9.625 7.054c0.263-0.223 0.393-0.544 0.393-0.962 0-0.47-0.117-0.803-0.353-0.994s-0.575-0.288-1.020-0.288h-2.665v2.576h2.666c0.392 0 0.72-0.113 0.98-0.332z"></path>
</svg>
