<!-- Generated by IcoMoon.io -->
<svg version="1.1" xmlns="http://www.w3.org/2000/svg" width="16" height="16" viewBox="0 0 16 16">
<title>brand43</title>
<path fill="#757575" d="M15.996 7.87c-0.003-0.063-0.007-0.124-0.012-0.186v-0.004c-0.060-0.675-0.283-1.306-0.66-1.877-0.17-0.254-0.363-0.485-0.58-0.692-0.314-0.3-0.68-0.55-1.090-0.75-0.62-0.29-1.305-0.44-2.036-0.44-0.070 0-0.146 0-0.22 0.010-0.514 0.030-1.010 0.12-1.477 0.29-0.47 0.17-0.88 0.4-1.21 0.67-0.070 0.060-0.14 0.12-0.22 0.2l-0.060 0.060-0.070 0.090-0.030 0.040-0.020 0.020-0.090 0.1c-0.070 0.080-0.13 0.16-0.19 0.23h-0.031c-0.128 0.16-0.247 0.32-0.334 0.46-0.060 0.090-0.117 0.19-0.172 0.29l-0.764 1.5h0.002l-0.040 0.080-0.084 0.17c-0.168 0.34-0.347 0.68-0.548 0.96-0.448 0.49-0.954 0.73-1.604 0.73h-0.14c-0.39-0.010-0.727-0.11-1.026-0.28l-0.092-0.060c-0.244-0.16-0.43-0.36-0.57-0.62-0.158-0.3-0.228-0.6-0.218-0.92l0.007-0.020c0.020-0.51 0.214-0.9 0.603-1.24 0.094-0.080 0.193-0.15 0.296-0.21 0.015-0.010 0.030-0.010 0.044-0.020 0.29-0.15 0.617-0.23 0.994-0.23l0.118 0.010c0.6 0.020 1.063 0.21 1.43 0.57l1.153-2.1c-0.277-0.18-0.59-0.34-0.933-0.47l-0.040-0.010c-0.040-0.010-0.080-0.030-0.12-0.040-0.367-0.12-0.75-0.19-1.145-0.23h-0.030l-0.187-0.031c-0.067-0.004-0.133-0.005-0.198-0.005h-0.037c-0.727 0.002-1.402 0.15-2.020 0.446-0.69 0.34-1.252 0.82-1.668 1.45-0.414 0.63-0.64 1.32-0.673 2.070-0.002 0.059-0.004 0.119-0.004 0.189 0 1.040 0.38 1.96 1.135 2.73 0.788 0.8 1.813 1.24 3.045 1.29h0.234c0.697 0 1.34-0.13 1.92-0.377 0.144-0.060 0.284-0.13 0.427-0.212 0.080-0.040 0.16-0.090 0.23-0.14l0.060-0.030 0.090-0.060c0.11-0.070 0.22-0.16 0.32-0.25l0.040-0.030c0.060-0.050 0.12-0.11 0.18-0.17l0.21-0.23 0.080-0.1 0.030-0.060 0.040-0.050c0.31-0.52 1.31-2.4 1.31-2.4v-0.010l0.060-0.11 0.050-0.090c0.15-0.27 0.26-0.46 0.4-0.66v-0.011c0.33-0.48 0.9-0.82 1.57-0.877 1.12-0.1 2.11 0.64 2.2 1.64 0.090 1.004-0.75 1.896-1.87 1.993-0.23 0.020-0.46 0-0.67-0.040-0.82-0.17-1.34-0.77-1.6-1.040l-1.080 1.98s0.34 0.335 0.57 0.504c0.23 0.17 0.53 0.332 0.77 0.435 0.57 0.245 1.2 0.392 1.89 0.392 0.080 0 0.060 0 0.15-0.006 1.23-0.050 2.33-0.52 3.12-1.33 0.75-0.77 1.16-1.64 1.16-2.68v-0.2z"></path>
</svg>
