<!-- Generated by IcoMoon.io -->
<svg version="1.1" xmlns="http://www.w3.org/2000/svg" width="16" height="16" viewBox="0 0 16 16">
<title>brand208</title>
<path fill="#2dc9d7" d="M1.661 2.569c0.050 0.090 0.23 0.24 0.3 0.55 0.030 0.14 0.11 0.31 0.25 0.51 0 0 1 1.080 1.4 1.81 0.37 0.74 0.46 0.97 0.51 1.11 0 0.020-0.37-0.43-0.8-0.74-1.65 1.88-2.85 4.13-3.2 6.57-0.37 2.5 1 3.16 2.020 3.13 0.82 0 2.53-0.88 3.44-3.070 0.88-2.13 0.74-4.58-0.15-6.71 0.85-0.86 2.42-1.88 3.95-1.85 1.14 0 1.71 0.99 1.79 1.080 0.88 1.59-0.15 3.020-0.15 3.020-0.57 0.86-1.56 1.26-2.080 1.4-0.39 0.11-1.13 0.080-1.31 0-0.11-0.030-0.14-0.090-0.14-0.17 0-0.12 0.090-0.17 0.17-0.17 0.11 0 0.17 0.080 0.17 0.17v0.090c0.29 0.080 0.85 0.020 1.080 0-0.18-0.427-0.57-0.655-1.090-0.655-0.69 0-1.23 0.541-1.23 1.223 0 0.513 0.29 0.94 0.71 1.11 0.22 0.086 0.88 0.171 1.7 0.086 1.252-0.171 2.162-0.74 3.012-1.708 0.996-1.166 1.282-2.73 0.882-4.21-0.398-1.422-1.535-2.532-3.015-2.732-1.83-0.283-3.73 0.597-5.071 1.795-0.030 0.027-0.11 0.084-0.14 0.14-0.14-0.255-0.32-0.51-0.51-0.71-0.256-0.37-0.824-0.968-0.854-0.996-0.113-0.142-0.313-0.171-0.425-0.227-0.35-0.075-0.59-0.194-0.74-0.28-0.008-0.011-0.018-0.022-0.030-0.035l-1.45-1.535c-0.143-0.115-0.314-0.142-0.456 0-0.114 0.142-0.142 0.313 0 0.455l1.436 1.55zM14.832 11.020l0.537-1.976c0.020-0.17 0.22-0.257 0.39-0.228s0.25 0.228 0.23 0.398l-0.54 2.050c0 0.084-0.090 0.37 0.020 0.824 0.050 0.17 0.030 0.34 0.050 0.34v0.030c-0.020 0.025-0.020 0.050-0.030 0.074l-0.010 0.022-0.030 0.074c-0.34 0.882-0.86 1.565-1.65 2.106-1.37 0.882-3.36 0.882-4.64 0-1.11-0.74-1.74-2.305-1.85-3.614 0.37 0.17 1.28 0.37 1.73 0.285 0.030 0.2 0.45 2.56 2.56 2.475 1.79-0.085 2.36-1.878 2.44-1.963 0 0 0.080-0.17 0.25-0.313 0.22-0.17 0.37-0.398 0.45-0.54 0.010-0.017 0.020-0.032 0.030-0.043zM4.472 10.78c-0.57 2.503-2.162 3.385-2.59 3.242-0.426-0.142-0.568-1.394 0.285-3.5 0.143-0.312 0.996-2.275 2.106-3.5-0.030 0.058 0.626 1.908 0.2 3.757z"></path>
</svg>
