<!-- Generated by IcoMoon.io -->
<svg version="1.1" xmlns="http://www.w3.org/2000/svg" width="16" height="16" viewBox="0 0 16 16">
<title>brand77</title>
<path fill="#060" d="M16 8.212c0 1.668-0.57 3.15-1.735 4.46-0.423 0.486-0.762 0.718-0.994 0.718-0.080 0-0.17-0.022-0.23-0.084-0.060-0.063-0.1-0.148-0.1-0.232 0-0.126 0.15-0.317 0.45-0.593 1.21-1.16 1.82-2.6 1.82-4.31 0-1.9-0.63-3.44-1.88-4.63-0.25-0.23-0.38-0.42-0.38-0.57 0-0.080 0.040-0.17 0.11-0.23s0.15-0.1 0.23-0.1c0.28 0 0.7 0.34 1.23 1.020 1 1.27 1.5 2.8 1.5 4.57zM0 7.788c0-1.668 0.57-3.15 1.735-4.46 0.423-0.486 0.762-0.718 0.994-0.718 0.080 0 0.17 0.022 0.23 0.084s0.1 0.126 0.1 0.21c0 0.125-0.15 0.317-0.45 0.612-1.189 1.164-1.809 2.6-1.809 4.314 0 1.9 0.634 3.443 1.883 4.63 0.254 0.23 0.38 0.422 0.38 0.57 0 0.084-0.040 0.17-0.107 0.232-0.066 0.062-0.15 0.106-0.235 0.106-0.29 0-0.69-0.34-1.22-1.013-1.011-1.248-1.501-2.77-1.501-4.567zM11.816 12.374h-7.333c-0.233 0-0.446-0.192-0.446-0.446s0.19-0.445 0.446-0.445h7.333c0.232 0 0.446 0.19 0.446 0.445-0.004 0.258-0.192 0.446-0.446 0.446zM7.81 6.42c0.132-0.017 0.23 0.41 0.242 0.5 0.030 0.235-0.048 0.463-0.155 0.67-0.398 0.776-1.32 1.403-1.076 2.386 0.11 0.424 0.33 0.718 1.010 1.080-0.23 0.080-0.55-0.074-0.73-0.2-0.8-0.545-1.31-1.44-1.26-2.416 0.020-0.31 0.080-0.615 0.16-0.913 0.25-0.855 0.76-1.603 1.060-2.435 0.15-0.4 0.26-0.884 0.14-1.304-0.060-0.206-0.17-0.4-0.31-0.567-0.040-0.050-0.27-0.31-0.36-0.28 0.4-0.15 0.76-0.010 1.11 0.2 0.27 0.16 0.48 0.39 0.64 0.65 0.3 0.48 0.42 1.030 0.48 1.59 0.020 0.23-0.010 0.79 0.26 0.9 0.28 0.12 0.5-0.35 0.56-0.54 0.13-0.43-0.040-0.84-0.21-1.24 0.040 0.080 0.19 0.17 0.26 0.23l0.24 0.23c0.29 0.3 0.47 0.67 0.59 1.070 0.11 0.36 0.16 0.73 0.18 1.090 0.050 0.75-0.12 1.52-0.42 2.21-0.13 0.31-0.3 0.6-0.52 0.85-0.213 0.25-0.5 0.41-0.73 0.64 0.54-0.54 0.827-1.42 0.75-2.090-0.040-0.37-0.16-0.71-0.44-1.050 0 0 0.030 0.24 0.058 0.39 0.050 0.33-0.17 0.68-0.43 0.64-0.19-0.020-0.090-0.43-0.070-0.56 0.070-0.39-0.020-0.77-0.163-1.13-0.14-0.34-0.4-0.61-0.8-0.55z"></path>
</svg>
