<!-- Generated by IcoMoon.io -->
<svg version="1.1" xmlns="http://www.w3.org/2000/svg" width="16" height="16" viewBox="0 0 16 16">
<title>brand203</title>
<path fill="#8ca1af" d="M1.837 15.955l0.443-0.095c0.138-0.030 0.275-0.057 0.413-0.084 0.212-0.042 0.424-0.083 0.637-0.122 0.16-0.030 0.32-0.057 0.48-0.085l0.037-0.010c0.166-0.030 0.332-0.060 0.498-0.080l0.81-0.12v-15.409h-0.028c-0.42 0.002-0.837 0.010-1.256 0.024-0.46 0.012-0.93 0.040-1.39 0.070-0.2 0.014-0.4 0.030-0.6 0.047h-0.030v15.86zM5.94-0.040v15.3c0.574-0.066 1.147-0.122 1.722-0.165 1.414-0.107 2.833-0.14 4.25-0.1 0.752 0.022 1.502 0.065 2.25 0.128v-14.17c-0.67-0.153-1.342-0.288-2.020-0.405-1.312-0.228-2.637-0.388-3.965-0.488-0.744-0.054-1.49-0.088-2.236-0.1zM13.117 9.828l-0.030-0.003-0.374-0.040c-0.933-0.097-1.87-0.162-2.806-0.194-0.938-0.030-1.877-0.020-2.815 0.010h-0.030c-0.030 0-0.060 0-0.090-0.010-0.067-0.020-0.13-0.050-0.178-0.1-0.084-0.090-0.123-0.21-0.104-0.33 0.006-0.040 0.020-0.070 0.036-0.11 0.018-0.030 0.042-0.070 0.070-0.090 0.028-0.030 0.060-0.050 0.095-0.070 0.040-0.020 0.080-0.030 0.12-0.040h0.060c0.13 0 0.26-0.010 0.38-0.010 0.93-0.020 1.85-0.020 2.78 0.020 0.96 0.040 1.91 0.11 2.86 0.22l0.1 0.010c0.030 0.010 0.060 0.010 0.090 0.020 0.070 0.030 0.13 0.070 0.17 0.12 0.030 0.030 0.050 0.070 0.070 0.11s0.030 0.080 0.030 0.12c0.010 0.11-0.030 0.22-0.11 0.3-0.030 0.030-0.060 0.050-0.090 0.070s-0.070 0.030-0.11 0.040c-0.020 0.010-0.030 0.010-0.060 0.010h-0.030zM13.141 8.020c-0.030 0-0.030 0-0.060-0.004l-0.37-0.047c-0.93-0.12-1.87-0.2-2.8-0.24-0.93-0.050-1.87-0.060-2.81-0.040l-0.030-0.010c-0.030-0.010-0.060-0.010-0.090-0.020-0.060-0.020-0.13-0.060-0.17-0.11-0.020-0.030-0.050-0.070-0.060-0.1-0.050-0.11-0.050-0.24 0.010-0.35 0.020-0.040 0.040-0.070 0.070-0.1s0.060-0.060 0.1-0.070c0.040-0.020 0.080-0.040 0.12-0.040l0.060-0.010 0.39-0.010c0.93-0.010 1.85 0.010 2.77 0.060 0.96 0.050 1.91 0.14 2.86 0.26l0.1 0.010 0.060 0.010c0.070 0.020 0.13 0.050 0.18 0.11 0.080 0.080 0.12 0.19 0.11 0.3 0 0.040-0.010 0.080-0.030 0.11-0.020 0.040-0.040 0.070-0.060 0.1s-0.050 0.050-0.090 0.080c-0.030 0.020-0.070 0.030-0.11 0.040l-0.060 0.010h-0.030zM13.141 6.212c-0.030 0-0.030 0-0.060-0.004l-0.37-0.053c-0.93-0.127-1.86-0.223-2.8-0.285-0.93-0.062-1.87-0.090-2.81-0.087h-0.030l-0.060-0.010c-0.040-0.010-0.070-0.024-0.11-0.045-0.1-0.062-0.17-0.17-0.19-0.292 0-0.040 0-0.080 0.010-0.12s0.020-0.078 0.040-0.113c0.020-0.036 0.050-0.068 0.080-0.096 0.050-0.050 0.12-0.084 0.19-0.1 0.030-0.007 0.060-0.010 0.090-0.010h0.38c0.96 0.006 1.92 0.043 2.87 0.115 0.93 0.070 1.85 0.173 2.77 0.304l0.1 0.014c0.030 0.005 0.040 0.005 0.060 0.013 0.040 0.012 0.080 0.030 0.11 0.053 0.040 0.022 0.070 0.050 0.090 0.082s0.040 0.067 0.060 0.105c0.040 0.104 0.030 0.223-0.020 0.32-0.020 0.036-0.040 0.070-0.070 0.097-0.050 0.050-0.11 0.085-0.18 0.1-0.020 0.008-0.030 0.008-0.060 0.010l-0.030 0.002zM13.141 4.404c-0.030 0-0.030 0-0.060-0.005l-0.37-0.060c-0.93-0.15-1.86-0.26-2.8-0.33-0.93-0.080-1.87-0.12-2.81-0.14h-0.030l-0.071-0.009c-0.040-0.010-0.077-0.030-0.11-0.050-0.035-0.020-0.066-0.050-0.093-0.080-0.024-0.030-0.046-0.070-0.062-0.1-0.014-0.040-0.025-0.080-0.030-0.12-0.010-0.12 0.035-0.248 0.12-0.33 0.050-0.050 0.118-0.084 0.187-0.1 0.030-0.010 0.060-0.010 0.090-0.010 0.126 0 0.253 0.003 0.38 0.005 0.958 0.023 1.915 0.076 2.87 0.164 0.925 0.080 1.847 0.2 2.764 0.35l0.090 0.010c0.027 0 0.034 0 0.060 0.010 0.040 0.010 0.075 0.030 0.11 0.050 0.030 0.020 0.060 0.050 0.083 0.080 0.060 0.090 0.090 0.2 0.070 0.31-0.010 0.040-0.020 0.070-0.040 0.11-0.020 0.030-0.050 0.070-0.080 0.090-0.050 0.050-0.11 0.080-0.18 0.1h-0.090zM2.691 4.064c-0.060 0-0.12-0.013-0.18-0.042-0.13-0.063-0.21-0.195-0.22-0.337 0-0.037 0.010-0.074 0.020-0.11 0.010-0.045 0.030-0.088 0.060-0.127 0.030-0.043 0.070-0.080 0.11-0.108 0.050-0.032 0.11-0.050 0.16-0.060l0.32-0.030c0.44-0.038 0.87-0.070 1.3-0.095h0.040c0.070 0.002 0.13 0.016 0.18 0.047 0.13 0.068 0.21 0.203 0.21 0.345 0 0.037-0.010 0.073-0.020 0.108-0.010 0.045-0.030 0.088-0.060 0.126-0.030 0.050-0.070 0.080-0.11 0.11-0.050 0.030-0.1 0.050-0.16 0.060-0.070 0.010-0.14 0.010-0.21 0.020-0.090 0.010-0.19 0.010-0.29 0.020l-0.78 0.060-0.19 0.020c-0.040 0.010-0.080 0.010-0.13 0.010zM13.131 2.596l-0.060-0.006-0.37-0.066c-0.93-0.157-1.87-0.284-2.81-0.377-0.93-0.092-1.87-0.15-2.81-0.18h-0.030l-0.060-0.012c-0.040-0.010-0.070-0.026-0.11-0.048-0.030-0.020-0.060-0.048-0.090-0.080-0.080-0.092-0.11-0.22-0.080-0.338 0.010-0.040 0.030-0.080 0.050-0.12s0.050-0.070 0.080-0.1c0.050-0.050 0.12-0.080 0.19-0.1 0.030-0.010 0.060-0.010 0.090-0.010l0.39 0.010c0.93 0.040 1.85 0.1 2.77 0.2 0.96 0.1 1.91 0.24 2.86 0.4l0.1 0.010c0.030 0 0.040 0 0.060 0.010 0.040 0.010 0.080 0.030 0.11 0.050 0.090 0.070 0.15 0.17 0.16 0.28 0.010 0.040 0 0.080-0.010 0.12 0 0.040-0.020 0.080-0.040 0.11s-0.040 0.060-0.070 0.090c-0.050 0.050-0.12 0.080-0.19 0.090l-0.060 0.010h-0.030zM2.68 2.084c-0.058 0-0.114-0.012-0.167-0.037-0.047-0.022-0.090-0.053-0.125-0.092-0.030-0.035-0.057-0.075-0.074-0.12-0.013-0.033-0.022-0.068-0.026-0.105-0.014-0.142 0.052-0.284 0.17-0.364 0.053-0.036 0.112-0.057 0.174-0.065 0.105-0.010 0.21-0.010 0.315-0.020 0.434-0.030 0.867-0.050 1.3-0.070h0.032c0.060 0.010 0.12 0.020 0.17 0.050 0.12 0.070 0.2 0.21 0.2 0.35 0 0.040-0.010 0.080-0.020 0.11-0.020 0.050-0.040 0.090-0.070 0.13s-0.070 0.080-0.12 0.1c-0.050 0.030-0.11 0.050-0.17 0.050-0.070 0.010-0.14 0.010-0.22 0.010l-0.3 0.020c-0.27 0.020-0.53 0.030-0.79 0.050l-0.2 0.010c-0.050 0.010-0.090 0.010-0.13 0.010z"></path>
</svg>
