<!-- Generated by IcoMoon.io -->
<svg version="1.1" xmlns="http://www.w3.org/2000/svg" width="16" height="16" viewBox="0 0 16 16">
<title>brand64</title>
<path fill="#72be50" d="M10.508 10.382l-3.444-4.862 3.22-3.256h-2.264l-3.22 3.418v-3.418h-1.81v8.246h1.812v-2.65l1.038-1.050 2.49 3.721h3.351v-1.92c0-0.19 0.020-0.37 0.060-0.54 0.040-0.16 0.1-0.3 0.19-0.43 0.090-0.12 0.21-0.22 0.36-0.29s0.33-0.11 0.54-0.11c0.070 0 0.15 0.010 0.22 0.010 0.070 0.010 0.14 0.020 0.19 0.030v-1.080c-0.094-0.020-0.178-0.040-0.254-0.040-0.147 0-0.29 0.020-0.427 0.060-0.136 0.040-0.266 0.11-0.386 0.18-0.122 0.079-0.227 0.175-0.322 0.287-0.090 0.112-0.165 0.235-0.22 0.365h-0.016v-0.788h-1.108v4.117zM15.998 3.382h0.002v4.766c0 0.22-0.030 0.443-0.086 0.658-0.020 0.085-0.047 0.17-0.084 0.26-0.16 0.41-0.424 0.772-0.766 1.050-0.337 0.348-0.78 0.732-1.312 1.14l-0.074 0.056h0.002l-0.648 0.494c-0.795 0.608-2.136 1.635-4.11 3.14-0.32 0.244-0.693 0.45-0.922 0.45s-0.6-0.206-0.922-0.45c-1.973-1.505-3.316-2.532-4.11-3.14l-0.347-0.265-0.29-0.22-0.070-0.050c-0.53-0.41-0.97-0.79-1.31-1.14-0.351-0.291-0.621-0.651-0.781-1.061-0.034-0.090-0.062-0.174-0.080-0.26-0.060-0.22-0.090-0.44-0.090-0.664v-5.024c0-1.39 1.113-2.518 2.483-2.518h11.033c1.368 0 2.484 1.13 2.484 2.516v0.26z"></path>
</svg>
