<!-- Generated by IcoMoon.io -->
<svg version="1.1" xmlns="http://www.w3.org/2000/svg" width="16" height="16" viewBox="0 0 16 16">
<title>brand102</title>
<path fill="#72ef36" d="M12.55 4.34c-0.126-0.084-0.21-0.21-0.21-0.38-0.21-2.232-2.065-3.96-4.34-3.96s-4.13 1.727-4.34 3.96c0 0.17-0.084 0.295-0.21 0.38-1.138 0.8-1.854 2.107-1.854 3.58 0 2.023 1.39 3.71 3.244 4.215 0.337 0.084 0.632 0.126 0.758 0.040 0.253-0.125 0.506-1.22 0.38-1.473-0.085-0.127-0.38-0.253-0.675-0.337-1.095-0.295-1.896-1.305-1.896-2.485 0-0.675 0.253-1.265 0.675-1.73 0.168-0.21 0.42-0.378 0.632-0.504 0.463-0.253 0.758-0.76 0.758-1.307 0-0.3 0.042-0.55 0.126-0.8 0.337-1.020 1.306-1.77 2.444-1.77s2.107 0.75 2.444 1.77c0.084 0.25 0.126 0.5 0.126 0.8 0 0.54 0.253 1.050 0.76 1.3 0.252 0.12 0.462 0.29 0.63 0.5 0.422 0.46 0.675 1.050 0.675 1.73 0 1.43-1.138 2.57-2.57 2.57-1.643 0-2.95 1.34-2.95 2.94v1.68c0 0.33 0.043 0.67 0.127 0.76 0.21 0.21 1.306 0.21 1.517 0 0.090-0.090 0.13-0.42 0.13-0.76v-1.72c0-0.63 0.51-1.14 1.14-1.14 2.4 0 4.34-1.94 4.34-4.34 0-1.44-0.71-2.74-1.85-3.54z"></path>
</svg>
