<!-- Generated by IcoMoon.io -->
<svg version="1.1" xmlns="http://www.w3.org/2000/svg" width="16" height="16" viewBox="0 0 16 16">
<title>brand202</title>
<path fill="#900" d="M12.084 8.088v0.002l-0.22 1.975c-0.927-0.758-2.438-1.324-3.872-1.324-1.426 0-2.93 0.57-3.858 1.32l-0.218-1.97c-0.002-0.6-0.295-1.13-0.74-1.47 0.256-2.43 2.31-4.33 4.816-4.33 2.51 0 4.567 1.91 4.818 4.35-0.437 0.34-0.724 0.87-0.726 1.47z"></path>
<path fill="#900" d="M11.596 12.32h-7.193l-0.245-1.924c0.887-0.857 2.272-1.362 3.834-1.362 1.57 0 2.962 0.508 3.848 1.375l-0.244 1.91zM3.683 13.72c-0.756 0-0.715-0.013-0.715-0.77l-1.166-2.713c-1-0.035-1.802-0.857-1.802-1.865 0-1.033 0.837-1.87 1.87-1.87 1.030 0 1.865 0.835 1.867 1.865v0.002l0.498 4.48c0 0.75 0.204 0.87-0.552 0.87zM14.198 10.229l-1.166 2.71c0 0.75 0.040 0.78-0.715 0.78-0.756 0-0.552-0.13-0.552-0.88l0.497-4.48c0.003-1.030 0.84-1.87 1.87-1.87s1.868 0.84 1.868 1.87c0 1.010-0.8 1.83-1.802 1.86z"></path>
</svg>
