<!-- Generated by IcoMoon.io -->
<svg version="1.1" xmlns="http://www.w3.org/2000/svg" width="16" height="16" viewBox="0 0 16 16">
<title>brand180</title>
<path fill="#e6461a" d="M0 7.78c0-3.727 3.027-7.22 7.018-7.72 2.86-0.333 5.023 0.765 6.52 2.196 1.396 1.33 2.228 3.028 2.428 5.025 0.166 2-0.266 3.73-1.43 5.36-1.164 1.6-3.46 3.36-6.32 3.36h-3.892v-7.681c0.034-1.697 0.6-3.162 2.66-3.86 1.797-0.533 3.893 0.465 4.525 2.362 0.66 2.030-0.3 3.394-1.43 4.226-1.14 0.832-2.9 0.832-4.060 0.033v2.63c0.76 0.37 1.73 0.47 2.43 0.43 2.52-0.36 4.49-1.79 5.32-3.96 0.86-2.29 0.26-4.96-1.53-6.62-2.16-1.77-4.53-2.2-7.050-0.97-1.77 0.9-3 2.73-3.3 4.73v8.679h-1.859l-0.030-8.22z"></path>
</svg>
