<!-- Generated by IcoMoon.io -->
<svg version="1.1" xmlns="http://www.w3.org/2000/svg" width="16" height="16" viewBox="0 0 16 16">
<title>brand107</title>
<path fill="#205281" d="M14.567 14.587c-0.557-0.318-1.074-0.876-1.353-1.632-0.040-0.16 0-0.278 0.12-0.358 1.67-1.234 2.666-3.104 2.666-5.174 0-3.82-3.582-6.925-8-6.925-4.418 0.040-8 3.144-8 6.925 0 3.82 3.582 6.925 8 6.925 0.557 0 1.114-0.040 1.672-0.16 0.12-0.040 0.238 0 0.318 0.080 1.075 0.677 2.746 1.234 4.14 1.234 0.437 0 0.636-0.278 0.636-0.557 0.080-0.12-0.080-0.24-0.2-0.358zM12.417 13.95c0.040 0.040 0.040 0.080 0.040 0.080 0 0.040-0.040 0.080-0.080 0.080-0.397 0-1.67-0.677-2.307-1.195-0.080-0.080-0.2-0.12-0.398-0.080-0.518 0.12-1.115 0.2-1.672 0.2-3.7 0-6.687-2.468-6.687-5.533 0-3.064 2.987-5.532 6.687-5.532s6.687 2.468 6.687 5.532c0 1.792-1.035 3.423-2.707 4.418-0.12 0.080-0.24 0.2-0.24 0.36 0 0.357 0.32 1.153 0.678 1.67zM12.377 9.055c0-0.16-0.118-0.32-0.317-0.32-0.080 0-0.16 0.040-0.2 0.080-0.795 0.717-2.188 1.354-3.86 1.354s-2.985-0.68-3.86-1.36c-0.040-0.040-0.16-0.080-0.2-0.080-0.2 0-0.318 0.16-0.318 0.36 0 0.16 0.080 0.27 0.2 0.39 0.477 0.67 1.95 1.91 4.178 1.91h0.040c2.23 0 3.7-1.2 4.18-1.95 0.040-0.12 0.158-0.28 0.158-0.4z"></path>
</svg>
