<!-- Generated by IcoMoon.io -->
<svg version="1.1" xmlns="http://www.w3.org/2000/svg" width="16" height="16" viewBox="0 0 16 16">
<title>brand100</title>
<path fill="#1e8cbe" d="M8 0c-0.884 0-1.6 0.716-1.6 1.6v5.6c0 0.883 0.716 1.6 1.6 1.6s1.6-0.717 1.6-1.6v-3.726c1.864 0.66 3.2 2.436 3.2 4.526 0 2.65-2.15 4.8-4.8 4.8s-4.8-2.15-4.8-4.8c0-1.326 0.537-2.526 1.406-3.394 0.625-0.625 0.625-1.638 0-2.263s-1.638-0.625-2.263 0c-1.447 1.447-2.343 3.447-2.343 5.657 0 4.418 3.582 8 8 8s8-3.582 8-8-3.582-8-8-8z"></path>
</svg>
