<!-- Generated by IcoMoon.io -->
<svg version="1.1" xmlns="http://www.w3.org/2000/svg" width="16" height="16" viewBox="0 0 16 16">
<title>brand231</title>
<path fill="#396" d="M1.067 14h13.866c0.589 0 1.067-0.475 1.067-1.060v-9.88h-0.002c0-0.585-0.477-1.060-1.065-1.060h-13.866c-0.589 0-1.067 0.475-1.067 1.060v9.88c0 0.585 0.477 1.060 1.067 1.060zM11.024 10.12h-6.046c-0.387-0.007-0.7-0.32-0.7-0.707h-0.005v-2.826h0.006c0-0.386 0.31-0.7 0.69-0.706h6.040c0.38 0.010 0.7 0.32 0.7 0.71v2.83h-0.010c0 0.39-0.31 0.7-0.7 0.71zM7.48 6.934l-1.78 1.074 1.766 1.057 0.013-2.13zM8.52 9.064l1.78-1.074-1.768-1.055-0.010 2.13z"></path>
</svg>
