<!-- Generated by IcoMoon.io -->
<svg version="1.1" xmlns="http://www.w3.org/2000/svg" width="16" height="16" viewBox="0 0 16 16">
<title>brand17</title>
<path fill="#00a3e0" d="M13.967 14.832c-0.22 0-0.436-0.058-0.628-0.17-0.6-0.344-0.81-1.11-0.46-1.707 1.27-2.197 0.51-5.016-1.69-6.285-0.7-0.402-1.49-0.614-2.3-0.614-0.22 0-0.44-0.060-0.63-0.17-0.6-0.344-0.81-1.11-0.46-1.708 0.22-0.383 0.63-0.62 1.080-0.622 1.24 0 2.47 0.328 3.55 0.95 1.64 0.948 2.81 2.48 3.3 4.313 0.49 1.83 0.24 3.74-0.71 5.39-0.22 0.38-0.64 0.62-1.080 0.62zM6.327 15.705c-2.535 0-4.896-1.362-6.16-3.553-0.345-0.595-0.138-1.36 0.46-1.704 0.58-0.335 1.376-0.117 1.707 0.457 0.82 1.42 2.348 2.3 3.99 2.3 0.8 0 1.596-0.213 2.295-0.616 0.69-0.41 1.27-0.99 1.68-1.69 0.11-0.19 0.26-0.35 0.46-0.46 0.57-0.34 1.37-0.12 1.7 0.45 0.22 0.38 0.22 0.86-0.010 1.25-0.62 1.080-1.52 1.97-2.6 2.6-1.080 0.62-2.31 0.95-3.55 0.95zM6.823 4.632c-0.743 0.688-1.208 1.672-1.208 2.765 0 0.686 0.185 1.327 0.506 1.882 0.18 0.31 0.28 0.66 0.28 1.040 0 0.83-0.49 1.55-1.19 1.88 0.97 0.3 2.050 0.21 3-0.34 0.6-0.35 1.060-0.83 1.38-1.38 0.18-0.31 0.44-0.58 0.77-0.76 0.72-0.42 1.59-0.35 2.23 0.090-0.22-0.99-0.84-1.89-1.79-2.43-0.59-0.34-1.24-0.5-1.88-0.5-0.36 0-0.72-0.1-1.040-0.28-0.72-0.42-1.1-1.2-1.030-1.98zM4.315 11.572c-0.442 0-0.856-0.24-1.080-0.626-0.623-1.078-0.952-2.306-0.952-3.55 0-3.915 3.187-7.1 7.105-7.1 0.686 0 1.246 0.56 1.246 1.25s-0.56 1.25-1.25 1.25c-2.538 0-4.6 2.064-4.6 4.6 0 0.806 0.212 1.6 0.616 2.3 0.11 0.187 0.166 0.403 0.166 0.624 0 0.69-0.56 1.25-1.25 1.25z"></path>
</svg>
