<!-- Generated by IcoMoon.io -->
<svg version="1.1" xmlns="http://www.w3.org/2000/svg" width="16" height="16" viewBox="0 0 16 16">
<title>brand271</title>
<path fill="#dd4814" d="M8 0c4.415 0 8 3.585 8 8s-3.585 8-8 8-8-3.585-8-8 3.585-8 8-8zM10.186 11.786c-0.51 0.295-0.686 0.948-0.39 1.46 0.294 0.51 0.947 0.685 1.458 0.39 0.51-0.295 0.686-0.948 0.39-1.46-0.294-0.51-0.947-0.685-1.458-0.39zM8 11.12c-0.47 0-0.915-0.105-1.314-0.29l-0.742 1.33c0.62 0.306 1.318 0.48 2.056 0.48 0.43 0 0.845-0.060 1.24-0.17 0.070-0.428 0.324-0.823 0.73-1.058s0.875-0.257 1.28-0.104c0.79-0.776 1.305-1.833 1.38-3.010l-1.523-0.022c-0.14 1.594-1.477 2.844-3.107 2.844zM4.88 8c0-1.055 0.525-1.988 1.327-2.553l-0.78-1.308c-0.936 0.62-1.63 1.58-1.92 2.69 0.337 0.27 0.553 0.69 0.553 1.16s-0.216 0.88-0.553 1.16c0.29 1.11 0.984 2.070 1.92 2.69l0.78-1.31c-0.802-0.549-1.327-1.479-1.327-2.529zM2.56 6.932c-0.59 0-1.068 0.478-1.068 1.068s0.478 1.068 1.068 1.068c0.59 0 1.068-0.478 1.068-1.068s-0.478-1.068-1.068-1.068zM8 4.88c1.63 0 2.967 1.25 3.107 2.843l1.523-0.023c-0.076-1.176-0.59-2.232-1.38-3.010-0.406 0.155-0.875 0.13-1.28-0.103-0.406-0.234-0.66-0.63-0.73-1.060-0.396-0.107-0.81-0.167-1.24-0.167-0.74 0-1.437 0.173-2.056 0.48l0.742 1.33c0.4-0.186 0.845-0.29 1.314-0.29zM10.186 4.213c0.51 0.295 1.164 0.12 1.46-0.39 0.294-0.51 0.12-1.164-0.392-1.46-0.51-0.294-1.164-0.12-1.46 0.392-0.294 0.51-0.12 1.163 0.392 1.458z"></path>
</svg>
