<!-- Generated by IcoMoon.io -->
<svg version="1.1" xmlns="http://www.w3.org/2000/svg" width="16" height="16" viewBox="0 0 16 16">
<title>brand279</title>
<path fill="#0093da" d="M11.807 4.825c0-0.167 0-0.317 0.1-0.417 0.133-0.117 0.267-0.1 0.4-0.1h0.952c0.51 0 1.25 0.133 1.75 0.584 0.5 0.467 0.61 1.135 0.61 1.736v1.502c0 0.4 0.010 0.685-0.19 1.052-0.25 0.467-0.77 0.6-0.77 0.668 0 0.066 0.56 0.167 0.81 0.667 0.2 0.4 0.18 0.65 0.18 1.052v2.070c0 0.41 0 0.93-0.6 1.63-0.57 0.63-1.36 0.72-1.76 0.72-0.3 0-0.52 0.010-0.82 0-0.2-0.020-0.5 0.010-0.57-0.090-0.1-0.15-0.13-0.12-0.13-0.57v-10.509zM8.167 15.725c0 0.268-0.066 0.268-0.567 0.268-0.384 0-0.5 0-0.5-0.234v-10.939c0-0.167 0.016-0.35 0.116-0.45 0.134-0.117 0.25-0.067 0.384-0.067h0.952c0.534 0 1.252 0.133 1.752 0.584 0.5 0.467 0.618 1.152 0.618 1.736v1.507c0 0.4 0.017 0.685-0.184 1.052-0.25 0.467-0.784 0.6-0.784 0.668 0 0.066 0.55 0.167 0.8 0.667 0.2 0.4 0.185 0.65 0.185 1.052v4.15c0 0.26-0.12 0.26-0.57 0.26-0.39 0-0.5 0.010-0.5-0.24v-4.239c0-0.685-0.45-1.102-0.82-1.102-0.79 0-0.89-0.016-0.89 0.25v5.060zM5.614 15.975c-0.45 0-0.5 0-0.5-0.233v-11.167c0-0.217 0.1-0.25 0.5-0.25 0.45 0 0.567 0.016 0.567 0.266v11.12c0 0.25-0.030 0.27-0.56 0.27zM13.059 14.891c0.13 0.020 0.15 0.020 0.3 0.020 0.18 0 0.6-0.050 0.9-0.36 0.33-0.36 0.35-0.6 0.35-0.88v-2.14c0-0.77-0.45-1.1-0.95-1.1-0.72 0-0.77 0.050-0.77 0.45v3.51c0 0.19 0.010 0.5 0.16 0.52zM2.39 12.52c0.284-2.87 0.534-5.308 0.8-7.93 0.034-0.282 0.168-0.266 0.47-0.266 0.466 0 0.633 0.034 0.616 0.217-0.5 4.11-0.884 7.15-1.385 11.21-0.030 0.24-0.21 0.25-0.55 0.25-0.43 0-0.63 0-0.67-0.28-0.45-3.76-0.86-7.1-1.35-11.2-0.010-0.2 0.070-0.2 0.54-0.2 0.49 0 0.59 0.050 0.6 0.27 0.27 2.92 0.47 5.19 0.72 7.97 0 0.050 0.020 0.16 0.1 0.16 0.1 0 0.12-0.11 0.12-0.18zM8.6 5.41c-0.15 0-0.3 0-0.368 0.116-0.050 0.1-0.050 0.184-0.050 0.284v3.122c0 0.183-0.033 0.367 0.1 0.467 0.1 0.080 0.217 0.060 0.3 0.060 0.185 0 0.62-0.050 0.92-0.37 0.333-0.37 0.333-0.65 0.333-0.89v-1.569c0-0.384-0.067-0.668-0.35-0.968-0.184-0.167-0.284-0.25-0.885-0.25zM13.424 5.41c-0.234 0-0.417 0-0.484 0.116-0.050 0.1-0.050 0.184-0.050 0.284v3.122c0 0.183-0.017 0.333 0.1 0.45 0.1 0.1 0.167 0.084 0.3 0.084 0.234 0 0.618-0.050 0.92-0.367 0.332-0.37 0.332-0.62 0.332-0.89v-1.579c0-0.384-0.066-0.668-0.35-0.968-0.184-0.167-0.3-0.25-0.768-0.25zM7.244 1.34h-1.052v-1.077c0-0.247-0.115-0.263-0.557-0.263-0.392 0-0.49 0.033-0.49 0.245v1.095h-1.025c-0.246 0-0.263 0.116-0.263 0.557 0 0.393 0.033 0.49 0.246 0.49h1.042v1.033c0 0.228 0.050 0.228 0.49 0.228 0.524 0 0.557-0.016 0.557-0.262v-0.998h1.085c0.23 0 0.23-0.050 0.23-0.49 0-0.524-0.018-0.557-0.263-0.557z"></path>
</svg>
