<!-- Generated by IcoMoon.io -->
<svg version="1.1" xmlns="http://www.w3.org/2000/svg" width="16" height="16" viewBox="0 0 16 16">
<title>brand147</title>
<path fill="#eb001b" d="M7.562 12.020c0.038 0.033 0.080 0.065 0.12 0.098-0.784 0.522-1.726 0.826-2.738 0.826-2.73 0-4.944-2.214-4.944-4.944s2.214-4.944 4.944-4.944c1.012 0 1.954 0.304 2.737 0.826-0.040 0.033-0.080 0.065-0.11 0.1-1.171 1.010-1.841 2.476-1.841 4.018 0 1.54 0.667 3.006 1.832 4.020zM11.056 3.056c-1.013 0-1.954 0.304-2.737 0.826 0.040 0.033 0.080 0.065 0.11 0.1 1.171 1.010 1.841 2.476 1.841 4.018 0 1.54-0.667 3.005-1.832 4.020-0.038 0.033-0.080 0.065-0.12 0.098 0.784 0.522 1.725 0.826 2.738 0.826 2.73 0 4.944-2.214 4.944-4.944s-2.214-4.944-4.944-4.944zM8 4.116c-0.064 0.050-0.126 0.1-0.187 0.154-1.042 0.906-1.7 2.24-1.7 3.73s0.658 2.824 1.7 3.73c0.060 0.053 0.123 0.105 0.187 0.155 0.064-0.050 0.126-0.102 0.187-0.155 1.042-0.906 1.7-2.24 1.7-3.73s-0.658-2.824-1.7-3.73c-0.060-0.054-0.123-0.105-0.187-0.155z"></path>
</svg>
