<!-- Generated by IcoMoon.io -->
<svg version="1.1" xmlns="http://www.w3.org/2000/svg" width="16" height="16" viewBox="0 0 16 16">
<title>brand226</title>
<path fill="#e85c33" d="M5.155 8.005c0.51 0.35 1.108 0.673 1.805 0.963 1.19 0.494 1.99 0.924 2.4 1.29 0.41 0.364 0.618 0.832 0.618 1.402-0.003 0.972-0.682 1.46-2.050 1.46-1.317 0-2.5-0.418-3.55-1.25l-1.248 2.79c0.948 0.507 1.72 0.838 2.317 0.997l0.093 0.023-1.197 0.276c-0.848 0.195-1.693-0.335-1.888-1.18l-2.415-10.438c-0.195-0.848 0.333-1.693 1.182-1.89l2.916-0.672c-0.106 0.103-0.204 0.21-0.294 0.322l-0.012 0.015c-0.502 0.632-0.754 1.41-0.754 2.336 0 1.4 0.687 2.58 2.053 3.53l0.030 0.020zM12.059 8.053c-0.56-0.447-1.27-0.844-2.16-1.19-1.32-0.523-2.18-0.94-2.58-1.248-0.4-0.31-0.61-0.654-0.61-1.038 0-0.972 0.61-1.46 1.84-1.46 1.36 0 2.43 0.33 3.19 0.984l1.010-2.72c-0.73-0.37-1.49-0.64-2.27-0.81l-0.040-0.010c-0.17-0.040-0.35-0.080-0.54-0.11l1.75-0.4c0.85-0.19 1.69 0.34 1.89 1.18l2.42 10.43c0.19 0.85-0.34 1.7-1.19 1.89l-1.99 0.46c0.55-0.7 0.83-1.56 0.83-2.58 0-1.050-0.29-1.94-0.87-2.68-0.19-0.23-0.41-0.45-0.67-0.67l-0.030-0.020z"></path>
</svg>
