<!-- Generated by IcoMoon.io -->
<svg version="1.1" xmlns="http://www.w3.org/2000/svg" width="16" height="16" viewBox="0 0 16 16">
<title>brand172</title>
<path d="M12.090 9.3c-0.213 0.147-0.45 0.236-0.704 0.277s-0.508 0.033-0.762 0.033h-5.248c-0.255 0-0.508 0.008-0.763-0.033-0.254-0.042-0.49-0.13-0.705-0.278-0.428-0.3-0.685-0.78-0.685-1.3 0-0.53 0.258-1.010 0.686-1.3 0.21-0.15 0.45-0.24 0.7-0.28s0.5-0.040 0.76-0.040h5.25c0.25 0 0.51-0.010 0.76 0.030s0.49 0.13 0.7 0.27c0.43 0.29 0.68 0.78 0.68 1.3s-0.26 1-0.69 1.3zM14.206 4.263c-0.563-0.452-1.208-0.764-1.91-0.933-0.4-0.097-0.803-0.14-1.215-0.153-0.3-0.010-0.6-0.007-0.91-0.007h-4.331c-0.305 0-0.61-0.003-0.915 0.007-0.412 0.014-0.814 0.056-1.216 0.153-0.7 0.17-1.35 0.482-1.91 0.934-1.139 0.91-1.799 2.283-1.799 3.736 0 1.454 0.66 2.827 1.793 3.737 0.564 0.452 1.21 0.764 1.91 0.933 0.402 0.097 0.804 0.14 1.216 0.153 0.3 0.010 0.6 0.007 0.91 0.007h4.33c0.3 0 0.61 0.003 0.91-0.007 0.41-0.013 0.81-0.056 1.21-0.153 0.7-0.17 1.34-0.482 1.91-0.934 1.151-0.91 1.811-2.283 1.811-3.736s-0.66-2.827-1.794-3.737z"></path>
</svg>
