<!-- Generated by IcoMoon.io -->
<svg version="1.1" xmlns="http://www.w3.org/2000/svg" width="16" height="16" viewBox="0 0 16 16">
<title>brand189</title>
<path fill="#039" d="M5.983 1.71v11.685l2.607 0.84v-9.8c0-0.46 0.202-0.767 0.528-0.66 0.424 0.12 0.507 0.542 0.507 1.002v3.913c1.625 0.795 2.905-0.002 2.905-2.1 0-2.156-0.75-3.113-2.956-3.88-0.87-0.298-2.482-0.79-3.59-1zM9.083 12.526l4.192-1.516c0.476-0.172 0.55-0.416 0.164-0.545-0.39-0.128-1.090-0.092-1.57 0.082l-2.8 0.998v-1.588l0.16-0.056s0.8-0.28 1.94-0.41c1.13-0.12 2.52 0.020 3.62 0.44 1.23 0.4 1.36 0.98 1.050 1.38s-1.080 0.69-1.080 0.69l-5.69 2.070v-1.53zM1.203 12.366c-1.265-0.362-1.474-1.11-0.9-1.545 0.534-0.39 1.438-0.7 1.438-0.7l3.74-1.34v1.54l-2.68 0.98c-0.47 0.18-0.55 0.42-0.16 0.55s1.090 0.1 1.56-0.080l1.29-0.47v1.38c-0.080 0.020-0.17 0.030-0.26 0.050-1.29 0.22-2.66 0.13-4.020-0.32z"></path>
</svg>
