<!-- Generated by IcoMoon.io -->
<svg version="1.1" xmlns="http://www.w3.org/2000/svg" width="16" height="16" viewBox="0 0 16 16">
<title>brand136</title>
<path fill="#d51007" d="M7.056 11.473l-0.586-1.593s-0.954 1.062-2.383 1.062c-1.265 0-2.163-1.1-2.163-2.86 0-2.254 1.137-3.060 2.255-3.060 1.61 0 2.12 1.044 2.56 2.382l0.58 1.833c0.58 1.778 1.68 3.207 4.85 3.207 2.27 0 3.81-0.696 3.81-2.53 0-1.483-0.85-2.253-2.42-2.62l-1.17-0.256c-0.81-0.183-1.050-0.513-1.050-1.063 0-0.623 0.49-0.99 1.3-0.99 0.88 0 1.35 0.33 1.43 1.118l1.83-0.22c-0.15-1.65-1.29-2.327-3.16-2.327-1.65 0-3.26 0.623-3.26 2.62 0 1.247 0.6 2.035 2.12 2.4l1.24 0.295c0.93 0.22 1.24 0.61 1.24 1.14 0 0.68-0.66 0.96-1.91 0.96-1.85 0-2.62-0.97-3.060-2.31l-0.6-1.83c-0.77-2.38-2-3.26-4.44-3.26-2.639-0.011-4.069 1.689-4.069 4.589 0 2.783 1.43 4.29 3.996 4.29 2.070 0 3.060-0.97 3.060-0.97z"></path>
</svg>
