<!-- Generated by IcoMoon.io -->
<svg version="1.1" xmlns="http://www.w3.org/2000/svg" width="16" height="16" viewBox="0 0 16 16">
<title>brand213</title>
<path fill="#21b352" d="M15.45 0.545c-5.097-0.727-9.848-0.727-14.918 0-0.71 5.040-0.71 9.738 0 14.753 2.474 0.363 4.947 0.702 7.47 0.702 2.498 0 4.972-0.34 7.446-0.678 0.734-5.040 0.734-9.738 0-14.777zM7.758 12.755c-1.37 0-2.817-0.46-3.453-0.8l0.538-2.084c0.71 0.47 1.788 0.93 2.964 0.93 0.93 0 1.494-0.29 1.494-0.87 0-0.41-0.29-0.65-1.050-0.84l-1.52-0.42c-1.611-0.441-2.371-1.261-2.371-2.571 0-1.577 1.22-2.837 3.746-2.837 1.326 0 2.648 0.363 3.38 0.727l-0.634 1.985c-0.736-0.41-1.86-0.75-2.817-0.75-0.91 0-1.3 0.29-1.3 0.728 0 0.413 0.27 0.58 0.86 0.728l1.66 0.49c1.71 0.49 2.47 1.31 2.47 2.59-0.050 1.8-1.64 3.010-3.97 3.010z"></path>
</svg>
