<!-- Generated by IcoMoon.io -->
<svg version="1.1" xmlns="http://www.w3.org/2000/svg" width="16" height="16" viewBox="0 0 16 16">
<title>brand16</title>
<path fill="#6c6" d="M8 1.333c4.307 0 7.68 5.479 8 10.107-1.35 2.347-4.61 3.227-8 3.227s-6.648-0.881-8-3.227c0.32-4.627 3.693-10.107 8-10.107zM14.875 10.338s-0.952-2.057-1.918-3.257c-0.968-1.2-2.15-2.5-2.848-2.5-0.7 0-2.65 3.46-3.55 3.46s-1.36-1.56-2.46-1.56c-1.1 0-2.85 3.78-2.85 3.78l-0.12 0.65s0.61 2.69 6.97 2.69c6.36 0 6.87-2.65 6.87-2.65l-0.1-0.59z"></path>
</svg>
