<!-- Generated by IcoMoon.io -->
<svg version="1.1" xmlns="http://www.w3.org/2000/svg" width="16" height="16" viewBox="0 0 16 16">
<title>brand46</title>
<path fill="#0066dc" d="M0 16v-16h16v16h-16zM13.797 2.262l-2.463 0.51v3.648c-0.56-0.717-1.34-1.060-2.354-1.060-1.060 0-2.010 0.39-2.79 1.154-0.873 0.84-1.34 1.917-1.34 3.117 0 1.31 0.5 2.44 1.465 3.29 0.733 0.66 1.606 0.99 2.62 0.99 0.996 0 1.744-0.26 2.477-0.98v0.94h2.385v-11.611zM9.479 11.672c-1.27 0-2.17-0.888-2.17-2.057 0-1.122 0.9-2.073 2.070-2.073 1.15 0 2.040 0.904 2.040 2.105 0 1.153-0.89 2.026-1.95 2.026z"></path>
</svg>
