<!-- Generated by IcoMoon.io -->
<svg version="1.1" xmlns="http://www.w3.org/2000/svg" width="16" height="16" viewBox="0 0 16 16">
<title>brand163</title>
<path fill="#314359" d="M14.634 12.716c-0.103 0-0.206-0.030-0.297-0.090-0.246-0.167-0.31-0.5-0.15-0.74 0.493-0.73 0.75-1.588 0.75-2.48s-0.257-1.75-0.75-2.48c-0.165-0.246-0.096-0.578 0.144-0.738 0.25-0.166 0.58-0.097 0.74 0.143 0.61 0.91 0.93 1.98 0.93 3.080s-0.32 2.17-0.93 3.080c-0.090 0.16-0.26 0.24-0.43 0.24z"></path>
<path fill="#314359" d="M13.108 11.853c-0.103 0-0.206-0.030-0.298-0.092-0.246-0.16-0.308-0.49-0.143-0.73 0.326-0.48 0.498-1.030 0.498-1.62 0-0.57-0.172-1.13-0.498-1.62-0.165-0.24-0.103-0.57 0.143-0.73s0.572-0.1 0.738 0.15c0.446 0.66 0.68 1.43 0.68 2.21 0 0.8-0.234 1.56-0.68 2.21-0.097 0.16-0.27 0.24-0.44 0.24zM10.62 7.085c-0.21-2.132-2.010-3.8-4.2-3.8-1.814 0-3.42 1.165-3.997 2.855-1.365 0.202-2.423 1.38-2.423 2.802 0 1.562 1.275 2.836 2.84 2.836h7.272c1.31 0 2.378-1.063 2.378-2.372 0-1.137-0.8-2.086-1.87-2.32zM10.112 10.715h-7.27c-0.978 0-1.78-0.794-1.78-1.772s0.796-1.772 1.78-1.772c0.473 0 0.92 0.19 1.257 0.52 0.2 0.21 0.54 0.21 0.75 0 0.2-0.2 0.2-0.54 0-0.75-0.37-0.36-0.82-0.62-1.31-0.74 0.5-1.11 1.62-1.85 2.87-1.85 1.74 0 3.16 1.42 3.16 3.16 0 0.34-0.050 0.67-0.16 0.99-0.090 0.28 0.060 0.58 0.34 0.68 0.050 0.020 0.11 0.030 0.16 0.030 0.22 0 0.43-0.14 0.5-0.36 0.070-0.21 0.12-0.42 0.15-0.64 0.49 0.19 0.84 0.67 0.84 1.22 0 0.73-0.59 1.32-1.31 1.32z"></path>
</svg>
