<!-- Generated by IcoMoon.io -->
<svg version="1.1" xmlns="http://www.w3.org/2000/svg" width="16" height="16" viewBox="0 0 16 16">
<title>brand129</title>
<path fill="#2bde73" d="M6.406 5.453l2.934-4.253c0.555-0.8 1.27-1.2 2.15-1.2 0.715 0 1.335 0.254 1.86 0.762 0.522 0.51 0.784 1.117 0.784 1.826 0 0.523-0.138 0.986-0.416 1.386l-2.645 3.846 3.235 4.102c0.323 0.408 0.485 0.886 0.485 1.433 0 0.724-0.254 1.345-0.763 1.865s-1.124 0.78-1.848 0.78c-0.793 0-1.398-0.258-1.814-0.774l-3.962-4.944v2.726c0 0.778-0.135 1.383-0.405 1.814-0.491 0.785-1.201 1.178-2.141 1.178-0.855 0-1.518-0.29-1.987-0.866-0.44-0.532-0.66-1.237-0.66-2.114v-10.11c0-0.83 0.224-1.516 0.67-2.055 0.465-0.57 1.112-0.855 1.937-0.855 0.786 0 1.44 0.285 1.964 0.855 0.292 0.316 0.477 0.635 0.554 0.96 0.047 0.2 0.070 0.572 0.070 1.12v2.518z"></path>
</svg>
