<!-- Generated by IcoMoon.io -->
<svg version="1.1" xmlns="http://www.w3.org/2000/svg" width="16" height="16" viewBox="0 0 16 16">
<title>brand72</title>
<path fill="#6cc655" d="M4.93 14.622l-4.518-4.55c-0.55-0.55-0.55-1.74 0-2.26l6.474-6.502c0.52-0.52 1.68-0.52 2.198 0l6.504 6.503c0.55 0.55 0.55 1.74 0 2.26l-4.52 4.55c-0.274 0.274-0.702 0.457-1.13 0.457h-3.938c-0.397 0-0.794-0.183-1.070-0.458zM9.053 12.852c0.092-0.092 0.092-0.276 0-0.367l-0.885-0.886c-0.092-0.1-0.275-0.1-0.366 0l-0.886 0.88c-0.092 0.090-0.092 0.27 0 0.36l0.702 0.67h0.733l0.71-0.68zM9.053 9.095c0.062-0.060 0.062-0.213 0-0.274l-0.946-0.94c-0.060-0.060-0.214-0.060-0.275 0l-2.748 2.75c-0.092 0.1-0.092 0.31 0 0.4l0.64 0.64h0.734l2.595-2.571zM9.053 5.37c0.062-0.060 0.092-0.244 0-0.305l-0.916-0.916c-0.060-0.070-0.244-0.070-0.335 0l-4.61 4.61c-0.062 0.060-0.093 0.24-0.032 0.3l0.733 0.7h0.702l4.458-4.39z"></path>
</svg>
