<!-- Generated by IcoMoon.io -->
<svg version="1.1" xmlns="http://www.w3.org/2000/svg" width="16" height="16" viewBox="0 0 16 16">
<title>brand158</title>
<path fill="#0072c6" d="M16 4.925v6.985c0 0.154-0.053 0.282-0.158 0.384s-0.234 0.154-0.388 0.154h-5.697v-4.64l1.066 0.82c0.068 0.056 0.152 0.084 0.252 0.084s0.186-0.028 0.26-0.085l4.665-3.702zM9.757 3.578h5.697c0.142 0 0.263 0.042 0.363 0.128 0.1 0.085 0.155 0.2 0.166 0.34l-4.913 3.917-1.313-1.033v-3.352zM8.937 0.576v14.848l-8.937-1.544v-11.717l8.938-1.587zM6.237 8.030c-0.013-0.756-0.208-1.382-0.586-1.876-0.37-0.494-0.85-0.754-1.42-0.777-0.55 0.023-1.020 0.282-1.4 0.777-0.38 0.494-0.57 1.12-0.58 1.876 0.010 0.745 0.21 1.364 0.59 1.86 0.38 0.494 0.85 0.755 1.4 0.784 0.57-0.023 1.050-0.283 1.43-0.78s0.58-1.12 0.59-1.864zM4.157 6.375c0.287 0.012 0.53 0.17 0.722 0.478 0.19 0.307 0.29 0.696 0.29 1.168 0 0.48-0.1 0.87-0.29 1.18-0.2 0.31-0.44 0.47-0.73 0.47s-0.53-0.15-0.73-0.46c-0.2-0.31-0.29-0.7-0.29-1.17s0.090-0.86 0.29-1.16c0.19-0.3 0.43-0.46 0.72-0.48z"></path>
</svg>
