<!-- Generated by IcoMoon.io -->
<svg version="1.1" xmlns="http://www.w3.org/2000/svg" width="16" height="16" viewBox="0 0 16 16">
<title>brand222</title>
<path fill="#00aff0" d="M8.035 12.6c-2.685 0-3.885-1.322-3.885-2.313 0-0.51 0.374-0.865 0.89-0.865 1.15 0 0.85 1.653 2.995 1.653 1.096 0 1.703-0.597 1.703-1.208 0-0.368-0.18-0.775-0.904-0.954l-2.387-0.597c-1.923-0.483-2.272-1.526-2.272-2.504 0-2.034 1.91-2.798 3.704-2.798 1.65 0 3.6 0.916 3.6 2.136 0 0.523-0.46 0.827-0.97 0.827-0.98 0-0.8-1.36-2.78-1.36-0.98 0-1.53 0.444-1.53 1.080s0.77 0.84 1.44 0.993l1.76 0.392c1.93 0.433 2.42 1.566 2.42 2.633 0 1.652-1.27 2.886-3.82 2.886zM15.399 9.341l-0.020 0.090-0.030-0.16c0.010 0.030 0.030 0.050 0.040 0.080 0.080-0.45 0.12-0.91 0.12-1.37 0-1.020-0.2-2.010-0.6-2.95-0.38-0.9-0.93-1.71-1.62-2.4-0.7-0.69-1.5-1.24-2.4-1.62-0.879-0.421-1.869-0.621-2.889-0.621-0.48 0-0.964 0.047-1.43 0.137l0.080 0.040-0.16-0.023 0.080-0.016c-0.643-0.345-1.365-0.528-2.098-0.528-1.194 0-2.317 0.466-3.162 1.313s-1.31 1.973-1.31 3.17c0 0.763 0.195 1.512 0.563 2.175l0.013-0.083 0.028 0.16-0.040-0.077c-0.076 0.43-0.115 0.867-0.115 1.305 0 1.022 0.2 2.014 0.59 2.948 0.38 0.91 0.92 1.72 1.62 2.41 0.69 0.7 1.5 1.24 2.4 1.63 0.93 0.4 1.92 0.6 2.94 0.6 0.44 0 0.89-0.040 1.32-0.12l-0.080-0.040 0.16 0.030-0.090 0.020c0.67 0.38 1.42 0.58 2.2 0.58 1.19 0 2.31-0.46 3.16-1.31 0.84-0.84 1.31-1.97 1.31-3.17 0-0.76-0.2-1.51-0.57-2.18z"></path>
</svg>
