<!-- Generated by IcoMoon.io -->
<svg version="1.1" xmlns="http://www.w3.org/2000/svg" width="16" height="16" viewBox="0 0 16 16">
<title>brand251</title>
<path fill="#39ace6" d="M15.937 0.626c0.020 0 0.037 0.003 0.047 0.008s0.016 0.018 0.016 0.040l-0.845 4.117v0.020h-0.040c-0.006 0-0.030 0-0.070-0.010h-0.030c-0.054-0.010-0.1-0.020-0.143-0.030-0.042-0.010-0.090-0.010-0.14-0.010-0.366-0.060-0.726-0.11-1.080-0.15-0.356-0.040-0.71-0.070-1.066-0.090l-0.25 5.26-0.047-0.080c0-0.010-0.010-0.010-0.010-0.020l-0.010-0.010c-0.010 0-0.020 0-0.030-0.010s-0.010-0.020-0.010-0.030c-0.020-0.010-0.040-0.020-0.050-0.040-0.010-0.010-0.030-0.030-0.050-0.040-0.060-0.050-0.12-0.1-0.19-0.15-0.080-0.050-0.15-0.1-0.22-0.14l-0.12-0.060-0.11-0.060c-0.010 0-0.020 0-0.030-0.010l-0.010-0.020 0.23-5.49h0.080c0.080 0 0.17 0 0.26 0.010s0.19 0.010 0.28 0.010l0.55 0.030c0.18 0.010 0.36 0.030 0.54 0.050l0.28 0.030 0.27 0.030h0.061c0.024 0 0.060 0.010 0.1 0.020 0.050 0.010 0.11 0.020 0.17 0.020 0.060 0.010 0.11 0.010 0.14 0.030l0.5-2.47c-0.010 0-0.024 0-0.045-0.010l-0.080-0.030c-0.35-0.070-0.71-0.13-1.070-0.19-0.36-0.050-0.723-0.090-1.090-0.12-0.28-0.030-0.567-0.050-0.86-0.060-0.285-0.010-0.58-0.020-0.87-0.020h-0.53c0 0.020 0 0.040-0.010 0.060l-0.030 0.1-0.030 0.090c-0.010 0.060-0.030 0.13-0.057 0.19-0.028 0.070-0.050 0.13-0.070 0.19-0.065 0.12-0.13 0.23-0.198 0.33-0.068 0.11-0.138 0.21-0.21 0.32-0.168 0.2-0.356 0.37-0.565 0.52-0.205 0.15-0.43 0.27-0.67 0.36-0.164 0.060-0.334 0.11-0.51 0.14-0.17 0.030-0.343 0.050-0.52 0.050-0.094 0-0.19 0-0.29-0.010s-0.196-0.020-0.29-0.040c-0.27-0.050-0.53-0.14-0.775-0.27-0.244-0.13-0.466-0.29-0.664-0.48-0.11-0.090-0.2-0.19-0.28-0.29-0.074-0.1-0.15-0.21-0.223-0.33l-0.478 0.17-0.48 0.18c-0.325 0.11-0.644 0.24-0.957 0.38-0.31 0.14-0.62 0.29-0.922 0.45l-0.46 0.25c-0.152 0.090-0.306 0.17-0.462 0.25v0.010c0 0.010-0.007 0.010-0.018 0.010l-0.058 0.030-0.025 0.020 1.040 2.28 0.132-0.070c0.040-0.020 0.090-0.050 0.142-0.070 0.325-0.17 0.654-0.32 0.99-0.47 0.332-0.14 0.67-0.28 1-0.41h0.030l1.373 5.509c0.22-0.095 0.425-0.176 0.618-0.243 0.197-0.068 0.38-0.128 0.56-0.18 0.344-0.094 0.7-0.165 1.065-0.212 0.365-0.044 0.73-0.070 1.096-0.070 0.19 0 0.38 0.010 0.57 0.026 0.18 0.020 0.35 0.040 0.51 0.070 0.19 0.040 0.37 0.1 0.54 0.16 0.16 0.070 0.31 0.14 0.44 0.24 0.15 0.1 0.28 0.21 0.39 0.34 0.1 0.13 0.19 0.27 0.25 0.42 0.060 0.16 0.090 0.32 0.1 0.5 0 0.18-0.020 0.35-0.060 0.51-0.020 0.090-0.050 0.17-0.080 0.24-0.040 0.080-0.080 0.16-0.13 0.23 0 0.010 0 0.020-0.010 0.020s-0.010 0.010-0.010 0.020l-0.030 0.030c-0.010 0.010-0.010 0.020-0.010 0.030s0 0.020 0.010 0.030l0.020 0.040v0.020l0.010 0.020 0.060 0.13c0.010 0.040 0.020 0.090 0.020 0.13 0.040 0.17 0.050 0.34 0.030 0.52-0.020 0.19-0.060 0.37-0.12 0.54-0.11 0.29-0.28 0.54-0.51 0.77-0.24 0.23-0.54 0.43-0.9 0.61-0.28 0.15-0.59 0.27-0.92 0.37-0.34 0.1-0.71 0.19-1.12 0.26-0.1 0.020-0.19 0.040-0.28 0.050l-0.26 0.010-0.17 0.020-0.070-0.95v-0.010h0.030l0.020-0.010h0.1l0.040-0.030h0.12c0.040 0 0.070-0.010 0.1-0.010 0.19-0.030 0.37-0.060 0.54-0.1 0.18-0.040 0.35-0.080 0.53-0.13s0.35-0.1 0.51-0.16c0.16-0.050 0.31-0.12 0.46-0.19 0.17-0.090 0.31-0.18 0.43-0.28s0.22-0.2 0.3-0.3c0.050-0.060 0.1-0.13 0.13-0.2s0.050-0.14 0.060-0.22v-0.15l-0.080 0.060c-0.010 0.010-0.030 0.020-0.050 0.030l-0.070 0.030c-0.14 0.090-0.29 0.16-0.45 0.23s-0.33 0.14-0.51 0.2c-0.17 0.060-0.34 0.12-0.52 0.16-0.18 0.050-0.36 0.090-0.53 0.12-0.19 0.030-0.37 0.060-0.55 0.080s-0.36 0.040-0.54 0.050h-0.1c-0.17 0-0.33 0-0.47-0.020-0.15-0.010-0.28-0.040-0.41-0.070-0.19-0.050-0.35-0.12-0.49-0.21s-0.24-0.2-0.3-0.34c-0.070-0.12-0.11-0.26-0.1-0.42 0-0.15 0.040-0.3 0.11-0.44 0.070-0.13 0.17-0.25 0.29-0.36s0.27-0.21 0.44-0.3c0.14-0.070 0.29-0.14 0.46-0.19 0.16-0.050 0.34-0.11 0.53-0.16 0.15-0.040 0.32-0.080 0.5-0.11s0.37-0.050 0.58-0.060c0.070-0.010 0.15-0.020 0.23-0.020 0.080-0.010 0.16-0.010 0.25-0.010h0.3l0.3 0.030c0.090 0.010 0.18 0.020 0.27 0.040s0.17 0.030 0.25 0.050c0.050 0.010 0.1 0.030 0.14 0.040l0.11 0.040h0.010c0.010 0 0.020 0.010 0.020 0.010l0.010 0.010 0.030 0.020-0.020 0.020c-0.090 0.21-0.25 0.38-0.5 0.5-0.25 0.13-0.42 0.21-0.53 0.24h-0.009c-0.010-0.010-0.020-0.020-0.024-0.020h-0.29c-0.092 0-0.183 0-0.272 0.010s-0.176 0.010-0.26 0.020c-0.187 0.020-0.37 0.050-0.547 0.080-0.18 0.030-0.346 0.080-0.5 0.13-0.097 0.030-0.186 0.060-0.27 0.1-0.083 0.030-0.16 0.060-0.234 0.1-0.042 0.020-0.080 0.040-0.117 0.060-0.036 0.020-0.070 0.040-0.1 0.060-0.020 0.020-0.050 0.040-0.080 0.060s-0.057 0.050-0.080 0.080c0.010 0 0.027 0 0.040 0.010l0.090 0.020v0.020c0.040 0.010 0.080 0.020 0.12 0.020 0.043 0 0.090 0.010 0.14 0.010 0.043 0.010 0.085 0.014 0.127 0.014h0.404c0.17 0 0.343-0.010 0.525-0.040 0.18-0.027 0.368-0.050 0.556-0.087 0.19-0.040 0.364-0.084 0.53-0.14 0.165-0.050 0.326-0.11 0.483-0.17 0.090-0.030 0.17-0.070 0.24-0.1 0.080-0.040 0.15-0.080 0.23-0.12l0.19-0.11c0.070-0.040 0.15-0.090 0.22-0.14 0.11-0.093 0.21-0.21 0.31-0.34 0.11-0.13 0.16-0.28 0.16-0.444 0-0.085-0.010-0.16-0.040-0.23-0.020-0.070-0.060-0.13-0.12-0.18-0.050-0.050-0.11-0.1-0.17-0.14s-0.13-0.080-0.22-0.11c-0.17-0.060-0.35-0.11-0.54-0.13-0.18-0.026-0.34-0.040-0.49-0.040-0.050-0.010-0.1-0.010-0.16-0.010h-0.151c-0.314 0-0.627 0.023-0.94 0.070-0.313 0.050-0.62 0.11-0.923 0.2-0.17 0.040-0.335 0.090-0.502 0.15-0.17 0.070-0.345 0.13-0.533 0.21-0.146 0.060-0.297 0.12-0.454 0.2l-0.5 0.26-0.030 0.020-1.38-5.73-0.060 0.030-0.063 0.030c-0.336 0.15-0.665 0.3-0.988 0.47-0.326 0.17-0.644 0.34-0.957 0.52l-0.032 0.020-1.738-4.034c0-0.010 0.005-0.015 0.016-0.020l0.078-0.055c0.020-0.010 0.042-0.024 0.063-0.040 0.020-0.015 0.036-0.028 0.047-0.040 0.010 0 0.018 0 0.023-0.006h0.008c0.073-0.040 0.15-0.080 0.227-0.13l0.243-0.15c0.145-0.080 0.295-0.17 0.445-0.25 0.16-0.080 0.3-0.17 0.45-0.25 0.31-0.16 0.62-0.31 0.93-0.45 0.32-0.15 0.64-0.29 0.95-0.41 0.34-0.13 0.67-0.25 1-0.36 0.33-0.12 0.67-0.23 1.020-0.32l0.030-0.020v0.030c0.050 0.21 0.12 0.4 0.23 0.59 0.11 0.18 0.24 0.34 0.39 0.49 0.19 0.16 0.4 0.29 0.64 0.39 0.24 0.090 0.49 0.14 0.74 0.14 0.030 0 0.060-0.010 0.090-0.010 0.024-0.010 0.053-0.010 0.084-0.010 0.25-0.020 0.494-0.090 0.73-0.21 0.234-0.12 0.44-0.27 0.617-0.46 0.2-0.22 0.35-0.47 0.43-0.75 0.090-0.28 0.12-0.58 0.070-0.88l0.030-0.010 0.68-0.030c0.23-0.010 0.45-0.010 0.68-0.010h0.43c0.37 0.010 0.73 0.030 1.090 0.050s0.72 0.060 1.080 0.1c0.35 0.040 0.69 0.090 1.030 0.15s0.67 0.13 1.010 0.22l0.090 0.030 0.12 0.030c0.040 0.010 0.080 0.020 0.11 0.040h0.010c0.010 0 0.020 0.010 0.030 0.010l0.020 0.010z"></path>
</svg>
