<!-- Generated by IcoMoon.io -->
<svg version="1.1" xmlns="http://www.w3.org/2000/svg" width="16" height="16" viewBox="0 0 16 16">
<title>brand13</title>
<path fill="#7d8084" d="M0.825 4.83v6.342c0 0.535 0.378 1.189 0.84 1.455l5.495 3.173c0.462 0.267 1.218 0.267 1.68 0l5.495-3.181c0.462-0.26 0.84-0.92 0.84-1.45v-6.34c0-0.535-0.378-1.188-0.84-1.455l-5.495-3.174c-0.462-0.267-1.218-0.267-1.68 0l-5.495 3.174c-0.462 0.266-0.84 0.921-0.84 1.456zM10.288 11.413l-0.458-0.923h-3.668l-0.45 0.923h-2.19l3.6-7.36c0.203-0.405 0.518-0.6 0.878-0.6s0.69 0.218 0.878 0.593l3.6 7.367h-2.19zM10.948 10.505l-2.948-5.995v1.65l1.68 3.452h-4.193l2.513-5.1v-0.826c-0.323 0.022-0.503 0.195-0.66 0.473l-3.43 6.99h1.644l-0.502-0.64 0.435-0.91 0.517 0.64h3.984l0.45 0.9h1.65l-1.14-0.66zM8.983 8.75l-0.983-2.033-0.983 2.033h1.966z"></path>
</svg>
