<!-- Generated by IcoMoon.io -->
<svg version="1.1" xmlns="http://www.w3.org/2000/svg" width="16" height="16" viewBox="0 0 16 16">
<title>brand181</title>
<path fill="#00457c" d="M4.613 16h-2.070c-0.443 0-0.724-0.354-0.624-0.786l0.1-0.45h1.381c0.444 0 0.89-0.355 0.988-0.787l0.71-3.062c0.1-0.432 0.544-0.786 0.987-0.786h0.588c2.526 0 4.49-0.52 5.894-1.56s2.106-2.4 2.106-4.090c0-0.75-0.13-1.37-0.392-1.86 0-0.010-0.010-0.020-0.010-0.030l0.090 0.050c0.5 0.31 0.88 0.71 1.14 1.21 0.27 0.5 0.4 1.12 0.4 1.86 0 1.69-0.7 3.050-2.11 4.090-1.4 1.030-3.37 1.55-5.89 1.55h-0.6c-0.44 0-0.89 0.35-0.99 0.79l-0.71 3.070c-0.1 0.43-0.54 0.78-0.98 0.78zM2.828 14.203h-2.070c-0.442 0-0.723-0.353-0.624-0.786l2.916-12.63c0.1-0.434 0.543-0.787 0.986-0.787h4.31c0.93 0 1.74 0.065 2.433 0.192 0.69 0.127 1.28 0.346 1.79 0.66 0.49 0.31 0.88 0.715 1.13 1.213 0.26 0.498 0.39 1.12 0.39 1.864 0 1.69-0.7 3.050-2.11 4.080-1.4 1.040-3.37 1.55-5.89 1.55h-0.589c-0.44 0-0.886 0.35-0.985 0.78l-0.707 3.060c-0.1 0.43-0.545 0.78-0.99 0.78zM7.792 2.623h-0.676c-0.444 0-0.888 0.353-0.987 0.785l-0.62 2.68c-0.1 0.433 0.18 0.786 0.62 0.786h0.51c1.11 0 1.98-0.228 2.6-0.68 0.62-0.457 0.93-1.103 0.93-1.942 0-0.553-0.2-0.963-0.6-1.226-0.4-0.27-1-0.404-1.79-0.404z"></path>
</svg>
