<!-- Generated by IcoMoon.io -->
<svg version="1.1" xmlns="http://www.w3.org/2000/svg" width="16" height="16" viewBox="0 0 16 16">
<title>brand198</title>
<path fill="#b92b27" d="M8.49 12.476c-0.554-1.090-1.204-2.193-2.473-2.193-0.242 0-0.485 0.040-0.707 0.14l-0.43-0.86c0.524-0.452 1.373-0.81 2.464-0.81 1.697 0 2.568 0.82 3.26 1.862 0.41-0.89 0.604-2.094 0.604-3.585 0-3.724-1.164-5.636-3.884-5.636-2.68 0-3.84 1.912-3.84 5.636 0 3.704 1.16 5.596 3.84 5.596 0.426 0 0.812-0.046 1.166-0.15zM9.155 13.776c-0.588 0.157-1.212 0.244-1.83 0.244-3.57 0-7.065-2.848-7.065-6.99 0-4.18 3.494-7.030 7.064-7.030 3.63 0 7.090 2.828 7.090 7.030 0 2.337-1.090 4.236-2.675 5.464 0.51 0.767 1.030 1.277 1.77 1.277 0.8 0 1.12-0.61 1.18-1.1h1.040c0.060 0.65-0.27 3.34-3.18 3.34-1.77 0-2.7-1.020-3.4-2.22z"></path>
</svg>
