<!-- Generated by IcoMoon.io -->
<svg version="1.1" xmlns="http://www.w3.org/2000/svg" width="16" height="16" viewBox="0 0 16 16">
<title>brand292</title>
<path fill="#005a5f" d="M12.126 0c-0.345 0-0.494 0.217-0.618 0.44 0 0-4.97 8.816-5.135 9.105 0.010 0.016 3.28 6.015 3.28 6.015 0.113 0.205 0.29 0.44 0.644 0.44h2.303c0.14 0 0.25-0.052 0.308-0.147 0.060-0.1 0.060-0.23-0.005-0.357l-3.253-5.944c-0.003-0.004-0.003-0.010 0-0.015l5.11-9.033c0.063-0.128 0.064-0.258 0.004-0.357-0.060-0.095-0.168-0.147-0.307-0.147h-2.33zM2.432 3.16c-0.14 0-0.256 0.050-0.315 0.144-0.060 0.1-0.052 0.226 0.013 0.354l1.56 2.7c0.003 0.006 0.003 0.010 0 0.014l-2.45 4.328c-0.065 0.126-0.062 0.254 0 0.353 0.057 0.095 0.16 0.157 0.3 0.157h2.308c0.345 0 0.51-0.232 0.63-0.445l2.49-4.406-1.586-2.77c-0.115-0.21-0.29-0.44-0.642-0.44h-2.308z"></path>
</svg>
