<!-- Generated by IcoMoon.io -->
<svg version="1.1" xmlns="http://www.w3.org/2000/svg" width="16" height="16" viewBox="0 0 16 16">
<title>brand193</title>
<path fill="#ef145f" d="M14.605 3.508c-0.485-0.724-1.29-1.55-2.1-2.086-1.682-1.152-3.63-1.56-5.353-1.382-1.797 0.194-3.335 0.87-4.6 2-1.172 1.046-1.946 2.325-2.287 3.546-0.344 1.22-0.298 2.35-0.175 3.2 0.13 0.863 0.56 1.95 0.56 1.95 0.088 0.208 0.21 0.293 0.273 0.328 0.314 0.172 0.83 0.020 1.226-0.424 0.020-0.027 0.030-0.065 0.020-0.097-0.11-0.426-0.15-0.746-0.19-0.994-0.090-0.49-0.13-1.31-0.070-2.070 0.030-0.41 0.11-0.85 0.25-1.31 0.27-0.91 0.84-1.86 1.73-2.65 0.96-0.85 2.19-1.375 3.36-1.51 0.41-0.050 1.19-0.097 2.13 0.135 0.2 0.050 1.060 0.274 1.98 0.897 0.67 0.455 1.21 1.017 1.58 1.573 0.38 0.53 0.79 1.425 0.91 2.080 0.17 0.746 0.17 1.536 0.050 2.306-0.15 0.77-0.42 1.52-0.84 2.18-0.29 0.51-0.89 1.187-1.6 1.694-0.64 0.45-1.37 0.775-2.12 0.954-0.38 0.090-0.76 0.147-1.15 0.16-0.347 0.010-0.807 0-1.13-0.054-0.48-0.076-0.58-0.2-0.69-0.366 0 0-0.076-0.12-0.098-0.44 0.007-2.933 0.006-2.15 0.006-3.672 0-0.43-0.015-0.82-0.010-1.174 0.020-0.582 0.070-0.98 0.485-1.414 0.3-0.318 0.72-0.51 1.183-0.51 0.14 0 0.624 0.006 1.050 0.36 0.456 0.38 0.532 0.9 0.55 1.040 0.104 0.814-0.434 1.42-0.64 1.574-0.256 0.192-0.485 0.285-0.64 0.34-0.33 0.11-0.693 0.142-1.020 0.12-0.050-0.003-0.095 0.030-0.105 0.080l-0.11 0.57c-0.107 0.433 0.134 0.59 0.273 0.646 0.447 0.138 0.843 0.195 1.312 0.16 0.72-0.050 1.43-0.333 2.032-0.895 0.512-0.488 0.805-1.088 0.905-1.76 0.1-0.747-0.030-1.55-0.37-2.23-0.374-0.75-1.020-1.377-1.87-1.72-0.86-0.338-1.544-0.35-2.425-0.125l-0.010 0.003c-0.573 0.197-1.064 0.44-1.573 0.967-0.35 0.363-0.636 0.803-0.81 1.3-0.173 0.5-0.22 0.873-0.228 1.454-0.010 0.43 0.010 0.83 0.010 1.203v2.464c0 0.788-0.027 0.925 0 1.33 0.015 0.27 0.052 0.574 0.17 0.9 0.12 0.36 0.375 0.73 0.55 0.9 0.244 0.26 0.555 0.47 0.86 0.6 0.7 0.31 1.65 0.36 2.42 0.33 0.51-0.020 1.023-0.090 1.526-0.21 1.005-0.24 1.97-0.673 2.82-1.276 0.91-0.642 1.7-1.517 2.137-2.26 0.56-0.882 0.922-1.873 1.11-2.89 0.17-1.020 0.162-2.066-0.065-3.070-0.18-0.933-0.66-1.955-1.214-2.78z"></path>
</svg>
