<!-- Generated by IcoMoon.io -->
<svg version="1.1" xmlns="http://www.w3.org/2000/svg" width="16" height="16" viewBox="0 0 16 16">
<title>brand125</title>
<path d="M8.017 16c0.32-0.003 0.636-0.020 0.952-0.062 0.72-0.092 1.43-0.29 2.1-0.576 0.94-0.402 1.8-0.982 2.53-1.698 0.67-0.66 1.23-1.436 1.63-2.287 0.34-0.732 0.58-1.518 0.68-2.32 0.1-0.774 0.090-1.565-0.030-2.335-0.1-0.64-0.28-1.265-0.53-1.86-0.16-0.374-0.35-0.735-0.57-1.080-0.779-1.226-1.909-2.212-3.209-2.87-0.463-0.237-0.95-0.43-1.45-0.58h-0.003c0.080 0.042 0.16 0.088 0.23 0.134 0.080 0.050 0.16 0.098 0.234 0.15 0.38 0.257 0.73 0.552 1.040 0.888 0.71 0.763 1.2 1.7 1.48 2.696 0.19 0.656 0.29 1.334 0.33 2.014 0.030 0.496 0.030 0.995-0.030 1.488-0.1 0.847-0.37 1.675-0.82 2.4-0.33 0.535-0.76 1.013-1.27 1.39-0.83 0.62-1.92 0.99-2.96 0.744-0.17-0.040-0.34-0.098-0.5-0.172-0.18-0.083-0.36-0.185-0.52-0.3-0.31-0.207-0.59-0.457-0.83-0.738-0.29-0.347-0.53-0.742-0.7-1.166-0.21-0.538-0.32-1.116-0.33-1.695-0.020-0.85 0.15-1.704 0.57-2.45 0.28-0.496 0.66-0.932 1.11-1.28 0.15-0.118 0.31-0.222 0.47-0.32l0.010-0.004c-0.31-0.070-0.64-0.1-0.96-0.080-0.28 0.020-0.55 0.070-0.82 0.16-0.24 0.080-0.47 0.18-0.68 0.3-0.17 0.1-0.34 0.21-0.49 0.33-0.14 0.12-0.28 0.24-0.41 0.37-0.75 0.77-1.18 1.79-1.35 2.84-0.1 0.65-0.1 1.31-0.060 1.97 0.070 0.93 0.26 1.86 0.63 2.71 0.23 0.53 0.53 1.020 0.9 1.45 0.57 0.66 1.29 1.17 2.090 1.49 0.45 0.18 0.93 0.31 1.41 0.36 0.050 0.010 0.1 0.010 0.14 0.010zM6.059 15.735c-0.11-0.047-0.21-0.1-0.3-0.152-0.1-0.055-0.2-0.113-0.3-0.173-0.39-0.242-0.74-0.525-1.060-0.852-0.73-0.758-1.22-1.712-1.5-2.723-0.19-0.69-0.29-1.402-0.33-2.116-0.030-0.47-0.020-0.93 0.030-1.39 0.090-0.84 0.33-1.67 0.75-2.39 0.3-0.53 0.71-1 1.19-1.37 0.33-0.25 0.7-0.46 1.090-0.6 0.55-0.2 1.14-0.26 1.71-0.18 0.22 0.030 0.44 0.080 0.64 0.15 0.020 0 0.020 0 0.030 0.020 0.010 0.010 0.030 0.010 0.040 0.020 0.030 0.010 0.070 0.030 0.11 0.050 0.16 0.080 0.32 0.18 0.47 0.28 0.6 0.42 1.090 1 1.4 1.67 0.28 0.61 0.41 1.29 0.42 1.96 0.010 0.72-0.12 1.44-0.43 2.1-0.37 0.79-1 1.46-1.76 1.89 0.060 0.020 0.12 0.030 0.18 0.050 0.15 0.030 0.3 0.050 0.46 0.050 0.98 0.030 1.93-0.44 2.63-1.1 0.13-0.12 0.25-0.25 0.36-0.39 0.15-0.18 0.29-0.36 0.41-0.55 0.16-0.25 0.29-0.5 0.41-0.77 0.15-0.36 0.27-0.73 0.34-1.11 0.13-0.67 0.14-1.35 0.1-2.020-0.090-1.35-0.45-2.7-1.23-3.82-0.12-0.17-0.24-0.33-0.37-0.48-0.22-0.25-0.46-0.48-0.71-0.69-0.28-0.23-0.59-0.44-0.91-0.61-0.329-0.149-0.719-0.299-1.129-0.399l-0.2-0.040c-0.14-0.020-0.28-0.030-0.423-0.040-0.217-0.010-0.447-0.007-0.677 0.010-0.47 0.030-0.943 0.106-1.41 0.224-2.24 0.578-4.2 2.14-5.243 4.21-0.334 0.66-0.57 1.366-0.708 2.090-0.16 0.83-0.18 1.684-0.070 2.52 0.080 0.68 0.25 1.35 0.52 1.987 0.15 0.38 0.34 0.75 0.55 1.1 0.73 1.19 1.79 2.16 3.010 2.83 0.46 0.26 0.94 0.46 1.44 0.63 0.15 0.050 0.3 0.1 0.46 0.14z"></path>
</svg>
