<!-- Generated by IcoMoon.io -->
<svg version="1.1" xmlns="http://www.w3.org/2000/svg" width="16" height="16" viewBox="0 0 16 16">
<title>brand230</title>
<path fill="#fa6423" d="M10.8 6c-0.9 0.6-1.2 1.8-1.1 2.6-1.5-1.5 2.3-5.7-2-8.6 2.4 3.6-3.7 6.5-3.7 11.6 0 2 1.3 3.8 4 4.4 2.7-0.6 4-2.4 4-4.4 0-3-1.8-4-1.2-5.6zM8 13.9c-1.2 0-2.3-1-2.3-2.3 0-1.2 1-2.3 2.3-2.3 1.2 0 2.3 1 2.3 2.3-0.1 1.3-1.1 2.3-2.3 2.3zM-6.6 33.5c-0.8 0.6-1.2 1.9-1.1 2.7-1.4-1.6 2.3-5.8-2-8.6 2.4 3.6-3.7 6.5-3.7 11.6 0 2 1.3 3.8 4 4.4 2.7-0.6 4-2.4 4-4.4 0-3.1-1.8-4.1-1.2-5.7zM-9.4 41.4c-1.2 0-2.3-1-2.3-2.3 0-1.2 1-2.3 2.3-2.3 1.2 0 2.3 1 2.3 2.3s-1.1 2.3-2.3 2.3zM-14.7 33.5c-0.8 0.6-1.2 1.9-1.1 2.7-1.4-1.6 2.3-5.8-2-8.6 2.4 3.6-3.7 6.5-3.7 11.6 0 2 1.3 3.8 4 4.4 2.7-0.6 4-2.4 4-4.4 0.1-3.1-1.7-4.1-1.2-5.7zM-17.5 41.8c-1.4 0-2.6-1.2-2.6-2.6s1.2-2.6 2.6-2.6c1.4 0 2.6 1.2 2.6 2.6s-1.1 2.6-2.6 2.6z"></path>
</svg>
