<!-- Generated by IcoMoon.io -->
<svg version="1.1" xmlns="http://www.w3.org/2000/svg" width="16" height="16" viewBox="0 0 16 16">
<title>brand33</title>
<path fill="#204056" d="M15.885 13.152h-3.73c-0.062 0-0.113 0.040-0.113 0.115v1.010c0 0.063 0.038 0.114 0.114 0.114h3.73c0.063 0 0.114-0.030 0.114-0.11v-1.010c0-0.070-0.038-0.11-0.115-0.11zM10.975 1.644c0.010 0.023 0.020 0.046 0.032 0.080v12.526c0 0.040-0.013 0.064-0.025 0.077-0.026 0.026-0.050 0.040-0.090 0.040h-10.79c-0.025 0-0.050 0-0.064-0.014-0.025-0.026-0.038-0.050-0.038-0.090v-12.553c0-0.050 0.026-0.088 0.064-0.1h10.828c0.026 0 0.064 0.012 0.077 0.024v0.010zM1.212 13.050c0 0.050 0.026 0.090 0.064 0.102h8.428c0.038-0.012 0.064-0.050 0.064-0.102v-10.113c0-0.050-0.027-0.090-0.065-0.102h-8.426c-0.038 0.013-0.064 0.050-0.064 0.102v10.113zM4.622 7.42c0.434 0 0.715 0.165 0.97 0.46 0.038 0.050 0.102 0.063 0.153 0.024l0.69-0.613c0.050-0.030 0.038-0.11 0.013-0.15-0.423-0.51-1.036-0.83-1.827-0.83-1.060 0-1.86 0.53-2.17 1.47-0.11 0.33-0.16 0.75-0.16 1.32s0.050 0.99 0.17 1.32c0.31 0.95 1.11 1.47 2.17 1.47 0.8 0 1.41-0.32 1.83-0.81 0.030-0.050 0.040-0.11-0.010-0.15l-0.69-0.61c-0.050-0.030-0.11-0.030-0.15 0.020-0.26 0.3-0.53 0.46-0.97 0.46-0.47 0-0.83-0.23-0.98-0.69-0.090-0.26-0.11-0.58-0.11-0.99s0.030-0.71 0.12-0.98c0.16-0.44 0.51-0.67 0.99-0.67z"></path>
</svg>
