<!-- Generated by IcoMoon.io -->
<svg version="1.1" xmlns="http://www.w3.org/2000/svg" width="16" height="16" viewBox="0 0 16 16">
<title>brand283</title>
<path fill="#7bb32e" d="M15.693 8.5c-0.406-0.92-1.172-1.65-2.060-2.1-1.57-0.795-3.522-0.79-5.086 0.020-1.088 0.558-1.995 1.558-2.253 2.775-0.213 0.896-0.022 1.86 0.453 2.64 0.707 1.175 1.985 1.925 3.313 2.165 0.963 0.196 1.958 0.080 2.893-0.19 0.56 0.218 1.060 0.57 1.605 0.83-0.14-0.47-0.29-0.937-0.45-1.4 0.61-0.434 1.163-0.974 1.496-1.652 0.496-0.945 0.526-2.115 0.090-3.087zM9.078 2.19c-1.663-0.936-3.735-1.077-5.524-0.43-1.175 0.423-2.24 1.21-2.897 2.28-0.596 0.967-0.82 2.172-0.532 3.278 0.288 1.227 1.14 2.255 2.174 2.942-0.2 0.566-0.39 1.133-0.57 1.703 0.65-0.34 1.3-0.695 1.95-1.040 0.78 0.25 1.61 0.372 2.44 0.345-0.22-0.63-0.27-1.31-0.17-1.968 0.15-0.914 0.65-1.75 1.33-2.37 1.15-1.076 2.78-1.53 4.33-1.42-0.29-1.423-1.29-2.626-2.55-3.32zM10.232 8.85c-0.138 0.434-0.77 0.565-1.076 0.234-0.337-0.306-0.206-0.946 0.236-1.082 0.49-0.207 1.055 0.358 0.84 0.848zM13.429 8.91c-0.17 0.392-0.76 0.482-1.050 0.18-0.14-0.127-0.18-0.318-0.23-0.487 0.070-0.305 0.28-0.622 0.62-0.636 0.47-0.065 0.89 0.515 0.65 0.943zM8.66 4.608c0.005 0.64-0.85 1.040-1.33 0.606-0.498-0.357-0.357-1.225 0.228-1.405 0.523-0.21 1.142 0.23 1.1 0.79zM4.62 4.77c-0.114 0.557-0.86 0.826-1.297 0.452-0.506-0.356-0.364-1.24 0.23-1.42 0.582-0.224 1.243 0.367 1.068 0.968z"></path>
</svg>
