<!-- Generated by IcoMoon.io -->
<svg version="1.1" xmlns="http://www.w3.org/2000/svg" width="16" height="16" viewBox="0 0 16 16">
<title>brand256</title>
<path fill="#c5000b" d="M8 0c-4.418 0-8 3.58-8 8s3.582 8 8 8c4.42 0 8-3.58 8-8s-3.58-8-8-8zM8 12.103c-2.158 0-3.91-1.75-3.91-3.91 0-1.802 1.22-3.318 2.877-3.772v1.14c-1.053 0.409-1.797 1.439-1.797 2.639 0 1.563 1.267 2.83 2.83 2.83s2.83-1.267 2.83-2.83c0-1.2-0.744-2.223-1.796-2.636v-1.144c1.657 0.455 2.876 1.97 2.876 3.773 0 2.16-1.75 3.91-3.91 3.91zM7.44 8.687v-5.573h1.12v5.573h-1.12z"></path>
</svg>
