<!-- Generated by IcoMoon.io -->
<svg version="1.1" xmlns="http://www.w3.org/2000/svg" width="16" height="16" viewBox="0 0 16 16">
<title>brand142</title>
<path fill="#cf202e" d="M14.070 4.2l0.027 0.002 0.027 0.004 0.026 0.007 0.027 0.010 0.025 0.013 0.026 0.015 0.048 0.040 0.025 0.030 0.030 0.030 0.020 0.030 0.030 0.030 0.050 0.080 0.020 0.040 0.080 0.2 0.080 0.24 0.12 0.42 0.040 0.16 0.020 0.090 0.010 0.080 0.040 0.18 0.010 0.090 0.020 0.1 0.020 0.2 0.020 0.1 0.020 0.2 0.050 0.55 0.010 0.12 0.010 0.23 0.040 0.48 0.050 0.65v0.26l0.020 0.28v0.27l0.010 0.14v0.41l0.010 0.28 0.010 0.42v0.85l0.010 0.25 0.020 0.18 0.030 0.12 0.030 0.080 0.030 0.070 0.040 0.060 0.090 0.090 0.1 0.050 0.060 0.020 0.064 0.020 0.095 0.020 0.13 0.007 0.18-0.010h0.070v1.51l-0.16 0.020-0.38 0.017-0.41-0.020-0.3-0.044-0.23-0.060-0.17-0.060-0.16-0.080-0.158-0.1-0.14-0.123-0.090-0.090-0.090-0.1-0.115-0.18-0.1-0.21-0.080-0.23-0.055-0.27-0.036-0.306-0.010-0.34v-1.3l-0.010-0.28v-0.58l-0.010-0.27v-0.192l-0.010-0.134v-0.266l-0.010-0.13v-0.13l-0.004-0.13-0.010-0.13-0.010-0.12-0.002-0.12-0.010-0.12-0.010-0.122v-0.12l-0.020-0.24-0.008-0.12-0.020-0.228-0.010-0.11-0.010-0.113-0.010-0.107-0.020-0.22-0.020-0.2-0.010-0.106-0.010-0.094-0.010-0.090-0.030-0.187-0.020-0.18-0.020-0.084-0.018-0.090-0.060-0.24-0.024-0.069-0.040-0.14-0.030-0.060-0.020-0.070-0.020-0.060-0.015-0.060-0.040-0.12-0.060-0.15-0.060-0.12-0.030-0.040-0.020-0.030-0.025-0.030-0.020-0.030-0.027-0.020-0.020-0.020-0.030-0.020-0.020-0.010-0.090-0.030-0.020-0.010h1.69zM0.005 2.078l0.784 0.014 0.73 0.017 0.65 0.010 0.57 0.020 0.49 0.020 0.43 0.020 0.38 0.020 0.34 0.020 0.31 0.030 0.28 0.030 0.26 0.030 0.24 0.030 0.22 0.030 0.21 0.030 0.19 0.040 0.18 0.040 0.17 0.040 0.16 0.040 0.15 0.040 0.14 0.040 0.13 0.050 0.13 0.040 0.12 0.050 0.22 0.1 0.1 0.050 0.11 0.050 0.1 0.060 0.18 0.12 0.32 0.24 0.070 0.060 0.070 0.070 0.070 0.060 0.070 0.070 0.12 0.14 0.070 0.070 0.12 0.14 0.050 0.070 0.060 0.070 0.050 0.080 0.050 0.070 0.2 0.32 0.080 0.16 0.050 0.080 0.16 0.32 0.030 0.080 0.032 0.080 0.040 0.090 0.033 0.080 0.040 0.090 0.040 0.080 0.030 0.080 0.040 0.090 0.036 0.090 0.030 0.080 0.034 0.090 0.030 0.080 0.15 0.45 0.020 0.090 0.030 0.090 0.026 0.090 0.020 0.090 0.026 0.090 0.020 0.090 0.027 0.090 0.020 0.090 0.030 0.090 0.020 0.080 0.030 0.090v0.010l0.020 0.080 0.020 0.085 0.040 0.18 0.020 0.080 0.040 0.18 0.030 0.080 0.020 0.090 0.020 0.080 0.020 0.090 0.22 0.88 0.010 0.080 0.020 0.070 0.030 0.15 0.060 0.21 0.015 0.070 0.020 0.070 0.010 0.070 0.040 0.14 0.010 0.070 0.020 0.070 0.020 0.060 0.020 0.065 0.010 0.060 0.020 0.060 0.030 0.18 0.010 0.050 0.010 0.060 0.010 0.058 0.020 0.1 0.010 0.052 0.016 0.050 0.020 0.1 0.010 0.046 0.010 0.040 0.016 0.050 0.016 0.040 0.010 0.044 0.050 0.2 0.010 0.030 0.020 0.034 0.030 0.090 0.020 0.030 0.010 0.030 0.025 0.050 0.010 0.026 0.060 0.12 0.050 0.050 0.020 0.010 0.010 0.003 0.010 0.010h-4.691l-0.034-0.010-0.076-0.020-0.080-0.020h-0.010l-0.035-0.016-0.037-0.010-0.037-0.020-0.040-0.020-0.030-0.020-0.040-0.020-0.030-0.020-0.040-0.020-0.060-0.060-0.040-0.030-0.030-0.030-0.040-0.030-0.040-0.040-0.040-0.037-0.030-0.040-0.040-0.036-0.040-0.030-0.080-0.080-0.030-0.040-0.041-0.003-0.040-0.040-0.030-0.046-0.040-0.045-0.12-0.15-0.030-0.050-0.040-0.060-0.040-0.050-0.040-0.060-0.040-0.050-0.28-0.42-0.040-0.070-0.040-0.060-0.030-0.070-0.44-0.77-0.32-0.64-0.090-0.019-0.042-0.082-0.040-0.082-0.080-0.166-0.043-0.084-0.040-0.085-0.040-0.080-0.043-0.080-0.040-0.080-0.042-0.080-0.040-0.080-0.042-0.1-0.040-0.090-0.042-0.080-0.043-0.080-0.040-0.090-0.042-0.080-0.040-0.090-0.040-0.080-0.2-0.45-0.040-0.080-0.28-0.63-0.040-0.1-0.040-0.080-0.040-0.090-0.080-0.16-0.050-0.080-0.040-0.090-0.050-0.080-0.040-0.080-0.050-0.080-0.16-0.32-0.041-0.091-0.16-0.32-0.1-0.16-0.090-0.153-0.040-0.080-0.050-0.074-0.050-0.080-0.040-0.075-0.040-0.070-0.084-0.14-0.050-0.070-0.080-0.14-0.040-0.060-0.040-0.070-0.043-0.070-0.044-0.060-0.040-0.060-0.1-0.12-0.040-0.060-0.050-0.060-0.059-0.078-0.045-0.052-0.046-0.052-0.040-0.050-0.039-0.066-0.050-0.050-0.044-0.040-0.050-0.046-0.042-0.044-0.050-0.054-0.044-0.040-0.043-0.040-0.045-0.040-0.045-0.035-0.094-0.060-0.043-0.040-0.050-0.030-0.040-0.030-0.050-0.030-0.044-0.020-0.046-0.020-0.047-0.020-0.048-0.020-0.045-0.021-0.040-0.015-0.040-0.005h0.005z"></path>
</svg>
