<!-- Generated by IcoMoon.io -->
<svg version="1.1" xmlns="http://www.w3.org/2000/svg" width="16" height="16" viewBox="0 0 16 16">
<title>brand120</title>
<path fill="#c00" d="M5.382 16c-0.232 0-0.46-0.042-0.68-0.126-0.917-0.35-1.402-1.346-1.15-2.268l-0.010-0.005 0.060-0.15 4.664-12.111c0.070-0.18 0.037-0.607 0.004-0.845-0.010-0.056-0.010-0.107 0.005-0.16l0.005-0.015 0.004-0.010v-0.005l0.006-0.012c0.072-0.195 0.3-0.293 0.673-0.293 0.448 0 1.067 0.14 1.7 0.382 0.532 0.205 1.016 0.46 1.356 0.717 0.4 0.3 0.56 0.57 0.47 0.8l-0.020 0.030-0.010 0.010c-0.030 0.040-0.060 0.080-0.1 0.11-0.21 0.18-0.51 0.49-0.56 0.63l-4.709 12.281-0.010-0.004c-0.33 0.632-0.972 1.037-1.695 1.040h-0.005zM3.924 13.522l-0.014 0.033c-0.298 0.8 0.108 1.704 0.91 2.012 0.18 0.070 0.367 0.102 0.558 0.102 0.647 0 1.22-0.39 1.458-1l0.018-0.040 4.64-12.060c0.097-0.26 0.56-0.68 0.652-0.76l0.010-0.010c0.008-0.010 0.013-0.010 0.013-0.020 0-0.040-0.040-0.18-0.37-0.43-0.32-0.24-0.77-0.48-1.27-0.67-0.579-0.219-1.179-0.359-1.579-0.359-0.26 0-0.35 0.054-0.363 0.084v0.026c0.010 0.070 0.098 0.69-0.023 1.010l-4.64 12.080zM9.89 5.85s-0.642 0.74-1.228 1.006c-0.587 0.266-1.020 0.196-1.547 0.504-0.526 0.307-0.792 0.735-0.792 0.735l-2.143 5.575c-0.232 0.63 0.112 1.366 0.75 1.613 0.64 0.247 1.36-0.080 1.608-0.704l3.352-8.729zM6.603 12.507c0.070-0.028 0.15 0 0.177 0.070 0.028 0.070 0 0.148-0.070 0.176s-0.15 0-0.177-0.070c-0.028-0.065 0-0.144 0.070-0.176zM5.927 11.305c-0.102 0.046-0.223 0-0.265-0.103-0.047-0.102 0-0.223 0.102-0.265 0.103-0.047 0.224 0 0.266 0.102 0.050 0.1 0.005 0.21-0.103 0.26zM6.117 10.575c-0.082-0.192 0-0.416 0.192-0.505 0.19-0.083 0.41 0 0.5 0.19 0.080 0.192 0 0.416-0.19 0.504-0.2 0.084-0.42 0-0.51-0.19zM7.735 9.070c0.102-0.050 0.223 0 0.265 0.1 0.047 0.103 0 0.224-0.102 0.266-0.103 0.047-0.224 0-0.266-0.103-0.050-0.102 0-0.223 0.103-0.265zM6.873 8.15c0.070-0.028 0.15 0 0.177 0.070 0.028 0.070 0 0.15-0.070 0.177-0.070 0.028-0.15 0-0.177-0.070-0.028-0.070 0.005-0.15 0.070-0.177zM9.12 0.76c0.066-0.174 0.662-0.108 1.33 0.15 0.666 0.256 1.153 0.606 1.086 0.78-0.068 0.176-0.664 0.11-1.33-0.146-0.67-0.257-1.156-0.607-1.088-0.784z"></path>
</svg>
