<!-- Generated by IcoMoon.io -->
<svg version="1.1" xmlns="http://www.w3.org/2000/svg" width="16" height="16" viewBox="0 0 16 16">
<title>brand191</title>
<path fill="#ef3f56" d="M12.533 6.84l-3.763 3.61c-0.213 0.204-0.486 0.306-0.76 0.306s-0.547-0.102-0.76-0.306l-3.762-3.61c-0.437-0.418-0.45-1.113-0.032-1.55 0.42-0.438 1.114-0.452 1.55-0.033l3.005 2.88 3.010-2.88c0.44-0.42 1.13-0.405 1.55 0.032 0.42 0.43 0.41 1.13-0.030 1.55zM15.921 1.812c-0.2-0.572-0.75-0.956-1.36-0.956h-13.111c-0.6 0-1.144 0.376-1.357 0.936-0.063 0.166-0.095 0.34-0.095 0.515v4.828l0.055 0.96c0.232 2.184 1.365 4.092 3.12 5.423 0.030 0.024 0.063 0.047 0.095 0.070l0.020 0.015c0.94 0.687 1.992 1.152 3.128 1.382 0.524 0.105 1.060 0.16 1.592 0.16 0.492 0 0.986-0.046 1.472-0.136 0.058-0.020 0.116-0.030 0.175-0.040 0.016 0 0.033-0.010 0.050-0.020 1.088-0.24 2.098-0.69 3.004-1.35l0.020-0.020 0.090-0.070c1.75-1.33 2.88-3.24 3.12-5.43l0.050-0.96v-4.819c0-0.167-0.020-0.333-0.080-0.495z"></path>
</svg>
