<!-- Generated by IcoMoon.io -->
<svg version="1.1" xmlns="http://www.w3.org/2000/svg" width="16" height="16" viewBox="0 0 16 16">
<title>brand81</title>
<path fill="#467126" d="M8.827 0.002v1.548c0.86 0.107 1.958 0.415 2.984 1.197l-0.79 1.072-0.010-0.010s-0.82-0.7-2.18-0.92v4.28h4.22c-0.080-0.61-0.29-1.34-0.77-2.080l1.13-0.75s0.84 1.14 1.020 2.83h1.569v-7.169h-7.173zM11.717 15.47l-0.4 0.065-0.87-5.363 0.232-0.037 4.37-0.010-3.77 2.71 0.42 2.636zM8.825 8.826v7.174h7.172v-7.173l-7.172-0.002zM4.303 13.328l0.79-1.070h0.012s0.775 0.658 2.068 0.895v-4.328h-4.113c0.073 0.622 0.28 1.384 0.783 2.157l-1.123 0.746s-0.864-1.174-1.020-2.904h-1.7v7.173h7.173v-1.487c-0.842-0.12-1.89-0.432-2.87-1.18zM3.318 1.312c-0.113 0-0.206 0.070-0.206 0.156s0.092 0.155 0.206 0.155c0.113 0 0.205-0.070 0.206-0.155 0-0.086-0.093-0.156-0.206-0.156z"></path>
<path fill="#467126" d="M3.337 1.74c-0.334 0-0.604-0.27-0.604-0.6s0.27-0.598 0.604-0.598c0.334 0 0.604 0.27 0.604 0.6s-0.27 0.598-0.6 0.598zM2.447 1.78l-0.692 0.35c-0.062-0.076-0.11-0.137-0.16-0.206l-0.873 0.326-0.184-0.29 2.158-0.447-0.413 0.154c0.053 0.040 0.098 0.073 0.163 0.114zM1.117 0.51c0.252 0.383 0.55 0.698 0.934 0.988l-0.67 0.12c-0.251-0.358-0.471-0.706-0.671-1.133l0.406 0.024zM0 0v7.173h1.605c-0.068-0.656-0.14-2.537 0.988-4.098 0 0-0.25-0.24-0.587-0.634l-0.736 0.63-0.318-0.27 1.912-1.090-0.225 0.19c0.27 0.16 0.54 0.28 0.81 0.37 0 0 0.93-0.52 1.85-1.77l0.22 0.010c-0.17 0.56-0.7 1.52-1.53 2.29 0 0 2.2 0.96 2.7 2.59-0.14-0.080-0.93-0.25-1.32-0.16-0.070-0.11-0.81-1.62-1.93-1.6 0 0-0.25 0.3-0.49 1.080-0.21 0.69-0.12 2.14-0.090 2.48h4.3v-7.191h-7.159z"></path>
</svg>
