<!-- Generated by IcoMoon.io -->
<svg version="1.1" xmlns="http://www.w3.org/2000/svg" width="16" height="16" viewBox="0 0 16 16">
<title>brand122</title>
<path d="M13.418 4.238c-0.053-0.044-0.114-0.060-0.185-0.060-0.035 0-0.070 0.007-0.106 0.016-0.65 0.247-1.303 0.44-1.912 0.573-0.123 0.026-0.22 0.123-0.264 0.23-0.44 1.197-1.558 2.342-2.73 3.54-0.044 0.045-0.114 0.106-0.22 0.106s-0.176-0.053-0.22-0.105c-1.172-1.2-2.29-2.335-2.732-3.542-0.044-0.106-0.14-0.203-0.264-0.23-0.598-0.14-1.26-0.334-1.91-0.58-0.037-0.018-0.072-0.018-0.107-0.018-0.062 0-0.132 0.017-0.185 0.060-0.080 0.063-0.124 0.17-0.115 0.266 0.098 0.995 0.493 1.973 1.207 2.995 0.67 0.96 1.542 1.85 2.388 2.713 1.55 1.586 3.020 3.083 3.153 4.818 0.010 0.16 0.142 0.283 0.3 0.283h1.824c0.078 0 0.157-0.035 0.22-0.096 0.052-0.062 0.088-0.142 0.080-0.22-0.063-1.164-0.495-2.326-1.34-3.56-0.177-0.255-0.362-0.51-0.564-0.757-0.080-0.098-0.044-0.22 0.017-0.29l0.185-0.187c0.846-0.862 1.718-1.753 2.388-2.713 0.713-1.020 1.11-1.99 1.207-2.995 0.008-0.080-0.036-0.185-0.115-0.247zM6.035 11.56c-0.044-0.045-0.105-0.090-0.21-0.090-0.133 0-0.22 0.098-0.248 0.142-0.766 1.172-1.163 2.273-1.215 3.383 0 0.080 0.026 0.168 0.080 0.22 0.052 0.062 0.13 0.097 0.22 0.097h1.823c0.16 0 0.29-0.123 0.3-0.282 0.043-0.537 0.202-1.066 0.51-1.63 0.106-0.193 0.027-0.38-0.035-0.458-0.308-0.396-0.67-0.81-1.225-1.383z"></path>
<path d="M9.022 5.093c0.14 0 0.273 0.115 0.273 0.282 0 0.044-0.010 0.080-0.026 0.114-0.080 0.202-0.424 0.933-1.067 1.56-0.070 0.070-0.16 0.078-0.212 0.078-0.050 0-0.14-0.010-0.21-0.080-0.643-0.625-0.987-1.356-1.067-1.56-0.008-0.025-0.025-0.060-0.025-0.113 0-0.16 0.132-0.282 0.272-0.282 0.132 0 0.467 0.035 1.040 0.035s0.907-0.035 1.022-0.035z"></path>
<path d="M4.855 1.56c-0.528 0-0.96 0.432-0.96 0.96 0 0.53 0.432 0.96 0.96 0.96s0.96-0.43 0.96-0.96c-0.010-0.528-0.432-0.96-0.96-0.96zM11.145 1.56c-0.528 0-0.96 0.432-0.96 0.96 0 0.53 0.432 0.96 0.96 0.96 0.53 0 0.96-0.43 0.96-0.96 0-0.528-0.43-0.96-0.96-0.96zM8 0.688c-0.53 0-0.96 0.43-0.96 0.96s0.43 0.96 0.96 0.96 0.96-0.43 0.96-0.96c0-0.537-0.43-0.96-0.96-0.96z"></path>
</svg>
