<!-- Generated by IcoMoon.io -->
<svg version="1.1" xmlns="http://www.w3.org/2000/svg" width="16" height="16" viewBox="0 0 16 16">
<title>brand235</title>
<path d="M15.103 5.812c-1.2-1.2-3.15-1.2-4.376 0l-4.9 4.9c-0.3 0.3-0.3 0.8 0 1.1s0.8 0.3 1.1 0l4.9-4.9c0.6-0.6 1.576-0.6 2.176 0s0.6 1.576 0 2.176l-4.826 4.826c0.6 0.6 1.575 0.6 2.175 0l3.726-3.726c1.225-1.225 1.225-3.176 0.025-4.376zM13.453 7.437c-0.3-0.3-0.8-0.3-1.1 0l-4.903 4.926c-0.6 0.6-1.574 0.6-2.174 0-0.3-0.3-0.8-0.3-1.1 0s-0.3 0.8 0 1.1c1.2 1.2 3.15 1.2 4.376 0l4.9-4.9c0.3-0.325 0.3-0.826 0-1.126zM11.827 2.537c-1.2-1.2-3.15-1.2-4.376 0l-4.9 4.9c-0.3 0.3-0.3 0.8 0 1.1s0.8 0.3 1.1 0l4.93-4.9c0.6-0.6 1.58-0.6 2.18 0 0.3 0.3 0.8 0.3 1.1 0 0.28-0.325 0.28-0.8-0.020-1.1zM10.177 4.162c-0.3-0.3-0.8-0.3-1.1 0l-4.9 4.926c-0.6 0.6-1.576 0.6-2.177 0s-0.6-1.576 0-2.176l4.826-4.826c-0.6-0.6-1.575-0.6-2.175 0l-3.751 3.726c-1.2 1.2-1.2 3.15 0 4.376 1.2 1.2 3.15 1.2 4.376 0l4.9-4.9c0.3-0.326 0.3-0.826 0-1.126z"></path>
</svg>
