<!-- Generated by IcoMoon.io -->
<svg version="1.1" xmlns="http://www.w3.org/2000/svg" width="16" height="16" viewBox="0 0 16 16">
<title>brand214</title>
<path d="M8 13.523c-0.428 0.355-0.87 0.67-1.316 0.945 0.388 0.604 0.83 1.12 1.316 1.532 0.485-0.41 0.928-0.928 1.316-1.532-0.447-0.274-0.888-0.59-1.316-0.945zM12.32 11.541c0.14 1.25 0.030 2.42-0.32 3.39-1.018-0.18-2.082-0.67-3.090-1.41 1.366-0.22 2.567-0.94 3.41-1.97zM3.68 11.541c0.843 1.030 2.044 1.75 3.41 1.98-1.008 0.75-2.072 1.23-3.090 1.42-0.35-0.97-0.46-2.14-0.32-3.38zM11.905 11.131c-0.77 0.96-1.884 1.63-3.155 1.82 0.45-0.42 0.878-0.9 1.282-1.42 0.652-0.090 1.28-0.22 1.873-0.39zM4.095 11.131c0.592 0.18 1.22 0.31 1.873 0.4 0.404 0.52 0.832 1 1.282 1.43-1.27-0.19-2.386-0.86-3.155-1.82zM6.273 5.011c0.535-0.711 1.117-1.351 1.727-1.901 0.61 0.547 1.192 1.183 1.727 1.898 0.887 0.106 1.73 0.293 2.508 0.547-0.17 0.8-0.43 1.624-0.78 2.445 0.35 0.82 0.61 1.644 0.78 2.445-0.778 0.254-1.62 0.44-2.508 0.547-0.535 0.715-1.118 1.35-1.727 1.898-0.61-0.547-1.192-1.183-1.727-1.898-0.887-0.106-1.73-0.293-2.508-0.547 0.17-0.8 0.43-1.624 0.78-2.445-0.35-0.82-0.61-1.644-0.78-2.445 0.778-0.254 1.62-0.44 2.508-0.547zM1.74 10.1c-0.328 0.64-0.555 1.28-0.668 1.906 0.598 0.21 1.267 0.34 1.985 0.37 0.013-0.526 0.066-1.066 0.16-1.615-0.522-0.19-1.016-0.41-1.476-0.66zM14.26 10.1c-0.46 0.25-0.955 0.474-1.477 0.667 0.094 0.55 0.147 1.090 0.16 1.616 0.718-0.035 1.387-0.16 1.985-0.374-0.113-0.62-0.34-1.26-0.67-1.9zM13.23 6.030c1.148 0.5 2.1 1.18 2.77 1.97-0.67 0.79-1.622 1.47-2.77 1.97 0.23-0.613 0.356-1.277 0.356-1.97s-0.126-1.357-0.357-1.97zM2.77 6.030c-0.23 0.613-0.356 1.277-0.356 1.97s0.126 1.357 0.357 1.97c-1.141-0.5-2.101-1.18-2.771-1.97 0.67-0.79 1.622-1.47 2.77-1.97zM12.657 6.177c0.22 0.565 0.343 1.18 0.343 1.823s-0.122 1.258-0.343 1.823c-0.145-0.606-0.345-1.215-0.593-1.823 0.248-0.608 0.448-1.217 0.593-1.823zM3.343 6.177c0.145 0.606 0.345 1.215 0.593 1.823-0.248 0.608-0.448 1.217-0.593 1.823-0.22-0.565-0.343-1.18-0.343-1.823s0.122-1.258 0.343-1.823zM3.057 3.627c-0.718 0.034-1.387 0.16-1.985 0.373 0.113 0.625 0.34 1.267 0.67 1.906 0.46-0.25 0.953-0.474 1.475-0.667-0.094-0.55-0.147-1.090-0.16-1.62zM12.943 3.627c-0.013 0.523-0.066 1.063-0.16 1.612 0.522 0.19 1.016 0.41 1.476 0.66 0.32-0.64 0.55-1.28 0.66-1.91-0.6-0.22-1.27-0.34-1.99-0.38zM8.75 3.057c1.27 0.19 2.386 0.86 3.155 1.82-0.592-0.175-1.22-0.307-1.873-0.396-0.404-0.52-0.832-1-1.282-1.42zM7.25 3.057c-0.45 0.424-0.878 0.904-1.282 1.424-0.652 0.090-1.28 0.23-1.873 0.4 0.77-0.96 1.884-1.63 3.155-1.82zM8.91 2.487c1.008-0.745 2.072-1.23 3.090-1.415 0.35 0.975 0.46 2.14 0.32 3.387-0.843-1.030-2.044-1.75-3.41-1.98zM3.68 4.46c-0.14-1.248-0.030-2.414 0.32-3.39 1.018 0.185 2.082 0.67 3.090 1.415-1.366 0.225-2.567 0.946-3.41 1.972zM9.317 1.53c-0.39-0.602-0.83-1.118-1.317-1.53-0.485 0.41-0.928 0.928-1.316 1.532 0.447 0.274 0.888 0.59 1.316 0.945 0.428-0.355 0.87-0.67 1.316-0.945z"></path>
</svg>
