<!-- Generated by IcoMoon.io -->
<svg version="1.1" xmlns="http://www.w3.org/2000/svg" width="16" height="16" viewBox="0 0 16 16">
<title>brand47</title>
<path fill="#00c7f2" d="M9.812 12.464h2.917v-0.884h-2.919v0.884zM3.272 12.464h2.916v-0.884h-2.918v0.884zM0 12.464h2.917v-0.884h-2.917v0.884zM6.54 12.464h2.92v-0.884h-2.92v0.884zM13.083 12.464h2.917v-0.884h-2.917v0.884zM13.083 11.314h2.917v-0.883h-2.917v0.89zM6.541 11.314h2.92v-0.883h-2.921v0.89zM0.001 11.314h2.92v-0.883h-2.921v0.89zM3.271 11.314h2.92v-0.883h-2.921v0.89zM9.821 11.314h2.92v-0.883h-2.931v0.89zM9.821 10.166h2.92v-0.884h-2.931v0.884zM3.281 10.166h2.91v-0.884h-2.921v0.884zM0.011 10.166h2.91v-0.884h-2.921v0.884zM6.551 10.166h2.92v-0.884h-2.931v0.884zM13.101 10.166h2.899v-0.884h-2.917v0.884zM13.101 9.016h2.899v-0.883h-2.917v0.884zM6.561 9.016h2.91v-0.883h-2.931v0.884zM0.021 9.016h2.91v-0.883h-2.931v0.884zM9.841 9.016h2.92v-0.883h-2.951v0.884zM9.841 7.866h2.92v-0.882h-2.951v0.883zM0.021 7.866h2.91v-0.88h-2.931v0.882zM6.561 7.866h2.92v-0.88h-2.941v0.882zM13.101 7.866h2.899v-0.882h-2.917v0.884zM6.54 6.72h2.92v-0.885h-2.92v0.884zM13.083 6.718h2.917v-0.883h-2.917v0.883zM6.54 5.57h2.92v-0.885h-2.92v0.885zM13.083 5.57h2.917v-0.885h-2.917v0.884zM13.083 4.42h2.917v-0.884h-2.917v0.884z"></path>
</svg>
