<!-- Generated by IcoMoon.io -->
<svg version="1.1" xmlns="http://www.w3.org/2000/svg" width="16" height="16" viewBox="0 0 16 16">
<title>brand35</title>
<path d="M5.66 16c-1.009-0.453-1.719-1.408-1.814-2.539 0.063-1.197 0.692-2.224 1.62-2.833-0.145 0.379-0.107 0.818 0.114 1.172 0.25 0.349 0.682 0.518 1.103 0.43 0.48-0.138 0.826-0.573 0.826-1.089 0-0.339-0.149-0.643-0.385-0.85-0.567-0.464-0.925-1.163-0.925-1.945 0-0.122 0.009-0.242 0.026-0.359 0.122-0.464 0.379-0.869 0.727-1.174-0.267 0.718 0.495 1.428 1.006 1.778 0.907 0.544 1.78 1.142 2.616 1.79 0.82 0.65 1.341 1.645 1.341 2.763 0 0.084-0.003 0.166-0.009 0.248-0.212 1.227-1.082 2.219-2.232 2.602 2.341-0.523 4.776-2.403 4.827-5.073-0.052-2.185-1.363-4.051-3.233-4.906l-0.125-0.014c0.038 0.091 0.060 0.196 0.060 0.306 0 0.008-0 0.017-0 0.025 0.003-0.034 0.005-0.072 0.005-0.111s-0.002-0.077-0.006-0.115c0.010 0.091 0.010 0.179 0 0.265-0.125 0.5-0.57 0.865-1.101 0.865-0.357 0-0.675-0.165-0.883-0.422-0.783-1.002-0.002-2.142 0.129-3.242 0.004-0.069 0.006-0.149 0.006-0.23 0-1.37-0.669-2.583-1.699-3.332 0.559 0.942-0.202 2.192-0.754 2.902s-1.353 1.24-2.004 1.86c-0.696 0.65-1.327 1.349-1.895 2.099-0.947 1.155-1.503 2.597-1.503 4.168 0 0.476 0.051 0.939 0.148 1.386 0.56 1.808 2.081 3.2 3.969 3.572l0.043 0.005z"></path>
</svg>
