<!-- Generated by IcoMoon.io -->
<svg version="1.1" xmlns="http://www.w3.org/2000/svg" width="16" height="16" viewBox="0 0 16 16">
<title>brand103</title>
<path fill="#2ec866" d="M8 0c0.857 0 6.5 3.257 6.928 4 0.43 0.743 0.43 7.257 0 8s-6.070 4-6.928 4c-0.858 0-6.5-3.257-6.93-4-0.427-0.743-0.427-7.257 0-8 0.43-0.743 6.073-4 6.93-4zM9.53 4.532c-0.094 0-0.172 0.077-0.172 0.172v2.583h-2.716v-2.682h0.467c0.094 0 0.17-0.077 0.17-0.172 0-0.062-0.033-0.117-0.082-0.147l-1.049-1.006c-0.032-0.042-0.094-0.073-0.15-0.073s-0.107 0.030-0.138 0.072l-1.12 1.007c-0.048 0.030-0.080 0.084-0.080 0.146 0 0.095 0.076 0.172 0.17 0.172h0.47l0.004 6.69c0 0.096 0.075 0.172 0.17 0.172h0.995c0.094 0 0.172-0.077 0.172-0.17v-2.67h2.716v2.768h-0.467c-0.094 0-0.17 0.077-0.17 0.172 0 0.062 0.032 0.116 0.080 0.146l1.052 1.007c0.030 0.040 0.094 0.073 0.15 0.073s0.106-0.030 0.138-0.073l1.12-1.007c0.048-0.030 0.080-0.084 0.080-0.146 0-0.095-0.077-0.172-0.17-0.172h-0.47l-0.004-6.69c0-0.096-0.076-0.173-0.17-0.173h-0.996z"></path>
</svg>
