<!-- Generated by IcoMoon.io -->
<svg version="1.1" xmlns="http://www.w3.org/2000/svg" width="16" height="16" viewBox="0 0 16 16">
<title>brand298</title>
<path fill="#ff4a00" d="M10 8.003c0 0.595-0.11 1.164-0.307 1.69-0.525 0.198-1.095 0.307-1.69 0.307h-0.006c-0.595 0-1.164-0.11-1.69-0.307-0.197-0.526-0.307-1.095-0.307-1.69v-0.006c0-0.595 0.11-1.164 0.307-1.69 0.526-0.197 1.095-0.307 1.69-0.307h0.006c0.595 0 1.165 0.11 1.69 0.308 0.198 0.525 0.307 1.094 0.307 1.69v0.005zM15.89 6.667h-4.67l3.3-3.302c-0.26-0.365-0.548-0.707-0.864-1.022-0.315-0.316-0.657-0.605-1.020-0.864l-3.303 3.3v-4.669c-0.433-0.070-0.876-0.11-1.33-0.11h-0.007c-0.453 0-0.897 0.040-1.33 0.11v4.67l-3.3-3.3c-0.366 0.258-0.707 0.548-1.023 0.863s-0.605 0.658-0.864 1.022l3.3 3.302h-4.669s-0.11 0.877-0.11 1.33v0.006c0 0.453 0.040 0.898 0.11 1.33h4.67l-3.3 3.302c0.518 0.73 1.156 1.367 1.885 1.886l3.302-3.3v4.67c0.432 0.070 0.875 0.11 1.327 0.11h0.012c0.452 0 0.895-0.040 1.327-0.11v-4.67l3.302 3.3c0.365-0.25 0.706-0.54 1.020-0.86h0.002c0.316-0.31 0.605-0.65 0.864-1.020l-3.3-3.3h4.67c0.070-0.43 0.11-0.87 0.11-1.32v-0.021c0-0.452-0.040-0.895-0.11-1.327z"></path>
</svg>
