<!-- Generated by IcoMoon.io -->
<svg version="1.1" xmlns="http://www.w3.org/2000/svg" width="16" height="16" viewBox="0 0 16 16">
<title>brand164</title>
<path fill="#f60" d="M8 0c-4.423 0-8 3.582-8 8.010 0 0.89 0.152 1.738 0.412 2.54h2.385v-6.73l5.203 5.21 5.203-5.21v6.73h2.385c0.26-0.802 0.412-1.65 0.412-2.54 0-4.427-3.577-8.010-8-8.010zM6.808 10.204l-2.278-2.28v4.233h-3.358c1.408 2.303 3.946 3.843 6.828 3.843s5.442-1.54 6.83-3.843h-3.36v-4.233l-2.257 2.28-1.192 1.194-1.21-1.194z"></path>
</svg>
