<!-- Generated by IcoMoon.io -->
<svg version="1.1" xmlns="http://www.w3.org/2000/svg" width="16" height="16" viewBox="0 0 16 16">
<title>brand261</title>
<path fill="#5fcf80" d="M13.63 2.92c-0.53-0.3-1.377 0.182-1.89 1.076l-0.932 1.62c-0.34 0.673-0.294 1.475 0.138 2.094l0.027 0.040c0.43 0.618 1.010 1.19 1.2 1.394 0.114 0.12 0.2 0.268 0.247 0.437 0.157 0.57-0.17 1.15-0.733 1.31-0.562 0.16-1.146-0.17-1.303-0.73-0.040-0.14-0.048-0.28-0.030-0.42 0.030-0.23-0.045-0.61-0.378-0.98s-1.014 0.33-1.234 1.060l-0.010 0.040c-0.22 0.72-0.36 1.35-0.318 1.41 0.025 0.040 0.048 0.080 0.070 0.12 0.308 0.58 0.087 1.3-0.494 1.61s-1.303 0.090-1.61-0.49c-0.31-0.58-0.090-1.3 0.492-1.61l0.080-0.040c0.043-0.020 0.17-0.32 0.278-0.68l0.198-0.65c0.012-0.030 0.022-0.070 0.030-0.11l0.59-2.1-0.63 1.29c-0.074-0.24-0.198-0.25-0.467-0.060-0.16 0.12-0.43 0.35-0.56 0.44-0.24 0.18-0.45 0.52-0.56 0.73-0.060 0.13-0.15 0.24-0.27 0.33-0.45 0.37-1.11 0.3-1.47-0.15s-0.29-1.11 0.16-1.47c0.14-0.11 0.29-0.18 0.44-0.21 0.27-0.060 1.17-0.61 1.71-1 0.1-0.070 0.18-0.13 0.25-0.2l1.45-1.1-1.26 0.68s-0.13-0.010-0.28 0.010c-0.46 0.050-0.94 0.12-1.030 0.23-0.050 0.070-0.11 0.13-0.19 0.18-0.42 0.3-1 0.21-1.31-0.21-0.3-0.42-0.2-1.010 0.22-1.31 0.17-0.12 0.38-0.18 0.57-0.18 0.34 0.010 1.23 0.19 1.97 0.060l0.19-0.030c0.75-0.13 1.63-0.78 1.99-1.44l0.78-1.36c0.43-0.75 0.4-1.57-0.070-1.84l-0.87-0.5c-0.43-0.24-1.13-0.24-1.55 0l-5.831 3.269c-0.44 0.23-0.79 0.83-0.79 1.32v6.414c0 0.49 0.35 1.090 0.776 1.33l5.825 3.28c0.43 0.24 1.13 0.24 1.55 0l5.81-3.28c0.43-0.242 0.78-0.84 0.78-1.33v-6.424c0-0.49-0.35-1.088-0.77-1.33l-0.96-0.542z"></path>
</svg>
