<!-- Generated by IcoMoon.io -->
<svg version="1.1" xmlns="http://www.w3.org/2000/svg" width="16" height="16" viewBox="0 0 16 16">
<title>brand146</title>
<path fill="#ff1e0d" d="M15.37 4.886c-0.402-0.953-0.98-1.81-1.713-2.543-0.735-0.734-1.59-1.31-2.543-1.714-0.987-0.419-2.034-0.629-3.114-0.629s-2.127 0.212-3.114 0.63c-0.953 0.402-1.808 0.98-2.543 1.713-0.734 0.734-1.31 1.59-1.714 2.543-0.419 0.987-0.629 2.034-0.629 3.114s0.212 2.127 0.63 3.114c0.402 0.953 0.98 1.81 1.713 2.543 0.735 0.734 1.59 1.31 2.543 1.714 0.987 0.42 2.034 0.63 3.114 0.63s2.127-0.21 3.114-0.63c0.953-0.4 1.808-0.98 2.543-1.71s1.31-1.59 1.714-2.54c0.42-0.98 0.63-2.030 0.63-3.11s-0.21-2.12-0.63-3.11zM8 14.89c-3.805 0-6.89-3.085-6.89-6.89s3.085-6.89 6.89-6.89c3.805 0 6.89 3.085 6.89 6.89s-3.085 6.89-6.89 6.89zM10.162 2.747h-4.324c-0.615 0-1.134 0.217-1.556 0.65-0.423 0.43-0.635 0.95-0.635 1.556v6.788c0 0.3 0.090 0.54 0.267 0.73 0.178 0.18 0.41 0.28 0.7 0.28 0.297 0 0.537-0.090 0.72-0.27s0.273-0.42 0.273-0.72v-7.041h1.427v7.020c0 0.297 0.087 0.537 0.26 0.72s0.408 0.274 0.706 0.274 0.533-0.092 0.706-0.274c0.173-0.183 0.26-0.423 0.26-0.72v-7.020h1.427v7.020c0 0.297 0.090 0.537 0.273 0.72s0.423 0.274 0.72 0.274c0.29 0 0.522-0.094 0.7-0.282 0.178-0.187 0.267-0.425 0.267-0.713v-6.789c0-0.606-0.212-1.125-0.635-1.557s-0.94-0.65-1.556-0.65z"></path>
</svg>
