<!-- Generated by IcoMoon.io -->
<svg version="1.1" xmlns="http://www.w3.org/2000/svg" width="16" height="16" viewBox="0 0 16 16">
<title>brand51</title>
<path d="M10.172 14.618l-1.554-2.17c-0.415-0.58-0.752-1.032-0.77-1.032s-0.67 0.877-1.544 2.076c-0.832 1.142-1.52 2.076-1.53 2.076-0.022 0-2.998-2.096-3.006-2.118-0.004-0.010 0.67-0.998 1.495-2.194s1.502-2.195 1.502-2.218c0-0.037-0.268-0.13-2.367-0.83l-2.396-0.8c-0.020-0.010 0.103-0.424 0.528-1.766 0.306-0.964 0.563-1.76 0.57-1.77 0.010-0.010 1.14 0.35 2.515 0.804 1.375 0.452 2.51 0.822 2.525 0.822 0.014 0 0.030-0.020 0.035-0.047 0.006-0.020 0.018-1.19 0.027-2.6 0.010-1.4 0.024-2.56 0.033-2.58 0.013-0.020 0.4-0.020 1.817-0.020 0.99 0 1.81 0.010 1.823 0.020 0.016 0.010 0.043 0.79 0.090 2.52 0.073 2.85 0.075 2.89 0.12 2.89 0.018 0 1.107-0.36 2.42-0.81 1.315-0.44 2.396-0.8 2.404-0.79 0.020 0.030 1.1 3.54 1.090 3.55s-1.11 0.39-2.44 0.84c-1.84 0.62-2.43 0.83-2.43 0.86-0.010 0.020 0.62 0.97 1.43 2.14 0.79 1.16 1.43 2.11 1.43 2.12-0.010 0.030-2.96 2.2-2.99 2.2-0.010 0-0.39-0.51-0.83-1.13z"></path>
</svg>
