<!-- Generated by IcoMoon.io -->
<svg version="1.1" xmlns="http://www.w3.org/2000/svg" width="16" height="16" viewBox="0 0 16 16">
<title>brand89</title>
<path fill="#fbbf00" d="M10.98 14.265c0 0.807-0.652 1.46-1.457 1.46s-1.46-0.653-1.46-1.46c0-0.805 0.654-1.458 1.46-1.458 0.805 0 1.458 0.653 1.458 1.458zM7.874 14.152l-3.42 0.8s-0.19 0.053-0.258-0.142c-0.040-0.118 0.060-0.262 0.060-0.262l3.434-5.608s0.175-0.265 0.507-0.362c0.275-0.080 0.574 0.106 0.574 0.106l5.5 3.46s0.24 0.097 0.23 0.288c-0.010 0.193-0.22 0.226-0.22 0.226l-3.32 0.776c-0.28-0.49-0.81-0.82-1.42-0.82-0.87 0-1.59 0.68-1.65 1.538zM2.76 4.805l0.997-3.466s0.047-0.2 0.25-0.16c0.123 0.020 0.2 0.18 0.2 0.18l3.22 5.73s0.146 0.28 0.070 0.62c-0.065 0.28-0.374 0.45-0.374 0.45l-5.703 3.111s-0.202 0.16-0.36 0.055c-0.16-0.107-0.090-0.305-0.090-0.305l0.97-3.37c0.775-0.136 1.364-0.813 1.364-1.627 0-0.486-0.21-0.92-0.544-1.225zM3.11 6.030c0 0.806-0.652 1.46-1.458 1.46s-1.46-0.654-1.46-1.46c0-0.805 0.655-1.458 1.46-1.458 0.806 0 1.46 0.653 1.46 1.458zM13.43 4.887l2.51 2.753s0.138 0.14 0.002 0.293c-0.083 0.093-0.26 0.074-0.26 0.074l-6.57-0.26s-0.315-0.023-0.562-0.265c-0.204-0.2-0.186-0.552-0.186-0.552l0.336-6.49s-0.033-0.256 0.14-0.336c0.177-0.080 0.307 0.085 0.307 0.085l2.186 2.39c-0.123 0.23-0.193 0.49-0.193 0.77 0 0.91 0.74 1.65 1.653 1.65 0.225 0 0.44-0.050 0.635-0.13zM14.253 3.361c0 0.81-0.65 1.46-1.457 1.46s-1.46-0.65-1.46-1.46c0-0.8 0.654-1.45 1.46-1.45s1.458 0.66 1.458 1.46z"></path>
</svg>
