<!-- Generated by IcoMoon.io -->
<svg version="1.1" xmlns="http://www.w3.org/2000/svg" width="16" height="16" viewBox="0 0 16 16">
<title>brand177</title>
<path fill="#fc7e0f" d="M8 16c-4.418 0-8-3.582-8-8s3.582-8 8-8 8 3.582 8 8-3.582 8-8 8zM6.3 15.080c0.432-0.33 0.847-0.713 1.234-1.143-0.198-0.227-0.388-0.465-0.57-0.716l-0.736 1.84 0.073 0.020zM7.99 13.39c0.25-0.32 0.484-0.665 0.7-1.030l-0.69-1.73-0.7 1.75c0.214 0.358 0.445 0.695 0.69 1.010zM8.408 13.895c0.4 0.45 0.828 0.846 1.275 1.188l0.090-0.022-0.773-1.931c-0.19 0.27-0.388 0.523-0.593 0.766zM8.895 15.225c-0.324-0.253-0.637-0.53-0.937-0.833-0.29 0.3-0.592 0.576-0.904 0.826 0.31 0.040 0.625 0.060 0.946 0.060 0.303 0 0.602-0.018 0.895-0.054zM8 0.72c-4.020 0-7.28 3.26-7.28 7.28 0 3.215 2.086 5.943 4.978 6.907l1.87-5.607c-0.545-0.182-0.937-0.695-0.937-1.3 0-0.756 0.62-1.37 1.37-1.37 0.76 0 1.37 0.614 1.37 1.37 0 0.605-0.39 1.118-0.93 1.3l1.87 5.607c2.89-0.964 4.98-3.692 4.98-6.907-0.011-4.020-3.271-7.28-7.291-7.28zM12.052 12.052l-0.51-0.51c0.906-0.907 1.467-2.16 1.467-3.542 0-1.383-0.57-2.635-1.47-3.542l0.51-0.51c1.040 1.037 1.68 2.47 1.68 4.052s-0.65 3.015-1.68 4.052zM9.975 9.975c0.505-0.506 0.818-1.204 0.818-1.975s-0.313-1.47-0.818-1.975l0.51-0.51c0.635 0.635 1.028 1.515 1.028 2.485s-0.393 1.85-1.030 2.484l-0.508-0.51zM5.515 10.485c-0.635-0.637-1.027-1.515-1.027-2.485s0.393-1.85 1.030-2.484l0.508 0.51c-0.506 0.504-0.82 1.202-0.82 1.974 0 0.77 0.314 1.47 0.82 1.975l-0.51 0.51zM3.95 12.050c-1.038-1.035-1.68-2.468-1.68-4.050s0.642-3.015 1.678-4.052l0.51 0.51c-0.906 0.907-1.468 2.16-1.468 3.542s0.562 2.635 1.468 3.542l-0.51 0.51z"></path>
</svg>
