<!-- Generated by IcoMoon.io -->
<svg version="1.1" xmlns="http://www.w3.org/2000/svg" width="16" height="16" viewBox="0 0 16 16">
<title>brand259</title>
<path fill="#ed1c24" d="M8 16c-4.41 0-8-3.59-8-8s3.59-8 8-8 8 3.59 8 8-3.59 8-8 8zM8 0.807c-3.967 0-7.193 3.226-7.193 7.193s3.226 7.193 7.193 7.193c3.967 0 7.193-3.226 7.193-7.193s-3.226-7.193-7.193-7.193zM3.26 12.354c1.17 1.28 2.862 2.076 4.74 2.076 0.96 0 1.867-0.21 2.685-0.585l-4.465-4.453-2.96 2.962zM12.785 12.309c1.027-1.14 1.657-2.66 1.657-4.31 0-2.59-1.525-4.81-3.713-5.84l-4.059 4.051 6.11 6.1zM6.2 6.69l-3.382 3.37-0.453-0.453 7.712-7.707c-0.652-0.22-1.347-0.34-2.077-0.34-3.558-0.002-6.442 2.882-6.442 6.44 0 1.448 0.475 2.785 1.293 3.867l3.37-3.37 0.24 0.22 4.83 4.83c0.1-0.055 0.19-0.11 0.28-0.177l-5.351-5.337-3.236 3.237-0.453-0.452 3.69-3.69 0.24 0.22 5.64 5.624c0.090-0.066 0.17-0.143 0.25-0.21l-6.091-6.077-0.056 0.010zM8.232 7.375l-0.452-0.45 3.192-3.194 0.453 0.46-3.193 3.19zM11.26 2.99l-3.68 3.68-0.453-0.452 3.68-3.68 0.453 0.455z"></path>
</svg>
