<!-- Generated by IcoMoon.io -->
<svg version="1.1" xmlns="http://www.w3.org/2000/svg" width="16" height="16" viewBox="0 0 16 16">
<title>brand45</title>
<path fill="#f43059" d="M0 11v-10.25c0-0.416 0.336-0.75 0.75-0.75h14.5c0.416 0 0.75 0.336 0.75 0.75v9.884c-0.45-0.275-0.978-0.413-1.58-0.413-0.84 0-1.476 0.2-1.91 0.6-0.432 0.4-0.65 0.89-0.65 1.49 0 0.65 0.225 1.13 0.673 1.44 0.265 0.19 0.743 0.36 1.435 0.51l0.703 0.16c0.42 0.090 0.72 0.2 0.91 0.31 0.19 0.12 0.29 0.29 0.29 0.51 0 0.38-0.19 0.64-0.58 0.77l-0.020 0.010h-1.48c-0.19-0.070-0.34-0.17-0.46-0.3-0.12-0.15-0.2-0.37-0.24-0.68h-1.33c0 0.38 0.070 0.7 0.22 0.99h-1.13c0.13-0.26 0.2-0.55 0.2-0.88 0-0.59-0.2-1.040-0.59-1.35-0.25-0.2-0.63-0.36-1.13-0.48l-1.15-0.27c-0.44-0.1-0.73-0.19-0.87-0.27-0.21-0.12-0.31-0.3-0.31-0.53 0-0.26 0.11-0.46 0.32-0.6 0.22-0.14 0.5-0.21 0.86-0.21 0.33 0 0.59 0.060 0.81 0.17 0.33 0.17 0.5 0.46 0.53 0.86h1.34c-0.020-0.7-0.28-1.24-0.77-1.61-0.5-0.37-1.090-0.56-1.79-0.56-0.84 0-1.47 0.2-1.91 0.59-0.43 0.39-0.65 0.89-0.65 1.48 0 0.65 0.22 1.13 0.67 1.44 0.27 0.18 0.75 0.35 1.44 0.51l0.7 0.16c0.41 0.090 0.71 0.19 0.91 0.31 0.19 0.12 0.29 0.29 0.29 0.51 0 0.38-0.2 0.63-0.59 0.77h-1.5c-0.19-0.070-0.35-0.17-0.46-0.31-0.12-0.15-0.21-0.38-0.25-0.68h-1.361c0 0.37 0.072 0.7 0.216 0.99h-1.4c0.22-0.35 0.37-0.75 0.444-1.2h-1.373c-0.094 0.34-0.21 0.6-0.352 0.77-0.174 0.22-0.402 0.36-0.684 0.43h-0.82c-0.3-0.070-0.56-0.24-0.77-0.51-0.31-0.37-0.46-0.93-0.46-1.67 0-0.75 0.15-1.32 0.44-1.73 0.3-0.41 0.69-0.61 1.2-0.61 0.5 0 0.87 0.14 1.13 0.43 0.14 0.16 0.26 0.4 0.35 0.72h1.389c-0.020-0.41-0.174-0.83-0.46-1.24-0.516-0.73-1.334-1.1-2.453-1.1-0.776 0-1.43 0.24-1.95 0.71zM16 13.436v-1.040h-0.345c-0.024-0.4-0.2-0.685-0.524-0.854-0.21-0.11-0.48-0.167-0.8-0.167-0.36 0-0.64 0.073-0.85 0.217s-0.32 0.346-0.32 0.604c0 0.238 0.11 0.415 0.32 0.533 0.14 0.070 0.43 0.17 0.87 0.27l1.15 0.27c0.2 0.040 0.37 0.1 0.53 0.15z"></path>
</svg>
