<!-- Generated by IcoMoon.io -->
<svg version="1.1" xmlns="http://www.w3.org/2000/svg" width="16" height="16" viewBox="0 0 16 16">
<title>brand242</title>
<path fill="#3a98d9" d="M15.32 5.705c0.213 0.405 0.376 0.85 0.488 1.337s0.176 0.996 0.19 1.528c0.014 0.53-0.040 1.070-0.16 1.61-0.12 0.544-0.298 1.075-0.532 1.592s-0.553 1.010-0.96 1.48c-0.408 0.47-0.876 0.893-1.405 1.267-0.52 0.37-1.16 0.69-1.9 0.94-0.74 0.26-1.55 0.43-2.43 0.53l-0.2-0.48c0.050-0.010 0.11-0.030 0.2-0.060s0.25-0.090 0.48-0.2c0.24-0.1 0.46-0.22 0.68-0.36s0.46-0.33 0.72-0.58c0.27-0.25 0.49-0.52 0.68-0.81 0.19-0.3 0.35-0.66 0.48-1.1s0.2-0.91 0.2-1.41c0-0.48-0.060-0.92-0.19-1.34s-0.3-0.77-0.51-1.080c-0.21-0.3-0.45-0.59-0.7-0.86s-0.51-0.53-0.76-0.77c-0.26-0.24-0.49-0.49-0.71-0.73-0.21-0.24-0.39-0.51-0.52-0.81s-0.2-0.61-0.2-0.94c0-0.59 0.24-1.1 0.7-1.52 0.47-0.43 1.11-0.64 1.93-0.64 0.24 0 0.48 0.020 0.73 0.070s0.55 0.14 0.89 0.29c0.34 0.15 0.66 0.34 0.97 0.57s0.64 0.56 0.98 0.97c0.34 0.413 0.65 0.89 0.93 1.43zM0.68 10.295c-0.212-0.405-0.375-0.85-0.487-1.337-0.113-0.488-0.177-0.996-0.19-1.528-0.015-0.53 0.040-1.070 0.16-1.61 0.12-0.544 0.297-1.075 0.53-1.592 0.234-0.518 0.554-1.010 0.96-1.48 0.41-0.47 0.877-0.893 1.406-1.267 0.52-0.37 1.16-0.69 1.9-0.94 0.741-0.261 1.551-0.441 2.431-0.541l0.2 0.473c-0.042 0.010-0.106 0.030-0.19 0.054-0.083 0.026-0.24 0.090-0.475 0.195-0.233 0.104-0.458 0.223-0.675 0.358-0.215 0.135-0.454 0.326-0.715 0.574-0.262 0.248-0.487 0.518-0.675 0.81-0.19 0.293-0.348 0.657-0.477 1.093s-0.194 0.904-0.194 1.405c0 0.473 0.060 0.917 0.2 1.333 0.13 0.417 0.3 0.775 0.51 1.076 0.21 0.31 0.45 0.59 0.7 0.87s0.51 0.53 0.76 0.77 0.49 0.49 0.7 0.73c0.22 0.25 0.39 0.52 0.52 0.81 0.13 0.3 0.2 0.61 0.2 0.94 0 0.6-0.24 1.11-0.7 1.53-0.47 0.43-1.11 0.64-1.93 0.64-0.24 0-0.48-0.020-0.73-0.070s-0.55-0.14-0.88-0.29c-0.34-0.15-0.66-0.34-0.98-0.57-0.31-0.23-0.64-0.56-0.98-0.97s-0.65-0.89-0.93-1.43z"></path>
</svg>
