<!-- Generated by IcoMoon.io -->
<svg version="1.1" xmlns="http://www.w3.org/2000/svg" width="16" height="16" viewBox="0 0 16 16">
<title>brand246</title>
<path d="M8 0c4.417 0 8 3.582 8 8s-3.583 8-8 8c-4.417 0-8-3.582-8-8s3.583-8 8-8zM8.998 7.11c0.124 0.102 0.283 0.163 0.457 0.163 0.4 0 0.727-0.326 0.727-0.728 0-0.4-0.326-0.727-0.727-0.727s-0.728 0.326-0.728 0.727c0 0.174 0.060 0.333 0.162 0.457l-0.89 0.89-0.889-0.892c0.102-0.124 0.163-0.283 0.163-0.457 0-0.4-0.326-0.727-0.728-0.727-0.4 0-0.727 0.326-0.727 0.727s0.326 0.728 0.727 0.728c0.174 0 0.333-0.060 0.457-0.16l0.89 0.89-0.89 0.89c-0.125-0.1-0.283-0.16-0.457-0.16-0.4 0-0.727 0.33-0.727 0.73s0.326 0.73 0.727 0.73c0.402 0 0.728-0.32 0.728-0.72 0-0.17-0.060-0.33-0.162-0.45l0.89-0.9 0.89 0.89c-0.1 0.13-0.16 0.29-0.16 0.46 0 0.4 0.33 0.73 0.73 0.73s0.73-0.32 0.73-0.72c0-0.4-0.32-0.72-0.72-0.72-0.17 0-0.33 0.060-0.45 0.16l-0.911-0.921 0.89-0.89z"></path>
</svg>
