<!-- Generated by IcoMoon.io -->
<svg version="1.1" xmlns="http://www.w3.org/2000/svg" width="16" height="16" viewBox="0 0 16 16">
<title>brand225</title>
<path fill="#e4637c" d="M16 0h-16v16h16v-16zM5.66 10.382c0-0.086 0.054-0.216 0.163-0.39 0.108-0.173 0.206-0.26 0.292-0.26 0.010 0 0.080 0.040 0.21 0.123s0.315 0.165 0.558 0.248c0.243 0.082 0.536 0.123 0.878 0.123 0.35 0 0.63-0.097 0.85-0.293s0.33-0.46 0.33-0.793c0-0.334-0.1-0.594-0.29-0.78s-0.58-0.363-1.16-0.528-1-0.375-1.26-0.63c-0.26-0.257-0.39-0.645-0.39-1.165s0.2-0.957 0.6-1.308c0.4-0.36 0.92-0.53 1.56-0.53 0.45 0 0.84 0.050 1.19 0.17 0.35 0.11 0.52 0.24 0.52 0.37 0 0.11-0.050 0.26-0.15 0.43-0.1 0.18-0.19 0.26-0.26 0.26-0.010 0-0.060-0.030-0.17-0.080-0.29-0.16-0.62-0.24-0.99-0.24s-0.65 0.070-0.86 0.22c-0.2 0.15-0.3 0.35-0.3 0.59s0.080 0.43 0.23 0.57c0.15 0.14 0.41 0.26 0.78 0.38 0.82 0.25 1.37 0.52 1.66 0.82s0.44 0.75 0.44 1.35-0.21 1.1-0.64 1.49c-0.43 0.39-0.94 0.58-1.54 0.58s-1.11-0.090-1.55-0.27c-0.43-0.18-0.65-0.35-0.65-0.52z"></path>
</svg>
