<!-- Generated by IcoMoon.io -->
<svg version="1.1" xmlns="http://www.w3.org/2000/svg" width="16" height="16" viewBox="0 0 16 16">
<title>brand80</title>
<path fill="#8cc63f" d="M16 8c0-4.418-3.582-8-8-8s-8 3.582-8 8c0 4.418 3.582 8 8 8s8-3.582 8-8zM8 10.425c-0.257 0.13-0.604 0.194-1.040 0.194-0.174 0-0.43-0.020-0.772-0.070-0.342-0.040-0.6-0.060-0.772-0.060-0.637 0-0.956 0.19-0.956 0.58 0 0.23 0.144 0.41 0.432 0.54s0.654 0.19 1.098 0.19c0.66 0 1.483-0.33 2.020-0.82l0.010-0.010c0.538 0.49 1.328 0.83 1.99 0.83 0.444 0 0.81-0.070 1.098-0.2 0.288-0.14 0.432-0.32 0.432-0.55 0-0.39-0.32-0.59-0.956-0.59-0.173 0-0.43 0.020-0.77 0.060-0.343 0.040-0.6 0.060-0.772 0.060-0.438 0-0.785-0.060-1.042-0.19zM8 4.522c0.515-0.45 1.146-0.677 1.893-0.677 0.592 0 1.088 0.11 1.487 0.333l0.604-0.703 1.067 0.97-0.73 0.535c0.26 0.387 0.39 0.844 0.39 1.37 0 0.753-0.23 1.354-0.68 1.805-0.46 0.45-1.030 0.675-1.73 0.675-0.11 0-0.26-0.010-0.44-0.030l-0.26-0.040c-0.030 0-0.13 0.045-0.33 0.133-0.19 0.088-0.28 0.18-0.28 0.274 0 0.164 0.14 0.246 0.43 0.246 0.13 0 0.34-0.030 0.64-0.092 0.3-0.060 0.56-0.090 0.77-0.090 1.5 0 2.25 0.61 2.25 1.81 0 0.67-0.3 1.19-0.9 1.57s-1.32 0.57-2.17 0.57c-0.7 0-1.36-0.14-1.98-0.43-0.61 0.29-1.27 0.44-1.98 0.44-0.84 0-1.57-0.19-2.17-0.57s-0.9-0.9-0.9-1.57c0-1.2 0.75-1.81 2.25-1.81 0.22 0 0.47 0.030 0.78 0.1 0.3 0.060 0.51 0.1 0.64 0.1 0.28 0 0.43-0.080 0.43-0.24 0-0.090-0.090-0.19-0.29-0.27-0.19-0.080-0.3-0.13-0.33-0.13l-0.26 0.040c-0.18 0.020-0.33 0.030-0.44 0.030-0.7 0-1.28-0.22-1.74-0.67s-0.69-1.050-0.69-1.81c0-0.52 0.13-0.98 0.38-1.37l-0.73-0.53 1.060-0.97 0.61 0.7c0.4-0.22 0.9-0.33 1.49-0.33 0.75 0 1.38 0.23 1.9 0.68zM8 8.565c0.103-0.078 0.214-0.142 0.332-0.19-0.12-0.080-0.23-0.163-0.332-0.252-0.1 0.090-0.212 0.172-0.332 0.25 0.118 0.050 0.23 0.114 0.332 0.192zM7.21 6.095c-0.036-0.257-0.142-0.475-0.32-0.652-0.22-0.222-0.51-0.333-0.863-0.333-0.337 0-0.612 0.115-0.824 0.345-0.21 0.23-0.317 0.512-0.317 0.846 0 0.41 0.098 0.72 0.296 0.95 0.197 0.23 0.48 0.35 0.845 0.35s0.657-0.12 0.873-0.35c0.174-0.19 0.278-0.43 0.312-0.72-0.006-0.070-0.010-0.15-0.010-0.22s0.004-0.13 0.008-0.2zM8.79 6.522c0.033 0.29 0.137 0.53 0.31 0.72 0.216 0.236 0.507 0.354 0.873 0.354s0.648-0.115 0.845-0.345c0.198-0.23 0.297-0.54 0.297-0.95 0-0.33-0.106-0.61-0.318-0.84s-0.487-0.34-0.824-0.34c-0.354 0-0.64 0.11-0.863 0.34-0.177 0.18-0.284 0.4-0.32 0.65 0.005 0.070 0.007 0.13 0.007 0.2 0 0.080-0.003 0.16-0.008 0.23z"></path>
</svg>
