<!-- Generated by IcoMoon.io -->
<svg version="1.1" xmlns="http://www.w3.org/2000/svg" width="16" height="16" viewBox="0 0 16 16">
<title>brand257</title>
<path fill="#29a8e0" d="M13.672 10.98c0.128-0.018 0.25-0.075 0.36-0.14 0.23-0.134 0.43-0.314 0.622-0.498 0.15-0.143 0.296-0.29 0.435-0.446 0.080-0.097 0.17-0.197 0.25-0.3 0.070-0.095 0.14-0.19 0.21-0.29 0.050-0.076 0.1-0.153 0.14-0.232 0.22-0.397 0.4-0.888 0.24-1.34-0.020-0.063-0.050-0.123-0.080-0.18-0.060-0.102-0.14-0.193-0.22-0.274-0.14-0.134-0.31-0.24-0.48-0.326-0.25-0.124-0.52-0.208-0.8-0.27-0.4-0.090-0.8-0.133-1.21-0.15-0.56-0.027-1.12-0.004-1.67 0.050 0.070 0.073 0.13 0.15 0.2 0.225 0.13 0.15 0.26 0.31 0.38 0.48 0.15 0.2 0.29 0.42 0.43 0.64 0.4 0.66 0.7 1.38 0.92 2.11 0.070 0.22 0.12 0.44 0.17 0.67 0.020 0.080 0.030 0.17 0.050 0.26zM1.314 10.88c0.034-0.136 0.070-0.274 0.106-0.41 0.053-0.2 0.117-0.398 0.177-0.596 0.046-0.144 0.1-0.285 0.15-0.428 0.060-0.15 0.123-0.3 0.185-0.45 0.022-0.050 0.040-0.102 0.065-0.153 0.067-0.143 0.14-0.284 0.214-0.424 0.090-0.16 0.17-0.32 0.26-0.47 0.12-0.21 0.25-0.4 0.39-0.59l0.010-0.010c-0.22-0.010-0.45-0.010-0.67-0.010-0.16 0-0.33 0.010-0.49 0.030-0.11 0.010-0.22 0.020-0.33 0.040-0.080 0.010-0.16 0.030-0.24 0.050-0.39 0.1-0.83 0.28-1.020 0.67-0.020 0.050-0.040 0.1-0.060 0.16-0.020 0.080-0.030 0.18-0.030 0.27 0 0.14 0.030 0.28 0.060 0.42 0.060 0.21 0.16 0.41 0.26 0.6 0.19 0.33 0.43 0.64 0.68 0.93l0.32 0.35zM13.384 10.85c-0.328-1.53-1.028-3.014-2.124-4.147l-0.056-0.057-0.027-0.027c-0.133 0.010-0.266 0.030-0.4 0.050-1.433 0.22-2.833 0.61-4.18 1.14 0.112 0.030 0.224 0.060 0.337 0.1 0.47 0.15 0.94 0.31 1.402 0.48 1.61 0.6 3.162 1.35 4.653 2.21l0.39 0.23zM1.61 10.757l0.58-0.56c0.1-0.095 0.1-0.094 0.2-0.186 1.020-0.9 2.207-1.58 3.445-2.14-0.183-0.050-0.365-0.090-0.548-0.13-0.7-0.16-1.405-0.29-2.12-0.35-0.056 0.080-0.11 0.15-0.164 0.23-0.12 0.18-0.236 0.35-0.344 0.54-0.1 0.16-0.18 0.32-0.26 0.48-0.070 0.13-0.14 0.26-0.19 0.39-0.020 0.030-0.030 0.070-0.040 0.1-0.060 0.15-0.13 0.3-0.19 0.45-0.050 0.12-0.090 0.24-0.13 0.36-0.060 0.19-0.12 0.37-0.17 0.56-0.030 0.1-0.060 0.2-0.080 0.3zM6.207 7.707c0.14-0.060 0.278-0.116 0.418-0.17 0.155-0.062 0.31-0.12 0.466-0.178 0.68-0.25 1.37-0.46 2.070-0.63 0.58-0.14 1.16-0.25 1.75-0.34l0.040-0.010c-0.16-0.15-0.33-0.28-0.5-0.41-0.32-0.24-0.67-0.44-1.040-0.6-0.86-0.37-1.81-0.49-2.73-0.32-0.5 0.090-0.99 0.26-1.44 0.5-0.71 0.38-1.33 0.92-1.84 1.54l-0.020 0.010 0.31 0.030 0.38 0.050c0.54 0.090 1.060 0.2 1.59 0.32 0.2 0.050 0.39 0.1 0.58 0.15z"></path>
</svg>
