<!-- Generated by IcoMoon.io -->
<svg version="1.1" xmlns="http://www.w3.org/2000/svg" width="16" height="16" viewBox="0 0 16 16">
<title>brand196</title>
<path fill="#9497ce" d="M11.227 7.026v-1.944c-0.656-2.601-3.233-2.636-3.233-2.636s-2.576 0.036-3.232 2.636v1.944h6.465zM7.994 0s4.72-0.155 5.694 5.082v3.566s-0.040 0.382-1.113 1.157c-1.074 0.776-3.853 2.959-4.58 2.959-0.729 0-3.508-2.183-4.581-2.959s-1.114-1.157-1.114-1.157v-3.566c0.974-5.237 5.694-5.082 5.694-5.082zM7.994 13.567s0.732-0.072 1.304-0.47c0.573-0.397 4.39-3.125 4.39-3.125v5.4s-0.032 0.628-0.724 0.628h-9.94c-0.692 0-0.724-0.628-0.724-0.628v-5.4s3.817 2.728 4.39 3.125c0.573 0.398 1.304 0.47 1.304 0.47z"></path>
</svg>
