<!-- Generated by IcoMoon.io -->
<svg version="1.1" xmlns="http://www.w3.org/2000/svg" width="16" height="16" viewBox="0 0 16 16">
<title>brand167</title>
<path fill="#00945e" d="M7.98 16c-1.683 0-3.2-0.738-4.226-2.092-0.74-0.944-1.108-2.052-1.108-3.24 0-0.37 0.040-0.74 0.123-1.068 0.2-1.19 1.060-3.118 2.62-5.785 1.151-1.97 2.091-3.445 2.141-3.445 0.082-0.165 0.205-0.37 0.45-0.37 0.248 0 0.37 0.205 0.494 0.37 0 0 0.984 1.476 2.133 3.445 1.56 2.667 2.42 4.595 2.626 5.785 0.087 0.328 0.128 0.697 0.128 1.067 0 1.19-0.37 2.297-1.1 3.24-1.081 1.315-2.641 2.093-4.281 2.093zM7.98 14.605c1.27 0 2.42-0.574 3.2-1.56 0.533-0.696 0.82-1.558 0.82-2.46 0-0.288-0.040-0.534-0.082-0.82-0.164-0.903-0.862-2.462-2.050-4.555-0.904-1.6-1.683-2.748-1.683-2.748l-0.206-0.288-0.17 0.247s-0.78 1.19-1.68 2.75c-1.229 2.099-1.929 3.649-2.049 4.559-0.040 0.287-0.082 0.533-0.082 0.82 0 0.903 0.286 1.724 0.82 2.462 0.74 1.025 1.887 1.6 3.16 1.6z"></path>
</svg>
