<!-- Generated by IcoMoon.io -->
<svg version="1.1" xmlns="http://www.w3.org/2000/svg" width="16" height="16" viewBox="0 0 16 16">
<title>brand245</title>
<path fill="#eb4924" d="M8 0c-4.42 0-8 3.582-8 8 0 4.42 3.58 8 8 8s8-3.58 8-8c0-4.418-3.58-8-8-8zM7.588 5.938v3.3c0 1.236-1.128 2.167-2.3 2.167-1.096 0-2.12-0.518-2.236-1.756v-2.069h1.65v1.65c0 0.41 0.29 0.477 0.585 0.477 0.293 0 0.65-0.066 0.65-0.478v-3.3c0.033-1.229 1.053-2.009 2.193-2.009 1.163 0 1.933 0.88 1.933 2.010v0.7l-0.818 0.39-0.832-0.39v-1.104s-0.11-0.12-0.28-0.12c-0.283 0-0.544 0.12-0.544 0.532zM12.948 9.238c0 1.236-1.060 2.074-2.235 2.074s-2.3-0.838-2.3-2.075v-1.65h1.65v1.65c0 0.412 0.357 0.478 0.65 0.478s0.586-0.066 0.586-0.478v-1.65h1.64v1.65z"></path>
</svg>
