<!-- Generated by IcoMoon.io -->
<svg version="1.1" xmlns="http://www.w3.org/2000/svg" width="16" height="16" viewBox="0 0 16 16">
<title>brand218</title>
<path d="M10 15v-4h-1v4h-2v-4h-1v4h-3v1h10v-1h-3zM4 11.98h-1v0.020c0 0.72 0.152 1.407 0.43 2.027h1.122c-0.352-0.595-0.552-1.287-0.552-2.027v-0.020zM8.002 7v1c2.208 0 4 1.792 4 4 0 0.739-0.202 1.432-0.552 2.027h1.12c0.277-0.62 0.43-1.307 0.43-2.027 0-2.76-2.24-5-5-5zM11 10v1h-6v-1h6zM8 8v-1c-1.656 0-3-1.344-3-3s1.344-3 3-3c1.656 0 3 1.344 3 3h1c0-2.208-1.792-4-4-4s-4 1.792-4 4c0 2.208 1.792 4 4 4zM8 2c-1.104 0-2 0.896-2 2s0.896 2 2 2c1.104 0 2-0.896 2-2s-0.896-2-2-2zM8 3c0.552 0 1 0.448 1 1s-0.448 1-1 1-1-0.448-1-1 0.448-1 1-1z"></path>
</svg>
