<!-- Generated by IcoMoon.io -->
<svg version="1.1" xmlns="http://www.w3.org/2000/svg" width="16" height="16" viewBox="0 0 16 16">
<title>brand240</title>
<path fill="#4ba2f2" d="M2.616 1.73c0.177 0.030-0.264 1.185-0.018 2.507 0.212 1.132 2.876 5.517 2.766 7.020-0.085 0.945-2.272 3.16-2.502 3.012-0.252-0.069 0.664-1.574 0.324-2.828-0.394-1.461-2.739-5.241-2.736-6.91 0-1.221 2.007-2.88 2.166-2.801zM7.626 0.003c0.224 0.038-0.337 1.513-0.023 3.194 0.27 1.446 3.668 7.037 3.528 8.954-0.11 1.206-2.898 4.028-3.193 3.84-0.319-0.086 0.848-2.005 0.415-3.604-0.503-1.863-3.492-6.684-3.49-8.812 0-1.558 2.561-3.672 2.763-3.572zM12.796 1.73c0.178 0.030-0.263 1.185-0.017 2.507 0.213 1.132 2.876 5.517 2.767 7.020-0.084 0.945-2.272 3.16-2.503 3.012-0.251-0.069 0.664-1.574 0.325-2.828-0.395-1.462-2.74-5.242-2.737-6.91 0-1.221 2.010-2.88 2.166-2.801z"></path>
</svg>
