<!-- Generated by IcoMoon.io -->
<svg version="1.1" xmlns="http://www.w3.org/2000/svg" width="16" height="16" viewBox="0 0 16 16">
<title>brand95</title>
<path fill="#607d8b" d="M0.814 0c-0.020 0.062-0.040 0.123-0.040 0.205v15.487c0 0.144 0.040 0.226 0.122 0.308l7.61-8.062-7.692-7.938zM9.020 8.472l1.968 2.030-2.81 1.6s-3.57 2.030-5.538 3.16l6.38-6.79zM9.553 7.918l2.112 2.195c0.33-0.185 2.913-1.662 3.282-1.867 0.39-0.225 0.35-0.533 0.020-0.697-0.307-0.17-2.89-1.65-3.28-1.89l-2.135 2.261zM9.019 7.385l1.99-2.113-2.84-1.62s-4.629-2.648-6.169-3.532l7.020 7.266z"></path>
</svg>
