<!-- Generated by IcoMoon.io -->
<svg version="1.1" xmlns="http://www.w3.org/2000/svg" width="16" height="16" viewBox="0 0 16 16">
<title>brand90</title>
<path fill="#630" d="M13.022 10.63v-10.304h-1.37v1.934h-0.043c-0.14-0.303-0.32-0.593-0.56-0.87-0.24-0.274-0.51-0.517-0.82-0.727s-0.64-0.373-1.010-0.49c-0.369-0.113-0.759-0.173-1.179-0.173-0.805 0-1.53 0.15-2.16 0.446s-1.16 0.703-1.587 1.217c-0.427 0.515-0.753 1.116-0.978 1.804-0.224 0.69-0.337 1.417-0.337 2.185 0 0.797 0.094 1.547 0.283 2.25s0.49 1.315 0.91 1.837c0.42 0.52 0.94 0.93 1.58 1.22s1.41 0.44 2.31 0.44c0.83 0 1.55-0.21 2.17-0.63s1.090-0.98 1.41-1.68h0.040v1.52c0 1.36-0.28 2.4-0.84 3.13-0.56 0.72-1.48 1.090-2.76 1.090-0.38 0-0.75-0.040-1.11-0.12s-0.69-0.21-0.99-0.38c-0.29-0.18-0.55-0.4-0.76-0.69s-0.35-0.64-0.42-1.060h-1.401c0.045 0.59 0.21 1.1 0.49 1.53 0.283 0.43 0.64 0.78 1.066 1.060 0.427 0.27 0.91 0.47 1.445 0.6 0.54 0.13 1.090 0.2 1.66 0.2 0.92 0 1.69-0.13 2.32-0.37 0.63-0.25 1.14-0.6 1.53-1.070 0.4-0.47 0.68-1.030 0.86-1.7s0.28-1.42 0.28-2.24zM8.042 10.26c-0.636 0-1.187-0.126-1.65-0.38-0.464-0.253-0.85-0.587-1.153-1-0.31-0.413-0.53-0.887-0.68-1.423-0.15-0.537-0.22-1.087-0.22-1.653 0-0.58 0.070-1.148 0.2-1.706 0.14-0.558 0.36-1.055 0.66-1.49 0.3-0.434 0.69-0.786 1.15-1.054s1.020-0.402 1.67-0.402 1.2 0.138 1.66 0.413c0.45 0.276 0.83 0.638 1.12 1.087 0.29 0.45 0.5 0.95 0.63 1.5s0.19 1.102 0.19 1.652c0 0.566-0.080 1.116-0.23 1.653s-0.38 1.010-0.69 1.423-0.68 0.747-1.13 1c-0.45 0.254-0.97 0.38-1.57 0.38z"></path>
</svg>
