<!-- Generated by IcoMoon.io -->
<svg version="1.1" xmlns="http://www.w3.org/2000/svg" width="16" height="16" viewBox="0 0 16 16">
<title>brand195</title>
<path fill="#34a7c1" d="M8 7.998c-0.485 0-0.878-0.393-0.878-0.878s0.393-0.878 0.878-0.878 0.878 0.393 0.878 0.878-0.393 0.878-0.878 0.878zM9.944 7.984c0-1.886-0.74-3.598-1.944-4.866-1.204 1.268-1.944 2.98-1.944 4.866 0 0.864 0.156 1.69 0.44 2.455-0.412 0.6-0.716 1.44-0.85 2.41 0.426-0.51 0.948-0.87 1.528-1.060 0.242 0.37 0.52 0.73 0.826 1.050 0.307-0.33 0.584-0.68 0.826-1.060 0.58 0.18 1.102 0.55 1.527 1.050-0.133-0.97-0.437-1.81-0.85-2.41 0.284-0.77 0.44-1.59 0.44-2.46z"></path>
<path fill="#34a7c1" d="M8 14.667c-3.682 0-6.667-2.985-6.667-6.667s2.985-6.667 6.667-6.667 6.667 2.985 6.667 6.667-2.985 6.667-6.667 6.667zM8 0c-4.418 0-8 3.582-8 8s3.582 8 8 8 8-3.582 8-8-3.582-8-8-8z"></path>
</svg>
