<!-- Generated by IcoMoon.io -->
<svg version="1.1" xmlns="http://www.w3.org/2000/svg" width="16" height="16" viewBox="0 0 16 16">
<title>brand58</title>
<path fill="#f60" d="M5.412 10.083c0.032 0.23 0.092 0.374 0.185 0.462 0.096 0.092 0.226 0.124 0.397 0.143 0.203-0.020 0.34-0.065 0.434-0.2 0.055-0.086 0.092-0.22 0.11-0.405l0.065-0.77v-0.010l-0.014-0.116-0.020-0.115-0.020-0.116-0.020-0.11-0.020-0.116-0.040-0.22-0.020-0.112-0.020-0.107-0.040-0.2v-0.091l-0.040-0.18-0.010-0.082-0.020-0.077-0.020-0.070-0.020-0.11-0.030-0.11-0.060-0.24-0.009-0.131-0.034-0.134-0.030-0.14-0.035-0.14-0.020-0.14-0.030-0.143-0.020-0.142-0.011-0.161-0.010-0.14-0.006-0.15v-0.28l0.014-0.14 0.023-0.14 0.030-0.14 0.040-0.133 0.060-0.13 0.070-0.124 0.030-0.050c-0.13-0.030-0.29-0.050-0.46-0.050-0.070 0-0.13 0-0.2 0.010-1.55 0.134-0.92 1.89-0.65 2.854 0.19 0.67 0.4 2.23 0.48 2.71zM5.597 4.311c0.060 0.020 0.12 0.030 0.19 0.030 0.318 0 0.525-0.17 0.64-0.43 0.074-0.18 0.107-0.4 0.102-0.63-0.010-0.2-0.050-0.38-0.11-0.54-0.13-0.31-0.36-0.52-0.71-0.52-0.050 0-0.090 0-0.12 0.010-0.45 0.070-0.65 0.52-0.63 1.070 0.010 0.52 0.21 0.95 0.62 1.050zM6.427 6.871c0.056 0.24 0.112 0.46 0.158 0.65 0.19 0.77 0.374 2.56 0.443 3.11 0.065 0.55 0.26 0.66 0.647 0.7 0.383-0.030 0.577-0.15 0.642-0.69 0.064-0.54 0.253-2.33 0.438-3.1 0.046-0.19 0.106-0.41 0.16-0.64 0.172-0.7 0.31-1.53 0-2.070-0.197-0.34-0.576-0.56-1.24-0.56-0.67 0-1.054 0.22-1.247 0.57-0.31 0.54-0.17 1.37 0 2.070zM7.665 4.021h0.010c0.6 0 0.88-0.55 0.88-1.22s-0.28-1.23-0.88-1.23h-0.010c-0.61 0-0.89 0.56-0.89 1.24s0.28 1.23 0.89 1.23zM9.549 4.521c-0.18 0-0.34 0.020-0.47 0.050l0.030 0.050 0.070 0.13 0.050 0.13 0.040 0.14 0.030 0.14 0.020 0.14 0.010 0.15v0.29l-0.010 0.15v0.109l-0.020 0.144-0.020 0.143-0.030 0.143-0.060 0.28-0.030 0.138-0.030 0.133-0.030 0.13-0.040 0.13-0.030 0.12-0.020 0.12-0.030 0.11-0.010 0.060-0.020 0.080-0.040 0.18-0.009 0.089-0.020 0.080v0.020l-0.040 0.2-0.014 0.11-0.020 0.11-0.010 0.11-0.020 0.11-0.015 0.12-0.010 0.11-0.030 0.36v0.010c0.030 0.33 0.050 0.62 0.060 0.78 0.020 0.19 0.050 0.32 0.11 0.41 0.090 0.13 0.23 0.18 0.44 0.2 0.17-0.020 0.3-0.050 0.4-0.15 0.1-0.082 0.15-0.23 0.19-0.46 0.080-0.47 0.29-2.032 0.47-2.702 0.27-0.966 0.9-2.72-0.65-2.854-0.070-0.010-0.13-0.010-0.2-0.010zM9.559 4.341c0.060 0 0.12-0.010 0.18-0.020 0.4-0.1 0.6-0.53 0.62-1.040 0.020-0.54-0.18-1-0.63-1.060-0.040-0.010-0.080-0.010-0.12-0.010-0.36 0-0.59 0.22-0.71 0.53-0.060 0.16-0.1 0.35-0.1 0.55-0.010 0.24 0.020 0.46 0.1 0.64 0.11 0.27 0.32 0.44 0.64 0.44zM11.419 5.141c2.86 0.040 4.53 1.8 2.64 4.2-0.88 1.11-2.35 2.21-4.32 2.91l-0.28 0.1c-0.19 0.060-0.37 0.12-0.55 0.17-0.43 0.12-0.84 0.23-1.24 0.31-0.43 0.090-0.85 0.15-1.25 0.2-0.29 0.030-0.57 0.050-0.83 0.050-1.83 0.050-3.21-0.45-3.66-1.52-0.54-1.28 0.55-3.060 2.74-4.42-1.62 0.65-4.56 2.19-4.69 4.38v0.28c0.010 0.23 0.050 0.45 0.13 0.69 0.47 1.48 2.67 2.18 5.47 1.93 0.27-0.020 0.55-0.050 0.83-0.090 0.4-0.060 0.82-0.14 1.24-0.24 0.4-0.090 0.82-0.21 1.24-0.34l0.28-0.090c0.19-0.060 0.37-0.12 0.55-0.19 2.43-0.88 4.23-2.050 5.28-3.4 0.6-0.77 0.91-1.49 0.97-2.12v-0.49c-0.17-1.61-2.040-2.55-4.58-2.29z"></path>
</svg>
