<!-- Generated by IcoMoon.io -->
<svg version="1.1" xmlns="http://www.w3.org/2000/svg" width="16" height="16" viewBox="0 0 16 16">
<title>brand149</title>
<path d="M3.226 6.763v0.38h0.023c0.68-0.41 1.38-0.444 1.8-0.444 1.13 0 1.52 0.32 1.66 0.44 0.26-0.15 0.82-0.45 1.79-0.45 1.93 0 1.93 0.76 1.93 1.060v1.8h-1.549v-1.589c0-0.33 0-0.697-0.827-0.697-0.408 0-0.828 0.124-0.975 0.307-0.137 0.156-0.194 0.297-0.194 0.642v1.348h-1.55v-1.535c0-0.474 0.010-0.76-0.804-0.76-0.41 0-0.828 0.108-0.987 0.27-0.124 0.123-0.204 0.253-0.204 0.664v1.36h-1.559v-2.8h1.44zM14.18 7.383h-1.127v1.12c0 0.395 0 0.524 0.46 0.524 0.22 0 0.413-0.025 0.62-0.064l0.047-0.006 0.146 0.57c-0.545 0.1-1.14 0.11-1.31 0.11-0.507 0-1.162-0.074-1.404-0.283-0.206-0.17-0.23-0.337-0.23-0.76v-1.214h-0.764v-0.584h0.763v-0.553l1.68-0.433v0.986h1.13v0.584zM1.027 11.14c-0.617-0.932-1.027-2.040-1.027-3.154 0-1.316 0.517-2.386 1.040-3.14h0.624c-0.464 1.027-0.778 1.9-0.778 3.168 0 1.455 0.516 2.577 0.75 3.085 0.007 0 0.022 0.030 0.022 0.040h-0.63zM14.973 4.86c0.617 0.932 1.027 2.040 1.027 3.154 0 1.314-0.517 2.387-1.040 3.14h-0.624c0.463-1.028 0.78-1.9 0.78-3.168 0-1.456-0.518-2.576-0.753-3.086-0.007-0.007-0.020-0.033-0.020-0.040h0.63z"></path>
</svg>
