<!-- Generated by IcoMoon.io -->
<svg version="1.1" xmlns="http://www.w3.org/2000/svg" width="16" height="16" viewBox="0 0 16 16">
<title>brand171</title>
<path d="M9.45 16h2.45c2.25 0 4.1-1.85 4.1-4.1v-7.8c0-2.25-1.85-4.1-4.1-4.1h-2.5c-0.050 0-0.1 0.050-0.1 0.1v15.8c0 0.050 0.050 0.1 0.15 0.1zM12.5 7.2c0.9 0 1.6 0.75 1.6 1.6 0 0.9-0.75 1.6-1.6 1.6-0.9 0-1.6-0.7-1.6-1.6-0.050-0.9 0.7-1.6 1.6-1.6zM7.6 0h-3.5c-2.25 0-4.1 1.85-4.1 4.1v7.8c0 2.25 1.85 4.1 4.1 4.1h3.5c0.050 0 0.1-0.050 0.1-0.1v-15.8c0-0.050-0.050-0.1-0.1-0.1zM6.45 14.7h-2.35c-1.55 0-2.8-1.25-2.8-2.8v-7.8c0-1.55 1.25-2.8 2.8-2.8h2.3l0.050 13.4zM2.5 4.8c0 0.85 0.65 1.5 1.5 1.5s1.5-0.65 1.5-1.5-0.65-1.5-1.5-1.5-1.5 0.65-1.5 1.5z"></path>
</svg>
