<!-- Generated by IcoMoon.io -->
<svg version="1.1" xmlns="http://www.w3.org/2000/svg" width="16" height="16" viewBox="0 0 16 16">
<title>brand111</title>
<path fill="#6a3" d="M2.517 7.006h-0.807c-0.28 0-0.436 0.062-0.436 0.062v-1.71h-1.274v5.283h1.274v-2.111c0-0.217 0.155-0.373 0.342-0.373h0.745c0.19 0 0.35 0.156 0.35 0.342v2.14h1.27v-2.3c-0.001-0.969-0.651-1.339-1.461-1.339zM14.73 7v2.12c0 0.186-0.157 0.34-0.344 0.34h-0.745c-0.18 0-0.34-0.154-0.34-0.34v-2.115h-1.27v2.237c0 0.9 0.59 1.398 1.46 1.398h1.25c0.81 0 1.28-0.557 1.28-1.396v-2.238h-1.28zM7.55 9.11c0 0.19-0.156 0.344-0.342 0.344h-0.746c-0.186 0-0.342-0.156-0.342-0.343v-2.111h-1.273v2.24c0 0.9 0.59 1.4 1.46 1.4h1.243c0.807 0 1.273-0.556 1.273-1.395v-2.24h-1.273v2.115zM9.817 10.635h1.274v-5.275h-1.271v5.28z"></path>
</svg>
