<!-- Generated by IcoMoon.io -->
<svg version="1.1" xmlns="http://www.w3.org/2000/svg" width="16" height="16" viewBox="0 0 16 16">
<title>brand269</title>
<path fill="#ff7102" d="M6.743 11.252c0.043-0.036 0.086-0.073 0.127-0.112-0.806 0.784-1.837 1.17-2.86 1.157h-0.016c-1.030-0.017-2.053-0.438-2.83-1.263-0.488-0.52-0.822-1.138-1.004-1.794v-0.004c-0.402-1.466-0.044-3.116 1.070-4.27 1.564-1.622 4.048-1.662 5.638-0.137l1.172 1.23 2.818 2.99h0.012c0.030 0.030 0.060 0.050 0.080 0.080 0.57 0.52 1.44 0.5 1.99-0.070 0.58-0.6 0.6-1.58 0.030-2.19-0.060-0.070-0.13-0.13-0.2-0.18l-0.16-0.11c-0.55-0.3-1.25-0.2-1.72 0.28-0.070 0.070-0.13 0.15-0.18 0.23-0.2 0.31-0.27 0.68-0.23 1.040l-1.010-1.019-1.17-1.11c0.19-0.376 0.438-0.73 0.743-1.046 0.070-0.070 0.14-0.14 0.212-0.204-0.043 0.036-0.086 0.073-0.127 0.112 0.806-0.784 1.837-1.17 2.86-1.157h0.016c1.030 0.017 2.053 0.438 2.83 1.263 0.488 0.52 0.822 1.138 1.004 1.795v0.004c0.403 1.465 0.045 3.117-1.070 4.27-1.564 1.622-4.048 1.662-5.638 0.137l-0.81-0.858-0.362-0.387-2.816-3-0.003-0.010c-0.010 0-0.010-0.010-0.010-0.010-0.030-0.030-0.060-0.060-0.080-0.090-0.57-0.52-1.44-0.51-1.99 0.070-0.58 0.6-0.6 1.58-0.030 2.18 0.060 0.070 0.13 0.12 0.2 0.18l0.16 0.1c0.55 0.29 1.25 0.2 1.72-0.29 0.070-0.070 0.13-0.15 0.18-0.23 0.2-0.31 0.27-0.69 0.23-1.050l1.010 1.040 1.171 1.181c-0.19 0.376-0.438 0.73-0.743 1.046-0.070 0.070-0.14 0.14-0.212 0.204z"></path>
</svg>
