<!-- Generated by IcoMoon.io -->
<svg version="1.1" xmlns="http://www.w3.org/2000/svg" width="16" height="16" viewBox="0 0 16 16">
<title>brand291</title>
<path fill="#13b5ea" d="M8 0c-4.418 0-8 3.582-8 8s3.582 8 8 8 8-3.582 8-8-3.582-8-8-8zM12.39 9.77c-0.99 0-1.794-0.804-1.794-1.793 0-0.99 0.805-1.794 1.794-1.794s1.794 0.805 1.794 1.794c0 0.99-0.805 1.793-1.794 1.793zM5.020 9.762c-0.066 0-0.128-0.027-0.177-0.077l-1.363-1.36-1.368 1.365c-0.046 0.046-0.107 0.072-0.172 0.072-0.135 0-0.245-0.11-0.245-0.245 0-0.066 0.026-0.128 0.074-0.175l1.36-1.367-1.359-1.365c-0.050-0.046-0.075-0.108-0.075-0.174 0-0.135 0.11-0.244 0.245-0.244 0.065 0 0.126 0.025 0.172 0.070l1.37 1.366 1.365-1.364c0.046-0.047 0.108-0.072 0.174-0.072 0.14 0 0.25 0.11 0.25 0.244 0 0.065-0.020 0.126-0.070 0.172l-1.37 1.37 1.369 1.367c0.046 0.046 0.070 0.107 0.070 0.172 0 0.135-0.11 0.245-0.243 0.245zM10.364 6.702c-0.53 0.067-0.587 0.317-0.587 0.936v1.858c0 0.135-0.11 0.244-0.245 0.244s-0.244-0.11-0.245-0.244v-3.020c0-0.136 0.107-0.244 0.242-0.244 0.11 0 0.21 0.083 0.23 0.193 0.18-0.14 0.4-0.212 0.62-0.212h0.070c0.13 0 0.24 0.11 0.24 0.245s-0.11 0.235-0.25 0.24c0 0-0.060 0-0.11 0.005zM8.304 8.172h-2.554c0 0.012 0.002 0.025 0.004 0.038 0.013 0.070 0.030 0.14 0.055 0.206 0.13 0.354 0.51 0.85 1.22 0.86 0.22-0.002 0.42-0.057 0.6-0.153 0.14-0.080 0.26-0.18 0.35-0.285 0.030-0.038 0.060-0.075 0.080-0.112 0.12-0.153 0.27-0.124 0.36-0.055 0.11 0.090 0.12 0.26 0.030 0.38l-0.010 0.010c-0.14 0.18-0.29 0.33-0.46 0.44s-0.35 0.19-0.54 0.23c-0.22 0.060-0.43 0.070-0.65 0.040-0.73-0.090-1.34-0.62-1.52-1.34-0.040-0.14-0.060-0.28-0.060-0.43 0-0.57 0.28-1.13 0.75-1.47 0.59-0.41 1.39-0.44 2-0.050 0.42 0.27 0.69 0.68 0.79 1.18 0.050 0.28-0.14 0.53-0.49 0.54zM12.39 6.69c-0.71 0-1.287 0.577-1.287 1.287s0.577 1.287 1.287 1.287 1.287-0.578 1.287-1.287c0-0.71-0.577-1.288-1.287-1.288zM12.39 8.42c-0.245 0-0.444-0.198-0.444-0.444s0.2-0.444 0.444-0.444c0.245 0 0.445 0.2 0.445 0.444 0 0.246-0.2 0.445-0.445 0.445zM7.030 6.685c-0.607 0-1.115 0.415-1.257 0.977v0.020h2.517c-0.135-0.57-0.648-0.996-1.26-0.996z"></path>
</svg>
