<!-- Generated by IcoMoon.io -->
<svg version="1.1" xmlns="http://www.w3.org/2000/svg" width="16" height="16" viewBox="0 0 16 16">
<title>brand209</title>
<path fill="#c69" d="M8 0c4.418 0 8 3.582 8 8s-3.582 8-8 8-8-3.582-8-8 3.582-8 8-8zM6.41 10.665c0.117 0.43 0.104 0.832-0.016 1.195l-0.044 0.12c-0.016 0.040-0.034 0.080-0.052 0.117-0.093 0.193-0.217 0.373-0.37 0.54-0.465 0.506-1.114 0.698-1.393 0.536-0.3-0.174-0.15-0.89 0.39-1.46 0.58-0.612 1.413-1.006 1.413-1.006v-0.002l0.072-0.040zM13.018 3.425c-0.362-1.422-2.718-1.89-4.948-1.097-1.327 0.472-2.763 1.212-3.796 2.178-1.228 1.148-1.424 2.148-1.344 2.566 0.285 1.474 2.305 2.438 3.136 3.153v0.004c-0.245 0.12-2.037 1.020-2.457 1.95-0.45 0.98 0.070 1.68 0.41 1.77 1.050 0.29 2.13-0.24 2.71-1.1 0.56-0.84 0.51-1.92 0.27-2.45 0.33-0.090 0.72-0.13 1.22-0.070 1.4 0.16 1.68 1.040 1.62 1.4s-0.35 0.57-0.45 0.63c-0.1 0.060-0.13 0.080-0.12 0.12 0.010 0.060 0.060 0.060 0.14 0.050 0.11-0.020 0.73-0.3 0.76-0.98 0.030-0.86-0.79-1.82-2.25-1.8-0.6 0.010-0.98 0.060-1.25 0.17-0.020-0.030-0.040-0.050-0.070-0.070-0.9-0.97-2.57-1.65-2.5-2.94 0.020-0.47 0.19-1.71 3.2-3.21 2.47-1.23 4.44-0.89 4.78-0.14 0.49 1.070-1.050 3.060-3.62 3.35-0.98 0.11-1.49-0.27-1.62-0.41-0.14-0.15-0.16-0.16-0.21-0.13-0.080 0.040-0.030 0.17 0 0.25 0.080 0.2 0.39 0.55 0.93 0.73 0.47 0.15 1.62 0.24 3-0.3 1.55-0.6 2.76-2.27 2.41-3.67z"></path>
</svg>
