<!-- Generated by IcoMoon.io -->
<svg version="1.1" xmlns="http://www.w3.org/2000/svg" width="16" height="16" viewBox="0 0 16 16">
<title>brand204</title>
<path fill="#ff4500" d="M1.473 9.368c-0.040 0.185-0.060 0.374-0.060 0.566 0 2.3 2.94 4.173 6.554 4.173 3.613 0 6.553-1.872 6.553-4.173 0-0.183-0.020-0.364-0.055-0.54l-0.010-0.022c-0.013-0.036-0.020-0.073-0.020-0.11-0.2-0.784-0.745-1.497-1.533-2.072-0.030-0.010-0.058-0.026-0.084-0.047-0.017-0.013-0.030-0.028-0.044-0.043-1.198-0.824-2.91-1.34-4.807-1.34-1.88 0-3.576 0.506-4.772 1.315-0.010 0.012-0.020 0.023-0.033 0.033-0.026 0.022-0.056 0.040-0.087 0.050-0.805 0.576-1.364 1.293-1.572 2.086 0 0.038-0.010 0.077-0.025 0.114l-0.005 0.010zM8 13.003c-1.198 0-2.042-0.26-2.58-0.8-0.116-0.116-0.116-0.305 0-0.422 0.117-0.11 0.307-0.11 0.424 0 0.42 0.42 1.125 0.63 2.155 0.63s1.73-0.2 2.15-0.62c0.11-0.11 0.3-0.11 0.42 0 0.11 0.12 0.11 0.31 0 0.43-0.54 0.54-1.38 0.8-2.58 0.8zM5.592 7.945c-0.61 0-1.12 0.51-1.12 1.12 0 0.608 0.51 1.102 1.12 1.102s1.103-0.494 1.103-1.102c0-0.61-0.494-1.12-1.103-1.12zM10.422 7.945c-0.61 0-1.12 0.51-1.12 1.12 0 0.608 0.51 1.102 1.12 1.102s1.103-0.494 1.103-1.102c0-0.61-0.494-1.12-1.103-1.12zM13.46 6.88c0.693 0.556 1.202 1.216 1.462 1.94 0.3-0.225 0.48-0.578 0.48-0.968 0-0.67-0.545-1.214-1.214-1.214-0.267 0-0.52 0.087-0.728 0.243zM1.812 6.64c-0.67 0-1.214 0.545-1.214 1.214 0 0.363 0.16 0.7 0.43 0.927 0.268-0.72 0.782-1.37 1.478-1.92-0.202-0.14-0.443-0.22-0.694-0.22zM7.967 14.707c-3.944 0-7.152-2.14-7.152-4.77 0-0.183 0.016-0.363 0.046-0.54-0.53-0.33-0.86-0.91-0.86-1.545 0-1 0.82-1.812 1.82-1.812 0.45 0 0.87 0.164 1.2 0.455 1.24-0.796 2.91-1.297 4.75-1.33l1.21-3.69 0.27 0.063s0.010 0 0.010 0.002l2.82 0.663c0.23-0.533 0.76-0.908 1.38-0.908 0.82 0 1.49 0.67 1.49 1.492s-0.67 1.492-1.49 1.492-1.49-0.67-1.49-1.49l-2.571-0.609-0.98 2.99c1.77 0.070 3.37 0.57 4.57 1.35 0.33-0.31 0.764-0.48 1.225-0.48 1 0 1.814 0.81 1.814 1.81 0 0.66-0.36 1.26-0.92 1.58 0.020 0.17 0.040 0.33 0.040 0.5-0.010 2.63-3.21 4.77-7.16 4.77zM13.43 1.893c-0.494 0-0.895 0.4-0.895 0.894s0.4 0.894 0.894 0.894c0.49 0 0.89-0.4 0.89-0.89s-0.4-0.89-0.9-0.89z"></path>
</svg>
