<!-- Generated by IcoMoon.io -->
<svg version="1.1" xmlns="http://www.w3.org/2000/svg" width="16" height="16" viewBox="0 0 16 16">
<title>brand153</title>
<path fill="#f00" d="M8 4c1.73 0 2.874 0.842 3.722 1.817l0.165 0.195c0.055 0.067 0.11 0.134 0.162 0.2 0.29 0.38 0.54 0.764 0.78 1.116 0.16 0.238 0.31 0.462 0.46 0.672l0.15 0.214c0.050 0.070 0.1 0.14 0.16 0.206 0.62 0.78 1.26 1.267 2.19 1.327 0.13-0.563 0.2-1.147 0.2-1.747s-0.070-1.184-0.2-1.747c-0.93 0.060-1.57 0.546-2.2 1.327-0.12-0.164-0.24-0.34-0.37-0.53-0.25-0.378-0.54-0.806-0.88-1.23 0.67-0.78 1.5-1.45 2.62-1.705-1.329-2.455-3.949-4.115-6.959-4.115-3 0-5.627 1.66-6.993 4.115 1.12 0.256 1.948 0.925 2.62 1.704 0.057 0.060 0.112 0.12 0.166 0.19l0.158 0.2c0.32 0.41 0.61 0.83 0.87 1.23l0.37 0.55 0.16 0.22c0.050 0.070 0.11 0.14 0.16 0.21 0.7 0.96 1.41 1.62 2.5 1.62 1.1 0 1.8-0.66 2.51-1.62l0.25 0.37c0.3 0.44 0.62 0.92 0.97 1.37-0.85 0.98-2 1.82-3.73 1.82s-2.87-0.85-3.72-1.82l-0.32-0.4c-0.29-0.38-0.54-0.77-0.78-1.12-0.16-0.24-0.31-0.46-0.46-0.67l-0.15-0.22c-0.050-0.070-0.1-0.14-0.16-0.21-0.651-0.739-1.291-1.229-2.221-1.289-0.13 0.566-0.2 1.15-0.2 1.75s0.068 1.184 0.194 1.747c0.932-0.060 1.57-0.546 2.196-1.327 0.115 0.164 0.236 0.34 0.363 0.53 0.25 0.378 0.537 0.806 0.875 1.23-0.673 0.78-1.502 1.45-2.62 1.705 1.364 2.455 3.982 4.115 6.992 4.115s5.627-1.66 6.993-4.115c-1.12-0.256-1.948-0.925-2.62-1.704-0.057-0.060-0.112-0.12-0.166-0.19l-0.158-0.2c-0.32-0.41-0.61-0.83-0.87-1.23l-0.369-0.561c-0.050-0.074-0.103-0.15-0.154-0.22-0.052-0.074-0.103-0.146-0.155-0.217-0.7-0.96-1.4-1.62-2.5-1.62s-1.8 0.66-2.5 1.62l-0.25-0.373c-0.29-0.446-0.61-0.92-0.97-1.373 0.849-0.975 1.969-1.817 3.719-1.817z"></path>
</svg>
