<!-- Generated by IcoMoon.io -->
<svg version="1.1" xmlns="http://www.w3.org/2000/svg" width="16" height="16" viewBox="0 0 16 16">
<title>brand223</title>
<path fill="#56b68b" d="M6.586 7.33l0.69 2.057 2.137-0.716-0.69-2.050-2.137 0.72z"></path>
<path fill="#56b68b" d="M12.55 9.37l-1.037 0.347 0.36 1.073c0.145 0.434-0.090 0.904-0.524 1.050-0.1 0.030-0.19 0.045-0.29 0.042-0.34-0.010-0.65-0.226-0.77-0.566l-0.36-1.072-2.14 0.716 0.36 1.072c0.14 0.435-0.090 0.905-0.53 1.050-0.1 0.032-0.19 0.045-0.29 0.043-0.34-0.010-0.65-0.226-0.77-0.566l-0.36-1.080-1.040 0.35c-0.1 0.030-0.19 0.040-0.29 0.040-0.34-0.010-0.65-0.23-0.77-0.57-0.15-0.44 0.090-0.91 0.52-1.050l1.040-0.35-0.659-2.059-1.034 0.35c-0.094 0.032-0.19 0.045-0.285 0.043-0.33-0.010-0.65-0.225-0.76-0.565-0.14-0.433 0.090-0.903 0.53-1.050l1.040-0.346-0.36-1.070c-0.14-0.436 0.090-0.906 0.53-1.050 0.44-0.147 0.91 0.090 1.050 0.522l0.36 1.072 2.129-0.716-0.36-1.070c-0.14-0.43 0.090-0.9 0.526-1.050 0.435-0.14 0.906 0.090 1.050 0.528l0.36 1.080 1.037-0.34c0.434-0.146 0.904 0.090 1.050 0.52 0.145 0.436-0.090 0.906-0.523 1.050l-1.038 0.35 0.69 2.057 1.034-0.344c0.435-0.14 0.905 0.090 1.050 0.53s-0.090 0.91-0.52 1.050zM15.33 5.8c-1.65-5.496-4.032-6.78-9.53-5.13-5.496 1.65-6.78 4.030-5.13 9.53 1.65 5.497 4.030 6.78 9.53 5.13 5.497-1.65 6.78-4.030 5.13-9.53z"></path>
</svg>
