<!-- Generated by IcoMoon.io -->
<svg version="1.1" xmlns="http://www.w3.org/2000/svg" width="16" height="16" viewBox="0 0 16 16">
<title>brand42</title>
<path fill="#00a1cc" d="M15.31 5.21c0.158-0.548 0.237-1.118 0.237-1.695s-0.080-1.145-0.236-1.693c-0.2-0.685-0.7-1.222-1.37-1.476-0.661-0.23-1.341-0.346-2.041-0.346-0.693 0-1.378 0.116-2.034 0.346-0.67 0.254-1.17 0.792-1.373 1.476-0.158 0.552-0.238 1.12-0.238 1.693s0.080 1.142 0.238 1.694c0.203 0.68 0.704 1.22 1.373 1.47 0.657 0.23 1.34 0.34 2.035 0.34 0.7 0 1.38-0.12 2.040-0.35 0.67-0.26 1.17-0.79 1.38-1.48zM13.346 3.516c0 0.28-0.042 0.56-0.126 0.825-0.114 0.37-0.417 0.64-0.79 0.71-0.173 0.040-0.35 0.050-0.528 0.050s-0.356-0.010-0.53-0.050c-0.372-0.070-0.675-0.34-0.79-0.7-0.083-0.26-0.125-0.54-0.125-0.82s0.042-0.56 0.126-0.82c0.114-0.36 0.417-0.63 0.79-0.7 0.17-0.030 0.35-0.050 0.53-0.050 0.178 0 0.356 0.020 0.527 0.050 0.373 0.070 0.676 0.34 0.79 0.7 0.084 0.27 0.126 0.55 0.126 0.83zM7.51 12.73c0.155-0.547 0.235-1.117 0.235-1.694s-0.080-1.145-0.236-1.693c-0.21-0.685-0.71-1.223-1.38-1.476-0.66-0.23-1.35-0.346-2.040-0.346-0.7 0-1.38 0.12-2.040 0.35-0.67 0.26-1.17 0.79-1.37 1.48-0.16 0.55-0.24 1.12-0.24 1.7 0 0.57 0.080 1.15 0.23 1.7 0.2 0.69 0.7 1.23 1.37 1.48 0.66 0.23 1.34 0.35 2.040 0.35 0.69 0 1.37-0.11 2.030-0.34 0.66-0.25 1.16-0.79 1.37-1.47zM5.543 11.037c0 0.282-0.042 0.56-0.125 0.825-0.115 0.36-0.418 0.63-0.79 0.704-0.173 0.034-0.35 0.050-0.53 0.050-0.177 0-0.355-0.016-0.528-0.050-0.373-0.073-0.676-0.343-0.79-0.704-0.083-0.265-0.126-0.543-0.126-0.825s0.043-0.56 0.126-0.826c0.114-0.36 0.417-0.63 0.79-0.7 0.17-0.030 0.35-0.050 0.53-0.050s0.356 0.020 0.528 0.050c0.372 0.080 0.675 0.35 0.79 0.71 0.083 0.27 0.125 0.55 0.125 0.83zM5.543 3.502h2.202c-0.002-0.57-0.080-1.136-0.236-1.68-0.209-0.685-0.709-1.222-1.379-1.476-0.652-0.23-1.338-0.346-2.030-0.346-0.695 0-1.38 0.116-2.037 0.346-0.67 0.254-1.17 0.792-1.373 1.476-0.157 0.552-0.237 1.122-0.237 1.693 0 0.572 0.080 1.142 0.237 1.694 0.203 0.68 0.704 1.22 1.373 1.47 0.657 0.23 1.342 0.34 2.036 0.34 0.69 0 1.37-0.12 2.030-0.35 0.67-0.25 1.17-0.79 1.37-1.48 0.020-0.1 0.050-0.19 0.070-0.29l-2.069-0.949c-0.020 0.13-0.050 0.258-0.090 0.384-0.115 0.363-0.418 0.633-0.79 0.706-0.173 0.034-0.35 0.050-0.53 0.050-0.177 0-0.355-0.016-0.528-0.050-0.373-0.073-0.676-0.343-0.79-0.704-0.083-0.27-0.126-0.547-0.126-0.83s0.043-0.56 0.126-0.825c0.114-0.36 0.417-0.63 0.79-0.7 0.17-0.030 0.35-0.050 0.53-0.050s0.356 0.020 0.528 0.050c0.38 0.080 0.68 0.35 0.79 0.71 0.090 0.26 0.13 0.54 0.13 0.81zM8.493 9.342c-0.158 0.553-0.238 1.122-0.238 1.694v4.964h2.202v-4.964c0-0.282 0.042-0.56 0.126-0.825 0.114-0.36 0.417-0.63 0.79-0.7 0.17-0.030 0.35-0.050 0.53-0.050 0.178 0 0.356 0.020 0.527 0.050 0.373 0.080 0.676 0.35 0.79 0.71 0.084 0.27 0.126 0.55 0.126 0.83s-0.042 0.56-0.126 0.83c-0.114 0.36-0.417 0.63-0.79 0.71-0.173 0.040-0.35 0.050-0.528 0.050s-0.356-0.010-0.53-0.050c-0.070-0.010-0.14-0.030-0.207-0.060l0.746 2.050c0.7 0 1.38-0.12 2.030-0.35 0.67-0.25 1.17-0.79 1.38-1.47 0.16-0.54 0.24-1.11 0.24-1.69s-0.080-1.15-0.23-1.69c-0.2-0.68-0.7-1.22-1.37-1.47-0.66-0.23-1.34-0.35-2.040-0.35-0.69 0-1.38 0.12-2.030 0.35-0.67 0.25-1.17 0.79-1.37 1.48z"></path>
</svg>
