<!-- Generated by IcoMoon.io -->
<svg version="1.1" xmlns="http://www.w3.org/2000/svg" width="16" height="16" viewBox="0 0 16 16">
<title>brand247</title>
<path fill="#809cc9" d="M16 13.836v-4.204c-2.19 0.864-4.908 1.704-8.153 2.524-3.023 0.763-5.639 1.314-7.847 1.65v0.030h16zM0 9.386v3.422c2.492-0.368 4.744-0.805 6.754-1.312 1.974-0.499 3.496-0.983 4.564-1.453s1.56-0.865 1.48-1.187c-0.071-0.28-0.564-0.423-1.478-0.43-0.469 0.006-1.113 0.040-1.936 0.1s-1.849 0.156-3.074 0.284c-1.899 0.203-3.477 0.358-4.732 0.463-0.598 0.050-1.124 0.088-1.578 0.113zM0.69 11.353c0.040 0 0.076 0.016 0.107 0.047 0.030 0.030 0.046 0.068 0.046 0.11 0 0.044-0.016 0.080-0.046 0.112-0.032 0.030-0.070 0.044-0.11 0.044-0.022 0-0.043-0.004-0.062-0.012-0.020-0.008-0.036-0.020-0.050-0.033-0.015-0.010-0.026-0.030-0.034-0.050 0-0.010-0.010-0.030-0.010-0.060 0-0.040 0.020-0.080 0.050-0.11s0.070-0.040 0.12-0.040zM1.23 11.353c0.042 0 0.078 0.016 0.11 0.047 0.030 0.030 0.044 0.068 0.044 0.11 0 0.044-0.015 0.080-0.045 0.112-0.040 0.030-0.070 0.044-0.12 0.044-0.020 0-0.040-0.004-0.060-0.012s-0.040-0.020-0.050-0.033c-0.020-0.010-0.030-0.030-0.040-0.050-0.010-0.010-0.010-0.030-0.010-0.060 0-0.040 0.010-0.080 0.040-0.11s0.070-0.040 0.11-0.040zM0.69 10.345c0.040 0 0.076 0.015 0.107 0.047 0.030 0.030 0.046 0.066 0.046 0.11s-0.016 0.080-0.046 0.11-0.067 0.046-0.11 0.046c-0.044 0-0.082-0.015-0.112-0.046s-0.046-0.068-0.046-0.11c0-0.045 0.010-0.082 0.040-0.112s0.070-0.045 0.11-0.045zM1.23 10.345c0.042 0 0.078 0.015 0.11 0.047 0.030 0.030 0.044 0.066 0.044 0.11s-0.015 0.080-0.045 0.11c-0.040 0.030-0.070 0.046-0.12 0.046s-0.080-0.015-0.11-0.046c-0.030-0.030-0.050-0.068-0.050-0.11 0-0.045 0.010-0.082 0.040-0.112s0.070-0.045 0.11-0.045zM16 3.065v3.21c-1.090 0.066-2.453 0.185-4.092 0.356-1.66 0.18-3.013 0.32-4.062 0.41-1.050 0.1-1.808 0.15-2.273 0.16-0.908 0.020-1.393-0.1-1.463-0.37-0.070-0.3 0.47-0.7 1.63-1.18 1.16-0.49 2.7-0.98 4.6-1.46 1.67-0.42 3.56-0.79 5.66-1.1zM15.43 2.165c-2.17 0.404-4.418 0.9-6.743 1.487-3.63 0.916-6.525 1.828-8.687 2.73v-4.217h15.43z"></path>
</svg>
