<!-- Generated by IcoMoon.io -->
<svg version="1.1" xmlns="http://www.w3.org/2000/svg" width="16" height="16" viewBox="0 0 16 16">
<title>brand211</title>
<path fill="#1a7bba" d="M9.897 14.030c0-1.415 1.047-2.625 2.36-2.87-0.062-1.314-0.616-2.216-1.478-2.893-0.87-0.677-2.080-1.19-3.39-1.703-1.419-0.554-2.479-1.046-2.479-2.114 0-0.9 0.78-1.578 2.090-1.578 0.8 0 1.315 0.123 1.58 0.266 0 0.062-0.020 0.144-0.060 0.206-0.040 0.082-0.060 0.184-0.060 0.328 0 0.902 0.655 1.702 1.824 1.702 1.067 0 1.703-0.8 1.703-1.97 0-0.983-0.555-1.845-1.458-2.44-0.919-0.594-2.199-0.964-3.649-0.964-1.5 0.103-2.79 0.656-3.692 1.477s-1.436 1.928-1.436 3.24c0 1.457 0.513 2.4 1.354 3.12 0.84 0.717 2.050 1.23 3.507 1.742 1.58 0.51 2.503 1.040 2.503 2.090 0 1.060-0.923 1.7-2.38 1.7-0.76 0-1.415-0.13-1.97-0.51 0.145-0.27 0.145-0.54 0.145-0.8 0-0.76-0.67-1.71-1.84-1.71-1.040 0-1.82 0.8-1.82 1.97 0 0.98 0.62 1.91 1.63 2.56 0.99 0.68 2.38 1.11 3.88 1.11 1.32 0 2.51-0.25 3.43-0.91-0.14-0.27-0.26-0.66-0.26-1.070zM14.759 14.030c0 1.047-0.85 1.847-1.85 1.847s-1.83-0.8-1.83-1.846c0-1 0.82-1.82 1.82-1.82s1.84 0.82 1.84 1.83z"></path>
</svg>
