<!-- Generated by IcoMoon.io -->
<svg version="1.1" xmlns="http://www.w3.org/2000/svg" width="16" height="16" viewBox="0 0 16 16">
<title>brand68</title>
<path fill="#5ab552" d="M3.85 2.273c0.286-0.167 0.583-0.315 0.893-0.444 0.655-0.28 1.33-0.44 2.024-0.51l0.752 0.85-0.35 0.88c-0.68 0.13-1.32 0.38-1.92 0.74l-0.13 0.080-0.119-1.159-1.15-0.44z"></path>
<path fill="#5ab552" d="M3.523 2.48l1.194 0.46 0.125 1.14c-0.646 0.475-1.15 1.082-1.51 1.82-0.034 0.066-0.064 0.132-0.093 0.2l-0.839-1.020-1.37 0.29c0.34-0.736 0.8-1.394 1.375-1.974 0.344-0.347 0.714-0.652 1.112-0.917zM11.38 10.516c0.13-0.216 0.235-0.435 0.32-0.66l1.292 1.567 2.17-0.468c-0.124 0.342-0.272 0.677-0.442 1.005-0.446 0.86-1.034 1.606-1.765 2.24-0.742 0.642-1.58 1.11-2.515 1.406-0.018 0.006-0.037 0.010-0.055 0.017l-1.608-1.36 0.42-1.85 0.033-0.014c0.92-0.4 1.638-1.020 2.15-1.89z"></path>
<path fill="#5ab552" d="M14.097 3.2c0.133 0.183 0.257 0.373 0.375 0.57 0.495 0.832 0.837 1.722 1.027 2.67 0.18 0.94 0.21 1.886 0.080 2.835-0.070 0.456-0.17 0.9-0.31 1.335l-2.17 0.466-1.3-1.572c0.15-0.578 0.17-1.18 0.040-1.806-0.15-0.743-0.48-1.377-0.97-1.9l2.34-0.28 0.87-2.318zM0.885 5.72l1.4-0.296 0.824 1.006c-0.26 0.723-0.32 1.474-0.19 2.254 0.030 0.222 0.080 0.437 0.14 0.646l-1.48-0.337-1.060 1.254c-0.129-0.555-0.189-1.123-0.189-1.703 0.002-0.967 0.18-1.9 0.538-2.8l0.010-0.025z"></path>
<path fill="#5ab552" d="M3.18 9.677c0.213 0.562 0.526 1.076 0.94 1.544 0.31 0.36 0.66 0.65 1.042 0.88l-1.467 0.84 0.080 1.91c-0.484-0.3-0.93-0.66-1.334-1.070-0.68-0.7-1.2-1.5-1.56-2.4-0.1-0.25-0.18-0.5-0.25-0.75l1.090-1.28 1.48 0.34z"></path>
<path fill="#5ab552" d="M5.482 12.276c0.315 0.157 0.653 0.277 1.012 0.36 0.805 0.186 1.59 0.155 2.353-0.094l-0.417 1.838 1.592 1.347c-0.796 0.208-1.61 0.297-2.44 0.267-0.97-0.030-1.902-0.236-2.794-0.616-0.24-0.102-0.47-0.215-0.694-0.34l-0.080-1.922 1.468-0.84zM13.872 2.906l-0.875 2.325-2.41 0.29c-0.070-0.060-0.142-0.12-0.218-0.17-0.79-0.6-1.68-0.95-2.67-1.050-0.23-0.020-0.45-0.020-0.66-0.020l0.84-2.15-1.819-2.071c0.552-0.060 1.092-0.070 1.64-0.060 0.327 0.010 0.65 0.034 0.973 0.075 0.453 0.060 0.9 0.16 1.343 0.28 0.937 0.267 1.79 0.69 2.562 1.287 0.486 0.373 0.918 0.795 1.295 1.265z"></path>
</svg>
