<!-- Generated by IcoMoon.io -->
<svg version="1.1" xmlns="http://www.w3.org/2000/svg" width="16" height="16" viewBox="0 0 16 16">
<title>brand243</title>
<path fill="#008cdd" d="M9.307 6.1c-1.447-0.537-2.237-0.95-2.237-1.606 0-0.554 0.455-0.87 1.267-0.87 1.485 0 3.010 0.573 4.060 1.088l0.593-3.663c-0.832-0.399-2.535-1.049-4.89-1.049-1.665 0-3.050 0.436-4.040 1.248-1.030 0.85-1.565 2.080-1.565 3.564 0 2.693 1.644 3.84 4.317 4.812 1.723 0.614 2.297 1.050 2.297 1.722 0 0.654-0.56 1.030-1.57 1.030-1.25 0-3.31-0.614-4.66-1.406l-0.6 3.703c1.161 0.654 3.301 1.327 5.521 1.327 1.76 0 3.228-0.416 4.218-1.208 1.11-0.87 1.684-2.158 1.684-3.822 0-2.752-1.683-3.9-4.396-4.87z"></path>
</svg>
