<!-- Generated by IcoMoon.io -->
<svg version="1.1" xmlns="http://www.w3.org/2000/svg" width="16" height="16" viewBox="0 0 16 16">
<title>brand278</title>
<path fill="#11b48a" d="M15.013 7.954c-0.412 0.095-0.81 0.137-1.17 0.137-2.018 0-3.572-1.41-3.572-3.86 0-1.2 0.47-1.82 1.13-1.82 0.63 0 1.040 0.56 1.040 1.7 0 0.65-0.17 1.36-0.3 1.78 0 0 0.62 1.090 2.32 0.75 0.36-0.8 0.56-1.84 0.56-2.75 0-2.45-1.25-3.88-3.54-3.88-2.361-0.011-3.741 1.799-3.741 4.189 0 2.365 1.105 4.395 2.928 5.32-0.767 1.533-1.742 2.884-2.76 3.902-1.844-2.232-3.513-5.21-4.198-11.020h-2.723c1.258 9.678 5.007 12.758 5.998 13.348 0.56 0.336 1.044 0.32 1.556 0.032 0.81-0.458 3.23-2.875 4.57-5.705 0.56-0.002 1.24-0.066 1.91-0.218v-1.909z"></path>
</svg>
