<!-- Generated by IcoMoon.io -->
<svg version="1.1" xmlns="http://www.w3.org/2000/svg" width="16" height="16" viewBox="0 0 16 16">
<title>brand289</title>
<path fill="#21759b" d="M14.312 4.55c0.56 1.024 0.88 2.2 0.88 3.45 0 2.653-1.438 4.97-3.576 6.217l2.197-6.352c0.41-1.026 0.547-1.847 0.547-2.576 0-0.27-0.018-0.52-0.048-0.74zM8.992 4.619c0.432-0.020 0.822-0.070 0.822-0.070 0.388-0.050 0.342-0.62-0.045-0.6 0 0-1.17 0.090-1.92 0.090-0.71 0-1.9-0.1-1.9-0.1-0.39-0.020-0.44 0.57-0.050 0.59 0 0 0.36 0.040 0.75 0.060l1.12 3.070-1.58 4.72-2.619-7.779c0.432-0.020 0.822-0.067 0.822-0.067 0.39-0.050 0.344-0.62-0.044-0.597 0 0-1.164 0.092-1.916 0.092-0.133 0-0.292-0.005-0.46-0.010 1.302-1.918 3.518-3.208 6.028-3.208 1.872 0 3.577 0.715 4.857 1.888-0.030-0.002-0.060-0.006-0.093-0.006-0.707 0-1.208 0.615-1.208 1.276 0 0.593 0.342 1.095 0.706 1.687 0.274 0.48 0.594 1.095 0.594 1.984 0 0.61-0.237 1.33-0.548 2.32l-0.717 2.39-2.6-7.74zM8 15.19c-0.706 0-1.387-0.103-2.032-0.292l2.158-6.27 2.21 6.057c0.016 0.035 0.033 0.068 0.052 0.1-0.747 0.262-1.55 0.407-2.388 0.407zM0.807 8c0-1.043 0.224-2.033 0.623-2.927l3.43 9.4c-2.397-1.166-4.052-3.626-4.052-6.473zM8 0c-4.41 0-8 3.59-8 8s3.59 8 8 8 8-3.59 8-8-3.59-8-8-8z"></path>
</svg>
