<!-- Generated by IcoMoon.io -->
<svg version="1.1" xmlns="http://www.w3.org/2000/svg" width="16" height="16" viewBox="0 0 16 16">
<title>brand301</title>
<path fill="#0074e4" d="M11.587 12.037c-4.953 0.297-10.34 2.090-10.908 2.34l0.66-1.86c1.68-0.777 5.85-2.312 10.99-2.678-0.1 0.38-0.64 1.78-0.75 2.19zM13.354 7.031s-0.243 0.51-0.473 1.21c-1.97 0.12-5.090 0.77-6.61 1.32 0.79-0.72 5.79-5.74 5.79-5.74 1.929 1.319 3.939 2.949 3.939 2.949l-2.646 0.263zM1.654 7.251c1.098-0.5 4.176-1.43 7.123-2.12 0 0-5.665 5.23-7.24 6.85l1.3-3.52c-1.010 0.15-1.455 0.21-2.837 0.5l1.653-1.7zM8.72 1.63c0.49 0.24 2.3 1.47 2.946 1.925-2.064 0.050-6.090 0.94-7.768 1.5 1.377-1.045 3.935-3.020 4.822-3.432z"></path>
</svg>
