<!-- Generated by IcoMoon.io -->
<svg version="1.1" xmlns="http://www.w3.org/2000/svg" width="16" height="16" viewBox="0 0 16 16">
<title>brand7</title>
<path fill="#2e77bc" d="M10.923 10.971h1.492v-0.39h-1.047v-0.38h1.022v-0.39h-1.022v-0.34h1.047v-0.388h-1.492v1.877zM14.151 9.991c-0.1-0.1-0.27-0.14-0.51-0.15l-0.25-0.010c-0.070 0-0.12 0-0.17-0.020-0.060-0.020-0.1-0.070-0.1-0.14 0-0.060 0.010-0.11 0.060-0.14s0.1-0.040 0.18-0.040h0.82v-0.4h-0.9c-0.47 0-0.64 0.29-0.64 0.56 0 0.6 0.52 0.57 0.94 0.58 0.070 0 0.12 0.010 0.15 0.040 0.031 0.020 0.055 0.070 0.055 0.12s-0.023 0.1-0.053 0.12c-0.038 0.035-0.098 0.047-0.183 0.047h-0.866v0.4h0.87c0.452 0 0.702-0.187 0.702-0.59 0-0.193-0.047-0.308-0.133-0.398zM10.371 10.083c0.12-0.048 0.32-0.198 0.32-0.498 0-0.215-0.090-0.331-0.23-0.415-0.14-0.080-0.31-0.090-0.54-0.090h-1.030v1.879h0.45v-0.684h0.48c0.16 0 0.26 0.016 0.32 0.083 0.080 0.087 0.070 0.254 0.070 0.367v0.233h0.44v-0.37c-0.001-0.166-0.011-0.251-0.073-0.343-0.040-0.054-0.12-0.12-0.22-0.157zM6.884 10.789v-1.504l-0.687 0.74 0.687 0.763zM5.12 10.569l0.51-0.55-0.49-0.546h-1.12v0.34h0.98v0.383h-0.98v0.372h1.091zM7.921 9.95c0.18 0 0.28-0.086 0.28-0.248 0-0.164-0.12-0.23-0.28-0.23h-0.59v0.478h0.58zM10.091 9.855c-0.060 0.035-0.13 0.038-0.22 0.038h-0.54v-0.42h0.55c0.080 0 0.16 0 0.22 0.033 0.060 0.030 0.1 0.088 0.1 0.17 0 0.080-0.030 0.144-0.090 0.18zM8.671 9.702c0 0.52-0.38 0.63-0.78 0.63h-0.56v0.627h-0.87l-0.55-0.62-0.57 0.62h-1.771v-1.879h1.797l0.55 0.615 0.568-0.616h1.43c0.354 0 0.752 0.1 0.752 0.62zM15.931 10.721c0.060-0.090 0.090-0.2 0.090-0.35 0-0.16-0.030-0.26-0.090-0.35v-0.004c-0.020-0.017-0.030-0.032-0.050-0.047-0.1-0.102-0.26-0.144-0.51-0.15l-0.24-0.008c-0.080 0-0.13-0.004-0.18-0.020-0.060-0.020-0.1-0.070-0.1-0.14 0-0.059 0.020-0.105 0.060-0.135 0.050-0.031 0.1-0.034 0.18-0.034h0.815v-9.483h-15.906v6.73l0.54-1.251h1.168l0.15 0.31v-0.31h1.365l0.3 0.68 0.292-0.675h4.34c0.197 0 0.375 0.038 0.505 0.158v-0.152h1.193v0.153c0.204-0.113 0.457-0.153 0.747-0.153h1.74l0.16 0.31v-0.31h1.281l0.17 0.31v-0.31h1.24v2.631h-1.26l-0.24-0.4v0.39h-1.57l-0.17-0.42h-0.39l-0.18 0.41h-0.81c-0.32 0-0.56-0.070-0.72-0.16v0.16h-1.93v-0.59c0-0.080-0.020-0.080-0.070-0.090h-0.070v0.69h-3.73v-0.32l-0.14 0.32h-0.78l-0.135-0.32v0.31h-1.504l-0.17-0.417h-0.386l-0.172 0.416h-0.764v7.9h15.879v-4.739c-0.18 0.090-0.41 0.12-0.65 0.12h-1.15v-0.17c-0.14 0.11-0.38 0.17-0.61 0.17h-3.65v-0.6c0-0.080-0.010-0.080-0.080-0.080h-0.050v0.68h-1.2v-0.71c-0.2 0.090-0.43 0.1-0.62 0.090h-0.143v0.61h-1.456l-0.36-0.41-0.38 0.4h-2.365v-2.62h2.41l0.345 0.4 0.37-0.4h1.61c0.188 0 0.494 0.020 0.63 0.15v-0.16h1.452c0.135 0 0.429 0.030 0.603 0.15v-0.16h2.18v0.16c0.108-0.11 0.338-0.16 0.535-0.16h1.261v0.16c0.13-0.1 0.31-0.16 0.56-0.16h0.83v0.37h-0.9c-0.46 0-0.64 0.29-0.64 0.56 0 0.6 0.52 0.57 0.94 0.58 0.070 0 0.12 0.010 0.15 0.040 0.030 0.020 0.050 0.070 0.050 0.12s-0.030 0.1-0.060 0.12c-0.030 0.036-0.090 0.046-0.18 0.046h-0.86v0.403h0.86c0.28 0 0.49-0.080 0.6-0.24zM6.654 7.732v-0.387h-1.047v-0.375h1.020v-0.384h-1.020v-0.338h1.047v-0.39h-1.494v1.874h1.5zM9.476 7.732v-1.874h-0.456v1.874h0.46zM8.758 6.365c0-0.209-0.086-0.332-0.226-0.415-0.145-0.084-0.313-0.090-0.54-0.090h-1.030v1.881h0.45v-0.69h0.48c0.161 0 0.261 0.020 0.326 0.080 0.082 0.090 0.072 0.252 0.072 0.365v0.236h0.452v-0.368c0-0.167-0.011-0.251-0.075-0.344-0.038-0.054-0.122-0.12-0.22-0.158 0.116-0.046 0.316-0.2 0.316-0.5zM14.77 7.732h-0.635l-0.847-1.407v1.407h-0.91l-0.175-0.418h-0.926l-0.17 0.418h-0.522c-0.217 0-0.492-0.048-0.647-0.207-0.158-0.16-0.24-0.375-0.24-0.716 0-0.28 0.050-0.54 0.242-0.74 0.144-0.15 0.37-0.22 0.68-0.22h0.43v0.4h-0.422c-0.163 0-0.256 0.020-0.344 0.11-0.077 0.080-0.13 0.23-0.13 0.42 0 0.2 0.040 0.34 0.124 0.44 0.070 0.070 0.194 0.090 0.312 0.090h0.2l0.63-1.48h0.67l0.757 1.77v-1.739h0.68l0.787 1.305v-1.307h0.457v1.874zM0.007 7.732l0.8-1.874h0.665l0.76 1.775v-1.775h0.73l0.585 1.27 0.538-1.27h0.744v1.874h-0.46l-0.010-1.468-0.65 1.468h-0.39l-0.65-1.47v1.47h-0.91l-0.17-0.418h-0.929l-0.173 0.418h-0.48zM1.437 6.922l-0.307-0.746-0.305 0.747h0.61zM12.051 6.922l-0.31-0.746-0.31 0.747h0.62zM8.181 6.626c-0.060 0.037-0.13 0.038-0.22 0.038h-0.55v-0.416h0.55c0.080 0 0.16 0.004 0.22 0.034 0.060 0.027 0.1 0.085 0.1 0.166s-0.030 0.148-0.090 0.178z"></path>
</svg>
