<!-- Generated by IcoMoon.io -->
<svg version="1.1" xmlns="http://www.w3.org/2000/svg" width="16" height="16" viewBox="0 0 16 16">
<title>brand157</title>
<path fill="#80397b" d="M15.965 6.79v2.395c0 0.093-0.033 0.172-0.1 0.24-0.066 0.065-0.146 0.1-0.238 0.1h-0.52v-3.075h0.52c0.092 0 0.172 0.034 0.238 0.1 0.067 0.067 0.1 0.146 0.1 0.24zM15.627 9.88c0.092 0 0.172 0.033 0.238 0.1 0.067 0.066 0.1 0.146 0.1 0.238v2.405c0 0.093-0.033 0.172-0.1 0.24-0.066 0.065-0.146 0.098-0.238 0.098h-0.52v-3.081h0.52zM15.627 3.020c0.092 0 0.178 0.034 0.256 0.1 0.078 0.068 0.117 0.147 0.117 0.24v2.396c0 0.098-0.040 0.18-0.117 0.243-0.078 0.060-0.164 0.090-0.256 0.090h-0.86v7.39c0 0.090-0.034 0.16-0.104 0.22-0.070 0.050-0.15 0.080-0.243 0.080h-4.47v-1.51h3.472v-0.72h-3.472v-0.85h3.472v-0.68h-3.472v-0.87h3.472v-0.67h-3.472v-0.85h3.472v-0.67h-3.472v-0.87h3.472v-0.68h-3.472v-0.85h3.472v-0.71h-3.472v-1.689h4.592c0.010 0 0.050 0.030 0.112 0.090 0.064 0.063 0.102 0.14 0.113 0.23v0.54h0.86zM9.097 0.444v15.114l-9.097-1.57v-11.933l9.098-1.61zM6.502 4.924l-1.067 0.070v1.986c-0.012 1.163-0.012 1.835 0 2.014l-2.127-3.88-1.086 0.043v5.504l0.85 0.070v-4.061l2.293 4.176 1.137 0.070v-5.99z"></path>
</svg>
