<!-- Generated by IcoMoon.io -->
<svg version="1.1" xmlns="http://www.w3.org/2000/svg" width="16" height="16" viewBox="0 0 16 16">
<title>brand114</title>
<path fill="#43b02a" d="M10.414 6.413c0.947 0.952 1.72 2.51 1.278 3.435-1.186 2.476-10.028 6.817-10.78 6.066-0.75-0.75 3.594-9.597 6.070-10.783 0.925-0.44 2.483 0.34 3.435 1.28l-0.003 0.010zM15.1 5.368c-0.155-0.57-0.548-1.144-1.134-1.213-1.074-0.124-2.768 1.775-2.647 2.226 0.12 0.46 2.51 1.25 3.4 0.61 0.46-0.33 0.52-1.040 0.37-1.61zM11.772 0.105c0.798 0.216 1.605 0.766 1.7 1.588 0.175 1.506-2.488 3.88-3.12 3.71-0.632-0.167-1.745-3.523-0.845-4.775 0.463-0.648 1.467-0.738 2.266-0.526v0.003z"></path>
</svg>
