<!-- Generated by IcoMoon.io -->
<svg version="1.1" xmlns="http://www.w3.org/2000/svg" width="16" height="16" viewBox="0 0 16 16">
<title>brand18</title>
<path fill="#de484a" d="M13.836 7.725c-0.31-0.717-0.745-1.357-1.29-1.9s-1.186-0.975-1.906-1.285c-0.717-0.31-1.495-0.466-2.31-0.466l-3.218-0.004c-0.404 0-0.733-0.33-0.734-0.733l-0.002-2.030c0.002-0.73-0.588-1.307-1.34-1.307-0.74 0-1.343 0.603-1.343 1.343l0.004 8.688c0 0.82 0.157 1.6 0.468 2.32 0.313 0.72 0.746 1.36 1.287 1.91 0.544 0.54 1.184 0.98 1.902 1.29 0.72 0.31 1.5 0.47 2.315 0.47h0.66c0.81 0 1.59-0.15 2.31-0.46s1.36-0.74 1.9-1.28c0.54-0.54 0.97-1.18 1.28-1.9 0.31-0.71 0.47-1.49 0.47-2.31 0-0.81-0.16-1.59-0.47-2.31zM11.622 10.035c0 0.446-0.085 0.875-0.254 1.276-0.17 0.41-0.408 0.76-0.707 1.050-0.3 0.3-0.65 0.54-1.050 0.71s-0.83 0.26-1.28 0.26h-0.65c-0.45 0-0.88-0.080-1.28-0.25-0.39-0.16-0.75-0.4-1.050-0.7-0.3-0.29-0.53-0.65-0.7-1.050-0.16-0.4-0.25-0.83-0.25-1.28v-1.9c0-0.36 0.14-0.71 0.4-0.97s0.61-0.4 0.98-0.4h2.57c0.45 0 0.88 0.090 1.28 0.25 0.4 0.17 0.76 0.41 1.050 0.71 0.3 0.3 0.54 0.66 0.71 1.050 0.17 0.4 0.26 0.83 0.26 1.28z"></path>
</svg>
