<!-- Generated by IcoMoon.io -->
<svg version="1.1" xmlns="http://www.w3.org/2000/svg" width="16" height="16" viewBox="0 0 16 16">
<title>brand28</title>
<path d="M15.858 12.16c0.19 0.095 0.19 0.178 0 0.25l-7.574 3.483c-0.19 0.095-0.38 0.095-0.568 0l-7.574-3.483c-0.19-0.072-0.19-0.155 0-0.25l1.814-0.818c0.19-0.095 0.38-0.095 0.568 0l5.192 2.382c0.19 0.095 0.38 0.095 0.568 0l5.192-2.382c0.19-0.095 0.38-0.095 0.568 0l1.814 0.818zM15.858 7.858c0.19 0.095 0.19 0.19 0 0.284l-7.574 3.485c-0.19 0.070-0.38 0.070-0.568 0l-7.574-3.485c-0.19-0.095-0.19-0.19 0-0.284l1.814-0.818c0.19-0.095 0.38-0.095 0.568 0l5.192 2.382c0.19 0.095 0.38 0.095 0.568 0l5.192-2.382c0.19-0.095 0.38-0.095 0.568 0l1.814 0.818zM0.142 3.84c-0.19-0.095-0.19-0.178 0-0.25l7.574-3.482c0.19-0.095 0.38-0.095 0.568 0l7.574 3.484c0.19 0.072 0.19 0.155 0 0.25l-7.574 3.482c-0.19 0.095-0.38 0.095-0.568 0l-7.574-3.484z"></path>
</svg>
