<!-- Generated by IcoMoon.io -->
<svg version="1.1" xmlns="http://www.w3.org/2000/svg" width="16" height="16" viewBox="0 0 16 16">
<title>brand118</title>
<path fill="#f36" d="M14.55 0c0.8 0 1.45 0.65 1.45 1.45v13.1c0 0.8-0.65 1.45-1.45 1.45h-13.1c-0.8 0-1.45-0.65-1.45-1.45v-13.1c0-0.8 0.65-1.45 1.45-1.45h13.1zM3.32 10.192c-0.057 0.244-0.086 0.508-0.086 0.723 0 0.848 0.46 1.41 1.438 1.41 0.81 0 1.468-0.48 1.94-1.257l-0.288 1.16h1.61l0.92-3.69c0.23-0.935 0.675-1.42 1.35-1.42 0.532 0 0.863 0.33 0.863 0.877 0 0.158-0.014 0.33-0.072 0.517l-0.474 1.696c-0.070 0.245-0.1 0.49-0.1 0.72 0 0.804 0.48 1.393 1.47 1.393 0.85 0 1.53-0.54 1.9-1.85l-0.63-0.24c-0.31 0.88-0.59 1.040-0.8 1.040s-0.33-0.14-0.33-0.43c0-0.13 0.030-0.27 0.070-0.44l0.46-1.65c0.12-0.39 0.16-0.73 0.16-1.050 0-1.23-0.75-1.88-1.65-1.88-0.85 0-1.71 0.77-2.14 1.57l0.32-1.44h-2.481l-0.346 1.249h1.15l-0.708 2.834c-0.556 1.234-1.576 1.254-1.706 1.226-0.21-0.048-0.345-0.128-0.345-0.402 0-0.157 0.030-0.384 0.1-0.657l1.080-4.27h-2.733l-0.345 1.269h1.136l-0.733 2.994zM5.347 5.034c0.532 0 0.978-0.417 0.978-0.963 0-0.54-0.446-0.96-0.978-0.96s-0.977 0.42-0.977 0.97 0.445 0.97 0.977 0.97z"></path>
</svg>
