<!-- Generated by IcoMoon.io -->
<svg version="1.1" xmlns="http://www.w3.org/2000/svg" width="16" height="16" viewBox="0 0 16 16">
<title>brand135</title>
<path fill="#e74430" d="M4.3 8.85l9.14-2.19c-0.507-0.718-2.806-3.977-3.028-4.287-0.25-0.35 0.006-0.512 0.412-0.58 0.406-0.070 3.902-0.657 4.202-0.7 0.252-0.037 0.46-0.118 0.808 0.205-0.32-0.762-1.076-1.298-1.956-1.298h-11.756c-1.036 0-1.897 0.74-2.084 1.722l4.262 7.128z"></path>
<path fill="#e74430" d="M15.157 1.917c-0.137 0.030-3.178 0.58-3.365 0.605s-0.125 0.13-0.050 0.238l2.676 3.67 1.582-0.39v-3.423c-0.22-0.28-0.38-0.485-0.418-0.54-0.17-0.23-0.288-0.192-0.425-0.16zM16 10.087c-0.778-1.065-1.625-2.225-1.706-2.34-0.11-0.16-0.17-0.19-0.432-0.106l-8.91 2.32s2.735 4.739 2.945 5.039c0.21 0.304 0.338 0.28 0.502 0.21 0.12-0.054 5.2-1.77 7.6-2.583v-2.537zM16 8.52v-1.34l-0.834 0.223 0.834 1.117zM10.53 16h3.348c1.117 0 2.032-0.863 2.115-1.958-1.71 0.618-3.924 1.41-5.464 1.958zM3.689 10.288l-3.7 0.964v2.626c0.011 1.172 0.961 2.122 2.131 2.122h4.8c-0.628-1.026-2.337-4.105-3.224-5.712zM2.948 8.908l-2.948-5.092v6.070l2.887-0.69c0.235-0.055 0.18-0.085 0.063-0.288z"></path>
<path fill="#e74430" d="M15.095 7.305l0.905-0.245v0.42l-0.62 0.207-0.285-0.382z"></path>
</svg>
