<!-- Generated by IcoMoon.io -->
<svg version="1.1" xmlns="http://www.w3.org/2000/svg" width="16" height="16" viewBox="0 0 16 16">
<title>brand96</title>
<path fill="#dc4e41" d="M5.090 7.273v1.745h2.89c-0.116 0.75-0.873 2.197-2.887 2.197-1.737 0-3.155-1.44-3.155-3.215s1.415-3.215 3.152-3.215c0.99 0 1.652 0.422 2.030 0.786l1.382-1.33c-0.887-0.83-2.037-1.33-3.41-1.33-2.817-0.001-5.092 2.279-5.092 5.089s2.276 5.090 5.090 5.090c2.94 0 4.888-2.065 4.888-4.974 0-0.334-0.036-0.59-0.080-0.843h-4.808zM16 7.273h-1.455v-1.455h-1.455v1.455h-1.454v1.454h1.455v1.455h1.46v-1.455h1.449z"></path>
</svg>
