<!-- Generated by IcoMoon.io -->
<svg version="1.1" xmlns="http://www.w3.org/2000/svg" width="16" height="16" viewBox="0 0 16 16">
<title>brand270</title>
<path d="M2.517 6.080v1.842c0 0.615-0.272 0.87-0.91 0.87-0.64 0-0.91-0.255-0.91-0.87v-1.922h-0.617c-0.052 0-0.080 0.027-0.080 0.080v1.872c0 1.030 0.655 1.388 1.606 1.388s1.606-0.36 1.606-1.388v-1.952h-0.615c-0.053 0-0.080 0.027-0.080 0.080zM11.431 6.534c0.050 0 0.080-0.016 0.1-0.053l0.18-0.44c0.010-0.020 0-0.040-0.020-0.040h-2.491c-0.233 0-0.32 0.070-0.32 0.23v2.86c0 0.14 0.067 0.2 0.245 0.2h2.31c0.050 0 0.073-0.010 0.090-0.050l0.178-0.44c0.010-0.020 0-0.040-0.026-0.040h-2.117v-0.59c0-0.2 0.11-0.29 0.41-0.29h0.916c0.050 0 0.074-0.010 0.090-0.050l0.173-0.42c0.010-0.030 0-0.040-0.030-0.040h-1.559v-0.83h1.87zM7.070 7.552c0.27-0.14 0.38-0.406 0.38-0.72 0-0.722-0.59-0.832-1.2-0.832h-1.4c-0.232 0-0.32 0.070-0.32 0.23v2.858c0 0.134 0.068 0.195 0.246 0.195h1.72c0.65 0 1.113-0.252 1.113-0.907 0-0.393-0.17-0.726-0.54-0.824zM6.426 8.755h-1.213v-0.6c0-0.203 0.11-0.293 0.41-0.293h0.803c0.387 0 0.494 0.147 0.494 0.45 0 0.302-0.107 0.443-0.494 0.443zM5.213 6.528h1.085c0.363 0 0.464 0.136 0.464 0.42s-0.1 0.42-0.464 0.42h-1.085v-0.84zM15.993 9.226l-0.737-1.264c0.367-0.094 0.662-0.336 0.662-0.95 0-0.797-0.494-1.012-1.31-1.012h-1.405c-0.232 0-0.32 0.070-0.32 0.23v2.97c0 0.054 0.028 0.080 0.082 0.080h0.6v-0.957c0-0.2 0.112-0.292 0.41-0.292h0.606l0.67 1.2c0.020 0.040 0.040 0.060 0.090 0.060h0.63c0.050 0 0.050-0.030 0.030-0.050zM14.71 7.522h-1.145v-0.994h1.143c0.425 0 0.52 0.164 0.52 0.497 0 0.336-0.095 0.497-0.52 0.497z"></path>
</svg>
