<!-- Generated by IcoMoon.io -->
<svg version="1.1" xmlns="http://www.w3.org/2000/svg" width="16" height="16" viewBox="0 0 16 16">
<title>brand233</title>
<path fill="#352a71" d="M15.723 6.884l-0.423-0.82c-0.127-0.237-0.213-0.495-0.254-0.76l-0.142-0.905c-0.12-0.79-0.616-1.48-1.327-1.84l-0.82-0.41c-0.237-0.13-0.456-0.28-0.65-0.47l-0.648-0.67c-0.57-0.56-1.37-0.83-2.17-0.7l-0.9 0.15c-0.27 0.040-0.54 0.040-0.81 0l-0.9-0.15c-0.779-0.109-1.579 0.151-2.139 0.711l-0.65 0.65c-0.187 0.196-0.407 0.354-0.65 0.466l-0.82 0.41c-0.72 0.354-1.217 1.044-1.33 1.836l-0.14 0.903c-0.043 0.267-0.13 0.525-0.255 0.763l-0.43 0.82c-0.37 0.705-0.37 1.55 0 2.256l0.422 0.82c0.124 0.238 0.21 0.495 0.252 0.762l0.14 0.903c0.12 0.79 0.61 1.47 1.33 1.83l0.82 0.41c0.24 0.12 0.45 0.27 0.65 0.46l0.65 0.65c0.56 0.56 1.37 0.83 2.16 0.7l0.9-0.16c0.26-0.040 0.53-0.040 0.8 0l0.9 0.15c0.79 0.13 1.6-0.14 2.16-0.71l0.65-0.65c0.18-0.2 0.4-0.36 0.65-0.47l0.82-0.41c0.71-0.36 1.21-1.050 1.32-1.84l0.14-0.91c0.040-0.27 0.12-0.53 0.25-0.76l0.42-0.82c0.35-0.71 0.35-1.54-0.020-2.25zM8.779 7.369c0.020 0.1 0.030 0.2 0.030 0.3 0.020 0.21 0.020 0.48 0.020 0.67-0.42 0.133-0.77 0.417-0.99 0.797-0.25 0.393-0.41 0.832-0.48 1.29-0.11 0.664-0.22 1.668 0.090 2.276 0.090 0.168 0.26 0.382 0.47 0.41 0.16 0.032 0.31-0.053 0.37-0.198 0.030-0.096 0.030-0.196 0.030-0.296v-0.876c-0.14 0-0.46 0.028-0.63 0.028 0.010-0.227 0-0.467 0.020-0.677 0.39-0.057 0.77-0.099 1.18-0.143v2.614c-0.25 0.128-0.51 0.218-0.78 0.268-0.78 0.113-1.15-0.325-1.35-0.847-0.050-0.146-0.1-0.298-0.12-0.452-0.070-0.491-0.080-0.989-0.020-1.483 0.050-0.635 0.19-1.26 0.43-1.85 0.050-0.138 0.12-0.271 0.2-0.395 0.208-0.375 0.488-0.705 0.818-0.975 0.237-0.173 0.487-0.324 0.75-0.45h0.013zM11.451 12.759c-0.29-0.81-0.58-1.6-0.74-2.5-0.23 0.1-0.44 0.2-0.65 0.3 0.020 0.69 0 1.36-0.020 2.15 0 0.21-0.020 0.4-0.020 0.64-0.12 0.070-0.25 0.14-0.38 0.2-0.12 0.050-0.25 0.14-0.38 0.2 0-0.61 0-1.3 0.040-1.93 0.030-0.32 0.010-0.66 0.040-1 0.010-0.16 0.010-0.33 0.010-0.48 0-0.55-0.040-1.1-0.1-1.64-0.020-0.34-0.080-0.69-0.14-1.060 0.24-0.090 0.47-0.2 0.72-0.28 0.050 0.8 0.1 1.5 0.17 2.28 0.19-0.070 0.37-0.17 0.55-0.25-0.020-0.66-0.060-1.46-0.060-2.21-0.010-0.050-0.010-0.1 0-0.14 0.020-0.030 0.050-0.060 0.080-0.070 0.21-0.16 0.45-0.33 0.65-0.48-0.030 0.524-0.040 1.031-0.030 1.554 0.020 0.38 0.030 0.762 0.070 1.13 0.069 0.592 0.187 1.177 0.353 1.75 0.127 0.438 0.254 0.875 0.41 1.285-0.177 0.222-0.381 0.422-0.607 0.592zM5.443 13.38c-0.748-0.367-1.44-0.805-1.977-1.398 0.46-0.76 0.86-1.553 1.2-2.372 0.38-0.883 0.637-1.815 0.763-2.768 0.29-0.1 0.6-0.17 0.89-0.268 0.020 0.014 0 0.056 0 0.085-0.050 0.21-0.1 0.4-0.16 0.62-0.17 0.67-0.4 1.35-0.62 2-0.31 0.87-0.67 1.71-1.030 2.51 0.41 0.34 0.85 0.64 1.33 0.89-0.12 0.24-0.25 0.47-0.4 0.69zM5.726 12.040c-0.198-0.1-0.367-0.213-0.55-0.312 0.534-1.483 1.084-2.965 1.494-4.548 0.212 0.114 0.438 0.213 0.635 0.34-0.1 0.41-0.226 0.805-0.34 1.186-0.112 0.38-0.24 0.763-0.366 1.144-0.3 0.748-0.51 1.497-0.88 2.187v0.002zM13.379 6.49c-0.13 0.056-0.24 0.14-0.37 0.197-0.1-0.328-0.26-0.638-0.45-0.918-0.26 0.86-0.22 1.85-0.13 2.76 0.020 0.23 0.060 0.45 0.11 0.67 0.12 0.6 0.33 1.19 0.62 1.73-0.19 0.25-0.38 0.48-0.58 0.73-0.050-0.060-0.090-0.13-0.11-0.2-0.1-0.21-0.19-0.42-0.27-0.64-0.11-0.29-0.2-0.59-0.27-0.89-0.17-0.64-0.28-1.29-0.34-1.95-0.040-0.66-0.010-1.32 0.1-1.98 0.050-0.34 0.12-0.65 0.21-0.98 0.020-0.060 0.040-0.12 0.050-0.18-0.030-0.060-0.060-0.1-0.1-0.15-0.18-0.23-0.35-0.41-0.55-0.62-0.040-0.040-0.080-0.080-0.13-0.11-0.040-0.040-0.080-0.070-0.12-0.11 0.020-0.060 0.050-0.11 0.090-0.16 0.1-0.16 0.22-0.31 0.34-0.45h0.010c0.49 0.28 0.95 0.8 1.31 1.3 0.38 0.52 0.68 1.1 0.89 1.72-0.12 0.050-0.23 0.11-0.36 0.18zM3.129 10.819c-0.080 0.11-0.17 0.21-0.27 0.31-0.030 0.030-0.060 0.060-0.1 0.070-0.020-0.030-0.040-0.070-0.050-0.11-0.11-0.22-0.21-0.44-0.32-0.66-0.010-0.040-0.050-0.090-0.050-0.1 0.040-0.050 0.080-0.1 0.13-0.14 0.31-0.33 0.51-0.76 0.55-1.21 0.010-0.28-0.030-0.57-0.13-0.83-0.080-0.25-0.18-0.49-0.29-0.72-0.17-0.35-0.35-0.66-0.35-1.14 0-0.79 0.39-1.313 0.94-1.595 0.1 0.296 0.17 0.608 0.27 0.918-0.25 0.182-0.32 0.536-0.28 0.932 0.050 0.288 0.13 0.569 0.26 0.834 0.13 0.258 0.22 0.527 0.29 0.805 0.18 0.922-0.020 1.879-0.55 2.654zM4.24 3.24c0.107-0.080 0.226-0.148 0.352-0.196 0.255-0.123 0.547-0.148 0.82-0.070 0.157 0.070 0.293 0.183 0.394 0.324 0.31 0.395 0.38 1.1 0.21 1.708-0.17 0.698-0.664 1.275-1.326 1.554 0.042 0.593 0.1 1.285 0.155 1.934-0.156 0.085-0.31 0.184-0.48 0.283-0.050 0.033-0.1 0.062-0.156 0.084-0.19-1.69-0.38-3.44-0.57-5.090 0.17-0.19 0.37-0.37 0.59-0.52zM6.993 2.916c0.327-0.362 0.763-0.61 1.242-0.706 0.083-0.017 0.168-0.026 0.253-0.028 0.33-0.024 0.658 0.030 0.96 0.156 0.806 0.304 1.357 1.060 1.4 1.92l0.003 0.127c0 1.217-1 2.22-2.22 2.22-0.12 0-0.24-0.010-0.36-0.030-0.42-0.073-0.81-0.264-1.13-0.552-0.43-0.377-0.69-0.912-0.72-1.483-0.030-0.596 0.18-1.18 0.58-1.624zM7.67 5.43c0.27 0.254 0.632 0.39 1.003 0.38 0.358 0 0.7-0.148 0.946-0.41 0.26-0.234 0.41-0.566 0.42-0.917v-0.198c-0.020-0.367-0.18-0.713-0.45-0.96-0.29-0.263-0.67-0.397-1.050-0.368-0.34 0.015-0.67 0.162-0.9 0.41-0.32 0.296-0.48 0.727-0.43 1.158 0.020 0.35 0.18 0.677 0.44 0.905zM4.54 4.71c0.042 0.367 0.056 0.777 0.098 1.087 0.41-0.17 0.65-0.508 0.692-1.030 0.014-0.16 0.014-0.32 0-0.48-0.028-0.297-0.084-0.566-0.395-0.55-0.1 0.010-0.197 0.044-0.282 0.097-0.076 0.032-0.14 0.086-0.184 0.156-0.010 0.052 0 0.104 0.010 0.155 0.010 0.212 0.040 0.408 0.050 0.565z"></path>
</svg>
