<!-- Generated by IcoMoon.io -->
<svg version="1.1" xmlns="http://www.w3.org/2000/svg" width="16" height="16" viewBox="0 0 16 16">
<title>brand40</title>
<path fill="#00aaef" d="M12.9 5.2c-0.4-0.4-1-0.4-1.4 0l-6.3 6.3c-0.3 0.3-0.8 0.5-1.3 0.5s-1-0.2-1.4-0.6-0.6-0.9-0.6-1.4c0-0.5 0.2-1 0.6-1.4l5.9-5.9c-0.8-0.8-2-0.8-2.8 0l-4.4 4.5c-1.5 1.5-1.5 4 0 5.6 1.5 1.5 4 1.5 5.6 0l6.2-6.2c0.3-0.4 0.3-1-0.1-1.4z"></path>
<path fill="#00aaef" d="M14.8 3.2c-1.5-1.5-4-1.5-5.6 0l-6.1 6.2c-0.4 0.4-0.4 1 0 1.4s1 0.4 1.4 0l6.3-6.3c0.3-0.3 0.8-0.5 1.3-0.5s1 0.2 1.4 0.6c0.4 0.4 0.6 0.9 0.6 1.4s-0.2 1-0.6 1.4l-5.9 5.9c0.8 0.8 2 0.8 2.8 0l4.5-4.5c1.5-1.6 1.5-4-0.1-5.6z"></path>
</svg>
