<!-- Generated by IcoMoon.io -->
<svg version="1.1" xmlns="http://www.w3.org/2000/svg" width="16" height="16" viewBox="0 0 16 16">
<title>brand162</title>
<path fill="#3abfe6" d="M3.71 1.802l2.3 2.49-1.623 3.198 3.427-0.614 1.56 3.764 6.626-8.69-12.29-0.148zM3.285 7.194l0.638-0.525-0.823 0.26-0.084-0.12 0.34-0.33-0.446 0.18c-1.702 0.661-2.91 2.311-2.91 4.241 0 1.3 0.548 2.47 1.422 3.298-0.375-0.66-0.59-1.423-0.59-2.237 0-1.91 1.206-3.61 2.877-4.28l0.21-0.51-0.5 0.22-0.14-0.19zM6.195 5.881l1.065-1.881 6.266-1.468-7.332 3.35z"></path>
</svg>
