<!-- Generated by IcoMoon.io -->
<svg version="1.1" xmlns="http://www.w3.org/2000/svg" width="16" height="16" viewBox="0 0 16 16">
<title>brand14</title>
<path fill="#2319dc" d="M2.88 8.432c1.74-0.374 1.5-2.455 1.45-2.91-0.085-0.7-0.91-1.925-2.028-1.827-1.408 0.125-1.612 2.16-1.612 2.16-0.192 0.94 0.454 2.95 2.19 2.577zM6.11 4.944c0.96 0 1.735-1.106 1.735-2.473 0-1.361-0.775-2.471-1.735-2.471s-1.74 1.104-1.74 2.47c0 1.368 0.78 2.474 1.74 2.474zM10.248 5.107c1.285 0.168 2.108-1.203 2.273-2.242 0.17-1.037-0.66-2.243-1.57-2.45-0.91-0.21-2.040 1.25-2.15 2.2-0.12 1.166 0.17 2.327 1.45 2.492zM15.341 6.852c0-0.497-0.41-1.995-1.94-1.995s-1.741 1.413-1.741 2.413c0 0.95 0.080 2.28 1.99 2.24 1.904-0.050 1.696-2.16 1.696-2.66zM13.4 11.21s-1.988-1.54-3.148-3.2c-1.575-2.45-3.81-1.453-4.556-0.21-0.746 1.254-1.906 2.040-2.070 2.25-0.167 0.205-2.4 1.41-1.904 3.613 0.496 2.2 2.237 2.16 2.237 2.16s1.28 0.124 2.77-0.208c1.49-0.332 2.77 0.080 2.77 0.080s3.47 1.167 4.43-1.077c0.95-2.245-0.54-3.41-0.54-3.41z"></path>
</svg>
