<!-- Generated by IcoMoon.io -->
<svg version="1.1" xmlns="http://www.w3.org/2000/svg" width="16" height="16" viewBox="0 0 16 16">
<title>brand99</title>
<path d="M8 0c-4.418 0-8 3.582-8 8s3.582 8 8 8 8-3.582 8-8-3.582-8-8-8zM12.326 9.31c-0.834-0.55-1.31-1.016-1.726-1.852-0.284 0.573-0.947 1.424-2.065 2.093-0.56 1.74-3.215 5.070-4.075 4.59-0.254-0.13-0.302-0.32-0.245-0.51 0.062-0.47 1.044-1.56 1.044-1.56s0.020 0.23 0.33 0.71c-0.42-1.29 0.68-2.87 0.97-3.42 0.46-0.14 0.49-0.73 0.49-0.73 0.030-0.91-0.38-1.56-0.77-1.96 0.28 0.35 0.37 0.87 0.38 1.35v0.17c-0.020 0.4-0.14 0.94-0.39 0.94v0.010c-0.26-0.010-0.59 0.050-0.88 0.14l-0.64 0.16s0.34-0.010 0.52 0.15c-0.21 0.34-0.67 0.75-1.18 0.99-0.74 0.35-0.96-0.34-0.58-0.78 0.090-0.11 0.19-0.2 0.27-0.27-0.060-0.060-0.090-0.14-0.1-0.24-0.050-0.23-0.030-0.52 0.3-0.99 0.060-0.1 0.14-0.2 0.23-0.3l0.020-0.020v-0.010c0.020-0.030 0.050-0.050 0.070-0.080 0.38-0.39 0.99-0.8 1.94-1.16 1.13-1.66 1.54-1.97 1.54-1.97 0.12-0.12 0.34-0.28 0.41-0.32-0.58-1.010-0.7-2.43-0.55-2.81-0.020 0.020-0.030 0.040-0.040 0.070 0.060-0.13 0.090-0.17 0.15-0.24 0.16-0.18 0.69-0.28 0.89 0.12 0.1 0.21 0.12 0.49 0.12 0.69-0.43-0.020-0.81 0.46-0.81 0.46s0.35-0.16 0.79-0.17c0 0 0.12 0.11 0.26 0.3-0.19 0.37-0.52 1.15-0.28 1.98 0.040 0.16 0.1 0.3 0.17 0.42 0.010 0.010 0.010 0.010 0.010 0.020l0.020 0.020c0.39 0.59 1.1 0.65 1.1 0.65-0.33-0.16-0.61-0.43-0.78-0.75-0.090-0.17-0.15-0.32-0.18-0.43-0.19-0.72 0.090-1.15 0.25-1.43 0.36-0.56 1.030-0.9 1.74-0.82 1 0.11 1.72 1.020 1.6 2.020-0.070 0.61-0.44 1.12-0.94 1.39 0.12 0.33-0.010 0.72-0.010 0.72 0.3 0.38 0.32 0.6 0.31 0.81-0.39-0.060-0.76 0.2-0.76 0.2s0.74-0.17 1.17 0.21c0.28 0.3 0.47 0.58 0.58 0.78 0.16 0.29 0.9 0.31 0.82 0.82-0.090 0.52-0.66 0.52-1.54-0.060zM9.11 6.237c-0.146-0.146-0.383-0.146-0.53 0l-0.31 0.312c-0.148 0.14-0.148 0.38 0 0.53l0.34 0.34c0.148 0.15 0.385 0.14 0.53 0l0.313-0.31c0.147-0.15 0.147-0.39 0-0.53l-0.343-0.35zM7.64 6.113c-0.093 0.093-0.093 0.245 0 0.34 0.094 0.092 0.246 0.092 0.34 0 0.093-0.095 0.093-0.247 0-0.34-0.094-0.094-0.246-0.094-0.34 0zM8.486 5.945c0.094-0.093 0.094-0.245 0-0.34-0.094-0.092-0.245-0.092-0.34 0-0.093 0.095-0.093 0.247 0 0.34 0.095 0.094 0.246 0.094 0.34 0zM12.076 5.075c0.394-0.753-0.165-1.193-0.55-1.554-0.616-0.58-1.23-0.83-1.933-0.020-0.702 0.8-0.256 1.74 0.386 2.19 0.64 0.46 1.69 0.15 2.090-0.61zM11.012 4.767c-0.248-0.297 0.215-0.835 0.505-0.513 0.534 0.592-0.258 0.81-0.505 0.513z"></path>
</svg>
