<!-- Generated by IcoMoon.io -->
<svg version="1.1" xmlns="http://www.w3.org/2000/svg" width="16" height="16" viewBox="0 0 16 16">
<title>brand250</title>
<path fill="#e62b1e" d="M1.62 6.59h-1.62v-1.48h5.020v1.48h-1.62v4.3h-1.78v-4.3zM5.297 5.11h4.873v1.48h-3.092v0.722h3.092v1.376h-3.092v0.72h3.092v1.483h-4.873v-5.781zM12.25 9.41h0.697c1.11 0 1.272-0.9 1.272-1.443 0-0.364-0.12-1.376-1.41-1.376h-0.57v2.82zM10.47 5.11h2.922c1.928 0 2.608 1.423 2.608 2.88 0 1.773-0.94 2.9-2.956 2.9h-2.574v-5.782z"></path>
</svg>
