<!-- Generated by IcoMoon.io -->
<svg version="1.1" xmlns="http://www.w3.org/2000/svg" width="16" height="16" viewBox="0 0 16 16">
<title>brand260</title>
<path fill="#39a85b" d="M8 0c4.418 0 8 3.582 8 8s-3.582 8-8 8c-4.418 0-8-3.582-8-8s3.582-8 8-8zM8.28 12.906c-0.045 0.086-0.128 0.146-0.224 0.16l-0.746 0.106c0.235 0.070 0.48 0.107 0.734 0.107 0.337 0 0.67-0.070 0.985-0.2l-0.63-0.42-0.12 0.24zM11.21 11.603l-1.153-0.114c-0.050-0.010-0.096-0.030-0.136-0.050l-0.77-0.53-1.020 0.21c-0.030 0-0.050 0.010-0.080 0l-1.11-0.090-0.66 0.59c-0.030 0.030-0.070 0.050-0.11 0.060l-1.19 0.34c-0.050 0.010-0.1 0.010-0.15 0l0.7 0.79 2.33-0.33 0.2-0.41c0.040-0.080 0.11-0.13 0.19-0.16 0.080-0.020 0.17-0.010 0.24 0.040l0.88 0.59 1.96-0.45 0.42-0.67-0.35 0.14c-0.050 0.010-0.090 0.020-0.14 0.020zM5.92 11.155l0.703-0.63c0.060-0.054 0.14-0.083 0.22-0.075l1.193 0.090 1.11-0.235c0.080-0.016 0.16 0 0.228 0.046l0.817 0.56 0.84 0.080c0.090-0.2 0.16-0.42 0.21-0.64h-0.040l-2.28-0.31c-0.11-0.010-0.2-0.090-0.24-0.19l-0.41-1.18c-0.050-0.030-0.31-0.010-0.43 0.050l-0.42 1.14c-0.030 0.1-0.11 0.17-0.21 0.19l-2.27 0.53c0.080 0.27 0.19 0.53 0.32 0.79l0.68-0.19zM4.070 7.855l0.28 1.627 0.62 0.47 1.943-0.45 0.39-1.098c0.020-0.056 0.060-0.104 0.107-0.14 0.033-0.023 0.335-0.234 0.71-0.234 0.44 0 0.632 0.284 0.653 0.317l0.392 1.118 1.987 0.272 0.617-0.427 0.41-1.423c-2.65-0.6-5.46-0.61-8.11-0.032zM6.070 9.075h-0.18c-0.283 0-0.465-0.012-0.626 0.073 0.006-0.010 0.077-0.166 0.33-0.23-0.027-0.064-0.046-0.15-0.050-0.27-0.017-0.457 0.266-0.833 0.558-0.837 0.292 0 0.495 0.37 0.5 0.83 0.004 0.46-0.24 0.43-0.533 0.44zM10.062 7.7c0.293-0.010 0.56 0.35 0.594 0.81 0.010 0.126-0.004 0.22-0.034 0.286 0.27-0.032 0.333 0.153 0.335 0.163-0.197-0.1-0.413 0.020-0.804 0.030-0.295 0.010-0.537 0.010-0.555-0.45s0.173-0.84 0.464-0.85zM6.142 8.1c-0.082 0-0.148 0.070-0.145 0.153 0.002 0.083 0.072 0.15 0.154 0.145 0.090-0.004 0.15-0.073 0.15-0.154 0-0.082-0.070-0.147-0.15-0.145zM10.039 8.286c0.080 0 0.15-0.070 0.14-0.15 0-0.083-0.070-0.15-0.15-0.147-0.090 0-0.15 0.070-0.15 0.15s0.070 0.15 0.15 0.14zM8.039 13.87c0.85 0 1.66-0.35 2.32-0.934l1.16-0.27c0.070-0.017 0.14-0.065 0.18-0.132l0.94-1.52c0.070-0.11 0.060-0.247-0.020-0.345-0.090-0.1-0.22-0.14-0.34-0.090l-0.59 0.22c0.070-0.25 0.13-0.51 0.17-0.77v-0.090l0.31-0.22c0.060-0.050 0.1-0.11 0.12-0.18l0.43-1.53 0.030 0.010h0.010l0.030 0.010c0.13 0.030 0.26-0.020 0.33-0.14 0.15-0.26 0.24-0.59 0.28-0.97 0.040-0.41 0.010-0.75-0.090-1.010-0.030-0.080-0.090-0.14-0.17-0.17-0.26-0.11-0.52-0.2-0.78-0.29-0.39-1.86-2.23-3.24-4.37-3.24s-3.979 1.381-4.369 3.231c-0.268 0.090-0.53 0.18-0.788 0.29-0.074 0.030-0.135 0.090-0.16 0.17-0.1 0.25-0.127 0.59-0.086 1 0.035 0.39 0.13 0.71 0.28 0.97 0.050 0.090 0.15 0.15 0.25 0.15 0.030 0 0.053 0 0.080-0.010l0.226-0.060 0.286 1.69c0.010 0.080 0.050 0.15 0.114 0.19l0.34 0.26c-0.003 0.030-0.004 0.070 0 0.1 0.067 0.36 0.18 0.73 0.337 1.070l-0.74-0.31c-0.13-0.050-0.28-0.010-0.36 0.1s-0.070 0.27 0.020 0.37l1.681 1.88c0.060 0.070 0.14 0.1 0.225 0.1h0.040l0.83-0.116c0.53 0.34 1.14 0.546 1.798 0.547h0.007zM8.969 5.705v0.738c0 0.163-0.14 0.296-0.3 0.296h-1.209c-0.16 0-0.293-0.14-0.293-0.3v-0.739c0-0.143 0.1-0.26 0.234-0.29v-0.44h-0.55c-0.16 0-0.29-0.133-0.29-0.297v-0.976c0-0.164 0.14-0.296 0.3-0.296h2.439c0.164 0 0.296 0.14 0.296 0.3v0.98c0 0.17-0.132 0.3-0.295 0.3h-0.55v0.45c0.14 0.030 0.24 0.15 0.24 0.29zM12.159 6.012h-0.010c-0.070 0-0.13-0.020-0.18-0.057-0.77-0.24-1.57-0.41-2.38-0.504-0.17-0.010-0.28-0.16-0.26-0.32s0.15-0.28 0.33-0.26c0.7 0.090 1.39 0.22 2.060 0.41-0.47-1.42-1.97-2.44-3.7-2.44s-3.23 1.020-3.7 2.45c0.61-0.17 1.24-0.29 1.87-0.38 0.17-0.020 0.31 0.1 0.33 0.26s-0.1 0.31-0.26 0.33c-0.76 0.1-1.5 0.27-2.22 0.49-0.030 0.020-0.060 0.030-0.1 0.030-0.25 0.080-0.49 0.17-0.74 0.27-0.030 0.14-0.040 0.34-0.010 0.63 0.020 0.21 0.060 0.38 0.12 0.54 3.040-0.77 6.34-0.77 9.39 0 0.050-0.15 0.090-0.33 0.11-0.53 0.020-0.25 0.020-0.46-0.020-0.62-0.23-0.090-0.45-0.17-0.68-0.25zM8.89 4.378h0.1v-0.386h-1.84v0.386h0.1c0.004-0.158 0.134-0.285 0.294-0.285h0.156c0.164 0 0.297 0.133 0.297 0.296v1.311c0 0.142-0.1 0.26-0.24 0.29v0.153h0.62v-0.153c-0.135-0.027-0.236-0.146-0.236-0.29v-1.31c0-0.164 0.14-0.297 0.3-0.297h0.16c0.16 0 0.29 0.127 0.3 0.285z"></path>
</svg>
