<!-- Generated by IcoMoon.io -->
<svg version="1.1" xmlns="http://www.w3.org/2000/svg" width="16" height="16" viewBox="0 0 16 16">
<title>brand187</title>
<path fill="#0085de" d="M11.067 0c1.733 0 2.84 0.006 3.885 1.050 1.041 1.044 1.048 2.146 1.048 3.884v6.134c0 1.733-0.007 2.84-1.050 3.885-1.044 1.041-2.146 1.047-3.884 1.047h-6.133c-1.733 0-2.84-0.006-3.885-1.050-1.041-1.043-1.048-2.146-1.048-3.884v-6.133c0-1.733 0.007-2.84 1.050-3.885 1.044-1.041 2.146-1.048 3.884-1.048h6.134zM13.999 7.434c-0.285-3.048-2.877-5.433-5.999-5.433-3.313 0-5.999 2.686-6 5.999 0 3.2 2.502 5.823 5.657 6h4.757c0.875-0.002 1.584-0.712 1.586-1.587v-4.98zM12.476 13.16c-0.377 0-0.683-0.306-0.683-0.683s0.306-0.683 0.683-0.683c0.377 0 0.683 0.306 0.683 0.683s-0.306 0.683-0.683 0.683zM8 12.633c-2.557-0.003-4.63-2.076-4.633-4.633 0.003-2.558 2.075-4.63 4.633-4.633 2.558 0.003 4.63 2.075 4.633 4.633-0.003 2.558-2.076 4.63-4.633 4.633z"></path>
</svg>
