<!-- Generated by IcoMoon.io -->
<svg version="1.1" xmlns="http://www.w3.org/2000/svg" width="16" height="16" viewBox="0 0 16 16">
<title>brand105</title>
<path fill="#00a4de" d="M13.647 0c1.3 0 2.353 1.053 2.353 2.353v11.294c0 1.3-1.053 2.353-2.353 2.353h-11.294c-1.3 0-2.353-1.053-2.353-2.353v-11.294c0-1.3 1.053-2.353 2.353-2.353h11.294zM11.177 9.647c-0.52 0-0.94 0.42-0.94 0.94s0.42 0.942 0.94 0.942 0.94-0.43 0.94-0.95-0.42-0.94-0.94-0.94zM5.741 11.497c0.8 0 1.37-0.028 1.72-0.080 0.35-0.056 0.65-0.148 0.88-0.275 0.3-0.155 0.52-0.376 0.68-0.66s0.24-0.61 0.24-0.986c0-0.52-0.14-0.936-0.42-1.247-0.28-0.32-0.66-0.49-1.16-0.53 0.44-0.12 0.77-0.3 0.97-0.54 0.21-0.23 0.31-0.55 0.31-0.95 0-0.32-0.070-0.59-0.2-0.84-0.14-0.24-0.33-0.43-0.59-0.58-0.23-0.13-0.49-0.21-0.81-0.27-0.31-0.050-0.86-0.080-1.65-0.080h-1.941v6.99h1.97zM6.231 8.707c0.47 0 0.79 0.058 0.96 0.174 0.18 0.12 0.26 0.33 0.26 0.62 0 0.27-0.090 0.46-0.28 0.57-0.18 0.12-0.51 0.17-0.96 0.17h-0.67v-1.531h0.7zM12.001 9.177v-4.707h-1.64v4.707h1.639zM5.95 6.053c0.473 0 0.79 0.054 0.955 0.16 0.163 0.107 0.245 0.29 0.245 0.554 0 0.253-0.087 0.43-0.26 0.535-0.177 0.103-0.498 0.155-0.968 0.155h-0.38v-1.404h0.41z"></path>
</svg>
