<!-- Generated by IcoMoon.io -->
<svg version="1.1" xmlns="http://www.w3.org/2000/svg" width="16" height="16" viewBox="0 0 16 16">
<title>brand73</title>
<path fill="#00b0b9" d="M8.865 1.216c0 0.65-0.54 1.19-1.19 1.19-0.648 0-1.19-0.54-1.19-1.19 0-0.648 0.542-1.19 1.19-1.19 0.65 0 1.19 0.542 1.19 1.19zM7.675 3.378c-0.702 0-1.243 0.54-1.243 1.244 0 0.702 0.54 1.243 1.244 1.243 0.702 0 1.243-0.54 1.243-1.243s-0.55-1.244-1.25-1.244zM7.675 6.73c-0.702 0-1.297 0.594-1.297 1.297s0.595 1.297 1.298 1.297c0.702 0 1.297-0.594 1.297-1.297s-0.595-1.297-1.297-1.297zM7.675 10.135c-0.702 0-1.243 0.54-1.243 1.243s0.54 1.244 1.244 1.244c0.702 0 1.243-0.54 1.243-1.244 0-0.648-0.55-1.243-1.25-1.243zM7.675 13.595c-0.648 0-1.19 0.54-1.19 1.19 0 0.647 0.542 1.188 1.19 1.188 0.65 0 1.19-0.54 1.19-1.19 0-0.648-0.54-1.188-1.19-1.188zM10.973 3.215c-0.757 0-1.405 0.65-1.405 1.407s0.648 1.405 1.405 1.405 1.405-0.65 1.405-1.405c0-0.757-0.648-1.406-1.405-1.406zM10.973 6.568c-0.81 0-1.46 0.648-1.46 1.46 0 0.81 0.65 1.458 1.46 1.458s1.46-0.648 1.46-1.46c0-0.81-0.65-1.458-1.46-1.458zM10.973 9.973c-0.757 0-1.405 0.65-1.405 1.405 0 0.757 0.648 1.406 1.405 1.406s1.405-0.65 1.405-1.406c0-0.756-0.648-1.405-1.405-1.405zM14.378 6.405c-0.864 0-1.62 0.703-1.62 1.622 0 0.865 0.7 1.622 1.62 1.622s1.622-0.71 1.622-1.63c-0.054-0.92-0.757-1.62-1.622-1.62zM4.324 3.54c-0.594 0-1.080 0.487-1.080 1.082s0.486 1.080 1.080 1.080c0.595 0 1.080-0.486 1.080-1.080s-0.485-1.080-1.080-1.080zM4.324 6.892c-0.648 0-1.135 0.486-1.135 1.135s0.48 1.135 1.13 1.135 1.13-0.486 1.13-1.135c0-0.65-0.49-1.135-1.14-1.135zM4.324 10.297c-0.594 0-1.080 0.487-1.080 1.080 0 0.596 0.486 1.082 1.080 1.082s1.080-0.49 1.080-1.090-0.485-1.080-1.080-1.080zM0.974 7.054c-0.542 0-0.974 0.432-0.974 0.973 0 0.54 0.432 0.973 0.973 0.973 0.54 0 0.973-0.432 0.973-0.973 0-0.54-0.432-0.973-0.973-0.973z"></path>
</svg>
