<!-- Generated by IcoMoon.io -->
<svg version="1.1" xmlns="http://www.w3.org/2000/svg" width="16" height="16" viewBox="0 0 16 16">
<title>brand248</title>
<path fill="#2eace3" d="M13.925 9.653c-0.988 0.28-1.66 0.858-1.66 1.81v2.72c0 2.033-1.938 1.81-4.344 1.81h-0.37c-0.15 0-0.24-0.056-0.24-0.187v-0.932c0-0.13 0.080-0.187 0.23-0.187h0.3c1.44 0 2.45 0.317 2.45-0.84v-2.61c0-0.8 0.56-1.92 1.68-2.33 0.080-0.020 0.090-0.056 0.090-0.093s-0.020-0.093-0.090-0.13c-1.020-0.467-1.68-1.23-1.68-2.145v-2.949c0-1.138-1-2.275-2.44-2.275h-0.3c-0.15 0-0.22-0.056-0.22-0.186v-0.929c0-0.13 0.1-0.187 0.25-0.187h0.37c2.4 0 4.36 1.715 4.36 3.747v2.48c0 0.94 0.67 1.48 1.68 1.83 0.37 0.11 0.58 0.13 0.58 0.43v0.78c0.020 0.17-0.16 0.25-0.61 0.38zM5.41 15.98h-3.727c-0.15 0-0.224-0.037-0.224-0.168v-15.626c0-0.11 0.070-0.186 0.22-0.186h3.69c0.15 0 0.24 0.056 0.24 0.186v0.97c0 0.13-0.080 0.168-0.23 0.168h-1.649c-0.203 0-0.28 0.074-0.28 0.205v12.94c0 0.13 0.077 0.18 0.245 0.18h1.678c0.15 0 0.242 0.050 0.242 0.17v0.99c0.020 0.11-0.056 0.17-0.205 0.17zM8.66 7.29h-0.99c-0.242 0-0.428-0.187-0.428-0.393v-0.895c0-0.223 0.205-0.39 0.428-0.39h0.99c0.24 0 0.428 0.185 0.428 0.39v0.895c0 0.224-0.206 0.392-0.43 0.392z"></path>
</svg>
