<!-- Generated by IcoMoon.io -->
<svg version="1.1" xmlns="http://www.w3.org/2000/svg" width="16" height="16" viewBox="0 0 16 16">
<title>brand27</title>
<path fill="#0aa0ff" d="M15.983 7.506c-0.253-4.172-3.705-7.48-7.936-7.506h-0.095c-1.495 0.010-2.892 0.427-4.086 1.15-1.102 0.665-2.030 1.59-2.7 2.69-0.658 1.077-1.066 2.326-1.15 3.662-0.010 0.165-0.016 0.33-0.016 0.498s0.007 0.333 0.017 0.498c0.082 1.336 0.49 2.584 1.15 3.663 0.667 1.1 1.59 2.020 2.684 2.69 1.2 0.72 2.6 1.14 4.090 1.15h0.12c4.23-0.030 7.67-3.33 7.93-7.5 0.010-0.16 0.020-0.33 0.020-0.49s0-0.33-0.010-0.49zM8.007 10.43v2.555c0.064 1.56-0.38 1.822-0.913 1.845-0.024 0-0.045 0.002-0.067 0.003-3.040-0.43-5.443-2.84-5.86-5.886-0.045-0.31-0.067-0.625-0.067-0.947 0-0.32 0.023-0.636 0.066-0.946 0.417-3.040 2.814-5.45 5.85-5.884l0.078 0.007c0.533 0.030 0.977 0.286 0.913 1.845v2.554c-0.007 1.050 0.597 2.050 1.24 2.428-0.642 0.376-1.247 1.253-1.24 2.426z"></path>
</svg>
