<!-- Generated by IcoMoon.io -->
<svg version="1.1" xmlns="http://www.w3.org/2000/svg" width="16" height="16" viewBox="0 0 16 16">
<title>brand199</title>
<path fill="#c7053d" d="M10.763 11.503c-0.572 0.66-0.89 1.862-0.473 2.25 0.398 0.3 1.47 0.26 2.26-0.822 0.574-0.72 0.38-1.93 0.053-2.25-0.487-0.37-1.186 0.11-1.84 0.83zM5.386 11.703c-0.606-0.694-1.394-1.107-1.903-0.8-0.34 0.254-0.404 1.124 0.082 1.98 0.72 1.018 1.733 1.12 2.15 0.872 0.44-0.325 0.2-1.426-0.33-2.053zM8.126 13.803c-0.736-0.018-1.867 0.292-1.853 0.688-0.012 0.27 0.888 1.050 1.805 1.010 0.886 0.020 1.802-0.76 1.79-1.1-0.003-0.35-1-0.62-1.74-0.59zM8.076 4.496c-0.852-0.022-1.67 0.622-1.67 0.996-0.003 0.454 0.672 0.918 1.675 0.93 1.030 0.007 1.68-0.372 1.69-0.84 0.010-0.53-0.93-1.094-1.68-1.086zM6.026 4.851c-1.425-0.23-2.612 0.6-2.564 2.13 0.047 0.59 3.090-2.030 2.565-2.12zM12.532 7.021c0.048-1.52-1.14-2.35-2.565-2.12-0.525 0.090 2.518 2.71 2.565 2.12zM12.775 7.571c-0.827-0.22-0.28 3.37 0.393 3.080 0.74-0.58 0.978-2.3-0.393-3.070zM2.832 10.691c0.672 0.3 1.22-3.29 0.393-3.070-1.37 0.77-1.133 2.49-0.393 3.080zM9.116 6.721c-0.765 0.5-0.903 1.62-0.308 2.5s1.698 1.21 2.464 0.72c0.765-0.49 0.903-1.61 0.308-2.5s-1.698-1.21-2.464-0.71zM7.050 6.811c-0.765-0.49-1.868-0.17-2.463 0.71-0.595 0.89-0.457 2.010 0.308 2.51s1.868 0.18 2.464-0.71c0.59-0.88 0.45-2-0.31-2.5zM9.966 11.591c-0.006-0.93-0.836-1.68-1.856-1.67s-1.843 0.76-1.838 1.69v0.020c0.006 0.93 0.837 1.68 1.857 1.67 1.020 0 1.84-0.76 1.83-1.68v-0.020zM12.108 1.491c-1.54 0.79-2.438 1.42-2.93 1.96 0.252 1 1.565 1.040 2.044 1.010-0.098-0.040-0.18-0.1-0.21-0.18 0.12-0.080 0.548-0.010 0.846-0.17-0.114-0.020-0.168-0.040-0.22-0.13 0.28-0.090 0.584-0.16 0.762-0.31-0.096 0-0.186 0.020-0.312-0.060 0.252-0.13 0.52-0.24 0.73-0.44-0.13 0-0.27 0-0.31-0.050 0.23-0.14 0.424-0.29 0.585-0.47-0.182 0.030-0.26 0.010-0.303-0.020 0.174-0.17 0.395-0.32 0.5-0.54-0.135 0.050-0.26 0.060-0.348 0 0.060-0.13 0.313-0.21 0.46-0.52-0.143 0.020-0.295 0.030-0.325 0 0.066-0.26 0.18-0.41 0.29-0.57-0.304 0-0.767 0-0.745-0.020l0.188-0.19c-0.298-0.080-0.603 0.010-0.824 0.080-0.1-0.070 0-0.17 0.123-0.27-0.26 0.040-0.49 0.090-0.69 0.17-0.11-0.1 0.070-0.19 0.16-0.29-0.4 0.080-0.56 0.18-0.73 0.28-0.12-0.11-0.010-0.21 0.070-0.3-0.3 0.11-0.45 0.25-0.61 0.38-0.060-0.070-0.14-0.12-0.040-0.3-0.21 0.12-0.37 0.26-0.49 0.42-0.13-0.090-0.080-0.2-0.080-0.3-0.22 0.18-0.36 0.36-0.53 0.54-0.040-0.020-0.070-0.1-0.090-0.23-0.52 0.5-1.26 1.75-0.19 2.24 0.9-0.73 1.99-1.27 3.19-1.67zM3.926 1.491c1.2 0.4 2.282 0.94 3.188 1.68 1.065-0.5 0.33-1.75-0.188-2.24-0.027 0.13-0.057 0.22-0.090 0.24-0.17-0.18-0.308-0.36-0.526-0.54 0 0.1 0.052 0.22-0.078 0.3-0.117-0.16-0.274-0.3-0.484-0.42 0.1 0.17 0.017 0.22-0.037 0.3-0.16-0.15-0.31-0.29-0.6-0.4 0.080 0.1 0.2 0.2 0.080 0.31-0.16-0.1-0.33-0.2-0.72-0.28 0.090 0.1 0.27 0.2 0.16 0.3-0.211-0.081-0.441-0.141-0.691-0.171 0.12 0.1 0.228 0.192 0.128 0.27-0.23-0.080-0.538-0.17-0.838-0.090l0.19 0.19c0.020 0.025-0.44 0.020-0.748 0.023 0.11 0.15 0.225 0.3 0.29 0.57-0.030 0.030-0.18 0.010-0.323 0 0.15 0.3 0.4 0.38 0.46 0.51-0.090 0.064-0.21 0.050-0.35 0 0.11 0.21 0.33 0.36 0.5 0.54-0.050 0.030-0.12 0.050-0.31 0.025 0.16 0.173 0.35 0.33 0.58 0.47-0.040 0.047-0.18 0.046-0.32 0.050 0.21 0.203 0.48 0.31 0.73 0.443-0.13 0.090-0.22 0.070-0.31 0.070 0.17 0.15 0.48 0.22 0.76 0.31-0.060 0.090-0.11 0.11-0.23 0.13 0.3 0.17 0.72 0.090 0.84 0.18-0.030 0.080-0.11 0.14-0.21 0.18 0.48 0.030 1.8-0.010 2.050-1.010-0.49-0.54-1.39-1.17-2.93-1.95zM5.083 0c0.157-0.005 0.29 0.090 0.435 0.134 0.353-0.113 0.434 0.042 0.608 0.106 0.385-0.080 0.502 0.094 0.687 0.28l0.215-0.006c0.58 0.338 0.87 1.025 0.972 1.378 0.102-0.353 0.39-1.040 0.972-1.378l0.215 0.005c0.185-0.19 0.302-0.36 0.687-0.28 0.174-0.070 0.254-0.22 0.608-0.11 0.22-0.070 0.414-0.25 0.705-0.030 0.246-0.1 0.485-0.13 0.698 0.060 0.33-0.040 0.436 0.040 0.517 0.14 0.072 0 0.54-0.070 0.755 0.24 0.54-0.060 0.71 0.31 0.517 0.66 0.11 0.17 0.225 0.33-0.033 0.65 0.1 0.18 0.040 0.37-0.18 0.61 0.060 0.25-0.050 0.42-0.25 0.56 0.040 0.34-0.32 0.54-0.42 0.61-0.040 0.2-0.12 0.39-0.53 0.49-0.060 0.3-0.31 0.35-0.55 0.41 0.79 0.45 1.46 1.040 1.46 2.49l0.12 0.2c0.9 0.54 1.71 2.27 0.45 3.68-0.080 0.44-0.22 0.75-0.34 1.1-0.18 1.41-1.39 2.070-1.71 2.15-0.46 0.35-0.96 0.68-1.63 0.91-0.63 0.64-1.32 0.89-2 0.89h-0.061c-0.69 0-1.377-0.25-2.010-0.89-0.672-0.23-1.17-0.56-1.633-0.91-0.32-0.080-1.524-0.74-1.71-2.15-0.124-0.35-0.262-0.67-0.345-1.11-1.264-1.41-0.455-3.14 0.444-3.68l0.115-0.2c0-1.45 0.67-2.040 1.46-2.49-0.24-0.060-0.48-0.11-0.55-0.41-0.41-0.1-0.49-0.29-0.53-0.49-0.1-0.070-0.46-0.27-0.42-0.62-0.2-0.14-0.31-0.31-0.25-0.57-0.21-0.23-0.27-0.43-0.18-0.61-0.26-0.32-0.14-0.49-0.030-0.65-0.19-0.35-0.020-0.73 0.52-0.67 0.21-0.31 0.68-0.24 0.75-0.24 0.080-0.1 0.19-0.19 0.52-0.15 0.21-0.19 0.45-0.16 0.7-0.068 0.1-0.080 0.19-0.11 0.27-0.11z"></path>
</svg>
