<!-- Generated by IcoMoon.io -->
<svg version="1.1" xmlns="http://www.w3.org/2000/svg" width="16" height="16" viewBox="0 0 16 16">
<title>brand56</title>
<path fill="#2e9fff" d="M8.292 15.77c-1.902 0-3.64-0.695-4.984-1.844l-3.308 0.452 1.278-3.155c-0.445-0.983-0.695-2.073-0.695-3.223 0-4.29 3.45-7.77 7.71-7.77 4.255 0 7.707 3.48 7.707 7.77 0 4.292-3.45 7.77-7.708 7.77zM12.502 7.978v-0.022c0-2.242-1.582-3.84-4.308-3.84h-2.944v7.77h2.9c2.747 0 4.35-1.666 4.35-3.908zM8.225 9.976h-0.86v-3.95h0.86c1.265 0 2.105 0.72 2.105 1.964v0.020c0 1.256-0.84 1.966-2.104 1.966z"></path>
</svg>
