<!-- Generated by IcoMoon.io -->
<svg version="1.1" xmlns="http://www.w3.org/2000/svg" width="16" height="16" viewBox="0 0 16 16">
<title>brand263</title>
<path fill="#589442" d="M15.213 6.352c0.187-0.804 0.783-1.61 0.783-1.61h-2.674c-1.5-0.97-3.32-1.483-5.34-1.483-2.093 0-3.984 0.52-5.475 1.5h-2.507s0.59 0.79 0.78 1.59c-0.488 0.671-0.778 1.481-0.778 2.371 0 2.21 1.798 4.005 4.007 4.005 1.26 0 2.38-0.59 3.12-1.503l0.85 1.277 0.86-1.29c0.38 0.49 0.88 0.89 1.47 1.16 0.97 0.44 2.060 0.49 3.060 0.12 2.070-0.77 3.13-3.080 2.37-5.15-0.14-0.37-0.32-0.7-0.54-0.99zM13.1 11.732c-0.8 0.297-1.67 0.263-2.446-0.095-0.55-0.255-1.002-0.654-1.326-1.15-0.133-0.2-0.25-0.415-0.335-0.647-0.097-0.263-0.146-0.535-0.172-0.81-0.050-0.554 0.030-1.116 0.27-1.635 0.36-0.776 1-1.367 1.8-1.663 1.66-0.61 3.5 0.24 4.11 1.893s-0.24 3.495-1.89 4.108zM6.656 10.51c-0.576 0.848-1.548 1.408-2.648 1.408-1.764 0-3.2-1.437-3.2-3.197s1.437-3.2 3.2-3.2c1.763 0 3.198 1.44 3.198 3.2 0 0.11-0.020 0.21-0.032 0.32-0.054 0.54-0.227 1.050-0.518 1.48zM1.976 8.68c0 1.093 0.89 1.98 1.98 1.98s1.978-0.887 1.978-1.98c0-1.090-0.888-1.976-1.977-1.976s-1.98 0.886-1.98 1.976zM10.006 8.68c0 1.093 0.886 1.98 1.978 1.98 1.090 0 1.976-0.887 1.976-1.98 0-1.090-0.886-1.976-1.976-1.976s-1.98 0.886-1.98 1.976zM2.659 8.68c0-0.714 0.58-1.295 1.29-1.295s1.3 0.582 1.3 1.295c0 0.717-0.58 1.3-1.3 1.3s-1.3-0.583-1.3-1.3zM10.679 8.68c0-0.714 0.58-1.295 1.3-1.295 0.71 0 1.29 0.582 1.29 1.295 0 0.717-0.58 1.3-1.3 1.3s-1.3-0.583-1.3-1.3zM7.979 3.958c1.44 0 2.74 0.26 3.88 0.775-0.43 0.012-0.85 0.087-1.27 0.24-1.010 0.37-1.81 1.11-2.25 2.083-0.21 0.44-0.32 0.906-0.36 1.377-0.15-2.050-1.84-3.676-3.92-3.718 1.14-0.49 2.46-0.757 3.89-0.757z"></path>
</svg>
