<!-- Generated by IcoMoon.io -->
<svg version="1.1" xmlns="http://www.w3.org/2000/svg" width="16" height="16" viewBox="0 0 16 16">
<title>brand117</title>
<path fill="#1f8ded" d="M14 0h-12c-1.105 0-2 0.895-2 2v12c0 1.105 0.895 2 2 2h12c1.105 0 2-0.895 2-2v-12c0-1.105-0.895-2-2-2zM10.133 2.933c0-0.294 0.24-0.533 0.534-0.533s0.533 0.24 0.533 0.533v7.125c0 0.295-0.24 0.534-0.533 0.534-0.295 0-0.534-0.24-0.534-0.534v-7.125zM7.467 2.663c0-0.294 0.238-0.533 0.533-0.533s0.533 0.24 0.533 0.533v7.734c0 0.294-0.238 0.533-0.533 0.533s-0.533-0.24-0.533-0.533v-7.734zM4.8 2.933c0-0.294 0.24-0.533 0.533-0.533 0.295 0 0.534 0.24 0.534 0.533v7.125c0 0.295-0.24 0.534-0.534 0.534s-0.533-0.24-0.533-0.534v-7.125zM2.133 4c0-0.295 0.24-0.533 0.534-0.533s0.533 0.238 0.533 0.533v4.797c0 0.294-0.24 0.533-0.533 0.533-0.295 0-0.534-0.24-0.534-0.533v-4.797zM13.68 12.135c-0.082 0.070-2.058 1.728-5.68 1.728s-5.598-1.657-5.68-1.728c-0.224-0.192-0.25-0.528-0.058-0.752 0.19-0.223 0.527-0.25 0.75-0.060 0.032 0.027 1.796 1.474 4.988 1.474 3.232 0 4.97-1.457 4.986-1.472 0.223-0.192 0.56-0.166 0.752 0.058s0.166 0.56-0.058 0.752zM13.867 8.797c0 0.294-0.24 0.533-0.534 0.533s-0.533-0.24-0.533-0.533v-4.797c0-0.295 0.24-0.533 0.533-0.533 0.295 0 0.534 0.238 0.534 0.533v4.797z"></path>
</svg>
