<!-- Generated by IcoMoon.io -->
<svg version="1.1" xmlns="http://www.w3.org/2000/svg" width="16" height="16" viewBox="0 0 16 16">
<title>brand38</title>
<path fill="#4cadc0" d="M8 14.555c-3.626 0-6.566-2.94-6.566-6.563 0-3.625 2.94-6.562 6.566-6.562 3.624 0 6.563 2.937 6.563 6.562 0 3.624-2.93 6.563-6.564 6.563zM8 0c-4.42 0-8.004 3.584-8.004 8s3.586 8 8.004 8c4.416 0 8-3.584 8-8s-3.576-8.008-8-8zM7.133 10.196l-2.335-2.196 2.335-2.204v-2.056l-4.507 4.26 4.507 4.253v-2.057zM8.873 3.739v2.050l2.333 2.211-2.336 2.196v2.057l4.51-4.253-4.51-4.26z"></path>
</svg>
