<!-- Generated by IcoMoon.io -->
<svg version="1.1" xmlns="http://www.w3.org/2000/svg" width="16" height="16" viewBox="0 0 16 16">
<title>brand182</title>
<path fill="#40a4c4" d="M8.090 16c1.25 0 6.21-5.626 6.21-9.397 0-3.61-2.82-6.603-6.21-6.603-3.57 0-6.39 2.992-6.39 6.603 0 3.77 4.96 9.397 6.39 9.397zM7.093 2.564c0.323-0.080 0.663-0.123 1.016-0.123 2 0 3.72 1.7 3.72 3.91 0 1.99-1.72 3.69-3.73 3.69-2.23 0-3.95-1.7-3.95-3.69 0-0.93 0.3-1.76 0.82-2.42v0.020c0 0.83 0.67 1.49 1.5 1.49s1.531-0.681 1.531-1.511c0-0.612-0.373-1.138-0.906-1.368z"></path>
</svg>
