<!-- Generated by IcoMoon.io -->
<svg version="1.1" xmlns="http://www.w3.org/2000/svg" width="16" height="16" viewBox="0 0 16 16">
<title>brand145</title>
<path fill="#2c9ab7" d="M15.579 10.418c0.19 0.461-0.18 1.015-0.18 1.015-0.020 0.041-1.2 4.567-5.82 4.567-4-0.001-5.89-3.478-5.89-3.478-0.29 0.016-0.58-0.030-0.83-0.126-1.174-0.43-1.737-1.774-1.332-2.9l-0.645-0.493c-2.499-1.903 4.58-10.613 7.083-8.643l0.595 0.48c0.9-0.545 1.79-0.84 2.516-0.84 0.514 0 0.944 0.15 1.23 0.491 0.65 0.7 0.418 2.040-0.47 3.4 0.192 0.18 0.349 0.43 0.462 0.67 0.282 0.22 0.466 0.55 0.556 1 0.101 0.51 0.122 1.23 0.186 1.54 0.239 0.11 0.137 0.060 0.392 0.18 0.266 0.14 0.59 0.3 0.948 0.64 0.636 0.16 0.879 0.83 0.506 1.29-0.010 0.012-0.054 0.065-0.1 0.117 0.010 0.030 0.132 0.228 0.22 0.63 0.264 0.063 0.474 0.225 0.584 0.46zM10.226 11.148c-0.305 0.014-0.494-0.036-0.6 0.32-0.008 0.030-0.014 0.066-0.017 0.103 1.19 0.38 3.080-0.35 3.26-0.39h0.020c0.11 0.010-1.020 0.73-2.59 0.73-0.27 0-0.5-0.020-0.68-0.060 0.080 0.3 0.31 0.43 0.6 0.5 0.22 0.050 0.46 0.060 0.46 0.060 2.17 0.060 3.96-1.62 4.030-1.71l-0.020 0.050c-0.32 0.72-2.17 2.020-4.010 1.98-0.43 0-0.95-0.11-1.22-0.44-0.43-0.52-0.21-1.4 0.47-1.42l0.22-0.010c1.68-0.050 3.19-0.67 4.27-1.96 0.14-0.18-0.020-0.44-0.34-0.44v-0.010c-0.38-0.41-0.72-0.55-1.020-0.7-0.63-0.32-0.57-0.040-0.71-1.59-0.040-0.41-0.12-0.98-0.49-1.2-0.090-0.060-0.2-0.080-0.31-0.080-0.1 0-0.16 0.020-0.18 0.020-0.2 0.050-0.31 0.16-0.45 0.29-0.68 0.62-1.22 0.45-2.020 0.45-0.76 0-1.43 0.52-1.55 1.33-0.070 0.42-0.030 0.86 0.040 1.050 0 0-0.21-0.13-0.31-0.25 0.12 0.74 0.79 1.22 0.79 1.22-0.11 0.030-0.26 0.020-0.26 0.020s0.38 0.31 0.72 0.41c-0.090 0.060-0.53 0.49-0.76 1.090-0.21 0.56-0.12 1.24-0.12 1.24l0.18-0.27s-0.12 0.61 0.11 1.21c0.070-0.18 0.24-0.49 0.24-0.49s-0.030 0.66 0.29 1.2c0.010-0.12 0.060-0.44 0.060-0.44s0.18 0.56 0.6 0.96c0.78 0.7 2.87 0.83 4.45-0.42 1.26-0.99 1.48-2.17 1.5-2.21 0.31-0.37 0.22-0.74-0.19-0.74-0.13 0-0.22 0.035-0.22 0.035s0-0.54-0.25-0.96c-0.2 0.214-0.73 0.644-1.43 0.98-0.66 0.31-1.54 0.583-2.63 0.62zM3.542 12c1.008 0 1.771-0.957 1.595-2.005 0 0-0.103 0.24-0.2 0.368 0.024-0.376-0.035-0.747-0.15-1.1 0 0-0.052 0.211-0.152 0.467-0.097-0.82-0.442-0.994-0.442-0.994-0.198-0.093-0.418-0.143-0.65-0.143-0.894 0-1.62 0.764-1.62 1.704s0.726 1.703 1.62 1.703zM3.951 9.729c-0.050 0-0.11 0.020-0.16 0.070-0.080 0.090-0.11 0.27 0.020 0.42 0.15 0.16 0.38 0.2 0.41 0.4 0.006 0.030 0.008 0.060 0.006 0.1 0 0.030-0.012 0.080-0.012 0.090-0.040 0.17-0.19 0.34-0.437 0.34h-0.095c-0.032-0.010-0.055-0.010-0.075-0.010-0.014 0-0.024 0-0.028 0.010-0.023 0.030 0.102 0.18 0.332 0.18h0.012c0.341-0.010 0.622-0.36 0.554-0.74-0.060-0.335-0.395-0.405-0.52-0.505-0.033-0.026-0.050-0.050-0.060-0.086-0.013-0.065-0.006-0.102 0.050-0.142 0.043-0.030 0.078-0.044 0.078-0.062 0.001-0.017-0.036-0.037-0.086-0.037zM3.221 9.541l0.057-0.030 0.027-0.010c0.065-0.019 0.028-0.011 0.095-0.024h0.020c0.063-0.014 0.123-0.020 0.18-0.020h0.021c0.26 0.001 0.45 0.128 0.54 0.258 0.080 0.12 0.050 0.191 0.090 0.225 0.010 0.008 0.020 0.013 0.030 0.013s0.020-0.002 0.020-0.005c0.050-0.020 0.070-0.096 0.080-0.15 0.010-0.129-0.060-0.273-0.15-0.376-0.12-0.135-0.31-0.242-0.52-0.275-0.050-0.007-0.1-0.010-0.15-0.010h-0.010c-0.13 0-0.24 0.023-0.28 0.035-0.020 0.008-0.060 0.015-0.090 0.025-0.51 0.2-0.74 0.7-0.63 1.2 0.020 0.12 0.080 0.255 0.16 0.345 0.050 0.052 0.1 0.076 0.13 0.076 0.040 0 0.060-0.033 0.030-0.090-0.010-0.029-0.080-0.149-0.090-0.366-0.008-0.222 0.043-0.453 0.187-0.63 0.105-0.13 0.235-0.188 0.25-0.195zM1.069 8.426c0.090 0.146 0.69 0.59 0.7 0.59 0.237-0.326 0.505-0.566 0.777-0.716h-0.026c0.55-1.9 2.010-3.85 3.521-5.099 0.37-0.31 1.21-0.91 1.12-0.82l-0.85-0.75-0.060-0.43 1.16 0.96-0.16 0.13c-0.12 0.090-0.23 0.2-0.35 0.3-0.17 0.16-0.33 0.32-0.5 0.49-0.35 0.37-0.7 0.76-1.030 1.17-0.575 0.72-0.814 1.060-1.178 1.74 0 0 1.985-2.38 2.48-2.87 0.907-0.9 2.393-1.91 2.407-1.92 0.635-0.388 1.17-0.616 1.61-0.714-0.722 0.073-1.494 0.443-2.1 0.808l-0.882-0.745-0.323 0.123c-1.173-0.278-3.757 1.67-5.307 4.14-0.628 1-1.511 2.758-1.004 3.614zM9.579 8.091c-0.040 0-0.080 0-0.12 0.010l-0.11 0.030c-0.020 0-0.030 0.010-0.040 0.010-0.080 0.030-0.15 0.070-0.21 0.13-0.070 0.080-0.1 0.15-0.070 0.16h0.010c0.030 0 0.070-0.022 0.14-0.048 0.22-0.087 0.38-0.11 0.53-0.11 0.050 0 0.090 0.002 0.14 0.005 0.040 0.003 0.070 0.007 0.1 0.007h0.010c0.035 0 0.055-0.006 0.065-0.020 0.026-0.045-0.15-0.188-0.41-0.188zM11.229 7.971c-0.070 0-0.13 0.030-0.16 0.080-0.050 0.090 0.011 0.23 0.138 0.29 0.052 0.029 0.107 0.042 0.157 0.042 0.072 0 0.134-0.029 0.164-0.083 0.052-0.093-0.011-0.223-0.138-0.293-0.051-0.028-0.106-0.042-0.156-0.042zM12.081 7.659c-0.090 0-0.17 0.090-0.19 0.21-0.020 0.13 0.040 0.24 0.13 0.26 0.010 0 0.020 0.010 0.020 0.010 0.090-0.001 0.16-0.087 0.18-0.204 0.020-0.127-0.040-0.241-0.14-0.255-0.007-0.002-0.012-0.002-0.017-0.002zM9.291 7.419c-0.25 0-0.5 0.090-0.7 0.25-0.15 0.12-0.21 0.25-0.15 0.26h0.010c0.050 0 0.13-0.030 0.24-0.070 0.24-0.090 0.43-0.13 0.6-0.13h0.010c0.17 0 0.33 0.040 0.51 0.11 0.11 0.040 0.2 0.080 0.24 0.080 0.020 0 0.030-0.010 0.030-0.010 0.020-0.016 0.010-0.053-0.030-0.103-0.090-0.13-0.26-0.244-0.42-0.3-0.115-0.043-0.237-0.063-0.357-0.063zM11.548 7.221c-0.047-0.14-0.069-0.27-0.074-0.42-0.003-0.12 0.016-0.32 0.13-0.36 0.193-0.067 0.45 0.427 0.46 0.867-0.152-0.076-0.332-0.108-0.516-0.093zM5.509 5.939c0.45-0.59 1.040-1.16 1.84-1.67 1.74-1.13 3.48-1.26 4.080-0.8l-0.010-0.030c-0.16-0.32-0.51-0.54-0.82-0.63 0.050 0.060 0.13 0.17 0.17 0.23-0.24-0.16-0.55-0.3-0.88-0.37l0.050 0.040c0.060 0.060 0.15 0.15 0.19 0.24-0.31-0.13-0.71-0.2-1.050-0.13l-0.040 0.010 0.050 0.020c0.11 0.030 0.27 0.1 0.35 0.2-0.566-0.1-1.188 0.010-1.524 0.2 0.043-0.010 0.043-0.010 0.080 0 0.123 0.003 0.372 0.020 0.475 0.087-0.356 0.072-0.872 0.23-1.15 0.47 0.049-0.004 0.328-0.041 0.442-0.024-1.52 0.87-2.218 2.184-2.226 2.2zM7.951 1.72l-0.74-0.224 0.48 0.406 0.007-0.005c0.069-0.052 0.15-0.112 0.242-0.177zM8.309 1.47c-0.080 0.052-0.156 0.102-0.226 0.152l-0.13-0.45 0.357 0.298zM7.343 1.236l-0.060-0.248 0.102-0.315 0.175 0.633-0.216-0.070z"></path>
</svg>
