<!-- Generated by IcoMoon.io -->
<svg version="1.1" xmlns="http://www.w3.org/2000/svg" width="16" height="16" viewBox="0 0 16 16">
<title>brand174</title>
<path fill="#094ab2" d="M3.28 11.72c-0.333 0.203-0.706 0.305-1.12 0.305-0.613-0.020-1.12-0.23-1.525-0.634-0.405-0.401-0.615-0.911-0.635-1.521 0.010-0.575 0.194-1.063 0.553-1.462 0.36-0.4 0.816-0.632 1.372-0.7-0.020-0.118-0.028-0.244-0.028-0.377 0.020-0.76 0.28-1.39 0.78-1.88 0.502-0.49 1.133-0.75 1.894-0.77 0.48 0 0.91 0.11 1.29 0.34 0.32-0.51 0.73-0.93 1.24-1.24 0.52-0.31 1.1-0.47 1.74-0.48 0.86 0.020 1.59 0.29 2.21 0.81s1.010 1.19 1.17 2.020h-0.19c-0.31 0-0.58 0.040-0.82 0.13-0.32-0.34-0.69-0.6-1.11-0.78-0.41-0.18-0.86-0.26-1.34-0.26-0.44 0-0.86 0.070-1.26 0.22s-0.76 0.36-1.080 0.64c-0.28 0.24-0.51 0.51-0.7 0.82s-0.32 0.64-0.39 0.99c-0.24 0.050-0.47 0.12-0.68 0.21-0.34 0.16-0.63 0.38-0.86 0.67-0.22 0.25-0.39 0.54-0.5 0.87s-0.17 0.67-0.17 1.030c0 0.4 0.060 0.77 0.2 1.11zM14.512 9.223c1.050 0.26 1.545 0.88 1.483 1.854s-0.63 1.524-1.704 1.647h-8.491c-1.403-0.185-2.092-0.91-2.068-2.175 0.023-1.27 0.736-1.97 2.14-2.090 0.184-1.36 0.878-2.2 2.080-2.52 1.204-0.33 2.228 0.040 3.075 1.12 0.29-0.24 0.657-0.34 1.1-0.31 0.446 0.030 0.823 0.12 1.132 0.29 0.4 0.21 0.72 0.51 0.93 0.89s0.32 0.81 0.32 1.28z"></path>
</svg>
