<!-- Generated by IcoMoon.io -->
<svg version="1.1" xmlns="http://www.w3.org/2000/svg" width="16" height="16" viewBox="0 0 16 16">
<title>brand8</title>
<path fill="#a4c639" d="M14.77 6.16c0-0.544-0.44-0.986-0.986-0.986s-0.988 0.442-0.988 0.988v4.135c0 0.546 0.443 0.987 0.99 0.988 0.544 0 0.986-0.442 0.986-0.988v-4.137zM3.587 5.363l0.002 6.408c0 0.59 0.47 1.060 1.050 1.060h0.71v2.19c0 0.55 0.44 0.99 0.98 0.99s0.98-0.44 0.99-0.98v-2.19h1.33v2.19c0 0.55 0.44 0.99 0.98 0.99 0.55 0 0.99-0.44 0.99-0.99v-2.19h0.72c0.58 0 1.050-0.47 1.050-1.050v-6.431l-8.83 0.002zM10.027 3.407c-0.207 0-0.374-0.166-0.374-0.373 0-0.204 0.167-0.373 0.373-0.374 0.204 0 0.372 0.17 0.372 0.373 0 0.206-0.167 0.373-0.372 0.373zM5.976 3.406c-0.206 0-0.373-0.166-0.373-0.372s0.167-0.373 0.372-0.373c0.207 0 0.374 0.17 0.374 0.38s-0.17 0.38-0.38 0.38zM10.169 1.481l0.69-1.26c0.040-0.070 0.010-0.15-0.050-0.19-0.070-0.030-0.15-0.010-0.19 0.060l-0.7 1.27c-0.579-0.271-1.239-0.421-1.929-0.421s-1.346 0.143-1.93 0.402l-0.69-1.27c-0.036-0.065-0.12-0.090-0.186-0.053-0.067 0.030-0.090 0.12-0.054 0.18l0.69 1.25c-1.355 0.7-2.27 2.030-2.27 3.56h8.896c0-1.53-0.914-2.86-2.267-3.56zM2.21 5.17c-0.546 0-0.988 0.444-0.988 0.99v4.134c0 0.547 0.443 0.988 0.99 0.988 0.544 0 0.986-0.44 0.986-0.988v-4.132c0-0.545-0.442-0.987-0.987-0.987z"></path>
</svg>
