<!-- Generated by IcoMoon.io -->
<svg version="1.1" xmlns="http://www.w3.org/2000/svg" width="16" height="16" viewBox="0 0 16 16">
<title>brand160</title>
<path fill="#2b579a" d="M16 2.488v11.032c0 0.093-0.033 0.17-0.1 0.23-0.067 0.062-0.147 0.092-0.24 0.092h-5.706v-1.53h4.655v-0.697h-4.659v-0.853h4.655v-0.696h-4.652v-0.86h4.655v-0.688h-4.655v-0.862h4.655v-0.696h-4.655v-0.852h4.655v-0.696h-4.655v-0.87h4.655v-0.662h-4.655v-1.73h5.708c0.1 0 0.18 0.032 0.24 0.1 0.070 0.066 0.1 0.146 0.1 0.238zM9.1 0.426v15.148l-9.1-1.574v-11.956l9.1-1.62zM7.727 4.898l-1.14 0.070-0.73 4.524h-0.017c-0.036-0.214-0.17-0.963-0.41-2.245l-0.426-2.175-1.070 0.053-0.427 2.122c-0.25 1.236-0.39 1.955-0.426 2.158h-0.010l-0.65-4.167-0.98 0.052 1.050 5.255 1.090 0.070 0.41-2.045c0.24-1.2 0.38-1.897 0.41-2.088h0.030c0.040 0.203 0.17 0.916 0.41 2.14l0.41 2.106 1.18 0.070 1.32-5.9z"></path>
</svg>
