<!-- Generated by IcoMoon.io -->
<svg version="1.1" xmlns="http://www.w3.org/2000/svg" width="16" height="16" viewBox="0 0 16 16">
<title>brand220</title>
<path fill="#258aaf" d="M1.647 7.022l1.18 1.125 3.732 3.427 1.6-1.527c0.14-0.198 0.13-0.47-0.030-0.657l-1.469-1.268 0.006-0.003-1.58-1.51c-0.186-0.21-0.18-0.52 0.014-0.72l4.26-4.050-1.93-1.839-5.78 5.492c-0.443 0.422-0.443 1.107 0 1.53zM14.352 8.98l-1.18-1.128-3.73-3.427-1.608 1.527c-0.147 0.2-0.137 0.47 0.030 0.657l1.47 1.26h-0.004l1.58 1.51c0.18 0.21 0.18 0.51-0.020 0.71l-4.26 4.050 1.94 1.861 5.78-5.492c0.443-0.422 0.444-1.106 0-1.53z"></path>
</svg>
