<!-- Generated by IcoMoon.io -->
<svg version="1.1" xmlns="http://www.w3.org/2000/svg" width="16" height="16" viewBox="0 0 16 16">
<title>brand219</title>
<path fill="#e6162d" d="M6.72 13.532c-2.647 0.26-4.934-0.936-5.106-2.675-0.172-1.737 1.836-3.36 4.486-3.622 2.648-0.262 4.934 0.935 5.106 2.674 0.172 1.73-1.836 3.36-4.485 3.62zM6.023 11.466c-0.256 0.41-0.804 0.588-1.218 0.4-0.407-0.186-0.527-0.66-0.27-1.060 0.252-0.396 0.783-0.573 1.193-0.4 0.415 0.175 0.547 0.647 0.295 1.060zM6.868 10.383c-0.093 0.158-0.298 0.234-0.458 0.168-0.158-0.060-0.208-0.24-0.118-0.39 0.092-0.15 0.29-0.23 0.447-0.16 0.16 0.060 0.21 0.24 0.12 0.4zM6.986 8.573c-1.26-0.328-2.685 0.3-3.233 1.41-0.557 1.134-0.018 2.39 1.255 2.802 1.32 0.426 2.874-0.226 3.415-1.45 0.533-1.194-0.133-2.425-1.437-2.762zM12.019 7.759c-0.23-0.070-0.38-0.12-0.27-0.41 0.25-0.65 0.28-1.2 0-1.6-0.52-0.74-1.94-0.7-3.57-0.020 0 0-0.51 0.22-0.38-0.18 0.25-0.81 0.21-1.48-0.18-1.87-0.89-0.89-3.24 0.030-5.25 2.050-1.499 1.511-2.369 3.111-2.369 4.491 0 2.65 3.393 4.257 6.713 4.257 4.35 0 7.246-2.53 7.246-4.54 0-1.213-1.030-1.9-1.94-2.186zM13.289 4.369c-0.51-0.57-1.27-0.79-1.97-0.64-0.29 0.060-0.47 0.34-0.41 0.62s0.34 0.46 0.62 0.4c0.34-0.070 0.71 0.030 0.96 0.31s0.31 0.65 0.21 0.98c-0.090 0.27 0.060 0.57 0.34 0.66 0.27 0.080 0.57-0.070 0.66-0.34 0.22-0.68 0.080-1.45-0.43-2.020zM14.899 2.909c-1.050-1.17-2.6-1.61-4.030-1.31-0.33 0.070-0.54 0.39-0.47 0.72s0.39 0.54 0.72 0.47c1.020-0.22 2.12 0.1 2.86 0.92 0.74 0.83 0.95 1.96 0.63 2.94-0.11 0.32 0.070 0.67 0.39 0.77 0.32 0.11 0.66-0.070 0.77-0.39 0.45-1.39 0.16-2.98-0.89-4.15z"></path>
</svg>
