<!-- Generated by IcoMoon.io -->
<svg version="1.1" xmlns="http://www.w3.org/2000/svg" width="14" height="14" viewBox="0 0 14 14">
<title>briefcase</title>
<path d="M5 2h4v-1h-4v1zM14 7v3.75c0 0.688-0.563 1.25-1.25 1.25h-11.5c-0.688 0-1.25-0.563-1.25-1.25v-3.75h5.25v1.25c0 0.273 0.227 0.5 0.5 0.5h2.5c0.273 0 0.5-0.227 0.5-0.5v-1.25h5.25zM8 7v1h-2v-1h2zM14 3.25v3h-14v-3c0-0.688 0.563-1.25 1.25-1.25h2.75v-1.25c0-0.414 0.336-0.75 0.75-0.75h4.5c0.414 0 0.75 0.336 0.75 0.75v1.25h2.75c0.688 0 1.25 0.563 1.25 1.25z"></path>
</svg>
