<!-- Generated by IcoMoon.io -->
<svg version="1.1" xmlns="http://www.w3.org/2000/svg" width="13" height="14" viewBox="0 0 13 14">
<title>bug</title>
<path d="M12.75 7.5c0 0.273-0.227 0.5-0.5 0.5h-1.75c0 0.977-0.211 1.711-0.523 2.266l1.625 1.633c0.195 0.195 0.195 0.508 0 0.703-0.094 0.102-0.227 0.148-0.352 0.148s-0.258-0.047-0.352-0.148l-1.547-1.539s-1.023 0.937-2.352 0.937v-7h-1v7c-1.414 0-2.445-1.031-2.445-1.031l-1.43 1.617c-0.102 0.109-0.234 0.164-0.375 0.164-0.117 0-0.234-0.039-0.336-0.125-0.203-0.187-0.219-0.5-0.039-0.711l1.578-1.773c-0.273-0.539-0.453-1.234-0.453-2.141h-1.75c-0.273 0-0.5-0.227-0.5-0.5s0.227-0.5 0.5-0.5h1.75v-2.297l-1.352-1.352c-0.195-0.195-0.195-0.508 0-0.703s0.508-0.195 0.703 0l1.352 1.352h6.594l1.352-1.352c0.195-0.195 0.508-0.195 0.703 0s0.195 0.508 0 0.703l-1.352 1.352v2.297h1.75c0.273 0 0.5 0.227 0.5 0.5zM9 3h-5c0-1.383 1.117-2.5 2.5-2.5s2.5 1.117 2.5 2.5z"></path>
</svg>
