<!-- Generated by IcoMoon.io -->
<svg version="1.1" xmlns="http://www.w3.org/2000/svg" width="11" height="14" viewBox="0 0 11 14">
<title>building-o</title>
<path d="M3 10.25v0.5c0 0.133-0.117 0.25-0.25 0.25h-0.5c-0.133 0-0.25-0.117-0.25-0.25v-0.5c0-0.133 0.117-0.25 0.25-0.25h0.5c0.133 0 0.25 0.117 0.25 0.25zM3 8.25v0.5c0 0.133-0.117 0.25-0.25 0.25h-0.5c-0.133 0-0.25-0.117-0.25-0.25v-0.5c0-0.133 0.117-0.25 0.25-0.25h0.5c0.133 0 0.25 0.117 0.25 0.25zM5 8.25v0.5c0 0.133-0.117 0.25-0.25 0.25h-0.5c-0.133 0-0.25-0.117-0.25-0.25v-0.5c0-0.133 0.117-0.25 0.25-0.25h0.5c0.133 0 0.25 0.117 0.25 0.25zM3 6.25v0.5c0 0.133-0.117 0.25-0.25 0.25h-0.5c-0.133 0-0.25-0.117-0.25-0.25v-0.5c0-0.133 0.117-0.25 0.25-0.25h0.5c0.133 0 0.25 0.117 0.25 0.25zM9 10.25v0.5c0 0.133-0.117 0.25-0.25 0.25h-0.5c-0.133 0-0.25-0.117-0.25-0.25v-0.5c0-0.133 0.117-0.25 0.25-0.25h0.5c0.133 0 0.25 0.117 0.25 0.25zM7 8.25v0.5c0 0.133-0.117 0.25-0.25 0.25h-0.5c-0.133 0-0.25-0.117-0.25-0.25v-0.5c0-0.133 0.117-0.25 0.25-0.25h0.5c0.133 0 0.25 0.117 0.25 0.25zM5 6.25v0.5c0 0.133-0.117 0.25-0.25 0.25h-0.5c-0.133 0-0.25-0.117-0.25-0.25v-0.5c0-0.133 0.117-0.25 0.25-0.25h0.5c0.133 0 0.25 0.117 0.25 0.25zM3 4.25v0.5c0 0.133-0.117 0.25-0.25 0.25h-0.5c-0.133 0-0.25-0.117-0.25-0.25v-0.5c0-0.133 0.117-0.25 0.25-0.25h0.5c0.133 0 0.25 0.117 0.25 0.25zM9 8.25v0.5c0 0.133-0.117 0.25-0.25 0.25h-0.5c-0.133 0-0.25-0.117-0.25-0.25v-0.5c0-0.133 0.117-0.25 0.25-0.25h0.5c0.133 0 0.25 0.117 0.25 0.25zM7 6.25v0.5c0 0.133-0.117 0.25-0.25 0.25h-0.5c-0.133 0-0.25-0.117-0.25-0.25v-0.5c0-0.133 0.117-0.25 0.25-0.25h0.5c0.133 0 0.25 0.117 0.25 0.25zM5 4.25v0.5c0 0.133-0.117 0.25-0.25 0.25h-0.5c-0.133 0-0.25-0.117-0.25-0.25v-0.5c0-0.133 0.117-0.25 0.25-0.25h0.5c0.133 0 0.25 0.117 0.25 0.25zM3 2.25v0.5c0 0.133-0.117 0.25-0.25 0.25h-0.5c-0.133 0-0.25-0.117-0.25-0.25v-0.5c0-0.133 0.117-0.25 0.25-0.25h0.5c0.133 0 0.25 0.117 0.25 0.25zM9 6.25v0.5c0 0.133-0.117 0.25-0.25 0.25h-0.5c-0.133 0-0.25-0.117-0.25-0.25v-0.5c0-0.133 0.117-0.25 0.25-0.25h0.5c0.133 0 0.25 0.117 0.25 0.25zM7 4.25v0.5c0 0.133-0.117 0.25-0.25 0.25h-0.5c-0.133 0-0.25-0.117-0.25-0.25v-0.5c0-0.133 0.117-0.25 0.25-0.25h0.5c0.133 0 0.25 0.117 0.25 0.25zM5 2.25v0.5c0 0.133-0.117 0.25-0.25 0.25h-0.5c-0.133 0-0.25-0.117-0.25-0.25v-0.5c0-0.133 0.117-0.25 0.25-0.25h0.5c0.133 0 0.25 0.117 0.25 0.25zM9 4.25v0.5c0 0.133-0.117 0.25-0.25 0.25h-0.5c-0.133 0-0.25-0.117-0.25-0.25v-0.5c0-0.133 0.117-0.25 0.25-0.25h0.5c0.133 0 0.25 0.117 0.25 0.25zM7 2.25v0.5c0 0.133-0.117 0.25-0.25 0.25h-0.5c-0.133 0-0.25-0.117-0.25-0.25v-0.5c0-0.133 0.117-0.25 0.25-0.25h0.5c0.133 0 0.25 0.117 0.25 0.25zM9 2.25v0.5c0 0.133-0.117 0.25-0.25 0.25h-0.5c-0.133 0-0.25-0.117-0.25-0.25v-0.5c0-0.133 0.117-0.25 0.25-0.25h0.5c0.133 0 0.25 0.117 0.25 0.25zM7 13h3v-12h-9v12h3v-1.75c0-0.133 0.117-0.25 0.25-0.25h2.5c0.133 0 0.25 0.117 0.25 0.25v1.75zM11 0.5v13c0 0.273-0.227 0.5-0.5 0.5h-10c-0.273 0-0.5-0.227-0.5-0.5v-13c0-0.273 0.227-0.5 0.5-0.5h10c0.273 0 0.5 0.227 0.5 0.5z"></path>
</svg>
