<!-- Generated by IcoMoon.io -->
<svg version="1.1" xmlns="http://www.w3.org/2000/svg" width="11" height="14" viewBox="0 0 11 14">
<title>building</title>
<path d="M10.5 0c0.273 0 0.5 0.227 0.5 0.5v13c0 0.273-0.227 0.5-0.5 0.5h-10c-0.273 0-0.5-0.227-0.5-0.5v-13c0-0.273 0.227-0.5 0.5-0.5h10zM4 2.25v0.5c0 0.141 0.109 0.25 0.25 0.25h0.5c0.141 0 0.25-0.109 0.25-0.25v-0.5c0-0.141-0.109-0.25-0.25-0.25h-0.5c-0.141 0-0.25 0.109-0.25 0.25zM4 4.25v0.5c0 0.141 0.109 0.25 0.25 0.25h0.5c0.141 0 0.25-0.109 0.25-0.25v-0.5c0-0.141-0.109-0.25-0.25-0.25h-0.5c-0.141 0-0.25 0.109-0.25 0.25zM4 6.25v0.5c0 0.141 0.109 0.25 0.25 0.25h0.5c0.141 0 0.25-0.109 0.25-0.25v-0.5c0-0.141-0.109-0.25-0.25-0.25h-0.5c-0.141 0-0.25 0.109-0.25 0.25zM4 8.25v0.5c0 0.141 0.109 0.25 0.25 0.25h0.5c0.141 0 0.25-0.109 0.25-0.25v-0.5c0-0.141-0.109-0.25-0.25-0.25h-0.5c-0.141 0-0.25 0.109-0.25 0.25zM3 10.75v-0.5c0-0.141-0.109-0.25-0.25-0.25h-0.5c-0.141 0-0.25 0.109-0.25 0.25v0.5c0 0.141 0.109 0.25 0.25 0.25h0.5c0.141 0 0.25-0.109 0.25-0.25zM3 8.75v-0.5c0-0.141-0.109-0.25-0.25-0.25h-0.5c-0.141 0-0.25 0.109-0.25 0.25v0.5c0 0.141 0.109 0.25 0.25 0.25h0.5c0.141 0 0.25-0.109 0.25-0.25zM3 6.75v-0.5c0-0.141-0.109-0.25-0.25-0.25h-0.5c-0.141 0-0.25 0.109-0.25 0.25v0.5c0 0.141 0.109 0.25 0.25 0.25h0.5c0.141 0 0.25-0.109 0.25-0.25zM3 4.75v-0.5c0-0.141-0.109-0.25-0.25-0.25h-0.5c-0.141 0-0.25 0.109-0.25 0.25v0.5c0 0.141 0.109 0.25 0.25 0.25h0.5c0.141 0 0.25-0.109 0.25-0.25zM3 2.75v-0.5c0-0.141-0.109-0.25-0.25-0.25h-0.5c-0.141 0-0.25 0.109-0.25 0.25v0.5c0 0.141 0.109 0.25 0.25 0.25h0.5c0.141 0 0.25-0.109 0.25-0.25zM7 12.75v-1.5c0-0.141-0.109-0.25-0.25-0.25h-2.5c-0.141 0-0.25 0.109-0.25 0.25v1.5c0 0.141 0.109 0.25 0.25 0.25h2.5c0.141 0 0.25-0.109 0.25-0.25zM7 8.75v-0.5c0-0.141-0.109-0.25-0.25-0.25h-0.5c-0.141 0-0.25 0.109-0.25 0.25v0.5c0 0.141 0.109 0.25 0.25 0.25h0.5c0.141 0 0.25-0.109 0.25-0.25zM7 6.75v-0.5c0-0.141-0.109-0.25-0.25-0.25h-0.5c-0.141 0-0.25 0.109-0.25 0.25v0.5c0 0.141 0.109 0.25 0.25 0.25h0.5c0.141 0 0.25-0.109 0.25-0.25zM7 4.75v-0.5c0-0.141-0.109-0.25-0.25-0.25h-0.5c-0.141 0-0.25 0.109-0.25 0.25v0.5c0 0.141 0.109 0.25 0.25 0.25h0.5c0.141 0 0.25-0.109 0.25-0.25zM7 2.75v-0.5c0-0.141-0.109-0.25-0.25-0.25h-0.5c-0.141 0-0.25 0.109-0.25 0.25v0.5c0 0.141 0.109 0.25 0.25 0.25h0.5c0.141 0 0.25-0.109 0.25-0.25zM9 10.75v-0.5c0-0.141-0.109-0.25-0.25-0.25h-0.5c-0.141 0-0.25 0.109-0.25 0.25v0.5c0 0.141 0.109 0.25 0.25 0.25h0.5c0.141 0 0.25-0.109 0.25-0.25zM9 8.75v-0.5c0-0.141-0.109-0.25-0.25-0.25h-0.5c-0.141 0-0.25 0.109-0.25 0.25v0.5c0 0.141 0.109 0.25 0.25 0.25h0.5c0.141 0 0.25-0.109 0.25-0.25zM9 6.75v-0.5c0-0.141-0.109-0.25-0.25-0.25h-0.5c-0.141 0-0.25 0.109-0.25 0.25v0.5c0 0.141 0.109 0.25 0.25 0.25h0.5c0.141 0 0.25-0.109 0.25-0.25zM9 4.75v-0.5c0-0.141-0.109-0.25-0.25-0.25h-0.5c-0.141 0-0.25 0.109-0.25 0.25v0.5c0 0.141 0.109 0.25 0.25 0.25h0.5c0.141 0 0.25-0.109 0.25-0.25zM9 2.75v-0.5c0-0.141-0.109-0.25-0.25-0.25h-0.5c-0.141 0-0.25 0.109-0.25 0.25v0.5c0 0.141 0.109 0.25 0.25 0.25h0.5c0.141 0 0.25-0.109 0.25-0.25z"></path>
</svg>
