<!-- Generated by IcoMoon.io -->
<svg version="1.1" xmlns="http://www.w3.org/2000/svg" width="14" height="14" viewBox="0 0 14 14">
<title>bullhorn</title>
<path d="M13 5c0.555 0 1 0.445 1 1s-0.445 1-1 1v3c0 0.547-0.453 1-1 1-1.391-1.156-3.633-2.742-6.344-2.969-0.93 0.312-1.25 1.398-0.641 2.023-0.547 0.898 0.156 1.531 0.984 2.18-0.484 0.953-2.5 0.969-3.219 0.305-0.453-1.391-1.125-2.781-0.578-4.539h-0.953c-0.688 0-1.25-0.563-1.25-1.25v-1.5c0-0.688 0.563-1.25 1.25-1.25h3.75c3 0 5.5-1.75 7-3 0.547 0 1 0.453 1 1v3zM12 9.719v-7.453c-2.039 1.563-4.016 2.461-6 2.68v2.109c1.984 0.219 3.961 1.102 6 2.664z"></path>
</svg>
