<!-- Generated by IcoMoon.io -->
<svg version="1.1" xmlns="http://www.w3.org/2000/svg" width="12" height="14" viewBox="0 0 12 14">
<title>bus</title>
<path d="M3 9.5c0-0.555-0.445-1-1-1s-1 0.445-1 1 0.445 1 1 1 1-0.445 1-1zM11 9.5c0-0.555-0.445-1-1-1s-1 0.445-1 1 0.445 1 1 1 1-0.445 1-1zM10.641 6.406l-0.563-3c-0.047-0.234-0.25-0.406-0.492-0.406h-7.172c-0.242 0-0.445 0.172-0.492 0.406l-0.563 3c-0.055 0.312 0.18 0.594 0.492 0.594h8.297c0.312 0 0.547-0.281 0.492-0.594zM8.875 1.625c0-0.211-0.164-0.375-0.375-0.375h-5c-0.203 0-0.375 0.164-0.375 0.375s0.172 0.375 0.375 0.375h5c0.211 0 0.375-0.164 0.375-0.375zM12 7.289v4.711h-1v1c0 0.555-0.445 1-1 1s-1-0.445-1-1v-1h-6v1c0 0.555-0.445 1-1 1s-1-0.445-1-1v-1h-1v-4.711c0-0.641 0.055-1.117 0.195-1.742l0.805-3.547c0.148-1.25 2.336-2 5-2s4.852 0.75 5 2l0.82 3.547c0.141 0.625 0.18 1.102 0.18 1.742z"></path>
</svg>
