<!-- Generated by IcoMoon.io -->
<svg version="1.1" xmlns="http://www.w3.org/2000/svg" width="13" height="14" viewBox="0 0 13 14">
<title>calculator</title>
<path d="M3 12c0-0.555-0.445-1-1-1s-1 0.445-1 1 0.445 1 1 1 1-0.445 1-1zM6 12c0-0.555-0.445-1-1-1s-1 0.445-1 1 0.445 1 1 1 1-0.445 1-1zM3 9c0-0.555-0.445-1-1-1s-1 0.445-1 1 0.445 1 1 1 1-0.445 1-1zM9 12c0-0.555-0.445-1-1-1s-1 0.445-1 1 0.445 1 1 1 1-0.445 1-1zM6 9c0-0.555-0.445-1-1-1s-1 0.445-1 1 0.445 1 1 1 1-0.445 1-1zM3 6c0-0.555-0.445-1-1-1s-1 0.445-1 1 0.445 1 1 1 1-0.445 1-1zM9 9c0-0.555-0.445-1-1-1s-1 0.445-1 1 0.445 1 1 1 1-0.445 1-1zM6 6c0-0.555-0.445-1-1-1s-1 0.445-1 1 0.445 1 1 1 1-0.445 1-1zM12 12v-3c0-0.547-0.453-1-1-1v0c-0.547 0-1 0.453-1 1v3c0 0.547 0.453 1 1 1v0c0.547 0 1-0.453 1-1zM9 6c0-0.555-0.445-1-1-1s-1 0.445-1 1 0.445 1 1 1 1-0.445 1-1zM12 3.5v-2c0-0.273-0.227-0.5-0.5-0.5h-10c-0.273 0-0.5 0.227-0.5 0.5v2c0 0.273 0.227 0.5 0.5 0.5h10c0.273 0 0.5-0.227 0.5-0.5zM12 6c0-0.555-0.445-1-1-1s-1 0.445-1 1 0.445 1 1 1 1-0.445 1-1zM13 1v12c0 0.547-0.453 1-1 1h-11c-0.547 0-1-0.453-1-1v-12c0-0.547 0.453-1 1-1h11c0.547 0 1 0.453 1 1z"></path>
</svg>
