<!-- Generated by IcoMoon.io -->
<svg version="1.1" xmlns="http://www.w3.org/2000/svg" width="13" height="14" viewBox="0 0 13 14">
<title>calendar-plus-o</title>
<path d="M12 2c0.547 0 1 0.453 1 1v10c0 0.547-0.453 1-1 1h-11c-0.547 0-1-0.453-1-1v-10c0-0.547 0.453-1 1-1h1v-0.75c0-0.688 0.563-1.25 1.25-1.25h0.5c0.688 0 1.25 0.563 1.25 1.25v0.75h3v-0.75c0-0.688 0.563-1.25 1.25-1.25h0.5c0.688 0 1.25 0.563 1.25 1.25v0.75h1zM9 1.25v2.25c0 0.141 0.109 0.25 0.25 0.25h0.5c0.141 0 0.25-0.109 0.25-0.25v-2.25c0-0.141-0.109-0.25-0.25-0.25h-0.5c-0.141 0-0.25 0.109-0.25 0.25zM3 1.25v2.25c0 0.141 0.109 0.25 0.25 0.25h0.5c0.141 0 0.25-0.109 0.25-0.25v-2.25c0-0.141-0.109-0.25-0.25-0.25h-0.5c-0.141 0-0.25 0.109-0.25 0.25zM12 13v-8h-11v8h11zM7 8.5h1.75c0.141 0 0.25 0.109 0.25 0.25v0.5c0 0.141-0.109 0.25-0.25 0.25h-1.75v1.75c0 0.141-0.109 0.25-0.25 0.25h-0.5c-0.141 0-0.25-0.109-0.25-0.25v-1.75h-1.75c-0.141 0-0.25-0.109-0.25-0.25v-0.5c0-0.141 0.109-0.25 0.25-0.25h1.75v-1.75c0-0.141 0.109-0.25 0.25-0.25h0.5c0.141 0 0.25 0.109 0.25 0.25v1.75z"></path>
</svg>
