<!-- Generated by IcoMoon.io -->
<svg version="1.1" xmlns="http://www.w3.org/2000/svg" width="13" height="14" viewBox="0 0 13 14">
<title>calendar</title>
<path d="M1 13h2.25v-2.25h-2.25v2.25zM3.75 13h2.5v-2.25h-2.5v2.25zM1 10.25h2.25v-2.5h-2.25v2.5zM3.75 10.25h2.5v-2.5h-2.5v2.5zM1 7.25h2.25v-2.25h-2.25v2.25zM6.75 13h2.5v-2.25h-2.5v2.25zM3.75 7.25h2.5v-2.25h-2.5v2.25zM9.75 13h2.25v-2.25h-2.25v2.25zM6.75 10.25h2.5v-2.5h-2.5v2.5zM4 3.5v-2.25c0-0.133-0.117-0.25-0.25-0.25h-0.5c-0.133 0-0.25 0.117-0.25 0.25v2.25c0 0.133 0.117 0.25 0.25 0.25h0.5c0.133 0 0.25-0.117 0.25-0.25zM9.75 10.25h2.25v-2.5h-2.25v2.5zM6.75 7.25h2.5v-2.25h-2.5v2.25zM9.75 7.25h2.25v-2.25h-2.25v2.25zM10 3.5v-2.25c0-0.133-0.117-0.25-0.25-0.25h-0.5c-0.133 0-0.25 0.117-0.25 0.25v2.25c0 0.133 0.117 0.25 0.25 0.25h0.5c0.133 0 0.25-0.117 0.25-0.25zM13 3v10c0 0.547-0.453 1-1 1h-11c-0.547 0-1-0.453-1-1v-10c0-0.547 0.453-1 1-1h1v-0.75c0-0.688 0.563-1.25 1.25-1.25h0.5c0.688 0 1.25 0.563 1.25 1.25v0.75h3v-0.75c0-0.688 0.563-1.25 1.25-1.25h0.5c0.688 0 1.25 0.563 1.25 1.25v0.75h1c0.547 0 1 0.453 1 1z"></path>
</svg>
