<!-- Generated by IcoMoon.io -->
<svg version="1.1" xmlns="http://www.w3.org/2000/svg" width="14" height="14" viewBox="0 0 14 14">
<title>camera-retro</title>
<path d="M7.25 6.5c0-0.141-0.109-0.25-0.25-0.25-0.688 0-1.25 0.563-1.25 1.25 0 0.141 0.109 0.25 0.25 0.25s0.25-0.109 0.25-0.25c0-0.414 0.336-0.75 0.75-0.75 0.141 0 0.25-0.109 0.25-0.25zM9 7.516c0 1.102-0.898 2-2 2s-2-0.898-2-2 0.898-2 2-2 2 0.898 2 2zM1 12h12v-1h-12v1zM10 7.516c0-1.656-1.344-3-3-3s-3 1.344-3 3 1.344 3 3 3 3-1.344 3-3zM2 2.5h3v-1h-3v1zM1 4h12v-2h-6.469l-0.5 1h-5.031v1zM14 2v10c0 0.555-0.445 1-1 1h-12c-0.555 0-1-0.445-1-1v-10c0-0.555 0.445-1 1-1h12c0.555 0 1 0.445 1 1z"></path>
</svg>
