<!-- Generated by IcoMoon.io -->
<svg version="1.1" xmlns="http://www.w3.org/2000/svg" width="15" height="14" viewBox="0 0 15 14">
<title>camera</title>
<path d="M7.5 5.25c1.242 0 2.25 1.008 2.25 2.25s-1.008 2.25-2.25 2.25-2.25-1.008-2.25-2.25 1.008-2.25 2.25-2.25zM13 2c1.102 0 2 0.898 2 2v7c0 1.102-0.898 2-2 2h-11c-1.102 0-2-0.898-2-2v-7c0-1.102 0.898-2 2-2h1.75l0.398-1.062c0.195-0.516 0.805-0.937 1.352-0.937h4c0.547 0 1.156 0.422 1.352 0.937l0.398 1.062h1.75zM7.5 11c1.93 0 3.5-1.57 3.5-3.5s-1.57-3.5-3.5-3.5-3.5 1.57-3.5 3.5 1.57 3.5 3.5 3.5z"></path>
</svg>
