<!-- Generated by IcoMoon.io -->
<svg version="1.1" xmlns="http://www.w3.org/2000/svg" width="12" height="14" viewBox="0 0 12 14">
<title>caret-square-o-right</title>
<path d="M8.5 7c0 0.164-0.078 0.312-0.211 0.406l-3.5 2.5c-0.148 0.109-0.352 0.125-0.516 0.039-0.172-0.086-0.273-0.258-0.273-0.445v-5c0-0.187 0.102-0.359 0.273-0.445 0.164-0.086 0.367-0.070 0.516 0.039l3.5 2.5c0.133 0.094 0.211 0.242 0.211 0.406zM10 10.75v-7.5c0-0.141-0.109-0.25-0.25-0.25h-7.5c-0.141 0-0.25 0.109-0.25 0.25v7.5c0 0.141 0.109 0.25 0.25 0.25h7.5c0.141 0 0.25-0.109 0.25-0.25zM12 3.25v7.5c0 1.242-1.008 2.25-2.25 2.25h-7.5c-1.242 0-2.25-1.008-2.25-2.25v-7.5c0-1.242 1.008-2.25 2.25-2.25h7.5c1.242 0 2.25 1.008 2.25 2.25z"></path>
</svg>
