<!-- Generated by IcoMoon.io -->
<svg version="1.1" xmlns="http://www.w3.org/2000/svg" width="12" height="14" viewBox="0 0 12 14">
<title>caret-square-o-left</title>
<path d="M8 4.5v5c0 0.273-0.227 0.5-0.5 0.5-0.102 0-0.203-0.031-0.289-0.094l-3.5-2.5c-0.133-0.094-0.211-0.242-0.211-0.406 0-0.156 0.078-0.312 0.211-0.406l3.5-2.5c0.086-0.062 0.187-0.094 0.289-0.094 0.273 0 0.5 0.227 0.5 0.5zM10 10.75v-7.5c0-0.133-0.117-0.25-0.25-0.25h-7.5c-0.133 0-0.25 0.117-0.25 0.25v7.5c0 0.133 0.117 0.25 0.25 0.25h7.5c0.133 0 0.25-0.117 0.25-0.25zM12 3.25v7.5c0 1.242-1.008 2.25-2.25 2.25h-7.5c-1.242 0-2.25-1.008-2.25-2.25v-7.5c0-1.242 1.008-2.25 2.25-2.25h7.5c1.242 0 2.25 1.008 2.25 2.25z"></path>
</svg>
