<!-- Generated by IcoMoon.io -->
<svg version="1.1" xmlns="http://www.w3.org/2000/svg" width="18" height="14" viewBox="0 0 18 14">
<title>cc-amex</title>
<path d="M0.93 5.328h0.695l-0.352-0.844zM5.781 9.438l0.578-0.617-0.547-0.617h-1.273v0.383h1.109v0.43h-1.109v0.422h1.242zM7.016 8.828l0.773 0.859v-1.695zM9.266 8.461c0-0.187-0.141-0.258-0.312-0.258h-0.656v0.539h0.648c0.18 0 0.32-0.086 0.32-0.281zM11.523 8.43c0-0.195-0.172-0.227-0.328-0.227h-0.641v0.477h0.633c0.172 0 0.336-0.039 0.336-0.25zM9.352 4.789c0-0.195-0.172-0.227-0.328-0.227h-0.641v0.469h0.633c0.172 0 0.336-0.039 0.336-0.242zM12.938 5.328h0.695l-0.344-0.844zM5.461 4.117v2.117h-0.516v-1.656l-0.734 1.656h-0.445l-0.734-1.656v1.656h-1.031l-0.195-0.469h-1.055l-0.195 0.469h-0.547l0.906-2.117h0.75l0.859 2.008v-2.008h0.828l0.664 1.438 0.602-1.438h0.844zM9.805 8.461c0 0.852-0.93 0.711-1.508 0.711v0.711h-0.984l-0.625-0.703-0.648 0.703h-2v-2.117h2.031l0.625 0.695 0.641-0.695h1.617c0.477 0 0.852 0.164 0.852 0.695zM7.531 5.797v0.438h-1.695v-2.117h1.695v0.445h-1.187v0.383h1.156v0.43h-1.156v0.422h1.187zM18 10.164v1.789c0 0.57-0.461 1.047-1.031 1.047h-15.937c-0.57 0-1.031-0.477-1.031-1.047v-5.297h0.867l0.195-0.477h0.43l0.195 0.477h1.703v-0.359l0.148 0.359h0.883l0.156-0.367v0.367h4.227v-0.773l0.078-0.008c0.070 0 0.078 0.055 0.078 0.109v0.672h2.18v-0.18c0.508 0.266 1.203 0.18 1.734 0.18l0.195-0.477h0.438l0.195 0.477h1.773v-0.453l0.266 0.453h1.422v-2.953h-1.406v0.344l-0.195-0.344h-1.445v0.344l-0.18-0.344h-1.945c-0.289 0-0.594 0.031-0.852 0.172v-0.172h-1.344v0.172c-0.156-0.141-0.367-0.172-0.57-0.172h-4.906l-0.336 0.758-0.336-0.758h-1.547v0.344l-0.172-0.344h-1.32l-0.609 1.398v-3.055c0-0.57 0.461-1.047 1.031-1.047h15.937c0.57 0 1.031 0.477 1.031 1.047v5.297h-0.937c-0.219 0-0.453 0.039-0.633 0.172v-0.172h-1.383c-0.195 0-0.461 0.031-0.609 0.172v-0.172h-2.469v0.172c-0.187-0.133-0.461-0.172-0.68-0.172h-1.633v0.172c-0.164-0.156-0.5-0.172-0.711-0.172h-1.828l-0.422 0.453-0.391-0.453h-2.727v2.953h2.68l0.43-0.461 0.406 0.461h1.648v-0.695h0.164c0.234 0 0.477-0.008 0.703-0.102v0.797h1.359v-0.773h0.062c0.078 0 0.094 0.008 0.094 0.094v0.68h4.133c0.227 0 0.508-0.047 0.688-0.187v0.187h1.313c0.25 0 0.516-0.023 0.742-0.133zM12.078 8.336c0 0.234-0.125 0.469-0.359 0.563 0.281 0.102 0.336 0.289 0.336 0.563v0.422h-0.508v-0.352c0-0.359-0.117-0.422-0.453-0.422h-0.539v0.773h-0.508v-2.117h1.203c0.398 0 0.828 0.070 0.828 0.57zM9.914 4.687c0 0.242-0.133 0.477-0.359 0.57 0.289 0.102 0.336 0.281 0.336 0.563v0.414h-0.508c-0.008-0.453 0.109-0.766-0.453-0.766h-0.547v0.766h-0.5v-2.117l1.195 0.008c0.406 0 0.836 0.062 0.836 0.563zM14.047 9.445v0.438h-1.688v-2.117h1.688v0.438h-1.18v0.383h1.156v0.43h-1.156v0.422zM10.719 4.117v2.117h-0.516v-2.117h0.516zM16.133 9.211c0 0.5-0.344 0.672-0.797 0.672h-0.984v-0.453h0.984c0.125 0 0.266-0.031 0.266-0.195 0-0.453-1.305 0.172-1.305-0.836 0-0.43 0.328-0.633 0.719-0.633h1.016v0.445h-0.93c-0.133 0-0.281 0.023-0.281 0.195 0 0.461 1.313-0.211 1.313 0.805zM18 8.82v0.789c-0.148 0.219-0.438 0.273-0.688 0.273h-0.977v-0.453h0.977c0.125 0 0.258-0.039 0.258-0.195 0-0.445-1.305 0.172-1.305-0.836 0-0.43 0.336-0.633 0.727-0.633h1.008v0.445h-0.922c-0.141 0-0.281 0.023-0.281 0.195 0 0.375 0.883-0.008 1.203 0.414zM16.711 4.125v2.109h-0.719l-0.953-1.586v1.586h-1.031l-0.203-0.469h-1.047l-0.195 0.469h-0.586c-0.695 0-1.008-0.359-1.008-1.039 0-0.711 0.32-1.078 1.039-1.078h0.492v0.461c-0.531-0.008-1.016-0.125-1.016 0.602 0 0.359 0.086 0.609 0.492 0.609h0.227l0.719-1.664h0.758l0.852 2v-2h0.773l0.891 1.469v-1.469h0.516z"></path>
</svg>
