<!-- Generated by IcoMoon.io -->
<svg version="1.1" xmlns="http://www.w3.org/2000/svg" width="18" height="14" viewBox="0 0 18 14">
<title>cc-discover</title>
<path d="M2.445 6.070c0 0.25-0.102 0.492-0.281 0.656-0.156 0.141-0.367 0.203-0.695 0.203h-0.133v-1.719h0.133c0.328 0 0.531 0.055 0.695 0.211 0.18 0.156 0.281 0.398 0.281 0.648zM16.32 5.562c0 0.266-0.172 0.406-0.5 0.406h-0.148v-0.789h0.156c0.32 0 0.492 0.133 0.492 0.383zM2.969 6.070c0-0.766-0.57-1.305-1.398-1.305h-0.742v2.602h0.742c0.391 0 0.68-0.086 0.93-0.297 0.297-0.25 0.469-0.617 0.469-1zM3.203 7.367h0.508v-2.602h-0.508v2.602zM5.703 6.578c0-0.414-0.172-0.602-0.75-0.813-0.305-0.109-0.391-0.187-0.391-0.328 0-0.164 0.156-0.289 0.375-0.289 0.156 0 0.281 0.062 0.414 0.211l0.266-0.344c-0.219-0.195-0.484-0.289-0.766-0.289-0.461 0-0.813 0.32-0.813 0.742 0 0.359 0.164 0.547 0.641 0.719 0.195 0.070 0.297 0.109 0.352 0.148 0.102 0.062 0.148 0.156 0.148 0.266 0 0.211-0.164 0.367-0.391 0.367-0.242 0-0.438-0.117-0.555-0.344l-0.328 0.312c0.234 0.344 0.516 0.5 0.898 0.5 0.531 0 0.898-0.352 0.898-0.859zM7.875 7.281v-0.602c-0.203 0.203-0.383 0.289-0.609 0.289-0.516 0-0.875-0.375-0.875-0.898 0-0.5 0.375-0.898 0.852-0.898 0.242 0 0.422 0.086 0.633 0.297v-0.602c-0.219-0.109-0.406-0.156-0.625-0.156-0.766 0-1.383 0.602-1.383 1.359 0 0.766 0.602 1.359 1.375 1.359 0.219 0 0.406-0.039 0.633-0.148zM17.5 12v-4.117c-1.25 0.781-5.648 3.281-12.758 4.617h12.258c0.273 0 0.5-0.227 0.5-0.5zM10.852 6.086c0-0.781-0.633-1.414-1.414-1.414s-1.414 0.633-1.414 1.414 0.633 1.414 1.414 1.414 1.414-0.633 1.414-1.414zM12.039 7.438l1.125-2.672h-0.555l-0.703 1.75-0.695-1.75h-0.555l1.109 2.672h0.273zM13.391 7.367h1.438v-0.438h-0.93v-0.703h0.898v-0.438h-0.898v-0.578h0.93v-0.445h-1.438v2.602zM16.445 7.367h0.625l-0.82-1.094c0.383-0.078 0.594-0.336 0.594-0.734 0-0.492-0.336-0.773-0.922-0.773h-0.758v2.602h0.508v-1.039h0.070zM18 2.047v9.906c0 0.578-0.461 1.047-1.031 1.047h-15.937c-0.57 0-1.031-0.469-1.031-1.047v-9.906c0-0.578 0.461-1.047 1.031-1.047h15.937c0.57 0 1.031 0.469 1.031 1.047z"></path>
</svg>
