<!-- Generated by IcoMoon.io -->
<svg version="1.1" xmlns="http://www.w3.org/2000/svg" width="18" height="14" viewBox="0 0 18 14">
<title>cc-diners-club</title>
<path d="M6.703 9.695v-5.414c-1.086 0.422-1.859 1.477-1.859 2.711s0.773 2.289 1.859 2.703zM10.641 6.992c0-1.234-0.773-2.289-1.859-2.711v5.422c1.086-0.422 1.859-1.477 1.859-2.711zM12.32 6.992c0 2.523-2.047 4.578-4.578 4.578-2.523 0-4.578-2.055-4.578-4.578 0-2.531 2.055-4.578 4.578-4.578 2.531 0 4.578 2.047 4.578 4.578zM15.313 7.047c0-2.984-2.492-5.047-5.227-5.047h-2.352c-2.766 0-5.047 2.062-5.047 5.047 0 2.727 2.281 4.953 5.047 4.953h2.352c2.734 0 5.227-2.227 5.227-4.953zM18 2v10c0 0.547-0.453 1-1 1h-16c-0.547 0-1-0.453-1-1v-10c0-0.547 0.453-1 1-1h16c0.547 0 1 0.453 1 1z"></path>
</svg>
