<!-- Generated by IcoMoon.io -->
<svg version="1.1" xmlns="http://www.w3.org/2000/svg" width="18" height="14" viewBox="0 0 18 14">
<title>cc-jcb</title>
<path d="M15.242 7.797c0 0.281-0.187 0.484-0.422 0.531-0.031 0.008-0.102 0.016-0.141 0.016h-1.195v-1.094h1.195c0.039 0 0.109 0.008 0.141 0.016 0.234 0.047 0.422 0.258 0.422 0.531zM15.102 6.133c0 0.273-0.187 0.453-0.414 0.492-0.023 0.008-0.078 0.008-0.117 0.008h-1.086v-1.008h1.086c0.039 0 0.094 0.008 0.117 0.008 0.227 0.039 0.414 0.227 0.414 0.5zM5.688 7.414v-2.406h-1.781v2.406c0 0.586-0.398 1.023-1.117 1.023-0.609 0-1.211-0.18-1.789-0.461v0.875c0.937 0.258 2.125 0.258 2.125 0.258 1.984 0 2.563-0.758 2.563-1.695zM11.266 8.852v-0.883c-0.406 0.211-0.922 0.414-1.563 0.461-1.125 0.086-1.797-0.461-1.797-1.43s0.672-1.516 1.797-1.43c0.641 0.047 1.148 0.242 1.563 0.453v-0.875c-0.836-0.211-1.625-0.242-1.625-0.242-2.75-0.125-3.531 0.961-3.531 2.094s0.781 2.219 3.531 2.094c0 0 0.789-0.031 1.625-0.242zM17 7.953c0-0.578-0.516-0.953-1.187-1v-0.023c0.609-0.086 0.945-0.484 0.945-0.945 0-0.594-0.492-0.937-1.156-0.969-0.047 0-0.133-0.008-0.203-0.008h-3.555v3.984h3.836c0.758 0 1.32-0.406 1.32-1.039zM18 2v10c0 0.547-0.453 1-1 1h-16c-0.547 0-1-0.453-1-1v-10c0-0.547 0.453-1 1-1h16c0.547 0 1 0.453 1 1z"></path>
</svg>
