<!-- Generated by IcoMoon.io -->
<svg version="1.1" xmlns="http://www.w3.org/2000/svg" width="18" height="14" viewBox="0 0 18 14">
<title>cc-mastercard</title>
<path d="M8.742 2.664c-0.648-0.43-1.414-0.664-2.195-0.664-2.195 0-3.977 1.781-3.977 3.969 0 2.195 1.781 3.977 3.977 3.977 0.781 0 1.547-0.234 2.195-0.664-2.094-1.703-2.078-4.914 0-6.617zM9 2.852c-2.016 1.586-2.023 4.664 0 6.242 2.023-1.578 2.016-4.656 0-6.242zM9.258 2.664c2.070 1.703 2.102 4.922 0 6.617 0.648 0.43 1.422 0.664 2.195 0.664 2.195 0 3.977-1.781 3.977-3.977 0-2.188-1.781-3.969-3.977-3.969-0.781 0-1.547 0.234-2.195 0.664zM15.047 8.305h0.055v-0.023h-0.133v0.023h0.055v0.133h0.023v-0.133zM15.273 8.438h0.031v-0.156h-0.039l-0.047 0.102-0.047-0.102h-0.039v0.156h0.023v-0.117l0.047 0.102h0.031l0.039-0.102v0.117zM15.211 11.875v0.016h-0.039v-0.023h0.039v0.008zM15.211 11.945h0.023l-0.031-0.039c0.016 0 0.016-0.008 0.023-0.008 0.008-0.008 0.008-0.016 0.008-0.023s0-0.016-0.008-0.023c-0.008 0-0.016-0.008-0.031-0.008h-0.047v0.102h0.023v-0.039h0.008zM5.352 11.414c0-0.187 0.117-0.336 0.32-0.336 0.187 0 0.312 0.148 0.312 0.336 0 0.195-0.125 0.336-0.312 0.336-0.203 0-0.32-0.148-0.32-0.336zM9.047 11.070c0.148 0 0.25 0.086 0.273 0.25h-0.547c0.023-0.148 0.117-0.25 0.273-0.25zM11.828 11.414c0-0.187 0.117-0.336 0.312-0.336s0.32 0.148 0.32 0.336c0 0.195-0.125 0.336-0.32 0.336s-0.312-0.148-0.312-0.336zM13.953 11.414c0-0.187 0.125-0.336 0.32-0.336 0.187 0 0.32 0.148 0.32 0.336 0 0.195-0.133 0.336-0.32 0.336-0.195 0-0.32-0.148-0.32-0.336zM15.187 11.977c-0.008 0-0.016 0-0.031-0.008-0.008 0-0.016-0.008-0.023-0.016s-0.016-0.016-0.016-0.023-0.008-0.023-0.008-0.031 0-0.023 0.008-0.031c0-0.016 0.008-0.023 0.016-0.031s0.016-0.008 0.023-0.016 0.023-0.008 0.031-0.008 0.023 0 0.031 0.008 0.023 0.008 0.031 0.016 0.008 0.016 0.016 0.031c0 0.008 0.008 0.016 0.008 0.031 0 0.008-0.008 0.016-0.008 0.031-0.008 0.008-0.008 0.016-0.016 0.023s-0.016 0.016-0.031 0.016c-0.008 0.008-0.016 0.008-0.031 0.008zM4.68 11.945h0.234v-0.664c0-0.25-0.164-0.414-0.422-0.422-0.133 0-0.273 0.039-0.367 0.187-0.070-0.117-0.187-0.187-0.352-0.187-0.109 0-0.219 0.039-0.305 0.156v-0.125h-0.234v1.055h0.234v-0.586c0-0.187 0.102-0.281 0.258-0.281s0.234 0.102 0.234 0.281v0.586h0.227v-0.586c0-0.187 0.109-0.281 0.258-0.281 0.156 0 0.234 0.102 0.234 0.281v0.586zM5.977 11.945h0.227v-1.055h-0.227v0.125c-0.078-0.094-0.187-0.156-0.336-0.156-0.297 0-0.523 0.234-0.523 0.555s0.227 0.555 0.523 0.555c0.148 0 0.258-0.055 0.336-0.156v0.133zM7.367 11.625c0-0.187-0.141-0.281-0.367-0.312l-0.109-0.016c-0.102-0.016-0.18-0.039-0.18-0.109s0.070-0.117 0.195-0.117c0.141 0 0.266 0.047 0.336 0.086l0.094-0.187c-0.109-0.070-0.258-0.109-0.43-0.109-0.266 0-0.438 0.133-0.438 0.344 0 0.172 0.125 0.273 0.367 0.305l0.102 0.016c0.133 0.023 0.187 0.055 0.187 0.109 0 0.086-0.086 0.133-0.242 0.133s-0.273-0.055-0.352-0.109l-0.102 0.18c0.125 0.086 0.281 0.133 0.453 0.133 0.305 0 0.484-0.141 0.484-0.344zM8.383 11.891l-0.062-0.195c-0.070 0.039-0.141 0.055-0.203 0.055-0.117 0-0.148-0.070-0.148-0.172v-0.477h0.375v-0.211h-0.375v-0.32h-0.234v0.32h-0.219v0.211h0.219v0.477c0 0.242 0.094 0.391 0.367 0.391 0.094 0 0.211-0.031 0.281-0.078zM9.055 10.859c-0.305 0-0.523 0.227-0.523 0.555 0 0.336 0.227 0.555 0.539 0.555 0.156 0 0.305-0.039 0.43-0.148l-0.109-0.172c-0.086 0.070-0.203 0.117-0.305 0.117-0.148 0-0.281-0.070-0.32-0.258h0.789v-0.094c0-0.328-0.203-0.555-0.5-0.555zM10.297 10.859c-0.133 0-0.219 0.062-0.273 0.156v-0.125h-0.234v1.055h0.234v-0.594c0-0.172 0.070-0.273 0.227-0.273 0.047 0 0.094 0.008 0.141 0.031l0.070-0.219c-0.055-0.023-0.117-0.031-0.164-0.031zM10.531 11.414c0 0.32 0.219 0.555 0.563 0.555 0.156 0 0.266-0.031 0.375-0.125l-0.109-0.187c-0.086 0.062-0.172 0.102-0.273 0.094-0.187 0-0.32-0.133-0.32-0.336s0.133-0.336 0.32-0.336c0.102 0 0.187 0.031 0.273 0.094l0.109-0.187c-0.109-0.086-0.219-0.125-0.375-0.125-0.344 0-0.563 0.234-0.563 0.555zM12.445 11.945h0.234v-1.055h-0.234v0.125c-0.070-0.094-0.18-0.156-0.328-0.156-0.297 0-0.531 0.234-0.531 0.555s0.234 0.555 0.531 0.555c0.148 0 0.258-0.055 0.328-0.156v0.133zM13.484 10.859c-0.133 0-0.219 0.062-0.273 0.156v-0.125h-0.227v1.055h0.227v-0.594c0-0.172 0.078-0.273 0.227-0.273 0.047 0 0.094 0.008 0.141 0.031l0.070-0.219c-0.047-0.023-0.117-0.031-0.164-0.031zM14.578 11.945h0.227v-1.484h-0.227v0.555c-0.070-0.094-0.18-0.156-0.336-0.156-0.289 0-0.523 0.234-0.523 0.555s0.234 0.555 0.523 0.555c0.156 0 0.266-0.055 0.336-0.156v0.133zM15.187 11.789c-0.008 0-0.023 0.008-0.039 0.008-0.016 0.008-0.023 0.016-0.031 0.023-0.016 0.008-0.023 0.023-0.023 0.031-0.008 0.016-0.008 0.031-0.008 0.047 0 0.008 0 0.023 0.008 0.039 0 0.008 0.008 0.023 0.023 0.031 0.008 0.008 0.016 0.016 0.031 0.023s0.031 0.008 0.039 0.008c0.016 0 0.031 0 0.047-0.008 0.008-0.008 0.023-0.016 0.031-0.023s0.016-0.023 0.023-0.031c0.008-0.016 0.008-0.031 0.008-0.039 0-0.016 0-0.031-0.008-0.047-0.008-0.008-0.016-0.023-0.023-0.031s-0.023-0.016-0.031-0.023c-0.016 0-0.031-0.008-0.047-0.008zM18 2v10c0 0.547-0.453 1-1 1h-16c-0.547 0-1-0.453-1-1v-10c0-0.547 0.453-1 1-1h16c0.547 0 1 0.453 1 1z"></path>
</svg>
