<!-- Generated by IcoMoon.io -->
<svg version="1.1" xmlns="http://www.w3.org/2000/svg" width="18" height="14" viewBox="0 0 18 14">
<title>cc-paypal</title>
<path d="M5.82 7.078c0 0.383-0.305 0.672-0.688 0.672-0.289 0-0.5-0.164-0.5-0.469 0-0.383 0.297-0.688 0.68-0.688 0.289 0 0.508 0.18 0.508 0.484zM11.953 5.914c0 0.469-0.281 0.563-0.688 0.563l-0.25 0.008 0.133-0.836c0.008-0.055 0.047-0.086 0.102-0.086h0.141c0.266 0 0.563 0.016 0.563 0.352zM14.695 7.078c0 0.383-0.305 0.672-0.68 0.672-0.289 0-0.508-0.164-0.508-0.469 0-0.383 0.297-0.688 0.68-0.688 0.289 0 0.508 0.18 0.508 0.484zM4.008 5.742c0-0.656-0.508-0.875-1.086-0.875h-1.25c-0.078 0-0.156 0.062-0.164 0.148l-0.508 3.188c-0.008 0.062 0.039 0.125 0.102 0.125h0.594c0.086 0 0.164-0.062 0.172-0.148l0.141-0.859c0.031-0.227 0.414-0.148 0.563-0.148 0.891 0 1.438-0.531 1.438-1.43zM6.422 8.18l0.32-2.039c0.008-0.062-0.039-0.125-0.102-0.125h-0.594c-0.117 0-0.125 0.172-0.133 0.258-0.18-0.266-0.445-0.312-0.742-0.312-0.766 0-1.352 0.672-1.352 1.414 0 0.609 0.383 1.008 0.992 1.008 0.281 0 0.633-0.125 0.828-0.344-0.016 0.047-0.031 0.117-0.031 0.164 0 0.070 0.031 0.125 0.102 0.125h0.539c0.086 0 0.156-0.062 0.172-0.148zM9.914 6.125c0-0.055-0.047-0.109-0.102-0.109h-0.602c-0.055 0-0.109 0.031-0.141 0.078l-0.828 1.219-0.344-1.172c-0.023-0.070-0.094-0.125-0.172-0.125h-0.586c-0.055 0-0.102 0.055-0.102 0.109 0 0.039 0.609 1.805 0.664 1.969-0.086 0.117-0.641 0.844-0.641 0.937 0 0.055 0.047 0.102 0.102 0.102h0.602c0.055 0 0.109-0.031 0.141-0.078l1.992-2.875c0.016-0.016 0.016-0.031 0.016-0.055zM12.883 5.742c0-0.656-0.508-0.875-1.086-0.875h-1.242c-0.086 0-0.164 0.062-0.172 0.148l-0.508 3.188c-0.008 0.062 0.039 0.125 0.102 0.125h0.641c0.062 0 0.109-0.047 0.125-0.102l0.141-0.906c0.031-0.227 0.414-0.148 0.563-0.148 0.891 0 1.438-0.531 1.438-1.43zM15.297 8.18l0.32-2.039c0.008-0.062-0.039-0.125-0.102-0.125h-0.594c-0.117 0-0.125 0.172-0.133 0.258-0.172-0.266-0.438-0.312-0.742-0.312-0.766 0-1.352 0.672-1.352 1.414 0 0.609 0.383 1.008 0.992 1.008 0.289 0 0.641-0.125 0.828-0.344-0.008 0.047-0.031 0.117-0.031 0.164 0 0.070 0.031 0.125 0.102 0.125h0.539c0.086 0 0.156-0.062 0.172-0.148zM17 4.984v-0.008c0-0.062-0.047-0.109-0.102-0.109h-0.578c-0.047 0-0.094 0.039-0.102 0.086l-0.508 3.25-0.008 0.016c0 0.055 0.047 0.109 0.109 0.109h0.516c0.078 0 0.156-0.062 0.164-0.148zM3.063 6.031c-0.062 0.398-0.328 0.445-0.672 0.445l-0.258 0.008 0.133-0.836c0.008-0.055 0.055-0.086 0.102-0.086h0.148c0.352 0 0.617 0.047 0.547 0.469zM18 2v10c0 0.547-0.453 1-1 1h-16c-0.547 0-1-0.453-1-1v-10c0-0.547 0.453-1 1-1h16c0.547 0 1 0.453 1 1z"></path>
</svg>
