<!-- Generated by IcoMoon.io -->
<svg version="1.1" xmlns="http://www.w3.org/2000/svg" width="18" height="14" viewBox="0 0 18 14">
<title>cc-stripe</title>
<path d="M12.477 7.055c0 0.359-0.055 0.633-0.164 0.828-0.094 0.172-0.242 0.273-0.406 0.273-0.117 0-0.227-0.023-0.32-0.070v-1.75c0.203-0.211 0.383-0.234 0.445-0.234 0.297 0 0.445 0.328 0.445 0.953zM15.898 6.773h-0.859c0.031-0.523 0.172-0.766 0.438-0.766s0.406 0.25 0.422 0.766zM3.719 7.828c0-0.656-0.398-0.93-1.047-1.164v0c-0.344-0.125-0.531-0.227-0.531-0.383 0-0.133 0.109-0.203 0.297-0.203 0.359 0 0.719 0.133 0.969 0.258l0.141-0.875c-0.195-0.094-0.602-0.25-1.164-0.25-0.398 0-0.727 0.102-0.961 0.297-0.25 0.203-0.375 0.5-0.375 0.852 0 0.641 0.391 0.922 1.031 1.148 0.406 0.148 0.547 0.25 0.547 0.414 0 0.156-0.133 0.242-0.375 0.242-0.297 0-0.789-0.148-1.109-0.336l-0.141 0.883c0.273 0.156 0.781 0.32 1.312 0.32 0.422 0 0.766-0.102 1.008-0.289 0.266-0.211 0.398-0.516 0.398-0.914zM6.023 6.148l0.148-0.867h-0.75v-1.055l-1.008 0.164-0.141 0.891-0.359 0.062-0.133 0.805h0.484v1.711c0 0.445 0.117 0.75 0.344 0.937 0.195 0.156 0.477 0.234 0.867 0.234 0.305 0 0.484-0.055 0.617-0.086v-0.922c-0.070 0.016-0.234 0.055-0.344 0.055-0.227 0-0.328-0.125-0.328-0.391v-1.539h0.602zM8.492 6.344v-1.086c-0.078-0.016-0.148-0.023-0.219-0.023-0.328 0-0.594 0.172-0.695 0.484l-0.078-0.438h-1.023v3.68h1.172v-2.391c0.148-0.18 0.359-0.242 0.641-0.242 0.062 0 0.125 0 0.203 0.016zM8.781 8.961h1.172v-3.68h-1.172v3.68zM13.641 7.016c0-0.625-0.117-1.102-0.352-1.398-0.211-0.273-0.5-0.406-0.867-0.406-0.336 0-0.633 0.141-0.914 0.438l-0.062-0.367h-1.031v5.039l1.172-0.195v-1.18c0.18 0.055 0.367 0.086 0.531 0.086 0.289 0 0.719-0.078 1.047-0.438 0.32-0.344 0.477-0.875 0.477-1.578zM9.984 4.297c0-0.344-0.273-0.617-0.617-0.617s-0.617 0.273-0.617 0.617 0.273 0.625 0.617 0.625 0.617-0.281 0.617-0.625zM17 7.086c0-0.586-0.125-1.047-0.375-1.375-0.258-0.328-0.641-0.5-1.125-0.5-1 0-1.617 0.734-1.617 1.922 0 0.656 0.164 1.156 0.492 1.469 0.289 0.289 0.711 0.43 1.258 0.43 0.5 0 0.961-0.117 1.25-0.312l-0.125-0.805c-0.289 0.156-0.625 0.242-1 0.242-0.227 0-0.383-0.047-0.492-0.148-0.125-0.102-0.195-0.273-0.219-0.516h1.937c0.008-0.055 0.016-0.32 0.016-0.406zM18 2v10c0 0.547-0.453 1-1 1h-16c-0.547 0-1-0.453-1-1v-10c0-0.547 0.453-1 1-1h16c0.547 0 1 0.453 1 1z"></path>
</svg>
