<!-- Generated by IcoMoon.io -->
<svg version="1.1" xmlns="http://www.w3.org/2000/svg" width="18" height="14" viewBox="0 0 18 14">
<title>cc-visa</title>
<path d="M15.43 7.734h-1.078c0 0 0.109-0.289 0.516-1.398-0.008 0.008 0.109-0.289 0.172-0.477l0.094 0.43c0.242 1.195 0.297 1.445 0.297 1.445zM4.148 7.227l-0.453-2.305c-0.062-0.32-0.305-0.422-0.586-0.422h-2.094l-0.016 0.102c1.438 0.367 2.617 1.148 3.148 2.625zM5.547 4.5l-1.266 3.422-0.133-0.695c-0.273-0.727-0.937-1.398-1.688-1.703l1.055 3.984h1.367l2.039-5.008h-1.375zM6.633 9.516h1.297l0.813-5.016h-1.297zM12.633 4.625c-0.258-0.102-0.664-0.211-1.164-0.211-1.281 0-2.18 0.68-2.188 1.656-0.008 0.719 0.641 1.117 1.133 1.359 0.508 0.242 0.672 0.406 0.672 0.625 0 0.336-0.406 0.484-0.773 0.484-0.523 0-0.805-0.062-1.219-0.258l-0.172-0.086-0.18 1.125c0.305 0.141 0.859 0.266 1.445 0.266 1.359 0.008 2.242-0.672 2.258-1.711 0-0.57-0.352-1-1.094-1.359-0.453-0.227-0.727-0.391-0.727-0.625 0-0.211 0.234-0.43 0.742-0.43 0.422-0.008 0.734 0.078 0.969 0.187l0.117 0.062zM15.953 4.5h-1c-0.312 0-0.547 0.094-0.68 0.422l-1.922 4.594h1.359c0.219-0.617 0.273-0.75 0.273-0.75h1.656c0 0 0.039 0.172 0.156 0.75h1.203zM18 2v10c0 0.547-0.453 1-1 1h-16c-0.547 0-1-0.453-1-1v-10c0-0.547 0.453-1 1-1h16c0.547 0 1 0.453 1 1z"></path>
</svg>
