<!-- Generated by IcoMoon.io -->
<svg version="1.1" xmlns="http://www.w3.org/2000/svg" width="16" height="14" viewBox="0 0 16 14">
<title>cc</title>
<path d="M6.133 7.875h1.617c-0.148 1.648-1.094 2.648-2.445 2.648-1.688 0-2.711-1.297-2.711-3.375 0-2.062 1.125-3.352 2.547-3.352 1.563 0 2.438 0.969 2.57 2.609h-1.586c-0.055-0.664-0.383-1.047-0.914-1.047-0.586 0-0.937 0.625-0.937 1.859 0 0.898 0.156 1.742 1.008 1.742 0.539 0 0.789-0.469 0.852-1.086zM11.695 7.875h1.609c-0.148 1.648-1.086 2.648-2.438 2.648-1.688 0-2.711-1.297-2.711-3.375 0-2.062 1.125-3.352 2.547-3.352 1.563 0 2.438 0.969 2.57 2.609h-1.594c-0.047-0.664-0.383-1.047-0.906-1.047-0.586 0-0.937 0.625-0.937 1.859 0 0.898 0.148 1.742 1 1.742 0.539 0 0.797-0.469 0.859-1.086zM14.5 6.945c0-2.094-0.109-3-0.594-3.656-0.102-0.133-0.266-0.219-0.398-0.312-0.492-0.359-2.781-0.492-5.445-0.492s-5.063 0.133-5.547 0.492c-0.141 0.102-0.312 0.18-0.414 0.312-0.484 0.648-0.586 1.563-0.586 3.656 0 2.102 0.109 3.008 0.586 3.656 0.109 0.148 0.273 0.211 0.414 0.32 0.484 0.359 2.883 0.508 5.547 0.508s4.953-0.141 5.445-0.508c0.133-0.102 0.305-0.164 0.398-0.32 0.492-0.641 0.594-1.555 0.594-3.656zM16 1v12h-16v-12h16z"></path>
</svg>
