<!-- Generated by IcoMoon.io -->
<svg version="1.1" xmlns="http://www.w3.org/2000/svg" width="12" height="14" viewBox="0 0 12 14">
<title>certificate</title>
<path d="M10.75 7l1.078 1.055c0.148 0.141 0.203 0.352 0.156 0.547-0.055 0.195-0.211 0.352-0.406 0.398l-1.469 0.375 0.414 1.453c0.055 0.195 0 0.406-0.148 0.547-0.141 0.148-0.352 0.203-0.547 0.148l-1.453-0.414-0.375 1.469c-0.047 0.195-0.203 0.352-0.398 0.406-0.047 0.008-0.102 0.016-0.148 0.016-0.148 0-0.297-0.062-0.398-0.172l-1.055-1.078-1.055 1.078c-0.141 0.148-0.352 0.203-0.547 0.156-0.203-0.055-0.352-0.211-0.398-0.406l-0.375-1.469-1.453 0.414c-0.195 0.055-0.406 0-0.547-0.148-0.148-0.141-0.203-0.352-0.148-0.547l0.414-1.453-1.469-0.375c-0.195-0.047-0.352-0.203-0.406-0.398-0.047-0.195 0.008-0.406 0.156-0.547l1.078-1.055-1.078-1.055c-0.148-0.141-0.203-0.352-0.156-0.547 0.055-0.195 0.211-0.352 0.406-0.398l1.469-0.375-0.414-1.453c-0.055-0.195 0-0.406 0.148-0.547 0.141-0.148 0.352-0.203 0.547-0.148l1.453 0.414 0.375-1.469c0.047-0.195 0.203-0.352 0.398-0.398 0.195-0.055 0.406 0 0.547 0.148l1.055 1.086 1.055-1.086c0.141-0.148 0.344-0.203 0.547-0.148 0.195 0.047 0.352 0.203 0.398 0.398l0.375 1.469 1.453-0.414c0.195-0.055 0.406 0 0.547 0.148 0.148 0.141 0.203 0.352 0.148 0.547l-0.414 1.453 1.469 0.375c0.195 0.047 0.352 0.203 0.406 0.398 0.047 0.195-0.008 0.406-0.156 0.547z"></path>
</svg>
