<!-- Generated by IcoMoon.io -->
<svg version="1.1" xmlns="http://www.w3.org/2000/svg" width="13" height="14" viewBox="0 0 13 14">
<title>chain</title>
<path d="M11.375 9.5c0-0.203-0.078-0.391-0.219-0.531l-1.625-1.625c-0.141-0.141-0.336-0.219-0.531-0.219-0.227 0-0.406 0.086-0.563 0.25 0.258 0.258 0.563 0.477 0.563 0.875 0 0.414-0.336 0.75-0.75 0.75-0.398 0-0.617-0.305-0.875-0.563-0.164 0.156-0.258 0.336-0.258 0.57 0 0.195 0.078 0.391 0.219 0.531l1.609 1.617c0.141 0.141 0.336 0.211 0.531 0.211s0.391-0.070 0.531-0.203l1.148-1.141c0.141-0.141 0.219-0.328 0.219-0.523zM5.883 3.992c0-0.195-0.078-0.391-0.219-0.531l-1.609-1.617c-0.141-0.141-0.336-0.219-0.531-0.219s-0.391 0.078-0.531 0.211l-1.148 1.141c-0.141 0.141-0.219 0.328-0.219 0.523 0 0.203 0.078 0.391 0.219 0.531l1.625 1.625c0.141 0.141 0.336 0.211 0.531 0.211 0.227 0 0.406-0.078 0.563-0.242-0.258-0.258-0.563-0.477-0.563-0.875 0-0.414 0.336-0.75 0.75-0.75 0.398 0 0.617 0.305 0.875 0.563 0.164-0.156 0.258-0.336 0.258-0.57zM12.875 9.5c0 0.594-0.242 1.172-0.664 1.586l-1.148 1.141c-0.422 0.422-0.992 0.648-1.586 0.648-0.602 0-1.172-0.234-1.594-0.664l-1.609-1.617c-0.422-0.422-0.648-0.992-0.648-1.586 0-0.617 0.25-1.203 0.688-1.633l-0.688-0.688c-0.43 0.438-1.008 0.688-1.625 0.688-0.594 0-1.172-0.234-1.594-0.656l-1.625-1.625c-0.43-0.43-0.656-0.992-0.656-1.594 0-0.594 0.242-1.172 0.664-1.586l1.148-1.141c0.422-0.422 0.992-0.648 1.586-0.648 0.602 0 1.172 0.234 1.594 0.664l1.609 1.617c0.422 0.422 0.648 0.992 0.648 1.586 0 0.617-0.25 1.203-0.688 1.633l0.688 0.688c0.43-0.438 1.008-0.688 1.625-0.688 0.594 0 1.172 0.234 1.594 0.656l1.625 1.625c0.43 0.43 0.656 0.992 0.656 1.594z"></path>
</svg>
