<!-- Generated by IcoMoon.io -->
<svg version="1.1" xmlns="http://www.w3.org/2000/svg" width="13" height="14" viewBox="0 0 13 14">
<title>chain-broken</title>
<path d="M3.43 9.93l-2 2c-0.055 0.047-0.117 0.070-0.18 0.070s-0.125-0.023-0.18-0.070c-0.094-0.102-0.094-0.258 0-0.359l2-2c0.102-0.094 0.258-0.094 0.359 0 0.094 0.102 0.094 0.258 0 0.359zM4.75 10.25v2.5c0 0.141-0.109 0.25-0.25 0.25s-0.25-0.109-0.25-0.25v-2.5c0-0.141 0.109-0.25 0.25-0.25s0.25 0.109 0.25 0.25zM3 8.5c0 0.141-0.109 0.25-0.25 0.25h-2.5c-0.141 0-0.25-0.109-0.25-0.25s0.109-0.25 0.25-0.25h2.5c0.141 0 0.25 0.109 0.25 0.25zM12.875 9.5c0 0.602-0.234 1.164-0.664 1.586l-1.148 1.141c-0.422 0.422-0.984 0.648-1.586 0.648s-1.172-0.234-1.594-0.664l-2.609-2.617c-0.133-0.133-0.234-0.281-0.328-0.438l1.867-0.141 2.133 2.141c0.281 0.281 0.781 0.289 1.062 0.008l1.148-1.141c0.141-0.141 0.219-0.328 0.219-0.523 0-0.203-0.078-0.391-0.219-0.531l-2.141-2.148 0.141-1.867c0.156 0.094 0.305 0.195 0.438 0.328l2.625 2.625c0.422 0.43 0.656 0.992 0.656 1.594zM8.055 3.844l-1.867 0.141-2.133-2.141c-0.141-0.141-0.328-0.219-0.531-0.219s-0.391 0.078-0.531 0.211l-1.148 1.141c-0.141 0.141-0.219 0.328-0.219 0.523 0 0.203 0.078 0.391 0.219 0.531l2.141 2.141-0.141 1.875c-0.156-0.094-0.305-0.195-0.438-0.328l-2.625-2.625c-0.422-0.43-0.656-0.992-0.656-1.594s0.234-1.164 0.664-1.586l1.148-1.141c0.422-0.422 0.984-0.648 1.586-0.648s1.172 0.234 1.594 0.664l2.609 2.617c0.133 0.133 0.234 0.281 0.328 0.438zM13 4.5c0 0.141-0.109 0.25-0.25 0.25h-2.5c-0.141 0-0.25-0.109-0.25-0.25s0.109-0.25 0.25-0.25h2.5c0.141 0 0.25 0.109 0.25 0.25zM8.75 0.25v2.5c0 0.141-0.109 0.25-0.25 0.25s-0.25-0.109-0.25-0.25v-2.5c0-0.141 0.109-0.25 0.25-0.25s0.25 0.109 0.25 0.25zM11.93 1.43l-2 2c-0.055 0.047-0.117 0.070-0.18 0.070s-0.125-0.023-0.18-0.070c-0.094-0.102-0.094-0.258 0-0.359l2-2c0.102-0.094 0.258-0.094 0.359 0 0.094 0.102 0.094 0.258 0 0.359z"></path>
</svg>
