<!-- Generated by IcoMoon.io -->
<svg version="1.1" xmlns="http://www.w3.org/2000/svg" width="12" height="14" viewBox="0 0 12 14">
<title>check-circle-o</title>
<path d="M9.148 6.352l-3.297 3.297c-0.195 0.195-0.508 0.195-0.703 0l-2.297-2.297c-0.195-0.195-0.195-0.508 0-0.703l0.797-0.797c0.195-0.195 0.508-0.195 0.703 0l1.148 1.148 2.148-2.148c0.195-0.195 0.508-0.195 0.703 0l0.797 0.797c0.195 0.195 0.195 0.508 0 0.703zM10.25 7c0-2.344-1.906-4.25-4.25-4.25s-4.25 1.906-4.25 4.25 1.906 4.25 4.25 4.25 4.25-1.906 4.25-4.25zM12 7c0 3.313-2.687 6-6 6s-6-2.687-6-6 2.687-6 6-6 6 2.687 6 6z"></path>
</svg>
