<!-- Generated by IcoMoon.io -->
<svg version="1.1" xmlns="http://www.w3.org/2000/svg" width="12" height="14" viewBox="0 0 12 14">
<title>check-square</title>
<path d="M5.352 10.148l4.797-4.797c0.195-0.195 0.195-0.508 0-0.703l-0.797-0.797c-0.195-0.195-0.508-0.195-0.703 0l-3.648 3.648-1.648-1.648c-0.195-0.195-0.508-0.195-0.703 0l-0.797 0.797c-0.195 0.195-0.195 0.508 0 0.703l2.797 2.797c0.195 0.195 0.508 0.195 0.703 0zM12 3.25v7.5c0 1.242-1.008 2.25-2.25 2.25h-7.5c-1.242 0-2.25-1.008-2.25-2.25v-7.5c0-1.242 1.008-2.25 2.25-2.25h7.5c1.242 0 2.25 1.008 2.25 2.25z"></path>
</svg>
