<!-- Generated by IcoMoon.io -->
<svg version="1.1" xmlns="http://www.w3.org/2000/svg" width="12" height="14" viewBox="0 0 12 14">
<title>check-circle</title>
<path d="M10.031 5.734c0-0.133-0.047-0.266-0.141-0.359l-0.711-0.703c-0.094-0.094-0.219-0.148-0.352-0.148s-0.258 0.055-0.352 0.148l-3.188 3.18-1.766-1.766c-0.094-0.094-0.219-0.148-0.352-0.148s-0.258 0.055-0.352 0.148l-0.711 0.703c-0.094 0.094-0.141 0.227-0.141 0.359s0.047 0.258 0.141 0.352l2.828 2.828c0.094 0.094 0.227 0.148 0.352 0.148 0.133 0 0.266-0.055 0.359-0.148l4.242-4.242c0.094-0.094 0.141-0.219 0.141-0.352zM12 7c0 3.313-2.687 6-6 6s-6-2.687-6-6 2.687-6 6-6 6 2.687 6 6z"></path>
</svg>
