<!-- Generated by IcoMoon.io -->
<svg version="1.1" xmlns="http://www.w3.org/2000/svg" width="12" height="14" viewBox="0 0 12 14">
<title>chevron-circle-right</title>
<path d="M5.602 10.898l3.547-3.547c0.195-0.195 0.195-0.508 0-0.703l-3.547-3.547c-0.195-0.195-0.508-0.195-0.703 0l-0.797 0.797c-0.195 0.195-0.195 0.508 0 0.703l2.398 2.398-2.398 2.398c-0.195 0.195-0.195 0.508 0 0.703l0.797 0.797c0.195 0.195 0.508 0.195 0.703 0zM12 7c0 3.313-2.687 6-6 6s-6-2.687-6-6 2.687-6 6-6 6 2.687 6 6z"></path>
</svg>
