<!-- Generated by IcoMoon.io -->
<svg version="1.1" xmlns="http://www.w3.org/2000/svg" width="10" height="14" viewBox="0 0 10 14">
<title>child</title>
<path d="M9.281 4.281l-2.281 2.281v6.437c0 0.484-0.391 0.875-0.875 0.875s-0.875-0.391-0.875-0.875v-3h-0.5v3c0 0.484-0.391 0.875-0.875 0.875s-0.875-0.391-0.875-0.875v-6.437l-2.281-2.281c-0.289-0.297-0.289-0.766 0-1.062 0.297-0.289 0.766-0.289 1.062 0l1.781 1.781h2.875l1.781-1.781c0.297-0.289 0.766-0.289 1.062 0 0.289 0.297 0.289 0.766 0 1.062zM6.75 3c0 0.969-0.781 1.75-1.75 1.75s-1.75-0.781-1.75-1.75 0.781-1.75 1.75-1.75 1.75 0.781 1.75 1.75z"></path>
</svg>
