<!-- Generated by IcoMoon.io -->
<svg version="1.1" xmlns="http://www.w3.org/2000/svg" width="15" height="14" viewBox="0 0 15 14">
<title>chrome</title>
<path d="M6.977 0c1.195-0.008 2.414 0.297 3.523 0.937 1.227 0.711 2.156 1.734 2.75 2.906l-5.797-0.305c-1.641-0.094-3.203 0.828-3.742 2.375l-2.156-3.313c1.344-1.672 3.359-2.594 5.422-2.602zM1.141 3.164l2.633 5.18c0.742 1.461 2.313 2.352 3.938 2.047l-1.797 3.523c-3.352-0.516-5.914-3.414-5.914-6.914 0-1.414 0.422-2.734 1.141-3.836zM13.531 4.484c1.227 3.156 0 6.828-3.031 8.578-1.227 0.711-2.578 1-3.891 0.93l3.164-4.867c0.898-1.383 0.883-3.188-0.187-4.437zM7 4.641c1.305 0 2.359 1.055 2.359 2.359s-1.055 2.359-2.359 2.359-2.359-1.055-2.359-2.359 1.055-2.359 2.359-2.359z"></path>
</svg>
