<!-- Generated by IcoMoon.io -->
<svg version="1.1" xmlns="http://www.w3.org/2000/svg" width="14" height="14" viewBox="0 0 14 14">
<title>clipboard</title>
<path d="M6 13h7v-5h-3.25c-0.414 0-0.75-0.336-0.75-0.75v-3.25h-3v9zM8 1.75v-0.5c0-0.133-0.117-0.25-0.25-0.25h-5.5c-0.133 0-0.25 0.117-0.25 0.25v0.5c0 0.133 0.117 0.25 0.25 0.25h5.5c0.133 0 0.25-0.117 0.25-0.25zM10 7h2.336l-2.336-2.336v2.336zM14 8v5.25c0 0.414-0.336 0.75-0.75 0.75h-7.5c-0.414 0-0.75-0.336-0.75-0.75v-1.25h-4.25c-0.414 0-0.75-0.336-0.75-0.75v-10.5c0-0.414 0.336-0.75 0.75-0.75h8.5c0.414 0 0.75 0.336 0.75 0.75v2.563c0.102 0.062 0.195 0.133 0.281 0.219l3.188 3.188c0.297 0.297 0.531 0.867 0.531 1.281z"></path>
</svg>
