<!-- Generated by IcoMoon.io -->
<svg version="1.1" xmlns="http://www.w3.org/2000/svg" width="12" height="14" viewBox="0 0 12 14">
<title>clock-o</title>
<path d="M7 4.25v3.5c0 0.141-0.109 0.25-0.25 0.25h-2.5c-0.141 0-0.25-0.109-0.25-0.25v-0.5c0-0.141 0.109-0.25 0.25-0.25h1.75v-2.75c0-0.141 0.109-0.25 0.25-0.25h0.5c0.141 0 0.25 0.109 0.25 0.25zM10.25 7c0-2.344-1.906-4.25-4.25-4.25s-4.25 1.906-4.25 4.25 1.906 4.25 4.25 4.25 4.25-1.906 4.25-4.25zM12 7c0 3.313-2.687 6-6 6s-6-2.687-6-6 2.687-6 6-6 6 2.687 6 6z"></path>
</svg>
