<!-- Generated by IcoMoon.io -->
<svg version="1.1" xmlns="http://www.w3.org/2000/svg" width="14" height="14" viewBox="0 0 14 14">
<title>clone</title>
<path d="M13 12.75v-8.5c0-0.133-0.117-0.25-0.25-0.25h-8.5c-0.133 0-0.25 0.117-0.25 0.25v8.5c0 0.133 0.117 0.25 0.25 0.25h8.5c0.133 0 0.25-0.117 0.25-0.25zM14 4.25v8.5c0 0.688-0.563 1.25-1.25 1.25h-8.5c-0.688 0-1.25-0.563-1.25-1.25v-8.5c0-0.688 0.563-1.25 1.25-1.25h8.5c0.688 0 1.25 0.563 1.25 1.25zM11 1.25v1.25h-1v-1.25c0-0.133-0.117-0.25-0.25-0.25h-8.5c-0.133 0-0.25 0.117-0.25 0.25v8.5c0 0.133 0.117 0.25 0.25 0.25h1.25v1h-1.25c-0.688 0-1.25-0.563-1.25-1.25v-8.5c0-0.688 0.563-1.25 1.25-1.25h8.5c0.688 0 1.25 0.563 1.25 1.25z"></path>
</svg>
