<!-- Generated by IcoMoon.io -->
<svg version="1.1" xmlns="http://www.w3.org/2000/svg" width="15" height="14" viewBox="0 0 15 14">
<title>cloud-download</title>
<path d="M10 7.25c0-0.141-0.109-0.25-0.25-0.25h-1.75v-2.75c0-0.133-0.117-0.25-0.25-0.25h-1.5c-0.133 0-0.25 0.117-0.25 0.25v2.75h-1.75c-0.141 0-0.25 0.117-0.25 0.25 0 0.062 0.023 0.133 0.070 0.18l2.75 2.75c0.047 0.047 0.109 0.070 0.18 0.070 0.062 0 0.133-0.023 0.18-0.070l2.742-2.742c0.047-0.055 0.078-0.117 0.078-0.187zM15 9c0 1.656-1.344 3-3 3h-8.5c-1.93 0-3.5-1.57-3.5-3.5 0-1.359 0.789-2.594 2.016-3.164-0.008-0.117-0.016-0.227-0.016-0.336 0-2.211 1.789-4 4-4 1.625 0 3.086 0.984 3.703 2.484 0.359-0.312 0.82-0.484 1.297-0.484 1.102 0 2 0.898 2 2 0 0.383-0.109 0.758-0.32 1.078 1.359 0.32 2.32 1.531 2.32 2.922z"></path>
</svg>
