<!-- Generated by IcoMoon.io -->
<svg version="1.1" xmlns="http://www.w3.org/2000/svg" width="8" height="14" viewBox="0 0 8 14">
<title>cny</title>
<path d="M4.711 12h-1.344c-0.141 0-0.25-0.109-0.25-0.25v-2.578h-2.25c-0.141 0-0.25-0.109-0.25-0.25v-0.805c0-0.141 0.109-0.25 0.25-0.25h2.25v-0.664h-2.25c-0.141 0-0.25-0.109-0.25-0.25v-0.813c0-0.133 0.109-0.25 0.25-0.25h1.672l-2.508-4.516c-0.039-0.078-0.039-0.172 0-0.25 0.047-0.078 0.133-0.125 0.219-0.125h1.516c0.094 0 0.18 0.055 0.227 0.141l1.68 3.32c0.187 0.367 0.312 0.68 0.438 0.977 0.133-0.336 0.305-0.664 0.453-1.008l1.492-3.281c0.039-0.094 0.133-0.148 0.227-0.148h1.492c0.086 0 0.164 0.047 0.211 0.125 0.047 0.070 0.047 0.164 0.008 0.242l-2.445 4.523h1.68c0.141 0 0.25 0.117 0.25 0.25v0.813c0 0.141-0.109 0.25-0.25 0.25h-2.266v0.664h2.266c0.141 0 0.25 0.109 0.25 0.25v0.805c0 0.141-0.109 0.25-0.25 0.25h-2.266v2.578c0 0.141-0.117 0.25-0.25 0.25z"></path>
</svg>
