<!-- Generated by IcoMoon.io -->
<svg version="1.1" xmlns="http://www.w3.org/2000/svg" width="15" height="14" viewBox="0 0 15 14">
<title>code</title>
<path d="M4.82 10.93l-0.391 0.391c-0.102 0.102-0.258 0.102-0.359 0l-3.641-3.641c-0.102-0.102-0.102-0.258 0-0.359l3.641-3.641c0.102-0.102 0.258-0.102 0.359 0l0.391 0.391c0.102 0.102 0.102 0.258 0 0.359l-3.070 3.070 3.070 3.070c0.102 0.102 0.102 0.258 0 0.359zM9.438 2.594l-2.914 10.086c-0.039 0.133-0.18 0.211-0.305 0.172l-0.484-0.133c-0.133-0.039-0.211-0.18-0.172-0.312l2.914-10.086c0.039-0.133 0.18-0.211 0.305-0.172l0.484 0.133c0.133 0.039 0.211 0.18 0.172 0.312zM14.57 7.68l-3.641 3.641c-0.102 0.102-0.258 0.102-0.359 0l-0.391-0.391c-0.102-0.102-0.102-0.258 0-0.359l3.070-3.070-3.070-3.070c-0.102-0.102-0.102-0.258 0-0.359l0.391-0.391c0.102-0.102 0.258-0.102 0.359 0l3.641 3.641c0.102 0.102 0.102 0.258 0 0.359z"></path>
</svg>
