<!-- Generated by IcoMoon.io -->
<svg version="1.1" xmlns="http://www.w3.org/2000/svg" width="8" height="14" viewBox="0 0 8 14">
<title>code-fork</title>
<path d="M2.25 11.5c0-0.414-0.336-0.75-0.75-0.75s-0.75 0.336-0.75 0.75 0.336 0.75 0.75 0.75 0.75-0.336 0.75-0.75zM2.25 2.5c0-0.414-0.336-0.75-0.75-0.75s-0.75 0.336-0.75 0.75 0.336 0.75 0.75 0.75 0.75-0.336 0.75-0.75zM7.25 3.5c0-0.414-0.336-0.75-0.75-0.75s-0.75 0.336-0.75 0.75 0.336 0.75 0.75 0.75 0.75-0.336 0.75-0.75zM8 3.5c0 0.555-0.305 1.039-0.75 1.297-0.023 2.82-2.023 3.445-3.352 3.867-1.242 0.391-1.648 0.578-1.648 1.336v0.203c0.445 0.258 0.75 0.742 0.75 1.297 0 0.828-0.672 1.5-1.5 1.5s-1.5-0.672-1.5-1.5c0-0.555 0.305-1.039 0.75-1.297v-6.406c-0.445-0.258-0.75-0.742-0.75-1.297 0-0.828 0.672-1.5 1.5-1.5s1.5 0.672 1.5 1.5c0 0.555-0.305 1.039-0.75 1.297v3.883c0.398-0.195 0.82-0.328 1.203-0.445 1.453-0.461 2.281-0.805 2.297-2.438-0.445-0.258-0.75-0.742-0.75-1.297 0-0.828 0.672-1.5 1.5-1.5s1.5 0.672 1.5 1.5z"></path>
</svg>
