<!-- Generated by IcoMoon.io -->
<svg version="1.1" xmlns="http://www.w3.org/2000/svg" width="13" height="14" viewBox="0 0 13 14">
<title>codiepie</title>
<path d="M12.375 10.078l-1.703-0.867c-0.766 1.25-2.125 2.016-3.594 2.016-2.328 0-4.211-1.883-4.211-4.203 0-2.328 1.883-4.211 4.211-4.211 1.367 0 2.648 0.664 3.438 1.789l1.68-0.977c-1.148-1.766-3.094-2.82-5.195-2.82-3.422 0-6.195 2.773-6.195 6.195s2.773 6.195 6.195 6.195c2.219 0 4.273-1.187 5.375-3.117zM8.047 6.977l5.414 2.75c-1.187 2.594-3.57 4.273-6.461 4.273-3.867 0-7-3.133-7-7s3.133-7 7-7c2.75 0 5.016 1.516 6.297 3.906zM12.055 7h-0.305v1.25h-0.75v-2.75h1.062c0.867 0 0.945 1.5-0.008 1.5z"></path>
</svg>
