<!-- Generated by IcoMoon.io -->
<svg version="1.1" xmlns="http://www.w3.org/2000/svg" width="12" height="14" viewBox="0 0 12 14">
<title>cog</title>
<path d="M8 7c0-1.102-0.898-2-2-2s-2 0.898-2 2 0.898 2 2 2 2-0.898 2-2zM12 6.148v1.734c0 0.117-0.094 0.258-0.219 0.281l-1.445 0.219c-0.086 0.25-0.18 0.484-0.305 0.711 0.266 0.383 0.547 0.727 0.836 1.078 0.047 0.055 0.078 0.125 0.078 0.195s-0.023 0.125-0.070 0.18c-0.187 0.25-1.242 1.398-1.508 1.398-0.070 0-0.141-0.031-0.203-0.070l-1.078-0.844c-0.227 0.117-0.469 0.219-0.711 0.297-0.055 0.477-0.102 0.984-0.227 1.453-0.031 0.125-0.141 0.219-0.281 0.219h-1.734c-0.141 0-0.266-0.102-0.281-0.234l-0.219-1.438c-0.242-0.078-0.477-0.172-0.703-0.289l-1.102 0.836c-0.055 0.047-0.125 0.070-0.195 0.070s-0.141-0.031-0.195-0.086c-0.414-0.375-0.961-0.859-1.289-1.313-0.039-0.055-0.055-0.117-0.055-0.18 0-0.070 0.023-0.125 0.062-0.18 0.266-0.359 0.555-0.703 0.82-1.070-0.133-0.25-0.242-0.508-0.32-0.773l-1.43-0.211c-0.133-0.023-0.227-0.148-0.227-0.281v-1.734c0-0.117 0.094-0.258 0.211-0.281l1.453-0.219c0.078-0.25 0.18-0.484 0.305-0.719-0.266-0.375-0.547-0.727-0.836-1.078-0.047-0.055-0.078-0.117-0.078-0.187s0.031-0.125 0.070-0.18c0.187-0.258 1.242-1.398 1.508-1.398 0.070 0 0.141 0.031 0.203 0.078l1.078 0.836c0.227-0.117 0.469-0.219 0.711-0.297 0.055-0.477 0.102-0.984 0.227-1.453 0.031-0.125 0.141-0.219 0.281-0.219h1.734c0.141 0 0.266 0.102 0.281 0.234l0.219 1.438c0.242 0.078 0.477 0.172 0.703 0.289l1.109-0.836c0.047-0.047 0.117-0.070 0.187-0.070s0.141 0.031 0.195 0.078c0.414 0.383 0.961 0.867 1.289 1.328 0.039 0.047 0.055 0.109 0.055 0.172 0 0.070-0.023 0.125-0.062 0.18-0.266 0.359-0.555 0.703-0.82 1.070 0.133 0.25 0.242 0.508 0.32 0.766l1.43 0.219c0.133 0.023 0.227 0.148 0.227 0.281z"></path>
</svg>
