<!-- Generated by IcoMoon.io -->
<svg version="1.1" xmlns="http://www.w3.org/2000/svg" width="15" height="14" viewBox="0 0 15 14">
<title>cogs</title>
<path d="M7 7c0-1.102-0.898-2-2-2s-2 0.898-2 2 0.898 2 2 2 2-0.898 2-2zM13 11c0-0.547-0.453-1-1-1s-1 0.453-1 1c0 0.555 0.453 1 1 1 0.555 0 1-0.453 1-1zM13 3c0-0.547-0.453-1-1-1s-1 0.453-1 1c0 0.555 0.453 1 1 1 0.555 0 1-0.453 1-1zM10 6.289v1.445c0 0.102-0.078 0.219-0.18 0.234l-1.211 0.187c-0.062 0.203-0.148 0.398-0.25 0.594 0.219 0.312 0.453 0.602 0.703 0.898 0.031 0.047 0.055 0.094 0.055 0.156 0 0.055-0.016 0.109-0.055 0.148-0.156 0.211-1.031 1.164-1.258 1.164-0.062 0-0.117-0.023-0.164-0.055l-0.898-0.703c-0.195 0.102-0.391 0.18-0.602 0.242-0.039 0.398-0.078 0.828-0.18 1.211-0.031 0.109-0.125 0.187-0.234 0.187h-1.453c-0.109 0-0.219-0.086-0.234-0.195l-0.18-1.195c-0.203-0.062-0.398-0.148-0.586-0.242l-0.922 0.695c-0.039 0.039-0.102 0.055-0.156 0.055-0.062 0-0.117-0.023-0.164-0.062-0.203-0.187-1.125-1.023-1.125-1.25 0-0.055 0.023-0.102 0.055-0.148 0.227-0.297 0.461-0.586 0.688-0.891-0.109-0.211-0.203-0.422-0.273-0.641l-1.187-0.187c-0.109-0.016-0.187-0.117-0.187-0.227v-1.445c0-0.102 0.078-0.219 0.18-0.234l1.211-0.187c0.062-0.203 0.148-0.398 0.25-0.594-0.219-0.312-0.453-0.602-0.703-0.898-0.031-0.047-0.055-0.102-0.055-0.156s0.016-0.109 0.055-0.156c0.156-0.211 1.031-1.156 1.258-1.156 0.062 0 0.117 0.023 0.164 0.055l0.898 0.703c0.195-0.102 0.391-0.18 0.602-0.25 0.039-0.391 0.078-0.82 0.18-1.203 0.031-0.109 0.125-0.187 0.234-0.187h1.453c0.109 0 0.219 0.086 0.234 0.195l0.18 1.195c0.203 0.062 0.398 0.148 0.586 0.242l0.922-0.695c0.047-0.039 0.102-0.055 0.156-0.055 0.062 0 0.117 0.023 0.164 0.062 0.203 0.187 1.125 1.031 1.125 1.25 0 0.055-0.023 0.102-0.055 0.148-0.227 0.305-0.461 0.586-0.68 0.891 0.102 0.211 0.195 0.422 0.266 0.641l1.187 0.18c0.109 0.023 0.187 0.125 0.187 0.234zM15 10.453v1.094c0 0.117-1.008 0.227-1.164 0.242-0.062 0.148-0.141 0.281-0.234 0.406 0.070 0.156 0.398 0.937 0.398 1.078 0 0.023-0.008 0.039-0.031 0.055-0.094 0.055-0.93 0.555-0.969 0.555-0.102 0-0.688-0.781-0.766-0.898-0.078 0.008-0.156 0.016-0.234 0.016s-0.156-0.008-0.234-0.016c-0.078 0.117-0.664 0.898-0.766 0.898-0.039 0-0.875-0.5-0.969-0.555-0.023-0.016-0.031-0.039-0.031-0.055 0-0.133 0.328-0.922 0.398-1.078-0.094-0.125-0.172-0.258-0.234-0.406-0.156-0.016-1.164-0.125-1.164-0.242v-1.094c0-0.117 1.008-0.227 1.164-0.242 0.062-0.141 0.141-0.281 0.234-0.406-0.070-0.156-0.398-0.945-0.398-1.078 0-0.016 0.008-0.039 0.031-0.055 0.094-0.047 0.93-0.547 0.969-0.547 0.102 0 0.688 0.773 0.766 0.891 0.078-0.008 0.156-0.016 0.234-0.016s0.156 0.008 0.234 0.016c0.219-0.305 0.453-0.609 0.719-0.875l0.047-0.016c0.039 0 0.875 0.492 0.969 0.547 0.023 0.016 0.031 0.039 0.031 0.055 0 0.141-0.328 0.922-0.398 1.078 0.094 0.125 0.172 0.266 0.234 0.406 0.156 0.016 1.164 0.125 1.164 0.242zM15 2.453v1.094c0 0.117-1.008 0.227-1.164 0.242-0.062 0.148-0.141 0.281-0.234 0.406 0.070 0.156 0.398 0.937 0.398 1.078 0 0.023-0.008 0.039-0.031 0.055-0.094 0.055-0.93 0.555-0.969 0.555-0.102 0-0.688-0.781-0.766-0.898-0.078 0.008-0.156 0.016-0.234 0.016s-0.156-0.008-0.234-0.016c-0.078 0.117-0.664 0.898-0.766 0.898-0.039 0-0.875-0.5-0.969-0.555-0.023-0.016-0.031-0.039-0.031-0.055 0-0.133 0.328-0.922 0.398-1.078-0.094-0.125-0.172-0.258-0.234-0.406-0.156-0.016-1.164-0.125-1.164-0.242v-1.094c0-0.117 1.008-0.227 1.164-0.242 0.062-0.141 0.141-0.281 0.234-0.406-0.070-0.156-0.398-0.945-0.398-1.078 0-0.016 0.008-0.039 0.031-0.055 0.094-0.047 0.93-0.547 0.969-0.547 0.102 0 0.688 0.773 0.766 0.891 0.078-0.008 0.156-0.016 0.234-0.016s0.156 0.008 0.234 0.016c0.219-0.305 0.453-0.609 0.719-0.875l0.047-0.016c0.039 0 0.875 0.492 0.969 0.547 0.023 0.016 0.031 0.039 0.031 0.055 0 0.141-0.328 0.922-0.398 1.078 0.094 0.125 0.172 0.266 0.234 0.406 0.156 0.016 1.164 0.125 1.164 0.242z"></path>
</svg>
