<!-- Generated by IcoMoon.io -->
<svg version="1.1" xmlns="http://www.w3.org/2000/svg" width="14" height="14" viewBox="0 0 14 14">
<title>comments</title>
<path d="M11 6c0 2.211-2.461 4-5.5 4-0.477 0-0.937-0.047-1.375-0.125-0.648 0.461-1.383 0.797-2.172 1-0.211 0.055-0.438 0.094-0.672 0.125h-0.023c-0.117 0-0.227-0.094-0.25-0.227v0c-0.031-0.148 0.070-0.242 0.156-0.344 0.305-0.344 0.648-0.648 0.914-1.297-1.266-0.734-2.078-1.867-2.078-3.133 0-2.211 2.461-4 5.5-4s5.5 1.789 5.5 4zM14 8c0 1.273-0.813 2.398-2.078 3.133 0.266 0.648 0.609 0.953 0.914 1.297 0.086 0.102 0.187 0.195 0.156 0.344v0c-0.031 0.141-0.148 0.242-0.273 0.227-0.234-0.031-0.461-0.070-0.672-0.125-0.789-0.203-1.523-0.539-2.172-1-0.438 0.078-0.898 0.125-1.375 0.125-1.414 0-2.711-0.391-3.687-1.031 0.227 0.016 0.461 0.031 0.688 0.031 1.68 0 3.266-0.484 4.477-1.359 1.305-0.953 2.023-2.242 2.023-3.641 0-0.406-0.062-0.805-0.18-1.187 1.32 0.727 2.18 1.883 2.18 3.188z"></path>
</svg>
