<!-- Generated by IcoMoon.io -->
<svg version="1.1" xmlns="http://www.w3.org/2000/svg" width="14" height="14" viewBox="0 0 14 14">
<title>commenting-o</title>
<path d="M5 7c0 0.555-0.445 1-1 1s-1-0.445-1-1 0.445-1 1-1 1 0.445 1 1zM8 7c0 0.555-0.445 1-1 1s-1-0.445-1-1 0.445-1 1-1 1 0.445 1 1zM11 7c0 0.555-0.445 1-1 1s-1-0.445-1-1 0.445-1 1-1 1 0.445 1 1zM7 3c-3.25 0-6 1.828-6 4 0 1.164 0.781 2.273 2.133 3.039l0.68 0.391-0.211 0.75c-0.148 0.555-0.344 0.984-0.547 1.344 0.789-0.328 1.508-0.773 2.148-1.336l0.336-0.297 0.445 0.047c0.336 0.039 0.68 0.062 1.016 0.062 3.25 0 6-1.828 6-4s-2.75-4-6-4zM14 7c0 2.766-3.133 5-7 5-0.383 0-0.766-0.023-1.133-0.062-1.023 0.906-2.242 1.547-3.594 1.891-0.281 0.078-0.586 0.133-0.891 0.172h-0.039c-0.156 0-0.297-0.125-0.336-0.297v-0.008c-0.039-0.195 0.094-0.312 0.211-0.453 0.492-0.555 1.055-1.023 1.422-2.328-1.609-0.914-2.641-2.328-2.641-3.914 0-2.758 3.133-5 7-5v0c3.867 0 7 2.242 7 5z"></path>
</svg>
