<!-- Generated by IcoMoon.io -->
<svg version="1.1" xmlns="http://www.w3.org/2000/svg" width="14" height="14" viewBox="0 0 14 14">
<title>commenting</title>
<path d="M5 7c0-0.555-0.445-1-1-1s-1 0.445-1 1 0.445 1 1 1 1-0.445 1-1zM8 7c0-0.555-0.445-1-1-1s-1 0.445-1 1 0.445 1 1 1 1-0.445 1-1zM11 7c0-0.555-0.445-1-1-1s-1 0.445-1 1 0.445 1 1 1 1-0.445 1-1zM14 7c0 2.766-3.133 5-7 5-0.57 0-1.125-0.047-1.648-0.141-0.891 0.891-2.055 1.5-3.398 1.789-0.211 0.039-0.438 0.078-0.672 0.102-0.125 0.016-0.242-0.070-0.273-0.187v0c-0.031-0.125 0.062-0.203 0.156-0.289 0.492-0.461 1.078-0.828 1.281-2.477-1.492-0.914-2.445-2.273-2.445-3.797 0-2.766 3.133-5 7-5s7 2.234 7 5z"></path>
</svg>
