<!-- Generated by IcoMoon.io -->
<svg version="1.1" xmlns="http://www.w3.org/2000/svg" width="14" height="14" viewBox="0 0 14 14">
<title>comments-o</title>
<path d="M5.5 3c-2.438 0-4.5 1.375-4.5 3 0 0.859 0.578 1.688 1.578 2.266l0.758 0.438-0.273 0.656c0.164-0.094 0.328-0.195 0.484-0.305l0.344-0.242 0.414 0.078c0.391 0.070 0.789 0.109 1.195 0.109 2.438 0 4.5-1.375 4.5-3s-2.062-3-4.5-3zM5.5 2c3.039 0 5.5 1.789 5.5 4s-2.461 4-5.5 4c-0.477 0-0.937-0.047-1.375-0.125-0.648 0.461-1.383 0.797-2.172 1-0.211 0.055-0.438 0.094-0.672 0.125h-0.023c-0.117 0-0.227-0.094-0.25-0.227v0c-0.031-0.148 0.070-0.242 0.156-0.344 0.305-0.344 0.648-0.648 0.914-1.297-1.266-0.734-2.078-1.867-2.078-3.133 0-2.211 2.461-4 5.5-4zM11.922 11.133c0.266 0.648 0.609 0.953 0.914 1.297 0.086 0.102 0.187 0.195 0.156 0.344v0c-0.031 0.141-0.148 0.242-0.273 0.227-0.234-0.031-0.461-0.070-0.672-0.125-0.789-0.203-1.523-0.539-2.172-1-0.438 0.078-0.898 0.125-1.375 0.125-1.414 0-2.711-0.391-3.687-1.031 0.227 0.016 0.461 0.031 0.688 0.031 1.68 0 3.266-0.484 4.477-1.359 1.305-0.953 2.023-2.242 2.023-3.641 0-0.406-0.062-0.805-0.18-1.187 1.32 0.727 2.18 1.883 2.18 3.188 0 1.273-0.813 2.398-2.078 3.133z"></path>
</svg>
