<!-- Generated by IcoMoon.io -->
<svg version="1.1" xmlns="http://www.w3.org/2000/svg" width="16" height="14" viewBox="0 0 16 14">
<title>connectdevelop</title>
<path d="M16 6.992c0 0.219-0.156 0.398-0.359 0.438l-1.602 2.781c0.016 0.047 0.023 0.094 0.023 0.141 0 0.211-0.148 0.391-0.352 0.43l-1.508 2.633c0.016 0.039 0.023 0.078 0.023 0.125 0 0.242-0.195 0.445-0.445 0.445-0.125 0-0.242-0.055-0.32-0.141h-3.125c-0.078 0.094-0.203 0.156-0.336 0.156s-0.258-0.062-0.336-0.156h-3.117c-0.078 0.094-0.195 0.156-0.336 0.156-0.242 0-0.445-0.195-0.445-0.445 0-0.055 0.016-0.109 0.031-0.156l-1.508-2.617c-0.203-0.039-0.352-0.219-0.352-0.43 0-0.055 0.008-0.094 0.023-0.141l-1.609-2.781c-0.203-0.047-0.352-0.227-0.352-0.438 0-0.219 0.156-0.398 0.367-0.438l1.555-2.687c0-0.016-0.008-0.031-0.008-0.047 0-0.18 0.109-0.328 0.266-0.398l1.633-2.836c-0.016-0.039-0.031-0.094-0.031-0.141 0-0.25 0.203-0.445 0.445-0.445 0.141 0 0.258 0.062 0.344 0.164h3.094c0.078-0.102 0.195-0.164 0.336-0.164s0.258 0.062 0.336 0.164h3.109c0.086-0.102 0.203-0.164 0.344-0.164 0.242 0 0.445 0.195 0.445 0.445 0 0.047-0.016 0.094-0.031 0.141l1.617 2.797c0.234 0.008 0.43 0.203 0.43 0.438 0 0.078-0.023 0.148-0.055 0.211l1.461 2.531c0.195 0.039 0.344 0.219 0.344 0.43zM8.305 13.234h3.039l-2.672-2.766h-1.117l-2.672 2.766h2.812c0.078-0.070 0.187-0.125 0.305-0.125s0.227 0.055 0.305 0.125zM0.875 6.891c0.008 0.031 0.008 0.062 0.008 0.102s0 0.078-0.016 0.117l1.625 2.812c0.039 0.008 0.078 0.031 0.117 0.047l1.469-1.555v-2.711l-1.461-1.516c-0.070 0.047-0.148 0.070-0.227 0.078zM7.703 0.766h-3.031l1.484 1.563 4.328-1.563h-2.188c-0.078 0.078-0.18 0.125-0.297 0.125s-0.219-0.047-0.297-0.125zM13.195 10.234c0.008-0.031 0.023-0.062 0.039-0.086l-0.5-0.531-0.133 0.617h0.594zM12.367 10.234l0.172-0.82-1.969-2.078-2.313 2.398 0.492 0.5h3.617zM11.68 13.109l0.125-0.219 0.508-2.422h-3.336l2.602 2.68c0.031-0.016 0.062-0.031 0.102-0.039zM4.516 13.234h0.039l2.672-2.766h-2.914v2.617l0.031 0.047c0.070 0.023 0.125 0.055 0.172 0.102zM4.313 10.234h3.141l0.5-0.516-2.414-2.508-1.227 1.297v1.727zM2.805 10.234h1.273v-1.477l-1.313 1.383c0.016 0.031 0.031 0.062 0.039 0.094zM2.797 3.789c0 0.008 0.008 0.023 0.008 0.031 0 0.086-0.023 0.164-0.062 0.227l1.336 1.383v-2.102zM4.313 3.242v2.43l1.195 1.227 2.32-2.453-1.742-1.844zM4.344 0.867l-0.031 0.062v2.062l1.602-0.578-1.492-1.57c-0.023 0.008-0.047 0.016-0.078 0.023zM11.305 0.766h-0.125l-4.852 1.75 1.664 1.758zM7.992 4.609l-2.32 2.461 2.43 2.492 2.313-2.398zM5.375 7.047l-1.062-1.102v2.219zM8.109 9.891l-0.328 0.344h0.664zM10.734 7.172l1.859 1.961 1.031-4.875-0.023-0.039-0.008-0.008zM13.422 4.047c-0.039-0.062-0.062-0.141-0.062-0.227v-0.016l-1.688-2.937c-0.039-0.008-0.070-0.023-0.102-0.039l-3.414 3.617 2.422 2.555zM4.078 3.078v-1.742l-1.273 2.203zM4.078 10.469h-1.273l1.273 2.211v-2.211zM12.555 10.469l-0.375 1.773 1.016-1.773h-0.641zM13.508 9.922l1.617-2.82c-0.008-0.039-0.016-0.070-0.016-0.109 0-0.047 0.016-0.086 0.023-0.125l-1.336-2.313-1.008 4.781 0.602 0.641c0.039-0.023 0.078-0.039 0.117-0.055z"></path>
</svg>
