<!-- Generated by IcoMoon.io -->
<svg version="1.1" xmlns="http://www.w3.org/2000/svg" width="14" height="14" viewBox="0 0 14 14">
<title>contao</title>
<path d="M1.078 1h1.539c-0.367 0.336-0.695 0.727-0.984 1.164-1.211 1.867-0.719 3.914-0.25 6.117 0.383 1.789 0.703 3.492 1.82 4.719h-2.125c-0.5 0-0.906-0.406-0.906-0.906v-10.188c0-0.5 0.406-0.906 0.906-0.906zM10.516 1h2.406c0.5 0 0.906 0.406 0.906 0.906v10.188c0 0.5-0.406 0.906-0.906 0.906h-1.391c1.031-1.023 1.617-2.508 1.531-4.414l-3.664 0.789c-0.047 0.867-0.344 1.703-1.531 1.953-0.664 0.141-1.211-0.016-1.555-0.312-0.422-0.359-0.758-0.828-1.32-3.5-0.57-2.68-0.453-3.242-0.219-3.742 0.195-0.406 0.633-0.781 1.289-0.922 1.195-0.25 1.805 0.398 2.203 1.172l3.656-0.781c-0.359-0.922-0.836-1.672-1.406-2.242z"></path>
</svg>
