<!-- Generated by IcoMoon.io -->
<svg version="1.1" xmlns="http://www.w3.org/2000/svg" width="12" height="14" viewBox="0 0 12 14">
<title>copyright</title>
<path d="M8.984 8.391v0.852c0 1.102-1.758 1.508-2.859 1.508-2.141 0-3.75-1.633-3.75-3.789 0-2.117 1.594-3.711 3.711-3.711 0.773 0 2.797 0.273 2.797 1.516v0.852c0 0.070-0.055 0.125-0.125 0.125h-0.922c-0.070 0-0.125-0.055-0.125-0.125v-0.547c0-0.492-0.945-0.719-1.586-0.719-1.461 0-2.477 1.055-2.477 2.57 0 1.57 1.062 2.719 2.539 2.719 0.563 0 1.625-0.211 1.625-0.703v-0.547c0-0.070 0.055-0.125 0.117-0.125h0.93c0.062 0 0.125 0.055 0.125 0.125zM6 2c-2.758 0-5 2.242-5 5s2.242 5 5 5 5-2.242 5-5-2.242-5-5-5zM12 7c0 3.313-2.687 6-6 6s-6-2.687-6-6 2.687-6 6-6v0c3.313 0 6 2.687 6 6z"></path>
</svg>
