<!-- Generated by IcoMoon.io -->
<svg version="1.1" xmlns="http://www.w3.org/2000/svg" width="14" height="14" viewBox="0 0 14 14">
<title>creative-commons</title>
<path d="M4.727 9.633c1.281 0 1.977-0.781 2.008-0.813 0.062-0.078 0.078-0.195 0.023-0.281l-0.352-0.641c-0.031-0.070-0.109-0.117-0.187-0.133-0.078-0.008-0.156 0.023-0.211 0.086-0.008 0-0.5 0.523-1.219 0.523-0.789 0-1.359-0.578-1.359-1.383 0-0.797 0.555-1.367 1.328-1.367 0.648 0 1.078 0.438 1.078 0.438 0.055 0.055 0.125 0.086 0.203 0.078s0.148-0.047 0.187-0.109l0.414-0.609c0.062-0.094 0.055-0.219-0.016-0.305-0.023-0.031-0.656-0.75-1.898-0.75-1.539 0-2.687 1.133-2.687 2.633 0 1.523 1.125 2.633 2.687 2.633zM9.648 9.633c1.289 0 1.977-0.781 2.008-0.813 0.062-0.078 0.078-0.195 0.031-0.281l-0.352-0.641c-0.039-0.070-0.109-0.117-0.195-0.133-0.078-0.008-0.156 0.023-0.211 0.086-0.008 0-0.5 0.523-1.219 0.523-0.789 0-1.359-0.578-1.359-1.383 0-0.797 0.555-1.367 1.328-1.367 0.656 0 1.078 0.438 1.078 0.438 0.055 0.055 0.125 0.086 0.203 0.078s0.148-0.047 0.187-0.109l0.414-0.609c0.062-0.094 0.055-0.219-0.016-0.305-0.023-0.031-0.656-0.75-1.898-0.75-1.531 0-2.687 1.133-2.687 2.633 0 1.523 1.125 2.633 2.687 2.633zM7 1.25c-3.172 0-5.75 2.578-5.75 5.75s2.578 5.75 5.75 5.75 5.75-2.578 5.75-5.75-2.578-5.75-5.75-5.75zM7 0c3.867 0 7 3.133 7 7s-3.133 7-7 7-7-3.133-7-7 3.133-7 7-7z"></path>
</svg>
