<!-- Generated by IcoMoon.io -->
<svg version="1.1" xmlns="http://www.w3.org/2000/svg" width="13" height="14" viewBox="0 0 13 14">
<title>crop</title>
<path d="M4.352 10h4.648v-4.648zM4 9.648l4.648-4.648h-4.648v4.648zM13 10.25v1.5c0 0.141-0.109 0.25-0.25 0.25h-1.75v1.75c0 0.141-0.109 0.25-0.25 0.25h-1.5c-0.141 0-0.25-0.109-0.25-0.25v-1.75h-6.75c-0.141 0-0.25-0.109-0.25-0.25v-6.75h-1.75c-0.141 0-0.25-0.109-0.25-0.25v-1.5c0-0.141 0.109-0.25 0.25-0.25h1.75v-1.75c0-0.141 0.109-0.25 0.25-0.25h1.5c0.141 0 0.25 0.109 0.25 0.25v1.75h6.648l1.922-1.93c0.102-0.094 0.258-0.094 0.359 0 0.094 0.102 0.094 0.258 0 0.359l-1.93 1.922v6.648h1.75c0.141 0 0.25 0.109 0.25 0.25z"></path>
</svg>
