<!-- Generated by IcoMoon.io -->
<svg version="1.1" xmlns="http://www.w3.org/2000/svg" width="12" height="14" viewBox="0 0 12 14">
<title>crosshairs</title>
<path d="M9.352 8h-0.852c-0.273 0-0.5-0.227-0.5-0.5v-1c0-0.273 0.227-0.5 0.5-0.5h0.852c-0.336-1.125-1.227-2.016-2.352-2.352v0.852c0 0.273-0.227 0.5-0.5 0.5h-1c-0.273 0-0.5-0.227-0.5-0.5v-0.852c-1.125 0.336-2.016 1.227-2.352 2.352h0.852c0.273 0 0.5 0.227 0.5 0.5v1c0 0.273-0.227 0.5-0.5 0.5h-0.852c0.336 1.125 1.227 2.016 2.352 2.352v-0.852c0-0.273 0.227-0.5 0.5-0.5h1c0.273 0 0.5 0.227 0.5 0.5v0.852c1.125-0.336 2.016-1.227 2.352-2.352zM12 6.5v1c0 0.273-0.227 0.5-0.5 0.5h-1.117c-0.383 1.68-1.703 3-3.383 3.383v1.117c0 0.273-0.227 0.5-0.5 0.5h-1c-0.273 0-0.5-0.227-0.5-0.5v-1.117c-1.68-0.383-3-1.703-3.383-3.383h-1.117c-0.273 0-0.5-0.227-0.5-0.5v-1c0-0.273 0.227-0.5 0.5-0.5h1.117c0.383-1.68 1.703-3 3.383-3.383v-1.117c0-0.273 0.227-0.5 0.5-0.5h1c0.273 0 0.5 0.227 0.5 0.5v1.117c1.68 0.383 3 1.703 3.383 3.383h1.117c0.273 0 0.5 0.227 0.5 0.5z"></path>
</svg>
