<!-- Generated by IcoMoon.io -->
<svg version="1.1" xmlns="http://www.w3.org/2000/svg" width="13" height="14" viewBox="0 0 13 14">
<title>cube</title>
<path d="M7 12.727l5-2.727v-4.969l-5 1.82v5.875zM6.5 5.969l5.453-1.984-5.453-1.984-5.453 1.984zM13 4v6c0 0.367-0.203 0.703-0.523 0.875l-5.5 3c-0.148 0.086-0.312 0.125-0.477 0.125s-0.328-0.039-0.477-0.125l-5.5-3c-0.32-0.172-0.523-0.508-0.523-0.875v-6c0-0.422 0.266-0.797 0.656-0.937l5.5-2c0.109-0.039 0.227-0.062 0.344-0.062s0.234 0.023 0.344 0.062l5.5 2c0.391 0.141 0.656 0.516 0.656 0.937z"></path>
</svg>
