<!-- Generated by IcoMoon.io -->
<svg version="1.1" xmlns="http://www.w3.org/2000/svg" width="17" height="14" viewBox="0 0 17 14">
<title>cubes</title>
<path d="M5 12.75l3-1.5v-2.453l-3 1.281v2.672zM4.5 9.203l3.156-1.352-3.156-1.352-3.156 1.352zM13 12.75l3-1.5v-2.453l-3 1.281v2.672zM12.5 9.203l3.156-1.352-3.156-1.352-3.156 1.352zM9 6.914l3-1.289v-2.078l-3 1.281v2.086zM8.5 3.953l3.445-1.477-3.445-1.477-3.445 1.477zM17 8v3.25c0 0.375-0.211 0.727-0.555 0.891l-3.5 1.75c-0.141 0.078-0.289 0.109-0.445 0.109s-0.305-0.031-0.445-0.109l-3.5-1.75c-0.023-0.008-0.039-0.016-0.055-0.031-0.016 0.016-0.031 0.023-0.055 0.031l-3.5 1.75c-0.141 0.078-0.289 0.109-0.445 0.109s-0.305-0.031-0.445-0.109l-3.5-1.75c-0.344-0.164-0.555-0.516-0.555-0.891v-3.25c0-0.398 0.242-0.758 0.609-0.922l3.391-1.453v-3.125c0-0.398 0.242-0.758 0.609-0.922l3.5-1.5c0.125-0.055 0.258-0.078 0.391-0.078s0.266 0.023 0.391 0.078l3.5 1.5c0.367 0.164 0.609 0.523 0.609 0.922v3.125l3.391 1.453c0.375 0.164 0.609 0.523 0.609 0.922z"></path>
</svg>
