<!-- Generated by IcoMoon.io -->
<svg version="1.1" xmlns="http://www.w3.org/2000/svg" width="14" height="14" viewBox="0 0 14 14">
<title>cut</title>
<path d="M7.5 7c0.273 0 0.5 0.227 0.5 0.5s-0.227 0.5-0.5 0.5-0.5-0.227-0.5-0.5 0.227-0.5 0.5-0.5zM9.844 7.5l3.961 3.109c0.141 0.102 0.211 0.273 0.195 0.438-0.023 0.172-0.125 0.32-0.273 0.398l-1 0.5c-0.070 0.039-0.148 0.055-0.227 0.055-0.086 0-0.172-0.023-0.242-0.062l-5.391-3.023-0.859 0.516c-0.031 0.016-0.062 0.031-0.094 0.039 0.070 0.242 0.102 0.5 0.078 0.758-0.070 0.805-0.609 1.57-1.469 2.117-0.664 0.422-1.43 0.656-2.164 0.656-0.703 0-1.297-0.211-1.734-0.609-0.445-0.414-0.672-1.008-0.617-1.617 0.070-0.797 0.609-1.57 1.461-2.117 0.664-0.422 1.438-0.656 2.172-0.656 0.438 0 0.836 0.086 1.18 0.242 0.047-0.070 0.102-0.125 0.172-0.172l0.953-0.57-0.953-0.57c-0.070-0.047-0.125-0.102-0.172-0.172-0.344 0.156-0.742 0.242-1.18 0.242-0.734 0-1.508-0.234-2.172-0.656-0.852-0.547-1.391-1.32-1.461-2.117-0.055-0.609 0.172-1.203 0.617-1.609 0.438-0.406 1.031-0.617 1.734-0.617 0.734 0 1.5 0.234 2.164 0.656 0.859 0.539 1.398 1.313 1.469 2.117 0.023 0.258-0.008 0.516-0.078 0.758 0.031 0.008 0.062 0.023 0.094 0.039l0.859 0.516 5.391-3.023c0.070-0.039 0.156-0.062 0.242-0.062 0.078 0 0.156 0.016 0.227 0.055l1 0.5c0.148 0.078 0.25 0.227 0.273 0.398 0.016 0.164-0.055 0.336-0.195 0.438zM4.523 5.469c0.477-0.438 0.18-1.227-0.664-1.758-0.477-0.305-1.031-0.461-1.5-0.461-0.359 0-0.68 0.094-0.883 0.281-0.477 0.438-0.18 1.227 0.664 1.758 0.477 0.305 1.023 0.461 1.5 0.461 0.359 0 0.68-0.094 0.883-0.281zM3.859 11.289c0.844-0.531 1.141-1.32 0.664-1.758-0.203-0.187-0.523-0.281-0.883-0.281-0.477 0-1.023 0.156-1.5 0.461-0.844 0.531-1.141 1.32-0.664 1.758 0.203 0.187 0.523 0.281 0.883 0.281 0.469 0 1.023-0.156 1.5-0.461zM5.25 6.5l0.75 0.453v-0.086c0-0.18 0.102-0.344 0.258-0.438l0.109-0.062-0.617-0.367-0.203 0.203c-0.062 0.062-0.109 0.125-0.172 0.18-0.023 0.023-0.039 0.031-0.055 0.047zM7 8.25l0.75 0.25 5.75-4.5-1-0.5-6 3.367v0.883l-1.25 0.75 0.070 0.062c0.016 0.023 0.031 0.031 0.055 0.047 0.062 0.062 0.109 0.125 0.172 0.187l0.203 0.203zM12.5 11.5l1-0.5-4.063-3.188-1.383 1.078c-0.023 0.031-0.062 0.039-0.102 0.055z"></path>
</svg>
