<!-- Generated by IcoMoon.io -->
<svg version="1.1" xmlns="http://www.w3.org/2000/svg" width="11" height="14" viewBox="0 0 11 14">
<title>cutlery</title>
<path d="M5 0.5v5c0 0.633-0.406 1.203-1 1.414v6.086c0 0.547-0.453 1-1 1h-1c-0.547 0-1-0.453-1-1v-6.086c-0.594-0.211-1-0.781-1-1.414v-5c0-0.273 0.227-0.5 0.5-0.5s0.5 0.227 0.5 0.5v3.25c0 0.273 0.227 0.5 0.5 0.5s0.5-0.227 0.5-0.5v-3.25c0-0.273 0.227-0.5 0.5-0.5s0.5 0.227 0.5 0.5v3.25c0 0.273 0.227 0.5 0.5 0.5s0.5-0.227 0.5-0.5v-3.25c0-0.273 0.227-0.5 0.5-0.5s0.5 0.227 0.5 0.5zM11 0.5v12.5c0 0.547-0.453 1-1 1h-1c-0.547 0-1-0.453-1-1v-4h-1.75c-0.133 0-0.25-0.117-0.25-0.25v-6.25c0-1.375 1.125-2.5 2.5-2.5h2c0.273 0 0.5 0.227 0.5 0.5z"></path>
</svg>
