<!-- Generated by IcoMoon.io -->
<svg version="1.1" xmlns="http://www.w3.org/2000/svg" width="14" height="14" viewBox="0 0 14 14">
<title>dashboard</title>
<path d="M3 9c0-0.555-0.445-1-1-1s-1 0.445-1 1 0.445 1 1 1 1-0.445 1-1zM4.5 5.5c0-0.555-0.445-1-1-1s-1 0.445-1 1 0.445 1 1 1 1-0.445 1-1zM7.844 9.258l0.789-2.984c0.062-0.266-0.094-0.539-0.359-0.609v0c-0.266-0.070-0.539 0.094-0.609 0.359l-0.789 2.984c-0.617 0.047-1.156 0.477-1.328 1.109-0.211 0.805 0.273 1.625 1.070 1.836 0.805 0.211 1.625-0.273 1.836-1.070 0.164-0.633-0.102-1.273-0.609-1.625zM13 9c0-0.555-0.445-1-1-1s-1 0.445-1 1 0.445 1 1 1 1-0.445 1-1zM8 4c0-0.555-0.445-1-1-1s-1 0.445-1 1 0.445 1 1 1 1-0.445 1-1zM11.5 5.5c0-0.555-0.445-1-1-1s-1 0.445-1 1 0.445 1 1 1 1-0.445 1-1zM14 9c0 1.344-0.383 2.641-1.102 3.773-0.094 0.141-0.25 0.227-0.422 0.227h-10.953c-0.172 0-0.328-0.086-0.422-0.227-0.719-1.125-1.102-2.43-1.102-3.773 0-3.859 3.141-7 7-7s7 3.141 7 7z"></path>
</svg>
