<!-- Generated by IcoMoon.io -->
<svg version="1.1" xmlns="http://www.w3.org/2000/svg" width="12" height="14" viewBox="0 0 12 14">
<title>database</title>
<path d="M6 6c2.352 0 4.711-0.422 6-1.328v1.328c0 1.102-2.687 2-6 2s-6-0.898-6-2v-1.328c1.289 0.906 3.648 1.328 6 1.328zM6 12c2.352 0 4.711-0.422 6-1.328v1.328c0 1.102-2.687 2-6 2s-6-0.898-6-2v-1.328c1.289 0.906 3.648 1.328 6 1.328zM6 9c2.352 0 4.711-0.422 6-1.328v1.328c0 1.102-2.687 2-6 2s-6-0.898-6-2v-1.328c1.289 0.906 3.648 1.328 6 1.328zM6 0c3.313 0 6 0.898 6 2v1c0 1.102-2.687 2-6 2s-6-0.898-6-2v-1c0-1.102 2.687-2 6-2z"></path>
</svg>
