<!-- Generated by IcoMoon.io -->
<svg version="1.1" xmlns="http://www.w3.org/2000/svg" width="14" height="14" viewBox="0 0 14 14">
<title>deaf</title>
<path d="M8.25 6.5c0 0.273 0.227 0.5 0.5 0.5s0.5-0.227 0.5-0.5c0-1.516-1.234-2.75-2.75-2.75s-2.75 1.234-2.75 2.75c0 0.273 0.227 0.5 0.5 0.5s0.5-0.227 0.5-0.5c0-0.969 0.789-1.75 1.75-1.75s1.75 0.781 1.75 1.75zM6.523 2c-2.484 0-4.5 2.016-4.5 4.5 0 0.273 0.227 0.5 0.5 0.5s0.5-0.227 0.5-0.5c0-1.93 1.57-3.5 3.5-3.5s3.5 1.57 3.5 3.5c0 0.922-0.414 1.398-0.898 1.953-0.523 0.602-1.125 1.289-1.125 2.547 0 1.102-0.898 2-2 2-0.273 0-0.5 0.227-0.5 0.5s0.227 0.5 0.5 0.5c1.656 0 3-1.344 3-3 0-0.883 0.391-1.328 0.883-1.891 0.531-0.617 1.141-1.313 1.141-2.609 0-2.484-2.016-4.5-4.5-4.5zM4.617 7.617l1.766 1.766-4.523 4.523c-0.125 0.125-0.328 0.125-0.453 0l-1.313-1.313c-0.125-0.125-0.125-0.328 0-0.453zM12.594 0.094l1.313 1.313c0.125 0.125 0.125 0.328 0 0.461l-1.82 1.82-0.203 0.195-0.555 0.555c-0.336-0.781-0.852-1.469-1.523-2.016l2.328-2.328c0.133-0.125 0.336-0.125 0.461 0z"></path>
</svg>
