<!-- Generated by IcoMoon.io -->
<svg version="1.1" xmlns="http://www.w3.org/2000/svg" width="15" height="14" viewBox="0 0 15 14">
<title>desktop</title>
<path d="M14 7.75v-6.5c0-0.133-0.117-0.25-0.25-0.25h-12.5c-0.133 0-0.25 0.117-0.25 0.25v6.5c0 0.133 0.117 0.25 0.25 0.25h12.5c0.133 0 0.25-0.117 0.25-0.25zM15 1.25v8.5c0 0.688-0.563 1.25-1.25 1.25h-4.25c0 0.664 0.5 1.227 0.5 1.5s-0.227 0.5-0.5 0.5h-4c-0.273 0-0.5-0.227-0.5-0.5 0-0.289 0.5-0.82 0.5-1.5h-4.25c-0.688 0-1.25-0.563-1.25-1.25v-8.5c0-0.688 0.563-1.25 1.25-1.25h12.5c0.688 0 1.25 0.563 1.25 1.25z"></path>
</svg>
