<!-- Generated by IcoMoon.io -->
<svg version="1.1" xmlns="http://www.w3.org/2000/svg" width="16" height="14" viewBox="0 0 16 14">
<title>diamond</title>
<path d="M1.656 6l4.867 5.195-2.344-5.195h-2.523zM8 12.031l2.727-6.031h-5.453zM4.203 5l1.594-3h-2.047l-2.25 3h2.703zM9.477 11.195l4.867-5.195h-2.523zM5.336 5h5.328l-1.594-3h-2.141zM11.797 5h2.703l-2.25-3h-2.047zM12.898 1.203l3 4c0.148 0.187 0.133 0.461-0.031 0.641l-7.5 8c-0.094 0.102-0.227 0.156-0.367 0.156s-0.273-0.055-0.367-0.156l-7.5-8c-0.164-0.18-0.18-0.453-0.031-0.641l3-4c0.094-0.133 0.242-0.203 0.398-0.203h9c0.156 0 0.305 0.070 0.398 0.203z"></path>
</svg>
