<!-- Generated by IcoMoon.io -->
<svg version="1.1" xmlns="http://www.w3.org/2000/svg" width="8" height="14" viewBox="0 0 8 14">
<title>dollar</title>
<path d="M7.641 9.258c0 1.594-1.141 2.852-2.797 3.125v1.367c0 0.141-0.109 0.25-0.25 0.25h-1.055c-0.133 0-0.25-0.109-0.25-0.25v-1.367c-1.828-0.258-2.828-1.352-2.867-1.398-0.078-0.094-0.086-0.227-0.016-0.32l0.805-1.055c0.039-0.055 0.109-0.086 0.18-0.094s0.141 0.016 0.187 0.070c0.016 0.008 1.109 1.055 2.492 1.055 0.766 0 1.594-0.406 1.594-1.289 0-0.75-0.922-1.117-1.977-1.539-1.406-0.555-3.156-1.258-3.156-3.219 0-1.438 1.125-2.625 2.758-2.937v-1.406c0-0.141 0.117-0.25 0.25-0.25h1.055c0.141 0 0.25 0.109 0.25 0.25v1.375c1.586 0.18 2.43 1.039 2.461 1.070 0.078 0.086 0.094 0.203 0.039 0.297l-0.633 1.141c-0.039 0.070-0.102 0.117-0.18 0.125-0.078 0.016-0.148-0.008-0.211-0.055-0.008-0.008-0.953-0.844-2.125-0.844-0.992 0-1.68 0.492-1.68 1.203 0 0.828 0.953 1.195 2.062 1.625 1.438 0.555 3.063 1.187 3.063 3.070z"></path>
</svg>
