<!-- Generated by IcoMoon.io -->
<svg version="1.1" xmlns="http://www.w3.org/2000/svg" width="13" height="14" viewBox="0 0 13 14">
<title>download</title>
<path d="M10 10.5c0-0.273-0.227-0.5-0.5-0.5s-0.5 0.227-0.5 0.5 0.227 0.5 0.5 0.5 0.5-0.227 0.5-0.5zM12 10.5c0-0.273-0.227-0.5-0.5-0.5s-0.5 0.227-0.5 0.5 0.227 0.5 0.5 0.5 0.5-0.227 0.5-0.5zM13 8.75v2.5c0 0.414-0.336 0.75-0.75 0.75h-11.5c-0.414 0-0.75-0.336-0.75-0.75v-2.5c0-0.414 0.336-0.75 0.75-0.75h3.633l1.055 1.062c0.289 0.281 0.664 0.438 1.062 0.438s0.773-0.156 1.062-0.438l1.062-1.062h3.625c0.414 0 0.75 0.336 0.75 0.75zM10.461 4.305c0.078 0.187 0.039 0.406-0.109 0.547l-3.5 3.5c-0.094 0.102-0.227 0.148-0.352 0.148s-0.258-0.047-0.352-0.148l-3.5-3.5c-0.148-0.141-0.187-0.359-0.109-0.547 0.078-0.18 0.258-0.305 0.461-0.305h2v-3.5c0-0.273 0.227-0.5 0.5-0.5h2c0.273 0 0.5 0.227 0.5 0.5v3.5h2c0.203 0 0.383 0.125 0.461 0.305z"></path>
</svg>
