<!-- Generated by IcoMoon.io -->
<svg version="1.1" xmlns="http://www.w3.org/2000/svg" width="12" height="14" viewBox="0 0 12 14">
<title>dribbble</title>
<path d="M8 11.719c-0.078-0.453-0.375-2.016-1.094-3.891-0.008 0-0.023 0.008-0.031 0.008 0 0-3.039 1.062-4.023 3.203-0.047-0.039-0.117-0.086-0.117-0.086 0.891 0.727 2.023 1.172 3.266 1.172 0.711 0 1.383-0.148 2-0.406zM6.555 6.977c-0.125-0.289-0.266-0.578-0.414-0.867-2.641 0.789-5.172 0.727-5.258 0.727-0.008 0.055-0.008 0.109-0.008 0.164 0 1.313 0.5 2.516 1.313 3.422v0c1.398-2.492 4.164-3.383 4.164-3.383 0.070-0.023 0.141-0.039 0.203-0.062zM5.719 5.32c-0.891-1.578-1.836-2.859-1.906-2.953-1.43 0.672-2.492 1.992-2.828 3.578 0.133 0 2.273 0.023 4.734-0.625zM11.063 7.813c-0.109-0.031-1.539-0.484-3.195-0.227 0.672 1.852 0.945 3.359 1 3.664 1.148-0.773 1.961-2.008 2.195-3.438zM4.773 2.023c-0.008 0-0.008 0-0.016 0.008 0 0 0.008-0.008 0.016-0.008zM9.383 3.156c-0.898-0.797-2.086-1.281-3.383-1.281-0.414 0-0.82 0.055-1.211 0.148 0.078 0.102 1.047 1.375 1.922 2.984 1.93-0.719 2.656-1.828 2.672-1.852zM11.125 6.945c-0.016-1.211-0.445-2.328-1.164-3.203-0.016 0.016-0.836 1.203-2.859 2.031 0.117 0.242 0.234 0.492 0.344 0.742 0.039 0.086 0.070 0.18 0.109 0.266 1.766-0.227 3.508 0.156 3.57 0.164zM12 7c0 3.313-2.687 6-6 6s-6-2.687-6-6 2.687-6 6-6 6 2.687 6 6z"></path>
</svg>
