<!-- Generated by IcoMoon.io -->
<svg version="1.1" xmlns="http://www.w3.org/2000/svg" width="16" height="14" viewBox="0 0 16 14">
<title>drivers-license-o</title>
<path d="M7 9.469c0 0.57-0.375 1.031-0.836 1.031h-3.328c-0.461 0-0.836-0.461-0.836-1.031 0-1.031 0.25-2.219 1.281-2.219 0.312 0.312 0.742 0.5 1.219 0.5s0.906-0.187 1.219-0.5c1.031 0 1.281 1.187 1.281 2.219zM6 6c0 0.828-0.672 1.5-1.5 1.5s-1.5-0.672-1.5-1.5 0.672-1.5 1.5-1.5 1.5 0.672 1.5 1.5zM14 9.25v0.5c0 0.141-0.109 0.25-0.25 0.25h-5.5c-0.141 0-0.25-0.109-0.25-0.25v-0.5c0-0.141 0.109-0.25 0.25-0.25h5.5c0.141 0 0.25 0.109 0.25 0.25zM11 7.25v0.5c0 0.141-0.109 0.25-0.25 0.25h-2.5c-0.141 0-0.25-0.109-0.25-0.25v-0.5c0-0.141 0.109-0.25 0.25-0.25h2.5c0.141 0 0.25 0.109 0.25 0.25zM14 7.25v0.5c0 0.141-0.109 0.25-0.25 0.25h-1.5c-0.141 0-0.25-0.109-0.25-0.25v-0.5c0-0.141 0.109-0.25 0.25-0.25h1.5c0.141 0 0.25 0.109 0.25 0.25zM14 5.25v0.5c0 0.141-0.109 0.25-0.25 0.25h-5.5c-0.141 0-0.25-0.109-0.25-0.25v-0.5c0-0.141 0.109-0.25 0.25-0.25h5.5c0.141 0 0.25 0.109 0.25 0.25zM15 11.75v-8.75h-14v8.75c0 0.133 0.117 0.25 0.25 0.25h13.5c0.133 0 0.25-0.117 0.25-0.25zM16 2.25v9.5c0 0.688-0.563 1.25-1.25 1.25h-13.5c-0.688 0-1.25-0.563-1.25-1.25v-9.5c0-0.688 0.563-1.25 1.25-1.25h13.5c0.688 0 1.25 0.563 1.25 1.25z"></path>
</svg>
