<!-- Generated by IcoMoon.io -->
<svg version="1.1" xmlns="http://www.w3.org/2000/svg" width="12" height="14" viewBox="0 0 12 14">
<title>drupal</title>
<path d="M9.117 12.391c-0.016-0.055-0.062-0.133-0.187-0.039-0.266 0.195-0.859 0.438-1.703 0.438s-1.242-0.18-1.508-0.383c-0.039-0.031-0.023-0.031-0.102-0.031-0.086 0-0.133 0.039-0.203 0.094-0.062 0.055-0.094 0.187 0 0.281 0.578 0.531 1.547 0.484 2.258 0.422 0.719-0.070 1.328-0.492 1.391-0.555 0.094-0.094 0.070-0.172 0.055-0.227zM8.812 11.492c-0.055-0.133-0.148-0.367-0.305-0.477-0.156-0.102-0.383-0.117-0.594-0.117s-0.328-0.016-0.555 0.078-0.461 0.305-0.609 0.438-0.172 0.234-0.094 0.344c0.078 0.102 0.164 0.039 0.383-0.148 0.227-0.18 0.375-0.344 0.836-0.344s0.539 0.172 0.633 0.344 0.102 0.195 0.195 0.148c0.109-0.055 0.164-0.133 0.109-0.266zM11.586 9.297c0-0.406-0.18-1.094-0.844-1.094-0.625 0-1.891 1.297-2.555 1.305-0.773 0.016-1.844-1.531-3.391-1.516-1.219 0.008-2.18 0.977-2.195 2.008-0.008 0.578 0.18 1.008 0.578 1.281 0.266 0.18 0.508 0.289 1.297 0.289 1.313 0 2.977-1.625 3.742-1.602 0.609 0.023 1.555 1.516 2.031 1.547 0.375 0.031 0.57-0.141 0.891-0.602 0.312-0.469 0.445-1.203 0.445-1.617zM12 8.047c0 3.5-2.766 5.813-5.945 5.813-3.188 0-6.055-2.508-6.055-5.922 0-3.406 2.656-4.984 3.148-5.242 0.586-0.312 1.008-0.477 1.672-1.008 0.328-0.258 0.602-0.633 0.688-1.547 0.477 0.57 1.047 1.234 1.453 1.508 0.664 0.438 1.328 0.609 2.023 1.047 0.422 0.258 3.016 1.844 3.016 5.352z"></path>
</svg>
