<!-- Generated by IcoMoon.io -->
<svg version="1.1" xmlns="http://www.w3.org/2000/svg" width="14" height="14" viewBox="0 0 14 14">
<title>edge</title>
<path d="M0.539 6.211h0.008c0.406-3.234 2.617-6.219 6.57-6.211 2.398 0 4.375 1.125 5.531 3.195 0.594 1.070 0.813 2.211 0.813 3.453v1.469h-8.789c0.039 3.625 5.328 3.5 7.609 1.906v2.945c-1.336 0.805-4.352 1.5-6.703 0.602-1.992-0.766-3.383-2.836-3.406-4.852-0.031-2.602 1.289-4.328 3.406-5.312-0.445 0.563-0.789 1.172-0.969 2.227h4.961c0.289-2.961-2.805-2.961-2.805-2.961-2.922 0.102-5.031 1.805-6.227 3.539z"></path>
</svg>
