<!-- Generated by IcoMoon.io -->
<svg version="1.1" xmlns="http://www.w3.org/2000/svg" width="14" height="14" viewBox="0 0 14 14">
<title>edit</title>
<path d="M6.938 9.25l0.906-0.906-1.187-1.187-0.906 0.906v0.438h0.75v0.75h0.438zM10.375 3.625c-0.070-0.070-0.187-0.062-0.258 0.008l-2.734 2.734c-0.070 0.070-0.078 0.187-0.008 0.258s0.187 0.062 0.258-0.008l2.734-2.734c0.070-0.070 0.078-0.187 0.008-0.258zM11 8.266v1.484c0 1.242-1.008 2.25-2.25 2.25h-6.5c-1.242 0-2.25-1.008-2.25-2.25v-6.5c0-1.242 1.008-2.25 2.25-2.25h6.5c0.312 0 0.625 0.062 0.914 0.195 0.070 0.031 0.125 0.102 0.141 0.18 0.016 0.086-0.008 0.164-0.070 0.227l-0.383 0.383c-0.070 0.070-0.164 0.094-0.25 0.062-0.117-0.031-0.234-0.047-0.352-0.047h-6.5c-0.688 0-1.25 0.563-1.25 1.25v6.5c0 0.688 0.563 1.25 1.25 1.25h6.5c0.688 0 1.25-0.563 1.25-1.25v-0.984c0-0.062 0.023-0.125 0.070-0.172l0.5-0.5c0.078-0.078 0.18-0.094 0.273-0.055s0.156 0.125 0.156 0.227zM10.25 2.5l2.25 2.25-5.25 5.25h-2.25v-2.25zM13.719 3.531l-0.719 0.719-2.25-2.25 0.719-0.719c0.289-0.289 0.773-0.289 1.062 0l1.187 1.187c0.289 0.289 0.289 0.773 0 1.062z"></path>
</svg>
