<!-- Generated by IcoMoon.io -->
<svg version="1.1" xmlns="http://www.w3.org/2000/svg" width="13" height="14" viewBox="0 0 13 14">
<title>eercast</title>
<path d="M10.477 6.125c0.273-0.422-0.047-1.492-1-2.125-0.945-0.633-2.156-0.586-2.438-0.164-0.273 0.414 0.312 0.148 1.383 0.547 1.766 0.656 1.781 2.164 2.055 1.742zM13.312 10.609c-2.211 5.437-12.172 4.063-11.961-2.992 0.023-0.898 0.273-1.5 0.531-2.359-1.648 6.75 7.547 10.68 11.32 5.352 0.141-0.195 0.18-0.18 0.109 0zM11.445 7.102c0 2.211-1.781 4.008-3.977 4.008s-3.977-1.797-3.977-4.008 1.781-4.008 3.977-4.008 3.977 1.797 3.977 4.008zM13.688 4.852c-2.781-6.312-14.266-3.984-12.992 4.602-2.641-8.602 8.242-12.547 12.266-6.422 0.328 0.5 0.703 1.375 0.727 1.82zM13.203 7.523c0.133-2.641-1.695-4.445-4.164-5.125-0.039 0-0.211-0.070 0.109-0.102 6.031 0.203 6.25 9.844-0.32 9.953 2.141-0.594 4.242-2.078 4.375-4.727z"></path>
</svg>
