<!-- Generated by IcoMoon.io -->
<svg version="1.1" xmlns="http://www.w3.org/2000/svg" width="11" height="14" viewBox="0 0 11 14">
<title>ellipsis-h</title>
<path d="M3 5.75v1.5c0 0.414-0.336 0.75-0.75 0.75h-1.5c-0.414 0-0.75-0.336-0.75-0.75v-1.5c0-0.414 0.336-0.75 0.75-0.75h1.5c0.414 0 0.75 0.336 0.75 0.75zM7 5.75v1.5c0 0.414-0.336 0.75-0.75 0.75h-1.5c-0.414 0-0.75-0.336-0.75-0.75v-1.5c0-0.414 0.336-0.75 0.75-0.75h1.5c0.414 0 0.75 0.336 0.75 0.75zM11 5.75v1.5c0 0.414-0.336 0.75-0.75 0.75h-1.5c-0.414 0-0.75-0.336-0.75-0.75v-1.5c0-0.414 0.336-0.75 0.75-0.75h1.5c0.414 0 0.75 0.336 0.75 0.75z"></path>
</svg>
