<!-- Generated by IcoMoon.io -->
<svg version="1.1" xmlns="http://www.w3.org/2000/svg" width="14" height="14" viewBox="0 0 14 14">
<title>empire</title>
<path d="M6.828 12.797v0.516c-2.203-0.062-4.133-1.25-5.219-3.008l0.453-0.266c0.164 0.273 0.359 0.531 0.57 0.773l0.508-0.445c0.734 0.836 1.734 1.43 2.875 1.656l-0.133 0.672c0.305 0.055 0.625 0.094 0.945 0.102zM2.156 8.656l-0.648 0.219c0.109 0.305 0.234 0.594 0.383 0.875l-0.445 0.258c-0.484-0.891-0.766-1.922-0.766-3.008s0.281-2.117 0.766-3.008l0.445 0.258c-0.148 0.273-0.281 0.57-0.383 0.875l0.641 0.219c-0.18 0.516-0.273 1.078-0.273 1.656s0.102 1.141 0.281 1.656zM11.938 10.039l0.453 0.266c-1.086 1.758-3.016 2.945-5.219 3.008v-0.516c0.32-0.008 0.641-0.047 0.945-0.102l-0.133-0.672c1.141-0.227 2.141-0.82 2.875-1.656l0.508 0.445c0.211-0.242 0.406-0.5 0.57-0.773zM10.758 5.711l-1.82 0.625c0.070 0.211 0.109 0.43 0.109 0.664s-0.039 0.453-0.109 0.664l1.812 0.625c-0.164 0.492-0.43 0.937-0.766 1.32l-1.445-1.266c-0.289 0.336-0.688 0.57-1.148 0.664l0.375 1.883c-0.242 0.047-0.5 0.078-0.766 0.078s-0.523-0.031-0.766-0.078l0.375-1.883c-0.461-0.094-0.859-0.328-1.148-0.664l-1.445 1.266c-0.336-0.383-0.602-0.828-0.766-1.32l1.812-0.625c-0.070-0.211-0.109-0.43-0.109-0.664s0.039-0.453 0.109-0.664l-1.82-0.625c0.172-0.492 0.437-0.937 0.773-1.32l1.445 1.266c0.289-0.336 0.688-0.578 1.148-0.672l-0.375-1.875c0.242-0.055 0.5-0.078 0.766-0.078s0.523 0.023 0.766 0.078l-0.375 1.875c0.461 0.094 0.859 0.336 1.148 0.672l1.445-1.266c0.336 0.383 0.602 0.828 0.773 1.32zM6.828 0.688v0.516c-0.32 0.008-0.641 0.039-0.945 0.102l0.133 0.672c-1.141 0.219-2.141 0.813-2.875 1.648l-0.508-0.438c-0.211 0.234-0.398 0.492-0.57 0.766l-0.445-0.258c1.086-1.766 3.008-2.945 5.211-3.008v0zM13.32 7c0 1.086-0.281 2.117-0.766 3.008l-0.445-0.258c0.148-0.281 0.273-0.57 0.383-0.875l-0.648-0.219c0.18-0.516 0.281-1.078 0.281-1.656s-0.094-1.141-0.273-1.656l0.641-0.219c-0.102-0.305-0.234-0.602-0.383-0.875l0.445-0.258c0.484 0.891 0.766 1.922 0.766 3.008zM12.383 3.695l-0.445 0.258c-0.172-0.273-0.359-0.531-0.57-0.766l-0.508 0.438c-0.734-0.836-1.734-1.43-2.875-1.648l0.133-0.672c-0.305-0.062-0.625-0.094-0.945-0.102v-0.516c2.203 0.062 4.125 1.242 5.211 3.008zM13.656 7c0-3.672-2.984-6.656-6.656-6.656v0c-3.672 0-6.656 2.984-6.656 6.656s2.984 6.656 6.656 6.656 6.656-2.984 6.656-6.656zM14 7c0 3.867-3.133 7-7 7s-7-3.133-7-7 3.133-7 7-7v0c3.867 0 7 3.133 7 7z"></path>
</svg>
