<!-- Generated by IcoMoon.io -->
<svg version="1.1" xmlns="http://www.w3.org/2000/svg" width="14" height="14" viewBox="0 0 14 14">
<title>envelope-o</title>
<path d="M13 11.75v-6c-0.164 0.187-0.344 0.359-0.539 0.516-1.117 0.859-2.242 1.734-3.328 2.641-0.586 0.492-1.313 1.094-2.125 1.094h-0.016c-0.813 0-1.539-0.602-2.125-1.094-1.086-0.906-2.211-1.781-3.328-2.641-0.195-0.156-0.375-0.328-0.539-0.516v6c0 0.133 0.117 0.25 0.25 0.25h11.5c0.133 0 0.25-0.117 0.25-0.25zM13 3.539c0-0.195 0.047-0.539-0.25-0.539h-11.5c-0.133 0-0.25 0.117-0.25 0.25 0 0.891 0.445 1.664 1.148 2.219 1.047 0.82 2.094 1.648 3.133 2.477 0.414 0.336 1.164 1.055 1.711 1.055h0.016c0.547 0 1.297-0.719 1.711-1.055 1.039-0.828 2.086-1.656 3.133-2.477 0.508-0.398 1.148-1.266 1.148-1.93zM14 3.25v8.5c0 0.688-0.563 1.25-1.25 1.25h-11.5c-0.688 0-1.25-0.563-1.25-1.25v-8.5c0-0.688 0.563-1.25 1.25-1.25h11.5c0.688 0 1.25 0.563 1.25 1.25z"></path>
</svg>
