<!-- Generated by IcoMoon.io -->
<svg version="1.1" xmlns="http://www.w3.org/2000/svg" width="12" height="14" viewBox="0 0 12 14">
<title>envelope-square</title>
<path d="M9.75 1c1.242 0 2.25 1.008 2.25 2.25v7.5c0 1.242-1.008 2.25-2.25 2.25h-7.5c-1.242 0-2.25-1.008-2.25-2.25v-7.5c0-1.242 1.008-2.25 2.25-2.25h7.5zM10 9.25v-3.406c-0.148 0.164-0.312 0.312-0.5 0.43-0.734 0.484-1.492 0.937-2.219 1.438-0.367 0.258-0.82 0.539-1.281 0.539v0 0 0 0c-0.461 0-0.914-0.281-1.281-0.539-0.727-0.5-1.492-0.945-2.219-1.445-0.18-0.117-0.32-0.289-0.5-0.422v3.406c0 0.414 0.336 0.75 0.75 0.75h6.5c0.414 0 0.75-0.336 0.75-0.75zM10 4.773c0-0.422-0.312-0.773-0.75-0.773h-6.5c-0.414 0-0.75 0.336-0.75 0.75 0 0.422 0.438 0.883 0.766 1.102 0.688 0.461 1.398 0.891 2.086 1.344 0.297 0.195 0.789 0.555 1.148 0.555s0.852-0.359 1.148-0.555c0.695-0.453 1.391-0.898 2.086-1.359 0.305-0.203 0.766-0.672 0.766-1.062z"></path>
</svg>
