<!-- Generated by IcoMoon.io -->
<svg version="1.1" xmlns="http://www.w3.org/2000/svg" width="14" height="14" viewBox="0 0 14 14">
<title>envelope</title>
<path d="M14 5.547v6.203c0 0.688-0.563 1.25-1.25 1.25h-11.5c-0.688 0-1.25-0.563-1.25-1.25v-6.203c0.234 0.258 0.5 0.484 0.789 0.68 1.297 0.883 2.609 1.766 3.883 2.695 0.656 0.484 1.469 1.078 2.32 1.078h0.016c0.852 0 1.664-0.594 2.32-1.078 1.273-0.922 2.586-1.812 3.891-2.695 0.281-0.195 0.547-0.422 0.781-0.68zM14 3.25c0 0.875-0.648 1.664-1.336 2.141-1.219 0.844-2.445 1.688-3.656 2.539-0.508 0.352-1.367 1.070-2 1.070h-0.016c-0.633 0-1.492-0.719-2-1.070-1.211-0.852-2.438-1.695-3.648-2.539-0.555-0.375-1.344-1.258-1.344-1.969 0-0.766 0.414-1.422 1.25-1.422h11.5c0.68 0 1.25 0.563 1.25 1.25z"></path>
</svg>
