<!-- Generated by IcoMoon.io -->
<svg version="1.1" xmlns="http://www.w3.org/2000/svg" width="14" height="14" viewBox="0 0 14 14">
<title>envelope-open-o</title>
<path d="M11.516 7.133l0.305 0.398c0.086 0.109 0.062 0.258-0.039 0.344-0.781 0.609-2.578 1.992-2.656 2.055-0.555 0.453-1.305 1.078-2.117 1.070h-0.016c-0.813 0-1.563-0.617-2.117-1.070-0.086-0.070-1.82-1.406-2.586-2-0.109-0.086-0.133-0.234-0.047-0.344l0.289-0.406c0.086-0.117 0.25-0.141 0.359-0.047 0.531 0.414 1.281 0.992 2.391 1.844 0.391 0.297 1.164 1.023 1.711 1.023h0.016c0.547 0 1.32-0.727 1.711-1.023 1.148-0.883 1.914-1.469 2.445-1.891 0.109-0.086 0.266-0.062 0.352 0.047zM13 12.75v-7.25c-0.781-0.727-0.664-0.664-4.281-3.461-0.391-0.305-1.164-1.039-1.711-1.039h-0.016c-0.547 0-1.32 0.734-1.711 1.039-3.617 2.797-3.5 2.734-4.281 3.461v7.25c0 0.133 0.117 0.25 0.25 0.25h11.5c0.133 0 0.25-0.117 0.25-0.25zM14 5.5v7.25c0 0.688-0.563 1.25-1.25 1.25h-11.5c-0.688 0-1.25-0.563-1.25-1.25v-7.25c0-0.281 0.117-0.547 0.32-0.734 1.602-1.484 3.445-2.773 4.555-3.687 0.547-0.453 1.305-1.078 2.117-1.078h0.016c0.813 0 1.57 0.625 2.117 1.078 1.031 0.852 2.992 2.234 4.555 3.687 0.203 0.187 0.32 0.453 0.32 0.734z"></path>
</svg>
