<!-- Generated by IcoMoon.io -->
<svg version="1.1" xmlns="http://www.w3.org/2000/svg" width="14" height="14" viewBox="0 0 14 14">
<title>envelope-open</title>
<path d="M14 5.109v7.641c0 0.688-0.563 1.25-1.25 1.25h-11.5c-0.688 0-1.25-0.563-1.25-1.25v-7.641c0-0.070 0.031-0.141 0.086-0.187 0.82-0.719 0.828-0.805 4.906-3.781 0.492-0.359 1.359-1.141 2.008-1.141s1.523 0.789 2.008 1.141c4.078 2.977 4.086 3.062 4.906 3.781 0.055 0.047 0.086 0.117 0.086 0.187zM9.594 9.68c1.219-0.883 2.070-1.5 2.695-1.969 0.109-0.078 0.133-0.234 0.047-0.344l-0.297-0.406c-0.086-0.109-0.242-0.133-0.352-0.047-0.617 0.453-1.461 1.078-2.68 1.953-0.484 0.352-1.359 1.133-2.008 1.133s-1.523-0.781-2.008-1.133c-1.219-0.883-2.062-1.5-2.68-1.953-0.109-0.086-0.266-0.062-0.352 0.047l-0.297 0.406c-0.086 0.109-0.062 0.266 0.047 0.344 0.625 0.469 1.477 1.086 2.695 1.969 0.609 0.438 1.57 1.32 2.594 1.32 1.031 0 2.016-0.898 2.594-1.32z"></path>
</svg>
