<!-- Generated by IcoMoon.io -->
<svg version="1.1" xmlns="http://www.w3.org/2000/svg" width="15" height="14" viewBox="0 0 15 14">
<title>envira</title>
<path d="M7 6.375c-0.992-1.875-1.906-3.703-4.508-4.938-1.555-0.734-0.164 0.289-0.164 0.289 1.414 0.977 2.062 2.297 2.82 3.742 0.984 1.883 2.469 4.367 4.508 5.242 2.031 0.875 1.070 0.391 0.187-0.266-0.883-0.664-2.133-2.719-2.844-4.070zM4.289 10.617c-2.82-2.234-2.664-4.906-4.289-10.617 14.93 0 11.461 9.914 11.477 11.445l2.523 2.555h-0.813l-2.195-2.227c-1.219 0.133-3.891 1.078-6.703-1.156z"></path>
</svg>
