<!-- Generated by IcoMoon.io -->
<svg version="1.1" xmlns="http://www.w3.org/2000/svg" width="12" height="14" viewBox="0 0 12 14">
<title>etsy</title>
<path d="M4.047 1.43v5.117c1.812 0.016 2.766-0.078 2.766-0.078 0.734-0.023 0.844-0.211 1.016-0.93l0.258-1.109h0.805l-0.109 2.516 0.055 2.492h-0.805l-0.227-0.992c-0.164-0.742-0.484-0.922-1.008-0.93 0 0-0.672-0.062-2.75-0.062v4.344c0 0.813 0.445 1.195 1.383 1.195h2.789c0.937 0 1.781-0.094 2.359-1.43l0.727-1.688h0.695c-0.055 0.336-0.43 3.438-0.484 4.125-2.57-0.094-3.672-0.094-3.672-0.094h-4.906l-2.937 0.094v-0.797l0.992-0.195c0.695-0.133 0.906-0.336 0.914-0.906 0.047-1.891 0.062-5.023 0.062-5.023s0.023-3.141-0.062-5.039c-0.023-0.648-0.219-0.805-0.914-0.937l-0.992-0.187v-0.797l2.937 0.094h5.484s1.086 0 2.922-0.211c-0.109 1.195-0.242 3.953-0.242 3.953h-0.727l-0.25-0.969c-0.305-1.211-0.711-1.859-1.461-1.859h-4.281c-0.32 0-0.336 0.109-0.336 0.305z"></path>
</svg>
