<!-- Generated by IcoMoon.io -->
<svg version="1.1" xmlns="http://www.w3.org/2000/svg" width="8" height="14" viewBox="0 0 8 14">
<title>eur</title>
<path d="M7.625 10.211l0.273 1.242c0.031 0.125-0.039 0.25-0.156 0.289-0.031 0.008-0.758 0.258-1.695 0.258-2.438 0-4.398-1.469-5.055-3.766h-0.742c-0.141 0-0.25-0.117-0.25-0.25v-0.883c0-0.133 0.109-0.25 0.25-0.25h0.516c-0.008-0.25-0.008-0.547 0.008-0.82h-0.523c-0.141 0-0.25-0.109-0.25-0.25v-0.891c0-0.141 0.109-0.25 0.25-0.25h0.766c0.695-2.187 2.695-3.641 5.031-3.641 0.813 0 1.484 0.172 1.516 0.18 0.062 0.016 0.117 0.062 0.156 0.117 0.031 0.055 0.039 0.125 0.023 0.187l-0.336 1.242c-0.031 0.133-0.164 0.211-0.297 0.172-0.008 0-0.539-0.133-1.094-0.133-1.313 0-2.414 0.711-2.937 1.875h3.656c0.078 0 0.148 0.031 0.195 0.094 0.047 0.055 0.070 0.133 0.055 0.203l-0.187 0.891c-0.023 0.117-0.125 0.203-0.25 0.203h-3.812c-0.023 0.25-0.016 0.516 0 0.82h3.586c0.078 0 0.148 0.039 0.195 0.094 0.047 0.062 0.062 0.141 0.047 0.211l-0.187 0.875c-0.023 0.117-0.125 0.203-0.242 0.203h-3.023c0.5 1.219 1.625 1.984 2.953 1.984 0.68 0 1.234-0.187 1.242-0.187 0.062-0.023 0.141-0.016 0.203 0.016 0.062 0.039 0.102 0.102 0.117 0.164z"></path>
</svg>
