<!-- Generated by IcoMoon.io -->
<svg version="1.1" xmlns="http://www.w3.org/2000/svg" width="14" height="14" viewBox="0 0 14 14">
<title>exchange</title>
<path d="M14 9.25v1.5c0 0.133-0.117 0.25-0.25 0.25h-10.75v1.5c0 0.133-0.109 0.25-0.25 0.25-0.070 0-0.133-0.031-0.187-0.078l-2.492-2.5c-0.047-0.047-0.070-0.109-0.070-0.172 0-0.070 0.023-0.133 0.070-0.18l2.5-2.5c0.047-0.047 0.117-0.070 0.18-0.070 0.133 0 0.25 0.109 0.25 0.25v1.5h10.75c0.133 0 0.25 0.109 0.25 0.25zM14 5c0 0.062-0.023 0.133-0.070 0.18l-2.5 2.5c-0.047 0.047-0.117 0.070-0.18 0.070-0.133 0-0.25-0.117-0.25-0.25v-1.5h-10.75c-0.133 0-0.25-0.117-0.25-0.25v-1.5c0-0.133 0.117-0.25 0.25-0.25h10.75v-1.5c0-0.141 0.109-0.25 0.25-0.25 0.070 0 0.133 0.031 0.187 0.078l2.492 2.492c0.047 0.047 0.070 0.117 0.070 0.18z"></path>
</svg>
