<!-- Generated by IcoMoon.io -->
<svg version="1.1" xmlns="http://www.w3.org/2000/svg" width="12" height="14" viewBox="0 0 12 14">
<title>exclamation-circle</title>
<path d="M6 1c3.313 0 6 2.687 6 6s-2.687 6-6 6-6-2.687-6-6 2.687-6 6-6zM7 10.742v-1.484c0-0.141-0.109-0.258-0.242-0.258h-1.5c-0.141 0-0.258 0.117-0.258 0.258v1.484c0 0.141 0.117 0.258 0.258 0.258h1.5c0.133 0 0.242-0.117 0.242-0.258zM6.984 8.055l0.141-4.852c0-0.055-0.023-0.109-0.078-0.141-0.047-0.039-0.117-0.062-0.187-0.062h-1.719c-0.070 0-0.141 0.023-0.187 0.062-0.055 0.031-0.078 0.086-0.078 0.141l0.133 4.852c0 0.109 0.117 0.195 0.266 0.195h1.445c0.141 0 0.258-0.086 0.266-0.195z"></path>
</svg>
