<!-- Generated by IcoMoon.io -->
<svg version="1.1" xmlns="http://www.w3.org/2000/svg" width="12" height="14" viewBox="0 0 12 14">
<title>expand</title>
<path d="M5.898 8.25c0 0.062-0.031 0.133-0.078 0.18l-2.594 2.594 1.125 1.125c0.094 0.094 0.148 0.219 0.148 0.352 0 0.273-0.227 0.5-0.5 0.5h-3.5c-0.273 0-0.5-0.227-0.5-0.5v-3.5c0-0.273 0.227-0.5 0.5-0.5 0.133 0 0.258 0.055 0.352 0.148l1.125 1.125 2.594-2.594c0.047-0.047 0.117-0.078 0.18-0.078s0.133 0.031 0.18 0.078l0.891 0.891c0.047 0.047 0.078 0.117 0.078 0.18zM12 1.5v3.5c0 0.273-0.227 0.5-0.5 0.5-0.133 0-0.258-0.055-0.352-0.148l-1.125-1.125-2.594 2.594c-0.047 0.047-0.117 0.078-0.18 0.078s-0.133-0.031-0.18-0.078l-0.891-0.891c-0.047-0.047-0.078-0.117-0.078-0.18s0.031-0.133 0.078-0.18l2.594-2.594-1.125-1.125c-0.094-0.094-0.148-0.219-0.148-0.352 0-0.273 0.227-0.5 0.5-0.5h3.5c0.273 0 0.5 0.227 0.5 0.5z"></path>
</svg>
