<!-- Generated by IcoMoon.io -->
<svg version="1.1" xmlns="http://www.w3.org/2000/svg" width="14" height="14" viewBox="0 0 14 14">
<title>expeditedssl</title>
<path d="M7 0.5c-3.586 0-6.5 2.914-6.5 6.5s2.914 6.5 6.5 6.5 6.5-2.914 6.5-6.5-2.914-6.5-6.5-6.5zM7 0c3.867 0 7 3.133 7 7s-3.133 7-7 7-7-3.133-7-7 3.133-7 7-7zM3.875 6.5c0.070 0 0.125 0.055 0.125 0.125v3.75c0 0.070-0.055 0.125-0.125 0.125h-0.25c-0.070 0-0.125-0.055-0.125-0.125v-3.75c0-0.070 0.055-0.125 0.125-0.125h0.25zM7 7c0.555 0 1 0.445 1 1 0 0.367-0.203 0.688-0.5 0.859v0.891c0 0.141-0.109 0.25-0.25 0.25h-0.5c-0.141 0-0.25-0.109-0.25-0.25v-0.891c-0.297-0.172-0.5-0.492-0.5-0.859 0-0.555 0.445-1 1-1zM7 1c3.313 0 6 2.687 6 6s-2.687 6-6 6-6-2.687-6-6 2.687-6 6-6zM4.25 4.75v0.75c0 0.141 0.109 0.25 0.25 0.25h0.5c0.141 0 0.25-0.109 0.25-0.25v-0.75c0-0.969 0.781-1.75 1.75-1.75s1.75 0.781 1.75 1.75v0.75c0 0.141 0.109 0.25 0.25 0.25h0.5c0.141 0 0.25-0.109 0.25-0.25v-0.75c0-1.516-1.234-2.75-2.75-2.75s-2.75 1.234-2.75 2.75zM11 10.5v-4c0-0.273-0.227-0.5-0.5-0.5h-7c-0.273 0-0.5 0.227-0.5 0.5v4c0 0.273 0.227 0.5 0.5 0.5h7c0.273 0 0.5-0.227 0.5-0.5z"></path>
</svg>
