<!-- Generated by IcoMoon.io -->
<svg version="1.1" xmlns="http://www.w3.org/2000/svg" width="12" height="14" viewBox="0 0 12 14">
<title>external-link-square</title>
<path d="M10 7.25v-3.75c0-0.273-0.227-0.5-0.5-0.5h-3.75c-0.203 0-0.383 0.125-0.461 0.305-0.078 0.187-0.039 0.406 0.109 0.547l1.125 1.125-4.172 4.172c-0.195 0.195-0.195 0.508 0 0.703l0.797 0.797c0.195 0.195 0.508 0.195 0.703 0l4.172-4.172 1.125 1.125c0.094 0.102 0.219 0.148 0.352 0.148 0.062 0 0.133-0.016 0.195-0.039 0.18-0.078 0.305-0.258 0.305-0.461zM12 3.25v7.5c0 1.242-1.008 2.25-2.25 2.25h-7.5c-1.242 0-2.25-1.008-2.25-2.25v-7.5c0-1.242 1.008-2.25 2.25-2.25h7.5c1.242 0 2.25 1.008 2.25 2.25z"></path>
</svg>
