<!-- Generated by IcoMoon.io -->
<svg version="1.1" xmlns="http://www.w3.org/2000/svg" width="14" height="14" viewBox="0 0 14 14">
<title>eye-slash</title>
<path d="M4.336 10.43l0.609-1.102c-0.906-0.656-1.445-1.711-1.445-2.828 0-0.617 0.164-1.227 0.477-1.758-1.219 0.625-2.234 1.609-2.977 2.758 0.813 1.258 1.961 2.313 3.336 2.93zM7.375 4.5c0-0.203-0.172-0.375-0.375-0.375-1.305 0-2.375 1.070-2.375 2.375 0 0.203 0.172 0.375 0.375 0.375s0.375-0.172 0.375-0.375c0-0.898 0.734-1.625 1.625-1.625 0.203 0 0.375-0.172 0.375-0.375zM10.211 3.008c0 0.016 0 0.055-0.008 0.070-1.648 2.945-3.281 5.906-4.93 8.852l-0.383 0.695c-0.047 0.078-0.133 0.125-0.219 0.125-0.141 0-0.883-0.453-1.047-0.547-0.078-0.047-0.125-0.125-0.125-0.219 0-0.125 0.266-0.547 0.344-0.68-1.516-0.688-2.789-1.859-3.687-3.266-0.102-0.156-0.156-0.344-0.156-0.539 0-0.187 0.055-0.383 0.156-0.539 1.547-2.375 3.961-3.961 6.844-3.961 0.469 0 0.945 0.047 1.406 0.133l0.422-0.758c0.047-0.078 0.125-0.125 0.219-0.125 0.141 0 0.875 0.453 1.039 0.547 0.078 0.047 0.125 0.125 0.125 0.211zM10.5 6.5c0 1.453-0.898 2.75-2.25 3.266l2.188-3.922c0.039 0.219 0.062 0.438 0.062 0.656zM14 7.5c0 0.203-0.055 0.367-0.156 0.539-0.242 0.398-0.547 0.781-0.852 1.133-1.531 1.758-3.641 2.828-5.992 2.828l0.578-1.031c2.273-0.195 4.203-1.578 5.422-3.469-0.578-0.898-1.32-1.688-2.203-2.297l0.492-0.875c0.969 0.648 1.945 1.625 2.555 2.633 0.102 0.172 0.156 0.336 0.156 0.539z"></path>
</svg>
