<!-- Generated by IcoMoon.io -->
<svg version="1.1" xmlns="http://www.w3.org/2000/svg" width="14" height="14" viewBox="0 0 14 14">
<title>eye</title>
<path d="M13 7.5c-0.742-1.148-1.758-2.133-2.977-2.758 0.312 0.531 0.477 1.141 0.477 1.758 0 1.93-1.57 3.5-3.5 3.5s-3.5-1.57-3.5-3.5c0-0.617 0.164-1.227 0.477-1.758-1.219 0.625-2.234 1.609-2.977 2.758 1.336 2.062 3.492 3.5 6 3.5s4.664-1.438 6-3.5zM7.375 4.5c0-0.203-0.172-0.375-0.375-0.375-1.305 0-2.375 1.070-2.375 2.375 0 0.203 0.172 0.375 0.375 0.375s0.375-0.172 0.375-0.375c0-0.891 0.734-1.625 1.625-1.625 0.203 0 0.375-0.172 0.375-0.375zM14 7.5c0 0.195-0.062 0.375-0.156 0.539-1.438 2.367-4.070 3.961-6.844 3.961s-5.406-1.602-6.844-3.961c-0.094-0.164-0.156-0.344-0.156-0.539s0.062-0.375 0.156-0.539c1.438-2.359 4.070-3.961 6.844-3.961s5.406 1.602 6.844 3.961c0.094 0.164 0.156 0.344 0.156 0.539z"></path>
</svg>
