<!-- Generated by IcoMoon.io -->
<svg version="1.1" xmlns="http://www.w3.org/2000/svg" width="14" height="14" viewBox="0 0 14 14">
<title>eyedropper</title>
<path d="M13.266 0.734c0.977 0.977 0.984 2.563 0 3.531l-1.758 1.742 0.813 0.813c0.102 0.102 0.102 0.258 0 0.359l-1.641 1.641c-0.102 0.102-0.258 0.102-0.359 0l-0.82-0.82-4.711 4.711c-0.187 0.187-0.438 0.289-0.703 0.289h-1.586l-2 1-0.5-0.5 1-2v-1.586c0-0.266 0.102-0.516 0.289-0.703l4.711-4.711-0.82-0.82c-0.102-0.102-0.102-0.258 0-0.359l1.641-1.641c0.102-0.102 0.258-0.102 0.359 0l0.813 0.813 1.742-1.758c0.969-0.984 2.555-0.977 3.531 0zM4 11.5l4.5-4.5-1.5-1.5-4.5 4.5v1.5h1.5z"></path>
</svg>
