<!-- Generated by IcoMoon.io -->
<svg version="1.1" xmlns="http://www.w3.org/2000/svg" width="12" height="14" viewBox="0 0 12 14">
<title>fa</title>
<path d="M12 4v6.555c0 0.242-0.156 0.422-0.383 0.484-0.836 0.25-1.773 0.406-2.641 0.406-1.172 0-2.164-0.461-3.461-0.461-0.961 0-1.953 0.156-2.891 0.375v2.641h-1.25v-10.687c-0.656-0.258-1.086-0.898-1.086-1.602 0-0.945 0.766-1.711 1.711-1.711s1.711 0.766 1.711 1.711c0 0.703-0.43 1.344-1.086 1.602v0.531c0.875-0.203 1.781-0.344 2.68-0.344 0.516 0 1.031 0.039 1.547 0.117 0.672 0.102 1.352 0.336 2.039 0.336 0.43 0 0.867-0.055 1.289-0.141 0.32-0.062 1.055-0.312 1.32-0.312 0.273 0 0.5 0.227 0.5 0.5z"></path>
</svg>
