<!-- Generated by IcoMoon.io -->
<svg version="1.1" xmlns="http://www.w3.org/2000/svg" width="12" height="14" viewBox="0 0 12 14">
<title>facebook-square</title>
<path d="M9.75 1c1.242 0 2.25 1.008 2.25 2.25v7.5c0 1.242-1.008 2.25-2.25 2.25h-1.469v-4.648h1.555l0.234-1.812h-1.789v-1.156c0-0.523 0.141-0.875 0.898-0.875l0.953-0.008v-1.617c-0.164-0.023-0.734-0.070-1.391-0.070-1.383 0-2.336 0.844-2.336 2.391v1.336h-1.563v1.812h1.563v4.648h-4.156c-1.242 0-2.25-1.008-2.25-2.25v-7.5c0-1.242 1.008-2.25 2.25-2.25h7.5z"></path>
</svg>
