<!-- Generated by IcoMoon.io -->
<svg version="1.1" xmlns="http://www.w3.org/2000/svg" width="14" height="14" viewBox="0 0 14 14">
<title>fast-backward</title>
<path d="M13.648 1.102c0.195-0.195 0.352-0.125 0.352 0.148v11.5c0 0.273-0.156 0.344-0.352 0.148l-5.547-5.547c-0.047-0.047-0.078-0.094-0.102-0.148v5.547c0 0.273-0.156 0.344-0.352 0.148l-5.547-5.547c-0.047-0.047-0.078-0.094-0.102-0.148v5.297c0 0.273-0.227 0.5-0.5 0.5h-1c-0.273 0-0.5-0.227-0.5-0.5v-11c0-0.273 0.227-0.5 0.5-0.5h1c0.273 0 0.5 0.227 0.5 0.5v5.297c0.023-0.055 0.055-0.102 0.102-0.148l5.547-5.547c0.195-0.195 0.352-0.125 0.352 0.148v5.547c0.023-0.055 0.055-0.102 0.102-0.148z"></path>
</svg>
