<!-- Generated by IcoMoon.io -->
<svg version="1.1" xmlns="http://www.w3.org/2000/svg" width="14" height="14" viewBox="0 0 14 14">
<title>fax</title>
<path d="M2.25 3c0.688 0 1.25 0.563 1.25 1.25v8.5c0 0.688-0.563 1.25-1.25 1.25h-1c-0.688 0-1.25-0.563-1.25-1.25v-8.5c0-0.688 0.563-1.25 1.25-1.25h1zM13 4.273c0.594 0.344 1 0.992 1 1.727v6c0 1.102-0.898 2-2 2h-6.75c-0.688 0-1.25-0.563-1.25-1.25v-12c0-0.414 0.336-0.75 0.75-0.75h5.25c0.414 0 0.992 0.242 1.281 0.531l1.187 1.187c0.289 0.289 0.531 0.867 0.531 1.281v1.273zM7.25 12v-1c0-0.141-0.109-0.25-0.25-0.25h-1c-0.141 0-0.25 0.109-0.25 0.25v1c0 0.141 0.109 0.25 0.25 0.25h1c0.141 0 0.25-0.109 0.25-0.25zM7.25 10v-1c0-0.141-0.109-0.25-0.25-0.25h-1c-0.141 0-0.25 0.109-0.25 0.25v1c0 0.141 0.109 0.25 0.25 0.25h1c0.141 0 0.25-0.109 0.25-0.25zM7.25 8v-1c0-0.141-0.109-0.25-0.25-0.25h-1c-0.141 0-0.25 0.109-0.25 0.25v1c0 0.141 0.109 0.25 0.25 0.25h1c0.141 0 0.25-0.109 0.25-0.25zM9.25 12v-1c0-0.141-0.109-0.25-0.25-0.25h-1c-0.141 0-0.25 0.109-0.25 0.25v1c0 0.141 0.109 0.25 0.25 0.25h1c0.141 0 0.25-0.109 0.25-0.25zM9.25 10v-1c0-0.141-0.109-0.25-0.25-0.25h-1c-0.141 0-0.25 0.109-0.25 0.25v1c0 0.141 0.109 0.25 0.25 0.25h1c0.141 0 0.25-0.109 0.25-0.25zM9.25 8v-1c0-0.141-0.109-0.25-0.25-0.25h-1c-0.141 0-0.25 0.109-0.25 0.25v1c0 0.141 0.109 0.25 0.25 0.25h1c0.141 0 0.25-0.109 0.25-0.25zM11.25 12v-1c0-0.141-0.109-0.25-0.25-0.25h-1c-0.141 0-0.25 0.109-0.25 0.25v1c0 0.141 0.109 0.25 0.25 0.25h1c0.141 0 0.25-0.109 0.25-0.25zM11.25 10v-1c0-0.141-0.109-0.25-0.25-0.25h-1c-0.141 0-0.25 0.109-0.25 0.25v1c0 0.141 0.109 0.25 0.25 0.25h1c0.141 0 0.25-0.109 0.25-0.25zM11.25 8v-1c0-0.141-0.109-0.25-0.25-0.25h-1c-0.141 0-0.25 0.109-0.25 0.25v1c0 0.141 0.109 0.25 0.25 0.25h1c0.141 0 0.25-0.109 0.25-0.25zM12 5v-2h-1.25c-0.414 0-0.75-0.336-0.75-0.75v-1.25h-5v4h7z"></path>
</svg>
