<!-- Generated by IcoMoon.io -->
<svg version="1.1" xmlns="http://www.w3.org/2000/svg" width="11" height="14" viewBox="0 0 11 14">
<title>feed</title>
<path d="M3 10.5c0 0.828-0.672 1.5-1.5 1.5s-1.5-0.672-1.5-1.5 0.672-1.5 1.5-1.5 1.5 0.672 1.5 1.5zM7 11.461c0.008 0.141-0.039 0.273-0.133 0.375-0.094 0.109-0.227 0.164-0.367 0.164h-1.055c-0.258 0-0.469-0.195-0.492-0.453-0.227-2.383-2.117-4.273-4.5-4.5-0.258-0.023-0.453-0.234-0.453-0.492v-1.055c0-0.141 0.055-0.273 0.164-0.367 0.086-0.086 0.211-0.133 0.336-0.133h0.039c1.664 0.133 3.234 0.859 4.414 2.047 1.187 1.18 1.914 2.75 2.047 4.414zM11 11.477c0.008 0.133-0.039 0.266-0.141 0.367-0.094 0.102-0.219 0.156-0.359 0.156h-1.117c-0.266 0-0.484-0.203-0.5-0.469-0.258-4.539-3.875-8.156-8.414-8.422-0.266-0.016-0.469-0.234-0.469-0.492v-1.117c0-0.141 0.055-0.266 0.156-0.359 0.094-0.094 0.219-0.141 0.344-0.141h0.023c2.734 0.141 5.305 1.289 7.242 3.234 1.945 1.937 3.094 4.508 3.234 7.242z"></path>
</svg>
