<!-- Generated by IcoMoon.io -->
<svg version="1.1" xmlns="http://www.w3.org/2000/svg" width="10" height="14" viewBox="0 0 10 14">
<title>female</title>
<path d="M10 8.25c0 0.414-0.336 0.75-0.75 0.75-0.25 0-0.484-0.125-0.625-0.336l-1.773-2.664h-0.352v1.031l1.93 3.211c0.047 0.078 0.070 0.164 0.070 0.258 0 0.273-0.227 0.5-0.5 0.5h-1.5v2.125c0 0.484-0.391 0.875-0.875 0.875h-1.25c-0.477 0-0.875-0.391-0.875-0.875v-2.125h-1.5c-0.273 0-0.5-0.227-0.5-0.5 0-0.094 0.023-0.18 0.070-0.258l1.93-3.211v-1.031h-0.352l-1.773 2.664c-0.141 0.211-0.375 0.336-0.625 0.336-0.414 0-0.75-0.336-0.75-0.75 0-0.148 0.047-0.297 0.125-0.414l2-3c0.312-0.461 0.797-0.836 1.375-0.836h3c0.578 0 1.062 0.375 1.375 0.836l2 3c0.078 0.117 0.125 0.266 0.125 0.414zM6.75 2c0 0.969-0.781 1.75-1.75 1.75s-1.75-0.781-1.75-1.75 0.781-1.75 1.75-1.75 1.75 0.781 1.75 1.75z"></path>
</svg>
