<!-- Generated by IcoMoon.io -->
<svg version="1.1" xmlns="http://www.w3.org/2000/svg" width="15" height="14" viewBox="0 0 15 14">
<title>fighter-jet</title>
<path d="M15 7.5c0 0 0 0.25-2.25 0.75l-2.75 0.25-1.75 0.5h-0.5l-2.289 2.75h0.539c0.273 0 0.5 0.055 0.5 0.125s-0.227 0.125-0.5 0.125h-2.5v-0.25h0.5v-3.25h-1.25l-1.5 1.75h-0.75l-0.25-0.25v-1.5h0.25v-0.25h1v-0.062l-1.5-0.187v-1l1.5-0.187v-0.062h-1v-0.25h-0.25v-1.5l0.25-0.25h0.75l1.5 1.75h1.25v-3.25h-0.5v-0.25h2.5c0.273 0 0.5 0.055 0.5 0.125s-0.227 0.125-0.5 0.125h-0.539l2.289 2.75h0.5l1.75 0.5 2.75 0.25c2.25 0.5 2.25 0.75 2.25 0.75z"></path>
</svg>
