<!-- Generated by IcoMoon.io -->
<svg version="1.1" xmlns="http://www.w3.org/2000/svg" width="12" height="14" viewBox="0 0 12 14">
<title>file-pdf-o</title>
<path d="M11.469 2.969c0.289 0.289 0.531 0.867 0.531 1.281v9c0 0.414-0.336 0.75-0.75 0.75h-10.5c-0.414 0-0.75-0.336-0.75-0.75v-12.5c0-0.414 0.336-0.75 0.75-0.75h7c0.414 0 0.992 0.242 1.281 0.531zM8 1.062v2.937h2.937c-0.047-0.133-0.117-0.266-0.172-0.32l-2.445-2.445c-0.055-0.055-0.187-0.125-0.32-0.172zM11 13v-8h-3.25c-0.414 0-0.75-0.336-0.75-0.75v-3.25h-6v12h10zM6.984 8.367c0.195 0.156 0.414 0.297 0.656 0.438 0.328-0.039 0.633-0.055 0.914-0.055 0.523 0 1.187 0.062 1.383 0.383 0.055 0.078 0.102 0.219 0.016 0.406-0.008 0.008-0.016 0.023-0.023 0.031v0.008c-0.023 0.141-0.141 0.297-0.555 0.297-0.5 0-1.258-0.227-1.914-0.57-1.086 0.117-2.227 0.359-3.063 0.648-0.805 1.375-1.422 2.047-1.891 2.047-0.078 0-0.148-0.016-0.219-0.055l-0.187-0.094c-0.023-0.008-0.031-0.023-0.047-0.039-0.039-0.039-0.070-0.125-0.047-0.281 0.078-0.359 0.5-0.961 1.469-1.469 0.062-0.039 0.141-0.016 0.18 0.047 0.008 0.008 0.016 0.023 0.016 0.031 0.242-0.398 0.523-0.906 0.836-1.539 0.352-0.703 0.625-1.391 0.813-2.047-0.25-0.852-0.328-1.727-0.187-2.242 0.055-0.195 0.172-0.312 0.328-0.312h0.172c0.117 0 0.211 0.039 0.273 0.117 0.094 0.109 0.117 0.281 0.070 0.531-0.008 0.023-0.016 0.047-0.031 0.062 0.008 0.023 0.008 0.039 0.008 0.062v0.234c-0.008 0.492-0.016 0.961-0.109 1.5 0.273 0.82 0.68 1.484 1.141 1.859zM2.484 11.578c0.234-0.109 0.57-0.445 1.070-1.234-0.586 0.453-0.953 0.969-1.070 1.234zM5.594 4.391c-0.078 0.219-0.078 0.594-0.016 1.031 0.023-0.125 0.039-0.242 0.055-0.344 0.016-0.133 0.039-0.242 0.055-0.336 0.008-0.023 0.016-0.039 0.031-0.062-0.008-0.008-0.008-0.023-0.016-0.039-0.008-0.141-0.055-0.227-0.102-0.281 0 0.016-0.008 0.023-0.008 0.031zM4.625 9.555c0.688-0.273 1.453-0.492 2.219-0.633-0.078-0.062-0.156-0.117-0.227-0.18-0.383-0.336-0.727-0.805-0.992-1.375-0.148 0.477-0.367 0.984-0.648 1.539-0.117 0.219-0.234 0.438-0.352 0.648zM9.672 9.43c-0.039-0.039-0.242-0.187-1.094-0.187 0.383 0.141 0.734 0.219 0.969 0.219 0.070 0 0.109 0 0.141-0.008 0-0.008-0.008-0.016-0.016-0.023z"></path>
</svg>
