<!-- Generated by IcoMoon.io -->
<svg version="1.1" xmlns="http://www.w3.org/2000/svg" width="12" height="14" viewBox="0 0 12 14">
<title>file-text</title>
<path d="M11.469 3.719c0.078 0.078 0.148 0.172 0.219 0.281h-3.687v-3.687c0.109 0.070 0.203 0.141 0.281 0.219zM7.75 5h4.25v8.25c0 0.414-0.336 0.75-0.75 0.75h-10.5c-0.414 0-0.75-0.336-0.75-0.75v-12.5c0-0.414 0.336-0.75 0.75-0.75h6.25v4.25c0 0.414 0.336 0.75 0.75 0.75zM9 10.75v-0.5c0-0.141-0.109-0.25-0.25-0.25h-5.5c-0.141 0-0.25 0.109-0.25 0.25v0.5c0 0.141 0.109 0.25 0.25 0.25h5.5c0.141 0 0.25-0.109 0.25-0.25zM9 8.75v-0.5c0-0.141-0.109-0.25-0.25-0.25h-5.5c-0.141 0-0.25 0.109-0.25 0.25v0.5c0 0.141 0.109 0.25 0.25 0.25h5.5c0.141 0 0.25-0.109 0.25-0.25zM9 6.75v-0.5c0-0.141-0.109-0.25-0.25-0.25h-5.5c-0.141 0-0.25 0.109-0.25 0.25v0.5c0 0.141 0.109 0.25 0.25 0.25h5.5c0.141 0 0.25-0.109 0.25-0.25z"></path>
</svg>
