<!-- Generated by IcoMoon.io -->
<svg version="1.1" xmlns="http://www.w3.org/2000/svg" width="12" height="14" viewBox="0 0 12 14">
<title>file-excel-o</title>
<path d="M11.469 2.969c0.289 0.289 0.531 0.867 0.531 1.281v9c0 0.414-0.336 0.75-0.75 0.75h-10.5c-0.414 0-0.75-0.336-0.75-0.75v-12.5c0-0.414 0.336-0.75 0.75-0.75h7c0.414 0 0.992 0.242 1.281 0.531zM8 1.062v2.937h2.937c-0.047-0.133-0.117-0.266-0.172-0.32l-2.445-2.445c-0.055-0.055-0.187-0.125-0.32-0.172zM11 13v-8h-3.25c-0.414 0-0.75-0.336-0.75-0.75v-3.25h-6v12h10zM3.352 11.172v0.828h2.195v-0.828h-0.586l0.805-1.258c0.094-0.148 0.141-0.266 0.164-0.266h0.016c0.008 0.031 0.023 0.055 0.039 0.078 0.031 0.062 0.078 0.109 0.133 0.187l0.836 1.258h-0.594v0.828h2.273v-0.828h-0.531l-1.5-2.133 1.523-2.203h0.523v-0.836h-2.18v0.836h0.578l-0.805 1.242c-0.094 0.148-0.164 0.266-0.164 0.258h-0.016c-0.008-0.031-0.023-0.055-0.039-0.078-0.031-0.055-0.070-0.109-0.133-0.18l-0.828-1.242h0.594v-0.836h-2.266v0.836h0.531l1.477 2.125-1.516 2.211h-0.531z"></path>
</svg>
