<!-- Generated by IcoMoon.io -->
<svg version="1.1" xmlns="http://www.w3.org/2000/svg" width="12" height="14" viewBox="0 0 12 14">
<title>file-archive-o</title>
<path d="M5 3v-1h-1v1h1zM6 4v-1h-1v1h1zM5 5v-1h-1v1h1zM6 6v-1h-1v1h1zM11.469 2.969c0.289 0.289 0.531 0.867 0.531 1.281v9c0 0.414-0.336 0.75-0.75 0.75h-10.5c-0.414 0-0.75-0.336-0.75-0.75v-12.5c0-0.414 0.336-0.75 0.75-0.75h7c0.414 0 0.992 0.242 1.281 0.531zM8 1.062v2.937h2.937c-0.047-0.133-0.117-0.266-0.172-0.32l-2.445-2.445c-0.055-0.055-0.187-0.125-0.32-0.172zM11 13v-8h-3.25c-0.414 0-0.75-0.336-0.75-0.75v-3.25h-1v1h-1v-1h-4v12h10zM6.102 7.367c0.664 2.242 0.836 2.727 0.836 2.727 0.039 0.133 0.062 0.266 0.062 0.406 0 0.867-0.844 1.5-2 1.5s-2-0.633-2-1.5c0-0.141 0.023-0.273 0.062-0.406 0 0 0.164-0.484 0.937-3.094v-1h1v1h0.617c0.227 0 0.422 0.148 0.484 0.367zM5 11c0.555 0 1-0.227 1-0.5s-0.445-0.5-1-0.5-1 0.227-1 0.5 0.445 0.5 1 0.5z"></path>
</svg>
