<!-- Generated by IcoMoon.io -->
<svg version="1.1" xmlns="http://www.w3.org/2000/svg" width="12" height="14" viewBox="0 0 12 14">
<title>file-audio-o</title>
<path d="M11.469 2.969c0.289 0.289 0.531 0.867 0.531 1.281v9c0 0.414-0.336 0.75-0.75 0.75h-10.5c-0.414 0-0.75-0.336-0.75-0.75v-12.5c0-0.414 0.336-0.75 0.75-0.75h7c0.414 0 0.992 0.242 1.281 0.531zM8 1.062v2.937h2.937c-0.047-0.133-0.117-0.266-0.172-0.32l-2.445-2.445c-0.055-0.055-0.187-0.125-0.32-0.172zM11 13v-8h-3.25c-0.414 0-0.75-0.336-0.75-0.75v-3.25h-6v12h10zM4.844 6.641c0.094 0.039 0.156 0.133 0.156 0.234v4.25c0 0.102-0.062 0.195-0.156 0.234-0.031 0.008-0.062 0.016-0.094 0.016-0.062 0-0.125-0.023-0.18-0.070l-1.297-1.305h-1.023c-0.141 0-0.25-0.109-0.25-0.25v-1.5c0-0.141 0.109-0.25 0.25-0.25h1.023l1.297-1.305c0.078-0.070 0.18-0.094 0.273-0.055zM8.102 12.023c0.148 0 0.289-0.062 0.391-0.187 0.648-0.797 1.008-1.805 1.008-2.836s-0.359-2.039-1.008-2.836c-0.172-0.219-0.492-0.25-0.703-0.078-0.219 0.18-0.25 0.492-0.070 0.711 0.508 0.625 0.781 1.391 0.781 2.203s-0.273 1.578-0.781 2.203c-0.18 0.219-0.148 0.531 0.070 0.703 0.094 0.078 0.203 0.117 0.312 0.117zM6.453 10.867c0.133 0 0.266-0.055 0.367-0.156 0.438-0.469 0.68-1.070 0.68-1.711s-0.242-1.242-0.68-1.711c-0.187-0.203-0.508-0.211-0.711-0.023-0.195 0.187-0.211 0.508-0.016 0.711 0.258 0.281 0.406 0.641 0.406 1.023s-0.148 0.742-0.406 1.023c-0.195 0.203-0.18 0.523 0.016 0.711 0.102 0.086 0.227 0.133 0.344 0.133z"></path>
</svg>
