<!-- Generated by IcoMoon.io -->
<svg version="1.1" xmlns="http://www.w3.org/2000/svg" width="12" height="14" viewBox="0 0 12 14">
<title>file-code-o</title>
<path d="M11.469 2.969c0.289 0.289 0.531 0.867 0.531 1.281v9c0 0.414-0.336 0.75-0.75 0.75h-10.5c-0.414 0-0.75-0.336-0.75-0.75v-12.5c0-0.414 0.336-0.75 0.75-0.75h7c0.414 0 0.992 0.242 1.281 0.531zM8 1.062v2.937h2.937c-0.047-0.133-0.117-0.266-0.172-0.32l-2.445-2.445c-0.055-0.055-0.187-0.125-0.32-0.172zM11 13v-8h-3.25c-0.414 0-0.75-0.336-0.75-0.75v-3.25h-6v12h10zM3.75 6c0.086-0.109 0.242-0.133 0.352-0.047l0.398 0.297c0.109 0.086 0.133 0.242 0.047 0.352l-1.422 1.898 1.422 1.898c0.086 0.109 0.062 0.266-0.047 0.352l-0.398 0.297c-0.109 0.086-0.266 0.062-0.352-0.047l-1.766-2.352c-0.062-0.086-0.062-0.211 0-0.297zM10.016 8.352c0.062 0.086 0.062 0.211 0 0.297l-1.766 2.352c-0.086 0.109-0.242 0.133-0.352 0.047l-0.398-0.297c-0.109-0.086-0.133-0.242-0.047-0.352l1.422-1.898-1.422-1.898c-0.086-0.109-0.062-0.266 0.047-0.352l0.398-0.297c0.109-0.086 0.266-0.062 0.352 0.047zM5.172 11.953c-0.141-0.023-0.227-0.156-0.203-0.289l1.078-6.492c0.023-0.141 0.156-0.227 0.289-0.203l0.492 0.078c0.141 0.023 0.227 0.156 0.203 0.289l-1.078 6.492c-0.023 0.141-0.156 0.227-0.289 0.203z"></path>
</svg>
