<!-- Generated by IcoMoon.io -->
<svg version="1.1" xmlns="http://www.w3.org/2000/svg" width="12" height="14" viewBox="0 0 12 14">
<title>file-powerpoint-o</title>
<path d="M11.469 2.969c0.289 0.289 0.531 0.867 0.531 1.281v9c0 0.414-0.336 0.75-0.75 0.75h-10.5c-0.414 0-0.75-0.336-0.75-0.75v-12.5c0-0.414 0.336-0.75 0.75-0.75h7c0.414 0 0.992 0.242 1.281 0.531zM8 1.062v2.937h2.937c-0.047-0.133-0.117-0.266-0.172-0.32l-2.445-2.445c-0.055-0.055-0.187-0.125-0.32-0.172zM11 13v-8h-3.25c-0.414 0-0.75-0.336-0.75-0.75v-3.25h-6v12h10zM3.25 11.172v0.828h2.555v-0.828h-0.727v-1.305h1.070c0.336 0 0.641-0.016 0.922-0.117 0.703-0.242 1.141-0.969 1.141-1.82s-0.422-1.508-1.070-1.781c-0.297-0.117-0.656-0.148-1.016-0.148h-2.875v0.836h0.719v4.336h-0.719zM6.008 8.984h-0.93v-2.094h0.937c0.273 0 0.484 0.047 0.648 0.141 0.281 0.164 0.438 0.484 0.438 0.898 0 0.438-0.156 0.773-0.484 0.937-0.164 0.078-0.367 0.117-0.609 0.117z"></path>
</svg>
