<!-- Generated by IcoMoon.io -->
<svg version="1.1" xmlns="http://www.w3.org/2000/svg" width="12" height="14" viewBox="0 0 12 14">
<title>file-movie-o</title>
<path d="M11.469 2.969c0.289 0.289 0.531 0.867 0.531 1.281v9c0 0.414-0.336 0.75-0.75 0.75h-10.5c-0.414 0-0.75-0.336-0.75-0.75v-12.5c0-0.414 0.336-0.75 0.75-0.75h7c0.414 0 0.992 0.242 1.281 0.531zM8 1.062v2.937h2.937c-0.047-0.133-0.117-0.266-0.172-0.32l-2.445-2.445c-0.055-0.055-0.187-0.125-0.32-0.172zM11 13v-8h-3.25c-0.414 0-0.75-0.336-0.75-0.75v-3.25h-6v12h10zM6 6c0.547 0 1 0.453 1 1v3c0 0.547-0.453 1-1 1h-3c-0.547 0-1-0.453-1-1v-3c0-0.547 0.453-1 1-1h3zM9.844 6.016c0.094 0.039 0.156 0.133 0.156 0.234v4.5c0 0.102-0.062 0.195-0.156 0.234-0.031 0.008-0.062 0.016-0.094 0.016-0.062 0-0.133-0.023-0.18-0.070l-2.070-2.078v-0.703l2.070-2.078c0.047-0.047 0.117-0.070 0.18-0.070 0.031 0 0.062 0.008 0.094 0.016z"></path>
</svg>
