<!-- Generated by IcoMoon.io -->
<svg version="1.1" xmlns="http://www.w3.org/2000/svg" width="12" height="14" viewBox="0 0 12 14">
<title>file-word-o</title>
<path d="M11.469 2.969c0.289 0.289 0.531 0.867 0.531 1.281v9c0 0.414-0.336 0.75-0.75 0.75h-10.5c-0.414 0-0.75-0.336-0.75-0.75v-12.5c0-0.414 0.336-0.75 0.75-0.75h7c0.414 0 0.992 0.242 1.281 0.531zM8 1.062v2.937h2.937c-0.047-0.133-0.117-0.266-0.172-0.32l-2.445-2.445c-0.055-0.055-0.187-0.125-0.32-0.172zM11 13v-8h-3.25c-0.414 0-0.75-0.336-0.75-0.75v-3.25h-6v12h10zM1.82 6v0.836h0.547l1.281 5.164h1.242l1-3.789c0.039-0.117 0.062-0.234 0.078-0.359 0.008-0.062 0.016-0.125 0.016-0.187h0.031l0.023 0.187c0.023 0.109 0.031 0.234 0.070 0.359l1 3.789h1.242l1.281-5.164h0.547v-0.836h-2.344v0.836h0.703l-0.773 3.422c-0.031 0.125-0.047 0.258-0.055 0.359l-0.016 0.164h-0.031c0-0.047-0.016-0.109-0.023-0.164-0.023-0.102-0.039-0.234-0.070-0.359l-1.125-4.258h-0.891l-1.125 4.258c-0.031 0.125-0.039 0.258-0.062 0.359l-0.031 0.164h-0.031l-0.016-0.164c-0.008-0.102-0.023-0.234-0.055-0.359l-0.773-3.422h0.703v-0.836h-2.344z"></path>
</svg>
