<!-- Generated by IcoMoon.io -->
<svg version="1.1" xmlns="http://www.w3.org/2000/svg" width="15" height="14" viewBox="0 0 15 14">
<title>film</title>
<path d="M3 12.5v-1c0-0.273-0.227-0.5-0.5-0.5h-1c-0.273 0-0.5 0.227-0.5 0.5v1c0 0.273 0.227 0.5 0.5 0.5h1c0.273 0 0.5-0.227 0.5-0.5zM3 9.5v-1c0-0.273-0.227-0.5-0.5-0.5h-1c-0.273 0-0.5 0.227-0.5 0.5v1c0 0.273 0.227 0.5 0.5 0.5h1c0.273 0 0.5-0.227 0.5-0.5zM3 6.5v-1c0-0.273-0.227-0.5-0.5-0.5h-1c-0.273 0-0.5 0.227-0.5 0.5v1c0 0.273 0.227 0.5 0.5 0.5h1c0.273 0 0.5-0.227 0.5-0.5zM11 12.5v-4c0-0.273-0.227-0.5-0.5-0.5h-6c-0.273 0-0.5 0.227-0.5 0.5v4c0 0.273 0.227 0.5 0.5 0.5h6c0.273 0 0.5-0.227 0.5-0.5zM3 3.5v-1c0-0.273-0.227-0.5-0.5-0.5h-1c-0.273 0-0.5 0.227-0.5 0.5v1c0 0.273 0.227 0.5 0.5 0.5h1c0.273 0 0.5-0.227 0.5-0.5zM14 12.5v-1c0-0.273-0.227-0.5-0.5-0.5h-1c-0.273 0-0.5 0.227-0.5 0.5v1c0 0.273 0.227 0.5 0.5 0.5h1c0.273 0 0.5-0.227 0.5-0.5zM11 6.5v-4c0-0.273-0.227-0.5-0.5-0.5h-6c-0.273 0-0.5 0.227-0.5 0.5v4c0 0.273 0.227 0.5 0.5 0.5h6c0.273 0 0.5-0.227 0.5-0.5zM14 9.5v-1c0-0.273-0.227-0.5-0.5-0.5h-1c-0.273 0-0.5 0.227-0.5 0.5v1c0 0.273 0.227 0.5 0.5 0.5h1c0.273 0 0.5-0.227 0.5-0.5zM14 6.5v-1c0-0.273-0.227-0.5-0.5-0.5h-1c-0.273 0-0.5 0.227-0.5 0.5v1c0 0.273 0.227 0.5 0.5 0.5h1c0.273 0 0.5-0.227 0.5-0.5zM14 3.5v-1c0-0.273-0.227-0.5-0.5-0.5h-1c-0.273 0-0.5 0.227-0.5 0.5v1c0 0.273 0.227 0.5 0.5 0.5h1c0.273 0 0.5-0.227 0.5-0.5zM15 2.25v10.5c0 0.688-0.563 1.25-1.25 1.25h-12.5c-0.688 0-1.25-0.563-1.25-1.25v-10.5c0-0.688 0.563-1.25 1.25-1.25h12.5c0.688 0 1.25 0.563 1.25 1.25z"></path>
</svg>
