<!-- Generated by IcoMoon.io -->
<svg version="1.1" xmlns="http://www.w3.org/2000/svg" width="11" height="14" viewBox="0 0 11 14">
<title>filter</title>
<path d="M10.961 2.305c0.078 0.187 0.039 0.406-0.109 0.547l-3.852 3.852v5.797c0 0.203-0.125 0.383-0.305 0.461-0.062 0.023-0.133 0.039-0.195 0.039-0.133 0-0.258-0.047-0.352-0.148l-2-2c-0.094-0.094-0.148-0.219-0.148-0.352v-3.797l-3.852-3.852c-0.148-0.141-0.187-0.359-0.109-0.547 0.078-0.18 0.258-0.305 0.461-0.305h10c0.203 0 0.383 0.125 0.461 0.305z"></path>
</svg>
