<!-- Generated by IcoMoon.io -->
<svg version="1.1" xmlns="http://www.w3.org/2000/svg" width="11" height="14" viewBox="0 0 11 14">
<title>fire-extinguisher</title>
<path d="M4 1.5c0-0.273-0.227-0.5-0.5-0.5s-0.5 0.227-0.5 0.5 0.227 0.5 0.5 0.5 0.5-0.227 0.5-0.5zM11 1.25v2.5c0 0.078-0.031 0.148-0.094 0.195-0.047 0.039-0.102 0.055-0.156 0.055-0.016 0-0.031 0-0.055-0.008l-3.5-0.75c-0.109-0.023-0.195-0.125-0.195-0.242h-2v0.797c1.141 0.234 2 1.242 2 2.453v6.25c0 0.273-0.227 0.5-0.5 0.5h-4c-0.273 0-0.5-0.227-0.5-0.5v-6.25c0-1.117 0.734-2.070 1.75-2.383v-0.867h-0.25c-1.656 0-2.547 1.711-2.555 1.727-0.086 0.172-0.266 0.273-0.445 0.273-0.078 0-0.156-0.016-0.227-0.055-0.242-0.125-0.344-0.422-0.219-0.672 0.039-0.078 0.82-1.594 2.391-2.102-0.117-0.195-0.195-0.422-0.195-0.672 0-0.688 0.563-1.25 1.25-1.25s1.25 0.563 1.25 1.25c0 0.18-0.039 0.344-0.109 0.5h2.359c0-0.117 0.086-0.219 0.195-0.242l3.5-0.75c0.023-0.008 0.039-0.008 0.055-0.008 0.055 0 0.109 0.016 0.156 0.055 0.062 0.047 0.094 0.117 0.094 0.195z"></path>
</svg>
