<!-- Generated by IcoMoon.io -->
<svg version="1.1" xmlns="http://www.w3.org/2000/svg" width="13" height="14" viewBox="0 0 13 14">
<title>firefox</title>
<path d="M7.055 14c-3.016 0-5.414-1.766-6.516-4.289-1.234-2.805-0.25-7.297 1.945-9.281l-0.086 2.195c0.109-0.141 0.945-0.18 1.078 0 0.453-0.867 1.914-1.516 3.086-1.539-0.445 0.375-1.477 1.742-1.391 2.438 0.57 0.18 1.445 0.187 1.906 0.219 0.141 0.078 0.117 0.555-0.164 0.945 0 0-0.367 0.508-1.359 0.688l0.117 1.477-1.086-0.523c-0.352 0.891 0.492 1.68 1.367 1.531 0.969-0.164 1.313-0.797 1.992-0.758 0.672 0.039 0.937 0.414 0.852 0.766 0 0-0.109 0.422-0.836 0.352-0.617 0.977-1.438 1.406-2.766 1.289 2.016 1.672 4.734 0.156 5.422-1.211 0.688-1.359 0.086-3.383-0.602-3.953 0.813 0.352 1.375 0.711 1.672 1.5 0.156-1.75-0.648-3.734-2.086-4.898 2.703 0.789 4.352 2.883 4.398 6.227s-2.961 6.828-6.945 6.828z"></path>
</svg>
