<!-- Generated by IcoMoon.io -->
<svg version="1.1" xmlns="http://www.w3.org/2000/svg" width="11" height="14" viewBox="0 0 11 14">
<title>fire</title>
<path d="M11 13.25v0.5c0 0.133-0.117 0.25-0.25 0.25h-10.5c-0.133 0-0.25-0.117-0.25-0.25v-0.5c0-0.133 0.117-0.25 0.25-0.25h10.5c0.133 0 0.25 0.117 0.25 0.25zM9 5c0 2.992-3.5 3.258-3.5 5.25 0 0.547 0.273 1.273 0.523 1.75l-0.031-0.008 0.008 0.008c-2.156-0.992-4-2.359-4-5 0-2.992 3.5-3.258 3.5-5.25 0-0.547-0.273-1.273-0.516-1.75l0.023 0.008-0.008-0.008c2.156 0.992 4 2.359 4 5z"></path>
</svg>
