<!-- Generated by IcoMoon.io -->
<svg version="1.1" xmlns="http://www.w3.org/2000/svg" width="12" height="14" viewBox="0 0 12 14">
<title>first-order</title>
<path d="M10.328 7c0 0.203-0.008 0.398-0.039 0.594l-1.844-0.109 1.75 0.609c-0.102 0.398-0.258 0.766-0.453 1.102l-1.672-0.805 1.383 1.234c-0.234 0.32-0.516 0.602-0.836 0.844l-1.227-1.391 0.805 1.68c-0.336 0.203-0.703 0.352-1.094 0.461l-0.617-1.781 0.109 1.875c-0.195 0.031-0.391 0.047-0.594 0.047-0.195 0-0.398-0.016-0.594-0.047l0.109-1.859-0.609 1.766c-0.391-0.102-0.758-0.258-1.094-0.461l0.805-1.68-1.227 1.391c-0.32-0.234-0.602-0.523-0.844-0.844l1.391-1.234-1.672 0.813c-0.195-0.344-0.352-0.711-0.453-1.102l1.75-0.617-1.852 0.109c-0.023-0.195-0.039-0.391-0.039-0.594s0.016-0.406 0.039-0.602l1.859 0.109-1.758-0.617c0.102-0.391 0.258-0.758 0.453-1.094l1.672 0.813-1.383-1.242c0.242-0.32 0.523-0.602 0.836-0.844l1.234 1.391-0.805-1.68c0.336-0.195 0.703-0.352 1.094-0.453l0.602 1.75-0.102-1.844c0.187-0.031 0.391-0.047 0.586-0.047 0.203 0 0.398 0.016 0.594 0.047l-0.109 1.852 0.609-1.758c0.391 0.102 0.758 0.258 1.094 0.461l-0.805 1.672 1.234-1.391c0.312 0.242 0.594 0.523 0.836 0.844l-1.383 1.242 1.664-0.813c0.203 0.336 0.352 0.711 0.453 1.102l-1.75 0.609 1.852-0.109c0.031 0.195 0.039 0.398 0.039 0.602zM10.562 7c0-2.539-2.047-4.594-4.562-4.594-2.523 0-4.562 2.055-4.562 4.594 0 2.531 2.039 4.586 4.562 4.586 2.516 0 4.562-2.055 4.562-4.586zM11.133 4.008v5.984l-5.133 2.992-5.133-2.992v-5.984l5.133-2.992zM6 13.43l5.531-3.219v-6.43l-5.531-3.211-5.531 3.211v6.43zM12 3.5v7l-6 3.5-6-3.5v-7l6-3.5z"></path>
</svg>
