<!-- Generated by IcoMoon.io -->
<svg version="1.1" xmlns="http://www.w3.org/2000/svg" width="14" height="14" viewBox="0 0 14 14">
<title>flag-checkered</title>
<path d="M6.5 7.813v-1.5c-0.953 0.086-2.102 0.469-3 0.914v1.445c0.906-0.422 2.031-0.781 3-0.859zM6.5 4.547v-1.539c-0.984 0.047-2.141 0.508-3 0.984v1.477c0.922-0.477 2.031-0.883 3-0.922zM13 8.164v-1.438c-0.711 0.352-1.953 0.875-3 0.555v-1.75c-0.102-0.031-0.203-0.070-0.305-0.117-0.898-0.453-1.633-0.875-2.812-0.875-0.125 0-0.25 0.008-0.383 0.023v1.734h0.148c1.18 0 2.148 0.422 3.047 0.867 0.102 0.047 0.203 0.086 0.305 0.117v1.469c0.211 0.086 0.445 0.133 0.711 0.133 0.867 0 1.805-0.461 2.289-0.719zM13 4.828v-1.477c-0.625 0.336-1.5 0.711-2.391 0.711v0c-0.211 0-0.414-0.016-0.609-0.062v1.531c1.047 0.297 2.289-0.305 3-0.703zM2.5 2c0 0.367-0.203 0.688-0.5 0.859v9.891c0 0.141-0.109 0.25-0.25 0.25h-0.5c-0.141 0-0.25-0.109-0.25-0.25v-9.891c-0.297-0.172-0.5-0.492-0.5-0.859 0-0.555 0.445-1 1-1s1 0.445 1 1zM14 2.5v5.961c0 0.187-0.109 0.359-0.273 0.445-0.031 0.016-0.078 0.039-0.133 0.070-0.5 0.266-1.68 0.906-2.883 0.906-0.461 0-0.875-0.094-1.234-0.273l-0.219-0.109c-0.789-0.398-1.414-0.711-2.375-0.711-1.125 0-2.711 0.586-3.625 1.141-0.078 0.047-0.172 0.070-0.258 0.070s-0.172-0.023-0.25-0.062c-0.156-0.094-0.25-0.258-0.25-0.438v-5.797c0-0.172 0.094-0.336 0.242-0.43 0.5-0.297 2.266-1.273 3.906-1.273 1.305 0 2.367 0.477 3.266 0.914 0.203 0.102 0.438 0.148 0.695 0.148 0.922 0 1.937-0.586 2.422-0.875 0.102-0.055 0.187-0.102 0.242-0.133 0.156-0.078 0.336-0.070 0.484 0.016 0.148 0.094 0.242 0.258 0.242 0.43z"></path>
</svg>
