<!-- Generated by IcoMoon.io -->
<svg version="1.1" xmlns="http://www.w3.org/2000/svg" width="14" height="14" viewBox="0 0 14 14">
<title>flag-o</title>
<path d="M13 8.164v-4.813c-0.625 0.336-1.5 0.711-2.391 0.711v0c-0.414 0-0.797-0.078-1.133-0.25-0.836-0.414-1.742-0.813-2.828-0.813-1.008 0-2.242 0.492-3.148 0.992v4.68c1.031-0.477 2.344-0.883 3.383-0.883 1.203 0 1.984 0.398 2.82 0.813l0.219 0.109c0.219 0.109 0.484 0.172 0.789 0.172 0.867 0 1.805-0.461 2.289-0.719zM2.5 2c0 0.367-0.203 0.688-0.5 0.859v9.891c0 0.141-0.109 0.25-0.25 0.25h-0.5c-0.141 0-0.25-0.109-0.25-0.25v-9.891c-0.297-0.172-0.5-0.492-0.5-0.859 0-0.555 0.445-1 1-1s1 0.445 1 1zM14 2.5v5.961c0 0.187-0.109 0.359-0.273 0.445-0.031 0.016-0.078 0.039-0.133 0.070-0.5 0.266-1.68 0.906-2.883 0.906-0.461 0-0.875-0.094-1.234-0.273l-0.219-0.109c-0.789-0.398-1.414-0.711-2.375-0.711-1.125 0-2.711 0.586-3.625 1.141-0.078 0.047-0.172 0.070-0.258 0.070s-0.172-0.023-0.25-0.062c-0.156-0.094-0.25-0.258-0.25-0.438v-5.797c0-0.172 0.094-0.336 0.242-0.43 0.5-0.297 2.266-1.273 3.906-1.273 1.305 0 2.367 0.477 3.266 0.914 0.203 0.102 0.438 0.148 0.695 0.148 0.922 0 1.937-0.586 2.422-0.875 0.102-0.055 0.187-0.102 0.242-0.133 0.156-0.078 0.336-0.070 0.484 0.016 0.148 0.094 0.242 0.258 0.242 0.43z"></path>
</svg>
