<!-- Generated by IcoMoon.io -->
<svg version="1.1" xmlns="http://www.w3.org/2000/svg" width="14" height="14" viewBox="0 0 14 14">
<title>flag</title>
<path d="M2.5 2c0 0.359-0.195 0.68-0.5 0.859v9.891c0 0.133-0.117 0.25-0.25 0.25h-0.5c-0.133 0-0.25-0.117-0.25-0.25v-9.891c-0.305-0.18-0.5-0.5-0.5-0.859 0-0.555 0.445-1 1-1s1 0.445 1 1zM14 2.5v5.961c0 0.289-0.18 0.398-0.406 0.516-0.883 0.477-1.859 0.906-2.883 0.906-1.438 0-2.125-1.094-3.828-1.094-1.242 0-2.547 0.563-3.625 1.141-0.086 0.047-0.164 0.070-0.258 0.070-0.273 0-0.5-0.227-0.5-0.5v-5.797c0-0.187 0.094-0.32 0.242-0.43 0.187-0.125 0.414-0.234 0.617-0.336 0.984-0.5 2.18-0.937 3.289-0.937 1.227 0 2.187 0.406 3.273 0.914 0.219 0.109 0.445 0.148 0.688 0.148 1.227 0 2.547-1.062 2.891-1.062 0.273 0 0.5 0.227 0.5 0.5z"></path>
</svg>
