<!-- Generated by IcoMoon.io -->
<svg version="1.1" xmlns="http://www.w3.org/2000/svg" width="12" height="14" viewBox="0 0 12 14">
<title>flickr</title>
<path d="M9.75 1c1.242 0 2.25 1.008 2.25 2.25v7.5c0 1.242-1.008 2.25-2.25 2.25h-7.5c-1.242 0-2.25-1.008-2.25-2.25v-7.5c0-1.242 1.008-2.25 2.25-2.25h7.5zM5.453 7c0-0.914-0.742-1.656-1.656-1.656s-1.656 0.742-1.656 1.656 0.742 1.656 1.656 1.656 1.656-0.742 1.656-1.656zM9.859 7c0-0.914-0.742-1.656-1.656-1.656s-1.656 0.742-1.656 1.656 0.742 1.656 1.656 1.656 1.656-0.742 1.656-1.656z"></path>
</svg>
