<!-- Generated by IcoMoon.io -->
<svg version="1.1" xmlns="http://www.w3.org/2000/svg" width="12" height="14" viewBox="0 0 12 14">
<title>floppy-o</title>
<path d="M3 12h6v-3h-6v3zM10 12h1v-7c0-0.148-0.133-0.469-0.234-0.57l-2.195-2.195c-0.109-0.109-0.414-0.234-0.57-0.234v3.25c0 0.414-0.336 0.75-0.75 0.75h-4.5c-0.414 0-0.75-0.336-0.75-0.75v-3.25h-1v10h1v-3.25c0-0.414 0.336-0.75 0.75-0.75h6.5c0.414 0 0.75 0.336 0.75 0.75v3.25zM7 4.75v-2.5c0-0.133-0.117-0.25-0.25-0.25h-1.5c-0.133 0-0.25 0.117-0.25 0.25v2.5c0 0.133 0.117 0.25 0.25 0.25h1.5c0.133 0 0.25-0.117 0.25-0.25zM12 5v7.25c0 0.414-0.336 0.75-0.75 0.75h-10.5c-0.414 0-0.75-0.336-0.75-0.75v-10.5c0-0.414 0.336-0.75 0.75-0.75h7.25c0.414 0 0.984 0.234 1.281 0.531l2.188 2.188c0.297 0.297 0.531 0.867 0.531 1.281z"></path>
</svg>
