<!-- Generated by IcoMoon.io -->
<svg version="1.1" xmlns="http://www.w3.org/2000/svg" width="13" height="14" viewBox="0 0 13 14">
<title>folder-o</title>
<path d="M12 10.25v-5.5c0-0.414-0.336-0.75-0.75-0.75h-5.5c-0.414 0-0.75-0.336-0.75-0.75v-0.5c0-0.414-0.336-0.75-0.75-0.75h-2.5c-0.414 0-0.75 0.336-0.75 0.75v7.5c0 0.414 0.336 0.75 0.75 0.75h9.5c0.414 0 0.75-0.336 0.75-0.75zM13 4.75v5.5c0 0.961-0.789 1.75-1.75 1.75h-9.5c-0.961 0-1.75-0.789-1.75-1.75v-7.5c0-0.961 0.789-1.75 1.75-1.75h2.5c0.961 0 1.75 0.789 1.75 1.75v0.25h5.25c0.961 0 1.75 0.789 1.75 1.75z"></path>
</svg>
