<!-- Generated by IcoMoon.io -->
<svg version="1.1" xmlns="http://www.w3.org/2000/svg" width="15" height="14" viewBox="0 0 15 14">
<title>folder-open-o</title>
<path d="M13.914 7.273c0-0.219-0.242-0.273-0.414-0.273h-8.5c-0.414 0-0.961 0.258-1.227 0.578l-2.297 2.836c-0.070 0.094-0.141 0.195-0.141 0.312 0 0.219 0.242 0.273 0.414 0.273h8.5c0.414 0 0.961-0.258 1.227-0.586l2.297-2.836c0.070-0.086 0.141-0.187 0.141-0.305zM5 6h6v-1.25c0-0.414-0.336-0.75-0.75-0.75h-4.5c-0.414 0-0.75-0.336-0.75-0.75v-0.5c0-0.414-0.336-0.75-0.75-0.75h-2.5c-0.414 0-0.75 0.336-0.75 0.75v6.664l2-2.461c0.453-0.555 1.289-0.953 2-0.953zM14.914 7.273c0 0.344-0.148 0.672-0.359 0.937l-2.305 2.836c-0.445 0.547-1.297 0.953-2 0.953h-8.5c-0.961 0-1.75-0.789-1.75-1.75v-7.5c0-0.961 0.789-1.75 1.75-1.75h2.5c0.961 0 1.75 0.789 1.75 1.75v0.25h4.25c0.961 0 1.75 0.789 1.75 1.75v1.25h1.5c0.531 0 1.062 0.242 1.297 0.742 0.078 0.164 0.117 0.344 0.117 0.531z"></path>
</svg>
