<!-- Generated by IcoMoon.io -->
<svg version="1.1" xmlns="http://www.w3.org/2000/svg" width="15" height="14" viewBox="0 0 15 14">
<title>folder-open</title>
<path d="M14.68 7.438c0 0.187-0.117 0.375-0.242 0.516l-2.625 3.094c-0.453 0.531-1.375 0.953-2.062 0.953h-8.5c-0.281 0-0.68-0.086-0.68-0.438 0-0.187 0.117-0.375 0.242-0.516l2.625-3.094c0.453-0.531 1.375-0.953 2.062-0.953h8.5c0.281 0 0.68 0.086 0.68 0.438zM12 4.75v1.25h-6.5c-0.977 0-2.188 0.555-2.82 1.305l-2.672 3.141c0-0.062-0.008-0.133-0.008-0.195v-7.5c0-0.961 0.789-1.75 1.75-1.75h2.5c0.961 0 1.75 0.789 1.75 1.75v0.25h4.25c0.961 0 1.75 0.789 1.75 1.75z"></path>
</svg>
