<!-- Generated by IcoMoon.io -->
<svg version="1.1" xmlns="http://www.w3.org/2000/svg" width="13" height="14" viewBox="0 0 13 14">
<title>font</title>
<path d="M5.664 4.367l-1.328 3.516c0.773 0.008 1.547 0.031 2.32 0.031 0.148 0 0.297-0.008 0.445-0.016-0.406-1.187-0.883-2.398-1.438-3.531zM0 13l0.016-0.617c0.734-0.227 1.531-0.070 1.859-0.914l1.852-4.813 2.188-5.656h1c0.031 0.055 0.062 0.109 0.086 0.164l1.602 3.75c0.586 1.383 1.125 2.781 1.719 4.156 0.352 0.813 0.625 1.648 1.016 2.445 0.055 0.125 0.164 0.359 0.273 0.445 0.258 0.203 0.977 0.25 1.344 0.391 0.023 0.148 0.047 0.297 0.047 0.445 0 0.070-0.008 0.133-0.008 0.203-0.992 0-1.984-0.125-2.977-0.125-1.023 0-2.047 0.086-3.070 0.117 0-0.203 0.008-0.406 0.031-0.609l1.023-0.219c0.211-0.047 0.625-0.102 0.625-0.391 0-0.281-1.008-2.602-1.133-2.922l-3.516-0.016c-0.203 0.453-0.992 2.5-0.992 2.797 0 0.602 1.148 0.625 1.594 0.688 0.008 0.148 0.008 0.297 0.008 0.453 0 0.070-0.008 0.141-0.016 0.211-0.906 0-1.82-0.156-2.727-0.156-0.109 0-0.266 0.047-0.375 0.062-0.492 0.086-0.977 0.109-1.469 0.109z"></path>
</svg>
