<!-- Generated by IcoMoon.io -->
<svg version="1.1" xmlns="http://www.w3.org/2000/svg" width="12" height="14" viewBox="0 0 12 14">
<title>fonticons</title>
<path d="M0 1h12v12h-12v-12zM7.094 3.5l-0.094 0.258 0.586 0.648-0.242 0.891 0.195 0.195 0.836-0.445 0.836 0.445 0.195-0.195-0.242-0.891 0.586-0.648-0.094-0.258h-0.742l-0.414-0.75h-0.25l-0.414 0.75h-0.742zM5.008 4.773c0.32 0 0.445 0.117 0.438 0.617l1.359-0.164c0-1.195-0.82-1.414-1.734-1.414-1.359 0-2.070 0.547-2.070 1.875v0.563h-0.75v1h0.594c0.078 0 0.156 0 0.156 0.062v2.984c0 0.148-0.039 0.195-0.18 0.211l-0.57 0.055v0.688h3.5v-0.672l-1.164-0.109c-0.141-0.016-0.086-0.039-0.086-0.195v-3.023h1.492l0.297-1h-1.805c-0.078 0 0.016-0.055 0.016-0.117v-0.625c0-0.469 0.016-0.734 0.508-0.734zM9.75 11.25v-0.672l-0.422-0.070c-0.148-0.023-0.078-0.039-0.078-0.195v-4.063h-2.148l-0.18 0.789 0.648 0.172c0.102 0.031 0.18 0.102 0.18 0.211v2.891c0 0.148-0.062 0.18-0.203 0.195l-0.547 0.070v0.672h2.75z"></path>
</svg>
