<!-- Generated by IcoMoon.io -->
<svg version="1.1" xmlns="http://www.w3.org/2000/svg" width="13" height="14" viewBox="0 0 13 14">
<title>fort-awesome</title>
<path d="M5 7.875v-1.75c0-0.070-0.055-0.125-0.125-0.125h-0.75c-0.070 0-0.125 0.055-0.125 0.125v1.75c0 0.070 0.055 0.125 0.125 0.125h0.75c0.070 0 0.125-0.055 0.125-0.125zM9 7.875v-1.75c0-0.070-0.055-0.125-0.125-0.125h-0.75c-0.070 0-0.125 0.055-0.125 0.125v1.75c0 0.070 0.055 0.125 0.125 0.125h0.75c0.070 0 0.125-0.055 0.125-0.125zM13 8.125v5.875h-5v-2.5c0-0.828-0.672-1.5-1.5-1.5s-1.5 0.672-1.5 1.5v2.5h-5v-5.875c0-0.070 0.055-0.125 0.125-0.125h0.75c0.070 0 0.125 0.055 0.125 0.125v0.875h1v-4.875c0-0.070 0.055-0.125 0.125-0.125h0.75c0.070 0 0.125 0.055 0.125 0.125v0.875h1v-0.875c0-0.070 0.055-0.125 0.125-0.125h0.75c0.070 0 0.125 0.055 0.125 0.125v0.875h1v-0.875c0-0.164 0.219-0.125 0.32-0.125v-3.055c-0.148-0.070-0.25-0.227-0.25-0.391 0-0.234 0.195-0.43 0.43-0.43s0.43 0.195 0.43 0.43c0 0.164-0.102 0.32-0.25 0.391v0.133c0.211-0.047 0.43-0.078 0.648-0.078 0.32 0 0.625 0.117 0.891 0.117 0.242 0 0.516-0.117 0.656-0.117 0.070 0 0.125 0.055 0.125 0.125v1.641c0 0.187-0.633 0.219-0.758 0.219-0.289 0-0.563-0.117-0.859-0.117-0.234 0-0.477 0.039-0.703 0.094v1.039c0.102 0 0.32-0.039 0.32 0.125v0.875h1v-0.875c0-0.070 0.055-0.125 0.125-0.125h0.75c0.070 0 0.125 0.055 0.125 0.125v0.875h1v-0.875c0-0.070 0.055-0.125 0.125-0.125h0.75c0.070 0 0.125 0.055 0.125 0.125v4.875h1v-0.875c0-0.070 0.055-0.125 0.125-0.125h0.75c0.070 0 0.125 0.055 0.125 0.125z"></path>
</svg>
