<!-- Generated by IcoMoon.io -->
<svg version="1.1" xmlns="http://www.w3.org/2000/svg" width="12" height="14" viewBox="0 0 12 14">
<title>forumbee</title>
<path d="M7.297 1.172c-3.305 1.258-5.906 3.898-7.141 7.211-0.102-0.453-0.156-0.914-0.156-1.375 0-3.305 2.672-5.984 5.977-5.984 0.445 0 0.891 0.055 1.32 0.148zM9.398 2.102c0.484 0.336 0.914 0.742 1.281 1.211-4.047 1.18-7.211 4.359-8.367 8.414-0.461-0.359-0.875-0.781-1.211-1.266 1.164-4.016 4.289-7.172 8.297-8.359zM3.672 12.523c1.203-3.711 4.109-6.633 7.805-7.859 0.211 0.484 0.352 1 0.422 1.523-3.047 1.25-5.469 3.687-6.711 6.742-0.523-0.070-1.031-0.203-1.516-0.406zM12 12.977c-0.969-0.25-1.93-0.547-2.867-0.898-0.688 0.43-1.461 0.719-2.266 0.836 1.141-2.133 2.898-3.898 5.023-5.047-0.109 0.781-0.383 1.547-0.789 2.219 0.352 0.945 0.648 1.914 0.898 2.891z"></path>
</svg>
