<!-- Generated by IcoMoon.io -->
<svg version="1.1" xmlns="http://www.w3.org/2000/svg" width="10" height="14" viewBox="0 0 10 14">
<title>foursquare</title>
<path d="M7.813 3.391l0.289-1.516c0.055-0.25-0.133-0.445-0.344-0.445h-5.562c-0.25 0-0.422 0.227-0.422 0.422v8.602c0 0.023 0.023 0.031 0.047 0.008 2.047-2.461 2.273-2.75 2.273-2.75 0.234-0.273 0.328-0.32 0.672-0.32h1.867c0.258 0 0.406-0.219 0.43-0.344s0.242-1.266 0.289-1.492-0.164-0.461-0.375-0.461h-2.297c-0.305 0-0.523-0.219-0.523-0.523v-0.328c0-0.305 0.219-0.516 0.523-0.516h2.703c0.187 0 0.398-0.172 0.43-0.336zM9.586 1.656c-0.289 1.406-1.156 5.852-1.234 6.172-0.094 0.367-0.234 1.008-1.125 1.008h-2.117c-0.086 0-0.094-0.008-0.172 0.078 0 0-0.055 0.062-3.328 3.859-0.258 0.297-0.68 0.242-0.836 0.18s-0.43-0.25-0.43-0.766v-11.016c0-0.453 0.281-1.172 1.234-1.172h6.938c1.016 0 1.289 0.578 1.070 1.656zM9.586 1.656l-1.234 6.172c0.078-0.32 0.945-4.766 1.234-6.172z"></path>
</svg>
