<!-- Generated by IcoMoon.io -->
<svg version="1.1" xmlns="http://www.w3.org/2000/svg" width="12" height="14" viewBox="0 0 12 14">
<title>frown-o</title>
<path d="M8.859 9.602c0.086 0.266-0.062 0.539-0.32 0.625-0.266 0.086-0.547-0.062-0.633-0.328-0.258-0.836-1.031-1.398-1.906-1.398s-1.648 0.563-1.906 1.398c-0.086 0.266-0.367 0.414-0.625 0.328-0.266-0.086-0.414-0.359-0.328-0.625 0.391-1.258 1.539-2.102 2.859-2.102s2.469 0.844 2.859 2.102zM5 5c0 0.555-0.445 1-1 1s-1-0.445-1-1 0.445-1 1-1 1 0.445 1 1zM9 5c0 0.555-0.445 1-1 1s-1-0.445-1-1 0.445-1 1-1 1 0.445 1 1zM11 7c0-2.758-2.242-5-5-5s-5 2.242-5 5 2.242 5 5 5 5-2.242 5-5zM12 7c0 3.313-2.687 6-6 6s-6-2.687-6-6 2.687-6 6-6 6 2.687 6 6z"></path>
</svg>
