<!-- Generated by IcoMoon.io -->
<svg version="1.1" xmlns="http://www.w3.org/2000/svg" width="14" height="14" viewBox="0 0 14 14">
<title>futbol-o</title>
<path d="M4.758 6.375l2.242-1.625 2.242 1.625-0.852 2.625h-2.773zM7 0c3.867 0 7 3.133 7 7s-3.133 7-7 7-7-3.133-7-7 3.133-7 7-7zM11.836 10.547c0.734-1 1.164-2.219 1.164-3.547v-0.023l-0.797 0.695-1.875-1.75 0.492-2.523 1.047 0.094c-0.742-1.023-1.805-1.812-3.039-2.203l0.414 0.969-2.242 1.242-2.242-1.242 0.414-0.969c-1.234 0.391-2.297 1.18-3.039 2.203l1.055-0.094 0.484 2.523-1.875 1.75-0.797-0.695v0.023c0 1.328 0.43 2.547 1.164 3.547l0.234-1.031 2.547 0.312 1.086 2.328-0.906 0.539c0.586 0.195 1.219 0.305 1.875 0.305s1.289-0.109 1.875-0.305l-0.906-0.539 1.086-2.328 2.547-0.312z"></path>
</svg>
