<!-- Generated by IcoMoon.io -->
<svg version="1.1" xmlns="http://www.w3.org/2000/svg" width="15" height="14" viewBox="0 0 15 14">
<title>gamepad</title>
<path d="M6.5 8.5v-1c0-0.141-0.109-0.25-0.25-0.25h-1.5v-1.5c0-0.141-0.109-0.25-0.25-0.25h-1c-0.141 0-0.25 0.109-0.25 0.25v1.5h-1.5c-0.141 0-0.25 0.109-0.25 0.25v1c0 0.141 0.109 0.25 0.25 0.25h1.5v1.5c0 0.141 0.109 0.25 0.25 0.25h1c0.141 0 0.25-0.109 0.25-0.25v-1.5h1.5c0.141 0 0.25-0.109 0.25-0.25zM11 9c0-0.555-0.445-1-1-1s-1 0.445-1 1 0.445 1 1 1 1-0.445 1-1zM13 7c0-0.555-0.445-1-1-1s-1 0.445-1 1 0.445 1 1 1 1-0.445 1-1zM15 8c0 2.211-1.789 4-4 4-1.016 0-1.937-0.383-2.641-1h-1.719c-0.703 0.617-1.625 1-2.641 1-2.211 0-4-1.789-4-4s1.789-4 4-4h7c2.211 0 4 1.789 4 4z"></path>
</svg>
