<!-- Generated by IcoMoon.io -->
<svg version="1.1" xmlns="http://www.w3.org/2000/svg" width="14" height="14" viewBox="0 0 14 14">
<title>gavel</title>
<path d="M13.836 12c0 0.266-0.109 0.523-0.289 0.703l-0.836 0.844c-0.187 0.18-0.445 0.289-0.711 0.289s-0.523-0.109-0.703-0.289l-2.836-2.844c-0.187-0.18-0.297-0.438-0.297-0.703 0-0.297 0.125-0.539 0.336-0.75l-2-2-0.984 0.984c-0.070 0.070-0.164 0.109-0.266 0.109s-0.195-0.039-0.266-0.109c0.234 0.234 0.453 0.406 0.453 0.766 0 0.203-0.078 0.383-0.219 0.531-0.266 0.281-0.547 0.656-0.969 0.656-0.195 0-0.391-0.078-0.531-0.219l-3.188-3.188c-0.141-0.141-0.219-0.336-0.219-0.531 0-0.422 0.375-0.703 0.656-0.969 0.148-0.141 0.328-0.219 0.531-0.219 0.359 0 0.531 0.219 0.766 0.453-0.070-0.070-0.109-0.164-0.109-0.266s0.039-0.195 0.109-0.266l2.719-2.719c0.070-0.070 0.164-0.109 0.266-0.109s0.195 0.039 0.266 0.109c-0.234-0.234-0.453-0.406-0.453-0.766 0-0.203 0.078-0.383 0.219-0.531 0.266-0.281 0.547-0.656 0.969-0.656 0.195 0 0.391 0.078 0.531 0.219l3.188 3.188c0.141 0.141 0.219 0.336 0.219 0.531 0 0.422-0.375 0.703-0.656 0.969-0.148 0.141-0.328 0.219-0.531 0.219-0.359 0-0.531-0.219-0.766-0.453 0.070 0.070 0.109 0.164 0.109 0.266s-0.039 0.195-0.109 0.266l-0.984 0.984 2 2c0.211-0.211 0.453-0.336 0.75-0.336 0.266 0 0.523 0.109 0.711 0.289l2.836 2.836c0.18 0.187 0.289 0.445 0.289 0.711z"></path>
</svg>
