<!-- Generated by IcoMoon.io -->
<svg version="1.1" xmlns="http://www.w3.org/2000/svg" width="8" height="14" viewBox="0 0 8 14">
<title>gbp</title>
<path d="M7.969 8.883v2.867c0 0.141-0.109 0.25-0.25 0.25h-7.469c-0.141 0-0.25-0.109-0.25-0.25v-1.172c0-0.133 0.109-0.25 0.25-0.25h0.758v-2.992h-0.742c-0.141 0-0.25-0.109-0.25-0.25v-1.023c0-0.141 0.109-0.25 0.25-0.25h0.742v-1.742c0-1.781 1.438-3.070 3.422-3.070 1.563 0 2.57 0.937 2.617 0.977 0.094 0.086 0.102 0.234 0.023 0.336l-0.805 0.992c-0.047 0.055-0.102 0.086-0.172 0.094-0.062 0.008-0.133-0.016-0.18-0.055-0.008-0.008-0.68-0.539-1.469-0.539-0.883 0-1.477 0.531-1.477 1.328v1.68h2.383c0.141 0 0.25 0.109 0.25 0.25v1.023c0 0.141-0.109 0.25-0.25 0.25h-2.383v2.961h3.234v-1.414c0-0.141 0.109-0.25 0.25-0.25h1.266c0.141 0 0.25 0.109 0.25 0.25z"></path>
</svg>
