<!-- Generated by IcoMoon.io -->
<svg version="1.1" xmlns="http://www.w3.org/2000/svg" width="13" height="14" viewBox="0 0 13 14">
<title>get-pocket</title>
<path d="M12.227 1c0.68 0 1.211 0.547 1.211 1.219v4.055c0 3.742-2.992 6.727-6.711 6.727-3.734 0-6.727-2.984-6.727-6.727v-4.055c0-0.664 0.555-1.219 1.219-1.219h11.008zM6.727 9.313c0.234 0 0.469-0.094 0.641-0.258l3.156-3.031c0.18-0.172 0.289-0.414 0.289-0.664 0-0.508-0.414-0.922-0.922-0.922-0.242 0-0.469 0.094-0.641 0.258l-2.523 2.422-2.523-2.422c-0.172-0.164-0.398-0.258-0.633-0.258-0.508 0-0.922 0.414-0.922 0.922 0 0.25 0.102 0.492 0.281 0.664l3.164 3.031c0.164 0.164 0.398 0.258 0.633 0.258z"></path>
</svg>
