<!-- Generated by IcoMoon.io -->
<svg version="1.1" xmlns="http://www.w3.org/2000/svg" width="14" height="14" viewBox="0 0 14 14">
<title>gg-circle</title>
<path d="M5.602 10.578l2.117-2.117-2.18-2.18-0.688 0.688 1.5 1.492-0.75 0.75-2.18-2.18 2.18-2.18 0.312 0.312 0.68-0.68-0.992-1-3.547 3.547zM8.398 10.516l3.547-3.547-3.547-3.547-2.117 2.117 2.18 2.18 0.688-0.688-1.5-1.492 0.75-0.75 2.18 2.18-2.18 2.18-0.312-0.312-0.68 0.688zM14 7c0 3.867-3.133 7-7 7s-7-3.133-7-7 3.133-7 7-7 7 3.133 7 7z"></path>
</svg>
