<!-- Generated by IcoMoon.io -->
<svg version="1.1" xmlns="http://www.w3.org/2000/svg" width="12" height="14" viewBox="0 0 12 14">
<title>git-square</title>
<path d="M4.547 10.219c0 0.422-0.383 0.516-0.727 0.516-0.336 0-0.836-0.055-0.836-0.492 0-0.43 0.422-0.5 0.766-0.5 0.328 0 0.797 0.055 0.797 0.477zM4.266 6.578c0 0.391-0.156 0.664-0.578 0.664-0.43 0-0.602-0.25-0.602-0.656s0.156-0.703 0.602-0.703c0.398 0 0.578 0.328 0.578 0.695zM5.562 5.992v-0.977c-0.336 0.125-0.695 0.227-1.055 0.227-0.258-0.148-0.555-0.227-0.859-0.227-0.891 0-1.594 0.656-1.594 1.563 0 0.484 0.32 1.156 0.805 1.32v0.023c-0.25 0.109-0.297 0.414-0.297 0.664 0 0.258 0.094 0.469 0.32 0.602v0.023c-0.531 0.172-0.883 0.508-0.883 1.086 0 0.992 0.945 1.273 1.773 1.273 1 0 1.75-0.367 1.75-1.469 0-0.781-0.711-1.016-1.359-1.133-0.219-0.039-0.594-0.195-0.594-0.469 0-0.258 0.141-0.367 0.383-0.406 0.797-0.156 1.305-0.773 1.305-1.594 0-0.141-0.031-0.273-0.078-0.406 0.125-0.031 0.258-0.062 0.383-0.102zM6.023 9.266h1.070c-0.016-0.211-0.016-0.43-0.016-0.641v-3.023c0-0.18 0-0.359 0.016-0.539h-1.070c0.023 0.18 0.023 0.375 0.023 0.555v3.063c0 0.195 0 0.391-0.023 0.586zM10 9.141v-0.945c-0.156 0.109-0.344 0.164-0.531 0.164-0.352 0-0.414-0.352-0.414-0.641v-1.758h0.406c0.141 0 0.273 0.016 0.414 0.016v-0.914h-0.82c0-0.266-0.016-0.531 0.023-0.797h-1.094c0.023 0.141 0.031 0.281 0.031 0.43v0.367h-0.469v0.914c0.094-0.008 0.187-0.023 0.289-0.023 0.055 0 0.117 0.008 0.18 0.008v0.016h-0.016v1.695c0 0.844 0.125 1.656 1.156 1.656 0.289 0 0.586-0.047 0.844-0.187zM7.219 3.625c0-0.367-0.273-0.711-0.656-0.711s-0.664 0.336-0.664 0.711c0 0.367 0.289 0.695 0.664 0.695s0.656-0.336 0.656-0.695zM12 3.25v7.5c0 1.242-1.008 2.25-2.25 2.25h-7.5c-1.242 0-2.25-1.008-2.25-2.25v-7.5c0-1.242 1.008-2.25 2.25-2.25h7.5c1.242 0 2.25 1.008 2.25 2.25z"></path>
</svg>
