<!-- Generated by IcoMoon.io -->
<svg version="1.1" xmlns="http://www.w3.org/2000/svg" width="14" height="14" viewBox="0 0 14 14">
<title>git</title>
<path d="M4.648 11.828c0-0.688-0.758-0.781-1.289-0.781-0.555 0-1.234 0.117-1.234 0.813 0 0.703 0.805 0.789 1.344 0.789 0.57 0 1.18-0.141 1.18-0.82zM4.188 5.93c0-0.586-0.281-1.117-0.93-1.117-0.719 0-0.969 0.477-0.969 1.133 0 0.648 0.281 1.055 0.969 1.055 0.68 0 0.93-0.438 0.93-1.070zM6.289 3.398v1.578c-0.203 0.070-0.406 0.125-0.617 0.172 0.078 0.211 0.125 0.43 0.125 0.656 0 1.32-0.813 2.328-2.109 2.57-0.391 0.078-0.617 0.242-0.617 0.664 0 1.195 3.156 0.383 3.156 2.586 0 1.789-1.211 2.375-2.836 2.375-1.336 0-2.859-0.445-2.859-2.055 0-0.937 0.57-1.477 1.422-1.758v-0.031c-0.359-0.219-0.523-0.563-0.523-0.984 0-0.398 0.086-0.891 0.492-1.070v-0.031c-0.789-0.266-1.305-1.352-1.305-2.141 0-1.461 1.133-2.531 2.578-2.531 0.484 0 0.969 0.125 1.391 0.367 0.586 0 1.164-0.156 1.703-0.367zM8.773 10.281h-1.734c0.031-0.352 0.031-0.695 0.031-1.047v-4.758c0-0.336 0.008-0.672-0.031-1h1.734c-0.039 0.32-0.031 0.648-0.031 0.969v4.789c0 0.352 0 0.695 0.031 1.047zM13.469 8.547v1.531c-0.414 0.227-0.891 0.305-1.359 0.305-1.672 0-1.867-1.32-1.867-2.68v-2.742h0.016v-0.031c-0.102 0-0.195-0.016-0.289-0.016-0.156 0-0.312 0.023-0.461 0.047v-1.484h0.75v-0.594c0-0.234-0.008-0.469-0.047-0.695h1.773c-0.062 0.43-0.047 0.859-0.047 1.289h1.336v1.484c-0.227 0-0.453-0.031-0.672-0.031h-0.664v2.852c0 0.461 0.102 1.023 0.68 1.023 0.305 0 0.602-0.086 0.852-0.258zM8.969 1.148c0 0.586-0.453 1.133-1.055 1.133-0.617 0-1.078-0.539-1.078-1.133 0-0.602 0.453-1.148 1.078-1.148 0.617 0 1.055 0.563 1.055 1.148z"></path>
</svg>
