<!-- Generated by IcoMoon.io -->
<svg version="1.1" xmlns="http://www.w3.org/2000/svg" width="13" height="14" viewBox="0 0 13 14">
<title>github-alt</title>
<path d="M5 9.5c0 0.57-0.297 1.5-1 1.5s-1-0.93-1-1.5 0.297-1.5 1-1.5 1 0.93 1 1.5zM10 9.5c0 0.57-0.297 1.5-1 1.5s-1-0.93-1-1.5 0.297-1.5 1-1.5 1 0.93 1 1.5zM11.25 9.5c0-1.195-0.727-2.25-2-2.25-0.516 0-1.008 0.094-1.523 0.164-0.406 0.062-0.813 0.086-1.227 0.086s-0.82-0.023-1.227-0.086c-0.508-0.070-1.008-0.164-1.523-0.164-1.273 0-2 1.055-2 2.25 0 2.391 2.188 2.758 4.094 2.758h1.312c1.906 0 4.094-0.367 4.094-2.758zM13 8.125c0 0.867-0.086 1.789-0.477 2.586-1.031 2.086-3.867 2.289-5.898 2.289-2.062 0-5.070-0.18-6.141-2.289-0.398-0.789-0.484-1.719-0.484-2.586 0-1.141 0.312-2.219 1.062-3.094-0.141-0.43-0.211-0.883-0.211-1.328 0-0.586 0.133-1.172 0.398-1.703 1.234 0 2.023 0.539 2.961 1.273 0.789-0.187 1.602-0.273 2.414-0.273 0.734 0 1.477 0.078 2.187 0.25 0.93-0.727 1.719-1.25 2.937-1.25 0.266 0.531 0.398 1.117 0.398 1.703 0 0.445-0.070 0.891-0.211 1.313 0.75 0.883 1.062 1.969 1.062 3.109z"></path>
</svg>
