<!-- Generated by IcoMoon.io -->
<svg version="1.1" xmlns="http://www.w3.org/2000/svg" width="12" height="14" viewBox="0 0 12 14">
<title>github-square</title>
<path d="M4.055 9.375v0c0.016-0.023 0.008-0.070-0.023-0.102-0.039-0.031-0.086-0.039-0.109-0.016-0.016 0.023-0.008 0.070 0.023 0.102 0.039 0.031 0.086 0.039 0.109 0.016zM3.836 9.055c-0.023-0.031-0.062-0.047-0.094-0.031-0.023 0.016-0.023 0.062 0 0.094 0.031 0.039 0.070 0.055 0.094 0.039v0c0.023-0.016 0.023-0.062 0-0.102zM3.516 8.742v0c0.008-0.016-0.008-0.047-0.039-0.062-0.023-0.008-0.055-0.008-0.062 0.016-0.016 0.023 0 0.047 0.031 0.062 0.031 0.008 0.062 0.008 0.070-0.016zM3.68 8.922v0c0.016-0.016 0.016-0.055-0.016-0.078-0.023-0.031-0.062-0.039-0.078-0.023-0.023 0.023-0.016 0.055 0.008 0.086 0.023 0.023 0.062 0.039 0.086 0.016zM4.352 9.508v0c0.008-0.031-0.023-0.070-0.070-0.086s-0.086 0-0.102 0.031c-0.008 0.031 0.023 0.070 0.070 0.086s0.086 0 0.102-0.031zM4.68 9.531v0c0-0.031-0.039-0.062-0.094-0.062-0.047 0-0.078 0.031-0.078 0.062s0.039 0.062 0.086 0.062 0.086-0.031 0.086-0.062zM4.984 9.477v0c-0.008-0.031-0.055-0.047-0.102-0.039s-0.078 0.039-0.070 0.070 0.047 0.055 0.094 0.047 0.078-0.047 0.078-0.078zM10 7c0-2.211-1.789-4-4-4s-4 1.789-4 4c0 1.766 1.148 3.266 2.734 3.797 0.203 0.039 0.273-0.086 0.273-0.195 0-0.094 0-0.406-0.008-0.742 0 0-1.109 0.242-1.344-0.477 0 0-0.18-0.461-0.445-0.578 0 0-0.359-0.25 0.031-0.25 0 0 0.391 0.031 0.609 0.414 0.352 0.617 0.937 0.438 1.164 0.336 0.039-0.258 0.141-0.438 0.258-0.539-0.891-0.102-1.828-0.445-1.828-1.977 0-0.438 0.156-0.789 0.414-1.070-0.039-0.102-0.18-0.508 0.039-1.062 0.336-0.102 1.102 0.414 1.102 0.414 0.32-0.094 0.656-0.133 1-0.133s0.68 0.039 1 0.133c0 0 0.766-0.516 1.102-0.414 0.219 0.555 0.078 0.961 0.039 1.062 0.258 0.281 0.414 0.633 0.414 1.070 0 1.539-0.937 1.875-1.828 1.977 0.141 0.125 0.273 0.367 0.273 0.742 0 0.531-0.008 0.961-0.008 1.094 0 0.109 0.070 0.234 0.273 0.195 1.586-0.531 2.734-2.031 2.734-3.797zM12 3.25v7.5c0 1.242-1.008 2.25-2.25 2.25h-7.5c-1.242 0-2.25-1.008-2.25-2.25v-7.5c0-1.242 1.008-2.25 2.25-2.25h7.5c1.242 0 2.25 1.008 2.25 2.25z"></path>
</svg>
