<!-- Generated by IcoMoon.io -->
<svg version="1.1" xmlns="http://www.w3.org/2000/svg" width="12" height="14" viewBox="0 0 12 14">
<title>github</title>
<path d="M6 1c3.313 0 6 2.687 6 6 0 2.648-1.719 4.898-4.102 5.695-0.305 0.055-0.414-0.133-0.414-0.289 0-0.195 0.008-0.844 0.008-1.648 0-0.563-0.187-0.922-0.406-1.109 1.336-0.148 2.742-0.656 2.742-2.961 0-0.656-0.234-1.187-0.617-1.609 0.062-0.156 0.266-0.766-0.062-1.594-0.5-0.156-1.648 0.617-1.648 0.617-0.477-0.133-0.992-0.203-1.5-0.203s-1.023 0.070-1.5 0.203c0 0-1.148-0.773-1.648-0.617-0.328 0.828-0.125 1.438-0.062 1.594-0.383 0.422-0.617 0.953-0.617 1.609 0 2.297 1.398 2.812 2.734 2.961-0.172 0.156-0.328 0.422-0.383 0.805-0.344 0.156-1.219 0.422-1.742-0.5-0.328-0.57-0.922-0.617-0.922-0.617-0.586-0.008-0.039 0.367-0.039 0.367 0.391 0.18 0.664 0.875 0.664 0.875 0.352 1.070 2.023 0.711 2.023 0.711 0 0.5 0.008 0.969 0.008 1.117 0 0.156-0.109 0.344-0.414 0.289-2.383-0.797-4.102-3.047-4.102-5.695 0-3.313 2.687-6 6-6zM2.273 9.617c0.016-0.031-0.008-0.070-0.055-0.094-0.047-0.016-0.086-0.008-0.102 0.016-0.016 0.031 0.008 0.070 0.055 0.094 0.039 0.023 0.086 0.016 0.102-0.016zM2.516 9.883c0.031-0.023 0.023-0.078-0.016-0.125-0.039-0.039-0.094-0.055-0.125-0.023-0.031 0.023-0.023 0.078 0.016 0.125 0.039 0.039 0.094 0.055 0.125 0.023zM2.75 10.234c0.039-0.031 0.039-0.094 0-0.148-0.031-0.055-0.094-0.078-0.133-0.047-0.039 0.023-0.039 0.086 0 0.141s0.102 0.078 0.133 0.055zM3.078 10.562c0.031-0.031 0.016-0.102-0.031-0.148-0.055-0.055-0.125-0.062-0.156-0.023-0.039 0.031-0.023 0.102 0.031 0.148 0.055 0.055 0.125 0.062 0.156 0.023zM3.523 10.758c0.016-0.047-0.031-0.102-0.102-0.125-0.062-0.016-0.133 0.008-0.148 0.055s0.031 0.102 0.102 0.117c0.062 0.023 0.133 0 0.148-0.047zM4.016 10.797c0-0.055-0.062-0.094-0.133-0.086-0.070 0-0.125 0.039-0.125 0.086 0 0.055 0.055 0.094 0.133 0.086 0.070 0 0.125-0.039 0.125-0.086zM4.469 10.719c-0.008-0.047-0.070-0.078-0.141-0.070-0.070 0.016-0.117 0.062-0.109 0.117 0.008 0.047 0.070 0.078 0.141 0.062s0.117-0.062 0.109-0.109z"></path>
</svg>
