<!-- Generated by IcoMoon.io -->
<svg version="1.1" xmlns="http://www.w3.org/2000/svg" width="12" height="14" viewBox="0 0 12 14">
<title>glide</title>
<path d="M6.766 4.023c0 0.25-0.055 0.492-0.102 0.734-0.164 0.781-0.32 1.563-0.484 2.344-0.023 0.109-0.023 0.109-0.141 0.117-0.078 0.008-0.164 0.016-0.242 0.016-0.672 0-0.859-0.727-0.859-1.273 0-0.813 0.32-1.898 1.078-2.328 0.125-0.062 0.258-0.109 0.398-0.109 0.32 0 0.352 0.234 0.352 0.5zM10.562 7.336c0-0.141-0.578-1.055-0.711-1.109-0.062-0.023-0.195-0.062-0.266-0.062-0.641 0-1.219 0.289-1.766 0.602l-0.016-0.016c0.125-0.836 0.406-1.578 0.406-2.445 0-1.242-0.664-1.82-1.891-1.82-0.18 0-0.359 0.023-0.531 0.047-1.539 0.273-2.477 2.031-2.477 3.477 0 1.531 0.883 2.375 2.406 2.375 0.031 0 0.195-0.016 0.195 0.023 0 0.016 0 0.023-0.008 0.039-0.031 0.297-0.125 0.625-0.203 0.914-0.117 0.43-0.523 1.172-1.047 1.172-0.227 0-0.328-0.156-0.328-0.367 0-0.68 0.781-1.086 0.797-1.125 0-0.031-0.039-0.062-0.055-0.078-0.242-0.219-0.641-0.398-0.969-0.398-0.594 0-0.914 0.953-0.914 1.438 0 0.906 0.57 1.531 1.484 1.531 1.352 0 2.336-1.422 2.641-2.594 0.086-0.344 0.148-0.695 0.234-1.039 0.016-0.070 0.039-0.102 0.109-0.141 0.555-0.281 1.141-0.469 1.773-0.469 0.344 0 0.648 0.062 0.992 0.141 0.008 0.008 0.023 0.008 0.031 0.008 0.047 0 0.109-0.055 0.109-0.102zM12 3.25v7.5c0 1.242-1.008 2.25-2.25 2.25h-7.5c-1.242 0-2.25-1.008-2.25-2.25v-7.5c0-1.242 1.008-2.25 2.25-2.25h7.5c1.242 0 2.25 1.008 2.25 2.25z"></path>
</svg>
