<!-- Generated by IcoMoon.io -->
<svg version="1.1" xmlns="http://www.w3.org/2000/svg" width="12" height="14" viewBox="0 0 12 14">
<title>glide-g</title>
<path d="M5.813 2.383c0-0.414-0.039-0.773-0.539-0.773-0.211 0-0.422 0.070-0.609 0.18-1.18 0.648-1.664 2.328-1.664 3.594 0 0.844 0.289 1.969 1.32 1.969 0.234 0 0.531 0.062 0.594-0.211 0.25-1.203 0.5-2.414 0.75-3.617 0.078-0.375 0.148-0.758 0.148-1.141zM11.703 7.508c0 0.078-0.102 0.156-0.18 0.156l-0.047-0.008c-0.531-0.078-1-0.219-1.539-0.219-0.977 0-1.875 0.289-2.742 0.727-0.109 0.055-0.133 0.102-0.164 0.211-0.141 0.531-0.234 1.078-0.367 1.609-0.469 1.82-1.992 4.016-4.078 4.016-1.422 0-2.297-0.969-2.297-2.367 0-0.758 0.492-2.234 1.406-2.234 0.32 0 1.578 0.414 1.586 0.742-0.016 0.062-1.227 0.688-1.227 1.742 0 0.32 0.156 0.57 0.508 0.57 1.242 0 1.812-2.266 1.937-3.219v-0.070c0-0.062-0.25-0.031-0.297-0.031-2.352 0-3.727-1.313-3.727-3.68 0-2.234 1.453-4.961 3.836-5.375 0.273-0.047 0.547-0.070 0.828-0.070 1.891 0 2.922 0.883 2.922 2.812 0 1.305-0.445 2.508-0.633 3.781l0.023 0.023c0.844-0.477 1.734-0.93 2.734-0.93 0.102 0 0.32 0.062 0.414 0.102 0.203 0.078 1.102 1.492 1.102 1.711z"></path>
</svg>
