<!-- Generated by IcoMoon.io -->
<svg version="1.1" xmlns="http://www.w3.org/2000/svg" width="12" height="14" viewBox="0 0 12 14">
<title>globe</title>
<path d="M6 1c3.313 0 6 2.687 6 6s-2.687 6-6 6-6-2.687-6-6 2.687-6 6-6zM8.141 5.070c-0.062 0.047-0.102 0.133-0.18 0.148 0.039-0.008 0.078-0.148 0.102-0.18 0.047-0.055 0.109-0.086 0.172-0.117 0.133-0.055 0.266-0.070 0.406-0.094 0.133-0.031 0.297-0.031 0.398 0.086-0.023-0.023 0.164-0.187 0.187-0.195 0.070-0.039 0.187-0.023 0.234-0.094 0.016-0.023 0.016-0.172 0.016-0.172-0.133 0.016-0.18-0.109-0.187-0.219 0 0.008-0.016 0.031-0.047 0.062 0.008-0.117-0.141-0.031-0.195-0.047-0.18-0.047-0.156-0.172-0.211-0.305-0.031-0.070-0.117-0.094-0.148-0.164-0.031-0.047-0.047-0.148-0.117-0.156-0.047-0.008-0.133 0.164-0.148 0.156-0.070-0.039-0.102 0.016-0.156 0.047-0.047 0.031-0.086 0.016-0.133 0.039 0.141-0.047-0.062-0.125-0.133-0.109 0.109-0.031 0.055-0.148-0.008-0.203h0.039c-0.016-0.070-0.234-0.133-0.305-0.18s-0.445-0.125-0.523-0.078c-0.094 0.055 0.023 0.211 0.023 0.289 0.008 0.094-0.094 0.117-0.094 0.195 0 0.133 0.25 0.109 0.187 0.289-0.039 0.109-0.187 0.133-0.25 0.219-0.062 0.078 0.008 0.219 0.070 0.273 0.062 0.047-0.109 0.125-0.133 0.141-0.133 0.062-0.234-0.133-0.266-0.25-0.023-0.086-0.031-0.187-0.125-0.234-0.047-0.016-0.195-0.039-0.227 0.008-0.047-0.117-0.211-0.164-0.32-0.203-0.156-0.055-0.289-0.055-0.453-0.031 0.055-0.008-0.016-0.25-0.148-0.211 0.039-0.078 0.023-0.164 0.039-0.242 0.016-0.062 0.047-0.125 0.094-0.18 0.016-0.031 0.187-0.211 0.133-0.219 0.133 0.016 0.281 0.023 0.391-0.086 0.070-0.070 0.102-0.187 0.172-0.266 0.102-0.117 0.227 0.031 0.336 0.039 0.156 0.008 0.148-0.164 0.062-0.242 0.102 0.008 0.016-0.18-0.039-0.203-0.070-0.023-0.336 0.047-0.195 0.102-0.031-0.016-0.219 0.375-0.328 0.18-0.031-0.039-0.047-0.203-0.117-0.211-0.062 0-0.102 0.070-0.125 0.117 0.039-0.102-0.219-0.172-0.273-0.18 0.117-0.078 0.023-0.164-0.062-0.211-0.062-0.039-0.258-0.070-0.312-0.008-0.148 0.18 0.156 0.203 0.234 0.25 0.023 0.016 0.117 0.070 0.062 0.109-0.047 0.023-0.187 0.062-0.203 0.094-0.047 0.070 0.055 0.148-0.016 0.219-0.070-0.070-0.070-0.187-0.125-0.266 0.070 0.086-0.281 0.039-0.273 0.039-0.117 0-0.305 0.078-0.391-0.039-0.016-0.031-0.016-0.211 0.031-0.172-0.070-0.055-0.117-0.109-0.164-0.141-0.258 0.086-0.5 0.195-0.734 0.32 0.031 0.008 0.055 0.008 0.094-0.008 0.062-0.023 0.117-0.062 0.18-0.094 0.078-0.031 0.242-0.125 0.328-0.055 0.008-0.016 0.031-0.031 0.039-0.039 0.055 0.062 0.109 0.125 0.156 0.195-0.062-0.031-0.164-0.016-0.234-0.008-0.055 0.016-0.148 0.031-0.172 0.094 0.023 0.039 0.055 0.102 0.039 0.141-0.102-0.070-0.18-0.187-0.32-0.203-0.062 0-0.125 0-0.172 0.008-0.75 0.414-1.383 1.016-1.836 1.734 0.031 0.031 0.062 0.055 0.094 0.062 0.078 0.023 0 0.25 0.148 0.133 0.047 0.039 0.055 0.094 0.023 0.148 0.008-0.008 0.32 0.195 0.344 0.211 0.055 0.047 0.141 0.102 0.164 0.164 0.016 0.055-0.031 0.117-0.078 0.141-0.008-0.016-0.125-0.133-0.141-0.102-0.023 0.039 0 0.25 0.086 0.242-0.125 0.008-0.070 0.492-0.102 0.586 0 0.008 0.016 0.008 0.016 0.008-0.023 0.094 0.055 0.461 0.211 0.422-0.102 0.023 0.18 0.383 0.219 0.406 0.102 0.070 0.219 0.117 0.289 0.219 0.078 0.109 0.078 0.273 0.187 0.359-0.031 0.094 0.164 0.203 0.156 0.336-0.016 0.008-0.023 0.008-0.039 0.016 0.039 0.109 0.187 0.109 0.242 0.211 0.031 0.062 0 0.211 0.102 0.18 0.016-0.172-0.102-0.344-0.187-0.484-0.047-0.078-0.094-0.148-0.133-0.227-0.039-0.070-0.047-0.156-0.078-0.234 0.031 0.008 0.203 0.070 0.187 0.094-0.062 0.156 0.25 0.43 0.336 0.531 0.023 0.023 0.203 0.258 0.109 0.258 0.102 0 0.242 0.156 0.289 0.234 0.070 0.117 0.055 0.266 0.102 0.391 0.047 0.156 0.266 0.227 0.391 0.297 0.109 0.055 0.203 0.133 0.312 0.172 0.164 0.062 0.203 0.008 0.344-0.016 0.203-0.031 0.227 0.195 0.391 0.281 0.102 0.055 0.32 0.133 0.43 0.086-0.047 0.016 0.164 0.336 0.18 0.359 0.070 0.094 0.203 0.141 0.281 0.234 0.023-0.016 0.047-0.039 0.055-0.070-0.031 0.086 0.117 0.25 0.195 0.234 0.086-0.016 0.109-0.187 0.109-0.25-0.156 0.078-0.297 0.016-0.383-0.141-0.016-0.039-0.141-0.258-0.031-0.258 0.148 0 0.047-0.117 0.031-0.227s-0.125-0.18-0.18-0.273c-0.047 0.094-0.203 0.070-0.25-0.008 0 0.023-0.023 0.062-0.023 0.094-0.039 0-0.078 0.008-0.117-0.008 0.016-0.094 0.023-0.211 0.047-0.312 0.039-0.141 0.297-0.414-0.039-0.398-0.117 0.008-0.164 0.055-0.203 0.156-0.039 0.094-0.023 0.18-0.133 0.227-0.070 0.031-0.305 0.016-0.375-0.023-0.148-0.086-0.25-0.359-0.25-0.516-0.008-0.211 0.102-0.398 0-0.594 0.047-0.039 0.094-0.117 0.148-0.156 0.047-0.031 0.102 0.023 0.125-0.070-0.023-0.016-0.055-0.047-0.062-0.047 0.117 0.055 0.336-0.078 0.438 0 0.062 0.047 0.133 0.062 0.172-0.016 0.008-0.023-0.055-0.117-0.023-0.18 0.023 0.133 0.109 0.156 0.227 0.070 0.047 0.047 0.172 0.031 0.258 0.078 0.086 0.055 0.102 0.141 0.203 0.023 0.062 0.094 0.070 0.094 0.094 0.187 0.023 0.086 0.070 0.305 0.148 0.344 0.164 0.102 0.125-0.172 0.109-0.266-0.008-0.008-0.008-0.266-0.016-0.266-0.25-0.055-0.156-0.25-0.016-0.383 0.023-0.016 0.203-0.078 0.281-0.141 0.070-0.062 0.156-0.172 0.117-0.273 0.039 0 0.070-0.031 0.086-0.070-0.023-0.008-0.117-0.086-0.133-0.078 0.055-0.031 0.047-0.078 0.016-0.125 0.078-0.047 0.039-0.133 0.117-0.164 0.086 0.117 0.258-0.016 0.172-0.109 0.078-0.109 0.258-0.055 0.305-0.156 0.117 0.031 0.031-0.117 0.094-0.203 0.055-0.070 0.148-0.070 0.219-0.109 0 0.008 0.195-0.109 0.133-0.117 0.133 0.016 0.398-0.125 0.195-0.242 0.031-0.070-0.070-0.102-0.141-0.117 0.055-0.016 0.125 0.016 0.172-0.016 0.102-0.070 0.031-0.102-0.055-0.125-0.109-0.031-0.25 0.039-0.336 0.094zM6.867 11.922c1.070-0.187 2.023-0.719 2.742-1.477-0.047-0.047-0.133-0.031-0.195-0.062-0.062-0.023-0.109-0.047-0.187-0.062 0.016-0.156-0.156-0.211-0.266-0.289-0.102-0.078-0.164-0.164-0.312-0.133-0.016 0.008-0.172 0.062-0.141 0.094-0.102-0.086-0.148-0.133-0.281-0.172-0.125-0.039-0.211-0.195-0.336-0.055-0.062 0.062-0.031 0.156-0.062 0.219-0.102-0.086 0.094-0.187 0.016-0.281-0.094-0.109-0.258 0.070-0.336 0.117-0.047 0.039-0.102 0.055-0.133 0.102-0.039 0.055-0.055 0.125-0.086 0.18-0.023-0.062-0.156-0.047-0.164-0.094 0.031 0.187 0.031 0.383 0.070 0.57 0.023 0.109 0 0.289-0.094 0.375s-0.211 0.18-0.227 0.312c-0.016 0.094 0.008 0.18 0.094 0.203 0.008 0.117-0.125 0.203-0.117 0.328 0 0.008 0.008 0.086 0.016 0.125z"></path>
</svg>
