<!-- Generated by IcoMoon.io -->
<svg version="1.1" xmlns="http://www.w3.org/2000/svg" width="14" height="14" viewBox="0 0 14 14">
<title>google-wallet</title>
<path d="M3.445 5.25c0.156 0 0.312 0.078 0.406 0.203 1.367 1.867 2.32 3.867 2.828 6.047h-3.484c-0.625-2.172-1.547-4.156-2.867-5.852-0.125-0.164 0-0.398 0.203-0.398h2.914zM7.813 8.039c-0.258 1.055-0.586 2.078-0.977 3.070-0.414-1.633-1.078-3.164-2-4.641 0.203-1.133 0.32-2.297 0.344-3.508 1.102 1.773 1.977 3.461 2.633 5.078zM8.586 2.5c2.336 3.219 4.070 7.187 4.445 11.5h-3.523c-0.258-4.172-2.18-8.125-4.32-11.5h3.398zM14 7c0 2.172-0.297 4.453-0.789 6.344-0.344-2.891-1.297-5.766-2.805-8.461-0.133-1.578-0.414-3.109-0.828-4.562-0.039-0.164 0.078-0.32 0.242-0.32h2.805c0.219 0 0.422 0.148 0.477 0.359 0.594 2.109 0.898 4.344 0.898 6.641z"></path>
</svg>
