<!-- Generated by IcoMoon.io -->
<svg version="1.1" xmlns="http://www.w3.org/2000/svg" width="18" height="14" viewBox="0 0 18 14">
<title>google-plus</title>
<path d="M11.227 7.133c0 3.273-2.195 5.594-5.5 5.594-3.164 0-5.727-2.563-5.727-5.727s2.563-5.727 5.727-5.727c1.547 0 2.836 0.563 3.836 1.5l-1.555 1.492c-0.422-0.406-1.164-0.883-2.281-0.883-1.953 0-3.547 1.617-3.547 3.617s1.594 3.617 3.547 3.617c2.266 0 3.117-1.633 3.25-2.469h-3.25v-1.969h5.406c0.055 0.289 0.094 0.578 0.094 0.953zM18 6.18v1.641h-1.633v1.633h-1.641v-1.633h-1.633v-1.641h1.633v-1.633h1.641v1.633h1.633z"></path>
</svg>
