<!-- Generated by IcoMoon.io -->
<svg version="1.1" xmlns="http://www.w3.org/2000/svg" width="18" height="14" viewBox="0 0 18 14">
<title>graduation-cap</title>
<path d="M13.859 6.531l0.141 2.469c0.062 1.102-2.242 2-5 2s-5.063-0.898-5-2l0.141-2.469 4.484 1.414c0.125 0.039 0.25 0.055 0.375 0.055s0.25-0.016 0.375-0.055zM18 4c0 0.109-0.070 0.203-0.172 0.242l-8.75 2.75c-0.031 0.008-0.055 0.008-0.078 0.008s-0.047 0-0.078-0.008l-5.094-1.609c-0.445 0.352-0.758 1.211-0.82 2.266 0.297 0.172 0.492 0.484 0.492 0.852 0 0.352-0.18 0.656-0.453 0.836l0.453 3.383c0.008 0.070-0.016 0.141-0.062 0.195s-0.117 0.086-0.187 0.086h-1.5c-0.070 0-0.141-0.031-0.187-0.086s-0.070-0.125-0.062-0.195l0.453-3.383c-0.273-0.18-0.453-0.484-0.453-0.836 0-0.375 0.211-0.695 0.508-0.867 0.047-0.914 0.281-1.898 0.766-2.578l-2.602-0.813c-0.102-0.039-0.172-0.133-0.172-0.242s0.070-0.203 0.172-0.242l8.75-2.75c0.031-0.008 0.055-0.008 0.078-0.008s0.047 0 0.078 0.008l8.75 2.75c0.102 0.039 0.172 0.133 0.172 0.242z"></path>
</svg>
