<!-- Generated by IcoMoon.io -->
<svg version="1.1" xmlns="http://www.w3.org/2000/svg" width="14" height="14" viewBox="0 0 14 14">
<title>grav</title>
<path d="M10.086 3.719c-0.25-0.281-0.656 0.195-0.438 0.453 0.211 0.258 0.906 0.070 0.438-0.453zM6.992 5.641c-0.086 0.086-0.219 0.086-0.297 0-0.086-0.078-0.086-0.211 0-0.289 0.078-0.086 0.211-0.086 0.297 0 0.078 0.078 0.078 0.211 0 0.289zM8.281 6.219l-0.273 0.273c-0.125 0.133-0.336 0.133-0.469 0l-0.297-0.297c-0.125-0.133-0.125-0.336 0-0.469l0.273-0.273c0.125-0.125 0.336-0.125 0.469 0l0.297 0.305c0.125 0.125 0.125 0.336 0 0.461zM7.43 5.203c-0.078 0.078-0.211 0.078-0.297 0-0.078-0.086-0.078-0.219 0-0.297 0.086-0.086 0.219-0.086 0.297 0 0.086 0.078 0.086 0.211 0 0.297zM10.578 4.437c-0.352 0.664-1.273 0.937-1.836 0.539-0.563-0.406-0.953-1.219-0.336-1.922 0.609-0.703 1.148-0.484 1.688 0.023 0.336 0.32 0.828 0.703 0.484 1.359zM12.148 8.203c0.070-0.453-0.578-0.469-0.719-0.727-0.383-0.68-0.781-1.039-1.539-0.859 0.328-0.227 0.664-0.172 0.664-0.172 0.008-0.18 0-0.367-0.266-0.703 0.109-0.352 0.008-0.633 0.008-0.633 0.438-0.242 0.758-0.688 0.82-1.219 0.102-0.875-0.531-1.672-1.406-1.773-0.625-0.070-1.234 0.219-1.531 0.727-0.656 1.133 0.039 2 0.633 2.297-0.406-0.039-0.969-0.336-1.133-0.969-0.187-0.727 0.078-1.406 0.25-1.734 0 0-0.125-0.164-0.227-0.25 0 0-0.391 0-0.695 0.148 0.336-0.43 0.711-0.406 0.711-0.406 0-0.18-0.016-0.422-0.102-0.609-0.156-0.32-0.703-0.367-0.914 0.117 0.008-0.023 0.016-0.039 0.031-0.055-0.141 0.336-0.031 1.578 0.477 2.461-0.070 0.039-0.258 0.172-0.367 0.281-0.609 0.273-1.586 1.703-1.586 1.703-0.797 0.305-2.188 1.438-2 2.25v0c0.008 0.086 0.039 0.156 0.086 0.211-0.078 0.062-0.156 0.141-0.234 0.234-0.336 0.391-0.148 0.992 0.5 0.688 0.445-0.203 0.844-0.57 1.031-0.859 0 0-0.164-0.141-0.469-0.125 0.781-0.187 0.977-0.266 1.313-0.258 0.227 0.109 0.227-0.969 0.227-0.969 0-0.414-0.062-0.875-0.312-1.172 0.352 0.344 0.82 0.922 0.789 1.711-0.023 0.516-0.43 0.648-0.43 0.648-0.258 0.469-1.219 1.859-0.859 2.992 0 0-0.273-0.422-0.289-0.625-0.492 0.547-1.32 1.477-0.703 1.82 0.75 0.414 3.078-2.5 3.57-4.016 0.977-0.586 1.563-1.336 1.805-1.836 0.625 1.242 2.703 2.68 2.867 1.68zM14.016 7c0 3.867-3.141 7-7.008 7s-7.008-3.133-7.008-7 3.141-7 7.008-7 7.008 3.133 7.008 7z"></path>
</svg>
