<!-- Generated by IcoMoon.io -->
<svg version="1.1" xmlns="http://www.w3.org/2000/svg" width="15" height="14" viewBox="0 0 15 14">
<title>group</title>
<path d="M4.633 7c-0.813 0.023-1.547 0.375-2.070 1h-1.047c-0.781 0-1.516-0.375-1.516-1.242 0-0.633-0.023-2.758 0.969-2.758 0.164 0 0.977 0.664 2.031 0.664 0.359 0 0.703-0.062 1.039-0.18-0.023 0.172-0.039 0.344-0.039 0.516 0 0.711 0.227 1.414 0.633 2zM13 11.977c0 1.266-0.836 2.023-2.086 2.023h-6.828c-1.25 0-2.086-0.758-2.086-2.023 0-1.766 0.414-4.477 2.703-4.477 0.266 0 1.234 1.086 2.797 1.086s2.531-1.086 2.797-1.086c2.289 0 2.703 2.711 2.703 4.477zM5 2c0 1.102-0.898 2-2 2s-2-0.898-2-2 0.898-2 2-2 2 0.898 2 2zM10.5 5c0 1.656-1.344 3-3 3s-3-1.344-3-3 1.344-3 3-3 3 1.344 3 3zM15 6.758c0 0.867-0.734 1.242-1.516 1.242h-1.047c-0.523-0.625-1.258-0.977-2.070-1 0.406-0.586 0.633-1.289 0.633-2 0-0.172-0.016-0.344-0.039-0.516 0.336 0.117 0.68 0.18 1.039 0.18 1.055 0 1.867-0.664 2.031-0.664 0.992 0 0.969 2.125 0.969 2.758zM14 2c0 1.102-0.898 2-2 2s-2-0.898-2-2 0.898-2 2-2 2 0.898 2 2z"></path>
</svg>
