<!-- Generated by IcoMoon.io -->
<svg version="1.1" xmlns="http://www.w3.org/2000/svg" width="12" height="14" viewBox="0 0 12 14">
<title>h-square</title>
<path d="M10 10.5v-7c0-0.273-0.227-0.5-0.5-0.5h-1c-0.273 0-0.5 0.227-0.5 0.5v2.5h-4v-2.5c0-0.273-0.227-0.5-0.5-0.5h-1c-0.273 0-0.5 0.227-0.5 0.5v7c0 0.273 0.227 0.5 0.5 0.5h1c0.273 0 0.5-0.227 0.5-0.5v-2.5h4v2.5c0 0.273 0.227 0.5 0.5 0.5h1c0.273 0 0.5-0.227 0.5-0.5zM12 3.25v7.5c0 1.242-1.008 2.25-2.25 2.25h-7.5c-1.242 0-2.25-1.008-2.25-2.25v-7.5c0-1.242 1.008-2.25 2.25-2.25h7.5c1.242 0 2.25 1.008 2.25 2.25z"></path>
</svg>
