<!-- Generated by IcoMoon.io -->
<svg version="1.1" xmlns="http://www.w3.org/2000/svg" width="12" height="14" viewBox="0 0 12 14">
<title>hand-o-up</title>
<path d="M10 12.5c0-0.273-0.227-0.5-0.5-0.5s-0.5 0.227-0.5 0.5 0.227 0.5 0.5 0.5 0.5-0.227 0.5-0.5zM11 6.531c0-0.883-0.359-1.477-1.305-1.477-0.148 0-0.297 0.016-0.438 0.039-0.18-0.328-0.625-0.508-0.984-0.508-0.187 0-0.375 0.047-0.539 0.141-0.25-0.266-0.563-0.414-0.93-0.414-0.25 0-0.617 0.109-0.805 0.273v-2.586c0-0.539-0.461-1-1-1-0.531 0-1 0.477-1 1v4.5c-0.492 0-1-0.75-2-0.75-0.75 0-1 0.586-1 1.25 0 0.219 0.906 0.617 1.086 0.703 0.172 0.094 0.344 0.187 0.508 0.289 0.414 0.258 0.773 0.555 1.133 0.875 0.57 0.5 1.273 1.055 1.273 1.883v0.25h5v-0.25c0-1.367 1-2.703 1-4.219zM12 6.492c0 0.875-0.242 1.703-0.539 2.516-0.172 0.477-0.461 1.25-0.461 1.742v2.25c0 0.555-0.445 1-1 1h-5c-0.555 0-1-0.445-1-1v-2.25c0-0.375-0.672-0.906-0.93-1.133-0.32-0.281-0.641-0.547-1.008-0.781-0.727-0.453-2.062-0.789-2.062-1.836 0-1.242 0.68-2.25 2-2.25 0.344 0 0.68 0.055 1 0.172v-2.922c0-1.078 0.914-2 1.992-2 1.094 0 2.008 0.906 2.008 2v1.32c0.328 0.023 0.641 0.125 0.93 0.289 0.109-0.016 0.227-0.023 0.336-0.023 0.5 0 1 0.164 1.391 0.469 1.477-0.016 2.344 0.992 2.344 2.438z"></path>
</svg>
