<!-- Generated by IcoMoon.io -->
<svg version="1.1" xmlns="http://www.w3.org/2000/svg" width="18" height="14" viewBox="0 0 18 14">
<title>handshake-o</title>
<path d="M1.5 9c0.656 0 0.656-1 0-1s-0.656 1 0 1zM13.008 8.547c-0.617-0.805-1.219-1.625-1.922-2.359l-0.977 1.094c-0.859 0.977-2.398 0.953-3.234-0.047-0.594-0.719-0.594-1.75 0.016-2.461l1.383-1.609c-0.484-0.25-1.070-0.164-1.594-0.164-0.461 0-0.906 0.187-1.234 0.516l-1.234 1.234h-1.211v4.25c0.344 0 0.656-0.047 0.93 0.219l2.32 2.281c0.477 0.461 1.094 0.867 1.773 0.867 0.352 0 0.727-0.117 0.977-0.367 0.586 0.203 1.266-0.125 1.445-0.727 0.375 0.031 0.719-0.086 0.992-0.344 0.18-0.164 0.414-0.492 0.391-0.75 0.070 0.070 0.242 0.078 0.336 0.078 0.93 0 1.414-0.977 0.844-1.711zM14.25 9h0.75v-4h-0.727l-1.227-1.406c-0.328-0.375-0.82-0.594-1.32-0.594h-1.305c-0.438 0-0.859 0.195-1.141 0.523l-1.633 1.898c-0.289 0.344-0.289 0.828-0.008 1.172 0.445 0.531 1.266 0.539 1.727 0.023l1.508-1.703c0.359-0.398 1.016-0.023 0.852 0.484 0.297 0.344 0.617 0.68 0.906 1.023 0.391 0.484 0.766 0.992 1.148 1.484 0.242 0.312 0.422 0.688 0.469 1.094zM16.5 9c0.656 0 0.656-1 0-1s-0.656 1 0 1zM18 4.5v5c0 0.273-0.227 0.5-0.5 0.5h-3.391c-0.281 0.68-0.898 1.133-1.617 1.234-0.336 0.492-0.852 0.867-1.43 0.992-0.43 0.547-1.125 0.875-1.82 0.828-1.289 0.727-2.742 0.094-3.703-0.852l-2.242-2.203h-2.797c-0.273 0-0.5-0.227-0.5-0.5v-5.25c0-0.273 0.227-0.5 0.5-0.5h3.289c0.906-0.906 1.531-1.75 2.891-1.75h0.914c0.508 0 1 0.156 1.414 0.438 0.414-0.281 0.906-0.438 1.414-0.438h1.305c1.484 0 2.102 0.969 3 2h2.773c0.273 0 0.5 0.227 0.5 0.5z"></path>
</svg>
