<!-- Generated by IcoMoon.io -->
<svg version="1.1" xmlns="http://www.w3.org/2000/svg" width="15" height="14" viewBox="0 0 15 14">
<title>hand-spock-o</title>
<path d="M3.586 14c-0.805 0-1.5-0.547-1.695-1.328l-0.789-3.133c-0.062-0.273-0.102-0.563-0.102-0.844 0-0.18 0-0.352-0.039-0.523l-0.906-3.727c-0.039-0.148-0.055-0.297-0.055-0.445 0-0.969 0.734-1.766 1.695-1.867 0.172-0.883 0.93-1.508 1.836-1.508 0.867 0 1.617 0.594 1.82 1.438l0.648 2.719 0.805-3.344c0.203-0.844 0.953-1.438 1.82-1.438 0.93 0 1.695 0.672 1.844 1.578 0.961 0.109 1.656 0.922 1.656 1.883 0 0.148-0.023 0.305-0.055 0.461l-0.961 4c0.625-0.469 1.078-0.922 1.898-0.922 1.086 0 1.992 0.883 1.992 1.977 0 0.656-0.32 1.266-0.836 1.656l-3.961 2.969c-0.344 0.258-0.766 0.398-1.195 0.398h-5.422zM8.625 1c-0.398 0-0.75 0.281-0.844 0.672l-1.281 5.328h-0.992l-1.133-4.703c-0.094-0.391-0.445-0.672-0.844-0.672-0.5 0-0.875 0.398-0.875 0.883 0 0.078 0.008 0.148 0.023 0.219l1.031 4.273h-0.203l-0.773-3.188c-0.094-0.383-0.445-0.688-0.852-0.688-0.484 0-0.883 0.391-0.883 0.875 0 0.070 0.008 0.141 0.023 0.203l0.906 3.734c0.109 0.453 0.031 0.906 0.148 1.359l0.781 3.133c0.086 0.336 0.383 0.57 0.727 0.57h5.422c0.211 0 0.422-0.070 0.594-0.203l3.961-2.961c0.266-0.203 0.438-0.523 0.438-0.859 0-0.547-0.453-0.977-0.992-0.977-0.219 0-0.43 0.070-0.602 0.203l-2.398 1.797v-1.773c0-0.062 1.008-4.203 1.086-4.539 0.016-0.070 0.031-0.148 0.031-0.227 0-0.484-0.367-0.898-0.867-0.898-0.406 0-0.758 0.281-0.852 0.672l-0.906 3.766h-0.203l1.172-4.875c0.016-0.070 0.023-0.148 0.023-0.219 0-0.492-0.359-0.906-0.867-0.906z"></path>
</svg>
