<!-- Generated by IcoMoon.io -->
<svg version="1.1" xmlns="http://www.w3.org/2000/svg" width="14" height="14" viewBox="0 0 14 14">
<title>hand-o-right</title>
<path d="M2 10.5c0-0.273-0.227-0.5-0.5-0.5s-0.5 0.227-0.5 0.5 0.227 0.5 0.5 0.5 0.5-0.227 0.5-0.5zM13 6c0-0.531-0.477-1-1-1h-4.5c0-0.492 0.75-1 0.75-2 0-0.75-0.586-1-1.25-1-0.219 0-0.617 0.906-0.703 1.086-0.094 0.172-0.187 0.344-0.289 0.508-0.258 0.414-0.555 0.773-0.875 1.133-0.5 0.57-1.055 1.273-1.883 1.273h-0.25v5h0.25c1.367 0 2.703 1 4.219 1 0.875 0 1.477-0.367 1.477-1.305 0-0.148-0.016-0.297-0.039-0.438 0.328-0.18 0.508-0.625 0.508-0.984 0-0.187-0.047-0.375-0.141-0.539 0.266-0.25 0.414-0.563 0.414-0.93 0-0.25-0.109-0.617-0.273-0.805h2.586c0.539 0 1-0.461 1-1zM14 5.992c0 1.094-0.906 2.008-2 2.008h-1.32c-0.023 0.328-0.125 0.641-0.289 0.93 0.016 0.109 0.023 0.227 0.023 0.336 0 0.5-0.164 1-0.469 1.391 0.016 1.477-0.992 2.344-2.438 2.344-0.875 0-1.703-0.242-2.516-0.539-0.477-0.172-1.25-0.461-1.742-0.461h-2.25c-0.555 0-1-0.445-1-1v-5c0-0.555 0.445-1 1-1h2.25c0.375 0 0.906-0.672 1.133-0.93 0.281-0.32 0.547-0.641 0.781-1.008 0.453-0.727 0.789-2.062 1.836-2.062 1.242 0 2.25 0.68 2.25 2 0 0.344-0.055 0.68-0.172 1h2.922c1.078 0 2 0.914 2 1.992z"></path>
</svg>
