<!-- Generated by IcoMoon.io -->
<svg version="1.1" xmlns="http://www.w3.org/2000/svg" width="12" height="14" viewBox="0 0 12 14">
<title>hand-grab-o</title>
<path d="M6 3c-0.555 0-1 0.445-1 1v1h-0.25v-0.727c0-0.492-0.375-0.898-0.875-0.898-0.484 0-0.875 0.391-0.875 0.875v3.352l-0.25-0.234v-1.344c0-0.492-0.375-0.898-0.875-0.898-0.484 0-0.875 0.391-0.875 0.875v1.75c0 0.242 0.102 0.469 0.273 0.641l2.422 2.313c0.227 0.227 0.305 0.484 0.305 0.797 0 0.273 0.227 0.5 0.5 0.5h5c0.273 0 0.5-0.227 0.5-0.5v-0.195c0-0.203 0.023-0.406 0.078-0.602l0.844-3.406c0.055-0.195 0.078-0.398 0.078-0.602v-1.922c0-0.492-0.375-0.898-0.875-0.898-0.484 0-0.875 0.391-0.875 0.875v0.25h-0.25v-0.977c0-0.414-0.281-0.797-0.695-0.883-0.055-0.008-0.117-0.016-0.18-0.016-0.484 0-0.875 0.391-0.875 0.875v1h-0.25v-0.953c0-0.523-0.375-0.984-0.898-1.039-0.039-0.008-0.070-0.008-0.102-0.008zM6 2c0.422 0 0.828 0.133 1.164 0.391 0.289-0.172 0.625-0.266 0.961-0.266 0.617 0 1.187 0.297 1.539 0.805 0.148-0.039 0.305-0.055 0.461-0.055 1.047 0 1.875 0.859 1.875 1.898v1.922c0 0.281-0.039 0.57-0.102 0.844l-0.852 3.406c-0.047 0.187-0.047 0.367-0.047 0.555 0 0.828-0.672 1.5-1.5 1.5h-5c-0.891 0-1.5-0.711-1.5-1.57l-2.406-2.313c-0.367-0.352-0.594-0.852-0.594-1.367v-1.75c0-1.031 0.844-1.875 1.875-1.875 0.047 0 0.086 0 0.125 0.008 0.062-0.992 0.891-1.758 1.875-1.758 0.266 0 0.523 0.055 0.766 0.164 0.367-0.352 0.852-0.539 1.359-0.539z"></path>
</svg>
