<!-- Generated by IcoMoon.io -->
<svg version="1.1" xmlns="http://www.w3.org/2000/svg" width="13" height="14" viewBox="0 0 13 14">
<title>hand-paper-o</title>
<path d="M6.875 1c-0.484 0-0.875 0.391-0.875 0.875v5.125h-0.25v-4.125c0-0.484-0.391-0.875-0.875-0.875s-0.875 0.391-0.875 0.875v6.125l-1.203-1.602c-0.187-0.25-0.484-0.398-0.797-0.398-0.555 0-1 0.453-1 1 0 0.219 0.070 0.43 0.203 0.602l3 4c0.187 0.25 0.484 0.398 0.797 0.398h5.375c0.359 0 0.672-0.258 0.742-0.609l0.594-3.164c0.023-0.148 0.039-0.305 0.039-0.461v-3.891c0-0.484-0.391-0.875-0.875-0.875s-0.875 0.391-0.875 0.875v2.125h-0.25v-4.125c0-0.484-0.391-0.875-0.875-0.875s-0.875 0.391-0.875 0.875v4.125h-0.25v-5.125c0-0.484-0.391-0.875-0.875-0.875zM6.875 0c0.703 0 1.352 0.398 1.672 1.031 0.109-0.023 0.219-0.031 0.328-0.031 1.031 0 1.875 0.844 1.875 1.875v0.133c1.086-0.062 2 0.773 2 1.867v3.891c0 0.219-0.023 0.438-0.062 0.648l-0.594 3.156c-0.148 0.828-0.875 1.43-1.719 1.43h-5.375c-0.625 0-1.227-0.305-1.602-0.797l-3-4c-0.258-0.344-0.398-0.773-0.398-1.203 0-1.102 0.891-2 2-2 0.328 0 0.727 0.078 1 0.266v-3.391c0-1.031 0.844-1.875 1.875-1.875 0.109 0 0.219 0.008 0.328 0.031 0.32-0.633 0.969-1.031 1.672-1.031z"></path>
</svg>
