<!-- Generated by IcoMoon.io -->
<svg version="1.1" xmlns="http://www.w3.org/2000/svg" width="14" height="14" viewBox="0 0 14 14">
<title>hand-scissors-o</title>
<path d="M8.383 13h-1.383c-0.813 0-1.43-0.352-1.766-1.102-0.117-0.25-0.18-0.523-0.18-0.797v-0.039c-0.641-0.312-1.055-0.969-1.055-1.688 0-0.086 0-0.297 0.039-0.375h-2.039c-1.102 0-2-0.898-2-2s0.898-2 2-2h0.883l-0.344-0.133c-0.773-0.289-1.289-1.039-1.289-1.867 0-1.102 0.898-2 2-2 0.242 0 0.484 0.047 0.711 0.133l4.906 1.867h3.133c1.102 0 2 0.898 2 2v5.219c0 0.922-0.625 1.719-1.516 1.937l-2.648 0.664c-0.469 0.117-0.961 0.18-1.453 0.18zM8 7.445l-1.211 0.555-1.273 0.578c-0.312 0.141-0.516 0.453-0.516 0.797 0 0.484 0.391 0.875 0.875 0.875 0.125 0 0.25-0.023 0.359-0.078l2.641-1.203c-0.508-0.109-0.875-0.57-0.875-1.094v-0.43zM10.5 9.875c0-0.484-0.391-0.875-0.875-0.875-0.125 0-0.25 0.023-0.359 0.078l-2.266 1.031c-0.469 0.211-0.945 0.398-0.945 0.992 0 0.516 0.359 0.891 0.883 0.891 0.094 0 0.219-0.031 0.297-0.070l2.75-1.25c0.312-0.141 0.516-0.453 0.516-0.797zM8.688 4l-5.078-1.937c-0.117-0.039-0.234-0.062-0.359-0.062-0.547 0-1 0.445-1 1 0 0.414 0.258 0.789 0.641 0.937l4.109 1.563v0.5h-5c-0.555 0-1 0.445-1 1s0.445 1 1 1h4.18l1.82-0.828v-1.547c0-0.312 0.133-0.617 0.359-0.828l0.867-0.797h-0.539zM8.383 12c0.406 0 0.82-0.047 1.211-0.148l2.648-0.664c0.445-0.109 0.758-0.508 0.758-0.969v-5.219c0-0.555-0.445-1-1-1h-2.406l-1.062 0.984c-0.18 0.164-0.281 0.398-0.281 0.641v2.313c0 0.484 0.398 0.844 0.875 0.844 0.484 0 0.875-0.43 0.875-0.906v-1.625h0.25v1.625c0 0.352-0.172 0.68-0.445 0.891 0.547 0.086 0.945 0.563 0.945 1.109 0 0.438-0.258 0.844-0.656 1.023l-2.422 1.102h0.711z"></path>
</svg>
