<!-- Generated by IcoMoon.io -->
<svg version="1.1" xmlns="http://www.w3.org/2000/svg" width="12" height="14" viewBox="0 0 12 14">
<title>hand-o-down</title>
<path d="M11 7.5c0-1.555-1-2.883-1-4.25v-0.25h-5v0.25c0 0.828-0.703 1.383-1.273 1.883-0.359 0.32-0.719 0.617-1.133 0.875-0.172 0.109-0.352 0.203-0.531 0.297s-1.062 0.484-1.062 0.695c0 0.664 0.25 1.25 1 1.25 1 0 1.508-0.75 2-0.75v4.5c0 0.523 0.469 1 1 1 0.539 0 1-0.461 1-1v-2.586c0.203 0.156 0.547 0.273 0.805 0.273 0.367 0 0.68-0.148 0.93-0.414 0.164 0.094 0.352 0.141 0.539 0.141 0.359 0 0.805-0.18 0.984-0.508 0.141 0.023 0.289 0.031 0.438 0.031 0.922 0 1.305-0.57 1.305-1.438zM10 1.5c0-0.273-0.227-0.5-0.5-0.5s-0.5 0.227-0.5 0.5 0.227 0.5 0.5 0.5 0.5-0.227 0.5-0.5zM12 7.469c0 1.438-0.813 2.484-2.305 2.477l-0.039-0.008c-0.391 0.312-0.891 0.477-1.391 0.477-0.109 0-0.227-0.008-0.336-0.023-0.266 0.148-0.625 0.258-0.93 0.289v1.32c0 1.094-0.914 2-2.008 2-1.078 0-1.992-0.922-1.992-2v-2.922c-0.305 0.125-0.672 0.172-1 0.172-1.313 0-2-1.008-2-2.25 0-1.047 1.336-1.383 2.062-1.836 0.367-0.234 0.688-0.5 1.008-0.781 0.258-0.227 0.93-0.758 0.93-1.133v-2.25c0-0.555 0.445-1 1-1h5c0.555 0 1 0.445 1 1v2.25c0 0.492 0.289 1.266 0.461 1.742 0.289 0.797 0.539 1.617 0.539 2.477z"></path>
</svg>
