<!-- Generated by IcoMoon.io -->
<svg version="1.1" xmlns="http://www.w3.org/2000/svg" width="13" height="14" viewBox="0 0 13 14">
<title>hand-pointer-o</title>
<path d="M5 1c-0.555 0-1 0.445-1 1v7l-1.18-1.578c-0.195-0.258-0.508-0.422-0.836-0.422-0.547 0-0.984 0.461-0.984 1 0 0.219 0.070 0.43 0.203 0.602l3 4c0.187 0.25 0.484 0.398 0.797 0.398h5.609c0.227 0 0.43-0.156 0.484-0.375l0.719-2.875c0.125-0.5 0.187-1.008 0.187-1.516v-1.695c0-0.414-0.32-0.789-0.75-0.789-0.414 0-0.75 0.336-0.75 0.75h-0.25v-0.477c0-0.492-0.375-0.898-0.875-0.898-0.484 0-0.875 0.391-0.875 0.875v0.5h-0.25v-0.703c0-0.563-0.43-1.047-1-1.047-0.555 0-1 0.445-1 1v0.75h-0.25v-4.453c0-0.563-0.43-1.047-1-1.047zM5 0c1.117 0 2 0.937 2 2.047v1.719c0.086-0.008 0.164-0.016 0.25-0.016 0.508 0 0.984 0.195 1.352 0.539 0.242-0.109 0.508-0.164 0.773-0.164 0.563 0 1.086 0.25 1.438 0.68 0.148-0.039 0.289-0.055 0.438-0.055 0.984 0 1.75 0.82 1.75 1.789v1.695c0 0.586-0.070 1.18-0.219 1.758l-0.719 2.875c-0.164 0.664-0.766 1.133-1.453 1.133h-5.609c-0.625 0-1.227-0.305-1.602-0.797l-3-4c-0.258-0.344-0.398-0.773-0.398-1.203 0-1.094 0.891-2 1.984-2 0.359 0 0.711 0.094 1.016 0.273v-4.273c0-1.102 0.898-2 2-2zM6 11v-3h-0.25v3h0.25zM8 11v-3h-0.25v3h0.25zM10 11v-3h-0.25v3h0.25z"></path>
</svg>
