<!-- Generated by IcoMoon.io -->
<svg version="1.1" xmlns="http://www.w3.org/2000/svg" width="16" height="14" viewBox="0 0 16 14">
<title>hand-lizard-o</title>
<path d="M8.992 0c0.633 0 1.242 0.305 1.617 0.82l4.469 6.102c0.602 0.813 0.922 1.789 0.922 2.805v2.773c0 0.828-0.672 1.5-1.5 1.5h-3c-0.828 0-1.5-0.672-1.5-1.5v-1.383l-2.234-1.117h-4.266c-0.828 0-1.5-0.672-1.5-1.5v-0.25c0-1.242 1.008-2.25 2.25-2.25h3.281l0.328-1h-5.359c-1.039 0-1.906-0.797-1.992-1.828-0.328-0.398-0.508-0.906-0.508-1.422v-0.25c0-0.828 0.672-1.5 1.5-1.5h7.492zM15 12.5v-2.773c0-0.789-0.258-1.578-0.727-2.219l-4.477-6.102c-0.187-0.25-0.484-0.406-0.805-0.406h-7.492c-0.273 0-0.5 0.227-0.5 0.5 0 0.414 0.008 0.703 0.281 1.039 0.102-0.32 0.391-0.539 0.719-0.539h6.5v0.25h-6.5c-0.273 0-0.5 0.227-0.5 0.5 0 0.148-0.008 0.305 0.023 0.453 0.086 0.461 0.508 0.797 0.977 0.797h5.711c0.414 0 0.75 0.336 0.75 0.75 0 0.078-0.016 0.164-0.039 0.234l-0.5 1.5c-0.102 0.305-0.391 0.516-0.711 0.516h-3.461c-0.688 0-1.25 0.563-1.25 1.25v0.25c0 0.273 0.227 0.5 0.5 0.5h4.383c0.078 0 0.156 0.016 0.227 0.055l2.477 1.234c0.25 0.133 0.414 0.391 0.414 0.672v1.539c0 0.273 0.227 0.5 0.5 0.5h3c0.273 0 0.5-0.227 0.5-0.5z"></path>
</svg>
