<!-- Generated by IcoMoon.io -->
<svg version="1.1" xmlns="http://www.w3.org/2000/svg" width="12" height="14" viewBox="0 0 12 14">
<title>hand-peace-o</title>
<path d="M10.063 5.055c0.289 0 0.578 0.055 0.836 0.18 0.75 0.336 1.102 0.953 1.102 1.766v1.383c0 0.492-0.062 0.984-0.18 1.453l-0.664 2.648c-0.219 0.891-1.016 1.516-1.937 1.516h-5.219c-1.102 0-2-0.898-2-2v-3.133l-1.867-4.906c-0.086-0.227-0.133-0.469-0.133-0.711 0-1.102 0.898-2 2-2 0.828 0 1.578 0.516 1.867 1.289l0.133 0.344v-0.883c0-1.102 0.898-2 2-2s2 0.898 2 2v2.039c0.125-0.023 0.25-0.039 0.375-0.039 0.719 0 1.375 0.414 1.688 1.055zM8.375 5c-0.344 0-0.656 0.203-0.797 0.516l-0.578 1.273-0.555 1.211h0.43c0.523 0 0.984 0.367 1.094 0.875l1.203-2.641c0.055-0.109 0.078-0.234 0.078-0.359 0-0.484-0.391-0.875-0.875-0.875zM10.102 6.055c-0.594 0-0.781 0.477-0.992 0.945l-1.031 2.266c-0.055 0.109-0.078 0.234-0.078 0.359 0 0.484 0.391 0.875 0.875 0.875 0.344 0 0.656-0.203 0.797-0.516l1.25-2.75c0.039-0.078 0.070-0.203 0.070-0.297 0-0.523-0.375-0.883-0.891-0.883zM1 3.25c0 0.125 0.023 0.242 0.062 0.359l1.937 5.078v0.539l0.797-0.867c0.211-0.227 0.516-0.359 0.828-0.359h1.547l0.828-1.82v-4.18c0-0.555-0.445-1-1-1s-1 0.445-1 1v5h-0.5l-1.563-4.109c-0.148-0.383-0.523-0.641-0.937-0.641-0.555 0-1 0.453-1 1zM9.219 13c0.461 0 0.859-0.312 0.969-0.758l0.664-2.648c0.102-0.391 0.148-0.805 0.148-1.211v-0.711l-1.102 2.422c-0.18 0.398-0.586 0.656-1.023 0.656-0.547 0-1.023-0.398-1.109-0.945-0.211 0.273-0.539 0.445-0.891 0.445h-1.625v-0.25h1.625c0.477 0 0.906-0.391 0.906-0.875 0-0.477-0.359-0.875-0.844-0.875h-2.313c-0.242 0-0.477 0.102-0.641 0.281l-0.984 1.062v2.406c0 0.555 0.445 1 1 1h5.219z"></path>
</svg>
