<!-- Generated by IcoMoon.io -->
<svg version="1.1" xmlns="http://www.w3.org/2000/svg" width="14" height="14" viewBox="0 0 14 14">
<title>hand-o-left</title>
<path d="M10.75 11h0.25v-5h-0.25c-0.828 0-1.383-0.703-1.883-1.273-0.32-0.359-0.617-0.719-0.875-1.133-0.109-0.172-0.203-0.352-0.297-0.531s-0.484-1.062-0.695-1.062c-0.664 0-1.25 0.25-1.25 1 0 1 0.75 1.508 0.75 2h-4.5c-0.523 0-1 0.469-1 1 0 0.539 0.461 1 1 1h2.586c-0.164 0.187-0.273 0.555-0.273 0.805 0 0.367 0.148 0.68 0.414 0.93-0.094 0.164-0.141 0.352-0.141 0.539 0 0.359 0.18 0.805 0.508 0.984-0.023 0.141-0.031 0.289-0.031 0.438 0 0.922 0.57 1.305 1.438 1.305 1.555 0 2.883-1 4.25-1zM13 10.5c0-0.273-0.227-0.5-0.5-0.5s-0.5 0.227-0.5 0.5 0.227 0.5 0.5 0.5 0.5-0.227 0.5-0.5zM14 6v5c0 0.555-0.445 1-1 1h-2.25c-0.492 0-1.266 0.289-1.742 0.461-0.797 0.289-1.617 0.539-2.477 0.539-1.438 0-2.484-0.813-2.477-2.305l0.008-0.039c-0.312-0.391-0.477-0.891-0.477-1.391 0-0.109 0.008-0.227 0.023-0.336-0.164-0.289-0.266-0.602-0.289-0.93h-1.32c-1.094 0-2-0.914-2-2.008 0-1.078 0.922-1.992 2-1.992h2.922c-0.117-0.32-0.172-0.656-0.172-1 0-1.32 1.008-2 2.25-2 1.047 0 1.383 1.336 1.836 2.062 0.234 0.367 0.5 0.688 0.781 1.008 0.227 0.258 0.758 0.93 1.133 0.93h2.25c0.555 0 1 0.445 1 1z"></path>
</svg>
