<!-- Generated by IcoMoon.io -->
<svg version="1.1" xmlns="http://www.w3.org/2000/svg" width="14" height="14" viewBox="0 0 14 14">
<title>hashtag</title>
<path d="M7.742 8l0.5-2h-1.984l-0.5 2h1.984zM13.742 4.063l-0.438 1.75c-0.031 0.109-0.125 0.187-0.242 0.187h-2.555l-0.5 2h2.43c0.078 0 0.148 0.039 0.195 0.094 0.047 0.062 0.070 0.141 0.047 0.219l-0.438 1.75c-0.023 0.109-0.125 0.187-0.242 0.187h-2.555l-0.633 2.563c-0.031 0.109-0.133 0.187-0.242 0.187h-1.75c-0.078 0-0.156-0.039-0.203-0.094-0.047-0.062-0.062-0.141-0.047-0.219l0.609-2.438h-1.984l-0.633 2.563c-0.031 0.109-0.133 0.187-0.242 0.187h-1.758c-0.070 0-0.148-0.039-0.195-0.094-0.047-0.062-0.062-0.141-0.047-0.219l0.609-2.438h-2.43c-0.078 0-0.148-0.039-0.195-0.094-0.047-0.062-0.062-0.141-0.047-0.219l0.437-1.75c0.031-0.109 0.125-0.187 0.242-0.187h2.555l0.5-2h-2.43c-0.078 0-0.148-0.039-0.195-0.094-0.047-0.062-0.070-0.141-0.047-0.219l0.438-1.75c0.023-0.109 0.125-0.187 0.242-0.187h2.555l0.633-2.563c0.031-0.109 0.133-0.187 0.25-0.187h1.75c0.070 0 0.148 0.039 0.195 0.094 0.047 0.062 0.062 0.141 0.047 0.219l-0.609 2.438h1.984l0.633-2.563c0.031-0.109 0.133-0.187 0.25-0.187h1.75c0.070 0 0.148 0.039 0.195 0.094 0.047 0.062 0.062 0.141 0.047 0.219l-0.609 2.438h2.43c0.078 0 0.148 0.039 0.195 0.094 0.047 0.062 0.062 0.141 0.047 0.219z"></path>
</svg>
