<!-- Generated by IcoMoon.io -->
<svg version="1.1" xmlns="http://www.w3.org/2000/svg" width="12" height="14" viewBox="0 0 12 14">
<title>hdd-o</title>
<path d="M8.125 9.5c0 0.344-0.281 0.625-0.625 0.625s-0.625-0.281-0.625-0.625 0.281-0.625 0.625-0.625 0.625 0.281 0.625 0.625zM10.125 9.5c0 0.344-0.281 0.625-0.625 0.625s-0.625-0.281-0.625-0.625 0.281-0.625 0.625-0.625 0.625 0.281 0.625 0.625zM11 10.75v-2.5c0-0.133-0.117-0.25-0.25-0.25h-9.5c-0.133 0-0.25 0.117-0.25 0.25v2.5c0 0.133 0.117 0.25 0.25 0.25h9.5c0.133 0 0.25-0.117 0.25-0.25zM1.391 7h9.219l-1.227-3.766c-0.039-0.133-0.187-0.234-0.328-0.234h-6.109c-0.141 0-0.289 0.102-0.328 0.234zM12 8.25v2.5c0 0.688-0.563 1.25-1.25 1.25h-9.5c-0.688 0-1.25-0.563-1.25-1.25v-2.5c0-0.211 0.062-0.391 0.125-0.586l1.539-4.734c0.18-0.547 0.703-0.93 1.281-0.93h6.109c0.578 0 1.102 0.383 1.281 0.93l1.539 4.734c0.062 0.195 0.125 0.375 0.125 0.586z"></path>
</svg>
