<!-- Generated by IcoMoon.io -->
<svg version="1.1" xmlns="http://www.w3.org/2000/svg" width="13" height="14" viewBox="0 0 13 14">
<title>headphones</title>
<path d="M13 6.922c0 0.852-0.156 1.68-0.469 2.453l-0.156 0.383-1.445 0.258c-0.227 0.852-1 1.484-1.93 1.484v0.25c0 0.141-0.109 0.25-0.25 0.25h-0.5c-0.141 0-0.25-0.109-0.25-0.25v-4.5c0-0.141 0.109-0.25 0.25-0.25h0.5c0.141 0 0.25 0.109 0.25 0.25v0.25c0.75 0 1.398 0.414 1.742 1.023l0.531-0.094c0.148-0.484 0.227-0.984 0.227-1.508 0-2.359-2.336-4.422-5-4.422s-5 2.062-5 4.422c0 0.523 0.078 1.023 0.227 1.508l0.531 0.094c0.344-0.609 0.992-1.023 1.742-1.023v-0.25c0-0.141 0.109-0.25 0.25-0.25h0.5c0.141 0 0.25 0.109 0.25 0.25v4.5c0 0.141-0.109 0.25-0.25 0.25h-0.5c-0.141 0-0.25-0.109-0.25-0.25v-0.25c-0.93 0-1.703-0.633-1.93-1.484l-1.445-0.258-0.156-0.383c-0.312-0.773-0.469-1.602-0.469-2.453 0-3.211 2.977-5.922 6.5-5.922s6.5 2.711 6.5 5.922z"></path>
</svg>
