<!-- Generated by IcoMoon.io -->
<svg version="1.1" xmlns="http://www.w3.org/2000/svg" width="14" height="14" viewBox="0 0 14 14">
<title>header</title>
<path d="M13.141 13c-0.688 0-1.383-0.055-2.078-0.055-0.688 0-1.375 0.055-2.062 0.055-0.266 0-0.391-0.289-0.391-0.516 0-0.695 0.781-0.398 1.187-0.664 0.258-0.164 0.258-0.82 0.258-1.094l-0.008-3.055c0-0.086 0-0.164-0.008-0.242-0.125-0.039-0.266-0.031-0.391-0.031h-5.273c-0.133 0-0.273-0.008-0.398 0.031-0.008 0.078-0.008 0.156-0.008 0.242l-0.008 2.898c0 0.297 0 1.109 0.289 1.281 0.406 0.25 1.328-0.102 1.328 0.602 0 0.234-0.109 0.547-0.383 0.547-0.727 0-1.453-0.055-2.172-0.055-0.664 0-1.328 0.055-1.992 0.055-0.258 0-0.375-0.297-0.375-0.516 0-0.68 0.719-0.398 1.102-0.664 0.25-0.172 0.258-0.844 0.258-1.117l-0.008-0.445v-6.352c0-0.375 0.055-1.578-0.297-1.789-0.391-0.242-1.227 0.133-1.227-0.57 0-0.227 0.102-0.547 0.375-0.547 0.719 0 1.445 0.055 2.164 0.055 0.656 0 1.32-0.055 1.977-0.055 0.281 0 0.391 0.312 0.391 0.547 0 0.672-0.773 0.344-1.156 0.586-0.273 0.164-0.273 0.969-0.273 1.25l0.008 2.5c0 0.086 0 0.164 0.008 0.25 0.102 0.023 0.203 0.023 0.305 0.023h5.461c0.094 0 0.195 0 0.297-0.023 0.008-0.086 0.008-0.164 0.008-0.25l0.008-2.5c0-0.289 0-1.086-0.273-1.25-0.391-0.234-1.172 0.078-1.172-0.586 0-0.234 0.109-0.547 0.391-0.547 0.688 0 1.375 0.055 2.062 0.055 0.672 0 1.344-0.055 2.016-0.055 0.281 0 0.391 0.312 0.391 0.547 0 0.68-0.805 0.336-1.195 0.578-0.266 0.172-0.273 0.977-0.273 1.258l0.008 7.367c0 0.258 0.016 0.937 0.266 1.094 0.398 0.25 1.242-0.070 1.242 0.609 0 0.227-0.102 0.547-0.375 0.547z"></path>
</svg>
