<!-- Generated by IcoMoon.io -->
<svg version="1.1" xmlns="http://www.w3.org/2000/svg" width="14" height="14" viewBox="0 0 14 14">
<title>heartbeat</title>
<path d="M10 8h2.383c-0.094 0.102-0.156 0.156-0.172 0.172l-4.867 4.687c-0.094 0.094-0.219 0.141-0.344 0.141s-0.25-0.047-0.344-0.141l-4.875-4.703c-0.016-0.008-0.078-0.062-0.164-0.156h2.883c0.227 0 0.43-0.156 0.484-0.375l0.547-2.195 1.484 5.211c0.062 0.211 0.258 0.359 0.484 0.359v0c0.219 0 0.414-0.148 0.477-0.359l1.141-3.789 0.438 0.875c0.086 0.164 0.258 0.273 0.445 0.273zM14 4.656c0 0.898-0.391 1.719-0.805 2.344h-2.883l-0.867-1.727c-0.086-0.18-0.289-0.289-0.484-0.273-0.211 0.023-0.383 0.156-0.438 0.359l-1.008 3.359-1.531-5.359c-0.062-0.211-0.258-0.359-0.492-0.359-0.227 0-0.422 0.156-0.477 0.375l-0.906 3.625h-3.305c-0.414-0.625-0.805-1.445-0.805-2.344 0-2.289 1.398-3.656 3.734-3.656 1.367 0 2.648 1.078 3.266 1.688 0.617-0.609 1.898-1.688 3.266-1.688 2.336 0 3.734 1.367 3.734 3.656z"></path>
</svg>
