<!-- Generated by IcoMoon.io -->
<svg version="1.1" xmlns="http://www.w3.org/2000/svg" width="12" height="14" viewBox="0 0 12 14">
<title>history</title>
<path d="M12 7c0 3.305-2.695 6-6 6-1.789 0-3.477-0.789-4.617-2.164-0.078-0.102-0.070-0.25 0.016-0.336l1.070-1.078c0.055-0.047 0.125-0.070 0.195-0.070 0.070 0.008 0.141 0.039 0.18 0.094 0.766 0.992 1.914 1.555 3.156 1.555 2.203 0 4-1.797 4-4s-1.797-4-4-4c-1.023 0-1.992 0.391-2.719 1.070l1.070 1.078c0.148 0.141 0.187 0.359 0.109 0.539-0.078 0.187-0.258 0.312-0.461 0.312h-3.5c-0.273 0-0.5-0.227-0.5-0.5v-3.5c0-0.203 0.125-0.383 0.312-0.461 0.18-0.078 0.398-0.039 0.539 0.109l1.016 1.008c1.102-1.039 2.594-1.656 4.133-1.656 3.305 0 6 2.695 6 6zM7 4.75v3.5c0 0.141-0.109 0.25-0.25 0.25h-2.5c-0.141 0-0.25-0.109-0.25-0.25v-0.5c0-0.141 0.109-0.25 0.25-0.25h1.75v-2.75c0-0.141 0.109-0.25 0.25-0.25h0.5c0.141 0 0.25 0.109 0.25 0.25z"></path>
</svg>
