<!-- Generated by IcoMoon.io -->
<svg version="1.1" xmlns="http://www.w3.org/2000/svg" width="13" height="14" viewBox="0 0 13 14">
<title>home</title>
<path d="M11 7.75v3.75c0 0.273-0.227 0.5-0.5 0.5h-3v-3h-2v3h-3c-0.273 0-0.5-0.227-0.5-0.5v-3.75c0-0.016 0.008-0.031 0.008-0.047l4.492-3.703 4.492 3.703c0.008 0.016 0.008 0.031 0.008 0.047zM12.742 7.211l-0.484 0.578c-0.039 0.047-0.102 0.078-0.164 0.086h-0.023c-0.062 0-0.117-0.016-0.164-0.055l-5.406-4.508-5.406 4.508c-0.055 0.039-0.117 0.062-0.187 0.055-0.062-0.008-0.125-0.039-0.164-0.086l-0.484-0.578c-0.086-0.102-0.070-0.266 0.031-0.352l5.617-4.68c0.328-0.273 0.859-0.273 1.187 0l1.906 1.594v-1.523c0-0.141 0.109-0.25 0.25-0.25h1.5c0.141 0 0.25 0.109 0.25 0.25v3.188l1.711 1.422c0.102 0.086 0.117 0.25 0.031 0.352z"></path>
</svg>
