<!-- Generated by IcoMoon.io -->
<svg version="1.1" xmlns="http://www.w3.org/2000/svg" width="11" height="14" viewBox="0 0 11 14">
<title>hospital-o</title>
<path d="M3 10.25v0.5c0 0.133-0.117 0.25-0.25 0.25h-0.5c-0.133 0-0.25-0.117-0.25-0.25v-0.5c0-0.133 0.117-0.25 0.25-0.25h0.5c0.133 0 0.25 0.117 0.25 0.25zM3 8.25v0.5c0 0.133-0.117 0.25-0.25 0.25h-0.5c-0.133 0-0.25-0.117-0.25-0.25v-0.5c0-0.133 0.117-0.25 0.25-0.25h0.5c0.133 0 0.25 0.117 0.25 0.25zM5 8.25v0.5c0 0.133-0.117 0.25-0.25 0.25h-0.5c-0.133 0-0.25-0.117-0.25-0.25v-0.5c0-0.133 0.117-0.25 0.25-0.25h0.5c0.133 0 0.25 0.117 0.25 0.25zM3 6.25v0.5c0 0.133-0.117 0.25-0.25 0.25h-0.5c-0.133 0-0.25-0.117-0.25-0.25v-0.5c0-0.133 0.117-0.25 0.25-0.25h0.5c0.133 0 0.25 0.117 0.25 0.25zM9 10.25v0.5c0 0.133-0.117 0.25-0.25 0.25h-0.5c-0.133 0-0.25-0.117-0.25-0.25v-0.5c0-0.133 0.117-0.25 0.25-0.25h0.5c0.133 0 0.25 0.117 0.25 0.25zM7 8.25v0.5c0 0.133-0.117 0.25-0.25 0.25h-0.5c-0.133 0-0.25-0.117-0.25-0.25v-0.5c0-0.133 0.117-0.25 0.25-0.25h0.5c0.133 0 0.25 0.117 0.25 0.25zM5 6.25v0.5c0 0.133-0.117 0.25-0.25 0.25h-0.5c-0.133 0-0.25-0.117-0.25-0.25v-0.5c0-0.133 0.117-0.25 0.25-0.25h0.5c0.133 0 0.25 0.117 0.25 0.25zM9 8.25v0.5c0 0.133-0.117 0.25-0.25 0.25h-0.5c-0.133 0-0.25-0.117-0.25-0.25v-0.5c0-0.133 0.117-0.25 0.25-0.25h0.5c0.133 0 0.25 0.117 0.25 0.25zM7 6.25v0.5c0 0.133-0.117 0.25-0.25 0.25h-0.5c-0.133 0-0.25-0.117-0.25-0.25v-0.5c0-0.133 0.117-0.25 0.25-0.25h0.5c0.133 0 0.25 0.117 0.25 0.25zM9 6.25v0.5c0 0.133-0.117 0.25-0.25 0.25h-0.5c-0.133 0-0.25-0.117-0.25-0.25v-0.5c0-0.133 0.117-0.25 0.25-0.25h0.5c0.133 0 0.25 0.117 0.25 0.25zM7 13h3v-9h-2v0.25c0 0.414-0.336 0.75-0.75 0.75h-3.5c-0.414 0-0.75-0.336-0.75-0.75v-0.25h-2v9h3v-1.75c0-0.133 0.117-0.25 0.25-0.25h2.5c0.133 0 0.25 0.117 0.25 0.25v1.75zM7 3.75v-2.5c0-0.133-0.117-0.25-0.25-0.25h-0.5c-0.133 0-0.25 0.117-0.25 0.25v0.75h-1v-0.75c0-0.133-0.117-0.25-0.25-0.25h-0.5c-0.133 0-0.25 0.117-0.25 0.25v2.5c0 0.133 0.117 0.25 0.25 0.25h0.5c0.133 0 0.25-0.117 0.25-0.25v-0.75h1v0.75c0 0.133 0.117 0.25 0.25 0.25h0.5c0.133 0 0.25-0.117 0.25-0.25zM11 3.5v10c0 0.273-0.227 0.5-0.5 0.5h-10c-0.273 0-0.5-0.227-0.5-0.5v-10c0-0.273 0.227-0.5 0.5-0.5h2.5v-2.25c0-0.414 0.336-0.75 0.75-0.75h3.5c0.414 0 0.75 0.336 0.75 0.75v2.25h2.5c0.273 0 0.5 0.227 0.5 0.5z"></path>
</svg>
