<!-- Generated by IcoMoon.io -->
<svg version="1.1" xmlns="http://www.w3.org/2000/svg" width="12" height="14" viewBox="0 0 12 14">
<title>hourglass-1</title>
<path d="M11 1c0 2.891-1.383 4.984-2.914 6 1.531 1.016 2.914 3.109 2.914 6h0.75c0.141 0 0.25 0.109 0.25 0.25v0.5c0 0.141-0.109 0.25-0.25 0.25h-11.5c-0.141 0-0.25-0.109-0.25-0.25v-0.5c0-0.141 0.109-0.25 0.25-0.25h0.75c0-2.891 1.383-4.984 2.914-6-1.531-1.016-2.914-3.109-2.914-6h-0.75c-0.141 0-0.25-0.109-0.25-0.25v-0.5c0-0.141 0.109-0.25 0.25-0.25h11.5c0.141 0 0.25 0.109 0.25 0.25v0.5c0 0.141-0.109 0.25-0.25 0.25h-0.75zM10 1h-8c0 0.344 0.023 0.68 0.070 1h7.859c0.047-0.32 0.070-0.656 0.070-1zM10 13c0-2.805-1.547-4.875-3.102-5.5h-1.797c-1.555 0.625-3.102 2.695-3.102 5.5h8z"></path>
</svg>
