<!-- Generated by IcoMoon.io -->
<svg version="1.1" xmlns="http://www.w3.org/2000/svg" width="12" height="14" viewBox="0 0 12 14">
<title>hourglass-2</title>
<path d="M11 1c0 2.891-1.383 4.984-2.914 6 1.531 1.016 2.914 3.109 2.914 6h0.75c0.141 0 0.25 0.109 0.25 0.25v0.5c0 0.141-0.109 0.25-0.25 0.25h-11.5c-0.141 0-0.25-0.109-0.25-0.25v-0.5c0-0.141 0.109-0.25 0.25-0.25h0.75c0-2.891 1.383-4.984 2.914-6-1.531-1.016-2.914-3.109-2.914-6h-0.75c-0.141 0-0.25-0.109-0.25-0.25v-0.5c0-0.141 0.109-0.25 0.25-0.25h11.5c0.141 0 0.25 0.109 0.25 0.25v0.5c0 0.141-0.109 0.25-0.25 0.25h-0.75zM10 1h-8c0 1.141 0.258 2.148 0.664 3h6.672c0.406-0.852 0.664-1.859 0.664-3zM9.555 10.5c-0.578-1.508-1.617-2.578-2.656-3h-1.797c-1.039 0.422-2.078 1.492-2.656 3h7.109z"></path>
</svg>
