<!-- Generated by IcoMoon.io -->
<svg version="1.1" xmlns="http://www.w3.org/2000/svg" width="12" height="14" viewBox="0 0 12 14">
<title>hourglass-o</title>
<path d="M11 1c0 2.891-1.383 4.984-2.914 6 1.531 1.016 2.914 3.109 2.914 6h0.75c0.141 0 0.25 0.109 0.25 0.25v0.5c0 0.141-0.109 0.25-0.25 0.25h-11.5c-0.141 0-0.25-0.109-0.25-0.25v-0.5c0-0.141 0.109-0.25 0.25-0.25h0.75c0-2.891 1.383-4.984 2.914-6-1.531-1.016-2.914-3.109-2.914-6h-0.75c-0.141 0-0.25-0.109-0.25-0.25v-0.5c0-0.141 0.109-0.25 0.25-0.25h11.5c0.141 0 0.25 0.109 0.25 0.25v0.5c0 0.141-0.109 0.25-0.25 0.25h-0.75zM6.828 6.531c1.578-0.594 3.172-2.68 3.172-5.531h-8c0 2.852 1.594 4.938 3.172 5.531 0.195 0.070 0.328 0.258 0.328 0.469s-0.133 0.398-0.328 0.469c-1.578 0.594-3.172 2.68-3.172 5.531h8c0-2.852-1.594-4.938-3.172-5.531-0.195-0.070-0.328-0.258-0.328-0.469s0.133-0.398 0.328-0.469z"></path>
</svg>
