<!-- Generated by IcoMoon.io -->
<svg version="1.1" xmlns="http://www.w3.org/2000/svg" width="12" height="14" viewBox="0 0 12 14">
<title>hourglass</title>
<path d="M11.75 12.5c0.141 0 0.25 0.109 0.25 0.25v1c0 0.141-0.109 0.25-0.25 0.25h-11.5c-0.141 0-0.25-0.109-0.25-0.25v-1c0-0.141 0.109-0.25 0.25-0.25h11.5zM1.016 12c0.148-2.633 2.297-4.047 3.734-5-1.438-0.953-3.586-2.367-3.734-5h9.969c-0.148 2.633-2.297 4.047-3.734 5 1.438 0.953 3.586 2.367 3.734 5h-9.969zM11.75 0c0.141 0 0.25 0.109 0.25 0.25v1c0 0.141-0.109 0.25-0.25 0.25h-11.5c-0.141 0-0.25-0.109-0.25-0.25v-1c0-0.141 0.109-0.25 0.25-0.25h11.5z"></path>
</svg>
