<!-- Generated by IcoMoon.io -->
<svg version="1.1" xmlns="http://www.w3.org/2000/svg" width="11" height="14" viewBox="0 0 11 14">
<title>ils</title>
<path d="M7.75 4.875v3.875c0 0.141-0.109 0.25-0.25 0.25h-1.25c-0.141 0-0.25-0.109-0.25-0.25v-3.875c0-1.172-0.953-2.125-2.125-2.125h-2.125v9c0 0.141-0.109 0.25-0.25 0.25h-1.25c-0.141 0-0.25-0.109-0.25-0.25v-10.5c0-0.141 0.109-0.25 0.25-0.25h3.625c2.141 0 3.875 1.734 3.875 3.875zM10.75 1.25v6.875c0 2.141-1.734 3.875-3.875 3.875h-3.625c-0.141 0-0.25-0.109-0.25-0.25v-7.5c0-0.141 0.109-0.25 0.25-0.25h1.25c0.141 0 0.25 0.109 0.25 0.25v6h2.125c1.172 0 2.125-0.953 2.125-2.125v-6.875c0-0.141 0.109-0.25 0.25-0.25h1.25c0.141 0 0.25 0.109 0.25 0.25z"></path>
</svg>
