<!-- Generated by IcoMoon.io -->
<svg version="1.1" xmlns="http://www.w3.org/2000/svg" width="15" height="14" viewBox="0 0 15 14">
<title>image</title>
<path d="M5 4.5c0 0.828-0.672 1.5-1.5 1.5s-1.5-0.672-1.5-1.5 0.672-1.5 1.5-1.5 1.5 0.672 1.5 1.5zM13 7.5v3.5h-11v-1.5l2.5-2.5 1.25 1.25 4-4zM13.75 2h-12.5c-0.133 0-0.25 0.117-0.25 0.25v9.5c0 0.133 0.117 0.25 0.25 0.25h12.5c0.133 0 0.25-0.117 0.25-0.25v-9.5c0-0.133-0.117-0.25-0.25-0.25zM15 2.25v9.5c0 0.688-0.563 1.25-1.25 1.25h-12.5c-0.688 0-1.25-0.563-1.25-1.25v-9.5c0-0.688 0.563-1.25 1.25-1.25h12.5c0.688 0 1.25 0.563 1.25 1.25z"></path>
</svg>
