<!-- Generated by IcoMoon.io -->
<svg version="1.1" xmlns="http://www.w3.org/2000/svg" width="12" height="14" viewBox="0 0 12 14">
<title>imdb</title>
<path d="M7.203 6.227v1.422c0 0.281 0.055 0.539-0.297 0.531v-2.414c0.344 0 0.297 0.18 0.297 0.461zM9.672 6.977v0.945c0 0.156 0.047 0.414-0.18 0.414-0.047 0-0.086-0.023-0.109-0.070-0.062-0.148-0.031-1.273-0.031-1.289 0-0.109-0.031-0.367 0.141-0.367 0.211 0 0.18 0.211 0.18 0.367zM1.406 8.82h0.953v-3.687h-0.953v3.687zM4.797 8.82h0.828v-3.687h-1.242l-0.219 1.727c-0.078-0.578-0.156-1.156-0.25-1.727h-1.234v3.687h0.836v-2.438l0.352 2.438h0.594l0.336-2.492v2.492zM8.117 6.437c0-0.234 0.008-0.484-0.039-0.703-0.125-0.648-0.906-0.602-1.414-0.602h-0.711v3.687c2.484 0 2.164 0.172 2.164-2.383zM10.594 7.977v-1.039c0-0.5-0.023-0.867-0.641-0.867-0.258 0-0.43 0.078-0.602 0.266v-1.203h-0.914v3.687h0.859l0.055-0.234c0.164 0.195 0.344 0.281 0.602 0.281 0.57 0 0.641-0.438 0.641-0.891zM12 2.25v9.5c0 0.688-0.563 1.25-1.25 1.25h-9.5c-0.688 0-1.25-0.563-1.25-1.25v-9.5c0-0.688 0.563-1.25 1.25-1.25h9.5c0.688 0 1.25 0.563 1.25 1.25z"></path>
</svg>
