<!-- Generated by IcoMoon.io -->
<svg version="1.1" xmlns="http://www.w3.org/2000/svg" width="12" height="14" viewBox="0 0 12 14">
<title>inbox</title>
<path d="M7.992 7.5h2.469c-0.016-0.039-0.023-0.086-0.039-0.125l-1.656-3.875h-5.531l-1.656 3.875c-0.016 0.039-0.023 0.086-0.039 0.125h2.469l0.742 1.5h2.5zM12 7.734v3.766c0 0.273-0.227 0.5-0.5 0.5h-11c-0.273 0-0.5-0.227-0.5-0.5v-3.766c0-0.281 0.086-0.695 0.195-0.961l1.859-4.313c0.109-0.258 0.422-0.461 0.695-0.461h6.5c0.273 0 0.586 0.203 0.695 0.461l1.859 4.313c0.109 0.266 0.195 0.68 0.195 0.961z"></path>
</svg>
