<!-- Generated by IcoMoon.io -->
<svg version="1.1" xmlns="http://www.w3.org/2000/svg" width="14" height="14" viewBox="0 0 14 14">
<title>indent</title>
<path d="M2.75 6.5c0 0.062-0.023 0.133-0.070 0.18l-2.25 2.25c-0.047 0.047-0.117 0.070-0.18 0.070-0.133 0-0.25-0.117-0.25-0.25v-4.5c0-0.133 0.117-0.25 0.25-0.25 0.062 0 0.133 0.023 0.18 0.070l2.25 2.25c0.047 0.047 0.070 0.117 0.070 0.18zM14 10.25v1.5c0 0.133-0.117 0.25-0.25 0.25h-13.5c-0.133 0-0.25-0.117-0.25-0.25v-1.5c0-0.133 0.117-0.25 0.25-0.25h13.5c0.133 0 0.25 0.117 0.25 0.25zM14 7.25v1.5c0 0.133-0.117 0.25-0.25 0.25h-8.5c-0.133 0-0.25-0.117-0.25-0.25v-1.5c0-0.133 0.117-0.25 0.25-0.25h8.5c0.133 0 0.25 0.117 0.25 0.25zM14 4.25v1.5c0 0.133-0.117 0.25-0.25 0.25h-8.5c-0.133 0-0.25-0.117-0.25-0.25v-1.5c0-0.133 0.117-0.25 0.25-0.25h8.5c0.133 0 0.25 0.117 0.25 0.25zM14 1.25v1.5c0 0.133-0.117 0.25-0.25 0.25h-13.5c-0.133 0-0.25-0.117-0.25-0.25v-1.5c0-0.133 0.117-0.25 0.25-0.25h13.5c0.133 0 0.25 0.117 0.25 0.25z"></path>
</svg>
