<!-- Generated by IcoMoon.io -->
<svg version="1.1" xmlns="http://www.w3.org/2000/svg" width="5" height="14" viewBox="0 0 5 14">
<title>info</title>
<path d="M5 10.5v1c0 0.273-0.227 0.5-0.5 0.5h-4c-0.273 0-0.5-0.227-0.5-0.5v-1c0-0.273 0.227-0.5 0.5-0.5h0.5v-3h-0.5c-0.273 0-0.5-0.227-0.5-0.5v-1c0-0.273 0.227-0.5 0.5-0.5h3c0.273 0 0.5 0.227 0.5 0.5v4.5h0.5c0.273 0 0.5 0.227 0.5 0.5zM4 1.5v1.5c0 0.273-0.227 0.5-0.5 0.5h-2c-0.273 0-0.5-0.227-0.5-0.5v-1.5c0-0.273 0.227-0.5 0.5-0.5h2c0.273 0 0.5 0.227 0.5 0.5z"></path>
</svg>
