<!-- Generated by IcoMoon.io -->
<svg version="1.1" xmlns="http://www.w3.org/2000/svg" width="12" height="14" viewBox="0 0 12 14">
<title>info-circle</title>
<path d="M8 10.75v-1.25c0-0.141-0.109-0.25-0.25-0.25h-0.75v-4c0-0.141-0.109-0.25-0.25-0.25h-2.5c-0.141 0-0.25 0.109-0.25 0.25v1.25c0 0.141 0.109 0.25 0.25 0.25h0.75v2.5h-0.75c-0.141 0-0.25 0.109-0.25 0.25v1.25c0 0.141 0.109 0.25 0.25 0.25h3.5c0.141 0 0.25-0.109 0.25-0.25zM7 3.75v-1.25c0-0.141-0.109-0.25-0.25-0.25h-1.5c-0.141 0-0.25 0.109-0.25 0.25v1.25c0 0.141 0.109 0.25 0.25 0.25h1.5c0.141 0 0.25-0.109 0.25-0.25zM12 7c0 3.313-2.687 6-6 6s-6-2.687-6-6 2.687-6 6-6 6 2.687 6 6z"></path>
</svg>
