<!-- Generated by IcoMoon.io -->
<svg version="1.1" xmlns="http://www.w3.org/2000/svg" width="7" height="14" viewBox="0 0 7 14">
<title>inr</title>
<path d="M7.016 3.672v0.797c0 0.141-0.109 0.25-0.25 0.25h-1.313c-0.242 1.5-1.391 2.477-3.164 2.687 1.164 1.242 2.406 2.742 3.586 4.188 0.062 0.070 0.078 0.18 0.031 0.266-0.039 0.086-0.125 0.141-0.227 0.141h-1.523c-0.078 0-0.148-0.031-0.195-0.094-1.258-1.508-2.414-2.891-3.891-4.461-0.047-0.047-0.070-0.109-0.070-0.172v-0.992c0-0.133 0.109-0.25 0.25-0.25h0.875c1.375 0 2.234-0.461 2.461-1.313h-3.336c-0.141 0-0.25-0.109-0.25-0.25v-0.797c0-0.141 0.109-0.25 0.25-0.25h3.227c-0.297-0.586-1-0.883-2.094-0.883h-1.133c-0.141 0-0.25-0.117-0.25-0.25v-1.039c0-0.141 0.109-0.25 0.25-0.25h6.5c0.141 0 0.25 0.109 0.25 0.25v0.797c0 0.141-0.109 0.25-0.25 0.25h-1.82c0.25 0.32 0.414 0.695 0.5 1.125h1.336c0.141 0 0.25 0.109 0.25 0.25z"></path>
</svg>
