<!-- Generated by IcoMoon.io -->
<svg version="1.1" xmlns="http://www.w3.org/2000/svg" width="12" height="14" viewBox="0 0 12 14">
<title>instagram</title>
<path d="M8 7c0-1.102-0.898-2-2-2s-2 0.898-2 2 0.898 2 2 2 2-0.898 2-2zM9.078 7c0 1.703-1.375 3.078-3.078 3.078s-3.078-1.375-3.078-3.078 1.375-3.078 3.078-3.078 3.078 1.375 3.078 3.078zM9.922 3.797c0 0.398-0.32 0.719-0.719 0.719s-0.719-0.32-0.719-0.719 0.32-0.719 0.719-0.719 0.719 0.32 0.719 0.719zM6 2.078c-0.875 0-2.75-0.070-3.539 0.242-0.273 0.109-0.477 0.242-0.688 0.453s-0.344 0.414-0.453 0.688c-0.312 0.789-0.242 2.664-0.242 3.539s-0.070 2.75 0.242 3.539c0.109 0.273 0.242 0.477 0.453 0.688s0.414 0.344 0.688 0.453c0.789 0.312 2.664 0.242 3.539 0.242s2.75 0.070 3.539-0.242c0.273-0.109 0.477-0.242 0.688-0.453s0.344-0.414 0.453-0.688c0.312-0.789 0.242-2.664 0.242-3.539s0.070-2.75-0.242-3.539c-0.109-0.273-0.242-0.477-0.453-0.688s-0.414-0.344-0.688-0.453c-0.789-0.312-2.664-0.242-3.539-0.242zM12 7c0 0.828 0.008 1.648-0.039 2.477-0.047 0.961-0.266 1.812-0.969 2.516s-1.555 0.922-2.516 0.969c-0.828 0.047-1.648 0.039-2.477 0.039s-1.648 0.008-2.477-0.039c-0.961-0.047-1.812-0.266-2.516-0.969s-0.922-1.555-0.969-2.516c-0.047-0.828-0.039-1.648-0.039-2.477s-0.008-1.648 0.039-2.477c0.047-0.961 0.266-1.812 0.969-2.516s1.555-0.922 2.516-0.969c0.828-0.047 1.648-0.039 2.477-0.039s1.648-0.008 2.477 0.039c0.961 0.047 1.812 0.266 2.516 0.969s0.922 1.555 0.969 2.516c0.047 0.828 0.039 1.648 0.039 2.477z"></path>
</svg>
