<!-- Generated by IcoMoon.io -->
<svg version="1.1" xmlns="http://www.w3.org/2000/svg" width="14" height="14" viewBox="0 0 14 14">
<title>internet-explorer</title>
<path d="M14 7.32c0 0.273-0.016 0.547-0.055 0.813h-8.992c0 1.555 1.367 2.68 2.867 2.68 1.016 0 1.992-0.5 2.516-1.383h3.305c-0.891 2.508-3.273 4.188-5.93 4.188-0.961 0-1.922-0.227-2.781-0.648-0.875 0.445-2.102 0.906-3.078 0.906-1.313 0-1.852-0.805-1.852-2.055 0-0.727 0.156-1.453 0.352-2.148 0.125-0.453 0.625-1.375 0.852-1.789 0.961-1.742 2.227-3.414 3.711-4.734-1.195 0.516-2.492 1.812-3.336 2.766 0.656-2.859 3.203-4.883 6.133-4.883 0.117 0 0.234 0 0.352 0.008 0.969-0.445 2.32-0.914 3.383-0.914 1.266 0 2.352 0.484 2.352 1.914 0 0.75-0.289 1.563-0.586 2.234 0.516 0.93 0.789 1.984 0.789 3.047zM13.453 2.32c0-0.875-0.625-1.414-1.484-1.414-0.656 0-1.398 0.266-1.984 0.547 1.266 0.492 2.352 1.398 3.070 2.555 0.195-0.516 0.398-1.141 0.398-1.688zM1 11.984c0 0.906 0.539 1.398 1.43 1.398 0.695 0 1.469-0.312 2.078-0.648-1.273-0.75-2.258-1.945-2.742-3.344-0.359 0.75-0.766 1.75-0.766 2.594zM4.938 6.414h5.688c-0.055-1.508-1.383-2.594-2.844-2.594-1.469 0-2.789 1.086-2.844 2.594z"></path>
</svg>
