<!-- Generated by IcoMoon.io -->
<svg version="1.1" xmlns="http://www.w3.org/2000/svg" width="11" height="14" viewBox="0 0 11 14">
<title>intersex</title>
<path d="M8 0.25c0-0.141 0.109-0.25 0.25-0.25h2.25c0.273 0 0.5 0.227 0.5 0.5v2.25c0 0.141-0.109 0.25-0.25 0.25h-0.5c-0.141 0-0.25-0.109-0.25-0.25v-1.047l-1.984 1.992c0.609 0.766 0.984 1.742 0.984 2.805 0 2.313-1.75 4.219-4 4.469v1.031h0.75c0.141 0 0.25 0.109 0.25 0.25v0.5c0 0.141-0.109 0.25-0.25 0.25h-0.75v0.75c0 0.141-0.109 0.25-0.25 0.25h-0.5c-0.141 0-0.25-0.109-0.25-0.25v-0.75h-0.75c-0.141 0-0.25-0.109-0.25-0.25v-0.5c0-0.141 0.109-0.25 0.25-0.25h0.75v-1.031c-2.359-0.258-4.18-2.359-3.984-4.828 0.164-2.125 1.852-3.867 3.961-4.109 1.266-0.148 2.438 0.242 3.328 0.953l1.992-1.984h-1.047c-0.141 0-0.25-0.109-0.25-0.25v-0.5zM4.5 10c1.93 0 3.5-1.57 3.5-3.5s-1.57-3.5-3.5-3.5-3.5 1.57-3.5 3.5 1.57 3.5 3.5 3.5z"></path>
</svg>
