<!-- Generated by IcoMoon.io -->
<svg version="1.1" xmlns="http://www.w3.org/2000/svg" width="16" height="14" viewBox="0 0 16 14">
<title>ioxhost</title>
<path d="M11.43 6.5c0 0.367-0.297 0.672-0.672 0.672h-5.484c-0.375 0-0.672-0.305-0.672-0.672s0.297-0.672 0.672-0.672h5.484c0.375 0 0.672 0.305 0.672 0.672zM13.102 6.5c0-0.461-0.062-0.898-0.18-1.328h-7.672c-0.375 0-0.672-0.297-0.672-0.664 0-0.375 0.297-0.672 0.672-0.672h7.094c-0.898-1.461-2.508-2.43-4.336-2.43-2.812 0-5.102 2.281-5.102 5.094 0 0.461 0.062 0.898 0.18 1.328h7.672c0.375 0 0.672 0.297 0.672 0.664 0 0.375-0.297 0.672-0.672 0.672h-7.094c0.898 1.461 2.508 2.43 4.344 2.43 2.805 0 5.094-2.281 5.094-5.094zM16 4.508c0 0.367-0.297 0.664-0.672 0.664h-1.023c0.086 0.43 0.133 0.875 0.133 1.328 0 3.547-2.883 6.437-6.43 6.437-2.602 0-4.844-1.547-5.859-3.773h-1.477c-0.375 0-0.672-0.297-0.672-0.672 0-0.367 0.297-0.664 0.672-0.664h1.031c-0.086-0.43-0.133-0.875-0.133-1.328 0-3.547 2.883-6.437 6.437-6.437 2.594 0 4.836 1.547 5.852 3.773h1.469c0.375 0 0.672 0.297 0.672 0.672z"></path>
</svg>
