<!-- Generated by IcoMoon.io -->
<svg version="1.1" xmlns="http://www.w3.org/2000/svg" width="8" height="14" viewBox="0 0 8 14">
<title>italic</title>
<path d="M0 12.984l0.133-0.664c0.5-0.156 1.039-0.219 1.508-0.461 0.18-0.227 0.266-0.516 0.32-0.789 0.102-0.531 1.805-8.195 1.781-8.82v-0.195c-0.43-0.234-0.953-0.172-1.422-0.25l0.148-0.805c1.008 0.047 2.031 0.125 3.047 0.125 0.828 0 1.656-0.078 2.484-0.125-0.031 0.234-0.086 0.469-0.148 0.695-0.539 0.187-1.109 0.273-1.641 0.484-0.172 0.422-0.211 0.883-0.289 1.328-0.375 2.023-0.875 4.047-1.289 6.055-0.078 0.375-0.461 1.93-0.43 2.258l0.008 0.141c0.477 0.109 0.961 0.164 1.445 0.242-0.016 0.258-0.062 0.516-0.125 0.773-0.172 0-0.336 0.023-0.508 0.023-0.445 0-0.906-0.148-1.352-0.156-0.539-0.008-1.078-0.016-1.609-0.016-0.695 0-1.375 0.117-2.062 0.156z"></path>
</svg>
