<!-- Generated by IcoMoon.io -->
<svg version="1.1" xmlns="http://www.w3.org/2000/svg" width="12" height="14" viewBox="0 0 12 14">
<title>joomla</title>
<path d="M8.359 8.383l-1.25 1.25-1.18 1.187-0.234 0.234c-0.688 0.68-1.648 0.914-2.523 0.695-0.164 0.719-0.805 1.25-1.57 1.25-0.883 0-1.602-0.719-1.602-1.609 0-0.758 0.523-1.398 1.234-1.563-0.227-0.883 0.008-1.852 0.695-2.539l0.094-0.094 1.18 1.187-0.086 0.086c-0.391 0.383-0.383 1.008 0 1.398 0.383 0.383 1.008 0.383 1.391 0l0.234-0.234 1.18-1.187 1.258-1.25zM5.695 3.055l0.094 0.094-1.187 1.187-0.094-0.094c-0.383-0.383-1.008-0.383-1.391 0s-0.383 1.016 0 1.398l2.664 2.664-1.18 1.187-1.258-1.25-1.18-1.187-0.234-0.234c-0.719-0.711-0.937-1.734-0.664-2.648-0.719-0.156-1.25-0.797-1.25-1.563 0-0.891 0.719-1.609 1.602-1.609 0.805 0 1.461 0.586 1.586 1.344 0.867-0.203 1.812 0.039 2.492 0.711zM12 11.391c0 0.891-0.719 1.609-1.602 1.609-0.781 0-1.43-0.555-1.578-1.289v0c-0.906 0.281-1.945 0.062-2.664-0.656l-0.086-0.094 1.18-1.187 0.094 0.094c0.383 0.383 1.008 0.383 1.391 0s0.383-1.008 0-1.391l-2.672-2.672 1.187-1.187 2.438 2.438 0.227 0.234c0.68 0.68 0.922 1.641 0.703 2.516 0.781 0.109 1.383 0.773 1.383 1.586zM11.984 2.609c0 0.813-0.609 1.484-1.391 1.594 0.258 0.898 0.031 1.906-0.68 2.617l-0.094 0.094-1.18-1.187 0.094-0.094c0.383-0.383 0.383-1.008 0-1.391s-1.008-0.383-1.391 0l-2.672 2.672-1.187-1.187 1.258-1.25 1.187-1.187 0.227-0.234c0.711-0.711 1.727-0.937 2.633-0.672 0.109-0.781 0.781-1.383 1.594-1.383 0.883 0 1.602 0.719 1.602 1.609z"></path>
</svg>
