<!-- Generated by IcoMoon.io -->
<svg version="1.1" xmlns="http://www.w3.org/2000/svg" width="13" height="14" viewBox="0 0 13 14">
<title>key</title>
<path d="M6.5 4c0-0.828-0.672-1.5-1.5-1.5s-1.5 0.672-1.5 1.5c0 0.227 0.055 0.445 0.148 0.648-0.203-0.094-0.422-0.148-0.648-0.148-0.828 0-1.5 0.672-1.5 1.5s0.672 1.5 1.5 1.5 1.5-0.672 1.5-1.5c0-0.227-0.055-0.445-0.148-0.648 0.203 0.094 0.422 0.148 0.648 0.148 0.828 0 1.5-0.672 1.5-1.5zM13.148 9.5c0 0.18-0.719 0.898-0.898 0.898-0.203 0-0.836-0.734-1-0.898l-0.75 0.75 1.719 1.719c0.141 0.141 0.219 0.336 0.219 0.531 0 0.438-0.5 0.937-0.937 0.937-0.195 0-0.391-0.078-0.531-0.219l-5.242-5.242c-0.82 0.609-1.82 1.023-2.852 1.023-1.703 0-2.875-1.18-2.875-2.875 0-2.563 2.563-5.125 5.125-5.125 1.695 0 2.875 1.172 2.875 2.875 0 1.031-0.414 2.031-1.023 2.852l2.773 2.773 0.75-0.75c-0.164-0.164-0.898-0.797-0.898-1 0-0.18 0.719-0.898 0.898-0.898 0.062 0 0.133 0.031 0.18 0.078 0.289 0.289 2.469 2.344 2.469 2.57z"></path>
</svg>
