<!-- Generated by IcoMoon.io -->
<svg version="1.1" xmlns="http://www.w3.org/2000/svg" width="15" height="14" viewBox="0 0 15 14">
<title>keyboard-o</title>
<path d="M3 9.125v0.75c0 0.070-0.055 0.125-0.125 0.125h-0.75c-0.070 0-0.125-0.055-0.125-0.125v-0.75c0-0.070 0.055-0.125 0.125-0.125h0.75c0.070 0 0.125 0.055 0.125 0.125zM4 7.125v0.75c0 0.070-0.055 0.125-0.125 0.125h-1.75c-0.070 0-0.125-0.055-0.125-0.125v-0.75c0-0.070 0.055-0.125 0.125-0.125h1.75c0.070 0 0.125 0.055 0.125 0.125zM3 5.125v0.75c0 0.070-0.055 0.125-0.125 0.125h-0.75c-0.070 0-0.125-0.055-0.125-0.125v-0.75c0-0.070 0.055-0.125 0.125-0.125h0.75c0.070 0 0.125 0.055 0.125 0.125zM11 9.125v0.75c0 0.070-0.055 0.125-0.125 0.125h-6.75c-0.070 0-0.125-0.055-0.125-0.125v-0.75c0-0.070 0.055-0.125 0.125-0.125h6.75c0.070 0 0.125 0.055 0.125 0.125zM6 7.125v0.75c0 0.070-0.055 0.125-0.125 0.125h-0.75c-0.070 0-0.125-0.055-0.125-0.125v-0.75c0-0.070 0.055-0.125 0.125-0.125h0.75c0.070 0 0.125 0.055 0.125 0.125zM5 5.125v0.75c0 0.070-0.055 0.125-0.125 0.125h-0.75c-0.070 0-0.125-0.055-0.125-0.125v-0.75c0-0.070 0.055-0.125 0.125-0.125h0.75c0.070 0 0.125 0.055 0.125 0.125zM8 7.125v0.75c0 0.070-0.055 0.125-0.125 0.125h-0.75c-0.070 0-0.125-0.055-0.125-0.125v-0.75c0-0.070 0.055-0.125 0.125-0.125h0.75c0.070 0 0.125 0.055 0.125 0.125zM7 5.125v0.75c0 0.070-0.055 0.125-0.125 0.125h-0.75c-0.070 0-0.125-0.055-0.125-0.125v-0.75c0-0.070 0.055-0.125 0.125-0.125h0.75c0.070 0 0.125 0.055 0.125 0.125zM10 7.125v0.75c0 0.070-0.055 0.125-0.125 0.125h-0.75c-0.070 0-0.125-0.055-0.125-0.125v-0.75c0-0.070 0.055-0.125 0.125-0.125h0.75c0.070 0 0.125 0.055 0.125 0.125zM13 9.125v0.75c0 0.070-0.055 0.125-0.125 0.125h-0.75c-0.070 0-0.125-0.055-0.125-0.125v-0.75c0-0.070 0.055-0.125 0.125-0.125h0.75c0.070 0 0.125 0.055 0.125 0.125zM9 5.125v0.75c0 0.070-0.055 0.125-0.125 0.125h-0.75c-0.070 0-0.125-0.055-0.125-0.125v-0.75c0-0.070 0.055-0.125 0.125-0.125h0.75c0.070 0 0.125 0.055 0.125 0.125zM11 5.125v0.75c0 0.070-0.055 0.125-0.125 0.125h-0.75c-0.070 0-0.125-0.055-0.125-0.125v-0.75c0-0.070 0.055-0.125 0.125-0.125h0.75c0.070 0 0.125 0.055 0.125 0.125zM13 5.125v2.75c0 0.070-0.055 0.125-0.125 0.125h-1.75c-0.070 0-0.125-0.055-0.125-0.125v-0.75c0-0.070 0.055-0.125 0.125-0.125h0.875v-1.875c0-0.070 0.055-0.125 0.125-0.125h0.75c0.070 0 0.125 0.055 0.125 0.125zM14 11v-7h-13v7h13zM15 4v7c0 0.555-0.445 1-1 1h-13c-0.555 0-1-0.445-1-1v-7c0-0.555 0.445-1 1-1h13c0.555 0 1 0.445 1 1z"></path>
</svg>
