<!-- Generated by IcoMoon.io -->
<svg version="1.1" xmlns="http://www.w3.org/2000/svg" width="14" height="14" viewBox="0 0 14 14">
<title>krw</title>
<path d="M4.016 9.336l0.633-2.336h-1.242l0.586 2.344c0.008 0.016 0.008 0.031 0.016 0.047 0-0.016 0.008-0.039 0.008-0.055zM4.922 6l0.273-1h-2.281l0.25 1h1.758zM6.422 6h1.086l-0.273-1h-0.547zM9.93 9.344l0.609-2.344h-1.266l0.633 2.336c0.008 0.023 0.008 0.039 0.016 0.055 0-0.016 0.008-0.031 0.008-0.047zM10.797 6l0.258-1h-2.32l0.266 1h1.797zM14 6.25v0.5c0 0.141-0.109 0.25-0.25 0.25h-1.664l-1.281 4.813c-0.031 0.109-0.133 0.187-0.242 0.187h-1.242c-0.109 0-0.211-0.078-0.242-0.187l-1.297-4.813h-1.633l-1.305 4.813c-0.031 0.109-0.125 0.187-0.242 0.187h-1.242c-0.109 0-0.211-0.078-0.234-0.187l-1.25-4.813h-1.625c-0.141 0-0.25-0.109-0.25-0.25v-0.5c0-0.141 0.109-0.25 0.25-0.25h1.367l-0.258-1h-1.109c-0.141 0-0.25-0.109-0.25-0.25v-0.5c0-0.141 0.109-0.25 0.25-0.25h0.852l-0.695-2.687c-0.023-0.078-0.008-0.156 0.039-0.219 0.047-0.055 0.125-0.094 0.203-0.094h1.070c0.117 0 0.219 0.078 0.242 0.187l0.703 2.812h2.805l0.758-2.812c0.031-0.109 0.133-0.187 0.242-0.187h0.984c0.117 0 0.211 0.078 0.242 0.187l0.766 2.812h2.852l0.727-2.812c0.023-0.109 0.125-0.187 0.242-0.187h1.070c0.078 0 0.156 0.039 0.203 0.094 0.047 0.062 0.062 0.148 0.039 0.219l-0.711 2.687h0.867c0.141 0 0.25 0.109 0.25 0.25v0.5c0 0.141-0.109 0.25-0.25 0.25h-1.133l-0.266 1h1.398c0.141 0 0.25 0.109 0.25 0.25z"></path>
</svg>
