<!-- Generated by IcoMoon.io -->
<svg version="1.1" xmlns="http://www.w3.org/2000/svg" width="12" height="14" viewBox="0 0 12 14">
<title>language</title>
<path d="M5.109 8.422c-0.016 0.055-0.398-0.125-0.5-0.164-0.102-0.047-0.563-0.305-0.68-0.383s-0.563-0.445-0.617-0.469v0c-0.281 0.43-0.641 0.937-1.047 1.414-0.141 0.164-0.563 0.695-0.82 0.859-0.039 0.023-0.266 0.047-0.297 0.031 0.125-0.094 0.484-0.539 0.641-0.719 0.195-0.227 1.125-1.523 1.281-1.82 0.164-0.297 0.656-1.281 0.68-1.375-0.078-0.008-0.695 0.203-0.859 0.258-0.156 0.047-0.586 0.148-0.617 0.172-0.031 0.031-0.008 0.125-0.023 0.156s-0.156 0.102-0.242 0.117c-0.078 0.023-0.258 0.031-0.367 0-0.102-0.023-0.195-0.125-0.219-0.164 0 0-0.031-0.047-0.039-0.18 0.094-0.031 0.25-0.039 0.422-0.086s0.594-0.172 0.82-0.25 0.664-0.242 0.797-0.273c0.141-0.023 0.492-0.258 0.68-0.32s0.32-0.141 0.328-0.102 0 0.211-0.008 0.258c-0.008 0.039-0.383 0.773-0.437 0.891-0.031 0.062-0.25 0.477-0.602 1.023 0.125 0.055 0.391 0.164 0.5 0.219 0.133 0.062 1.062 0.453 1.109 0.469s0.133 0.375 0.117 0.438zM3.508 4.625c0.023 0.133-0.016 0.187-0.031 0.219-0.078 0.148-0.273 0.25-0.391 0.297s-0.312 0.094-0.469 0.094c-0.070-0.008-0.211-0.031-0.383-0.203-0.094-0.102-0.164-0.375-0.133-0.344s0.258 0.062 0.359 0.039 0.344-0.094 0.453-0.125c0.117-0.039 0.352-0.102 0.43-0.109 0.078 0 0.141 0.031 0.164 0.133zM8.961 5.633l0.492 1.773-1.086-0.328zM0.305 11.883l5.422-1.812v-8.062l-5.422 1.82v8.055zM10 9.406l0.797 0.242-1.414-5.133-0.781-0.242-1.688 4.188 0.797 0.242 0.352-0.859 1.648 0.508zM6.070 1.891l4.477 1.438v-2.969zM8.5 12.227l1.234 0.102-0.422 1.25-0.312-0.516c-0.633 0.406-1.414 0.719-2.156 0.844-0.227 0.047-0.484 0.094-0.711 0.094h-0.656c-0.828 0-2.336-0.492-2.992-0.969-0.047-0.039-0.062-0.070-0.062-0.125 0-0.086 0.062-0.148 0.141-0.148 0.070 0 0.438 0.227 0.539 0.273 0.703 0.352 1.688 0.672 2.477 0.672 0.977 0 1.641-0.125 2.531-0.508 0.258-0.117 0.484-0.266 0.727-0.398zM12 3.797v8.43c-6.039-1.922-6.047-1.922-6.047-1.922-0.125 0.055-5.727 1.945-5.805 1.945-0.062 0-0.117-0.039-0.141-0.102 0-0.008-0.008-0.016-0.008-0.023v-8.422c0.008-0.023 0.016-0.062 0.031-0.078 0.047-0.055 0.109-0.070 0.156-0.086 0.023-0.008 0.5-0.164 1.164-0.391v-3l4.359 1.547c0.055-0.016 4.914-1.695 4.984-1.695 0.086 0 0.156 0.062 0.156 0.164v3.266z"></path>
</svg>
