<!-- Generated by IcoMoon.io -->
<svg version="1.1" xmlns="http://www.w3.org/2000/svg" width="15" height="14" viewBox="0 0 15 14">
<title>laptop</title>
<path d="M3.25 10c-0.688 0-1.25-0.563-1.25-1.25v-5.5c0-0.688 0.563-1.25 1.25-1.25h8.5c0.688 0 1.25 0.563 1.25 1.25v5.5c0 0.688-0.563 1.25-1.25 1.25h-8.5zM3 3.25v5.5c0 0.133 0.117 0.25 0.25 0.25h8.5c0.133 0 0.25-0.117 0.25-0.25v-5.5c0-0.133-0.117-0.25-0.25-0.25h-8.5c-0.133 0-0.25 0.117-0.25 0.25zM13.75 10.5h1.25v0.75c0 0.414-0.563 0.75-1.25 0.75h-12.5c-0.688 0-1.25-0.336-1.25-0.75v-0.75h13.75zM8.125 11.25c0.070 0 0.125-0.055 0.125-0.125s-0.055-0.125-0.125-0.125h-1.25c-0.070 0-0.125 0.055-0.125 0.125s0.055 0.125 0.125 0.125h1.25z"></path>
</svg>
