<!-- Generated by IcoMoon.io -->
<svg version="1.1" xmlns="http://www.w3.org/2000/svg" width="14" height="14" viewBox="0 0 14 14">
<title>lastfm</title>
<path d="M10.094 5.5c0 0.047 0.062 0.266 0.078 0.32 0.211 0.641 0.703 0.773 1.289 0.937 1.305 0.367 2.539 1.062 2.539 2.594 0 1.555-1.297 2.648-2.812 2.648-2.516 0-3.297-3.078-4.023-4.953-0.602-1.547-1.234-2.453-2.977-2.453-1.547 0-2.906 1.484-2.906 3.008 0 1.617 1.211 3.117 2.891 3.117 0.742 0 1.516-0.156 2.016-0.742v0c0.242-0.273 0.477-0.57 0.648-0.906l0.656 1.187c-0.086 0.195-0.211 0.383-0.344 0.547l0.008 0.008c-0.789 0.914-1.867 1.187-3.031 1.187-2.359 0-4.125-2.086-4.125-4.383 0-2.227 1.937-4.297 4.188-4.297 3.734 0 3.922 3.234 5.188 5.836 0.344 0.719 0.93 1.563 1.82 1.563 0.813 0 1.531-0.523 1.531-1.383 0-1.859-3.414-0.594-3.898-3.648-0.016-0.086-0.023-0.172-0.023-0.258 0-1.156 1.086-2.148 2.234-2.109 0.688 0.023 1.102 0.047 1.648 0.531h-0.008c0.211 0.195 0.367 0.461 0.531 0.688l-1.008 0.773c-0.117-0.219-0.227-0.398-0.422-0.547v-0.008c-0.187-0.172-0.523-0.164-0.758-0.164-0.508 0-0.93 0.383-0.93 0.906z"></path>
</svg>
