<!-- Generated by IcoMoon.io -->
<svg version="1.1" xmlns="http://www.w3.org/2000/svg" width="12" height="14" viewBox="0 0 12 14">
<title>lastfm-square</title>
<path d="M11.188 8.219c0-1.102-0.891-1.602-1.828-1.867-0.43-0.117-0.781-0.219-0.937-0.688-0.008-0.039-0.047-0.187-0.047-0.219 0-0.375 0.297-0.648 0.664-0.648 0.172 0 0.414-0.008 0.555 0.117h-0.008c0.148 0.109 0.219 0.234 0.305 0.398l0.727-0.555c-0.117-0.164-0.234-0.359-0.383-0.5v0c-0.367-0.328-0.711-0.383-1.195-0.383-0.82 0-1.594 0.672-1.594 1.523 0 0.062 0.008 0.117 0.016 0.18 0.172 1.062 0.711 1.391 1.664 1.664 0.469 0.133 1.133 0.344 1.141 0.922v0.039c0.008 0.625-0.516 1-1.102 1-0.641 0-1.055-0.609-1.305-1.125-0.906-1.867-1.047-4.203-3.734-4.203-1.617 0-3.070 1.492-3.016 3.094v0.008c0.055 1.672 1.203 3.148 2.969 3.148 0.836 0 1.617-0.195 2.18-0.859v0c0.094-0.125 0.18-0.258 0.242-0.398l-0.469-0.852c-0.438 0.828-0.977 1.187-1.914 1.187-1.234 0-2.086-1.094-2.086-2.273 0-1.086 1-2.133 2.094-2.133 1.25 0 1.703 0.648 2.141 1.766 0.523 1.344 1.086 3.562 2.898 3.562 1.086 0 2.023-0.789 2.023-1.906zM12 3.25v7.5c0 1.242-1.008 2.25-2.25 2.25h-7.5c-1.242 0-2.25-1.008-2.25-2.25v-7.5c0-1.242 1.008-2.25 2.25-2.25h7.5c1.242 0 2.25 1.008 2.25 2.25z"></path>
</svg>
