<!-- Generated by IcoMoon.io -->
<svg version="1.1" xmlns="http://www.w3.org/2000/svg" width="14" height="14" viewBox="0 0 14 14">
<title>leaf</title>
<path d="M10 5.5c0-0.273-0.227-0.5-0.5-0.5-2.766 0-4.547 1.156-6.352 3.148-0.094 0.102-0.148 0.211-0.148 0.352 0 0.273 0.227 0.5 0.5 0.5 0.141 0 0.25-0.055 0.352-0.148 0.383-0.344 0.727-0.719 1.102-1.070 1.414-1.273 2.625-1.781 4.547-1.781 0.273 0 0.5-0.227 0.5-0.5zM14 3.953c0 0.5-0.055 1.008-0.156 1.508-0.5 2.43-2.062 4.008-4.234 5.086-1.055 0.531-2.234 0.844-3.422 0.844-0.75 0-1.523-0.125-2.234-0.367-0.375-0.125-1.125-0.617-1.438-0.617-0.391 0-0.859 1.594-1.539 1.594-0.492 0-0.641-0.242-0.852-0.602-0.070-0.133-0.125-0.18-0.125-0.344 0-0.813 1.547-1.445 1.547-1.898 0-0.070-0.203-0.484-0.234-0.641-0.047-0.266-0.070-0.539-0.070-0.813 0-2.484 1.977-4.258 4.195-4.992 1.602-0.531 5.008 0.086 6.094-0.945 0.43-0.398 0.641-0.766 1.297-0.766 0.883 0 1.172 2.289 1.172 2.953z"></path>
</svg>
