<!-- Generated by IcoMoon.io -->
<svg version="1.1" xmlns="http://www.w3.org/2000/svg" width="16" height="14" viewBox="0 0 16 14">
<title>leanpub</title>
<path d="M14.789 3.063l1.211 9.937c-0.727 0-1.352-0.148-2.008-0.445-0.977-0.445-1.992-0.711-3.070-0.711-1.109 0-2.133 0.367-2.922 1.156-0.789-0.789-1.812-1.156-2.922-1.156-1.078 0-2.094 0.266-3.070 0.711-0.633 0.281-1.273 0.445-1.969 0.445h-0.039l1.211-9.937c1.117-0.633 2.477-0.992 3.766-0.992 1.055 0 2.141 0.219 3.023 0.828 0.883-0.609 1.969-0.828 3.023-0.828 1.289 0 2.648 0.359 3.766 0.992zM10.922 10.773c1.484 0 2.5 0.398 3.844 0.953l-0.969-7.977c-0.875-0.398-1.914-0.609-2.875-0.609-1.094 0-2.117 0.344-2.922 1.102-0.805-0.758-1.828-1.102-2.922-1.102-0.961 0-2 0.211-2.875 0.609l-0.969 7.977c1.344-0.555 2.359-0.953 3.844-0.953 1.070 0 2.016 0.273 2.922 0.844 0.906-0.57 1.852-0.844 2.922-0.844zM11.234 10.508l-0.43-7.086c-1.125 0.023-2.016 0.406-2.805 1.211-0.82-0.836-1.75-1.211-2.922-1.211-0.875 0-1.812 0.18-2.625 0.516l-0.891 7.352c1.18-0.484 2.219-0.789 3.516-0.789 1.031 0 2.039 0.25 2.922 0.797 0.883-0.547 1.891-0.82 2.922-0.797z"></path>
</svg>
