<!-- Generated by IcoMoon.io -->
<svg version="1.1" xmlns="http://www.w3.org/2000/svg" width="12" height="14" viewBox="0 0 12 14">
<title>lemon-o</title>
<path d="M10.992 6.453c0-0.367-0.070-1.328-0.195-1.641-0.148-0.375-0.234-0.586-0.234-1.008 0-0.359 0.078-0.711 0.078-1.062 0-0.148-0.008-0.305-0.078-0.43-0.031-0.008-0.070-0.008-0.102-0.008-0.305 0-0.609 0.070-0.914 0.070-0.93 0-1.812-0.375-2.742-0.375-0.727 0-1.43 0.273-2.102 0.539-0.531 0.211-1.117 0.461-1.578 0.805-1.578 1.195-2.125 3.383-2.125 5.266 0 0.633 0.195 1.25 0.195 1.883 0 0.359-0.172 0.688-0.172 1.031 0 0.219 0.125 0.398 0.359 0.398 0.383 0 0.75-0.172 1.141-0.172 0.891 0 1.758 0.242 2.648 0.242 0.695 0 1.57-0.055 2.219-0.281 2.055-0.727 3.602-3.102 3.602-5.258zM11.992 6.437c0 2.602-1.805 5.344-4.273 6.219-0.773 0.273-1.734 0.344-2.547 0.344-0.891 0-1.766-0.227-2.648-0.227-0.375 0-0.75 0.227-1.141 0.227-0.773 0-1.359-0.695-1.359-1.438 0-0.367 0.172-0.695 0.172-1.055 0-0.633-0.195-1.25-0.195-1.891 0-2.219 0.68-4.672 2.523-6.070 0.531-0.406 1.195-0.695 1.812-0.937 0.797-0.32 1.602-0.609 2.469-0.609 0.93 0 1.812 0.375 2.727 0.375 0.297 0 0.594-0.078 0.898-0.078 0.891 0 1.211 0.633 1.211 1.445 0 0.352-0.078 0.711-0.078 1.062 0 0.281 0.070 0.391 0.164 0.641 0.18 0.453 0.266 1.492 0.266 1.992z"></path>
</svg>
