<!-- Generated by IcoMoon.io -->
<svg version="1.1" xmlns="http://www.w3.org/2000/svg" width="8" height="14" viewBox="0 0 8 14">
<title>level-down</title>
<path d="M0.25 2h5.5c0.141 0 0.25 0.117 0.25 0.258v6.742h1.5c0.195 0 0.367 0.117 0.453 0.289 0.086 0.18 0.055 0.391-0.070 0.539l-2.5 3c-0.187 0.227-0.578 0.227-0.766 0l-2.5-3c-0.125-0.148-0.148-0.359-0.070-0.539 0.086-0.172 0.258-0.289 0.453-0.289h1.5v-5h-2.5c-0.070 0-0.141-0.031-0.195-0.086l-1.25-1.5c-0.062-0.070-0.070-0.18-0.031-0.266s0.133-0.148 0.227-0.148z"></path>
</svg>
