<!-- Generated by IcoMoon.io -->
<svg version="1.1" xmlns="http://www.w3.org/2000/svg" width="8" height="14" viewBox="0 0 8 14">
<title>level-up</title>
<path d="M7.953 4.711c-0.086 0.18-0.258 0.289-0.453 0.289h-1.5v6.75c0 0.141-0.109 0.25-0.25 0.25h-5.5c-0.094 0-0.187-0.055-0.227-0.141-0.039-0.094-0.031-0.195 0.031-0.273l1.25-1.5c0.047-0.055 0.125-0.086 0.195-0.086h2.5v-5h-1.5c-0.195 0-0.367-0.109-0.453-0.289-0.078-0.172-0.055-0.383 0.070-0.531l2.5-3c0.187-0.227 0.578-0.227 0.766 0l2.5 3c0.125 0.148 0.156 0.359 0.070 0.531z"></path>
</svg>
