<!-- Generated by IcoMoon.io -->
<svg version="1.1" xmlns="http://www.w3.org/2000/svg" width="14" height="14" viewBox="0 0 14 14">
<title>life-bouy</title>
<path d="M7 0c3.867 0 7 3.133 7 7s-3.133 7-7 7-7-3.133-7-7 3.133-7 7-7zM7 1c-1.016 0-1.977 0.258-2.82 0.703l1.516 1.516c0.414-0.141 0.852-0.219 1.305-0.219 0.461 0 0.891 0.078 1.305 0.219l1.516-1.516c-0.844-0.445-1.805-0.703-2.82-0.703zM1.703 9.82l1.516-1.516c-0.141-0.414-0.219-0.852-0.219-1.305 0-0.461 0.078-0.891 0.219-1.305l-1.516-1.516c-0.445 0.844-0.703 1.805-0.703 2.82s0.258 1.977 0.703 2.82zM7 13c1.016 0 1.977-0.258 2.82-0.703l-1.516-1.516c-0.414 0.141-0.844 0.219-1.305 0.219-0.453 0-0.891-0.078-1.305-0.219l-1.516 1.516c0.844 0.445 1.805 0.703 2.82 0.703zM7 10c1.656 0 3-1.344 3-3s-1.344-3-3-3-3 1.344-3 3 1.344 3 3 3zM10.781 8.305l1.516 1.516c0.445-0.844 0.703-1.805 0.703-2.82s-0.258-1.977-0.703-2.82l-1.516 1.516c0.141 0.414 0.219 0.852 0.219 1.305s-0.078 0.891-0.219 1.305z"></path>
</svg>
