<!-- Generated by IcoMoon.io -->
<svg version="1.1" xmlns="http://www.w3.org/2000/svg" width="8" height="14" viewBox="0 0 8 14">
<title>lightbulb-o</title>
<path d="M5.75 4.5c0 0.133-0.117 0.25-0.25 0.25s-0.25-0.117-0.25-0.25c0-0.539-0.836-0.75-1.25-0.75-0.133 0-0.25-0.117-0.25-0.25s0.117-0.25 0.25-0.25c0.727 0 1.75 0.383 1.75 1.25zM7 4.5c0-1.563-1.586-2.5-3-2.5s-3 0.937-3 2.5c0 0.5 0.203 1.023 0.531 1.406 0.148 0.172 0.32 0.336 0.477 0.516 0.555 0.664 1.023 1.445 1.102 2.328h1.781c0.078-0.883 0.547-1.664 1.102-2.328 0.156-0.18 0.328-0.344 0.477-0.516 0.328-0.383 0.531-0.906 0.531-1.406zM8 4.5c0 0.805-0.266 1.5-0.805 2.094s-1.25 1.43-1.313 2.266c0.227 0.133 0.367 0.383 0.367 0.641 0 0.187-0.070 0.367-0.195 0.5 0.125 0.133 0.195 0.312 0.195 0.5 0 0.258-0.133 0.492-0.352 0.633 0.062 0.109 0.102 0.242 0.102 0.367 0 0.508-0.398 0.75-0.852 0.75-0.203 0.453-0.656 0.75-1.148 0.75s-0.945-0.297-1.148-0.75c-0.453 0-0.852-0.242-0.852-0.75 0-0.125 0.039-0.258 0.102-0.367-0.219-0.141-0.352-0.375-0.352-0.633 0-0.187 0.070-0.367 0.195-0.5-0.125-0.133-0.195-0.312-0.195-0.5 0-0.258 0.141-0.508 0.367-0.641-0.062-0.836-0.773-1.672-1.313-2.266s-0.805-1.289-0.805-2.094c0-2.125 2.023-3.5 4-3.5s4 1.375 4 3.5z"></path>
</svg>
