<!-- Generated by IcoMoon.io -->
<svg version="1.1" xmlns="http://www.w3.org/2000/svg" width="12" height="14" viewBox="0 0 12 14">
<title>linkedin-square</title>
<path d="M1.852 11.047h1.805v-5.422h-1.805v5.422zM3.773 3.953c-0.008-0.531-0.391-0.937-1.008-0.937s-1.023 0.406-1.023 0.937c0 0.516 0.391 0.937 1 0.937h0.008c0.633 0 1.023-0.422 1.023-0.937zM8.344 11.047h1.805v-3.109c0-1.664-0.891-2.438-2.078-2.438-0.969 0-1.398 0.539-1.633 0.914h0.016v-0.789h-1.805s0.023 0.508 0 5.422v0h1.805v-3.031c0-0.156 0.008-0.32 0.055-0.438 0.133-0.32 0.43-0.656 0.93-0.656 0.648 0 0.906 0.492 0.906 1.227v2.898zM12 3.25v7.5c0 1.242-1.008 2.25-2.25 2.25h-7.5c-1.242 0-2.25-1.008-2.25-2.25v-7.5c0-1.242 1.008-2.25 2.25-2.25h7.5c1.242 0 2.25 1.008 2.25 2.25z"></path>
</svg>
