<!-- Generated by IcoMoon.io -->
<svg version="1.1" xmlns="http://www.w3.org/2000/svg" width="12" height="14" viewBox="0 0 12 14">
<title>linkedin</title>
<path d="M2.727 4.883v7.742h-2.578v-7.742h2.578zM2.891 2.492c0.008 0.742-0.555 1.336-1.453 1.336v0h-0.016c-0.867 0-1.422-0.594-1.422-1.336 0-0.758 0.578-1.336 1.453-1.336 0.883 0 1.43 0.578 1.438 1.336zM12 8.187v4.437h-2.57v-4.141c0-1.039-0.375-1.75-1.305-1.75-0.711 0-1.133 0.477-1.32 0.937-0.062 0.172-0.086 0.398-0.086 0.633v4.32h-2.57c0.031-7.016 0-7.742 0-7.742h2.57v1.125h-0.016c0.336-0.531 0.945-1.305 2.336-1.305 1.695 0 2.961 1.109 2.961 3.484z"></path>
</svg>
