<!-- Generated by IcoMoon.io -->
<svg version="1.1" xmlns="http://www.w3.org/2000/svg" width="12" height="14" viewBox="0 0 12 14">
<title>linode</title>
<path d="M2.578 11.992l1.578 1.672-0.266-1.844-1.688-1.664zM4.344 13.758l2.141-1.703-0.086-1.914-2.344 1.68zM1.914 8.773l1.773 1.664-0.375-2.555-1.914-1.594zM3.867 10.523l2.477-1.672-0.109-2.531-2.75 1.563zM6.586 10.609l0.742 0.625-0.016-1.867-0.805-0.617c0 0.062 0.031 0.172-0.031 0.219l-0.609 0.406 0.664 0.547c0.078 0.062 0.055 0.594 0.055 0.688zM1.078 4.734l2 1.563-0.531-3.633-2.18-1.352zM9.164 9.914l0.117-1.828-1.797 1.281 0.016 1.875zM3.258 6.359l2.914-1.516-0.148-3.445-3.305 1.273zM9.922 9.211l0.156-1.82-1.766-1.109-0.016 0.82 1.125 0.742c0.023 0.016 0.039 0.047 0.031 0.070l-0.055 0.93zM11.414 8.125l0.234-1.734-1.398 1-0.156 1.781zM9.945 9.43l-0.555-0.383-0.062 0.914c0 0.023-0.008 0.047-0.031 0.062l-1.828 1.461c-0.031 0.023-0.078 0.023-0.109 0l-0.766-0.648 0.055 1.258c0 0.023-0.008 0.047-0.031 0.062l-2.289 1.828c-0.016 0.008-0.031 0.016-0.047 0.016-0.023-0.008-0.047-0.008-0.062-0.023l-1.781-1.891c-0.039-0.039-0.422-1.969-0.461-2.164-0.008-0.031 0.016-0.070 0.039-0.086l0.477-0.289c-0.094-0.086-0.727-0.641-0.742-0.719l-0.563-2.742c-0.008-0.031 0.008-0.070 0.047-0.094l0.734-0.352c-0.125-0.094-1.031-0.75-1.055-0.844l-0.75-3.641c-0.008-0.047 0.016-0.086 0.055-0.102l3.383-1.055c0.016 0 0.039 0 0.062 0.008l2.477 1.195c0.023 0.016 0.047 0.047 0.047 0.070l0.156 3.617c0 0.031-0.016 0.062-0.047 0.078l-0.922 0.477 0.984 0.664c0.023 0.008 0.039 0.039 0.039 0.062l0.039 0.961 0.945-0.578c0.023-0.016 0.062-0.016 0.086 0l0.656 0.438 0.023-0.859c0-0.023 0.016-0.055 0.039-0.070l1.609-0.984c0.031-0.016 0.062-0.016 0.086 0l1.914 1.055c0.016 0.016 0.031 0.031 0.039 0.055 0.016 0.055-0.242 1.812-0.266 1.992 0 0.023-0.016 0.047-0.031 0.055l-1.492 1.195c-0.031 0.023-0.070 0.023-0.102 0z"></path>
</svg>
