<!-- Generated by IcoMoon.io -->
<svg version="1.1" xmlns="http://www.w3.org/2000/svg" width="13" height="14" viewBox="0 0 13 14">
<title>linux</title>
<path d="M5.18 3.211v0c-0.156 0.016-0.102 0.156-0.187 0.156-0.078 0.008-0.062-0.172 0.187-0.156zM5.859 3.32c-0.078 0.023-0.086-0.125-0.227-0.086v0c0.227-0.102 0.305 0.055 0.227 0.086zM3.117 6.656c-0.070-0.023-0.055 0.117-0.125 0.227-0.055 0.102-0.195 0.18-0.086 0.195v0c0.039 0.008 0.148-0.086 0.195-0.195 0.039-0.133 0.078-0.203 0.016-0.227zM9.797 9.461c0-0.141-0.305-0.273-0.43-0.328 0.211-0.703 0.117-0.984-0.023-1.648-0.109-0.5-0.57-1.18-0.93-1.391 0.094 0.078 0.266 0.305 0.445 0.648 0.312 0.586 0.625 1.453 0.422 2.172-0.078 0.281-0.266 0.32-0.391 0.328-0.547 0.062-0.227-0.656-0.453-1.633-0.258-1.094-0.523-1.172-0.586-1.258-0.32-1.422-0.672-1.281-0.773-1.812-0.086-0.477 0.414-0.867-0.266-1-0.211-0.039-0.508-0.25-0.625-0.266s-0.18-0.789 0.258-0.813c0.43-0.031 0.508 0.484 0.43 0.688-0.125 0.203 0.008 0.281 0.219 0.211 0.172-0.055 0.062-0.508 0.102-0.57-0.109-0.656-0.383-0.75-0.664-0.805-1.078 0.086-0.594 1.273-0.703 1.164-0.156-0.164-0.609-0.016-0.609-0.117 0.008-0.609-0.195-0.961-0.477-0.969-0.312-0.008-0.438 0.43-0.453 0.68-0.023 0.234 0.133 0.727 0.25 0.688 0.078-0.023 0.211-0.18 0.070-0.172-0.070 0-0.18-0.172-0.195-0.375-0.008-0.203 0.070-0.406 0.336-0.398 0.305 0.008 0.305 0.617 0.273 0.641-0.102 0.070-0.227 0.203-0.242 0.227-0.102 0.164-0.297 0.211-0.375 0.281-0.133 0.141-0.164 0.297-0.062 0.352 0.359 0.203 0.242 0.438 0.742 0.453 0.328 0.016 0.57-0.047 0.797-0.117 0.172-0.055 0.727-0.172 0.844-0.375 0.055-0.086 0.117-0.086 0.156-0.062 0.078 0.039 0.094 0.187-0.102 0.234-0.273 0.078-0.547 0.227-0.797 0.32-0.242 0.102-0.32 0.141-0.547 0.18-0.516 0.094-0.898-0.187-0.555 0.148 0.117 0.109 0.227 0.18 0.523 0.172 0.656-0.023 1.383-0.813 1.453-0.461 0.016 0.078-0.203 0.172-0.375 0.258-0.609 0.297-1.039 0.891-1.43 0.688-0.352-0.187-0.703-1.055-0.695-0.664 0.008 0.602-0.789 1.133-0.422 1.82-0.242 0.062-0.781 1.211-0.859 1.805-0.047 0.344 0.031 0.766-0.055 1-0.117 0.344-0.648-0.328-0.477-1.148 0.031-0.141 0-0.172-0.039-0.102-0.211 0.383-0.094 0.922 0.078 1.297 0.070 0.164 0.25 0.234 0.383 0.375 0.273 0.312 1.352 1.109 1.539 1.305 0.242 0.227 0.172 0.758-0.328 0.813v0c0.258 0.484 0.508 0.531 0.5 1.32 0.297-0.156 0.18-0.5 0.055-0.719-0.086-0.156-0.195-0.227-0.172-0.266 0.016-0.023 0.172-0.156 0.258-0.055 0.266 0.297 0.766 0.352 1.297 0.281 0.539-0.062 1.117-0.25 1.383-0.68 0.125-0.203 0.211-0.273 0.266-0.234 0.062 0.031 0.086 0.172 0.078 0.406-0.008 0.25-0.109 0.508-0.18 0.719-0.070 0.242-0.094 0.406 0.141 0.414 0.062-0.438 0.187-0.867 0.219-1.305 0.039-0.5-0.32-1.422 0.070-1.883 0.102-0.125 0.227-0.141 0.398-0.141 0.023-0.625 0.984-0.578 1.305-0.32zM4.891 3c0.031-0.195-0.062-0.336-0.109-0.352-0.094-0.023-0.078 0.117-0.031 0.102v0c0.031 0 0.070 0.047 0.055 0.117-0.016 0.094-0.008 0.156 0.062 0.156 0.008 0 0.023 0 0.023-0.023zM8.164 4.539c-0.031-0.148-0.141-0.094-0.266-0.172-0.148-0.094-0.18-0.25-0.234-0.195v0c-0.164 0.18 0.203 0.555 0.359 0.586 0.094 0.016 0.164-0.109 0.141-0.219zM6.773 2.875c0.008-0.187-0.156-0.281-0.195-0.273-0.102 0.008-0.070 0.055-0.023 0.070v0c0.062 0.016 0.125 0.125 0.141 0.242 0 0.016 0.078-0.016 0.078-0.039zM7.195 1.055c0.008-0.039-0.094-0.086-0.164-0.141-0.062-0.062-0.125-0.117-0.187-0.117-0.156 0.016-0.078 0.18-0.102 0.258v0c-0.031 0.086-0.148 0.156-0.070 0.219 0.070 0.055 0.117-0.086 0.266-0.141 0.039-0.016 0.219 0.008 0.258-0.078zM11.609 11.531c0.961 0.594-0.359 1.086-0.93 1.375-0.445 0.227-1.039 0.727-1.258 0.937-0.164 0.156-0.844 0.234-1.227 0.039-0.445-0.227-0.211-0.586-0.898-0.609-0.344-0.008-0.68-0.008-1.016-0.008-0.297 0.008-0.594 0.023-0.898 0.031-1.031 0.023-1.133 0.688-1.797 0.664-0.453-0.016-1.023-0.375-2.008-0.578-0.688-0.141-1.352-0.18-1.492-0.484s0.172-0.648 0.195-0.945c0.023-0.398-0.297-0.937-0.062-1.141 0.203-0.18 0.633-0.047 0.914-0.203 0.297-0.172 0.422-0.305 0.422-0.672 0.109 0.375-0.008 0.68-0.25 0.828-0.148 0.094-0.422 0.141-0.648 0.117-0.18-0.016-0.289 0.008-0.336 0.078-0.070 0.086-0.047 0.242 0.039 0.445s0.187 0.336 0.172 0.586c-0.008 0.25-0.289 0.547-0.242 0.758 0.016 0.078 0.094 0.148 0.289 0.203 0.312 0.086 0.883 0.172 1.438 0.305 0.617 0.156 1.258 0.438 1.656 0.383 1.187-0.164 0.508-1.438 0.32-1.742v0c-1.008-1.578-1.672-2.609-2.203-2.203-0.133 0.109-0.141-0.266-0.133-0.414 0.023-0.516 0.281-0.703 0.437-1.102 0.297-0.758 0.523-1.625 0.977-2.070 0.336-0.438 0.867-1.148 0.969-1.523-0.086-0.813-0.109-1.672-0.125-2.422-0.016-0.805 0.109-1.508 1.016-2 0.219-0.117 0.508-0.164 0.813-0.164 0.539-0.008 1.141 0.148 1.523 0.43 0.609 0.453 0.992 1.414 0.945 2.102-0.031 0.539 0.062 1.094 0.234 1.672 0.203 0.68 0.523 1.156 1.039 1.703 0.617 0.656 1.102 1.945 1.242 2.766 0.125 0.766-0.047 1.242-0.211 1.266-0.25 0.039-0.406 0.828-1.187 0.797-0.5-0.023-0.547-0.32-0.688-0.578-0.227-0.398-0.453-0.273-0.539 0.148-0.047 0.211-0.016 0.523 0.055 0.758 0.141 0.492 0.094 0.953 0.008 1.523-0.164 1.078 0.758 1.281 1.375 0.766 0.609-0.508 0.742-0.586 1.508-0.852 1.164-0.398 0.773-0.75 0.148-0.961-0.563-0.187-0.586-1.133-0.383-1.313 0.047 1.016 0.578 1.164 0.797 1.305z"></path>
</svg>
