<!-- Generated by IcoMoon.io -->
<svg version="1.1" xmlns="http://www.w3.org/2000/svg" width="14" height="14" viewBox="0 0 14 14">
<title>list-ul</title>
<path d="M3 11c0 0.828-0.672 1.5-1.5 1.5s-1.5-0.672-1.5-1.5 0.672-1.5 1.5-1.5 1.5 0.672 1.5 1.5zM3 7c0 0.828-0.672 1.5-1.5 1.5s-1.5-0.672-1.5-1.5 0.672-1.5 1.5-1.5 1.5 0.672 1.5 1.5zM14 10.25v1.5c0 0.133-0.117 0.25-0.25 0.25h-9.5c-0.133 0-0.25-0.117-0.25-0.25v-1.5c0-0.133 0.117-0.25 0.25-0.25h9.5c0.133 0 0.25 0.117 0.25 0.25zM3 3c0 0.828-0.672 1.5-1.5 1.5s-1.5-0.672-1.5-1.5 0.672-1.5 1.5-1.5 1.5 0.672 1.5 1.5zM14 6.25v1.5c0 0.133-0.117 0.25-0.25 0.25h-9.5c-0.133 0-0.25-0.117-0.25-0.25v-1.5c0-0.133 0.117-0.25 0.25-0.25h9.5c0.133 0 0.25 0.117 0.25 0.25zM14 2.25v1.5c0 0.133-0.117 0.25-0.25 0.25h-9.5c-0.133 0-0.25-0.117-0.25-0.25v-1.5c0-0.133 0.117-0.25 0.25-0.25h9.5c0.133 0 0.25 0.117 0.25 0.25z"></path>
</svg>
