<!-- Generated by IcoMoon.io -->
<svg version="1.1" xmlns="http://www.w3.org/2000/svg" width="14" height="14" viewBox="0 0 14 14">
<title>list</title>
<path d="M2 10.25v1.5c0 0.133-0.117 0.25-0.25 0.25h-1.5c-0.133 0-0.25-0.117-0.25-0.25v-1.5c0-0.133 0.117-0.25 0.25-0.25h1.5c0.133 0 0.25 0.117 0.25 0.25zM2 7.25v1.5c0 0.133-0.117 0.25-0.25 0.25h-1.5c-0.133 0-0.25-0.117-0.25-0.25v-1.5c0-0.133 0.117-0.25 0.25-0.25h1.5c0.133 0 0.25 0.117 0.25 0.25zM2 4.25v1.5c0 0.133-0.117 0.25-0.25 0.25h-1.5c-0.133 0-0.25-0.117-0.25-0.25v-1.5c0-0.133 0.117-0.25 0.25-0.25h1.5c0.133 0 0.25 0.117 0.25 0.25zM14 10.25v1.5c0 0.133-0.117 0.25-0.25 0.25h-10.5c-0.133 0-0.25-0.117-0.25-0.25v-1.5c0-0.133 0.117-0.25 0.25-0.25h10.5c0.133 0 0.25 0.117 0.25 0.25zM2 1.25v1.5c0 0.133-0.117 0.25-0.25 0.25h-1.5c-0.133 0-0.25-0.117-0.25-0.25v-1.5c0-0.133 0.117-0.25 0.25-0.25h1.5c0.133 0 0.25 0.117 0.25 0.25zM14 7.25v1.5c0 0.133-0.117 0.25-0.25 0.25h-10.5c-0.133 0-0.25-0.117-0.25-0.25v-1.5c0-0.133 0.117-0.25 0.25-0.25h10.5c0.133 0 0.25 0.117 0.25 0.25zM14 4.25v1.5c0 0.133-0.117 0.25-0.25 0.25h-10.5c-0.133 0-0.25-0.117-0.25-0.25v-1.5c0-0.133 0.117-0.25 0.25-0.25h10.5c0.133 0 0.25 0.117 0.25 0.25zM14 1.25v1.5c0 0.133-0.117 0.25-0.25 0.25h-10.5c-0.133 0-0.25-0.117-0.25-0.25v-1.5c0-0.133 0.117-0.25 0.25-0.25h10.5c0.133 0 0.25 0.117 0.25 0.25z"></path>
</svg>
