<!-- Generated by IcoMoon.io -->
<svg version="1.1" xmlns="http://www.w3.org/2000/svg" width="14" height="14" viewBox="0 0 14 14">
<title>list-ol</title>
<path d="M2.977 12.656c0 0.859-0.672 1.344-1.484 1.344-0.492 0-0.992-0.164-1.344-0.516l0.445-0.688c0.211 0.195 0.531 0.352 0.828 0.352 0.273 0 0.563-0.133 0.563-0.445 0-0.438-0.5-0.461-0.82-0.438l-0.203-0.438c0.281-0.359 0.539-0.758 0.875-1.062v-0.008c-0.25 0-0.508 0.016-0.758 0.016v0.414h-0.828v-1.187h2.602v0.688l-0.742 0.898c0.523 0.125 0.867 0.531 0.867 1.070zM2.992 7.758v1.242h-2.828c-0.023-0.141-0.047-0.281-0.047-0.422 0-1.445 1.766-1.664 1.766-2.32 0-0.266-0.164-0.406-0.422-0.406-0.273 0-0.5 0.234-0.633 0.453l-0.664-0.461c0.258-0.539 0.789-0.844 1.383-0.844 0.727 0 1.352 0.43 1.352 1.203 0 1.156-1.695 1.414-1.719 2.023h0.992v-0.469h0.82zM14 10.25v1.5c0 0.133-0.117 0.25-0.25 0.25h-9.5c-0.141 0-0.25-0.117-0.25-0.25v-1.5c0-0.141 0.109-0.25 0.25-0.25h9.5c0.133 0 0.25 0.109 0.25 0.25zM3 3.227v0.773h-2.617v-0.773h0.836c0-0.633 0.008-1.266 0.008-1.898v-0.094h-0.016c-0.086 0.172-0.242 0.289-0.391 0.422l-0.555-0.594 1.062-0.992h0.828v3.156h0.844zM14 6.25v1.5c0 0.133-0.117 0.25-0.25 0.25h-9.5c-0.141 0-0.25-0.117-0.25-0.25v-1.5c0-0.141 0.109-0.25 0.25-0.25h9.5c0.133 0 0.25 0.109 0.25 0.25zM14 2.25v1.5c0 0.133-0.117 0.25-0.25 0.25h-9.5c-0.141 0-0.25-0.117-0.25-0.25v-1.5c0-0.133 0.109-0.25 0.25-0.25h9.5c0.133 0 0.25 0.117 0.25 0.25z"></path>
</svg>
