<!-- Generated by IcoMoon.io -->
<svg version="1.1" xmlns="http://www.w3.org/2000/svg" width="14" height="14" viewBox="0 0 14 14">
<title>list-alt</title>
<path d="M3 9.25v0.5c0 0.133-0.117 0.25-0.25 0.25h-0.5c-0.133 0-0.25-0.117-0.25-0.25v-0.5c0-0.133 0.117-0.25 0.25-0.25h0.5c0.133 0 0.25 0.117 0.25 0.25zM3 7.25v0.5c0 0.133-0.117 0.25-0.25 0.25h-0.5c-0.133 0-0.25-0.117-0.25-0.25v-0.5c0-0.133 0.117-0.25 0.25-0.25h0.5c0.133 0 0.25 0.117 0.25 0.25zM3 5.25v0.5c0 0.133-0.117 0.25-0.25 0.25h-0.5c-0.133 0-0.25-0.117-0.25-0.25v-0.5c0-0.133 0.117-0.25 0.25-0.25h0.5c0.133 0 0.25 0.117 0.25 0.25zM12 9.25v0.5c0 0.133-0.117 0.25-0.25 0.25h-7.5c-0.133 0-0.25-0.117-0.25-0.25v-0.5c0-0.133 0.117-0.25 0.25-0.25h7.5c0.133 0 0.25 0.117 0.25 0.25zM12 7.25v0.5c0 0.133-0.117 0.25-0.25 0.25h-7.5c-0.133 0-0.25-0.117-0.25-0.25v-0.5c0-0.133 0.117-0.25 0.25-0.25h7.5c0.133 0 0.25 0.117 0.25 0.25zM12 5.25v0.5c0 0.133-0.117 0.25-0.25 0.25h-7.5c-0.133 0-0.25-0.117-0.25-0.25v-0.5c0-0.133 0.117-0.25 0.25-0.25h7.5c0.133 0 0.25 0.117 0.25 0.25zM13 10.75v-6.5c0-0.133-0.117-0.25-0.25-0.25h-11.5c-0.133 0-0.25 0.117-0.25 0.25v6.5c0 0.133 0.117 0.25 0.25 0.25h11.5c0.133 0 0.25-0.117 0.25-0.25zM14 2.25v8.5c0 0.688-0.563 1.25-1.25 1.25h-11.5c-0.688 0-1.25-0.563-1.25-1.25v-8.5c0-0.688 0.563-1.25 1.25-1.25h11.5c0.688 0 1.25 0.563 1.25 1.25z"></path>
</svg>
