<!-- Generated by IcoMoon.io -->
<svg version="1.1" xmlns="http://www.w3.org/2000/svg" width="13" height="14" viewBox="0 0 13 14">
<title>long-arrow-right</title>
<path d="M13.5 6.977c0 0.070-0.031 0.141-0.078 0.187l-3 2.766c-0.078 0.070-0.18 0.086-0.273 0.047-0.086-0.039-0.148-0.125-0.148-0.227v-1.75h-9.75c-0.141 0-0.25-0.109-0.25-0.25v-1.5c0-0.141 0.109-0.25 0.25-0.25h9.75v-1.75c0-0.102 0.055-0.187 0.148-0.227s0.195-0.023 0.273 0.039l3 2.734c0.047 0.047 0.078 0.109 0.078 0.18v0z"></path>
</svg>
