<!-- Generated by IcoMoon.io -->
<svg version="1.1" xmlns="http://www.w3.org/2000/svg" width="14" height="14" viewBox="0 0 14 14">
<title>low-vision</title>
<path d="M2.617 10.594c-0.016 0-0.031-0.008-0.047-0.016-0.914-0.609-1.828-1.609-2.406-2.539-0.109-0.156-0.164-0.344-0.164-0.539 0-0.406 0.281-0.734 0.508-1.039 0.906-1.234 2.117-2.25 3.531-2.852-0.117-0.211-0.859-1.508-0.859-1.648 0-0.094 0.055-0.18 0.133-0.227 0.156-0.086 0.859-0.5 1-0.5 0.086 0 0.172 0.047 0.219 0.125l0.969 1.789c0.492-0.102 1-0.148 1.5-0.148 2.828 0 5.344 1.602 6.844 3.961 0.102 0.156 0.156 0.344 0.156 0.539s-0.055 0.383-0.156 0.539c-0.93 1.461-2.289 2.672-3.883 3.352 0.117 0.211 0.859 1.508 0.859 1.648 0 0.094-0.047 0.18-0.133 0.227-0.156 0.086-0.859 0.5-0.992 0.5-0.094 0-0.18-0.047-0.227-0.125l-0.969-1.789-0.5-0.93-3.469-6.406 0.055-0.055c-0.266 0.109-0.523 0.227-0.773 0.367 0.094 0.18 3.82 7.023 3.82 7.078 0 0.039-0.031 0.062-0.070 0.070-0.172 0.039-0.391 0.023-0.563 0.023-0.086 0-0.438 0.016-0.469-0.055l-3.562-6.57c-0.227 0.164-0.438 0.344-0.641 0.531 0.172 0.305 3.156 5.797 3.156 5.844 0 0.062-0.039 0.078-0.086 0.078-0.133 0-1.172-0.32-1.211-0.391l-0.828-1.539-1.75-3.227c-0.219 0.266-0.422 0.539-0.609 0.828 0.102 0.148 0.234 0.305 0.32 0.461 0.109 0.203 1.375 2.508 1.375 2.555 0 0.039-0.039 0.078-0.078 0.078zM9.102 9.797l0.383 0.711c1.461-0.594 2.664-1.688 3.516-3.008-0.867-1.336-2.102-2.445-3.586-3.039 0.695 0.664 1.086 1.578 1.086 2.539 0 1.102-0.516 2.141-1.398 2.797zM6.625 5c0 0.203 0.172 0.375 0.375 0.375 0.43 0 0.844 0.172 1.148 0.477s0.477 0.719 0.477 1.148c0 0.203 0.172 0.375 0.375 0.375s0.375-0.172 0.375-0.375c0-1.313-1.062-2.375-2.375-2.375-0.203 0-0.375 0.172-0.375 0.375zM9.484 4.492l-0.070-0.031 0.055 0.055z"></path>
</svg>
