<!-- Generated by IcoMoon.io -->
<svg version="1.1" xmlns="http://www.w3.org/2000/svg" width="12" height="14" viewBox="0 0 12 14">
<title>magnet</title>
<path d="M12 6.5v1c0 3.188-2.523 5.5-6 5.5s-6-2.313-6-5.5v-1c0-0.273 0.227-0.5 0.5-0.5h3c0.273 0 0.5 0.227 0.5 0.5v1c0 1.43 1.664 1.5 2 1.5s2-0.070 2-1.5v-1c0-0.273 0.227-0.5 0.5-0.5h3c0.273 0 0.5 0.227 0.5 0.5zM4 1.5v3c0 0.273-0.227 0.5-0.5 0.5h-3c-0.273 0-0.5-0.227-0.5-0.5v-3c0-0.273 0.227-0.5 0.5-0.5h3c0.273 0 0.5 0.227 0.5 0.5zM12 1.5v3c0 0.273-0.227 0.5-0.5 0.5h-3c-0.273 0-0.5-0.227-0.5-0.5v-3c0-0.273 0.227-0.5 0.5-0.5h3c0.273 0 0.5 0.227 0.5 0.5z"></path>
</svg>
