<!-- Generated by IcoMoon.io -->
<svg version="1.1" xmlns="http://www.w3.org/2000/svg" width="14" height="14" viewBox="0 0 14 14">
<title>mail-reply</title>
<path d="M14 8.75c0 1.094-0.547 2.523-0.992 3.523-0.086 0.18-0.172 0.43-0.289 0.594-0.055 0.078-0.109 0.133-0.219 0.133-0.156 0-0.25-0.125-0.25-0.273 0-0.125 0.031-0.266 0.039-0.391 0.023-0.32 0.039-0.641 0.039-0.961 0-3.727-2.211-4.375-5.578-4.375h-1.75v2c0 0.273-0.227 0.5-0.5 0.5-0.133 0-0.258-0.055-0.352-0.148l-4-4c-0.094-0.094-0.148-0.219-0.148-0.352s0.055-0.258 0.148-0.352l4-4c0.094-0.094 0.219-0.148 0.352-0.148 0.273 0 0.5 0.227 0.5 0.5v2h1.75c2.563 0 5.75 0.453 6.836 3.148 0.328 0.828 0.414 1.727 0.414 2.602z"></path>
</svg>
