<!-- Generated by IcoMoon.io -->
<svg version="1.1" xmlns="http://www.w3.org/2000/svg" width="14" height="14" viewBox="0 0 14 14">
<title>mail-reply-all</title>
<path d="M5 8.453v0.547c0 0.203-0.125 0.383-0.305 0.461-0.062 0.023-0.133 0.039-0.195 0.039-0.133 0-0.258-0.047-0.352-0.148l-4-4c-0.195-0.195-0.195-0.508 0-0.703l4-4c0.141-0.148 0.359-0.187 0.547-0.109 0.18 0.078 0.305 0.258 0.305 0.461v0.539l-3.102 3.109c-0.195 0.195-0.195 0.508 0 0.703zM14 8.75c0 1.625-1.227 4.016-1.281 4.117-0.039 0.086-0.125 0.133-0.219 0.133-0.023 0-0.047 0-0.070-0.008-0.117-0.039-0.187-0.148-0.18-0.266 0.227-2.133-0.039-3.539-0.828-4.414-0.664-0.742-1.742-1.141-3.422-1.273v1.961c0 0.203-0.125 0.383-0.305 0.461-0.062 0.023-0.133 0.039-0.195 0.039-0.133 0-0.258-0.047-0.352-0.148l-4-4c-0.195-0.195-0.195-0.508 0-0.703l4-4c0.141-0.148 0.359-0.187 0.547-0.109 0.18 0.078 0.305 0.258 0.305 0.461v2.047c2.156 0.148 3.695 0.719 4.68 1.727 1.18 1.211 1.32 2.852 1.32 3.977z"></path>
</svg>
