<!-- Generated by IcoMoon.io -->
<svg version="1.1" xmlns="http://www.w3.org/2000/svg" width="8" height="14" viewBox="0 0 8 14">
<title>male</title>
<path d="M8 5.5v3.25c0 0.414-0.336 0.75-0.75 0.75s-0.75-0.336-0.75-0.75v-2.75h-0.5v7.125c0 0.484-0.391 0.875-0.875 0.875s-0.875-0.391-0.875-0.875v-3.625h-0.5v3.625c0 0.484-0.391 0.875-0.875 0.875s-0.875-0.391-0.875-0.875v-7.125h-0.5v2.75c0 0.414-0.336 0.75-0.75 0.75s-0.75-0.336-0.75-0.75v-3.25c0-0.828 0.672-1.5 1.5-1.5h5c0.828 0 1.5 0.672 1.5 1.5zM5.75 2c0 0.969-0.781 1.75-1.75 1.75s-1.75-0.781-1.75-1.75 0.781-1.75 1.75-1.75 1.75 0.781 1.75 1.75z"></path>
</svg>
