<!-- Generated by IcoMoon.io -->
<svg version="1.1" xmlns="http://www.w3.org/2000/svg" width="14" height="14" viewBox="0 0 14 14">
<title>map-signs</title>
<path d="M13.633 2.32c0.102 0.102 0.102 0.258 0 0.359l-1.102 1.102c-0.141 0.141-0.336 0.219-0.531 0.219h-10.5c-0.273 0-0.5-0.227-0.5-0.5v-2c0-0.273 0.227-0.5 0.5-0.5h4.5v-0.5c0-0.273 0.227-0.5 0.5-0.5h1c0.273 0 0.5 0.227 0.5 0.5v0.5h4c0.195 0 0.391 0.078 0.531 0.219zM6 9.5h2v4c0 0.273-0.227 0.5-0.5 0.5h-1c-0.273 0-0.5-0.227-0.5-0.5v-4zM12.5 6c0.273 0 0.5 0.227 0.5 0.5v2c0 0.273-0.227 0.5-0.5 0.5h-10.5c-0.195 0-0.391-0.078-0.531-0.219l-1.102-1.102c-0.102-0.102-0.102-0.258 0-0.359l1.102-1.102c0.141-0.141 0.336-0.219 0.531-0.219h4v-1.5h2v1.5h4.5z"></path>
</svg>
