<!-- Generated by IcoMoon.io -->
<svg version="1.1" xmlns="http://www.w3.org/2000/svg" width="16" height="14" viewBox="0 0 16 14">
<title>map-o</title>
<path d="M15.781 0.086c0.133 0.094 0.219 0.25 0.219 0.414v11c0 0.203-0.125 0.391-0.312 0.461l-5 2c-0.125 0.055-0.25 0.055-0.375 0l-4.813-1.922-4.813 1.922c-0.062 0.031-0.125 0.039-0.187 0.039-0.102 0-0.195-0.031-0.281-0.086-0.133-0.094-0.219-0.25-0.219-0.414v-11c0-0.203 0.125-0.391 0.312-0.461l5-2c0.125-0.055 0.25-0.055 0.375 0l4.813 1.922 4.813-1.922c0.156-0.062 0.328-0.047 0.469 0.047zM5.75 1.141v9.922l4.5 1.797v-9.922zM1 2.836v9.922l4.25-1.695v-9.922zM15 11.164v-9.922l-4.25 1.695v9.922z"></path>
</svg>
