<!-- Generated by IcoMoon.io -->
<svg version="1.1" xmlns="http://www.w3.org/2000/svg" width="8" height="14" viewBox="0 0 8 14">
<title>map-pin</title>
<path d="M4 8.5c0.344 0 0.68-0.039 1-0.117v5.117c0 0.273-0.227 0.5-0.5 0.5h-1c-0.273 0-0.5-0.227-0.5-0.5v-5.117c0.32 0.078 0.656 0.117 1 0.117zM4 0c2.211 0 4 1.789 4 4s-1.789 4-4 4-4-1.789-4-4 1.789-4 4-4zM4 1.75c0.141 0 0.25-0.109 0.25-0.25s-0.109-0.25-0.25-0.25c-1.516 0-2.75 1.234-2.75 2.75 0 0.141 0.109 0.25 0.25 0.25s0.25-0.109 0.25-0.25c0-1.242 1.008-2.25 2.25-2.25z"></path>
</svg>
