<!-- Generated by IcoMoon.io -->
<svg version="1.1" xmlns="http://www.w3.org/2000/svg" width="14" height="14" viewBox="0 0 14 14">
<title>map</title>
<path d="M4 0c0.133 0 0.25 0.117 0.25 0.25v11.5c0 0.094-0.055 0.18-0.133 0.219l-3.75 2c-0.039 0.023-0.078 0.031-0.117 0.031-0.133 0-0.25-0.117-0.25-0.25v-11.5c0-0.094 0.055-0.18 0.133-0.219l3.75-2c0.039-0.023 0.078-0.031 0.117-0.031zM13.75 0c0.133 0 0.25 0.117 0.25 0.25v11.5c0 0.094-0.055 0.18-0.133 0.219l-3.75 2c-0.039 0.023-0.078 0.031-0.117 0.031-0.133 0-0.25-0.117-0.25-0.25v-11.5c0-0.094 0.055-0.18 0.133-0.219l3.75-2c0.039-0.023 0.078-0.031 0.117-0.031zM5 0c0.039 0 0.078 0.008 0.109 0.023l4 2c0.086 0.047 0.141 0.133 0.141 0.227v11.5c0 0.133-0.117 0.25-0.25 0.25-0.039 0-0.078-0.008-0.109-0.023l-4-2c-0.086-0.047-0.141-0.133-0.141-0.227v-11.5c0-0.133 0.117-0.25 0.25-0.25z"></path>
</svg>
