<!-- Generated by IcoMoon.io -->
<svg version="1.1" xmlns="http://www.w3.org/2000/svg" width="9" height="14" viewBox="0 0 9 14">
<title>mars-stroke-v</title>
<path d="M5 5.031c2.25 0.25 4 2.156 4 4.469 0 2.656-2.297 4.773-5.016 4.469-2.109-0.234-3.797-1.977-3.969-4.102-0.195-2.477 1.617-4.578 3.984-4.836v-1.031h-1.25c-0.141 0-0.25-0.109-0.25-0.25v-0.5c0-0.141 0.109-0.25 0.25-0.25h1.25v-1.289l-0.719 0.719c-0.102 0.094-0.258 0.094-0.352 0l-0.359-0.359c-0.094-0.094-0.094-0.25 0-0.352l1.578-1.57c0.195-0.195 0.508-0.195 0.703 0l1.578 1.57c0.094 0.102 0.094 0.258 0 0.352l-0.359 0.359c-0.094 0.094-0.25 0.094-0.352 0l-0.719-0.719v1.289h1.25c0.141 0 0.25 0.109 0.25 0.25v0.5c0 0.141-0.109 0.25-0.25 0.25h-1.25v1.031zM4.5 13c1.93 0 3.5-1.57 3.5-3.5s-1.57-3.5-3.5-3.5-3.5 1.57-3.5 3.5 1.57 3.5 3.5 3.5z"></path>
</svg>
