<!-- Generated by IcoMoon.io -->
<svg version="1.1" xmlns="http://www.w3.org/2000/svg" width="15" height="14" viewBox="0 0 15 14">
<title>mars-stroke-h</title>
<path d="M14.852 7.148c0.195 0.195 0.195 0.508 0 0.703l-2.297 2.297c-0.094 0.102-0.258 0.102-0.352 0l-0.352-0.352c-0.102-0.094-0.102-0.258 0-0.352l1.445-1.445h-2.297v1.75c0 0.141-0.109 0.25-0.25 0.25h-0.5c-0.141 0-0.25-0.109-0.25-0.25v-1.75h-1.031c-0.25 2.25-2.156 4-4.469 4-2.656 0-4.773-2.297-4.469-5.016 0.234-2.109 1.977-3.797 4.102-3.969 2.477-0.195 4.578 1.617 4.836 3.984h1.031v-1.75c0-0.141 0.109-0.25 0.25-0.25h0.5c0.141 0 0.25 0.109 0.25 0.25v1.75h2.297l-1.445-1.445c-0.102-0.094-0.102-0.258 0-0.352l0.352-0.352c0.094-0.102 0.258-0.102 0.352 0zM4.5 11c1.93 0 3.5-1.57 3.5-3.5s-1.57-3.5-3.5-3.5-3.5 1.57-3.5 3.5 1.57 3.5 3.5 3.5z"></path>
</svg>
