<!-- Generated by IcoMoon.io -->
<svg version="1.1" xmlns="http://www.w3.org/2000/svg" width="12" height="14" viewBox="0 0 12 14">
<title>mars</title>
<path d="M11.5 1c0.273 0 0.5 0.227 0.5 0.5v3.25c0 0.141-0.109 0.25-0.25 0.25h-0.5c-0.141 0-0.25-0.109-0.25-0.25v-2.047l-2.984 2.992c0.617 0.766 0.984 1.742 0.984 2.805 0 2.484-2.016 4.5-4.5 4.5s-4.5-2.016-4.5-4.5 2.016-4.5 4.5-4.5c1.062 0 2.039 0.367 2.805 0.984l2.984-2.984h-2.039c-0.141 0-0.25-0.109-0.25-0.25v-0.5c0-0.141 0.109-0.25 0.25-0.25h3.25zM4.5 12c1.93 0 3.5-1.57 3.5-3.5s-1.57-3.5-3.5-3.5-3.5 1.57-3.5 3.5 1.57 3.5 3.5 3.5z"></path>
</svg>
