<!-- Generated by IcoMoon.io -->
<svg version="1.1" xmlns="http://www.w3.org/2000/svg" width="15" height="14" viewBox="0 0 15 14">
<title>mars-double</title>
<path d="M12 3.25c0-0.141 0.109-0.25 0.25-0.25h2.25c0.273 0 0.5 0.227 0.5 0.5v2.25c0 0.141-0.109 0.25-0.25 0.25h-0.5c-0.141 0-0.25-0.109-0.25-0.25v-1.047l-1.984 1.992c0.766 0.961 1.148 2.234 0.914 3.602-0.328 1.898-1.875 3.391-3.781 3.656-2.234 0.312-4.211-1.023-4.891-2.969-2.469-0.125-4.414-2.25-4.25-4.789 0.141-2.141 1.836-3.922 3.969-4.164 1.258-0.148 2.43 0.242 3.328 0.953l1.992-1.984h-1.047c-0.141 0-0.25-0.109-0.25-0.25v-0.5c0-0.141 0.109-0.25 0.25-0.25h2.25c0.273 0 0.5 0.227 0.5 0.5v2.25c0 0.141-0.109 0.25-0.25 0.25h-0.5c-0.141 0-0.25-0.109-0.25-0.25v-1.047l-1.984 1.992c0.312 0.391 0.555 0.836 0.727 1.32 0.969 0.047 1.852 0.406 2.563 0.969l1.992-1.984h-1.047c-0.141 0-0.25-0.109-0.25-0.25v-0.5zM8 6.5c0-0.156-0.016-0.305-0.031-0.453-1.68 0.258-2.969 1.703-2.969 3.453 0 0.156 0.016 0.305 0.031 0.453 1.68-0.258 2.969-1.703 2.969-3.453zM1 6.5c0 1.766 1.32 3.227 3.023 3.461-0.016-0.148-0.023-0.305-0.023-0.461 0-2.203 1.594-4.039 3.695-4.422-0.547-1.227-1.773-2.078-3.195-2.078-1.93 0-3.5 1.57-3.5 3.5zM8.5 13c1.93 0 3.5-1.57 3.5-3.5 0-1.766-1.32-3.227-3.023-3.461 0.016 0.148 0.023 0.305 0.023 0.461 0 2.203-1.594 4.039-3.695 4.422 0.547 1.227 1.773 2.078 3.195 2.078z"></path>
</svg>
