<!-- Generated by IcoMoon.io -->
<svg version="1.1" xmlns="http://www.w3.org/2000/svg" width="12" height="14" viewBox="0 0 12 14">
<title>meanpath</title>
<path d="M10.242 6.578v0.891c0 0.25-0.148 0.406-0.398 0.406h-1.578c-0.25 0-0.406-0.156-0.406-0.406v-0.891c0-0.25 0.156-0.406 0.406-0.406h1.578c0.25 0 0.398 0.156 0.398 0.406zM6.414 8.375v-1.953c0-0.555-0.367-0.922-0.922-0.922h-1.039c-0.352 0-0.609 0.148-0.75 0.406-0.141-0.258-0.398-0.406-0.75-0.406h-1.016c-0.547 0-0.922 0.367-0.922 0.922v1.953c0 0.117 0.055 0.172 0.164 0.172h0.43c0.117 0 0.172-0.055 0.172-0.172v-1.797c0-0.25 0.148-0.406 0.406-0.406h0.734c0.25 0 0.406 0.156 0.406 0.406v1.797c0 0.117 0.047 0.172 0.164 0.172h0.422c0.117 0 0.172-0.055 0.172-0.172v-1.797c0-0.25 0.156-0.406 0.406-0.406h0.758c0.25 0 0.398 0.156 0.398 0.406v1.797c0 0.117 0.055 0.172 0.172 0.172h0.43c0.109 0 0.164-0.055 0.164-0.172zM11.016 7.625v-1.203c0-0.555-0.375-0.922-0.93-0.922h-2.062c-0.555 0-0.93 0.367-0.93 0.922v3.203c0 0.117 0.062 0.164 0.172 0.164h0.43c0.117 0 0.164-0.047 0.164-0.164v-1.406c0.148 0.203 0.383 0.328 0.734 0.328h1.492c0.555 0 0.93-0.375 0.93-0.922zM12 2.812v8.375c0 1-0.813 1.812-1.812 1.812h-8.375c-1 0-1.812-0.813-1.812-1.812v-8.375c0-1 0.813-1.812 1.812-1.812h8.375c1 0 1.812 0.813 1.812 1.812z"></path>
</svg>
