<!-- Generated by IcoMoon.io -->
<svg version="1.1" xmlns="http://www.w3.org/2000/svg" width="14" height="14" viewBox="0 0 14 14">
<title>medium</title>
<path d="M4.664 3.289v9.164c0 0.242-0.117 0.469-0.383 0.469-0.094 0-0.18-0.023-0.258-0.062l-3.633-1.82c-0.219-0.109-0.391-0.391-0.391-0.625v-8.906c0-0.195 0.094-0.375 0.305-0.375 0.125 0 0.234 0.062 0.344 0.117l3.992 2c0.008 0.008 0.023 0.031 0.023 0.039zM5.164 4.078l4.172 6.766-4.172-2.078v-4.687zM14 4.219v8.234c0 0.258-0.148 0.438-0.406 0.438-0.133 0-0.258-0.039-0.367-0.102l-3.445-1.719zM13.977 3.281c0 0.031-4.039 6.586-4.352 7.086l-3.047-4.953 2.531-4.117c0.086-0.141 0.242-0.219 0.406-0.219 0.070 0 0.141 0.016 0.203 0.047l4.227 2.109c0.016 0.008 0.031 0.023 0.031 0.047z"></path>
</svg>
