<!-- Generated by IcoMoon.io -->
<svg version="1.1" xmlns="http://www.w3.org/2000/svg" width="14" height="14" viewBox="0 0 14 14">
<title>medkit</title>
<path d="M10 8.75v-1.5c0-0.141-0.109-0.25-0.25-0.25h-1.75v-1.75c0-0.141-0.109-0.25-0.25-0.25h-1.5c-0.141 0-0.25 0.109-0.25 0.25v1.75h-1.75c-0.141 0-0.25 0.109-0.25 0.25v1.5c0 0.141 0.109 0.25 0.25 0.25h1.75v1.75c0 0.141 0.109 0.25 0.25 0.25h1.5c0.141 0 0.25-0.109 0.25-0.25v-1.75h1.75c0.141 0 0.25-0.109 0.25-0.25zM5 3h4v-1h-4v1zM2 3v10h-0.25c-0.961 0-1.75-0.789-1.75-1.75v-6.5c0-0.961 0.789-1.75 1.75-1.75h0.25zM11.25 3v10h-8.5v-10h1.25v-1.25c0-0.414 0.336-0.75 0.75-0.75h4.5c0.414 0 0.75 0.336 0.75 0.75v1.25h1.25zM14 4.75v6.5c0 0.961-0.789 1.75-1.75 1.75h-0.25v-10h0.25c0.961 0 1.75 0.789 1.75 1.75z"></path>
</svg>
