<!-- Generated by IcoMoon.io -->
<svg version="1.1" xmlns="http://www.w3.org/2000/svg" width="15" height="14" viewBox="0 0 15 14">
<title>meetup</title>
<path d="M10.422 9.641c-0.086-0.563-1.117-0.125-1.18-0.742-0.086-0.875 1.195-2.766 1.094-3.5-0.094-0.656-0.531-0.797-0.914-0.805-0.367-0.008-0.461 0.055-0.586 0.125-0.078 0.047-0.18 0.133-0.32-0.008-0.172-0.164-0.305-0.32-0.531-0.352-0.336-0.055-0.484 0.055-0.727 0.266-0.094 0.078-0.328 0.352-0.547 0.25-0.094-0.047-0.422-0.211-0.656-0.312-0.445-0.195-1.094 0.125-1.328 0.547-0.352 0.625-1.039 3.094-1.141 3.422-0.234 0.727 0.297 1.328 1.008 1.289 0.305-0.016 0.5-0.125 0.695-0.477 0.109-0.203 1.141-2.945 1.219-3.078 0.055-0.094 0.242-0.219 0.398-0.141 0.156 0.086 0.187 0.258 0.164 0.414-0.031 0.266-0.766 1.937-0.789 2.125-0.094 0.625 0.734 0.727 1.055 0.109 0.102-0.195 1.25-2.531 1.352-2.687 0.117-0.172 0.203-0.227 0.32-0.219 0.086 0 0.227 0.023 0.195 0.297-0.039 0.258-0.961 1.977-1.062 2.398-0.125 0.563 0.18 1.133 0.68 1.383 0.312 0.156 1.711 0.43 1.602-0.305zM2.992 11.328c0.031 0.156-0.062 0.305-0.219 0.336-0.148 0.031-0.297-0.062-0.328-0.219-0.031-0.148 0.062-0.305 0.211-0.336s0.305 0.062 0.336 0.219zM7.445 13.383c0.125 0.18 0.078 0.422-0.094 0.547-0.18 0.125-0.422 0.078-0.547-0.102-0.117-0.18-0.070-0.422 0.102-0.547 0.18-0.125 0.422-0.078 0.539 0.102zM1.383 7.039c-0.187 0.281-0.563 0.352-0.836 0.156-0.273-0.187-0.344-0.57-0.156-0.844 0.187-0.281 0.563-0.352 0.836-0.164 0.273 0.195 0.344 0.57 0.156 0.852zM11.461 12.328c0.195 0.289 0.125 0.688-0.164 0.891-0.289 0.195-0.68 0.125-0.875-0.164s-0.125-0.688 0.156-0.891c0.289-0.203 0.68-0.125 0.883 0.164zM12.336 7.609c0.719 1.18 0.414 2.734-0.719 3.531-0.477 0.336-1.016 0.484-1.555 0.469-0.328 1.289-1.898 1.766-2.875 0.891-0.031 0.023-0.070 0.047-0.102 0.078-1.070 0.742-2.523 0.477-3.266-0.609-0.266-0.391-0.398-0.836-0.414-1.281-1.789-0.297-2.461-2.57-1.125-3.82-0.773-1.281 0.016-2.937 1.461-3.141 0.688-1.812 2.945-2.672 4.477-1.484 1.844-0.609 3.727 0.805 3.578 2.766 1.125 0.344 1.445 1.828 0.539 2.602zM3.555 2.453c0.141 0.211 0.094 0.5-0.117 0.648-0.203 0.141-0.492 0.094-0.633-0.117s-0.094-0.5 0.117-0.648c0.203-0.141 0.492-0.094 0.633 0.117zM4.797 0.258c0.039 0.172-0.070 0.344-0.242 0.383s-0.344-0.070-0.383-0.25c-0.031-0.172 0.078-0.344 0.25-0.383s0.344 0.070 0.375 0.25zM14.062 7.664c0.047 0.211-0.086 0.414-0.289 0.453-0.203 0.047-0.406-0.086-0.445-0.289-0.047-0.211 0.086-0.414 0.289-0.461 0.203-0.039 0.406 0.094 0.445 0.297zM8.875 0.688c0.164 0.281 0.078 0.656-0.211 0.828-0.281 0.172-0.648 0.078-0.813-0.203-0.172-0.289-0.078-0.664 0.203-0.836s0.648-0.078 0.82 0.211zM14.703 5.813c0.039 0.156-0.062 0.305-0.211 0.344-0.156 0.031-0.305-0.070-0.336-0.219-0.031-0.156 0.062-0.312 0.219-0.344 0.148-0.031 0.297 0.062 0.328 0.219zM13.211 3.93c0.156 0.234 0.102 0.555-0.125 0.719-0.234 0.156-0.555 0.102-0.711-0.133s-0.102-0.555 0.133-0.719c0.227-0.164 0.547-0.102 0.703 0.133z"></path>
</svg>
