<!-- Generated by IcoMoon.io -->
<svg version="1.1" xmlns="http://www.w3.org/2000/svg" width="12" height="14" viewBox="0 0 12 14">
<title>meh-o</title>
<path d="M9 8.5c0 0.273-0.227 0.5-0.5 0.5h-5c-0.273 0-0.5-0.227-0.5-0.5s0.227-0.5 0.5-0.5h5c0.273 0 0.5 0.227 0.5 0.5zM5 5c0 0.555-0.445 1-1 1s-1-0.445-1-1 0.445-1 1-1 1 0.445 1 1zM9 5c0 0.555-0.445 1-1 1s-1-0.445-1-1 0.445-1 1-1 1 0.445 1 1zM11 7c0-2.758-2.242-5-5-5s-5 2.242-5 5 2.242 5 5 5 5-2.242 5-5zM12 7c0 3.313-2.687 6-6 6s-6-2.687-6-6 2.687-6 6-6 6 2.687 6 6z"></path>
</svg>
