<!-- Generated by IcoMoon.io -->
<svg version="1.1" xmlns="http://www.w3.org/2000/svg" width="9" height="14" viewBox="0 0 9 14">
<title>mercury</title>
<path d="M6.484 2.469c1.484 0.734 2.516 2.266 2.516 4.031 0 2.313-1.75 4.219-4 4.469v1.031h0.75c0.141 0 0.25 0.109 0.25 0.25v0.5c0 0.141-0.109 0.25-0.25 0.25h-0.75v0.75c0 0.141-0.109 0.25-0.25 0.25h-0.5c-0.141 0-0.25-0.109-0.25-0.25v-0.75h-0.75c-0.141 0-0.25-0.109-0.25-0.25v-0.5c0-0.141 0.109-0.25 0.25-0.25h0.75v-1.031c-2.25-0.25-4-2.156-4-4.469 0-1.766 1.031-3.297 2.516-4.031-0.82-0.477-1.461-1.227-1.781-2.133-0.062-0.164 0.062-0.336 0.234-0.336h0.539c0.102 0 0.187 0.062 0.227 0.156 0.453 1.086 1.523 1.844 2.766 1.844s2.313-0.758 2.766-1.844c0.039-0.094 0.125-0.156 0.289-0.156h0.477c0.172 0 0.297 0.172 0.234 0.336-0.32 0.906-0.961 1.656-1.781 2.133zM4.5 10c1.93 0 3.5-1.57 3.5-3.5s-1.57-3.5-3.5-3.5-3.5 1.57-3.5 3.5 1.57 3.5 3.5 3.5z"></path>
</svg>
