<!-- Generated by IcoMoon.io -->
<svg version="1.1" xmlns="http://www.w3.org/2000/svg" width="12" height="14" viewBox="0 0 12 14">
<title>microchip</title>
<path d="M1.5 10v1h-0.875c-0.070 0-0.125-0.055-0.125-0.125v-0.125h-0.375c-0.070 0-0.125-0.055-0.125-0.125v-0.25c0-0.070 0.055-0.125 0.125-0.125h0.375v-0.125c0-0.070 0.055-0.125 0.125-0.125h0.875zM1.5 8v1h-0.875c-0.070 0-0.125-0.055-0.125-0.125v-0.125h-0.375c-0.070 0-0.125-0.055-0.125-0.125v-0.25c0-0.070 0.055-0.125 0.125-0.125h0.375v-0.125c0-0.070 0.055-0.125 0.125-0.125h0.875zM1.5 6v1h-0.875c-0.070 0-0.125-0.055-0.125-0.125v-0.125h-0.375c-0.070 0-0.125-0.055-0.125-0.125v-0.25c0-0.070 0.055-0.125 0.125-0.125h0.375v-0.125c0-0.070 0.055-0.125 0.125-0.125h0.875zM1.5 4v1h-0.875c-0.070 0-0.125-0.055-0.125-0.125v-0.125h-0.375c-0.070 0-0.125-0.055-0.125-0.125v-0.25c0-0.070 0.055-0.125 0.125-0.125h0.375v-0.125c0-0.070 0.055-0.125 0.125-0.125h0.875zM1.5 2v1h-0.875c-0.070 0-0.125-0.055-0.125-0.125v-0.125h-0.375c-0.070 0-0.125-0.055-0.125-0.125v-0.25c0-0.070 0.055-0.125 0.125-0.125h0.375v-0.125c0-0.070 0.055-0.125 0.125-0.125h0.875zM10 0.75v11.5c0 0.414-0.336 0.75-0.75 0.75h-6.5c-0.414 0-0.75-0.336-0.75-0.75v-11.5c0-0.414 0.336-0.75 0.75-0.75h6.5c0.414 0 0.75 0.336 0.75 0.75zM12 10.375v0.25c0 0.070-0.055 0.125-0.125 0.125h-0.375v0.125c0 0.070-0.055 0.125-0.125 0.125h-0.875v-1h0.875c0.070 0 0.125 0.055 0.125 0.125v0.125h0.375c0.070 0 0.125 0.055 0.125 0.125zM12 8.375v0.25c0 0.070-0.055 0.125-0.125 0.125h-0.375v0.125c0 0.070-0.055 0.125-0.125 0.125h-0.875v-1h0.875c0.070 0 0.125 0.055 0.125 0.125v0.125h0.375c0.070 0 0.125 0.055 0.125 0.125zM12 6.375v0.25c0 0.070-0.055 0.125-0.125 0.125h-0.375v0.125c0 0.070-0.055 0.125-0.125 0.125h-0.875v-1h0.875c0.070 0 0.125 0.055 0.125 0.125v0.125h0.375c0.070 0 0.125 0.055 0.125 0.125zM12 4.375v0.25c0 0.070-0.055 0.125-0.125 0.125h-0.375v0.125c0 0.070-0.055 0.125-0.125 0.125h-0.875v-1h0.875c0.070 0 0.125 0.055 0.125 0.125v0.125h0.375c0.070 0 0.125 0.055 0.125 0.125zM12 2.375v0.25c0 0.070-0.055 0.125-0.125 0.125h-0.375v0.125c0 0.070-0.055 0.125-0.125 0.125h-0.875v-1h0.875c0.070 0 0.125 0.055 0.125 0.125v0.125h0.375c0.070 0 0.125 0.055 0.125 0.125z"></path>
</svg>
