<!-- Generated by IcoMoon.io -->
<svg version="1.1" xmlns="http://www.w3.org/2000/svg" width="11" height="14" viewBox="0 0 11 14">
<title>microphone-slash</title>
<path d="M2.117 7.383l-0.789 0.789c-0.211-0.516-0.328-1.078-0.328-1.672v-1c0-0.273 0.227-0.5 0.5-0.5s0.5 0.227 0.5 0.5v1c0 0.305 0.047 0.602 0.117 0.883zM10.82 2.68l-2.82 2.82v1c0 1.375-1.125 2.5-2.5 2.5-0.297 0-0.586-0.055-0.852-0.148l-0.75 0.75c0.477 0.25 1.023 0.398 1.602 0.398 1.93 0 3.5-1.57 3.5-3.5v-1c0-0.273 0.227-0.5 0.5-0.5s0.5 0.227 0.5 0.5v1c0 2.313-1.75 4.219-4 4.469v1.031h2c0.273 0 0.5 0.227 0.5 0.5s-0.227 0.5-0.5 0.5h-5c-0.273 0-0.5-0.227-0.5-0.5s0.227-0.5 0.5-0.5h2v-1.031c-0.664-0.070-1.289-0.297-1.836-0.633l-1.984 1.984c-0.102 0.102-0.258 0.102-0.359 0l-0.641-0.641c-0.102-0.102-0.102-0.258 0-0.359l9.641-9.641c0.102-0.102 0.258-0.102 0.359 0l0.641 0.641c0.102 0.102 0.102 0.258 0 0.359zM7.852 1.648l-4.852 4.852v-4c0-1.375 1.125-2.5 2.5-2.5 1.078 0 2 0.695 2.352 1.648z"></path>
</svg>
