<!-- Generated by IcoMoon.io -->
<svg version="1.1" xmlns="http://www.w3.org/2000/svg" width="9" height="14" viewBox="0 0 9 14">
<title>microphone</title>
<path d="M9 5.5v1c0 2.313-1.75 4.219-4 4.469v1.031h2c0.273 0 0.5 0.227 0.5 0.5s-0.227 0.5-0.5 0.5h-5c-0.273 0-0.5-0.227-0.5-0.5s0.227-0.5 0.5-0.5h2v-1.031c-2.25-0.25-4-2.156-4-4.469v-1c0-0.273 0.227-0.5 0.5-0.5s0.5 0.227 0.5 0.5v1c0 1.93 1.57 3.5 3.5 3.5s3.5-1.57 3.5-3.5v-1c0-0.273 0.227-0.5 0.5-0.5s0.5 0.227 0.5 0.5zM7 2.5v4c0 1.375-1.125 2.5-2.5 2.5s-2.5-1.125-2.5-2.5v-4c0-1.375 1.125-2.5 2.5-2.5s2.5 1.125 2.5 2.5z"></path>
</svg>
