<!-- Generated by IcoMoon.io -->
<svg version="1.1" xmlns="http://www.w3.org/2000/svg" width="11" height="14" viewBox="0 0 11 14">
<title>minus-square-o</title>
<path d="M9 6.25v0.5c0 0.141-0.109 0.25-0.25 0.25h-6.5c-0.141 0-0.25-0.109-0.25-0.25v-0.5c0-0.141 0.109-0.25 0.25-0.25h6.5c0.141 0 0.25 0.109 0.25 0.25zM10 9.75v-6.5c0-0.688-0.563-1.25-1.25-1.25h-6.5c-0.688 0-1.25 0.563-1.25 1.25v6.5c0 0.688 0.563 1.25 1.25 1.25h6.5c0.688 0 1.25-0.563 1.25-1.25zM11 3.25v6.5c0 1.242-1.008 2.25-2.25 2.25h-6.5c-1.242 0-2.25-1.008-2.25-2.25v-6.5c0-1.242 1.008-2.25 2.25-2.25h6.5c1.242 0 2.25 1.008 2.25 2.25z"></path>
</svg>
