<!-- Generated by IcoMoon.io -->
<svg version="1.1" xmlns="http://www.w3.org/2000/svg" width="18" height="14" viewBox="0 0 18 14">
<title>mixcloud</title>
<path d="M12.852 8.578c0-0.625-0.398-1.156-0.945-1.367-0.039 0.242-0.102 0.484-0.18 0.719-0.078 0.25-0.312 0.406-0.563 0.406-0.062 0-0.125-0.008-0.187-0.023-0.32-0.109-0.484-0.445-0.383-0.758 0.117-0.359 0.18-0.734 0.18-1.117 0-1.953-1.594-3.547-3.555-3.547-1.406 0-2.672 0.836-3.234 2.086 0.547 0.141 1.055 0.422 1.469 0.828 0.234 0.234 0.234 0.617 0 0.852s-0.617 0.234-0.852 0c-0.375-0.375-0.875-0.586-1.406-0.586-1.102 0-2 0.891-2 1.992s0.898 1.992 2 1.992h8.172c0.82 0 1.484-0.664 1.484-1.477zM14.047 8.578c0 1.477-1.203 2.672-2.68 2.672h-8.172c-1.766 0-3.195-1.43-3.195-3.188 0-1.602 1.187-2.922 2.727-3.148 0.648-1.906 2.453-3.219 4.492-3.219 2.461 0 4.492 1.883 4.727 4.281 1.195 0.258 2.102 1.328 2.102 2.602zM16 8.578c0 0.891-0.258 1.75-0.758 2.492-0.117 0.172-0.305 0.258-0.5 0.258v0c-0.117 0-0.234-0.031-0.336-0.102-0.273-0.18-0.344-0.555-0.156-0.828 0.367-0.539 0.555-1.164 0.555-1.82 0-0.648-0.187-1.281-0.555-1.82-0.187-0.273-0.117-0.641 0.156-0.828s0.648-0.109 0.836 0.164c0.5 0.734 0.758 1.594 0.758 2.484zM18 8.578c0 1.242-0.359 2.438-1.047 3.461-0.117 0.172-0.305 0.266-0.5 0.266v0c-0.109 0-0.227-0.031-0.328-0.102-0.273-0.187-0.352-0.555-0.164-0.828 0.547-0.828 0.844-1.797 0.844-2.797s-0.297-1.969-0.844-2.789c-0.187-0.273-0.109-0.648 0.164-0.828 0.273-0.187 0.641-0.117 0.828 0.164 0.688 1.016 1.047 2.211 1.047 3.453z"></path>
</svg>
