<!-- Generated by IcoMoon.io -->
<svg version="1.1" xmlns="http://www.w3.org/2000/svg" width="6" height="14" viewBox="0 0 6 14">
<title>mobile</title>
<path d="M3.625 11c0-0.344-0.281-0.625-0.625-0.625s-0.625 0.281-0.625 0.625 0.281 0.625 0.625 0.625 0.625-0.281 0.625-0.625zM5.25 9.75v-5.5c0-0.133-0.117-0.25-0.25-0.25h-4c-0.133 0-0.25 0.117-0.25 0.25v5.5c0 0.133 0.117 0.25 0.25 0.25h4c0.133 0 0.25-0.117 0.25-0.25zM3.75 3.125c0-0.070-0.055-0.125-0.125-0.125h-1.25c-0.070 0-0.125 0.055-0.125 0.125s0.055 0.125 0.125 0.125h1.25c0.070 0 0.125-0.055 0.125-0.125zM6 3v8c0 0.547-0.453 1-1 1h-4c-0.547 0-1-0.453-1-1v-8c0-0.547 0.453-1 1-1h4c0.547 0 1 0.453 1 1z"></path>
</svg>
