<!-- Generated by IcoMoon.io -->
<svg version="1.1" xmlns="http://www.w3.org/2000/svg" width="12" height="14" viewBox="0 0 12 14">
<title>moon-o</title>
<path d="M9.859 10.18c-0.281 0.047-0.57 0.070-0.859 0.070-2.898 0-5.25-2.352-5.25-5.25 0-0.992 0.289-1.961 0.813-2.789-2.078 0.617-3.562 2.523-3.562 4.789 0 2.758 2.242 5 5 5 1.508 0 2.922-0.688 3.859-1.82zM11.445 9.516c-0.977 2.117-3.117 3.484-5.445 3.484-3.305 0-6-2.695-6-6 0-3.242 2.539-5.875 5.773-5.992 0.219-0.008 0.398 0.117 0.477 0.305 0.086 0.195 0.031 0.422-0.117 0.563-0.891 0.813-1.383 1.922-1.383 3.125 0 2.344 1.906 4.25 4.25 4.25 0.617 0 1.211-0.133 1.781-0.398 0.195-0.086 0.414-0.047 0.563 0.102s0.187 0.375 0.102 0.563z"></path>
</svg>
