<!-- Generated by IcoMoon.io -->
<svg version="1.1" xmlns="http://www.w3.org/2000/svg" width="18" height="14" viewBox="0 0 18 14">
<title>motorcycle</title>
<path d="M17.977 8.094c0.25 2.195-1.539 4.039-3.719 3.898-1.672-0.109-3.063-1.445-3.234-3.117-0.125-1.187 0.344-2.258 1.141-2.977l-0.555-0.836c-0.984 0.82-1.609 2.047-1.609 3.422 0 0.281-0.219 0.516-0.5 0.516h-2.539c-0.242 1.695-1.695 3-3.461 3-1.93 0-3.5-1.57-3.5-3.5s1.57-3.5 3.5-3.5c0.414 0 0.813 0.078 1.187 0.211l0.187-0.352c-0.602-0.539-1.391-0.859-2.375-0.859h-0.5c-0.273 0-0.5-0.227-0.5-0.5s0.227-0.5 0.5-0.5h1c1.75 0 2.641 0.719 3 1h4.898l-0.664-1h-1.734c-0.305 0-0.547-0.273-0.492-0.586 0.039-0.242 0.273-0.414 0.516-0.414h1.977c0.164 0 0.32 0.086 0.414 0.219l0.547 0.82 0.891-0.891c0.094-0.094 0.227-0.148 0.359-0.148h0.789c0.273 0 0.5 0.227 0.5 0.5v1c0 0.273-0.227 0.5-0.5 0.5h-1.398l0.898 1.344c0.633-0.305 1.367-0.43 2.148-0.281 1.492 0.273 2.656 1.523 2.828 3.031zM3.5 11c1.211 0 2.219-0.859 2.453-2h-2.453c-0.172 0-0.336-0.094-0.43-0.242-0.086-0.148-0.094-0.336-0.008-0.492l1.148-2.164c-0.227-0.062-0.461-0.102-0.711-0.102-1.375 0-2.5 1.125-2.5 2.5s1.125 2.5 2.5 2.5zM14.5 11c1.375 0 2.5-1.125 2.5-2.5s-1.125-2.5-2.5-2.5c-0.336 0-0.648 0.070-0.945 0.187l1.359 2.031c0.156 0.234 0.094 0.547-0.133 0.695-0.086 0.062-0.187 0.086-0.281 0.086-0.164 0-0.32-0.078-0.414-0.227l-1.359-2.031c-0.445 0.453-0.727 1.070-0.727 1.758 0 1.375 1.125 2.5 2.5 2.5z"></path>
</svg>
