<!-- Generated by IcoMoon.io -->
<svg version="1.1" xmlns="http://www.w3.org/2000/svg" width="9" height="14" viewBox="0 0 9 14">
<title>mouse-pointer</title>
<path d="M8.852 8.148c0.148 0.141 0.187 0.359 0.109 0.539-0.078 0.187-0.258 0.312-0.461 0.312h-2.984l1.57 3.719c0.109 0.258-0.016 0.547-0.266 0.656l-1.383 0.586c-0.258 0.109-0.547-0.016-0.656-0.266l-1.492-3.531-2.438 2.438c-0.094 0.094-0.219 0.148-0.352 0.148-0.062 0-0.133-0.016-0.187-0.039-0.187-0.078-0.312-0.258-0.312-0.461v-11.75c0-0.203 0.125-0.383 0.312-0.461 0.055-0.023 0.125-0.039 0.187-0.039 0.133 0 0.258 0.047 0.352 0.148z"></path>
</svg>
