<!-- Generated by IcoMoon.io -->
<svg version="1.1" xmlns="http://www.w3.org/2000/svg" width="12" height="14" viewBox="0 0 12 14">
<title>music</title>
<path d="M12 1.75v8.75c0 1.102-1.648 1.5-2.5 1.5s-2.5-0.398-2.5-1.5 1.648-1.5 2.5-1.5c0.516 0 1.031 0.094 1.5 0.305v-4.195l-6 1.852v5.539c0 1.102-1.648 1.5-2.5 1.5s-2.5-0.398-2.5-1.5 1.648-1.5 2.5-1.5c0.516 0 1.031 0.094 1.5 0.305v-7.555c0-0.328 0.219-0.617 0.531-0.719l6.5-2c0.070-0.023 0.141-0.031 0.219-0.031 0.414 0 0.75 0.336 0.75 0.75z"></path>
</svg>
