<!-- Generated by IcoMoon.io -->
<svg version="1.1" xmlns="http://www.w3.org/2000/svg" width="16" height="14" viewBox="0 0 16 14">
<title>newspaper-o</title>
<path d="M8 4h-3v3h3v-3zM9 9v1h-5v-1h5zM9 3v5h-5v-5h5zM14 9v1h-4v-1h4zM14 7v1h-4v-1h4zM14 5v1h-4v-1h4zM14 3v1h-4v-1h4zM2 10.5v-7.5h-1v7.5c0 0.273 0.227 0.5 0.5 0.5s0.5-0.227 0.5-0.5zM15 10.5v-8.5h-12v8.5c0 0.172-0.031 0.344-0.086 0.5h11.586c0.273 0 0.5-0.227 0.5-0.5zM16 1v9.5c0 0.828-0.672 1.5-1.5 1.5h-13c-0.828 0-1.5-0.672-1.5-1.5v-8.5h2v-1h14z"></path>
</svg>
