<!-- Generated by IcoMoon.io -->
<svg version="1.1" xmlns="http://www.w3.org/2000/svg" width="10" height="14" viewBox="0 0 10 14">
<title>odnoklassniki</title>
<path d="M5 7.086c-1.953 0-3.547-1.586-3.547-3.539 0-1.961 1.594-3.547 3.547-3.547s3.547 1.586 3.547 3.547c0 1.953-1.594 3.539-3.547 3.539zM5 1.797c-0.961 0-1.742 0.781-1.742 1.75 0 0.961 0.781 1.742 1.742 1.742s1.742-0.781 1.742-1.742c0-0.969-0.781-1.75-1.742-1.75zM9.086 7.516c0.344 0.703-0.047 1.039-0.937 1.617-0.75 0.477-1.781 0.664-2.461 0.734l0.57 0.563 2.086 2.086c0.312 0.32 0.312 0.836 0 1.148l-0.094 0.102c-0.32 0.312-0.836 0.312-1.156 0-0.523-0.531-1.289-1.297-2.086-2.094l-2.086 2.094c-0.32 0.312-0.836 0.312-1.148 0l-0.094-0.102c-0.32-0.312-0.32-0.828 0-1.148 0.531-0.531 1.289-1.297 2.086-2.086l0.563-0.563c-0.672-0.070-1.719-0.25-2.477-0.734-0.891-0.578-1.281-0.914-0.937-1.617 0.203-0.398 0.758-0.734 1.492-0.156 0 0 0.992 0.789 2.594 0.789s2.594-0.789 2.594-0.789c0.734-0.578 1.289-0.242 1.492 0.156z"></path>
</svg>
