<!-- Generated by IcoMoon.io -->
<svg version="1.1" xmlns="http://www.w3.org/2000/svg" width="12" height="14" viewBox="0 0 12 14">
<title>odnoklassniki-square</title>
<path d="M7.242 4.531c0 0.688-0.555 1.242-1.242 1.242s-1.242-0.555-1.242-1.242 0.555-1.242 1.242-1.242 1.242 0.555 1.242 1.242zM8.914 7.367c-0.141-0.281-0.539-0.523-1.062-0.109 0 0-0.711 0.563-1.852 0.563s-1.852-0.563-1.852-0.563c-0.523-0.414-0.922-0.172-1.062 0.109-0.25 0.5 0.031 0.742 0.664 1.156 0.539 0.344 1.289 0.477 1.766 0.523l-0.398 0.406c-0.563 0.563-1.109 1.109-1.492 1.484-0.227 0.227-0.227 0.594 0 0.82l0.070 0.070c0.227 0.227 0.594 0.227 0.82 0l1.492-1.492c0.563 0.57 1.109 1.117 1.492 1.492 0.227 0.227 0.594 0.227 0.82 0l0.070-0.070c0.227-0.227 0.227-0.594 0-0.82l-1.492-1.484-0.406-0.406c0.484-0.047 1.219-0.18 1.758-0.523 0.633-0.414 0.914-0.656 0.664-1.156zM8.531 4.531c0-1.398-1.133-2.531-2.531-2.531s-2.531 1.133-2.531 2.531 1.133 2.531 2.531 2.531 2.531-1.133 2.531-2.531zM12 3.25v7.5c0 1.242-1.008 2.25-2.25 2.25h-7.5c-1.242 0-2.25-1.008-2.25-2.25v-7.5c0-1.242 1.008-2.25 2.25-2.25h7.5c1.242 0 2.25 1.008 2.25 2.25z"></path>
</svg>
