<!-- Generated by IcoMoon.io -->
<svg version="1.1" xmlns="http://www.w3.org/2000/svg" width="21" height="14" viewBox="0 0 21 14">
<title>opencart</title>
<path d="M11.906 12.195c0 0.711-0.57 1.281-1.281 1.281s-1.289-0.57-1.289-1.281 0.578-1.289 1.289-1.289 1.281 0.578 1.281 1.289zM6.055 12.195c0 0.711-0.578 1.281-1.289 1.281s-1.281-0.57-1.281-1.281 0.57-1.289 1.281-1.289 1.289 0.578 1.289 1.289zM0 0.523c2.305 2.43 4.469 2.789 12.969 2.789s4.766 1.891-0.484 6.578c1.664-2.891 7.383-5.453-1.992-5.312-8.992 0.133-9.523-2.602-10.492-4.055z"></path>
</svg>
