<!-- Generated by IcoMoon.io -->
<svg version="1.1" xmlns="http://www.w3.org/2000/svg" width="14" height="14" viewBox="0 0 14 14">
<title>opera</title>
<path d="M11.664 1.781c-0.82-0.547-1.781-0.859-2.805-0.859-1.664 0-3.133 0.852-4.164 2.133-0.75 0.937-1.273 2.266-1.313 3.781v0.328c0.039 1.516 0.563 2.844 1.313 3.781 1.031 1.281 2.5 2.133 4.164 2.133 1.023 0 1.984-0.312 2.805-0.859-1.234 1.109-2.875 1.781-4.664 1.781-0.109 0-0.227 0-0.336-0.008-3.711-0.172-6.664-3.234-6.664-6.992 0-3.867 3.133-7 7-7h0.023c1.781 0.008 3.406 0.68 4.641 1.781zM14 7c0 2.039-0.875 3.867-2.266 5.148-0.531 0.32-1.117 0.492-1.734 0.492-0.719 0-1.398-0.234-1.992-0.656 1.586-0.578 2.758-2.586 2.758-4.984 0-2.391-1.164-4.398-2.75-4.984 0.594-0.414 1.266-0.648 1.984-0.648 0.633 0 1.227 0.18 1.766 0.508 1.375 1.281 2.234 3.102 2.234 5.125z"></path>
</svg>
