<!-- Generated by IcoMoon.io -->
<svg version="1.1" xmlns="http://www.w3.org/2000/svg" width="18" height="14" viewBox="0 0 18 14">
<title>optin-monster</title>
<path d="M3.734 13.086c-0.078 0.164-0.305 0.391-0.5 0.469-0.273 0.094-0.609-0.086-0.625-0.273-0.016-0.242 0.586-0.68 0.844-0.727 0.25-0.047 0.367 0.328 0.281 0.531zM14.211 13.086c0.070 0.164 0.297 0.391 0.5 0.469 0.266 0.094 0.609-0.086 0.617-0.273 0.023-0.242-0.586-0.68-0.844-0.727-0.242-0.047-0.359 0.328-0.273 0.531zM14.586 12.234c0.141 0.281 0.695 0.695 1.047 0.789 0.477 0.133 0.93-0.094 0.93-0.43 0-0.516-0.977-1.203-1.43-1.25-0.43-0.055-0.711 0.555-0.547 0.891zM3.344 12.234c-0.141 0.281-0.688 0.695-1.039 0.789-0.477 0.133-0.93-0.094-0.93-0.43 0-0.516 0.977-1.203 1.43-1.25 0.43-0.055 0.711 0.555 0.539 0.891zM9.047 3.453h0.008c-0.211 0-0.414 0.039-0.594 0.117 0.273 0.086 0.477 0.336 0.477 0.625 0 0.367-0.32 0.664-0.719 0.664-0.266 0-0.5-0.141-0.625-0.336-0.023 0.109-0.039 0.211-0.039 0.328 0 0.773 0.664 1.398 1.492 1.398s1.5-0.625 1.5-1.398-0.672-1.398-1.5-1.398zM11.422 1.75c-1.031-1.133-2.352-1.383-3.641-0.68 0.727-1.625 3.531-1.406 3.641 0.68zM17.281 11.43c0.039 0.055-0.008 0.195-0.086 0.328 0.031 0.102 0.055 0.203 0.055 0.312 0.023 0.914-1.281 1.852-2.125 1.883-0.5 0.023-1-0.242-1.234-0.68-3.281 0.117-6.563 0.141-9.836 0-0.242 0.438-0.742 0.695-1.242 0.68-0.836-0.031-2.141-0.969-2.125-1.883 0.008-0.109 0.023-0.211 0.055-0.312-0.078-0.133-0.125-0.273-0.086-0.328 0.031-0.047 0.133-0.047 0.242-0.008 0.094-0.148 0.203-0.273 0.32-0.398-0.031-0.133-0.031-0.25 0.016-0.297 0.055-0.047 0.18-0.031 0.305 0.031 0.133-0.094 0.289-0.187 0.461-0.266 0-0.141 0.039-0.25 0.102-0.289 0.094-0.047 0.258-0.016 0.398 0.125 0.164-0.023 0.328-0.023 0.477 0.016 0.102 0.023 0.203 0.078 0.297 0.148v-0.57c-0.047 0-0.086 0-0.141-0.016-0.508-0.094-1.062-0.445-1.187-1.031-0.047-0.195-0.047-0.406 0-0.633 0.094-0.391 0.43-0.617 0.727-0.742 0.023-0.172 0.234-0.406 0.43-0.461 0.219-0.055 0.359 0.133 0.406 0.297h0.102c0.141 0.016 0.367 0.047 0.469 0.18 0.016 0.016 0.031 0.039 0.039 0.055 0.156-0.016 0.32-0.039 0.477-0.055-0.070-0.055-0.148-0.102-0.234-0.133-0.148-0.258-0.398-0.32-0.711-0.336 0-0.023 0-0.047 0.008-0.078-0.57-0.016-1.273-0.164-1.586-0.516-0.359-0.398-0.422-1.078-0.352-1.594 0.062-0.508 0.273-1.094 0.703-1.398 0.242-0.164 0.625-0.023 0.656 0.281 0.016 0.133 0.039 0.586 0.164 0.656 0.141 0.070 0.367 0.102 0.594 0.094 0.234-0.227 0.484-0.422 0.766-0.578-0.43-0.039-0.836 0.047-1.266 0.109l0.367-0.359c0.359-0.344 0.836-0.641 1.273-0.867 0.68-0.344 1.445-0.602 2.203-0.672-0.539-0.227-1.156-0.344-1.727-0.477 2.211-0.469 5.047-0.641 7.062 1.086 0.523 0.445 0.937 1.047 1.234 1.734 0.32 0.039 0.727 0.047 0.945-0.070h0.008c0.125-0.070 0.148-0.516 0.164-0.656 0.031-0.297 0.414-0.445 0.656-0.273 0.43 0.305 0.641 0.891 0.711 1.391 0.062 0.516 0.008 1.195-0.359 1.594-0.312 0.352-0.992 0.508-1.555 0.523v0.078c-0.32 0.008-0.586 0.070-0.742 0.336-0.086 0.031-0.164 0.078-0.242 0.133 0.164 0.016 0.328 0.039 0.484 0.055 0.008-0.023 0.023-0.047 0.039-0.062 0.109-0.125 0.336-0.164 0.469-0.18h0.102c0.047-0.156 0.195-0.344 0.406-0.297s0.406 0.289 0.43 0.461c0.312 0.125 0.641 0.352 0.727 0.742 0.055 0.234 0.047 0.438 0.008 0.633-0.133 0.586-0.688 0.945-1.195 1.031-0.039 0.008-0.094 0.016-0.133 0.016 0 0.195 0 0.383-0.008 0.57 0.094-0.070 0.187-0.125 0.297-0.148 0.148-0.039 0.312-0.039 0.477-0.016 0.141-0.141 0.312-0.172 0.398-0.125 0.062 0.039 0.109 0.148 0.109 0.289 0.164 0.078 0.328 0.172 0.461 0.266 0.125-0.062 0.242-0.078 0.297-0.031 0.047 0.047 0.055 0.164 0.016 0.297 0.117 0.125 0.234 0.258 0.32 0.398 0.109-0.039 0.203-0.039 0.242 0.008zM15.133 3.992c0 0.18-0.039 0.336-0.070 0.422 0.5 0.195 0.758 0.641 0.875 1.031 0.031-0.305-0.078-1.141-0.398-1.477-0.211-0.211-0.406-0.148-0.406 0.023zM14.523 4.773v0c0.375 0.453 0.492 1.203 0.367 1.82 0.312-0.062 0.594-0.18 0.758-0.352 0.055-0.062 0.109-0.141 0.141-0.219-0.031-0.617-0.297-1.234-0.859-1.414-0.094 0.094-0.266 0.141-0.406 0.164v0zM14.234 4.805c-0.109 0-0.234 0-0.344-0.008 0.219 0.594 0.359 1.234 0.414 1.867 0.102 0 0.219-0.008 0.336-0.023 0.172-0.703-0.008-1.492-0.406-1.836zM2.016 5.445c0.117-0.391 0.375-0.836 0.875-1.031-0.031-0.086-0.070-0.242-0.070-0.422 0-0.172-0.203-0.234-0.406-0.023-0.328 0.336-0.43 1.172-0.398 1.477zM2.297 6.242c0.164 0.18 0.445 0.289 0.758 0.352-0.125-0.617-0.008-1.367 0.367-1.82v0 0 0c-0.141-0.023-0.312-0.070-0.406-0.164-0.563 0.18-0.82 0.797-0.859 1.414 0.039 0.078 0.086 0.156 0.141 0.219zM3.68 6.664c0.070-0.641 0.266-1.266 0.57-1.836-0.148 0.031-0.289 0.086-0.43 0.141l-0.352 0.148v-0.008c-0.211 0.406-0.289 0.992-0.156 1.531 0.133 0.016 0.25 0.023 0.367 0.023zM11.203 6.969v0c0.102 0.516 0.141 1.031 0.219 1.547 0.031 0.18 0.086 0.219 0.258 0.133 0.461-0.234 0.656-1.133 0.664-1.648-0.375-0.023-0.758-0.023-1.141-0.031zM9 1.961c-1.211 0-2.203 0.984-2.203 2.195 0 1.219 0.992 2.203 2.203 2.203s2.203-0.984 2.203-2.203c0-1.211-0.992-2.195-2.203-2.195zM10.781 6.953c-0.547-0.008-1.102-0.008-1.648 0v-0.008c-0.008 0.148 0.008 1.102 0.125 1.187 0.32 0.156 1.141 0.133 1.477 0.031 0.156-0.047 0.070-1.070 0.047-1.211zM8.688 8.508c0.133-0.070 0.070-1.313 0.039-1.555v-0.008c-0.563 0.008-1.117 0.008-1.672 0.023-0.055 0.266-0.133 1.414 0.055 1.492 0.375 0.164 1.203 0.148 1.578 0.047zM5.609 7.031c-0.156 0.57 0.008 1.305 0.641 1.586 0.156 0.070 0.25 0.070 0.281-0.125 0.055-0.25 0.070-1.062 0.141-1.508v0c-0.352 0.008-0.711 0.023-1.062 0.047zM4.617 8.016c0.016 0.141-0.109 0.227-0.266 0.281 1.266 1.359 2.68 2.477 4.508 3.078 1.953-0.555 3.344-1.734 4.719-3.094-0.141-0.055-0.25-0.148-0.234-0.266 0.008-0.031 0.016-0.047 0.023-0.070v0 0c-0.258-0.023-0.516-0.055-0.766-0.078-0.273 0.953-1.039 1.531-1.352 0.914-0.078-0.148-0.102-0.336-0.133-0.484-0.109 0.242-0.383 0.234-0.711 0.258-0.383 0.031-0.914 0.039-1.273-0.086-0.086 0.375-0.32 0.375-0.773 0.414-0.406 0.039-1.406 0.117-1.586-0.312-0.031 0.828-1.016 0.289-1.305-0.203-0.094-0.164-0.156-0.328-0.203-0.508-0.227 0.023-0.453 0.047-0.68 0.078 0.016 0.023 0.023 0.055 0.031 0.078zM3.961 12.922c0.016-0.070 0.023-0.148 0.023-0.234-0.164-0.672-0.539-1.438-0.969-1.563-0.648-0.195-1.992 0.68-1.914 1.578 0.367 0.563 1.156 1.031 1.711 1.055 0.516 0.023 1.039-0.32 1.148-0.836zM3.984 11.586c0.094 0.258 0.187 0.602 0.211 0.93 0.969-0.563 2-1.031 3.063-1.359-1.117-0.594-1.969-1.383-2.812-2.227-0.062 0.039-0.148 0.070-0.227 0.102-0.008 0.023-0.008 0.047-0.016 0.070 0.133 0.078 0.227 0.172 0.172 0.289-0.062 0.117-0.25 0.219-0.437 0.266-0.062 0.078-0.148 0.141-0.227 0.187h-0.008c-0.008 0.391-0.008 0.781 0.008 1.172 0.109 0.195 0.203 0.398 0.273 0.57zM4.523 12.883c2.984 0.117 5.969 0.102 8.945 0-1.062-0.617-2.141-1.195-3.344-1.531-0.398 0.18-0.805 0.328-1.219 0.445-0.062 0.023-0.062 0.023-0.125 0-0.344-0.109-0.672-0.234-1.008-0.383-1.164 0.336-2.234 0.844-3.25 1.469h-0.008v0.008c0.008 0 0.008 0 0.008-0.008zM13.773 12.523c0.023-0.328 0.125-0.68 0.219-0.937 0.062-0.172 0.148-0.367 0.258-0.555l-0.008 0.008c0.016-0.398 0.023-0.797 0.023-1.195-0.086-0.047-0.164-0.117-0.234-0.195-0.187-0.039-0.375-0.148-0.438-0.258-0.055-0.117 0.039-0.219 0.172-0.297-0.008-0.016-0.016-0.047-0.016-0.070-0.086-0.023-0.156-0.055-0.219-0.094-0.914 0.852-1.891 1.641-2.992 2.219 1.125 0.336 2.195 0.813 3.234 1.375zM16.836 12.703c0.086-0.898-1.258-1.773-1.914-1.578-0.422 0.125-0.805 0.891-0.969 1.563 0 0.086 0.008 0.164 0.023 0.234 0.109 0.516 0.633 0.859 1.148 0.836 0.555-0.023 1.344-0.492 1.711-1.055z"></path>
</svg>
