<!-- Generated by IcoMoon.io -->
<svg version="1.1" xmlns="http://www.w3.org/2000/svg" width="11" height="14" viewBox="0 0 11 14">
<title>pagelines</title>
<path d="M10.953 8.617c-1.57 3.898-5.336 1.539-5.336 1.539-1.156 2.336-3.063 3.836-5.266 3.844-0.195 0-0.352-0.156-0.352-0.352s0.156-0.344 0.352-0.344c1.836-0.008 3.438-1.219 4.484-3.141-1.172 0.453-3.383 0.797-4.609-2.344 3.109-1.281 4.539 0.32 5.086 1.297 0.281-0.695 0.484-1.453 0.617-2.273 0 0-3.984 0.625-4.266-2.797 3.398-1.367 4.352 2.188 4.352 2.188 0.047-0.477 0.094-1.5 0.094-1.523 0 0-3.031-2.102-1.086-4.711 3.555 1.227 1.75 4.633 1.75 4.633 0.016 0.047 0.016 0.68 0 0.953 0 0 1.289-2.539 3.891-1.641-0.117 3.82-4.047 3.031-4.047 3.031-0.125 0.781-0.32 1.523-0.57 2.211 0 0 2.367-2.617 4.906-0.57z"></path>
</svg>
