<!-- Generated by IcoMoon.io -->
<svg version="1.1" xmlns="http://www.w3.org/2000/svg" width="14" height="14" viewBox="0 0 14 14">
<title>paint-brush</title>
<path d="M12.617 0c0.711 0 1.367 0.531 1.367 1.273 0 0.414-0.164 0.813-0.352 1.18-0.609 1.156-2.656 4.977-3.633 5.875-0.477 0.445-1.039 0.711-1.703 0.711-1.32 0-2.398-1.125-2.398-2.438 0-0.625 0.258-1.234 0.719-1.656l4.984-4.523c0.273-0.25 0.633-0.422 1.016-0.422zM5.516 8.078c0.406 0.789 1.148 1.383 2.008 1.609l0.008 0.555c0.047 2.227-1.5 3.758-3.734 3.758-2.648 0-3.797-2.109-3.797-4.508 0.289 0.195 1.297 1 1.625 1 0.195 0 0.359-0.109 0.43-0.289 0.664-1.734 1.703-2.047 3.461-2.125z"></path>
</svg>
