<!-- Generated by IcoMoon.io -->
<svg version="1.1" xmlns="http://www.w3.org/2000/svg" width="14" height="14" viewBox="0 0 14 14">
<title>paper-plane</title>
<path d="M13.781 0.086c0.164 0.117 0.242 0.305 0.211 0.5l-2 12c-0.023 0.148-0.117 0.273-0.25 0.352-0.070 0.039-0.156 0.062-0.242 0.062-0.062 0-0.125-0.016-0.187-0.039l-3.539-1.445-1.891 2.305c-0.094 0.117-0.234 0.18-0.383 0.18-0.055 0-0.117-0.008-0.172-0.031-0.195-0.070-0.328-0.258-0.328-0.469v-2.727l6.75-8.273-8.352 7.227-3.086-1.266c-0.18-0.070-0.297-0.234-0.312-0.43-0.008-0.187 0.086-0.367 0.25-0.461l13-7.5c0.078-0.047 0.164-0.070 0.25-0.070 0.102 0 0.203 0.031 0.281 0.086z"></path>
</svg>
