<!-- Generated by IcoMoon.io -->
<svg version="1.1" xmlns="http://www.w3.org/2000/svg" width="14" height="14" viewBox="0 0 14 14">
<title>paper-plane-o</title>
<path d="M13.781 0.086c0.164 0.117 0.242 0.305 0.211 0.5l-2 12c-0.023 0.148-0.117 0.273-0.25 0.352-0.070 0.039-0.156 0.062-0.242 0.062-0.062 0-0.125-0.016-0.187-0.039l-4.117-1.68-2.328 2.555c-0.094 0.109-0.227 0.164-0.367 0.164-0.062 0-0.125-0.008-0.18-0.031-0.195-0.078-0.32-0.266-0.32-0.469v-3.531l-3.687-1.508c-0.18-0.070-0.297-0.234-0.312-0.43-0.016-0.187 0.086-0.367 0.25-0.461l13-7.5c0.164-0.102 0.375-0.094 0.531 0.016zM11.109 11.797l1.727-10.336-11.203 6.461 2.625 1.070 6.742-4.992-3.734 6.227z"></path>
</svg>
