<!-- Generated by IcoMoon.io -->
<svg version="1.1" xmlns="http://www.w3.org/2000/svg" width="11" height="14" viewBox="0 0 11 14">
<title>paperclip</title>
<path d="M10.969 10.82c0 1.219-0.93 2.148-2.148 2.148-0.688 0-1.352-0.297-1.836-0.781l-6.070-6.063c-0.555-0.563-0.883-1.328-0.883-2.117 0-1.656 1.305-2.977 2.961-2.977 0.797 0 1.563 0.32 2.133 0.883l4.727 4.734c0.047 0.047 0.078 0.109 0.078 0.172 0 0.164-0.438 0.602-0.602 0.602-0.070 0-0.133-0.031-0.18-0.078l-4.734-4.742c-0.375-0.367-0.883-0.602-1.414-0.602-1.109 0-1.969 0.898-1.969 2 0 0.531 0.219 1.039 0.594 1.414l6.063 6.070c0.297 0.297 0.711 0.492 1.133 0.492 0.664 0 1.156-0.492 1.156-1.156 0-0.43-0.195-0.836-0.492-1.133l-4.539-4.539c-0.125-0.117-0.297-0.187-0.469-0.187-0.297 0-0.523 0.219-0.523 0.523 0 0.172 0.078 0.336 0.195 0.461l3.203 3.203c0.047 0.047 0.078 0.109 0.078 0.172 0 0.164-0.445 0.609-0.609 0.609-0.062 0-0.125-0.031-0.172-0.078l-3.203-3.203c-0.312-0.305-0.492-0.734-0.492-1.164 0-0.859 0.672-1.531 1.531-1.531 0.438 0 0.859 0.18 1.164 0.492l4.539 4.539c0.492 0.484 0.781 1.148 0.781 1.836z"></path>
</svg>
