<!-- Generated by IcoMoon.io -->
<svg version="1.1" xmlns="http://www.w3.org/2000/svg" width="10" height="14" viewBox="0 0 10 14">
<title>paragraph</title>
<path d="M9.984 1.477v0.57c0 0.266-0.211 0.727-0.477 0.727-0.133 0-0.289-0.023-0.422 0.008-0.125 0.031-0.219 0.117-0.25 0.242-0.039 0.148-0.023 0.336-0.023 0.5v9c0 0.266-0.211 0.477-0.477 0.477h-0.844c-0.266 0-0.477-0.211-0.477-0.477v-9.516h-1.117v9.516c0 0.266-0.211 0.477-0.477 0.477h-0.844c-0.266 0-0.477-0.211-0.477-0.477v-3.875c-0.758-0.062-1.406-0.219-1.914-0.461-0.656-0.305-1.156-0.773-1.5-1.398-0.328-0.602-0.5-1.281-0.5-2.023 0-0.867 0.234-1.617 0.688-2.234 0.461-0.617 1.008-1.031 1.633-1.242 0.586-0.195 1.82-0.289 3.258-0.289h3.742c0.266 0 0.477 0.211 0.477 0.477z"></path>
</svg>
