<!-- Generated by IcoMoon.io -->
<svg version="1.1" xmlns="http://www.w3.org/2000/svg" width="12" height="14" viewBox="0 0 12 14">
<title>pause-circle</title>
<path d="M5.5 9.25v-4.5c0-0.141-0.109-0.25-0.25-0.25h-2c-0.141 0-0.25 0.109-0.25 0.25v4.5c0 0.141 0.109 0.25 0.25 0.25h2c0.141 0 0.25-0.109 0.25-0.25zM9 9.25v-4.5c0-0.141-0.109-0.25-0.25-0.25h-2c-0.141 0-0.25 0.109-0.25 0.25v4.5c0 0.141 0.109 0.25 0.25 0.25h2c0.141 0 0.25-0.109 0.25-0.25zM12 7c0 3.313-2.687 6-6 6s-6-2.687-6-6 2.687-6 6-6 6 2.687 6 6z"></path>
</svg>
