<!-- Generated by IcoMoon.io -->
<svg version="1.1" xmlns="http://www.w3.org/2000/svg" width="12" height="14" viewBox="0 0 12 14">
<title>pause-circle-o</title>
<path d="M6 1c3.313 0 6 2.687 6 6s-2.687 6-6 6-6-2.687-6-6 2.687-6 6-6zM6 11.25c2.344 0 4.25-1.906 4.25-4.25s-1.906-4.25-4.25-4.25-4.25 1.906-4.25 4.25 1.906 4.25 4.25 4.25zM6.75 9.5c-0.141 0-0.25-0.109-0.25-0.25v-4.5c0-0.141 0.109-0.25 0.25-0.25h1.5c0.141 0 0.25 0.109 0.25 0.25v4.5c0 0.141-0.109 0.25-0.25 0.25h-1.5zM3.75 9.5c-0.141 0-0.25-0.109-0.25-0.25v-4.5c0-0.141 0.109-0.25 0.25-0.25h1.5c0.141 0 0.25 0.109 0.25 0.25v4.5c0 0.141-0.109 0.25-0.25 0.25h-1.5z"></path>
</svg>
