<!-- Generated by IcoMoon.io -->
<svg version="1.1" xmlns="http://www.w3.org/2000/svg" width="13" height="14" viewBox="0 0 13 14">
<title>paw</title>
<path d="M6.094 3.687c0 0.875-0.453 1.914-1.461 1.914-1.266 0-2.031-1.594-2.031-2.687 0-0.875 0.453-1.914 1.461-1.914 1.273 0 2.031 1.594 2.031 2.687zM3.422 7.461c0 0.758-0.398 1.547-1.258 1.547-1.25 0-2.164-1.531-2.164-2.664 0-0.758 0.406-1.555 1.258-1.555 1.25 0 2.164 1.539 2.164 2.672zM6.5 7.25c1.914 0 4.5 2.758 4.5 4.602 0 0.992-0.813 1.148-1.609 1.148-1.047 0-1.891-0.703-2.891-0.703-1.047 0-1.937 0.695-3.070 0.695-0.758 0-1.43-0.258-1.43-1.141 0-1.852 2.586-4.602 4.5-4.602zM8.367 5.602c-1.008 0-1.461-1.039-1.461-1.914 0-1.094 0.758-2.687 2.031-2.687 1.008 0 1.461 1.039 1.461 1.914 0 1.094-0.766 2.687-2.031 2.687zM11.742 4.789c0.852 0 1.258 0.797 1.258 1.555 0 1.133-0.914 2.664-2.164 2.664-0.859 0-1.258-0.789-1.258-1.547 0-1.133 0.914-2.672 2.164-2.672z"></path>
</svg>
