<!-- Generated by IcoMoon.io -->
<svg version="1.1" xmlns="http://www.w3.org/2000/svg" width="12" height="14" viewBox="0 0 12 14">
<title>paypal</title>
<path d="M11.867 5.047v0c0.102 0.469 0.078 1.008-0.031 1.594-0.508 2.578-2.219 3.469-4.414 3.469h-0.344c-0.266 0-0.484 0.195-0.531 0.461l-0.031 0.148-0.43 2.703-0.016 0.117c-0.055 0.266-0.273 0.461-0.539 0.461h-1.961c-0.219 0-0.359-0.18-0.328-0.398 0.141-0.875 0.273-1.75 0.414-2.625s0.281-1.742 0.422-2.617c0.023-0.187 0.148-0.289 0.336-0.289 0.312 0 0.625-0.008 1.023 0 0.563 0.008 1.211-0.023 1.844-0.164 0.844-0.187 1.609-0.531 2.242-1.125 0.57-0.531 0.953-1.187 1.211-1.922 0.117-0.344 0.211-0.688 0.273-1.039 0.016-0.094 0.039-0.078 0.094-0.039 0.43 0.32 0.672 0.75 0.766 1.266zM10.523 2.844c0 0.641-0.148 1.25-0.359 1.844-0.406 1.18-1.172 2.023-2.359 2.461-0.633 0.227-1.297 0.32-1.969 0.328-0.469 0.008-0.937 0-1.406 0-0.508 0-0.828 0.25-0.922 0.75-0.109 0.594-0.539 3.359-0.664 4.141-0.008 0.055-0.031 0.078-0.094 0.078h-2.305c-0.234 0-0.406-0.203-0.375-0.43l1.812-11.492c0.047-0.297 0.312-0.523 0.617-0.523h4.672c0.336 0 1.109 0.148 1.633 0.352 1.109 0.43 1.719 1.305 1.719 2.492z"></path>
</svg>
