<!-- Generated by IcoMoon.io -->
<svg version="1.1" xmlns="http://www.w3.org/2000/svg" width="12" height="14" viewBox="0 0 12 14">
<title>pencil</title>
<path d="M2.836 12l0.711-0.711-1.836-1.836-0.711 0.711v0.836h1v1h0.836zM6.922 4.75c0-0.102-0.070-0.172-0.172-0.172-0.047 0-0.094 0.016-0.133 0.055l-4.234 4.234c-0.039 0.039-0.055 0.086-0.055 0.133 0 0.102 0.070 0.172 0.172 0.172 0.047 0 0.094-0.016 0.133-0.055l4.234-4.234c0.039-0.039 0.055-0.086 0.055-0.133zM6.5 3.25l3.25 3.25-6.5 6.5h-3.25v-3.25zM11.836 4c0 0.266-0.109 0.523-0.289 0.703l-1.297 1.297-3.25-3.25 1.297-1.289c0.18-0.187 0.438-0.297 0.703-0.297s0.523 0.109 0.711 0.297l1.836 1.828c0.18 0.187 0.289 0.445 0.289 0.711z"></path>
</svg>
