<!-- Generated by IcoMoon.io -->
<svg version="1.1" xmlns="http://www.w3.org/2000/svg" width="12" height="14" viewBox="0 0 12 14">
<title>pencil-square</title>
<path d="M3.156 8.656l1.187 1.187-0.406 0.406h-0.438v-0.75h-0.75v-0.438zM6.391 5.609c0.062 0.055 0.047 0.164-0.023 0.234l-2.273 2.273c-0.070 0.070-0.18 0.086-0.234 0.023-0.062-0.055-0.047-0.164 0.023-0.234l2.273-2.273c0.070-0.070 0.18-0.086 0.234-0.023zM4.25 11l4.25-4.25-2.25-2.25-4.25 4.25v2.25h2.25zM9 6.25l0.719-0.719c0.289-0.289 0.289-0.773 0-1.062l-1.187-1.187c-0.289-0.289-0.773-0.289-1.062 0l-0.719 0.719zM12 3.25v7.5c0 1.242-1.008 2.25-2.25 2.25h-7.5c-1.242 0-2.25-1.008-2.25-2.25v-7.5c0-1.242 1.008-2.25 2.25-2.25h7.5c1.242 0 2.25 1.008 2.25 2.25z"></path>
</svg>
