<!-- Generated by IcoMoon.io -->
<svg version="1.1" xmlns="http://www.w3.org/2000/svg" width="12" height="14" viewBox="0 0 12 14">
<title>percent</title>
<path d="M10 10c0-0.547-0.453-1-1-1s-1 0.453-1 1 0.453 1 1 1 1-0.453 1-1zM4 4c0-0.547-0.453-1-1-1s-1 0.453-1 1 0.453 1 1 1 1-0.453 1-1zM12 10c0 1.656-1.344 3-3 3s-3-1.344-3-3 1.344-3 3-3 3 1.344 3 3zM11.25 1.5c0 0.109-0.039 0.211-0.102 0.297l-8.25 11c-0.094 0.125-0.242 0.203-0.398 0.203h-1.25c-0.273 0-0.5-0.227-0.5-0.5 0-0.109 0.039-0.211 0.102-0.297l8.25-11c0.094-0.125 0.242-0.203 0.398-0.203h1.25c0.273 0 0.5 0.227 0.5 0.5zM6 4c0 1.656-1.344 3-3 3s-3-1.344-3-3 1.344-3 3-3 3 1.344 3 3z"></path>
</svg>
