<!-- Generated by IcoMoon.io -->
<svg version="1.1" xmlns="http://www.w3.org/2000/svg" width="12" height="14" viewBox="0 0 12 14">
<title>phone-square</title>
<path d="M10 9.32c0-0.039 0-0.086-0.016-0.125-0.047-0.141-1.187-0.719-1.406-0.844-0.148-0.086-0.328-0.258-0.508-0.258-0.344 0-0.852 1.023-1.156 1.023-0.156 0-0.352-0.141-0.492-0.219-1.031-0.578-1.742-1.289-2.32-2.32-0.078-0.141-0.219-0.336-0.219-0.492 0-0.305 1.023-0.813 1.023-1.156 0-0.18-0.172-0.359-0.258-0.508-0.125-0.219-0.703-1.359-0.844-1.406-0.039-0.016-0.086-0.016-0.125-0.016-0.203 0-0.602 0.094-0.789 0.172-0.516 0.234-0.891 1.219-0.891 1.758 0 0.523 0.211 1 0.391 1.484 0.625 1.711 2.484 3.57 4.195 4.195 0.484 0.18 0.961 0.391 1.484 0.391 0.539 0 1.523-0.375 1.758-0.891 0.078-0.187 0.172-0.586 0.172-0.789zM12 3.25v7.5c0 1.242-1.008 2.25-2.25 2.25h-7.5c-1.242 0-2.25-1.008-2.25-2.25v-7.5c0-1.242 1.008-2.25 2.25-2.25h7.5c1.242 0 2.25 1.008 2.25 2.25z"></path>
</svg>
