<!-- Generated by IcoMoon.io -->
<svg version="1.1" xmlns="http://www.w3.org/2000/svg" width="11" height="14" viewBox="0 0 11 14">
<title>phone</title>
<path d="M11 9.687c0 0.281-0.125 0.828-0.242 1.086-0.164 0.383-0.602 0.633-0.953 0.828-0.461 0.25-0.93 0.398-1.453 0.398-0.727 0-1.383-0.297-2.047-0.539-0.477-0.172-0.937-0.383-1.367-0.648-1.328-0.82-2.93-2.422-3.75-3.75-0.266-0.43-0.477-0.891-0.648-1.367-0.242-0.664-0.539-1.32-0.539-2.047 0-0.523 0.148-0.992 0.398-1.453 0.195-0.352 0.445-0.789 0.828-0.953 0.258-0.117 0.805-0.242 1.086-0.242 0.055 0 0.109 0 0.164 0.023 0.164 0.055 0.336 0.438 0.414 0.594 0.25 0.445 0.492 0.898 0.75 1.336 0.125 0.203 0.359 0.453 0.359 0.695 0 0.477-1.414 1.172-1.414 1.594 0 0.211 0.195 0.484 0.305 0.672 0.789 1.422 1.773 2.406 3.195 3.195 0.187 0.109 0.461 0.305 0.672 0.305 0.422 0 1.117-1.414 1.594-1.414 0.242 0 0.492 0.234 0.695 0.359 0.438 0.258 0.891 0.5 1.336 0.75 0.156 0.078 0.539 0.25 0.594 0.414 0.023 0.055 0.023 0.109 0.023 0.164z"></path>
</svg>
