<!-- Generated by IcoMoon.io -->
<svg version="1.1" xmlns="http://www.w3.org/2000/svg" width="12" height="14" viewBox="0 0 12 14">
<title>pied-piper-pp</title>
<path d="M8.172 7.969c0 0.664-0.453 1.203-1.008 1.203-0.227 0-0.406-0.039-0.547-0.117v-2.164c0.141-0.086 0.32-0.133 0.547-0.133 0.555 0 1.008 0.539 1.008 1.211zM5.492 4.625c0 0.672-0.453 1.211-1.008 1.211-0.227 0-0.406-0.039-0.547-0.117v-2.164c0.141-0.086 0.32-0.133 0.547-0.133 0.555 0 1.008 0.539 1.008 1.203zM9.883 7.992c0-1.398-1.055-2.531-2.352-2.531-0.102 0-0.203 0.008-0.305 0.023-0.117 0.398-0.32 0.758-0.609 1.062-0.438 0.477-1.023 0.758-1.648 0.789v4.969l1.648-0.32v-1.609c0.273 0.102 0.578 0.148 0.914 0.148 1.297 0 2.352-1.133 2.352-2.531zM7.203 4.656c0-1.398-1.055-2.531-2.359-2.531-0.383 0-0.766 0.102-1.102 0.281h-1.453v6.563l1.648-0.32v-1.609c0.273 0.094 0.578 0.148 0.906 0.148 1.305 0 2.359-1.133 2.359-2.531zM12 3.25v7.5c0 1.242-1.008 2.25-2.25 2.25h-7.5c-1.242 0-2.25-1.008-2.25-2.25v-7.5c0-1.242 1.008-2.25 2.25-2.25h7.5c1.242 0 2.25 1.008 2.25 2.25z"></path>
</svg>
