<!-- Generated by IcoMoon.io -->
<svg version="1.1" xmlns="http://www.w3.org/2000/svg" width="16" height="14" viewBox="0 0 16 14">
<title>pied-piper-alt</title>
<path d="M9.547 7.258c2.031-0.078 3.156 1.594 4.078 3.141 0.547 0.93 1.187 1.477 1.977 2.172-0.844 0.523-1.914 0.875-2.82 1.281-1.5-1.258-0.625-6.25-3.031-6.25l-0.078 0.016-0.047 0.031c0.031 0.039 0.070 0.078 0.102 0.109 0.648 0.547 0.906 0.664 0.945 1.594l0.008 0.258c0.023 0.586-0.148 1.156-0.266 1.727-0.523-0.016-1.031 0.156-1.555 0.156-0.195 0-0.383-0.023-0.563-0.078-0.016-0.125-0.016-0.25-0.016-0.367 0-0.242-0.008-0.516 0.023-0.75 0.039-0.258 0.914-0.813 0.898-1.187-0.148-0.016-0.25 0.070-0.336 0.187-0.359 0.531-1.281 1.141-1.937 1.141-0.453 0-1.531-1.945-2.078-2.336-0.086-0.062-0.141-0.148-0.211-0.234-0.438 0.102-3.789 0.875-4.008 0.875-0.164 0-0.312-0.133-0.312-0.297 0-0.148 0.094-0.289 0.242-0.32l3.797-0.828c-0.258-0.469 0.336-0.477 0.586-0.547 0.086-0.023 0.172-0.109 0.258-0.109 0.172 0 0.32 0.242 0.375 0.383 0.172-0.039 1.242-0.289 1.344-0.289 0.172 0 0.328 0.125 0.328 0.305 0 0.148-0.094 0.281-0.25 0.312l-1.422 0.312-0.008 0.125c-0.008 0.273 1.234 1.633 1.453 1.633 0.492 0 1.492-1.133 1.492-1.633 0-0.836-1.164-0.344-1.164-0.914 0-0.094 0.031-0.18 0.078-0.266l-0.531-0.148c0.242-0.25 0.336-0.57 0.336-0.914 0-0.148-0.016-0.305-0.039-0.453 0.398-0.078 0.727-0.125 1.125-0.125 1.547 0 1.242 0.234 1.781 1.477l0.391-0.195c-0.062 0.93-0.984 0.477-0.953 0.844zM10.016 5.422c-0.305-0.352-0.438-0.523-0.617-0.602-0.187-0.086-0.43-0.062-0.992-0.062-0.586 0-1.164 0.086-1.695 0.336 0.172-0.32 0.359-0.461 0.703-0.594 0.742-0.281 1.094-0.828 1.602-1.391 0.266 0.187 0.383 0.656 0.766 0.633l0.094-0.008v0.594l0.172 0.008c1.016-0.391 2.031-0.82 2.898-1.484 1.313-1 1.438-1.359 2.211-2.719l0.055-0.070c-0.016 0.383-0.172 0.742-0.336 1.086-0.828 1.734-2.141 2.727-3.992 3.172-0.336 0.078-0.719 0.086-1.023 0.242 0.039 0.266 0.359 0.492 0.359 0.625 0 0.094-0.148 0.195-0.203 0.234zM8.289 12.617c0.43-0.281 1.656-0.539 2.172-0.539 0.258 0 0.766 1.227 0.898 1.5-0.609 0.227-1.25 0.352-1.906 0.352-0.328 0-0.656-0.031-0.977-0.086zM6.422 7.563l0.375-0.094 0.852 1.383-0.57 0.375zM10.336 11.602c0.008 0.039 0.023 0.086 0.023 0.125 0 0.203-1.344 0.344-1.586 0.383l-0.055-0.336c0.484-0.055 1.023-0.18 1.508-0.172h0.109zM6.766 6.695l-0.75 0.156-0.047-0.133c0.18-0.016 0.344-0.102 0.523-0.102 0.102 0 0.187 0.023 0.273 0.078zM8.289 11.648h0.242l0.078 0.648-0.32 0.094v-0.742zM15.234 0.008v0 0zM15.234 0.008l-0.008 0.039-0.016 0.016 0.008-0.023zM15.234 0.008l0.008-0.008z"></path>
</svg>
