<!-- Generated by IcoMoon.io -->
<svg version="1.1" xmlns="http://www.w3.org/2000/svg" width="18" height="14" viewBox="0 0 18 14">
<title>pied-piper</title>
<path d="M18 0c-2.273 1.508-2.516 2.602-2.711 2.937-0.187 0.344-0.328 1.695-0.656 2.352-0.328 0.664-1.523 1.187-1.859 1.406-0.328 0.219-0.797 1.070-1.18 1.805-1.727-0.070-3.438 0.352-4.922 1.234 0 0-0.719 0.414-2.367 1.398 0.828-0.273 1.219-0.469 1.219-0.469 2.062-0.789 2.609-1.164 4.273-1.438 1.281-0.211 2.937-0.039 3.633 0.055 0.031 0 0.055 0.016 0.078 0.023 0.109 0.062 0.148 0.195 0.086 0.305l-1.516 2.695c-0.070 0.133-0.219 0.203-0.367 0.172-0.375-0.070-1.234-0.187-2.766-0.187-2.219 0-4.023 0.68-6.203 0.711-1.836 0.023-2.555-0.727-2.734-0.969 0-0.008-0.008-0.016-0.008-0.023 0-0.031 0.016-0.047 0.047-0.047 0 0 1.078 0 2.898-0.43 2.070-3.945 3.914-5.328 5.922-5.328 0 0 2.016 0 2.547 1.742 0.641-1.117 0.797-1.383 0.797-1.383 0.148-0.266 0.984-2.172 2.43-3.977v0c1.453-1.805 2.547-2.25 3.359-2.586z"></path>
</svg>
