<!-- Generated by IcoMoon.io -->
<svg version="1.1" xmlns="http://www.w3.org/2000/svg" width="12" height="14" viewBox="0 0 12 14">
<title>pinterest-square</title>
<path d="M9.75 1c1.242 0 2.25 1.008 2.25 2.25v7.5c0 1.242-1.008 2.25-2.25 2.25h-5.664c0.258-0.367 0.68-1 0.844-1.641 0 0 0.070-0.266 0.414-1.633 0.211 0.398 0.813 0.742 1.453 0.742 1.906 0 3.203-1.742 3.203-4.070 0-1.758-1.492-3.398-3.758-3.398-2.82 0-4.242 2.023-4.242 3.711 0 1.016 0.391 1.922 1.219 2.266 0.133 0.055 0.258 0 0.297-0.148 0.023-0.102 0.086-0.367 0.117-0.477 0.039-0.148 0.023-0.203-0.086-0.328-0.234-0.289-0.391-0.648-0.391-1.172 0-1.5 1.125-2.836 2.922-2.836 1.594 0 2.469 0.969 2.469 2.273 0 1.711-0.758 3.156-1.883 3.156-0.617 0-1.086-0.516-0.937-1.148 0.18-0.75 0.523-1.563 0.523-2.102 0-0.484-0.258-0.891-0.797-0.891-0.633 0-1.141 0.656-1.141 1.531 0 0 0 0.563 0.187 0.945-0.648 2.75-0.766 3.234-0.766 3.234-0.172 0.719-0.102 1.555-0.055 1.984h-1.43c-1.242 0-2.25-1.008-2.25-2.25v-7.5c0-1.242 1.008-2.25 2.25-2.25h7.5z"></path>
</svg>
