<!-- Generated by IcoMoon.io -->
<svg version="1.1" xmlns="http://www.w3.org/2000/svg" width="12" height="14" viewBox="0 0 12 14">
<title>pinterest</title>
<path d="M12 7c0 3.313-2.687 6-6 6-0.594 0-1.156-0.086-1.703-0.25 0.227-0.359 0.484-0.82 0.609-1.281 0 0 0.070-0.266 0.422-1.648 0.203 0.398 0.813 0.75 1.461 0.75 1.93 0 3.242-1.758 3.242-4.117 0-1.773-1.508-3.438-3.805-3.438-2.844 0-4.281 2.047-4.281 3.75 0 1.031 0.391 1.953 1.227 2.297 0.133 0.055 0.258 0 0.297-0.156 0.031-0.102 0.094-0.367 0.125-0.477 0.039-0.156 0.023-0.203-0.086-0.336-0.242-0.289-0.398-0.656-0.398-1.18 0-1.516 1.133-2.875 2.953-2.875 1.609 0 2.5 0.984 2.5 2.305 0 1.727-0.766 3.188-1.906 3.188-0.625 0-1.094-0.516-0.945-1.156 0.18-0.758 0.531-1.578 0.531-2.125 0-0.492-0.266-0.906-0.813-0.906-0.641 0-1.156 0.664-1.156 1.555 0 0 0 0.57 0.195 0.953-0.656 2.781-0.773 3.266-0.773 3.266-0.109 0.453-0.117 0.961-0.102 1.383-2.117-0.93-3.594-3.039-3.594-5.5 0-3.313 2.687-6 6-6s6 2.687 6 6z"></path>
</svg>
