<!-- Generated by IcoMoon.io -->
<svg version="1.1" xmlns="http://www.w3.org/2000/svg" width="10" height="14" viewBox="0 0 10 14">
<title>pinterest-p</title>
<path d="M0 4.664c0-2.883 2.641-4.664 5.312-4.664 2.453 0 4.687 1.688 4.687 4.273 0 2.43-1.242 5.125-4.008 5.125-0.656 0-1.484-0.328-1.805-0.937-0.594 2.352-0.547 2.703-1.859 4.5l-0.109 0.039-0.070-0.078c-0.047-0.492-0.117-0.977-0.117-1.469 0-1.594 0.734-3.898 1.094-5.445-0.195-0.398-0.25-0.883-0.25-1.32 0-0.789 0.547-1.789 1.438-1.789 0.656 0 1.008 0.5 1.008 1.117 0 1.016-0.688 1.969-0.688 2.953 0 0.672 0.555 1.141 1.203 1.141 1.797 0 2.352-2.594 2.352-3.977 0-1.852-1.313-2.859-3.086-2.859-2.062 0-3.656 1.484-3.656 3.578 0 1.008 0.617 1.523 0.617 1.766 0 0.203-0.148 0.922-0.406 0.922-0.039 0-0.094-0.016-0.133-0.023-1.117-0.336-1.523-1.828-1.523-2.852z"></path>
</svg>
