<!-- Generated by IcoMoon.io -->
<svg version="1.1" xmlns="http://www.w3.org/2000/svg" width="11" height="14" viewBox="0 0 11 14">
<title>plane</title>
<path d="M10.75 1.25c0.5 0.5 0 1.75-0.75 2.5l-1.258 1.258 1.25 5.437c0.023 0.094-0.016 0.195-0.094 0.258l-1 0.75c-0.039 0.031-0.094 0.047-0.148 0.047-0.016 0-0.031 0-0.055-0.008-0.070-0.016-0.133-0.055-0.164-0.125l-2.18-3.969-2.023 2.023 0.414 1.516c0.023 0.086 0 0.172-0.062 0.242l-0.75 0.75c-0.047 0.047-0.117 0.070-0.18 0.070h-0.016c-0.078-0.008-0.141-0.039-0.187-0.102l-1.477-1.969-1.969-1.477c-0.062-0.039-0.094-0.109-0.102-0.18s0.023-0.141 0.070-0.195l0.75-0.758c0.047-0.047 0.117-0.070 0.18-0.070 0.023 0 0.047 0 0.062 0.008l1.516 0.414 2.023-2.023-3.969-2.18c-0.070-0.039-0.117-0.109-0.133-0.187-0.008-0.070 0.016-0.156 0.070-0.211l1-1c0.062-0.055 0.156-0.086 0.234-0.062l5.195 1.242 1.25-1.25c0.75-0.75 2-1.25 2.5-0.75z"></path>
</svg>
