<!-- Generated by IcoMoon.io -->
<svg version="1.1" xmlns="http://www.w3.org/2000/svg" width="12" height="14" viewBox="0 0 12 14">
<title>play-circle-o</title>
<path d="M9.25 7c0 0.18-0.094 0.344-0.25 0.43l-4.25 2.5c-0.078 0.047-0.164 0.070-0.25 0.070s-0.172-0.023-0.25-0.062c-0.156-0.094-0.25-0.258-0.25-0.438v-5c0-0.18 0.094-0.344 0.25-0.438 0.156-0.086 0.352-0.086 0.5 0.008l4.25 2.5c0.156 0.086 0.25 0.25 0.25 0.43zM10.25 7c0-2.344-1.906-4.25-4.25-4.25s-4.25 1.906-4.25 4.25 1.906 4.25 4.25 4.25 4.25-1.906 4.25-4.25zM12 7c0 3.313-2.687 6-6 6s-6-2.687-6-6 2.687-6 6-6 6 2.687 6 6z"></path>
</svg>
