<!-- Generated by IcoMoon.io -->
<svg version="1.1" xmlns="http://www.w3.org/2000/svg" width="14" height="14" viewBox="0 0 14 14">
<title>plug</title>
<path d="M13.711 3.539c0.383 0.391 0.383 1.023 0 1.414l-3.133 3.125 1.172 1.172-1.25 1.25c-1.711 1.711-4.32 1.953-6.258 0.672l-2.828 2.828h-1.414v-1.414l2.828-2.828c-1.281-1.937-1.039-4.547 0.672-6.258l1.25-1.25 1.172 1.172 3.125-3.133c0.391-0.383 1.023-0.383 1.414 0 0.391 0.391 0.391 1.031 0 1.414l-3.125 3.133 1.828 1.828 3.133-3.125c0.391-0.391 1.023-0.391 1.414 0z"></path>
</svg>
