<!-- Generated by IcoMoon.io -->
<svg version="1.1" xmlns="http://www.w3.org/2000/svg" width="12" height="14" viewBox="0 0 12 14">
<title>podcast</title>
<path d="M7.766 9.313c0 0.516-0.055 1.031-0.133 1.539-0.117 0.813-0.234 1.648-0.43 2.445-0.141 0.57-0.672 0.703-1.187 0.703s-1.047-0.133-1.187-0.703c-0.195-0.797-0.312-1.633-0.43-2.445-0.078-0.508-0.133-1.023-0.133-1.539 0-1.055 0.852-1.313 1.75-1.313s1.75 0.258 1.75 1.313zM12 6c0 2.531-1.563 4.695-3.781 5.578-0.086 0.031-0.18-0.047-0.164-0.141 0.023-0.164 0.047-0.336 0.078-0.516 0.016-0.125 0.031-0.25 0.047-0.367 0.008-0.047 0.031-0.078 0.070-0.094 1.625-0.828 2.75-2.516 2.75-4.461 0-2.852-2.391-5.148-5.273-4.992-2.641 0.141-4.742 2.391-4.727 5.031 0.016 1.945 1.148 3.625 2.781 4.437 0.039 0.016 0.062 0.055 0.070 0.094 0.016 0.109 0.031 0.227 0.047 0.352 0.031 0.187 0.055 0.359 0.086 0.531 0.016 0.094-0.086 0.172-0.172 0.133-2.32-0.906-3.938-3.219-3.805-5.883 0.148-3.023 2.586-5.5 5.609-5.688 3.484-0.219 6.383 2.547 6.383 5.984zM7.766 5.75c0 0.969-0.781 1.75-1.75 1.75s-1.75-0.781-1.75-1.75 0.781-1.75 1.75-1.75 1.75 0.781 1.75 1.75zM10.016 6c0 1.289-0.617 2.445-1.563 3.172-0.078 0.062-0.187 0.008-0.203-0.094-0.023-0.219-0.086-0.477-0.227-0.719-0.031-0.047-0.023-0.109 0.023-0.156 0.594-0.547 0.969-1.328 0.969-2.203 0-1.766-1.539-3.18-3.344-2.984-1.383 0.156-2.508 1.297-2.641 2.687-0.102 0.984 0.289 1.891 0.953 2.5 0.047 0.047 0.055 0.109 0.023 0.156-0.141 0.242-0.203 0.5-0.227 0.727-0.016 0.094-0.125 0.148-0.203 0.086-0.969-0.75-1.586-1.93-1.563-3.258 0.047-2.078 1.734-3.812 3.805-3.906 2.297-0.109 4.195 1.719 4.195 3.992z"></path>
</svg>
