<!-- Generated by IcoMoon.io -->
<svg version="1.1" xmlns="http://www.w3.org/2000/svg" width="12" height="14" viewBox="0 0 12 14">
<title>power-off</title>
<path d="M12 7c0 3.305-2.695 6-6 6s-6-2.695-6-6c0-1.898 0.875-3.648 2.398-4.789 0.445-0.336 1.070-0.25 1.398 0.195 0.336 0.438 0.242 1.070-0.195 1.398-1.016 0.766-1.602 1.93-1.602 3.195 0 2.203 1.797 4 4 4s4-1.797 4-4c0-1.266-0.586-2.43-1.602-3.195-0.438-0.328-0.531-0.961-0.195-1.398 0.328-0.445 0.961-0.531 1.398-0.195 1.523 1.141 2.398 2.891 2.398 4.789zM7 1v5c0 0.547-0.453 1-1 1s-1-0.453-1-1v-5c0-0.547 0.453-1 1-1s1 0.453 1 1z"></path>
</svg>
