<!-- Generated by IcoMoon.io -->
<svg version="1.1" xmlns="http://www.w3.org/2000/svg" width="13" height="14" viewBox="0 0 13 14">
<title>print</title>
<path d="M3 12h7v-2h-7v2zM3 7h7v-3h-1.25c-0.414 0-0.75-0.336-0.75-0.75v-1.25h-5v5zM12 7.5c0-0.273-0.227-0.5-0.5-0.5s-0.5 0.227-0.5 0.5 0.227 0.5 0.5 0.5 0.5-0.227 0.5-0.5zM13 7.5v3.25c0 0.133-0.117 0.25-0.25 0.25h-1.75v1.25c0 0.414-0.336 0.75-0.75 0.75h-7.5c-0.414 0-0.75-0.336-0.75-0.75v-1.25h-1.75c-0.133 0-0.25-0.117-0.25-0.25v-3.25c0-0.82 0.68-1.5 1.5-1.5h0.5v-4.25c0-0.414 0.336-0.75 0.75-0.75h5.25c0.414 0 0.984 0.234 1.281 0.531l1.187 1.187c0.297 0.297 0.531 0.867 0.531 1.281v2h0.5c0.82 0 1.5 0.68 1.5 1.5z"></path>
</svg>
