<!-- Generated by IcoMoon.io -->
<svg version="1.1" xmlns="http://www.w3.org/2000/svg" width="13" height="14" viewBox="0 0 13 14">
<title>puzzle-piece</title>
<path d="M13 8.578c0 0.805-0.461 1.477-1.313 1.477-0.953 0-1.203-0.867-2.062-0.867-0.625 0-0.859 0.391-0.859 0.969 0 0.609 0.25 1.195 0.242 1.797v0.039c-0.086 0-0.172 0-0.258 0.008-0.805 0.078-1.617 0.234-2.43 0.234-0.555 0-1.133-0.219-1.133-0.859 0-0.859 0.867-1.109 0.867-2.062 0-0.852-0.672-1.313-1.477-1.313-0.82 0-1.578 0.453-1.578 1.352 0 0.992 0.758 1.422 0.758 1.961 0 0.273-0.172 0.516-0.359 0.695-0.242 0.227-0.586 0.273-0.914 0.273-0.641 0-1.281-0.086-1.914-0.187-0.141-0.023-0.289-0.039-0.43-0.062l-0.102-0.016c-0.016-0.008-0.039-0.008-0.039-0.016v-8c0.031 0.023 0.492 0.078 0.57 0.094 0.633 0.102 1.273 0.187 1.914 0.187 0.328 0 0.672-0.047 0.914-0.273 0.187-0.18 0.359-0.422 0.359-0.695 0-0.539-0.758-0.969-0.758-1.961 0-0.898 0.758-1.352 1.586-1.352 0.797 0 1.469 0.461 1.469 1.313 0 0.953-0.867 1.203-0.867 2.062 0 0.641 0.578 0.859 1.133 0.859 0.898 0 1.789-0.203 2.68-0.25v0.016c-0.023 0.031-0.078 0.492-0.094 0.57-0.102 0.633-0.187 1.273-0.187 1.914 0 0.328 0.047 0.672 0.273 0.914 0.18 0.187 0.422 0.359 0.695 0.359 0.539 0 0.969-0.758 1.961-0.758 0.898 0 1.352 0.758 1.352 1.578z"></path>
</svg>
