<!-- Generated by IcoMoon.io -->
<svg version="1.1" xmlns="http://www.w3.org/2000/svg" width="14" height="14" viewBox="0 0 14 14">
<title>qq</title>
<path d="M2.109 6.297c-0.055-0.133-0.062-0.266-0.062-0.406 0-0.219 0.141-0.57 0.273-0.734-0.008-0.203 0.078-0.617 0.234-0.75 0-1.445 1.117-3.266 2.422-3.891 0.805-0.383 1.648-0.516 2.531-0.516 0.688 0 1.438 0.164 2.078 0.43 1.836 0.773 2.25 2.211 2.641 4.047l0.008 0.039c0.227 0.344 0.43 0.75 0.43 1.172 0 0.211-0.141 0.422-0.141 0.609 0 0.016 0.047 0.078 0.055 0.094 0.672 0.992 1.281 2.070 1.281 3.305 0 0.273-0.148 1.227-0.586 1.227-0.305 0-0.641-0.742-0.75-0.945-0.008-0.008-0.016-0.008-0.023-0.008l-0.039 0.031c-0.25 0.648-0.523 1.258-1.031 1.742 0.445 0.43 1.164 0.391 1.297 1.133-0.039 0.086-0.023 0.18-0.086 0.266-0.445 0.672-1.641 0.758-2.359 0.758-0.953 0-1.727-0.25-2.625-0.516-0.187-0.055-0.469-0.023-0.672-0.047-0.477 0.523-1.641 0.664-2.313 0.664-0.594 0-2.891-0.039-2.891-1.055 0-0.438 0.094-0.563 0.398-0.844 0.242-0.047 0.422-0.18 0.703-0.195 0.039 0 0.070-0.008 0.109-0.016 0.008-0.008 0.016-0.008 0.016-0.031l-0.016-0.023c-0.539-0.125-1.297-1.484-1.414-2.047l-0.039-0.023c-0.055 0-0.078 0.117-0.094 0.156-0.172 0.398-0.578 0.828-1.031 0.875h-0.008c-0.062 0-0.039-0.062-0.086-0.078-0.109-0.258-0.18-0.492-0.18-0.781 0-1.563 0.75-2.719 1.969-3.641z"></path>
</svg>
