<!-- Generated by IcoMoon.io -->
<svg version="1.1" xmlns="http://www.w3.org/2000/svg" width="12" height="14" viewBox="0 0 12 14">
<title>question-circle</title>
<path d="M7 10.75v-1.5c0-0.141-0.109-0.25-0.25-0.25h-1.5c-0.141 0-0.25 0.109-0.25 0.25v1.5c0 0.141 0.109 0.25 0.25 0.25h1.5c0.141 0 0.25-0.109 0.25-0.25zM9 5.5c0-1.43-1.5-2.5-2.844-2.5-1.273 0-2.227 0.547-2.898 1.664-0.070 0.109-0.039 0.25 0.062 0.328l1.031 0.781c0.039 0.031 0.094 0.047 0.148 0.047 0.070 0 0.148-0.031 0.195-0.094 0.367-0.469 0.523-0.609 0.672-0.719 0.133-0.094 0.391-0.187 0.672-0.187 0.5 0 0.961 0.32 0.961 0.664 0 0.406-0.211 0.609-0.688 0.828-0.555 0.25-1.313 0.898-1.313 1.656v0.281c0 0.141 0.109 0.25 0.25 0.25h1.5c0.141 0 0.25-0.109 0.25-0.25v0c0-0.18 0.227-0.563 0.594-0.773 0.594-0.336 1.406-0.789 1.406-1.977zM12 7c0 3.313-2.687 6-6 6s-6-2.687-6-6 2.687-6 6-6 6 2.687 6 6z"></path>
</svg>
