<!-- Generated by IcoMoon.io -->
<svg version="1.1" xmlns="http://www.w3.org/2000/svg" width="12" height="14" viewBox="0 0 12 14">
<title>question-circle-o</title>
<path d="M6.875 9.375v1.25c0 0.141-0.109 0.25-0.25 0.25h-1.25c-0.141 0-0.25-0.109-0.25-0.25v-1.25c0-0.141 0.109-0.25 0.25-0.25h1.25c0.141 0 0.25 0.109 0.25 0.25zM8.875 5.5c0 1.109-0.773 1.547-1.344 1.867-0.406 0.234-0.656 0.383-0.656 0.633v0.25c0 0.141-0.109 0.25-0.25 0.25h-1.25c-0.141 0-0.25-0.109-0.25-0.25v-0.531c0-0.961 0.688-1.266 1.242-1.516 0.469-0.219 0.758-0.367 0.758-0.719 0-0.453-0.57-0.789-1.086-0.789-0.273 0-0.563 0.086-0.742 0.211-0.172 0.117-0.336 0.289-0.625 0.648-0.047 0.062-0.117 0.094-0.195 0.094-0.055 0-0.109-0.016-0.148-0.047l-0.844-0.641c-0.102-0.078-0.125-0.227-0.055-0.336 0.641-1.008 1.539-1.5 2.727-1.5v0c1.281 0 2.719 1.016 2.719 2.375zM6 2c-2.758 0-5 2.242-5 5s2.242 5 5 5 5-2.242 5-5-2.242-5-5-5zM12 7c0 3.313-2.687 6-6 6s-6-2.687-6-6 2.687-6 6-6v0c3.313 0 6 2.687 6 6z"></path>
</svg>
