<!-- Generated by IcoMoon.io -->
<svg version="1.1" xmlns="http://www.w3.org/2000/svg" width="9" height="14" viewBox="0 0 9 14">
<title>question</title>
<path d="M5.5 9.812v1.875c0 0.172-0.141 0.312-0.312 0.312h-1.875c-0.172 0-0.312-0.141-0.312-0.312v-1.875c0-0.172 0.141-0.312 0.312-0.312h1.875c0.172 0 0.312 0.141 0.312 0.312zM7.969 5.125c0 1.484-1.008 2.055-1.75 2.469-0.461 0.266-0.75 0.805-0.75 1.031v0c0 0.172-0.133 0.375-0.312 0.375h-1.875c-0.172 0-0.281-0.266-0.281-0.438v-0.352c0-0.945 0.937-1.758 1.625-2.070 0.602-0.273 0.852-0.531 0.852-1.031 0-0.438-0.57-0.828-1.203-0.828-0.352 0-0.672 0.109-0.844 0.227-0.187 0.133-0.375 0.32-0.836 0.898-0.062 0.078-0.156 0.125-0.242 0.125-0.070 0-0.133-0.023-0.195-0.062l-1.281-0.977c-0.133-0.102-0.164-0.273-0.078-0.414 0.844-1.398 2.031-2.078 3.625-2.078 1.672 0 3.547 1.336 3.547 3.125z"></path>
</svg>
