<!-- Generated by IcoMoon.io -->
<svg version="1.1" xmlns="http://www.w3.org/2000/svg" width="14" height="14" viewBox="0 0 14 14">
<title>quora</title>
<path d="M9.805 6.148c0-3.258-1.016-4.93-3.398-4.93-2.344 0-3.359 1.672-3.359 4.93 0 3.242 1.016 4.898 3.359 4.898 0.375 0 0.711-0.039 1.023-0.133v0c-0.484-0.953-1.055-1.914-2.164-1.914-0.211 0-0.422 0.031-0.617 0.125l-0.383-0.758c0.461-0.398 1.203-0.711 2.156-0.711 1.492 0 2.25 0.719 2.859 1.633 0.352-0.781 0.523-1.836 0.523-3.141zM12.852 11.086h0.914c0.055 0.563-0.227 2.914-2.781 2.914-1.547 0-2.359-0.898-2.977-1.945v0c-0.508 0.141-1.055 0.211-1.602 0.211-3.125 0-6.18-2.492-6.18-6.117 0-3.656 3.063-6.148 6.18-6.148 3.18 0 6.203 2.477 6.203 6.148 0 2.047-0.953 3.711-2.336 4.781 0.445 0.672 0.906 1.117 1.547 1.117 0.703 0 0.984-0.539 1.031-0.961z"></path>
</svg>
