<!-- Generated by IcoMoon.io -->
<svg version="1.1" xmlns="http://www.w3.org/2000/svg" width="13" height="14" viewBox="0 0 13 14">
<title>quote-left</title>
<path d="M6 7.5v3c0 0.828-0.672 1.5-1.5 1.5h-3c-0.828 0-1.5-0.672-1.5-1.5v-5.5c0-2.203 1.797-4 4-4h0.5c0.273 0 0.5 0.227 0.5 0.5v1c0 0.273-0.227 0.5-0.5 0.5h-0.5c-1.102 0-2 0.898-2 2v0.25c0 0.414 0.336 0.75 0.75 0.75h1.75c0.828 0 1.5 0.672 1.5 1.5zM13 7.5v3c0 0.828-0.672 1.5-1.5 1.5h-3c-0.828 0-1.5-0.672-1.5-1.5v-5.5c0-2.203 1.797-4 4-4h0.5c0.273 0 0.5 0.227 0.5 0.5v1c0 0.273-0.227 0.5-0.5 0.5h-0.5c-1.102 0-2 0.898-2 2v0.25c0 0.414 0.336 0.75 0.75 0.75h1.75c0.828 0 1.5 0.672 1.5 1.5z"></path>
</svg>
