<!-- Generated by IcoMoon.io -->
<svg version="1.1" xmlns="http://www.w3.org/2000/svg" width="13" height="14" viewBox="0 0 13 14">
<title>quote-right</title>
<path d="M6 2.5v5.5c0 2.203-1.797 4-4 4h-0.5c-0.273 0-0.5-0.227-0.5-0.5v-1c0-0.273 0.227-0.5 0.5-0.5h0.5c1.102 0 2-0.898 2-2v-0.25c0-0.414-0.336-0.75-0.75-0.75h-1.75c-0.828 0-1.5-0.672-1.5-1.5v-3c0-0.828 0.672-1.5 1.5-1.5h3c0.828 0 1.5 0.672 1.5 1.5zM13 2.5v5.5c0 2.203-1.797 4-4 4h-0.5c-0.273 0-0.5-0.227-0.5-0.5v-1c0-0.273 0.227-0.5 0.5-0.5h0.5c1.102 0 2-0.898 2-2v-0.25c0-0.414-0.336-0.75-0.75-0.75h-1.75c-0.828 0-1.5-0.672-1.5-1.5v-3c0-0.828 0.672-1.5 1.5-1.5h3c0.828 0 1.5 0.672 1.5 1.5z"></path>
</svg>
