<!-- Generated by IcoMoon.io -->
<svg version="1.1" xmlns="http://www.w3.org/2000/svg" width="14" height="14" viewBox="0 0 14 14">
<title>ra</title>
<path d="M0.148 6.828c0.078-2.234 1.219-4.297 3.289-5.656 0.008 0 0.055-0.016 0.031 0.023-0.164 0.156-3.141 3.664-0.398 6.391 1.406 1.398 2.539 0.070 2.539 0.070 1.086-1.414-0.016-3.555-0.016-3.555-0.281-0.703-1.289-1.133-1.289-1.133l0.813-0.898c0.688 0.297 1.219 1.094 1.219 1.094 0.023-0.836-0.617-1.734-0.617-1.734l1.258-1.43 1.25 1.414c-0.578 0.813-0.617 1.766-0.617 1.766 0.391-0.648 1.227-1.109 1.227-1.109l0.805 0.898c-0.773 0.25-1.281 1.125-1.281 1.125-0.445 0.805-0.766 2.523 0.016 3.594 0.914 1.258 2.477-0.078 2.477-0.078 2.898-2.594-0.297-6.352-0.297-6.352-0.172-0.156 0.023-0.078 0.023-0.078 1.414 1.031 3.234 2.383 3.281 5.781 0.055 4.109-2.82 7.039-6.844 7.039-3.93 0-6.984-3.281-6.867-7.172z"></path>
</svg>
