<!-- Generated by IcoMoon.io -->
<svg version="1.1" xmlns="http://www.w3.org/2000/svg" width="14" height="14" viewBox="0 0 14 14">
<title>random</title>
<path d="M5.203 3.758c-0.438 0.672-0.758 1.398-1.070 2.133-0.453-0.945-0.953-1.891-2.133-1.891h-1.75c-0.141 0-0.25-0.109-0.25-0.25v-1.5c0-0.141 0.109-0.25 0.25-0.25h1.75c1.391 0 2.414 0.648 3.203 1.758zM14 10c0 0.062-0.023 0.133-0.070 0.18l-2.5 2.5c-0.047 0.047-0.117 0.070-0.18 0.070-0.133 0-0.25-0.117-0.25-0.25v-1.5c-2.32 0-3.75 0.273-5.195-1.758 0.43-0.672 0.75-1.398 1.062-2.133 0.453 0.945 0.953 1.891 2.133 1.891h2v-1.5c0-0.141 0.109-0.25 0.25-0.25 0.070 0 0.133 0.031 0.187 0.078l2.492 2.492c0.047 0.047 0.070 0.117 0.070 0.18zM14 3c0 0.062-0.023 0.133-0.070 0.18l-2.5 2.5c-0.047 0.047-0.117 0.070-0.18 0.070-0.133 0-0.25-0.109-0.25-0.25v-1.5h-2c-1.039 0-1.531 0.711-1.969 1.555-0.227 0.438-0.422 0.891-0.609 1.336-0.867 2.016-1.883 4.109-4.422 4.109h-1.75c-0.141 0-0.25-0.109-0.25-0.25v-1.5c0-0.141 0.109-0.25 0.25-0.25h1.75c1.039 0 1.531-0.711 1.969-1.555 0.227-0.438 0.422-0.891 0.609-1.336 0.867-2.016 1.883-4.109 4.422-4.109h2v-1.5c0-0.141 0.109-0.25 0.25-0.25 0.070 0 0.133 0.031 0.187 0.078l2.492 2.492c0.047 0.047 0.070 0.117 0.070 0.18z"></path>
</svg>
