<!-- Generated by IcoMoon.io -->
<svg version="1.1" xmlns="http://www.w3.org/2000/svg" width="17" height="14" viewBox="0 0 17 14">
<title>ravelry</title>
<path d="M8.93 13.539c-0.031-0.008-0.055-0.016-0.086-0.031 0 0-2.57-1.508-3.438-3.945-0.289-0.047-0.898-0.187-1.367-0.289v0c0.68 2.211 2.57 3.898 4.891 4.266zM3.922 8.805l1.313 0.219c-0.445-1.336-0.5-2.859-0.5-2.859-0.523 0.508-0.805 1.203-0.945 1.75v0c0.023 0.305 0.062 0.602 0.133 0.891zM4.781 4.047v0c-0.242 0.359-0.438 0.75-0.602 1.156 0.258-0.273 0.469-0.453 0.578-0.531-0.016-0.234 0.023-0.625 0.023-0.625zM16.008 7.438c0-3.406-2.75-6.172-6.125-6.172-1.563 0-2.984 0.594-4.070 1.57-0.164 0.32-0.273 0.727-0.352 1.25 1.664-1.414 4.633-1.062 4.633-1.062 0.742 0.031 0.656 0.688 0.648 0.891-2.703-0.227-4.031 0.547-5.344 1.664 0 0 0.258 2.5 0.852 3.516 3.422 0.156 6.023-1.703 6.023-1.703 0.328-0.234 0.617-0.258 0.68 0.148 0.047 0.328 0.070 0.773-0.305 0.945-1.141 0.531-2.398 0.867-3.648 1.047-0.813 0.117-1.266 0.148-2.477 0.125 1.156 2.687 4.047 3.422 4.047 3.422 0.906 0.148 1.594 0.031 2.055-0.117v0c2-1.016 3.383-3.109 3.383-5.523zM16.586 7.148c-0.055 0.531-0.141 1.148-0.312 1.656-0.703 2.086-1.68 3.445-3.906 4.687-0.203 0.141-0.422 0.273-0.641 0.344-0.398 0.141-0.828 0.172-1.273 0.125-0.187 0.016-0.375 0.023-0.57 0.023-2.977 0-5.492-2.031-6.25-4.805-0.023 0-0.047-0.008-0.070-0.008-0.18 1.406 0.859 3.305 0.859 3.305s0.062 0.094 0.422 0.641c-1.992-1.055-2.047-4.164-2.047-4.164-0.477-0.18-2.133-0.742-2.422-1.203 0 0 1.297 0.711 2.414 0.852-0.008-0.008 0.016-0.25 0.016-0.25 0.070-0.953 0.398-1.695 0.734-2.266 0.219-1.070 0.703-2.039 1.375-2.852 0.117-0.484 0.305-1.062 0.633-1.672 0.141-0.266 0.273-0.438 0.633-0.602 2.375-1.109 4.719-1.391 7.125-0.141v0c2.305 1.203 3.555 3.719 3.281 6.328z"></path>
</svg>
