<!-- Generated by IcoMoon.io -->
<svg version="1.1" xmlns="http://www.w3.org/2000/svg" width="14" height="14" viewBox="0 0 14 14">
<title>recycle</title>
<path d="M6.531 9.133l-0.117 2.875-0.016 0.172-3.281-0.227c-0.406-0.031-0.742-0.414-0.891-0.758-0.312-0.727 0.094-1.586 0.328-2.281 0 0 0.602 0.094 3.977 0.219zM3.508 4.555l1.406 2.961-1.148-0.719c-1.758 2.008-1.922 3.5-1.922 3.5l-1.484-2.789c-0.305-0.453-0.031-0.945-0.031-0.945s0.273-0.492 0.891-1.469l-1.094-0.672zM13.125 8.594l-1.469 2.805c-0.203 0.508-0.766 0.555-0.766 0.555s-0.555 0.055-1.711 0.094l0.062 1.281-1.797-2.867 1.648-2.828 0.055 1.352c2.648 0.32 3.977-0.391 3.977-0.391zM6.992 1.375c0 0-0.367 0.484-2.070 3.398l-2.477-1.461-0.148-0.094 1.758-2.781c0.219-0.344 0.711-0.469 1.094-0.43 0.781 0.070 1.344 0.828 1.844 1.367zM12.109 3.773l1.656 2.836c0.211 0.352 0.086 0.844-0.117 1.172-0.422 0.656-1.359 0.813-2.062 1.008 0 0-0.266-0.555-2.070-3.406l2.445-1.523zM10.992 2.008l1.109-0.648-1.719 2.914-3.273-0.156 1.18-0.672c-0.937-2.492-2.18-3.352-2.18-3.352l3.164 0.008c0.547-0.047 0.844 0.422 0.844 0.422s0.305 0.477 0.875 1.484z"></path>
</svg>
