<!-- Generated by IcoMoon.io -->
<svg version="1.1" xmlns="http://www.w3.org/2000/svg" width="14" height="14" viewBox="0 0 14 14">
<title>reddit</title>
<path d="M8.555 9.117c0.070 0.070 0.070 0.18 0 0.242-0.445 0.445-1.305 0.484-1.555 0.484s-1.109-0.039-1.555-0.484c-0.070-0.062-0.070-0.172 0-0.242 0.062-0.062 0.172-0.062 0.234 0 0.281 0.289 0.891 0.383 1.32 0.383s1.031-0.094 1.32-0.383c0.062-0.062 0.172-0.062 0.234 0zM6.156 7.703c0 0.383-0.312 0.695-0.695 0.695-0.391 0-0.703-0.312-0.703-0.695 0-0.391 0.312-0.703 0.703-0.703 0.383 0 0.695 0.312 0.695 0.703zM9.242 7.703c0 0.383-0.312 0.695-0.703 0.695-0.383 0-0.695-0.312-0.695-0.695 0-0.391 0.312-0.703 0.695-0.703 0.391 0 0.703 0.312 0.703 0.703zM11.203 6.766c0-0.516-0.422-0.93-0.937-0.93-0.266 0-0.5 0.109-0.672 0.281-0.633-0.438-1.484-0.719-2.43-0.75l0.492-2.211 1.563 0.352c0 0.383 0.312 0.695 0.695 0.695 0.391 0 0.703-0.32 0.703-0.703s-0.312-0.703-0.703-0.703c-0.273 0-0.508 0.164-0.625 0.391l-1.727-0.383c-0.086-0.023-0.172 0.039-0.195 0.125l-0.539 2.438c-0.937 0.039-1.781 0.32-2.414 0.758-0.172-0.18-0.414-0.289-0.68-0.289-0.516 0-0.937 0.414-0.937 0.93 0 0.375 0.219 0.688 0.531 0.844-0.031 0.141-0.047 0.289-0.047 0.438 0 1.484 1.672 2.687 3.727 2.687 2.062 0 3.734-1.203 3.734-2.687 0-0.148-0.016-0.305-0.055-0.445 0.305-0.156 0.516-0.469 0.516-0.836zM14 7c0 3.867-3.133 7-7 7s-7-3.133-7-7 3.133-7 7-7 7 3.133 7 7z"></path>
</svg>
