<!-- Generated by IcoMoon.io -->
<svg version="1.1" xmlns="http://www.w3.org/2000/svg" width="14" height="14" viewBox="0 0 14 14">
<title>reddit-alien</title>
<path d="M14 6.609c0 0.609-0.344 1.133-0.852 1.391 0.062 0.242 0.094 0.492 0.094 0.75 0 2.469-2.789 4.469-6.227 4.469-3.43 0-6.219-2-6.219-4.469 0-0.25 0.031-0.5 0.086-0.734-0.523-0.258-0.883-0.789-0.883-1.406 0-0.859 0.695-1.555 1.555-1.555 0.445 0 0.844 0.187 1.133 0.492 1.055-0.734 2.461-1.211 4.023-1.266l0.906-4.070c0.031-0.141 0.18-0.234 0.32-0.203l2.883 0.633c0.187-0.375 0.586-0.641 1.039-0.641 0.648 0 1.172 0.523 1.172 1.164 0 0.648-0.523 1.172-1.172 1.172-0.641 0-1.164-0.523-1.164-1.164l-2.609-0.578-0.813 3.687c1.57 0.047 2.992 0.516 4.055 1.25 0.281-0.297 0.68-0.477 1.117-0.477 0.859 0 1.555 0.695 1.555 1.555zM3.266 8.164c0 0.648 0.523 1.172 1.164 1.172 0.648 0 1.172-0.523 1.172-1.172 0-0.641-0.523-1.164-1.172-1.164-0.641 0-1.164 0.523-1.164 1.164zM9.594 10.938c0.117-0.117 0.117-0.289 0-0.406-0.109-0.109-0.289-0.109-0.398 0-0.469 0.477-1.477 0.641-2.195 0.641s-1.727-0.164-2.195-0.641c-0.109-0.109-0.289-0.109-0.398 0-0.117 0.109-0.117 0.289 0 0.406 0.742 0.742 2.172 0.797 2.594 0.797s1.852-0.055 2.594-0.797zM9.57 9.336c0.641 0 1.164-0.523 1.164-1.172 0-0.641-0.523-1.164-1.164-1.164-0.648 0-1.172 0.523-1.172 1.164 0 0.648 0.523 1.172 1.172 1.172z"></path>
</svg>
