<!-- Generated by IcoMoon.io -->
<svg version="1.1" xmlns="http://www.w3.org/2000/svg" width="12" height="14" viewBox="0 0 12 14">
<title>reddit-square</title>
<path d="M7.336 8.82c0.055 0.055 0.055 0.148 0 0.203-0.383 0.383-1.117 0.414-1.336 0.414s-0.953-0.031-1.336-0.414c-0.055-0.055-0.055-0.148 0-0.203 0.055-0.062 0.148-0.062 0.203 0 0.242 0.242 0.766 0.328 1.133 0.328s0.891-0.086 1.133-0.328c0.055-0.062 0.148-0.062 0.203 0zM5.281 7.602c0 0.328-0.273 0.602-0.602 0.602s-0.602-0.273-0.602-0.602c0-0.336 0.273-0.602 0.602-0.602s0.602 0.266 0.602 0.602zM7.922 7.602c0 0.328-0.273 0.602-0.602 0.602s-0.602-0.273-0.602-0.602c0-0.336 0.273-0.602 0.602-0.602s0.602 0.266 0.602 0.602zM9.602 6.797c0-0.438-0.359-0.797-0.805-0.797-0.219 0-0.422 0.094-0.57 0.242-0.547-0.375-1.281-0.617-2.086-0.641l0.422-1.898 1.336 0.305c0.008 0.328 0.273 0.594 0.602 0.594s0.602-0.273 0.602-0.602-0.273-0.602-0.602-0.602c-0.234 0-0.438 0.133-0.539 0.336l-1.477-0.328c-0.078-0.023-0.148 0.031-0.164 0.102l-0.469 2.094c-0.805 0.031-1.531 0.273-2.070 0.648-0.148-0.156-0.352-0.25-0.578-0.25-0.445 0-0.805 0.359-0.805 0.797 0 0.32 0.187 0.594 0.453 0.727-0.023 0.117-0.039 0.25-0.039 0.375 0 1.273 1.43 2.305 3.195 2.305s3.203-1.031 3.203-2.305c0-0.133-0.016-0.258-0.047-0.383 0.258-0.133 0.438-0.406 0.438-0.719zM12 3.25v7.5c0 1.242-1.008 2.25-2.25 2.25h-7.5c-1.242 0-2.25-1.008-2.25-2.25v-7.5c0-1.242 1.008-2.25 2.25-2.25h7.5c1.242 0 2.25 1.008 2.25 2.25z"></path>
</svg>
