<!-- Generated by IcoMoon.io -->
<svg version="1.1" xmlns="http://www.w3.org/2000/svg" width="12" height="14" viewBox="0 0 12 14">
<title>refresh</title>
<path d="M11.805 8.25c0 0.016 0 0.039-0.008 0.055-0.664 2.766-2.945 4.695-5.828 4.695-1.523 0-3-0.602-4.109-1.656l-1.008 1.008c-0.094 0.094-0.219 0.148-0.352 0.148-0.273 0-0.5-0.227-0.5-0.5v-3.5c0-0.273 0.227-0.5 0.5-0.5h3.5c0.273 0 0.5 0.227 0.5 0.5 0 0.133-0.055 0.258-0.148 0.352l-1.070 1.070c0.734 0.688 1.711 1.078 2.719 1.078 1.391 0 2.68-0.719 3.406-1.906 0.187-0.305 0.281-0.602 0.414-0.914 0.039-0.109 0.117-0.18 0.234-0.18h1.5c0.141 0 0.25 0.117 0.25 0.25zM12 2v3.5c0 0.273-0.227 0.5-0.5 0.5h-3.5c-0.273 0-0.5-0.227-0.5-0.5 0-0.133 0.055-0.258 0.148-0.352l1.078-1.078c-0.742-0.688-1.719-1.070-2.727-1.070-1.391 0-2.68 0.719-3.406 1.906-0.187 0.305-0.281 0.602-0.414 0.914-0.039 0.109-0.117 0.18-0.234 0.18h-1.555c-0.141 0-0.25-0.117-0.25-0.25v-0.055c0.672-2.773 2.977-4.695 5.859-4.695 1.531 0 3.023 0.609 4.133 1.656l1.016-1.008c0.094-0.094 0.219-0.148 0.352-0.148 0.273 0 0.5 0.227 0.5 0.5z"></path>
</svg>
