<!-- Generated by IcoMoon.io -->
<svg version="1.1" xmlns="http://www.w3.org/2000/svg" width="14" height="14" viewBox="0 0 14 14">
<title>registered</title>
<path d="M8.141 5.492c0-0.453-0.156-0.773-0.469-0.945-0.156-0.086-0.375-0.141-0.914-0.141h-0.961v2.195h1.266c0.688 0 1.078-0.406 1.078-1.109zM8.547 7.719l1.602 2.914c0.039 0.078 0.039 0.172-0.008 0.242-0.039 0.078-0.125 0.125-0.211 0.125h-1.187c-0.094 0-0.18-0.047-0.219-0.133l-1.516-2.852h-1.211v2.734c0 0.141-0.109 0.25-0.25 0.25h-1.047c-0.141 0-0.25-0.109-0.25-0.25v-7.5c0-0.141 0.109-0.25 0.25-0.25h2.297c0.82 0 1.18 0.070 1.484 0.187 0.883 0.328 1.43 1.195 1.43 2.258 0 0.961-0.477 1.773-1.234 2.148 0.023 0.039 0.047 0.078 0.070 0.125zM7 1.25c-3.172 0-5.75 2.578-5.75 5.75s2.578 5.75 5.75 5.75 5.75-2.578 5.75-5.75-2.578-5.75-5.75-5.75zM14 7c0 3.867-3.133 7-7 7s-7-3.133-7-7 3.133-7 7-7v0c3.867 0 7 3.133 7 7z"></path>
</svg>
