<!-- Generated by IcoMoon.io -->
<svg version="1.1" xmlns="http://www.w3.org/2000/svg" width="15" height="14" viewBox="0 0 15 14">
<title>retweet</title>
<path d="M10 11.75c0 0.133-0.117 0.25-0.25 0.25h-7.5c-0.289 0-0.25-0.305-0.25-0.5v-4.5h-1.5c-0.273 0-0.5-0.227-0.5-0.5 0-0.117 0.039-0.234 0.117-0.32l2.5-3c0.094-0.109 0.234-0.172 0.383-0.172s0.289 0.062 0.383 0.172l2.5 3c0.078 0.086 0.117 0.203 0.117 0.32 0 0.273-0.227 0.5-0.5 0.5h-1.5v3h4.5c0.070 0 0.148 0.031 0.195 0.086l1.25 1.5c0.031 0.047 0.055 0.109 0.055 0.164zM15 8.5c0 0.117-0.039 0.234-0.117 0.32l-2.5 3c-0.094 0.109-0.234 0.18-0.383 0.18s-0.289-0.070-0.383-0.18l-2.5-3c-0.078-0.086-0.117-0.203-0.117-0.32 0-0.273 0.227-0.5 0.5-0.5h1.5v-3h-4.5c-0.070 0-0.148-0.031-0.195-0.094l-1.25-1.5c-0.031-0.039-0.055-0.102-0.055-0.156 0-0.133 0.117-0.25 0.25-0.25h7.5c0.289 0 0.25 0.305 0.25 0.5v4.5h1.5c0.273 0 0.5 0.227 0.5 0.5z"></path>
</svg>
