<!-- Generated by IcoMoon.io -->
<svg version="1.1" xmlns="http://www.w3.org/2000/svg" width="15" height="14" viewBox="0 0 15 14">
<title>road</title>
<path d="M8.68 7.781v-0.031l-0.187-2.5c-0.008-0.141-0.133-0.25-0.266-0.25h-1.453c-0.133 0-0.258 0.109-0.266 0.25l-0.187 2.5v0.031c-0.008 0.125 0.109 0.219 0.227 0.219h1.906c0.117 0 0.234-0.094 0.227-0.219zM14.609 11.43c0 0.227-0.062 0.57-0.359 0.57h-5.5c0.133 0 0.242-0.109 0.234-0.25l-0.156-2c-0.008-0.141-0.133-0.25-0.266-0.25h-2.125c-0.133 0-0.258 0.109-0.266 0.25l-0.156 2c-0.008 0.141 0.102 0.25 0.234 0.25h-5.5c-0.297 0-0.359-0.344-0.359-0.57 0-0.312 0.086-0.625 0.203-0.906l3.258-8.156c0.078-0.195 0.289-0.367 0.5-0.367h2.648c-0.133 0-0.258 0.109-0.266 0.25l-0.117 1.5c-0.008 0.141 0.094 0.25 0.234 0.25h1.297c0.141 0 0.242-0.109 0.234-0.25l-0.117-1.5c-0.008-0.141-0.133-0.25-0.266-0.25h2.648c0.211 0 0.422 0.172 0.5 0.367l3.258 8.156c0.117 0.281 0.203 0.594 0.203 0.906z"></path>
</svg>
