<!-- Generated by IcoMoon.io -->
<svg version="1.1" xmlns="http://www.w3.org/2000/svg" width="13" height="14" viewBox="0 0 13 14">
<title>rocket</title>
<path d="M11.25 3.5c0-0.414-0.336-0.75-0.75-0.75s-0.75 0.336-0.75 0.75 0.336 0.75 0.75 0.75 0.75-0.336 0.75-0.75zM13 1.25c0 2.594-0.719 4.32-2.57 6.18-0.453 0.445-0.969 0.906-1.523 1.375l-0.156 2.961c-0.008 0.078-0.055 0.156-0.125 0.203l-3 1.75c-0.039 0.023-0.078 0.031-0.125 0.031-0.062 0-0.125-0.023-0.18-0.070l-0.5-0.5c-0.062-0.070-0.086-0.164-0.062-0.25l0.664-2.156-2.195-2.195-2.156 0.664c-0.023 0.008-0.047 0.008-0.070 0.008-0.062 0-0.133-0.023-0.18-0.070l-0.5-0.5c-0.078-0.086-0.094-0.211-0.039-0.305l1.75-3c0.047-0.070 0.125-0.117 0.203-0.125l2.961-0.156c0.469-0.555 0.93-1.070 1.375-1.523 1.953-1.945 3.445-2.57 6.164-2.57 0.141 0 0.266 0.109 0.266 0.25z"></path>
</svg>
