<!-- Generated by IcoMoon.io -->
<svg version="1.1" xmlns="http://www.w3.org/2000/svg" width="10" height="14" viewBox="0 0 10 14">
<title>rouble</title>
<path d="M8.148 4.414c0-1.047-0.742-1.75-1.844-1.75h-2.5v3.5h2.5c1.102 0 1.844-0.703 1.844-1.75zM10 4.414c0 2.008-1.453 3.414-3.539 3.414h-2.656v0.922h3.945c0.141 0 0.25 0.109 0.25 0.25v1c0 0.141-0.109 0.25-0.25 0.25h-3.945v1.5c0 0.141-0.109 0.25-0.25 0.25h-1.305c-0.141 0-0.25-0.109-0.25-0.25v-1.5h-1.75c-0.141 0-0.25-0.109-0.25-0.25v-1c0-0.141 0.109-0.25 0.25-0.25h1.75v-0.922h-1.75c-0.141 0-0.25-0.109-0.25-0.25v-1.164c0-0.141 0.109-0.25 0.25-0.25h1.75v-4.914c0-0.141 0.109-0.25 0.25-0.25h4.211c2.086 0 3.539 1.406 3.539 3.414z"></path>
</svg>
