<!-- Generated by IcoMoon.io -->
<svg version="1.1" xmlns="http://www.w3.org/2000/svg" width="12" height="14" viewBox="0 0 12 14">
<title>rss-square</title>
<path d="M4 10c0-0.555-0.445-1-1-1s-1 0.445-1 1 0.445 1 1 1 1-0.445 1-1zM6.742 10.734c-0.133-2.422-2.055-4.344-4.477-4.477-0.070-0.008-0.141 0.023-0.187 0.070s-0.078 0.109-0.078 0.18v1c0 0.133 0.102 0.242 0.234 0.25 1.602 0.117 2.891 1.406 3.008 3.008 0.008 0.133 0.117 0.234 0.25 0.234h1c0.070 0 0.133-0.031 0.18-0.078s0.078-0.117 0.070-0.187zM9.742 10.742c-0.133-4.063-3.422-7.352-7.484-7.484-0.078-0.008-0.133 0.016-0.18 0.070-0.047 0.047-0.078 0.109-0.078 0.18v1c0 0.133 0.109 0.242 0.242 0.25 3.242 0.117 5.883 2.758 6 6 0.008 0.133 0.117 0.242 0.25 0.242h1c0.070 0 0.133-0.031 0.18-0.078 0.055-0.047 0.078-0.109 0.070-0.18zM12 3.25v7.5c0 1.242-1.008 2.25-2.25 2.25h-7.5c-1.242 0-2.25-1.008-2.25-2.25v-7.5c0-1.242 1.008-2.25 2.25-2.25h7.5c1.242 0 2.25 1.008 2.25 2.25z"></path>
</svg>
