<!-- Generated by IcoMoon.io -->
<svg version="1.1" xmlns="http://www.w3.org/2000/svg" width="14" height="14" viewBox="0 0 14 14">
<title>safari</title>
<path d="M7.414 6.977c0 0.258-0.18 0.5-0.453 0.5-0.258 0-0.5-0.187-0.5-0.453 0-0.258 0.187-0.5 0.461-0.5 0.25 0 0.492 0.18 0.492 0.453zM7.531 7.43l2.734-4.539c-0.367 0.344-3.789 3.492-3.883 3.656l-2.727 4.531c0.359-0.336 3.789-3.5 3.875-3.648zM12.586 7c0 1.023-0.281 2.031-0.813 2.898-0.078-0.039-0.406-0.273-0.469-0.273-0.055 0-0.102 0.047-0.102 0.102 0 0.102 0.367 0.289 0.461 0.344-0.773 1.172-1.969 2.016-3.328 2.352l-0.125-0.523c-0.008-0.070-0.055-0.078-0.117-0.078-0.055 0-0.086 0.078-0.078 0.117l0.125 0.531c-0.375 0.078-0.758 0.117-1.141 0.117-1.023 0-2.031-0.289-2.906-0.82 0.047-0.078 0.344-0.508 0.344-0.57 0-0.055-0.047-0.102-0.102-0.102-0.109 0-0.344 0.469-0.414 0.563-1.18-0.781-2.031-1.992-2.359-3.375l0.539-0.117c0.062-0.016 0.078-0.062 0.078-0.117s-0.078-0.086-0.125-0.078l-0.531 0.117c-0.070-0.359-0.109-0.719-0.109-1.086 0-1.047 0.297-2.078 0.852-2.961 0.078 0.047 0.453 0.305 0.516 0.305 0.055 0 0.102-0.039 0.102-0.094 0-0.109-0.414-0.32-0.508-0.383 0.797-1.164 2.008-2 3.383-2.313l0.117 0.523c0.016 0.062 0.062 0.078 0.117 0.078s0.086-0.078 0.078-0.125l-0.117-0.516c0.344-0.062 0.695-0.102 1.047-0.102v0c1.047 0 2.070 0.297 2.961 0.852-0.055 0.078-0.305 0.445-0.305 0.508 0 0.055 0.039 0.102 0.094 0.102 0.109 0 0.32-0.406 0.375-0.5 1.156 0.781 1.984 1.977 2.305 3.336l-0.438 0.094c-0.070 0.016-0.078 0.062-0.078 0.125 0 0.055 0.078 0.086 0.117 0.078l0.445-0.102c0.070 0.359 0.109 0.727 0.109 1.094zM13.25 7c0-3.453-2.797-6.25-6.25-6.25s-6.25 2.797-6.25 6.25 2.797 6.25 6.25 6.25 6.25-2.797 6.25-6.25zM14 7c0 3.867-3.133 7-7 7s-7-3.133-7-7 3.133-7 7-7 7 3.133 7 7z"></path>
</svg>
