<!-- Generated by IcoMoon.io -->
<svg version="1.1" xmlns="http://www.w3.org/2000/svg" width="12" height="14" viewBox="0 0 12 14">
<title>scribd</title>
<path d="M11.719 12.102c0 0.93-0.75 1.688-1.688 1.688s-1.695-0.758-1.695-1.688c0-0.937 0.758-1.695 1.695-1.695s1.688 0.758 1.688 1.695zM9.898 9.906c-1.187 0.156-2.109 1.172-2.109 2.406 0 0.383 0.094 0.758 0.258 1.078-0.703 0.375-1.656 0.609-2.961 0.609-4.156 0-4.805-2.937-4.805-3.328 0-0.398 0.234-1.703 1.703-1.703s1.672 1.258 1.672 1.516c0 0 0 0.266-0.18 0.633 0.5 0.469 1.68 0.469 1.68 0.469 1.18 0 2.070-0.578 2.070-1.438 0-0.867-1-1.289-3.281-2.359-2.281-1.078-3.141-1.867-3.141-3.828 0-1.969 1.313-3.961 4.586-3.961s4.508 1.836 4.508 3.094-1.070 1.57-1.469 1.57c-0.391 0-1.836 0.133-1.836-2.039-0.258-0.289-1.383-0.289-1.383-0.289-1.133 0-1.633 0.859-1.633 1.383 0 0.531 0.211 1.187 2.57 1.969 3.617 1.203 3.75 2.773 3.75 4.219z"></path>
</svg>
