<!-- Generated by IcoMoon.io -->
<svg version="1.1" xmlns="http://www.w3.org/2000/svg" width="13" height="14" viewBox="0 0 13 14">
<title>search</title>
<path d="M9 6.5c0-1.93-1.57-3.5-3.5-3.5s-3.5 1.57-3.5 3.5 1.57 3.5 3.5 3.5 3.5-1.57 3.5-3.5zM13 13c0 0.547-0.453 1-1 1-0.266 0-0.523-0.109-0.703-0.297l-2.68-2.672c-0.914 0.633-2.008 0.969-3.117 0.969-3.039 0-5.5-2.461-5.5-5.5s2.461-5.5 5.5-5.5 5.5 2.461 5.5 5.5c0 1.109-0.336 2.203-0.969 3.117l2.68 2.68c0.18 0.18 0.289 0.438 0.289 0.703z"></path>
</svg>
