<!-- Generated by IcoMoon.io -->
<svg version="1.1" xmlns="http://www.w3.org/2000/svg" width="16" height="14" viewBox="0 0 16 14">
<title>sellsy</title>
<path d="M11.719 10.711v-5.727c0-0.219-0.18-0.398-0.391-0.398h-0.727c-0.211 0-0.391 0.18-0.391 0.398v5.727c0 0.211 0.18 0.391 0.391 0.391h0.727c0.211 0 0.391-0.18 0.391-0.391zM9.5 10.711v-4.148c0-0.211-0.18-0.391-0.391-0.391h-0.789c-0.211 0-0.391 0.18-0.391 0.391v4.148c0 0.211 0.18 0.391 0.391 0.391h0.789c0.211 0 0.391-0.18 0.391-0.391zM7.219 10.711v-3.352c0-0.211-0.18-0.391-0.391-0.391h-0.789c-0.211 0-0.391 0.18-0.391 0.391v3.352c0 0.211 0.18 0.391 0.391 0.391h0.789c0.211 0 0.391-0.18 0.391-0.391zM4.938 10.711v-2.828c0-0.211-0.18-0.391-0.391-0.391h-0.789c-0.211 0-0.391 0.18-0.391 0.391v2.828c0 0.211 0.18 0.391 0.391 0.391h0.789c0.211 0 0.391-0.18 0.391-0.391zM16 9.57c0 1.734-1.414 3.141-3.141 3.141h-9.719c-1.727 0-3.141-1.406-3.141-3.141 0-1.211 0.711-2.32 1.805-2.836-0.055-0.187-0.078-0.383-0.078-0.57 0-1.18 0.961-2.141 2.141-2.141 0.516 0 1.016 0.187 1.406 0.523 0.469-1.906 2.188-3.258 4.156-3.258 2.359 0 4.281 1.922 4.281 4.281 0 0.32-0.031 0.641-0.109 0.953 1.406 0.344 2.398 1.609 2.398 3.047z"></path>
</svg>
