<!-- Generated by IcoMoon.io -->
<svg version="1.1" xmlns="http://www.w3.org/2000/svg" width="14" height="14" viewBox="0 0 14 14">
<title>server</title>
<path d="M1 11h8v-1h-8v1zM1 7h8v-1h-8v1zM13.25 10.5c0-0.414-0.336-0.75-0.75-0.75s-0.75 0.336-0.75 0.75 0.336 0.75 0.75 0.75 0.75-0.336 0.75-0.75zM1 3h8v-1h-8v1zM13.25 6.5c0-0.414-0.336-0.75-0.75-0.75s-0.75 0.336-0.75 0.75 0.336 0.75 0.75 0.75 0.75-0.336 0.75-0.75zM13.25 2.5c0-0.414-0.336-0.75-0.75-0.75s-0.75 0.336-0.75 0.75 0.336 0.75 0.75 0.75 0.75-0.336 0.75-0.75zM14 9v3h-14v-3h14zM14 5v3h-14v-3h14zM14 1v3h-14v-3h14z"></path>
</svg>
