<!-- Generated by IcoMoon.io -->
<svg version="1.1" xmlns="http://www.w3.org/2000/svg" width="13" height="14" viewBox="0 0 13 14">
<title>share-square-o</title>
<path d="M11 7.727v2.023c0 1.242-1.008 2.25-2.25 2.25h-6.5c-1.242 0-2.25-1.008-2.25-2.25v-6.5c0-1.242 1.008-2.25 2.25-2.25h1.992c0.133 0 0.25 0.109 0.25 0.25 0 0.125-0.086 0.227-0.203 0.25-0.391 0.133-0.742 0.289-1.039 0.469-0.039 0.016-0.078 0.031-0.125 0.031h-0.875c-0.688 0-1.25 0.563-1.25 1.25v6.5c0 0.688 0.563 1.25 1.25 1.25h6.5c0.688 0 1.25-0.563 1.25-1.25v-1.672c0-0.094 0.055-0.18 0.141-0.227 0.156-0.070 0.297-0.172 0.422-0.289 0.070-0.070 0.18-0.102 0.273-0.062s0.164 0.125 0.164 0.227zM12.852 3.852l-3 3c-0.094 0.102-0.219 0.148-0.352 0.148-0.062 0-0.133-0.016-0.195-0.039-0.18-0.078-0.305-0.258-0.305-0.461v-1.5h-1.25c-1.719 0-2.812 0.328-3.422 1.023-0.633 0.727-0.82 1.898-0.578 3.695 0.016 0.109-0.055 0.219-0.156 0.266-0.031 0.008-0.062 0.016-0.094 0.016-0.078 0-0.156-0.039-0.203-0.102-0.055-0.078-1.297-1.836-1.297-3.398 0-2.094 0.656-4.5 5.75-4.5h1.25v-1.5c0-0.203 0.125-0.383 0.305-0.461 0.062-0.023 0.133-0.039 0.195-0.039 0.133 0 0.258 0.055 0.352 0.148l3 3c0.195 0.195 0.195 0.508 0 0.703z"></path>
</svg>
