<!-- Generated by IcoMoon.io -->
<svg version="1.1" xmlns="http://www.w3.org/2000/svg" width="12" height="14" viewBox="0 0 12 14">
<title>share-alt-square</title>
<path d="M10 9.336c0-0.922-0.75-1.672-1.664-1.672-0.438 0-0.836 0.172-1.133 0.453l-1.883-0.937c0.008-0.062 0.016-0.117 0.016-0.18s-0.008-0.117-0.016-0.18l1.883-0.937c0.297 0.281 0.695 0.453 1.133 0.453 0.914 0 1.664-0.75 1.664-1.672 0-0.914-0.75-1.664-1.664-1.664-0.922 0-1.672 0.75-1.672 1.664 0 0.062 0.008 0.117 0.016 0.18l-1.883 0.937c-0.297-0.273-0.695-0.445-1.133-0.445-0.914 0-1.664 0.742-1.664 1.664s0.75 1.664 1.664 1.664c0.438 0 0.836-0.172 1.133-0.445l1.883 0.937c-0.008 0.062-0.016 0.117-0.016 0.18 0 0.914 0.75 1.664 1.672 1.664 0.914 0 1.664-0.75 1.664-1.664zM12 3.25v7.5c0 1.242-1.008 2.25-2.25 2.25h-7.5c-1.242 0-2.25-1.008-2.25-2.25v-7.5c0-1.242 1.008-2.25 2.25-2.25h7.5c1.242 0 2.25 1.008 2.25 2.25z"></path>
</svg>
