<!-- Generated by IcoMoon.io -->
<svg version="1.1" xmlns="http://www.w3.org/2000/svg" width="12" height="14" viewBox="0 0 12 14">
<title>share-square</title>
<path d="M7.852 8.602l2.75-2.75c0.195-0.195 0.195-0.508 0-0.703l-2.75-2.75c-0.141-0.148-0.359-0.187-0.539-0.109-0.187 0.078-0.312 0.258-0.312 0.461v1.25c-4.484 0-5 2.57-5 4.5 0 1.57 1.258 3.094 1.305 3.156 0.055 0.062 0.125 0.094 0.195 0.094 0.031 0 0.070-0.008 0.102-0.023 0.102-0.039 0.164-0.148 0.148-0.258-0.234-1.883-0.086-3.055 0.484-3.695 0.477-0.539 1.305-0.773 2.766-0.773v1.25c0 0.203 0.125 0.383 0.312 0.461 0.055 0.023 0.125 0.039 0.187 0.039 0.133 0 0.258-0.055 0.352-0.148zM12 3.25v7.5c0 1.242-1.008 2.25-2.25 2.25h-7.5c-1.242 0-2.25-1.008-2.25-2.25v-7.5c0-1.242 1.008-2.25 2.25-2.25h7.5c1.242 0 2.25 1.008 2.25 2.25z"></path>
</svg>
