<!-- Generated by IcoMoon.io -->
<svg version="1.1" xmlns="http://www.w3.org/2000/svg" width="12" height="14" viewBox="0 0 12 14">
<title>share-alt</title>
<path d="M9.5 8c1.383 0 2.5 1.117 2.5 2.5s-1.117 2.5-2.5 2.5-2.5-1.117-2.5-2.5c0-0.086 0.008-0.18 0.016-0.266l-2.812-1.406c-0.445 0.414-1.047 0.672-1.703 0.672-1.383 0-2.5-1.117-2.5-2.5s1.117-2.5 2.5-2.5c0.656 0 1.258 0.258 1.703 0.672l2.812-1.406c-0.008-0.086-0.016-0.18-0.016-0.266 0-1.383 1.117-2.5 2.5-2.5s2.5 1.117 2.5 2.5-1.117 2.5-2.5 2.5c-0.656 0-1.258-0.258-1.703-0.672l-2.812 1.406c0.008 0.086 0.016 0.18 0.016 0.266s-0.008 0.18-0.016 0.266l2.812 1.406c0.445-0.414 1.047-0.672 1.703-0.672z"></path>
</svg>
