<!-- Generated by IcoMoon.io -->
<svg version="1.1" xmlns="http://www.w3.org/2000/svg" width="16" height="14" viewBox="0 0 16 14">
<title>ship</title>
<path d="M14.148 12.148c0.195-0.195 0.508-0.195 0.703 0l1 1-0.703 0.703-0.648-0.648-0.648 0.648c-0.094 0.102-0.227 0.148-0.352 0.148s-0.258-0.047-0.352-0.148l-0.648-0.648-0.648 0.648c-0.195 0.195-0.508 0.195-0.703 0l-0.648-0.648-0.648 0.648c-0.195 0.195-0.508 0.195-0.703 0l-0.648-0.648-0.648 0.648c-0.195 0.195-0.508 0.195-0.703 0l-0.648-0.648-0.648 0.648c-0.195 0.195-0.508 0.195-0.703 0l-0.648-0.648-0.648 0.648c-0.195 0.195-0.508 0.195-0.703 0l-0.648-0.648-0.648 0.648c-0.195 0.195-0.508 0.195-0.703 0l-1-1 0.703-0.703 0.648 0.648 0.648-0.648c0.195-0.195 0.508-0.195 0.703 0l0.648 0.648 0.648-0.648c0.195-0.195 0.508-0.195 0.703 0l0.648 0.648 0.648-0.648c0.195-0.195 0.508-0.195 0.703 0l0.648 0.648 0.648-0.648c0.195-0.195 0.508-0.195 0.703 0l0.648 0.648 0.648-0.648c0.195-0.195 0.508-0.195 0.703 0l0.648 0.648 0.648-0.648c0.195-0.195 0.508-0.195 0.703 0l0.648 0.648zM1.852 11.852c-0.195 0.195-0.508 0.195-0.703 0l-1-1 0.703-0.703 0.648 0.641 0.648-0.641c0.195-0.195 0.508-0.195 0.703 0l0.648 0.641 0.5-0.5v-2.289l-1.641-2.453c-0.18-0.273-0.055-0.648 0.258-0.758l1.383-0.453v-2.336h1v-1h2v-1h2v1h2v1h1v2.336l1.383 0.453c0.312 0.109 0.438 0.484 0.258 0.758l-1.641 2.453v2.289l0.148-0.141c0.195-0.195 0.508-0.195 0.703 0l0.648 0.641 0.648-0.641c0.195-0.195 0.508-0.195 0.703 0l1 1-0.703 0.703-0.648-0.648-0.648 0.648c-0.094 0.102-0.227 0.148-0.352 0.148s-0.258-0.047-0.352-0.148l-0.648-0.648-0.648 0.648c-0.195 0.195-0.508 0.195-0.703 0l-0.648-0.648-0.648 0.648c-0.195 0.195-0.508 0.195-0.703 0l-0.648-0.648-0.648 0.648c-0.195 0.195-0.508 0.195-0.703 0l-0.648-0.648-0.648 0.648c-0.195 0.195-0.508 0.195-0.703 0l-0.648-0.648-0.648 0.648c-0.195 0.195-0.508 0.195-0.703 0l-0.648-0.648zM5 3v1l3-1 3 1v-1h-1v-1h-4v1h-1z"></path>
</svg>
