<!-- Generated by IcoMoon.io -->
<svg version="1.1" xmlns="http://www.w3.org/2000/svg" width="12" height="14" viewBox="0 0 12 14">
<title>shirtsinbulk</title>
<path d="M0 0h12v10.875l-6.063 2.641-5.938-2.641v-10.875zM11.219 10.367v-7.234h-10.438v7.234l5.164 2.297zM11.219 2.352v-1.57h-10.438v1.57h10.438zM1.414 4.68v0.898h-0.289v-0.898h0.289zM1.414 5.836v0.898h-0.289v-0.898h0.289zM1.414 6.992v0.898h-0.289v-0.898h0.289zM1.414 8.148v0.898h-0.289v-0.898h0.289zM1.414 9.305v0.898h-0.289v-0.898h0.289zM1.617 10.422l0.117-0.266 0.82 0.367-0.117 0.258zM2.68 10.891l0.117-0.266 0.82 0.359-0.117 0.266zM3.734 11.359l0.117-0.266 0.82 0.359-0.117 0.266zM4.797 11.82l0.117-0.258 0.813 0.359-0.117 0.266zM6.227 11.922l0.82-0.359 0.117 0.258-0.82 0.367zM7.281 11.453l0.82-0.359 0.117 0.266-0.82 0.359zM8.344 10.984l0.82-0.359 0.117 0.266-0.82 0.359zM9.398 10.523l0.82-0.367 0.117 0.266-0.82 0.359zM2.023 1.148v0.281h-0.891v-0.281h0.891zM3.289 1.148v0.281h-0.898v-0.281h0.898zM4.555 1.148v0.281h-0.898v-0.281h0.898zM5.813 1.148v0.281h-0.891v-0.281h0.891zM7.078 1.148v0.281h-0.891v-0.281h0.891zM8.344 1.148v0.281h-0.898v-0.281h0.898zM9.609 1.148v0.281h-0.898v-0.281h0.898zM10.867 1.148v0.281h-0.891v-0.281h0.891zM1.414 3.805v0.617h-0.289v-0.898h0.898v0.281h-0.609zM3.289 3.523v0.281h-0.898v-0.281h0.898zM4.555 3.523v0.281h-0.898v-0.281h0.898zM5.813 3.523v0.281h-0.891v-0.281h0.891zM7.078 3.523v0.281h-0.891v-0.281h0.891zM8.344 3.523v0.281h-0.898v-0.281h0.898zM9.609 3.523v0.281h-0.898v-0.281h0.898zM10.586 4.422v-0.617h-0.609v-0.281h0.898v0.898h-0.289zM10.586 5.578v-0.898h0.289v0.898h-0.289zM10.586 6.734v-0.898h0.289v0.898h-0.289zM10.586 7.891v-0.898h0.289v0.898h-0.289zM10.586 9.047v-0.898h0.289v0.898h-0.289zM10.586 10.203v-0.898h0.289v0.898h-0.289zM5.938 9.93c-1.344 0-2.445-1.094-2.445-2.445 0-1.344 1.102-2.445 2.445-2.445 1.352 0 2.445 1.102 2.445 2.445 0 1.352-1.094 2.445-2.445 2.445zM4.648 6.953c0 1.187 2.078 0.32 2.078 1.016 0 0.352-0.641 0.383-0.875 0.383-0.328 0-0.797-0.070-0.961-0.398h-0.023l-0.242 0.492c0.398 0.25 0.781 0.328 1.266 0.328 0.523 0 1.367-0.156 1.367-0.836 0-1.289-2.102-0.438-2.102-1.016 0-0.352 0.555-0.398 0.797-0.398 0.289 0 0.781 0.086 0.953 0.352h0.023l0.234-0.453c-0.406-0.164-0.734-0.32-1.187-0.32-0.539 0-1.328 0.172-1.328 0.852z"></path>
</svg>
