<!-- Generated by IcoMoon.io -->
<svg version="1.1" xmlns="http://www.w3.org/2000/svg" width="13" height="14" viewBox="0 0 13 14">
<title>shopping-cart</title>
<path d="M5 12c0 0.547-0.453 1-1 1s-1-0.453-1-1 0.453-1 1-1 1 0.453 1 1zM12 12c0 0.547-0.453 1-1 1s-1-0.453-1-1 0.453-1 1-1 1 0.453 1 1zM13 3.5v4c0 0.25-0.195 0.469-0.445 0.5l-8.156 0.953c0.039 0.18 0.102 0.359 0.102 0.547 0 0.18-0.109 0.344-0.187 0.5h7.187c0.273 0 0.5 0.227 0.5 0.5s-0.227 0.5-0.5 0.5h-8c-0.273 0-0.5-0.227-0.5-0.5 0-0.242 0.352-0.828 0.477-1.070l-1.383-6.43h-1.594c-0.273 0-0.5-0.227-0.5-0.5s0.227-0.5 0.5-0.5h2c0.523 0 0.539 0.625 0.617 1h9.383c0.273 0 0.5 0.227 0.5 0.5z"></path>
</svg>
