<!-- Generated by IcoMoon.io -->
<svg version="1.1" xmlns="http://www.w3.org/2000/svg" width="14" height="14" viewBox="0 0 14 14">
<title>shopping-bag</title>
<path d="M13.727 11l0.273 2.445c0.016 0.141-0.031 0.281-0.125 0.391-0.094 0.102-0.234 0.164-0.375 0.164h-13c-0.141 0-0.281-0.062-0.375-0.164-0.094-0.109-0.141-0.25-0.125-0.391l0.273-2.445h13.453zM13 4.445l0.672 6.055h-13.344l0.672-6.055c0.031-0.25 0.242-0.445 0.5-0.445h2v1c0 0.555 0.445 1 1 1s1-0.445 1-1v-1h3v1c0 0.555 0.445 1 1 1s1-0.445 1-1v-1h2c0.258 0 0.469 0.195 0.5 0.445zM10 3v2c0 0.273-0.227 0.5-0.5 0.5s-0.5-0.227-0.5-0.5v-2c0-1.102-0.898-2-2-2s-2 0.898-2 2v2c0 0.273-0.227 0.5-0.5 0.5s-0.5-0.227-0.5-0.5v-2c0-1.656 1.344-3 3-3s3 1.344 3 3z"></path>
</svg>
