<!-- Generated by IcoMoon.io -->
<svg version="1.1" xmlns="http://www.w3.org/2000/svg" width="16" height="14" viewBox="0 0 16 14">
<title>shopping-basket</title>
<path d="M15 6c0.555 0 1 0.445 1 1s-0.445 1-1 1h-0.117l-0.898 5.172c-0.086 0.477-0.5 0.828-0.984 0.828h-10c-0.484 0-0.898-0.352-0.984-0.828l-0.898-5.172h-0.117c-0.555 0-1-0.445-1-1s0.445-1 1-1h14zM3.789 12.25c0.273-0.023 0.484-0.266 0.461-0.539l-0.25-3.25c-0.023-0.273-0.266-0.484-0.539-0.461s-0.484 0.266-0.461 0.539l0.25 3.25c0.023 0.258 0.242 0.461 0.5 0.461h0.039zM7 11.75v-3.25c0-0.273-0.227-0.5-0.5-0.5s-0.5 0.227-0.5 0.5v3.25c0 0.273 0.227 0.5 0.5 0.5s0.5-0.227 0.5-0.5zM10 11.75v-3.25c0-0.273-0.227-0.5-0.5-0.5s-0.5 0.227-0.5 0.5v3.25c0 0.273 0.227 0.5 0.5 0.5s0.5-0.227 0.5-0.5zM12.75 11.789l0.25-3.25c0.023-0.273-0.187-0.516-0.461-0.539s-0.516 0.187-0.539 0.461l-0.25 3.25c-0.023 0.273 0.187 0.516 0.461 0.539h0.039c0.258 0 0.477-0.203 0.5-0.461zM3.719 2.281l-0.727 3.219h-1.031l0.789-3.445c0.203-0.914 1.008-1.555 1.945-1.555h1.305c0-0.273 0.227-0.5 0.5-0.5h3c0.273 0 0.5 0.227 0.5 0.5h1.305c0.937 0 1.742 0.641 1.945 1.555l0.789 3.445h-1.031l-0.727-3.219c-0.109-0.461-0.508-0.781-0.977-0.781h-1.305c0 0.273-0.227 0.5-0.5 0.5h-3c-0.273 0-0.5-0.227-0.5-0.5h-1.305c-0.469 0-0.867 0.32-0.977 0.781z"></path>
</svg>
