<!-- Generated by IcoMoon.io -->
<svg version="1.1" xmlns="http://www.w3.org/2000/svg" width="15" height="14" viewBox="0 0 15 14">
<title>shower</title>
<path d="M11.195 1.945c0.102 0.102 0.102 0.258 0 0.359l-4.891 4.891c-0.102 0.102-0.258 0.102-0.359 0l-0.641-0.641c-0.102-0.102-0.102-0.258 0-0.359l0.344-0.344c-0.758-0.953-0.852-2.258-0.273-3.297-0.359-0.344-0.844-0.555-1.375-0.555-1.102 0-2 0.898-2 2v10h-2v-10c0-2.203 1.797-4 4-4 1.125 0 2.141 0.469 2.867 1.219 0.984-0.398 2.125-0.25 2.984 0.43l0.344-0.344c0.102-0.102 0.258-0.102 0.359 0zM10.5 4c0.273 0 0.5 0.227 0.5 0.5s-0.227 0.5-0.5 0.5-0.5-0.227-0.5-0.5 0.227-0.5 0.5-0.5zM12.5 5c-0.273 0-0.5-0.227-0.5-0.5s0.227-0.5 0.5-0.5 0.5 0.227 0.5 0.5-0.227 0.5-0.5 0.5zM14.5 4c0.273 0 0.5 0.227 0.5 0.5s-0.227 0.5-0.5 0.5-0.5-0.227-0.5-0.5 0.227-0.5 0.5-0.5zM9.5 5c0.273 0 0.5 0.227 0.5 0.5s-0.227 0.5-0.5 0.5-0.5-0.227-0.5-0.5 0.227-0.5 0.5-0.5zM11 5.5c0-0.273 0.227-0.5 0.5-0.5s0.5 0.227 0.5 0.5-0.227 0.5-0.5 0.5-0.5-0.227-0.5-0.5zM13.5 5c0.273 0 0.5 0.227 0.5 0.5s-0.227 0.5-0.5 0.5-0.5-0.227-0.5-0.5 0.227-0.5 0.5-0.5zM8.5 6c0.273 0 0.5 0.227 0.5 0.5s-0.227 0.5-0.5 0.5-0.5-0.227-0.5-0.5 0.227-0.5 0.5-0.5zM10.5 7c-0.273 0-0.5-0.227-0.5-0.5s0.227-0.5 0.5-0.5 0.5 0.227 0.5 0.5-0.227 0.5-0.5 0.5zM12.5 6c0.273 0 0.5 0.227 0.5 0.5s-0.227 0.5-0.5 0.5-0.5-0.227-0.5-0.5 0.227-0.5 0.5-0.5zM9.5 8c-0.273 0-0.5-0.227-0.5-0.5s0.227-0.5 0.5-0.5 0.5 0.227 0.5 0.5-0.227 0.5-0.5 0.5zM11.5 7c0.273 0 0.5 0.227 0.5 0.5s-0.227 0.5-0.5 0.5-0.5-0.227-0.5-0.5 0.227-0.5 0.5-0.5zM8.5 8c0.273 0 0.5 0.227 0.5 0.5s-0.227 0.5-0.5 0.5-0.5-0.227-0.5-0.5 0.227-0.5 0.5-0.5zM10.5 8c0.273 0 0.5 0.227 0.5 0.5s-0.227 0.5-0.5 0.5-0.5-0.227-0.5-0.5 0.227-0.5 0.5-0.5zM9.5 9c0.273 0 0.5 0.227 0.5 0.5s-0.227 0.5-0.5 0.5-0.5-0.227-0.5-0.5 0.227-0.5 0.5-0.5zM8.5 10c0.273 0 0.5 0.227 0.5 0.5s-0.227 0.5-0.5 0.5-0.5-0.227-0.5-0.5 0.227-0.5 0.5-0.5z"></path>
</svg>
