<!-- Generated by IcoMoon.io -->
<svg version="1.1" xmlns="http://www.w3.org/2000/svg" width="13" height="14" viewBox="0 0 13 14">
<title>sign-language</title>
<path d="M6.492 5.258c0.164 0 0.32 0.047 0.461 0.141l1.734 1.156c0.32 0.211 0.609 0.469 0.859 0.758l1.141 1.328c0.195 0.227 0.281 0.531 0.227 0.828l-0.563 3.227c-0.062 0.328-0.328 0.578-0.664 0.617l-4.117 0.438-2.75 0.25h-0.070c-0.406 0-0.75-0.328-0.75-0.75 0-0.391 0.328-0.703 0.719-0.75l2.031-0.25h-3.5c-0.43 0-0.773-0.359-0.75-0.789 0.023-0.406 0.383-0.711 0.789-0.711l3.453-0.008-4.070-0.5c-0.422-0.047-0.727-0.43-0.664-0.859 0.062-0.375 0.406-0.625 0.781-0.625h0.078l3.758 0.469-2.742-0.734c-0.391-0.102-0.688-0.461-0.625-0.859 0.062-0.375 0.383-0.633 0.742-0.633 0.055 0 0.102 0.008 0.156 0.016l3.5 0.75 1.695 0.289c0.016 0 0.031 0.008 0.047 0.008 0.234 0 0.352-0.32 0.141-0.461l-1.453-0.977c-0.359-0.242-0.445-0.727-0.187-1.070 0.141-0.195 0.367-0.297 0.594-0.297zM5.945 6.836l1.453 0.977-1.703-0.289-0.039-0.016-0.281-0.297-1.859-2.047c-0.016-0.016-0.023-0.039-0.039-0.055-0.242-0.32-0.187-0.789 0.148-1.047 0.312-0.242 0.758-0.164 1.031 0.125l1.109 1.148c-0.023 0.023-0.047 0.039-0.070 0.062-0.164 0.227-0.227 0.5-0.18 0.773 0.047 0.266 0.203 0.508 0.43 0.664zM12.875 3.289l0.117 2.078c0.023 0.383-0.008 0.773-0.086 1.148l-0.375 1.711c-0.062 0.297-0.25 0.539-0.523 0.68l-0.828 0.422c0.008-0.312-0.094-0.609-0.305-0.852l-1.141-1.328c-0.266-0.305-0.57-0.578-0.914-0.805l-1.734-1.156c-0.172-0.117-0.375-0.18-0.594-0.18-0.266 0-0.508 0.109-0.688 0.289l-1.836-2.438c-0.258-0.344-0.18-0.828 0.18-1.070 0.336-0.234 0.797-0.125 1.047 0.203l2.078 2.75-2.047-3.555c-0.219-0.367-0.094-0.844 0.289-1.047 0.359-0.187 0.813-0.039 1.016 0.312l1.883 3.281-1.062-2.633c-0.148-0.375-0.047-0.828 0.312-1.016 0.383-0.203 0.852-0.039 1.031 0.352l1.508 3.242 0.789 1.531c0.125 0.242 0.492 0.141 0.477-0.125l-0.094-1.75c-0.023-0.43 0.312-0.789 0.742-0.797 0.406 0 0.734 0.344 0.758 0.75z"></path>
</svg>
