<!-- Generated by IcoMoon.io -->
<svg version="1.1" xmlns="http://www.w3.org/2000/svg" width="14" height="14" viewBox="0 0 14 14">
<title>signal</title>
<path d="M2 11.25v1.5c0 0.141-0.109 0.25-0.25 0.25h-1.5c-0.141 0-0.25-0.109-0.25-0.25v-1.5c0-0.141 0.109-0.25 0.25-0.25h1.5c0.141 0 0.25 0.109 0.25 0.25zM5 10.25v2.5c0 0.141-0.109 0.25-0.25 0.25h-1.5c-0.141 0-0.25-0.109-0.25-0.25v-2.5c0-0.141 0.109-0.25 0.25-0.25h1.5c0.141 0 0.25 0.109 0.25 0.25zM8 8.25v4.5c0 0.141-0.109 0.25-0.25 0.25h-1.5c-0.141 0-0.25-0.109-0.25-0.25v-4.5c0-0.141 0.109-0.25 0.25-0.25h1.5c0.141 0 0.25 0.109 0.25 0.25zM11 5.25v7.5c0 0.141-0.109 0.25-0.25 0.25h-1.5c-0.141 0-0.25-0.109-0.25-0.25v-7.5c0-0.141 0.109-0.25 0.25-0.25h1.5c0.141 0 0.25 0.109 0.25 0.25zM14 1.25v11.5c0 0.141-0.109 0.25-0.25 0.25h-1.5c-0.141 0-0.25-0.109-0.25-0.25v-11.5c0-0.141 0.109-0.25 0.25-0.25h1.5c0.141 0 0.25 0.109 0.25 0.25z"></path>
</svg>
