<!-- Generated by IcoMoon.io -->
<svg version="1.1" xmlns="http://www.w3.org/2000/svg" width="12" height="14" viewBox="0 0 12 14">
<title>sign-out</title>
<path d="M5 11.25c0 0.219 0.102 0.75-0.25 0.75h-2.5c-1.242 0-2.25-1.008-2.25-2.25v-5.5c0-1.242 1.008-2.25 2.25-2.25h2.5c0.133 0 0.25 0.117 0.25 0.25 0 0.219 0.102 0.75-0.25 0.75h-2.5c-0.688 0-1.25 0.563-1.25 1.25v5.5c0 0.688 0.563 1.25 1.25 1.25h2.25c0.195 0 0.5-0.039 0.5 0.25zM12.25 7c0 0.133-0.055 0.258-0.148 0.352l-4.25 4.25c-0.094 0.094-0.219 0.148-0.352 0.148-0.273 0-0.5-0.227-0.5-0.5v-2.25h-3.5c-0.273 0-0.5-0.227-0.5-0.5v-3c0-0.273 0.227-0.5 0.5-0.5h3.5v-2.25c0-0.273 0.227-0.5 0.5-0.5 0.133 0 0.258 0.055 0.352 0.148l4.25 4.25c0.094 0.094 0.148 0.219 0.148 0.352z"></path>
</svg>
