<!-- Generated by IcoMoon.io -->
<svg version="1.1" xmlns="http://www.w3.org/2000/svg" width="16" height="14" viewBox="0 0 16 14">
<title>simplybuilt</title>
<path d="M6.742 8.062c0-1.172-0.945-2.117-2.117-2.117-1.164 0-2.109 0.945-2.109 2.117 0 1.164 0.945 2.109 2.109 2.109 1.172 0 2.117-0.945 2.117-2.109zM13.484 8.055c0-1.164-0.945-2.109-2.109-2.109-1.172 0-2.117 0.945-2.117 2.109 0 1.172 0.945 2.117 2.117 2.117 1.164 0 2.109-0.945 2.109-2.117zM16 1.734v10.531c0 0.461-0.375 0.836-0.844 0.836h-14.312c-0.469 0-0.844-0.375-0.844-0.836v-10.531c0-0.461 0.375-0.836 0.844-0.836h3.367c0.461 0 0.844 0.375 0.844 0.836v1.258h5.891v-1.258c0-0.461 0.383-0.836 0.844-0.836h3.367c0.469 0 0.844 0.375 0.844 0.836z"></path>
</svg>
