<!-- Generated by IcoMoon.io -->
<svg version="1.1" xmlns="http://www.w3.org/2000/svg" width="16" height="14" viewBox="0 0 16 14">
<title>skyatlas</title>
<path d="M11.172 4.555c0 0-0.008-0.008 0 0v0zM13.203 6.148c1.516 0 2.797 1.133 2.797 2.68 0 1.648-1.313 2.859-2.937 2.859-4.148 0-4.914-6.242-8.992-6.242-1.578 0-2.727 1.008-2.727 2.625 0 1.672 1.25 2.68 2.867 2.68 1.062 0 2.273-0.445 3.133-1.062 0.141-0.102 0.422-0.406 0.57-0.406s0.273 0.125 0.273 0.273c0 0.195-0.328 0.477-0.469 0.602-1.023 0.891-2.508 1.531-3.867 1.531-2.086 0-3.852-1.477-3.852-3.625s1.688-3.727 3.82-3.727c4.633 0 5.562 6.148 9.047 6.148 1.047 0 1.836-0.68 1.836-1.75 0-0.992-0.766-1.742-1.75-1.742-0.438 0-0.875 0.289-1.172 0.289-0.211 0-0.398-0.18-0.398-0.391 0-0.289 0.133-0.594 0.133-0.906 0-1.664-1.273-2.867-2.922-2.867-1.328 0-2 0.922-2.219 0.922-0.156 0-0.281-0.125-0.281-0.281 0-0.141 0.102-0.258 0.195-0.359 0.633-0.719 1.617-1.094 2.57-1.094 1.984 0 3.477 1.461 3.477 3.445 0 0.172-0.008 0.344-0.031 0.516 0.297-0.078 0.602-0.117 0.898-0.117z"></path>
</svg>
