<!-- Generated by IcoMoon.io -->
<svg version="1.1" xmlns="http://www.w3.org/2000/svg" width="12" height="14" viewBox="0 0 12 14">
<title>skype</title>
<path d="M9.164 8.305c0-1.359-1.32-1.828-2.43-2.078l-0.813-0.187c-0.594-0.141-1.039-0.242-1.039-0.695 0-0.414 0.438-0.602 1.125-0.602 1.227 0 1.25 0.898 2.008 0.898 0.508 0 0.813-0.398 0.813-0.852 0-0.898-1.492-1.484-2.969-1.484-1.352 0-2.922 0.586-2.922 2.172 0 1.313 0.875 1.781 2.016 2.055l1.141 0.281c0.695 0.172 1.125 0.25 1.125 0.75 0 0.398-0.445 0.703-1.133 0.703-1.445 0-1.523-1.203-2.359-1.203-0.547 0-0.789 0.391-0.789 0.82 0 0.961 1.469 1.742 3.227 1.742 1.469 0 3-0.734 3-2.32zM12 10c0 1.656-1.344 3-3 3-0.688 0-1.32-0.234-1.828-0.625-0.375 0.078-0.773 0.125-1.172 0.125-3.039 0-5.5-2.461-5.5-5.5 0-0.398 0.047-0.797 0.125-1.172-0.391-0.508-0.625-1.141-0.625-1.828 0-1.656 1.344-3 3-3 0.688 0 1.32 0.234 1.828 0.625 0.375-0.078 0.773-0.125 1.172-0.125 3.039 0 5.5 2.461 5.5 5.5 0 0.398-0.047 0.797-0.125 1.172 0.391 0.508 0.625 1.141 0.625 1.828z"></path>
</svg>
