<!-- Generated by IcoMoon.io -->
<svg version="1.1" xmlns="http://www.w3.org/2000/svg" width="13" height="14" viewBox="0 0 13 14">
<title>slack</title>
<path d="M11.867 6.063c0.641 0 1.133 0.469 1.133 1.109 0 0.5-0.258 0.852-0.727 1.016l-1.344 0.461 0.438 1.305c0.039 0.117 0.055 0.242 0.055 0.367 0 0.617-0.5 1.133-1.117 1.133-0.492 0-0.93-0.305-1.086-0.773l-0.43-1.289-2.422 0.828 0.43 1.281c0.039 0.117 0.062 0.242 0.062 0.367 0 0.609-0.5 1.133-1.125 1.133-0.492 0-0.922-0.305-1.078-0.773l-0.43-1.273-1.195 0.414c-0.125 0.039-0.258 0.070-0.391 0.070-0.633 0-1.109-0.469-1.109-1.102 0-0.484 0.312-0.922 0.773-1.078l1.219-0.414-0.82-2.445-1.219 0.422c-0.125 0.039-0.25 0.062-0.375 0.062-0.625 0-1.109-0.477-1.109-1.102 0-0.484 0.312-0.922 0.773-1.078l1.227-0.414-0.414-1.242c-0.039-0.117-0.062-0.242-0.062-0.367 0-0.617 0.5-1.133 1.125-1.133 0.492 0 0.922 0.305 1.078 0.773l0.422 1.25 2.422-0.82-0.422-1.25c-0.039-0.117-0.062-0.242-0.062-0.367 0-0.617 0.508-1.133 1.125-1.133 0.492 0 0.93 0.312 1.086 0.773l0.414 1.258 1.266-0.43c0.109-0.031 0.219-0.047 0.336-0.047 0.609 0 1.133 0.453 1.133 1.078 0 0.484-0.375 0.891-0.813 1.039l-1.227 0.422 0.82 2.469 1.281-0.438c0.117-0.039 0.242-0.062 0.359-0.062zM5.664 8.109l2.422-0.82-0.82-2.461-2.422 0.836z"></path>
</svg>
