<!-- Generated by IcoMoon.io -->
<svg version="1.1" xmlns="http://www.w3.org/2000/svg" width="14" height="14" viewBox="0 0 14 14">
<title>slideshare</title>
<path d="M6.82 5.781c0 0.867-0.758 1.578-1.688 1.578s-1.688-0.711-1.688-1.578c0-0.875 0.758-1.578 1.688-1.578s1.688 0.703 1.688 1.578zM10.742 5.781c0 0.867-0.75 1.578-1.688 1.578-0.93 0-1.688-0.711-1.688-1.578 0-0.875 0.758-1.578 1.688-1.578 0.937 0 1.688 0.703 1.688 1.578zM12.5 7.187v-5.211c0-0.898-0.289-1.25-1.117-1.25h-8.688c-0.867 0-1.109 0.297-1.109 1.25v5.258c1.852 0.969 3.438 0.797 4.305 0.766 0.367-0.008 0.602 0.062 0.742 0.211 0.023 0.023 0.047 0.047 0.078 0.070 0.164 0.156 0.32 0.281 0.477 0.398 0.031-0.43 0.273-0.703 0.922-0.68 0.883 0.039 2.508 0.211 4.391-0.813zM13.773 7.148c-0.5 0.617-1.453 1.375-2.906 1.969 1.539 5.242-3.758 6.078-3.672 3.391 0 0.047-0.008-1.445-0.008-2.555-0.117-0.023-0.234-0.055-0.375-0.086 0 1.117-0.008 2.687-0.008 2.641 0.086 2.687-5.211 1.852-3.672-3.391-1.453-0.594-2.406-1.352-2.906-1.969-0.25-0.375 0.023-0.773 0.438-0.484 0.055 0.039 0.117 0.078 0.172 0.117v-5.422c0-0.75 0.563-1.359 1.258-1.359h9.82c0.695 0 1.258 0.609 1.258 1.359v5.422l0.164-0.117c0.414-0.289 0.688 0.109 0.438 0.484z"></path>
</svg>
