<!-- Generated by IcoMoon.io -->
<svg version="1.1" xmlns="http://www.w3.org/2000/svg" width="12" height="14" viewBox="0 0 12 14">
<title>smile-o</title>
<path d="M8.859 8.398c-0.391 1.258-1.539 2.102-2.859 2.102s-2.469-0.844-2.859-2.102c-0.086-0.266 0.062-0.539 0.328-0.625 0.258-0.086 0.539 0.062 0.625 0.328 0.258 0.836 1.031 1.398 1.906 1.398s1.648-0.563 1.906-1.398c0.086-0.266 0.367-0.414 0.633-0.328 0.258 0.086 0.406 0.359 0.32 0.625zM5 5c0 0.555-0.445 1-1 1s-1-0.445-1-1 0.445-1 1-1 1 0.445 1 1zM9 5c0 0.555-0.445 1-1 1s-1-0.445-1-1 0.445-1 1-1 1 0.445 1 1zM11 7c0-2.758-2.242-5-5-5s-5 2.242-5 5 2.242 5 5 5 5-2.242 5-5zM12 7c0 3.313-2.687 6-6 6s-6-2.687-6-6 2.687-6 6-6 6 2.687 6 6z"></path>
</svg>
