<!-- Generated by IcoMoon.io -->
<svg version="1.1" xmlns="http://www.w3.org/2000/svg" width="12" height="14" viewBox="0 0 12 14">
<title>snapchat-square</title>
<path d="M10 8.969c0-0.109-0.062-0.187-0.172-0.211-0.711-0.148-1.25-0.648-1.547-1.305-0.031-0.062-0.055-0.125-0.055-0.195 0-0.352 0.969-0.281 0.969-0.781 0-0.211-0.258-0.344-0.445-0.344-0.172 0-0.312 0.125-0.492 0.125-0.031 0-0.062-0.008-0.094-0.016 0.023-0.297 0.039-0.602 0.039-0.898 0-0.266-0.016-0.641-0.133-0.891-0.375-0.813-1.094-1.289-1.992-1.289-0.977 0-1.719 0.367-2.148 1.289-0.117 0.25-0.141 0.625-0.141 0.898 0 0.297 0.023 0.594 0.047 0.891-0.039 0.008-0.078 0.016-0.117 0.016-0.172 0-0.32-0.125-0.484-0.125-0.195 0-0.43 0.133-0.43 0.352 0 0.484 0.969 0.422 0.969 0.773 0 0.070-0.023 0.133-0.055 0.195-0.305 0.656-0.828 1.148-1.547 1.305-0.109 0.023-0.172 0.102-0.172 0.211 0 0.367 0.828 0.5 1.078 0.539 0.070 0.187 0.039 0.516 0.312 0.516 0.203 0 0.398-0.078 0.602-0.078 0.828 0 1.047 0.742 2 0.742 0.992 0 1.18-0.742 2.016-0.742 0.203 0 0.406 0.070 0.609 0.070 0.266 0 0.242-0.328 0.305-0.508 0.25-0.039 1.078-0.172 1.078-0.539zM12 3.25v7.5c0 1.242-1.008 2.25-2.25 2.25h-7.5c-1.242 0-2.25-1.008-2.25-2.25v-7.5c0-1.242 1.008-2.25 2.25-2.25h7.5c1.242 0 2.25 1.008 2.25 2.25z"></path>
</svg>
