<!-- Generated by IcoMoon.io -->
<svg version="1.1" xmlns="http://www.w3.org/2000/svg" width="13" height="14" viewBox="0 0 13 14">
<title>snapchat-ghost</title>
<path d="M6.625 1c1.406-0.016 2.57 0.773 3.156 2.039 0.18 0.383 0.211 0.977 0.211 1.398 0 0.5-0.039 0.992-0.070 1.492 0.062 0.031 0.148 0.055 0.219 0.055 0.281 0 0.516-0.211 0.797-0.211 0.266 0 0.648 0.187 0.648 0.5 0 0.75-1.57 0.609-1.57 1.266 0 0.117 0.047 0.227 0.094 0.336 0.375 0.82 1.086 1.609 1.93 1.961 0.203 0.086 0.406 0.133 0.625 0.18 0.141 0.031 0.219 0.133 0.219 0.273 0 0.531-1.352 0.75-1.711 0.805-0.156 0.242-0.039 0.813-0.453 0.813-0.32 0-0.641-0.102-0.984-0.102-0.164 0-0.328 0.008-0.484 0.039-0.93 0.156-1.242 1.156-2.766 1.156-1.469 0-1.82-1-2.727-1.156-0.164-0.031-0.328-0.039-0.492-0.039-0.352 0-0.688 0.117-0.969 0.117-0.438 0-0.305-0.578-0.469-0.828-0.359-0.055-1.711-0.273-1.711-0.805 0-0.141 0.078-0.242 0.219-0.273 0.219-0.047 0.422-0.094 0.625-0.18 0.836-0.344 1.563-1.141 1.93-1.961 0.047-0.109 0.094-0.219 0.094-0.336 0-0.656-1.578-0.531-1.578-1.258 0-0.305 0.359-0.5 0.633-0.5 0.242 0 0.484 0.203 0.789 0.203 0.086 0 0.172-0.016 0.25-0.055-0.031-0.492-0.070-0.984-0.070-1.484 0-0.422 0.031-1.023 0.211-1.406 0.688-1.484 1.852-2.023 3.406-2.039z"></path>
</svg>
