<!-- Generated by IcoMoon.io -->
<svg version="1.1" xmlns="http://www.w3.org/2000/svg" width="12" height="14" viewBox="0 0 12 14">
<title>snapchat</title>
<path d="M9.992 8.969c0-0.109-0.062-0.187-0.172-0.211-0.711-0.156-1.25-0.648-1.547-1.305-0.023-0.062-0.055-0.125-0.055-0.195 0-0.352 0.977-0.281 0.977-0.781 0-0.211-0.258-0.344-0.445-0.344-0.18 0-0.32 0.125-0.492 0.125-0.031 0-0.062-0.008-0.094-0.016 0.016-0.297 0.039-0.594 0.039-0.891 0-0.273-0.016-0.648-0.133-0.891-0.375-0.813-1.102-1.289-1.992-1.289-0.977 0-1.719 0.359-2.148 1.289-0.117 0.242-0.133 0.617-0.133 0.891 0 0.297 0.023 0.594 0.039 0.891-0.031 0.016-0.070 0.016-0.109 0.016-0.18 0-0.32-0.117-0.484-0.117-0.195 0-0.438 0.125-0.438 0.344 0 0.484 0.977 0.422 0.977 0.773 0 0.070-0.031 0.133-0.055 0.195-0.305 0.656-0.828 1.148-1.547 1.305-0.109 0.023-0.172 0.102-0.172 0.211 0 0.359 0.828 0.492 1.070 0.531 0.070 0.187 0.039 0.516 0.32 0.516 0.195 0 0.391-0.070 0.602-0.070 0.82 0 1.039 0.742 1.992 0.742 0.992 0 1.18-0.742 2.008-0.742 0.211 0 0.406 0.062 0.609 0.062 0.273 0 0.242-0.328 0.312-0.508 0.242-0.039 1.070-0.172 1.070-0.531zM12 7c0 3.313-2.687 6-6 6s-6-2.687-6-6 2.687-6 6-6 6 2.687 6 6z"></path>
</svg>
