<!-- Generated by IcoMoon.io -->
<svg version="1.1" xmlns="http://www.w3.org/2000/svg" width="13" height="14" viewBox="0 0 13 14">
<title>snowflake-o</title>
<path d="M12.234 8.727l-1.305 0.258 1.453 0.836c0.234 0.133 0.32 0.445 0.18 0.68s-0.445 0.32-0.68 0.18l-1.453-0.828 0.43 1.25c0.219 0.625-0.734 0.945-0.945 0.328l-0.797-2.344-2.117-1.219v2.445l1.625 1.859c0.438 0.492-0.32 1.156-0.75 0.656l-0.875-1v1.672c0 0.273-0.227 0.5-0.5 0.5s-0.5-0.227-0.5-0.5v-1.672l-0.875 1c-0.43 0.5-1.187-0.164-0.75-0.656l1.625-1.859v-2.445l-2.117 1.219-0.797 2.344c-0.211 0.617-1.164 0.297-0.945-0.328l0.43-1.25-1.453 0.828c-0.234 0.141-0.539 0.055-0.68-0.18s-0.055-0.547 0.18-0.68l1.453-0.836-1.305-0.258c-0.648-0.133-0.453-1.109 0.195-0.984l2.422 0.484 2.117-1.227-2.117-1.227-2.422 0.484c-0.031 0.008-0.070 0.008-0.102 0.008-0.594 0-0.68-0.875-0.094-0.992l1.305-0.258-1.453-0.836c-0.234-0.133-0.32-0.445-0.18-0.68 0.141-0.242 0.445-0.32 0.68-0.18l1.453 0.828-0.43-1.25c-0.219-0.625 0.734-0.945 0.945-0.328l0.797 2.344 2.117 1.219v-2.445l-1.625-1.859c-0.437-0.492 0.32-1.156 0.75-0.656l0.875 1v-1.672c0-0.273 0.227-0.5 0.5-0.5s0.5 0.227 0.5 0.5v1.672l0.875-1c0.43-0.5 1.187 0.164 0.75 0.656l-1.625 1.859v2.445l2.117-1.219 0.797-2.344c0.211-0.617 1.164-0.297 0.945 0.328l-0.43 1.25 1.453-0.828c0.234-0.141 0.539-0.055 0.68 0.18s0.055 0.547-0.18 0.68l-1.453 0.836 1.305 0.258c0.586 0.117 0.5 0.992-0.094 0.992-0.031 0-0.070 0-0.102-0.008l-2.422-0.484-2.117 1.227 2.117 1.227 2.422-0.484c0.648-0.125 0.844 0.852 0.195 0.984z"></path>
</svg>
