<!-- Generated by IcoMoon.io -->
<svg version="1.1" xmlns="http://www.w3.org/2000/svg" width="12" height="14" viewBox="0 0 12 14">
<title>sort-numeric-desc</title>
<path d="M10.516 2.258c0-0.641-0.523-1.32-1.148-1.32-0.547 0-0.891 0.445-0.891 1.023 0 0.563 0.359 1.039 1.102 1.039 0.508 0 0.937-0.305 0.937-0.742zM5.75 11.25c0 0.070-0.031 0.133-0.078 0.187l-2.492 2.492c-0.055 0.047-0.117 0.070-0.18 0.070s-0.125-0.023-0.18-0.070l-2.5-2.5c-0.070-0.078-0.094-0.18-0.055-0.273s0.133-0.156 0.234-0.156h1.5v-10.75c0-0.141 0.109-0.25 0.25-0.25h1.5c0.141 0 0.25 0.109 0.25 0.25v10.75h1.5c0.141 0 0.25 0.109 0.25 0.25zM11.375 13.109v0.891h-3.664v-0.891h1.305v-3.375c0-0.102 0.008-0.203 0.008-0.281v-0.125h-0.016l-0.055 0.094c-0.039 0.062-0.102 0.141-0.203 0.242l-0.484 0.453-0.641-0.672 1.5-1.445h0.961v5.109h1.289zM11.609 2.711c0 1.578-0.859 3.289-2.719 3.289-0.352 0-0.641-0.055-0.844-0.125-0.125-0.039-0.234-0.078-0.328-0.117l0.305-0.883c0.070 0.031 0.156 0.062 0.242 0.086 0.156 0.055 0.359 0.102 0.586 0.102 0.937 0 1.422-0.781 1.57-1.594h-0.016c-0.219 0.234-0.68 0.398-1.141 0.398-1.133 0-1.875-0.891-1.875-1.906 0-1.078 0.828-1.961 1.977-1.961 1.242 0 2.242 1.016 2.242 2.711z"></path>
</svg>
