<!-- Generated by IcoMoon.io -->
<svg version="1.1" xmlns="http://www.w3.org/2000/svg" width="13" height="14" viewBox="0 0 13 14">
<title>sort-alpha-desc</title>
<path d="M9.305 11.188h1.383l-0.563-1.703-0.094-0.367c-0.008-0.062-0.016-0.109-0.016-0.156h-0.031l-0.023 0.156c-0.023 0.094-0.031 0.211-0.086 0.367zM5.75 11.25c0 0.070-0.031 0.133-0.078 0.187l-2.492 2.492c-0.055 0.047-0.117 0.070-0.18 0.070s-0.125-0.023-0.18-0.070l-2.5-2.5c-0.070-0.078-0.094-0.18-0.055-0.273s0.133-0.156 0.234-0.156h1.5v-10.75c0-0.141 0.109-0.25 0.25-0.25h1.5c0.141 0 0.25 0.109 0.25 0.25v10.75h1.5c0.141 0 0.25 0.109 0.25 0.25zM12.977 13.172v0.828h-2.25v-0.828h0.586l-0.367-1.125h-1.898l-0.367 1.125h0.586v0.828h-2.242v-0.828h0.547l1.797-5.172h1.266l1.797 5.172h0.547zM12.281 4.18v1.82h-4.562v-0.703l2.883-4.133c0.062-0.094 0.125-0.172 0.164-0.211l0.086-0.070v-0.023c-0.031 0-0.062 0.008-0.109 0.008-0.062 0.016-0.141 0.023-0.234 0.023h-1.812v0.898h-0.937v-1.789h4.43v0.695l-2.883 4.141c-0.047 0.070-0.109 0.141-0.164 0.203l-0.086 0.078v0.023l0.109-0.023c0.070-0.008 0.141-0.008 0.234-0.008h1.937v-0.93h0.945z"></path>
</svg>
