<!-- Generated by IcoMoon.io -->
<svg version="1.1" xmlns="http://www.w3.org/2000/svg" width="18" height="14" viewBox="0 0 18 14">
<title>soundcloud</title>
<path d="M6.125 10.719l0.125-1.883-0.125-4.086c-0.008-0.102-0.086-0.187-0.187-0.187-0.094 0-0.18 0.086-0.18 0.187l-0.109 4.086 0.109 1.883c0.008 0.102 0.086 0.18 0.18 0.18 0.102 0 0.18-0.078 0.187-0.18zM8.438 10.492l0.086-1.648-0.094-4.578c0-0.078-0.039-0.148-0.102-0.187-0.039-0.023-0.078-0.039-0.125-0.039s-0.086 0.016-0.125 0.039c-0.062 0.039-0.102 0.109-0.102 0.187l-0.008 0.047-0.078 4.523s0 0.008 0.086 1.844v0.008c0 0.047 0.016 0.094 0.047 0.133 0.047 0.055 0.109 0.086 0.18 0.086 0.062 0 0.117-0.031 0.156-0.070 0.047-0.039 0.070-0.094 0.070-0.156zM0.273 7.836l0.156 1-0.156 0.984c-0.008 0.039-0.031 0.070-0.070 0.070s-0.062-0.031-0.070-0.070l-0.133-0.984 0.133-1c0.008-0.039 0.031-0.070 0.070-0.070s0.062 0.031 0.070 0.070zM0.945 7.219l0.203 1.617-0.203 1.586c-0.008 0.039-0.039 0.070-0.078 0.070s-0.070-0.031-0.070-0.078l-0.18-1.578 0.18-1.617c0-0.039 0.031-0.070 0.070-0.070s0.070 0.031 0.078 0.070zM3.133 10.758v0 0zM1.664 6.922l0.195 1.914-0.195 1.852c0 0.047-0.039 0.086-0.086 0.086s-0.086-0.039-0.094-0.086l-0.164-1.852 0.164-1.914c0.008-0.055 0.047-0.094 0.094-0.094s0.086 0.039 0.086 0.094zM2.398 6.867l0.18 1.969-0.18 1.906c-0.008 0.062-0.055 0.102-0.109 0.102s-0.102-0.039-0.102-0.102l-0.164-1.906 0.164-1.969c0-0.062 0.047-0.102 0.102-0.102s0.102 0.039 0.109 0.102zM3.133 7.008l0.164 1.828-0.164 1.922c-0.008 0.070-0.062 0.125-0.125 0.125s-0.117-0.055-0.117-0.125l-0.156-1.922 0.156-1.828c0-0.062 0.055-0.117 0.117-0.117s0.117 0.055 0.125 0.117zM6.125 10.719v0 0zM3.867 5.867l0.164 2.969-0.164 1.922c0 0.078-0.062 0.141-0.133 0.141-0.078 0-0.133-0.062-0.141-0.141l-0.141-1.922 0.141-2.969c0.008-0.078 0.062-0.141 0.141-0.141 0.070 0 0.133 0.062 0.133 0.141zM4.602 5.195l0.148 3.656-0.148 1.906c0 0.086-0.070 0.148-0.148 0.148-0.086 0-0.148-0.062-0.156-0.148l-0.125-1.906 0.125-3.656c0.008-0.086 0.070-0.148 0.156-0.148 0.078 0 0.148 0.062 0.148 0.148zM5.367 4.883l0.141 3.953-0.141 1.891c-0.008 0.094-0.078 0.164-0.172 0.164-0.086 0-0.156-0.070-0.164-0.164l-0.125-1.891 0.125-3.953c0-0.094 0.078-0.172 0.164-0.172 0.094 0 0.164 0.078 0.172 0.172zM8.43 10.68v0 0 0 0 0 0zM6.883 4.852l0.117 3.984-0.117 1.867c0 0.109-0.086 0.195-0.195 0.195s-0.187-0.086-0.195-0.195l-0.109-1.867 0.109-3.984c0-0.109 0.086-0.195 0.195-0.195s0.195 0.086 0.195 0.195zM7.656 5l0.109 3.844-0.109 1.844c0 0.117-0.094 0.211-0.211 0.211s-0.211-0.094-0.219-0.211l-0.094-1.844 0.094-3.844c0.008-0.125 0.102-0.219 0.219-0.219s0.203 0.094 0.211 0.219zM9.313 8.844l-0.109 1.805c0 0.133-0.109 0.242-0.242 0.242s-0.242-0.109-0.25-0.242l-0.047-0.891-0.047-0.914 0.094-4.969v-0.023c0.008-0.070 0.039-0.141 0.094-0.187 0.039-0.031 0.094-0.055 0.156-0.055 0.039 0 0.086 0.016 0.117 0.039 0.070 0.039 0.117 0.117 0.125 0.203zM18 8.695c0 1.219-0.992 2.203-2.211 2.203h-6.141c-0.133-0.016-0.242-0.117-0.242-0.258v-7.023c0-0.133 0.047-0.195 0.219-0.258 0.43-0.172 0.914-0.266 1.414-0.266 2.039 0 3.711 1.563 3.891 3.555 0.266-0.109 0.555-0.172 0.859-0.172 1.219 0 2.211 0.992 2.211 2.219z"></path>
</svg>
