<!-- Generated by IcoMoon.io -->
<svg version="1.1" xmlns="http://www.w3.org/2000/svg" width="17" height="14" viewBox="0 0 17 14">
<title>space-shuttle</title>
<path d="M4.844 8.75c-0.539 0.312-1.273 0.5-2.094 0.5h-1v-0.5h-0.5c-0.141 0-0.25-0.281-0.25-0.625 0-0.141 0.023-0.273 0.055-0.383-0.602-0.016-1.055-0.117-1.055-0.242s0.453-0.227 1.055-0.242c-0.031-0.109-0.055-0.242-0.055-0.383 0-0.344 0.109-0.625 0.25-0.625h0.5v-0.5h1c0.82 0 1.555 0.187 2.094 0.5h8.695c0.578 0.102 1.102 0.187 1.461 0.25 1.5 0.25 2 0.75 2 1s-0.5 0.75-2 1c-0.359 0.062-0.883 0.148-1.461 0.25h-8.695zM13.586 6.781c0.25 0.172 0.414 0.43 0.414 0.719s-0.164 0.547-0.414 0.719l0.633 0.234c0.32-0.227 0.531-0.57 0.531-0.953s-0.211-0.727-0.531-0.953zM4.883 8.875h7.93s-1.695 0.297-3.562 0.625c-1 0-1.75 0.75-1.75 0.75l-2.25 2.25s-0.758 0.5-1.25 0.5h-0.75l-0.727-3.625h0.227c0.797 0 1.555-0.18 2.133-0.5zM2.75 5.625h-0.227l0.727-3.625h0.75c0.508 0 1 0.25 1.25 0.5l2.25 2.25c0 0 0.75 0.75 1.75 0.75 1.867 0.328 3.562 0.625 3.562 0.625h-7.93c-0.578-0.32-1.336-0.5-2.133-0.5z"></path>
</svg>
