<!-- Generated by IcoMoon.io -->
<svg version="1.1" xmlns="http://www.w3.org/2000/svg" width="14" height="14" viewBox="0 0 14 14">
<title>spinner</title>
<path d="M4.109 10.891c0 0.547-0.445 1-1 1-0.547 0-1-0.453-1-1 0-0.555 0.453-1 1-1 0.555 0 1 0.445 1 1zM8 12.5c0 0.555-0.445 1-1 1s-1-0.445-1-1 0.445-1 1-1 1 0.445 1 1zM2.5 7c0 0.555-0.445 1-1 1s-1-0.445-1-1 0.445-1 1-1 1 0.445 1 1zM11.891 10.891c0 0.547-0.453 1-1 1-0.555 0-1-0.453-1-1 0-0.555 0.445-1 1-1 0.547 0 1 0.445 1 1zM4.359 3.109c0 0.688-0.563 1.25-1.25 1.25s-1.25-0.563-1.25-1.25 0.563-1.25 1.25-1.25 1.25 0.563 1.25 1.25zM13.5 7c0 0.555-0.445 1-1 1s-1-0.445-1-1 0.445-1 1-1 1 0.445 1 1zM8.5 1.5c0 0.828-0.672 1.5-1.5 1.5s-1.5-0.672-1.5-1.5 0.672-1.5 1.5-1.5 1.5 0.672 1.5 1.5zM12.641 3.109c0 0.969-0.789 1.75-1.75 1.75-0.969 0-1.75-0.781-1.75-1.75 0-0.961 0.781-1.75 1.75-1.75 0.961 0 1.75 0.789 1.75 1.75z"></path>
</svg>
