<!-- Generated by IcoMoon.io -->
<svg version="1.1" xmlns="http://www.w3.org/2000/svg" width="12" height="14" viewBox="0 0 12 14">
<title>spotify</title>
<path d="M8.805 9.453c0-0.219-0.086-0.305-0.234-0.398-1.008-0.602-2.18-0.898-3.492-0.898-0.766 0-1.5 0.102-2.242 0.266-0.18 0.039-0.328 0.156-0.328 0.406 0 0.195 0.148 0.383 0.383 0.383 0.070 0 0.195-0.039 0.289-0.062 0.609-0.125 1.25-0.211 1.898-0.211 1.148 0 2.234 0.281 3.102 0.805 0.094 0.055 0.156 0.086 0.258 0.086 0.195 0 0.367-0.156 0.367-0.375zM9.555 7.773c0-0.211-0.078-0.359-0.273-0.477-1.195-0.711-2.711-1.102-4.281-1.102-1.008 0-1.695 0.141-2.367 0.328-0.25 0.070-0.375 0.242-0.375 0.5s0.211 0.469 0.469 0.469c0.109 0 0.172-0.031 0.289-0.062 0.547-0.148 1.203-0.258 1.961-0.258 1.484 0 2.836 0.391 3.812 0.969 0.086 0.047 0.172 0.102 0.297 0.102 0.266 0 0.469-0.211 0.469-0.469zM10.398 5.836c0-0.289-0.125-0.438-0.312-0.547-1.352-0.789-3.203-1.156-4.969-1.156-1.039 0-1.992 0.117-2.844 0.367-0.219 0.062-0.422 0.25-0.422 0.578 0 0.32 0.242 0.57 0.563 0.57 0.117 0 0.227-0.039 0.312-0.062 0.758-0.211 1.578-0.289 2.398-0.289 1.625 0 3.313 0.359 4.398 1.008 0.109 0.062 0.187 0.094 0.312 0.094 0.297 0 0.563-0.234 0.563-0.563zM12 7c0 3.313-2.687 6-6 6s-6-2.687-6-6 2.687-6 6-6 6 2.687 6 6z"></path>
</svg>
