<!-- Generated by IcoMoon.io -->
<svg version="1.1" xmlns="http://www.w3.org/2000/svg" width="13" height="14" viewBox="0 0 13 14">
<title>star-half-empty</title>
<path d="M9.266 7.477l2.008-1.953-3.297-0.484-0.234-0.469-1.242-2.516v7.523l0.461 0.242 2.484 1.313-0.469-2.773-0.094-0.516zM12.797 5.43l-2.836 2.766 0.672 3.906c0.055 0.344-0.070 0.547-0.312 0.547-0.086 0-0.195-0.031-0.312-0.094l-3.508-1.844-3.508 1.844c-0.117 0.062-0.227 0.094-0.312 0.094-0.242 0-0.367-0.203-0.312-0.547l0.672-3.906-2.844-2.766c-0.336-0.336-0.227-0.664 0.242-0.734l3.922-0.57 1.758-3.555c0.102-0.211 0.242-0.32 0.383-0.32v0c0.141 0 0.273 0.109 0.383 0.32l1.758 3.555 3.922 0.57c0.469 0.070 0.578 0.398 0.234 0.734z"></path>
</svg>
