<!-- Generated by IcoMoon.io -->
<svg version="1.1" xmlns="http://www.w3.org/2000/svg" width="13" height="14" viewBox="0 0 13 14">
<title>star-o</title>
<path d="M8.883 7.844l2.391-2.32-3.297-0.484-1.477-2.984-1.477 2.984-3.297 0.484 2.391 2.32-0.57 3.289 2.953-1.555 2.945 1.555zM13 5.055c0 0.141-0.102 0.273-0.203 0.375l-2.836 2.766 0.672 3.906c0.008 0.055 0.008 0.102 0.008 0.156 0 0.211-0.094 0.391-0.32 0.391-0.109 0-0.219-0.039-0.312-0.094l-3.508-1.844-3.508 1.844c-0.102 0.055-0.203 0.094-0.312 0.094-0.227 0-0.328-0.187-0.328-0.391 0-0.055 0.008-0.102 0.016-0.156l0.672-3.906-2.844-2.766c-0.094-0.102-0.195-0.234-0.195-0.375 0-0.234 0.242-0.328 0.438-0.359l3.922-0.57 1.758-3.555c0.070-0.148 0.203-0.32 0.383-0.32s0.312 0.172 0.383 0.32l1.758 3.555 3.922 0.57c0.187 0.031 0.438 0.125 0.438 0.359z"></path>
</svg>
