<!-- Generated by IcoMoon.io -->
<svg version="1.1" xmlns="http://www.w3.org/2000/svg" width="14" height="14" viewBox="0 0 14 14">
<title>steam</title>
<path d="M12.359 4.547c0 1.055-0.859 1.906-1.906 1.906-1.055 0-1.906-0.852-1.906-1.906s0.852-1.906 1.906-1.906c1.047 0 1.906 0.852 1.906 1.906zM6.344 10.344c0-1.086-0.867-1.953-1.953-1.953-0.141 0-0.281 0.016-0.422 0.047l0.813 0.328c0.797 0.32 1.187 1.219 0.867 2.016s-1.227 1.187-2.023 0.859c-0.32-0.125-0.641-0.258-0.961-0.383 0.328 0.617 0.977 1.039 1.727 1.039 1.086 0 1.953-0.867 1.953-1.953zM12.828 4.555c0-1.313-1.070-2.383-2.383-2.383-1.32 0-2.391 1.070-2.391 2.383 0 1.32 1.070 2.383 2.391 2.383 1.313 0 2.383-1.062 2.383-2.383zM14 4.555c0 1.969-1.594 3.555-3.555 3.555l-3.414 2.492c-0.125 1.344-1.266 2.398-2.641 2.398-1.266 0-2.336-0.898-2.594-2.094l-1.797-0.719v-3.352l3.039 1.227c0.398-0.242 0.859-0.375 1.352-0.375 0.094 0 0.187 0.008 0.273 0.016l2.219-3.18c0.016-1.945 1.609-3.523 3.562-3.523 1.961 0 3.555 1.594 3.555 3.555z"></path>
</svg>
