<!-- Generated by IcoMoon.io -->
<svg version="1.1" xmlns="http://www.w3.org/2000/svg" width="12" height="14" viewBox="0 0 12 14">
<title>steam-square</title>
<path d="M9.703 5.055c0-0.828-0.68-1.508-1.516-1.508-0.828 0-1.508 0.68-1.508 1.508 0 0.836 0.68 1.508 1.508 1.508 0.836 0 1.516-0.672 1.516-1.508zM4.938 9.648c0 0.859-0.688 1.547-1.547 1.547-0.594 0-1.109-0.336-1.367-0.828 0.258 0.102 0.508 0.203 0.766 0.312 0.625 0.25 1.344-0.055 1.602-0.688 0.25-0.625-0.055-1.344-0.688-1.594l-0.641-0.258c0.102-0.023 0.219-0.039 0.328-0.039 0.859 0 1.547 0.688 1.547 1.547zM12 3.25v7.5c0 1.242-1.008 2.25-2.25 2.25h-7.5c-1.242 0-2.25-1.008-2.25-2.25v-1.195l1.344 0.539c0.203 0.945 1.047 1.656 2.047 1.656 1.094 0 1.992-0.836 2.094-1.898l2.695-1.969c1.563 0 2.82-1.266 2.82-2.812 0-1.563-1.258-2.82-2.82-2.82-1.539 0-2.797 1.25-2.812 2.789l-1.758 2.516c-0.070-0.008-0.141-0.008-0.219-0.008-0.391 0-0.758 0.102-1.070 0.289l-2.32-0.93v-3.656c0-1.242 1.008-2.25 2.25-2.25h7.5c1.242 0 2.25 1.008 2.25 2.25zM10.070 5.070c0 1.039-0.844 1.883-1.891 1.883-1.039 0-1.883-0.844-1.883-1.883 0-1.047 0.844-1.891 1.883-1.891 1.047 0 1.891 0.844 1.891 1.891z"></path>
</svg>
