<!-- Generated by IcoMoon.io -->
<svg version="1.1" xmlns="http://www.w3.org/2000/svg" width="11" height="14" viewBox="0 0 11 14">
<title>stethoscope</title>
<path d="M10 5.5c0-0.273-0.227-0.5-0.5-0.5s-0.5 0.227-0.5 0.5 0.227 0.5 0.5 0.5 0.5-0.227 0.5-0.5zM11 5.5c0 0.656-0.414 1.203-1 1.414v3.086c0 1.656-1.57 3-3.5 3s-3.5-1.344-3.5-3v-1.031c-1.695-0.211-3-1.461-3-2.969v-4c0-0.273 0.227-0.5 0.5-0.5 0.047 0 0.086 0.008 0.125 0.016 0.172-0.305 0.5-0.516 0.875-0.516 0.555 0 1 0.445 1 1s-0.445 1-1 1c-0.18 0-0.352-0.055-0.5-0.141v3.141c0 1.102 1.125 2 2.5 2s2.5-0.898 2.5-2v-3.141c-0.148 0.086-0.32 0.141-0.5 0.141-0.555 0-1-0.445-1-1s0.445-1 1-1c0.375 0 0.703 0.211 0.875 0.516 0.039-0.008 0.078-0.016 0.125-0.016 0.273 0 0.5 0.227 0.5 0.5v4c0 1.508-1.305 2.758-3 2.969v1.031c0 1.102 1.125 2 2.5 2s2.5-0.898 2.5-2v-3.086c-0.586-0.211-1-0.758-1-1.414 0-0.828 0.672-1.5 1.5-1.5s1.5 0.672 1.5 1.5z"></path>
</svg>
