<!-- Generated by IcoMoon.io -->
<svg version="1.1" xmlns="http://www.w3.org/2000/svg" width="12" height="14" viewBox="0 0 12 14">
<title>sticky-note-o</title>
<path d="M10.938 10h-1.937v1.937c0.133-0.047 0.266-0.117 0.32-0.172l1.445-1.445c0.055-0.055 0.125-0.187 0.172-0.32zM8.75 9h2.25v-7h-10v10h7v-2.25c0-0.414 0.336-0.75 0.75-0.75zM12 1.75v8c0 0.414-0.242 0.992-0.531 1.281l-1.438 1.438c-0.289 0.289-0.867 0.531-1.281 0.531h-8c-0.414 0-0.75-0.336-0.75-0.75v-10.5c0-0.414 0.336-0.75 0.75-0.75h10.5c0.414 0 0.75 0.336 0.75 0.75z"></path>
</svg>
