<!-- Generated by IcoMoon.io -->
<svg version="1.1" xmlns="http://www.w3.org/2000/svg" width="11" height="14" viewBox="0 0 11 14">
<title>street-view</title>
<path d="M11 12c0 1.375-2.852 2-5.5 2s-5.5-0.625-5.5-2c0-1.062 1.586-1.563 2.914-1.789 0.273-0.047 0.531 0.133 0.578 0.406s-0.133 0.531-0.406 0.578c-1.609 0.281-2.062 0.719-2.086 0.813 0.078 0.266 1.578 0.992 4.5 0.992s4.422-0.727 4.5-1.008c-0.023-0.078-0.477-0.516-2.086-0.797-0.273-0.047-0.453-0.305-0.406-0.578s0.305-0.453 0.578-0.406c1.328 0.227 2.914 0.727 2.914 1.789zM8 5v3c0 0.273-0.227 0.5-0.5 0.5h-0.5v3c0 0.273-0.227 0.5-0.5 0.5h-2c-0.273 0-0.5-0.227-0.5-0.5v-3h-0.5c-0.273 0-0.5-0.227-0.5-0.5v-3c0-0.555 0.445-1 1-1h3c0.555 0 1 0.445 1 1zM7.25 2c0 0.969-0.781 1.75-1.75 1.75s-1.75-0.781-1.75-1.75 0.781-1.75 1.75-1.75 1.75 0.781 1.75 1.75z"></path>
</svg>
