<!-- Generated by IcoMoon.io -->
<svg version="1.1" xmlns="http://www.w3.org/2000/svg" width="14" height="14" viewBox="0 0 14 14">
<title>strikethrough</title>
<path d="M13.75 7c0.141 0 0.25 0.109 0.25 0.25v0.5c0 0.141-0.109 0.25-0.25 0.25h-13.5c-0.141 0-0.25-0.109-0.25-0.25v-0.5c0-0.141 0.109-0.25 0.25-0.25h13.5zM3.773 6.5c-0.148-0.187-0.281-0.398-0.398-0.625-0.25-0.508-0.375-1-0.375-1.469 0-0.953 0.352-1.75 1.047-2.414s1.719-0.992 3.070-0.992c0.297 0 0.727 0.055 1.305 0.148 0.344 0.062 0.805 0.187 1.383 0.375 0.055 0.203 0.109 0.516 0.164 0.922 0.070 0.617 0.109 1.094 0.109 1.43 0 0.109-0.016 0.227-0.039 0.352l-0.094 0.023-0.656-0.047-0.109-0.016c-0.266-0.789-0.539-1.32-0.805-1.602-0.461-0.477-1.016-0.711-1.641-0.711-0.594 0-1.070 0.156-1.422 0.461s-0.523 0.688-0.523 1.141c0 0.383 0.172 0.742 0.516 1.094s1.070 0.688 2.18 1.008c0.375 0.109 0.82 0.281 1.352 0.516 0.281 0.133 0.531 0.266 0.742 0.406h-5.805zM7.734 8.5h3.211c0.039 0.219 0.055 0.461 0.055 0.719 0 0.563-0.102 1.117-0.32 1.656-0.117 0.289-0.297 0.555-0.555 0.813-0.187 0.18-0.469 0.391-0.852 0.633-0.391 0.234-0.781 0.414-1.195 0.516-0.414 0.109-0.937 0.164-1.586 0.164-0.43 0-0.945-0.016-1.523-0.18l-1.094-0.312c-0.305-0.086-0.484-0.156-0.563-0.219-0.031-0.031-0.062-0.086-0.062-0.172v-0.102c0-0.062 0.016-0.469-0.016-1.219-0.016-0.391 0.016-0.664 0.016-0.82v-0.344l0.797-0.016c0.289 0.664 0.422 1.062 0.508 1.203 0.187 0.305 0.398 0.547 0.625 0.734s0.5 0.336 0.82 0.445c0.312 0.117 0.664 0.172 1.031 0.172 0.328 0 0.695-0.070 1.086-0.211 0.398-0.133 0.719-0.359 0.953-0.672 0.242-0.312 0.367-0.648 0.367-1.008 0-0.438-0.211-0.844-0.633-1.227-0.172-0.148-0.531-0.336-1.070-0.555z"></path>
</svg>
