<!-- Generated by IcoMoon.io -->
<svg version="1.1" xmlns="http://www.w3.org/2000/svg" width="12" height="14" viewBox="0 0 12 14">
<title>stumbleupon-circle</title>
<path d="M6.766 6.555l0.703-0.211v-0.484c0-0.828-0.703-1.492-1.531-1.492s-1.531 0.656-1.531 1.484v2.211c0 0.203-0.164 0.367-0.367 0.367s-0.359-0.164-0.359-0.367v-0.937h-1.18v0.953c0 0.852 0.688 1.531 1.539 1.531 0.836 0 1.531-0.672 1.531-1.508v-2.188c0-0.203 0.164-0.367 0.367-0.367 0.195 0 0.359 0.164 0.359 0.367v0.422zM9.367 8.078v-0.953h-1.172v0.984c0 0.203-0.164 0.367-0.367 0.367-0.195 0-0.359-0.164-0.359-0.367v-0.961l-0.703 0.203-0.469-0.219v0.961c0 0.836 0.695 1.516 1.539 1.516s1.531-0.68 1.531-1.531zM12 7c0 3.313-2.687 6-6 6s-6-2.687-6-6 2.687-6 6-6 6 2.687 6 6z"></path>
</svg>
