<!-- Generated by IcoMoon.io -->
<svg version="1.1" xmlns="http://www.w3.org/2000/svg" width="15" height="14" viewBox="0 0 15 14">
<title>stumbleupon</title>
<path d="M8.297 5.562v-0.922c0-0.438-0.359-0.797-0.797-0.797s-0.797 0.359-0.797 0.797v4.781c0 1.828-1.516 3.305-3.352 3.305-1.852 0-3.352-1.5-3.352-3.352v-2.078h2.563v2.047c0 0.445 0.359 0.797 0.797 0.797s0.797-0.352 0.797-0.797v-4.844c0-1.789 1.531-3.227 3.344-3.227 1.82 0 3.344 1.445 3.344 3.25v1.062l-1.523 0.453zM12.437 7.297h2.563v2.078c0 1.852-1.5 3.352-3.352 3.352-1.844 0-3.352-1.484-3.352-3.32v-2.094l1.023 0.477 1.523-0.453v2.109c0 0.438 0.359 0.789 0.797 0.789s0.797-0.352 0.797-0.789v-2.148z"></path>
</svg>
