<!-- Generated by IcoMoon.io -->
<svg version="1.1" xmlns="http://www.w3.org/2000/svg" width="12" height="14" viewBox="0 0 12 14">
<title>subscript</title>
<path d="M7.008 10.695v1.305h-1.937l-1.242-1.969-0.187-0.328c-0.047-0.055-0.070-0.109-0.086-0.164h-0.023c-0.016 0.055-0.047 0.109-0.070 0.164-0.047 0.094-0.117 0.219-0.195 0.344l-1.211 1.953h-2.016v-1.305h1l1.539-2.273-1.445-2.125h-1.070v-1.313h2.156l1.086 1.781c0.070 0.109 0.125 0.227 0.18 0.328 0.047 0.055 0.070 0.109 0.086 0.164h0.023c0.016-0.055 0.047-0.109 0.086-0.164l0.195-0.328 1.094-1.781h2.008v1.313h-0.977l-1.438 2.086 1.594 2.313h0.852zM12 12.391v1.609h-4.016l-0.031-0.211c-0.008-0.117-0.023-0.258-0.023-0.359 0-2.133 2.734-2.313 2.734-3.445 0-0.406-0.367-0.68-0.781-0.68-0.305 0-0.563 0.141-0.758 0.305-0.102 0.086-0.195 0.195-0.281 0.297l-0.82-0.719c0.141-0.195 0.297-0.359 0.492-0.516 0.328-0.266 0.805-0.508 1.469-0.508 1.133 0 1.922 0.664 1.922 1.703 0 1.867-2.594 2.023-2.703 3.148h1.812v-0.625h0.984z"></path>
</svg>
