<!-- Generated by IcoMoon.io -->
<svg version="1.1" xmlns="http://www.w3.org/2000/svg" width="12" height="14" viewBox="0 0 12 14">
<title>subway</title>
<path d="M8.5 0c1.93 0 3.5 1.117 3.5 2.5v7c0 1.352-1.492 2.445-3.367 2.492l1.664 1.578c0.164 0.156 0.055 0.43-0.172 0.43h-8.25c-0.227 0-0.336-0.273-0.172-0.43l1.664-1.578c-1.875-0.047-3.367-1.141-3.367-2.492v-7c0-1.383 1.57-2.5 3.5-2.5h5zM2.25 10.25c0.688 0 1.25-0.563 1.25-1.25s-0.563-1.25-1.25-1.25-1.25 0.563-1.25 1.25 0.563 1.25 1.25 1.25zM5.5 6v-4h-4.25v4h4.25zM9.75 10.25c0.688 0 1.25-0.563 1.25-1.25s-0.563-1.25-1.25-1.25-1.25 0.563-1.25 1.25 0.563 1.25 1.25 1.25zM11 6v-4h-4.5v4h4.5z"></path>
</svg>
