<!-- Generated by IcoMoon.io -->
<svg version="1.1" xmlns="http://www.w3.org/2000/svg" width="14" height="14" viewBox="0 0 14 14">
<title>sun-o</title>
<path d="M11.5 7c0-2.484-2.016-4.5-4.5-4.5s-4.5 2.016-4.5 4.5 2.016 4.5 4.5 4.5 4.5-2.016 4.5-4.5zM13.656 9.164c-0.023 0.078-0.086 0.133-0.156 0.156l-2.281 0.75v2.391c0 0.078-0.039 0.156-0.102 0.203-0.070 0.047-0.148 0.062-0.227 0.031l-2.281-0.734-1.406 1.937c-0.047 0.062-0.125 0.102-0.203 0.102s-0.156-0.039-0.203-0.102l-1.406-1.937-2.281 0.734c-0.078 0.031-0.156 0.016-0.227-0.031-0.062-0.047-0.102-0.125-0.102-0.203v-2.391l-2.281-0.75c-0.070-0.023-0.133-0.078-0.156-0.156s-0.016-0.164 0.031-0.227l1.406-1.937-1.406-1.937c-0.047-0.070-0.055-0.148-0.031-0.227s0.086-0.133 0.156-0.156l2.281-0.75v-2.391c0-0.078 0.039-0.156 0.102-0.203 0.070-0.047 0.148-0.062 0.227-0.031l2.281 0.734 1.406-1.937c0.094-0.125 0.312-0.125 0.406 0l1.406 1.937 2.281-0.734c0.078-0.031 0.156-0.016 0.227 0.031 0.062 0.047 0.102 0.125 0.102 0.203v2.391l2.281 0.75c0.070 0.023 0.133 0.078 0.156 0.156s0.016 0.156-0.031 0.227l-1.406 1.937 1.406 1.937c0.047 0.062 0.055 0.148 0.031 0.227z"></path>
</svg>
