<!-- Generated by IcoMoon.io -->
<svg version="1.1" xmlns="http://www.w3.org/2000/svg" width="14" height="14" viewBox="0 0 14 14">
<title>superpowers</title>
<path d="M11.508 7.258c0.141-2.5-1.773-4.57-4.25-4.719-2.461-0.148-4.641 1.727-4.781 4.203-0.141 2.5 1.773 4.57 4.258 4.719 2.461 0.148 4.641-1.719 4.773-4.203zM14 0l-2.727 2.719c1.242 1.211 1.914 2.898 1.805 4.633-0.172 2.906-2.406 5.227-5.273 5.617l-7.805 1.031 2.711-2.711c-1.242-1.211-1.906-2.898-1.805-4.633 0.18-2.914 2.406-5.234 5.281-5.625 2.602-0.344 5.211-0.688 7.813-1.031z"></path>
</svg>
