<!-- Generated by IcoMoon.io -->
<svg version="1.1" xmlns="http://www.w3.org/2000/svg" width="13" height="14" viewBox="0 0 13 14">
<title>table</title>
<path d="M4 10.75v-1.5c0-0.141-0.109-0.25-0.25-0.25h-2.5c-0.141 0-0.25 0.109-0.25 0.25v1.5c0 0.141 0.109 0.25 0.25 0.25h2.5c0.141 0 0.25-0.109 0.25-0.25zM4 7.75v-1.5c0-0.141-0.109-0.25-0.25-0.25h-2.5c-0.141 0-0.25 0.109-0.25 0.25v1.5c0 0.141 0.109 0.25 0.25 0.25h2.5c0.141 0 0.25-0.109 0.25-0.25zM8 10.75v-1.5c0-0.141-0.109-0.25-0.25-0.25h-2.5c-0.141 0-0.25 0.109-0.25 0.25v1.5c0 0.141 0.109 0.25 0.25 0.25h2.5c0.141 0 0.25-0.109 0.25-0.25zM4 4.75v-1.5c0-0.141-0.109-0.25-0.25-0.25h-2.5c-0.141 0-0.25 0.109-0.25 0.25v1.5c0 0.141 0.109 0.25 0.25 0.25h2.5c0.141 0 0.25-0.109 0.25-0.25zM8 7.75v-1.5c0-0.141-0.109-0.25-0.25-0.25h-2.5c-0.141 0-0.25 0.109-0.25 0.25v1.5c0 0.141 0.109 0.25 0.25 0.25h2.5c0.141 0 0.25-0.109 0.25-0.25zM12 10.75v-1.5c0-0.141-0.109-0.25-0.25-0.25h-2.5c-0.141 0-0.25 0.109-0.25 0.25v1.5c0 0.141 0.109 0.25 0.25 0.25h2.5c0.141 0 0.25-0.109 0.25-0.25zM8 4.75v-1.5c0-0.141-0.109-0.25-0.25-0.25h-2.5c-0.141 0-0.25 0.109-0.25 0.25v1.5c0 0.141 0.109 0.25 0.25 0.25h2.5c0.141 0 0.25-0.109 0.25-0.25zM12 7.75v-1.5c0-0.141-0.109-0.25-0.25-0.25h-2.5c-0.141 0-0.25 0.109-0.25 0.25v1.5c0 0.141 0.109 0.25 0.25 0.25h2.5c0.141 0 0.25-0.109 0.25-0.25zM12 4.75v-1.5c0-0.141-0.109-0.25-0.25-0.25h-2.5c-0.141 0-0.25 0.109-0.25 0.25v1.5c0 0.141 0.109 0.25 0.25 0.25h2.5c0.141 0 0.25-0.109 0.25-0.25zM13 2.25v8.5c0 0.688-0.563 1.25-1.25 1.25h-10.5c-0.688 0-1.25-0.563-1.25-1.25v-8.5c0-0.688 0.563-1.25 1.25-1.25h10.5c0.688 0 1.25 0.563 1.25 1.25z"></path>
</svg>
