<!-- Generated by IcoMoon.io -->
<svg version="1.1" xmlns="http://www.w3.org/2000/svg" width="9" height="14" viewBox="0 0 9 14">
<title>tablet</title>
<path d="M5 11c0-0.273-0.227-0.5-0.5-0.5s-0.5 0.227-0.5 0.5 0.227 0.5 0.5 0.5 0.5-0.227 0.5-0.5zM8 9.75v-7.5c0-0.133-0.117-0.25-0.25-0.25h-6.5c-0.133 0-0.25 0.117-0.25 0.25v7.5c0 0.133 0.117 0.25 0.25 0.25h6.5c0.133 0 0.25-0.117 0.25-0.25zM9 2.25v8.5c0 0.688-0.563 1.25-1.25 1.25h-6.5c-0.688 0-1.25-0.563-1.25-1.25v-8.5c0-0.688 0.563-1.25 1.25-1.25h6.5c0.688 0 1.25 0.563 1.25 1.25z"></path>
</svg>
