<!-- Generated by IcoMoon.io -->
<svg version="1.1" xmlns="http://www.w3.org/2000/svg" width="15" height="14" viewBox="0 0 15 14">
<title>tags</title>
<path d="M3.5 3.5c0-0.555-0.445-1-1-1s-1 0.445-1 1 0.445 1 1 1 1-0.445 1-1zM11.836 8c0 0.266-0.109 0.523-0.289 0.703l-3.836 3.844c-0.187 0.18-0.445 0.289-0.711 0.289s-0.523-0.109-0.703-0.289l-5.586-5.594c-0.398-0.391-0.711-1.148-0.711-1.703v-3.25c0-0.547 0.453-1 1-1h3.25c0.555 0 1.313 0.312 1.711 0.711l5.586 5.578c0.18 0.187 0.289 0.445 0.289 0.711zM14.836 8c0 0.266-0.109 0.523-0.289 0.703l-3.836 3.844c-0.187 0.18-0.445 0.289-0.711 0.289-0.406 0-0.609-0.187-0.875-0.461l3.672-3.672c0.18-0.18 0.289-0.438 0.289-0.703s-0.109-0.523-0.289-0.711l-5.586-5.578c-0.398-0.398-1.156-0.711-1.711-0.711h1.75c0.555 0 1.313 0.312 1.711 0.711l5.586 5.578c0.18 0.187 0.289 0.445 0.289 0.711z"></path>
</svg>
