<!-- Generated by IcoMoon.io -->
<svg version="1.1" xmlns="http://www.w3.org/2000/svg" width="14" height="14" viewBox="0 0 14 14">
<title>tasks</title>
<path d="M8 11h5v-1h-5v1zM5 7h8v-1h-8v1zM10 3h3v-1h-3v1zM14 9.5v2c0 0.273-0.227 0.5-0.5 0.5h-13c-0.273 0-0.5-0.227-0.5-0.5v-2c0-0.273 0.227-0.5 0.5-0.5h13c0.273 0 0.5 0.227 0.5 0.5zM14 5.5v2c0 0.273-0.227 0.5-0.5 0.5h-13c-0.273 0-0.5-0.227-0.5-0.5v-2c0-0.273 0.227-0.5 0.5-0.5h13c0.273 0 0.5 0.227 0.5 0.5zM14 1.5v2c0 0.273-0.227 0.5-0.5 0.5h-13c-0.273 0-0.5-0.227-0.5-0.5v-2c0-0.273 0.227-0.5 0.5-0.5h13c0.273 0 0.5 0.227 0.5 0.5z"></path>
</svg>
