<!-- Generated by IcoMoon.io -->
<svg version="1.1" xmlns="http://www.w3.org/2000/svg" width="14" height="14" viewBox="0 0 14 14">
<title>telegram</title>
<path d="M9.289 10.211l1.148-5.414c0.102-0.477-0.172-0.664-0.484-0.547l-6.75 2.602c-0.461 0.18-0.453 0.438-0.078 0.555l1.727 0.539 4.008-2.523c0.187-0.125 0.359-0.055 0.219 0.070l-3.242 2.93-0.125 1.781c0.18 0 0.258-0.078 0.352-0.172l0.844-0.813 1.75 1.289c0.32 0.18 0.547 0.086 0.633-0.297zM14 7c0 3.867-3.133 7-7 7s-7-3.133-7-7 3.133-7 7-7 7 3.133 7 7z"></path>
</svg>
