<!-- Generated by IcoMoon.io -->
<svg version="1.1" xmlns="http://www.w3.org/2000/svg" width="15" height="14" viewBox="0 0 15 14">
<title>television</title>
<path d="M14 9.75v-7.5c0-0.133-0.117-0.25-0.25-0.25h-12.5c-0.133 0-0.25 0.117-0.25 0.25v7.5c0 0.133 0.117 0.25 0.25 0.25h12.5c0.133 0 0.25-0.117 0.25-0.25zM15 2.25v7.5c0 0.688-0.563 1.25-1.25 1.25h-5.75v1h2.75c0.141 0 0.25 0.109 0.25 0.25v0.5c0 0.141-0.109 0.25-0.25 0.25h-6.5c-0.141 0-0.25-0.109-0.25-0.25v-0.5c0-0.141 0.109-0.25 0.25-0.25h2.75v-1h-5.75c-0.688 0-1.25-0.563-1.25-1.25v-7.5c0-0.688 0.563-1.25 1.25-1.25h12.5c0.688 0 1.25 0.563 1.25 1.25z"></path>
</svg>
