<!-- Generated by IcoMoon.io -->
<svg version="1.1" xmlns="http://www.w3.org/2000/svg" width="10" height="14" viewBox="0 0 10 14">
<title>tencent-weibo</title>
<path d="M6.578 4.469c0 0.828-0.68 1.508-1.508 1.508-0.32 0-0.617-0.102-0.867-0.273-0.281 0.305-0.594 0.688-0.898 1.141-1.273 1.914-1.812 4.172-1.578 6.711 0.016 0.227-0.148 0.422-0.367 0.445h-0.039c-0.203 0-0.383-0.156-0.406-0.367-0.305-3.422 0.781-5.844 1.742-7.273 0.352-0.523 0.703-0.945 1.031-1.289-0.086-0.187-0.125-0.391-0.125-0.602 0-0.836 0.672-1.508 1.508-1.508 0.828 0 1.508 0.672 1.508 1.508zM9.555 4.555c0 2.508-2.039 4.547-4.555 4.547-0.344 0-0.688-0.039-1.023-0.109-0.219-0.055-0.352-0.273-0.305-0.492 0.055-0.211 0.266-0.352 0.484-0.305 0.273 0.070 0.563 0.102 0.844 0.102 2.062 0 3.742-1.68 3.742-3.742s-1.68-3.742-3.742-3.742-3.742 1.68-3.742 3.742c0 0.602 0.141 1.172 0.406 1.703 0.102 0.203 0.023 0.445-0.172 0.547-0.203 0.102-0.445 0.023-0.547-0.18-0.328-0.633-0.5-1.352-0.5-2.070 0-2.516 2.047-4.555 4.555-4.555 2.516 0 4.555 2.039 4.555 4.555z"></path>
</svg>
