<!-- Generated by IcoMoon.io -->
<svg version="1.1" xmlns="http://www.w3.org/2000/svg" width="13" height="14" viewBox="0 0 13 14">
<title>terminal</title>
<path d="M4.57 7.68l-3.641 3.641c-0.102 0.102-0.258 0.102-0.359 0l-0.391-0.391c-0.102-0.102-0.102-0.258 0-0.359l3.070-3.070-3.070-3.070c-0.102-0.102-0.102-0.258 0-0.359l0.391-0.391c0.102-0.102 0.258-0.102 0.359 0l3.641 3.641c0.102 0.102 0.102 0.258 0 0.359zM13 11.25v0.5c0 0.141-0.109 0.25-0.25 0.25h-7.5c-0.141 0-0.25-0.109-0.25-0.25v-0.5c0-0.141 0.109-0.25 0.25-0.25h7.5c0.141 0 0.25 0.109 0.25 0.25z"></path>
</svg>
