<!-- Generated by IcoMoon.io -->
<svg version="1.1" xmlns="http://www.w3.org/2000/svg" width="12" height="14" viewBox="0 0 12 14">
<title>text-width</title>
<path d="M0.633 1.008l0.422 0.211c0.055 0.023 1.484 0.039 1.648 0.039 0.688 0 1.375-0.031 2.062-0.031 2.070 0 4.164-0.047 6.234 0.023 0.172 0.008 0.336-0.102 0.438-0.242l0.328-0.008c0.070 0 0.148 0.008 0.219 0.008 0.016 0.875 0.016 1.75 0.016 2.625 0 0.281 0.008 0.578-0.039 0.852-0.172 0.062-0.352 0.117-0.531 0.141-0.18-0.312-0.305-0.656-0.422-1-0.055-0.156-0.25-1.211-0.258-1.227-0.055-0.070-0.125-0.117-0.211-0.148-0.062-0.023-0.438-0.016-0.516-0.016-0.961 0-2.070-0.055-3.016 0.055-0.039 0.344-0.070 0.711-0.062 1.062l0.008 1.187v-0.406c0.008 1.273 0.023 2.539 0.023 3.805 0 0.602-0.094 1.234 0.078 1.812 0.594 0.305 1.297 0.352 1.906 0.625 0.016 0.125 0.039 0.258 0.039 0.391 0 0.070-0.008 0.148-0.023 0.227l-0.266 0.008c-1.109 0.031-2.203-0.141-3.32-0.141-0.789 0-1.578 0.141-2.367 0.141-0.008-0.133-0.023-0.273-0.023-0.406v-0.070c0.297-0.477 1.367-0.484 1.859-0.773 0.195-0.438 0.141-4.133 0.141-4.82 0-0.109-0.039-0.227-0.039-0.344 0-0.32 0.055-2.156-0.062-2.289-0.109-0.117-1.133-0.094-1.266-0.094-0.328 0-2.164 0.172-2.352 0.297-0.367 0.242-0.375 1.812-0.844 1.852-0.141-0.086-0.336-0.211-0.438-0.344v-2.992zM10.234 11.023c0.273 0 1.313 0.93 1.523 1.094 0.117 0.094 0.203 0.227 0.203 0.383s-0.086 0.289-0.203 0.383c-0.211 0.164-1.25 1.094-1.523 1.094-0.359 0-0.234-0.836-0.234-0.977h-8c0 0.141 0.125 0.977-0.234 0.977-0.273 0-1.313-0.93-1.523-1.094-0.117-0.094-0.203-0.227-0.203-0.383s0.086-0.289 0.203-0.383c0.211-0.164 1.25-1.094 1.523-1.094 0.359 0 0.234 0.836 0.234 0.977h8c0-0.141-0.125-0.977 0.234-0.977z"></path>
</svg>
