<!-- Generated by IcoMoon.io -->
<svg version="1.1" xmlns="http://www.w3.org/2000/svg" width="14" height="14" viewBox="0 0 14 14">
<title>text-height</title>
<path d="M13.625 11c0.344 0 0.453 0.219 0.242 0.492l-0.984 1.266c-0.211 0.273-0.555 0.273-0.766 0l-0.984-1.266c-0.211-0.273-0.102-0.492 0.242-0.492h0.625v-8h-0.625c-0.344 0-0.453-0.219-0.242-0.492l0.984-1.266c0.211-0.273 0.555-0.273 0.766 0l0.984 1.266c0.211 0.273 0.102 0.492-0.242 0.492h-0.625v8h0.625zM0.633 1.008l0.422 0.211c0.055 0.023 1.484 0.039 1.648 0.039 0.688 0 1.375-0.031 2.062-0.031 0.563 0 1.117 0.008 1.68 0.008h2.289c0.312 0 0.492 0.070 0.703-0.227l0.328-0.008c0.070 0 0.148 0.008 0.219 0.008 0.016 0.875 0.016 1.75 0.016 2.625 0 0.273 0.008 0.578-0.039 0.852-0.172 0.062-0.352 0.117-0.531 0.141-0.18-0.312-0.305-0.656-0.422-1-0.055-0.156-0.242-1.211-0.258-1.227-0.164-0.203-0.344-0.164-0.586-0.164-0.711 0-1.453-0.031-2.156 0.055-0.039 0.344-0.070 0.711-0.062 1.062 0.008 2.195 0.031 4.391 0.031 6.586 0 0.602-0.094 1.234 0.078 1.812 0.594 0.305 1.297 0.352 1.906 0.625 0.016 0.125 0.039 0.258 0.039 0.391 0 0.070-0.008 0.148-0.023 0.227l-0.266 0.008c-1.109 0.031-2.203-0.141-3.32-0.141-0.789 0-1.578 0.141-2.367 0.141-0.008-0.133-0.023-0.273-0.023-0.406v-0.070c0.297-0.477 1.367-0.484 1.859-0.773 0.172-0.383 0.148-2.5 0.148-2.992 0-1.578-0.047-3.156-0.047-4.734v-0.914c0-0.141 0.031-0.703-0.062-0.813-0.109-0.117-1.133-0.094-1.266-0.094-0.289 0-1.125 0.133-1.352 0.297-0.375 0.258-0.375 1.82-0.844 1.852-0.141-0.086-0.336-0.211-0.438-0.344v-2.992z"></path>
</svg>
