<!-- Generated by IcoMoon.io -->
<svg version="1.1" xmlns="http://www.w3.org/2000/svg" width="14" height="14" viewBox="0 0 14 14">
<title>th</title>
<path d="M4 9.75v1.5c0 0.414-0.336 0.75-0.75 0.75h-2.5c-0.414 0-0.75-0.336-0.75-0.75v-1.5c0-0.414 0.336-0.75 0.75-0.75h2.5c0.414 0 0.75 0.336 0.75 0.75zM4 5.75v1.5c0 0.414-0.336 0.75-0.75 0.75h-2.5c-0.414 0-0.75-0.336-0.75-0.75v-1.5c0-0.414 0.336-0.75 0.75-0.75h2.5c0.414 0 0.75 0.336 0.75 0.75zM9 9.75v1.5c0 0.414-0.336 0.75-0.75 0.75h-2.5c-0.414 0-0.75-0.336-0.75-0.75v-1.5c0-0.414 0.336-0.75 0.75-0.75h2.5c0.414 0 0.75 0.336 0.75 0.75zM4 1.75v1.5c0 0.414-0.336 0.75-0.75 0.75h-2.5c-0.414 0-0.75-0.336-0.75-0.75v-1.5c0-0.414 0.336-0.75 0.75-0.75h2.5c0.414 0 0.75 0.336 0.75 0.75zM9 5.75v1.5c0 0.414-0.336 0.75-0.75 0.75h-2.5c-0.414 0-0.75-0.336-0.75-0.75v-1.5c0-0.414 0.336-0.75 0.75-0.75h2.5c0.414 0 0.75 0.336 0.75 0.75zM14 9.75v1.5c0 0.414-0.336 0.75-0.75 0.75h-2.5c-0.414 0-0.75-0.336-0.75-0.75v-1.5c0-0.414 0.336-0.75 0.75-0.75h2.5c0.414 0 0.75 0.336 0.75 0.75zM9 1.75v1.5c0 0.414-0.336 0.75-0.75 0.75h-2.5c-0.414 0-0.75-0.336-0.75-0.75v-1.5c0-0.414 0.336-0.75 0.75-0.75h2.5c0.414 0 0.75 0.336 0.75 0.75zM14 5.75v1.5c0 0.414-0.336 0.75-0.75 0.75h-2.5c-0.414 0-0.75-0.336-0.75-0.75v-1.5c0-0.414 0.336-0.75 0.75-0.75h2.5c0.414 0 0.75 0.336 0.75 0.75zM14 1.75v1.5c0 0.414-0.336 0.75-0.75 0.75h-2.5c-0.414 0-0.75-0.336-0.75-0.75v-1.5c0-0.414 0.336-0.75 0.75-0.75h2.5c0.414 0 0.75 0.336 0.75 0.75z"></path>
</svg>
