<!-- Generated by IcoMoon.io -->
<svg version="1.1" xmlns="http://www.w3.org/2000/svg" width="14" height="14" viewBox="0 0 14 14">
<title>themeisle</title>
<path d="M6.656 2.414c0 0.281-0.18 0.594-0.484 0.594-0.312 0-0.484-0.312-0.484-0.594 0-0.273 0.172-0.594 0.484-0.594 0.305 0 0.484 0.32 0.484 0.594zM5.375 13.164v-0.891c0-0.305-0.242-0.57-0.555-0.57s-0.547 0.266-0.547 0.57v0.891c0 0.305 0.234 0.578 0.547 0.578s0.555-0.266 0.555-0.578zM6.719 13.164v-0.891c0-0.305-0.234-0.57-0.547-0.57s-0.555 0.266-0.555 0.57v0.891c0 0.305 0.242 0.578 0.555 0.578s0.547-0.273 0.547-0.578zM8.078 13.164v-0.891c0-0.305-0.242-0.57-0.555-0.57s-0.555 0.266-0.555 0.57v0.891c0 0.305 0.242 0.578 0.555 0.578s0.555-0.266 0.555-0.578zM9.438 13.164v-0.891c0-0.305-0.242-0.57-0.555-0.57s-0.555 0.266-0.555 0.57v0.891c0 0.305 0.242 0.578 0.555 0.578s0.555-0.273 0.555-0.578zM11.531 7.82c-0.844 1.617-2.469 2.805-4.336 2.805-2.641 0-4.391-2.313-4.391-4.828 0-0.461 0.055-0.914 0.164-1.359-0.547 0.922-0.813 1.984-0.813 3.047 0 1.648 0.68 3.328 1.953 4.398 0.141-0.266 0.406-0.445 0.711-0.445 0.273 0 0.531 0.156 0.672 0.391 0.148-0.234 0.398-0.391 0.68-0.391 0.273 0 0.531 0.156 0.672 0.391 0.148-0.234 0.406-0.391 0.68-0.391s0.531 0.156 0.68 0.391c0.141-0.234 0.398-0.391 0.672-0.391 0.297 0 0.57 0.18 0.703 0.438 1.187-0.992 1.875-2.516 1.953-4.055zM10.359 7.594c0-0.391-0.172-0.586-0.563-0.586-0.125 0-0.25 0.023-0.367 0.047-0.391 0.078-0.773 0.148-1.164 0.148-1.234 0-1.766-0.719-1.766-1.898 0-0.539 0.102-1.070 0.234-1.594-0.414 0.633-0.648 1.391-0.648 2.148 0 1.477 0.937 2.898 2.531 2.898 0.586 0 1.164-0.211 1.641-0.547 0.055-0.203 0.102-0.406 0.102-0.617zM6.906 2.445c0-0.492-0.344-1.008-0.883-1.008s-0.883 0.516-0.883 1.008c0 0.5 0.344 1.016 0.883 1.016s0.883-0.516 0.883-1.016zM11.82 5.094c0-1.469-0.945-2.891-2.531-2.891-0.828 0-1.602 0.414-2.156 1.008-0.195 0.648-0.375 1.406-0.375 2.094 0 1.039 0.414 1.641 1.508 1.641 0.375 0 0.742-0.070 1.109-0.148 0.141-0.023 0.273-0.047 0.414-0.047 0.539 0 0.813 0.312 0.813 0.844 0 0.117-0.008 0.242-0.031 0.359 0.789-0.711 1.25-1.797 1.25-2.859zM14 6.789c0 0.984-0.312 2.797-0.992 3.547-0.625 0.68-2.391 1.672-3.305 1.93l-0.031 0.008v0.891c0 0.445-0.344 0.836-0.797 0.836-0.273 0-0.531-0.156-0.672-0.391-0.148 0.234-0.406 0.391-0.68 0.391s-0.531-0.156-0.68-0.391c-0.141 0.234-0.398 0.391-0.672 0.391-0.281 0-0.531-0.156-0.68-0.391-0.141 0.234-0.398 0.391-0.672 0.391-0.516 0-0.805-0.43-0.805-0.898-0.445 0.336-0.977 0.531-1.547 0.531-0.602 0-1.187-0.227-1.648-0.625 0.281-0.008 0.563-0.062 0.828-0.156-0.57-0.156-1.078-0.516-1.422-0.992 0.18 0.039 0.367 0.055 0.555 0.055 0.453 0 0.898-0.125 1.281-0.359-0.602-0.602-1.547-1.609-1.875-2.391-0.156-0.367-0.187-0.859-0.187-1.25 0-1.359 0.555-4.375 2.359-4.375 0.289 0 0.516 0.133 0.633 0.406 0.102-0.148 0.211-0.289 0.328-0.422 0.055-0.070 0.156-0.148 0.195-0.227 0.219-0.344 0.32-0.578 0.594-0.93 0.883-1.125 2.234-1.898 3.687-1.898 0.164 0 0.328 0.008 0.484 0.031 0.297-0.32 0.711-0.5 1.141-0.5 0.398 0 0.813 0.164 1.094 0.445 0.023 0.023 0.039 0.062 0.039 0.094 0 0.102-0.281 0.367-0.352 0.445 0.117 0.039 0.43 0.187 0.43 0.328 0 0.078-0.078 0.141-0.125 0.195 0.859 0.758 1.352 1.836 1.539 2.953 0.117-0.141 0.281-0.234 0.469-0.234 0.289 0 0.57 0.195 0.781 0.383 0.57 0.508 0.703 1.453 0.703 2.18z"></path>
</svg>
