<!-- Generated by IcoMoon.io -->
<svg version="1.1" xmlns="http://www.w3.org/2000/svg" width="8" height="14" viewBox="0 0 8 14">
<title>thermometer-1</title>
<path d="M5 10.5c0 0.828-0.672 1.5-1.5 1.5s-1.5-0.672-1.5-1.5c0-0.625 0.391-1.195 1-1.414v-1.086h1v1.086c0.609 0.219 1 0.789 1 1.414zM6 10.5c0-0.82-0.391-1.539-1-2v-6c0-0.828-0.672-1.5-1.5-1.5s-1.5 0.672-1.5 1.5v6c-0.609 0.461-1 1.18-1 2 0 1.383 1.117 2.5 2.5 2.5s2.5-1.117 2.5-2.5zM7 10.5c0 1.93-1.57 3.5-3.5 3.5s-3.5-1.57-3.5-3.5c0-0.953 0.383-1.812 1-2.445v-5.555c0-1.383 1.117-2.5 2.5-2.5s2.5 1.117 2.5 2.5v5.555c0.617 0.633 1 1.492 1 2.445zM8 6v1h-1.5v-1h1.5zM8 4v1h-1.5v-1h1.5zM8 2v1h-1.5v-1h1.5z"></path>
</svg>
