<!-- Generated by IcoMoon.io -->
<svg version="1.1" xmlns="http://www.w3.org/2000/svg" width="9" height="14" viewBox="0 0 9 14">
<title>thumb-tack</title>
<path d="M3.75 6.75v-3.5c0-0.141-0.109-0.25-0.25-0.25s-0.25 0.109-0.25 0.25v3.5c0 0.141 0.109 0.25 0.25 0.25s0.25-0.109 0.25-0.25zM9 9.5c0 0.273-0.227 0.5-0.5 0.5h-3.352l-0.398 3.773c-0.016 0.125-0.117 0.227-0.242 0.227h-0.008c-0.125 0-0.227-0.086-0.25-0.211l-0.594-3.789h-3.156c-0.273 0-0.5-0.227-0.5-0.5 0-1.281 0.969-2.5 2-2.5v-4c-0.547 0-1-0.453-1-1s0.453-1 1-1h5c0.547 0 1 0.453 1 1s-0.453 1-1 1v4c1.031 0 2 1.219 2 2.5z"></path>
</svg>
