<!-- Generated by IcoMoon.io -->
<svg version="1.1" xmlns="http://www.w3.org/2000/svg" width="12" height="14" viewBox="0 0 12 14">
<title>thumbs-o-down</title>
<path d="M2 3.5c0-0.273-0.227-0.5-0.5-0.5s-0.5 0.227-0.5 0.5 0.227 0.5 0.5 0.5 0.5-0.227 0.5-0.5zM11 8c0-0.289-0.219-0.992-0.586-1 0.164-0.187 0.273-0.555 0.273-0.805 0-0.367-0.148-0.68-0.414-0.93 0.094-0.164 0.141-0.352 0.141-0.539 0-0.359-0.18-0.805-0.508-0.984 0.023-0.141 0.039-0.289 0.039-0.438 0-0.914-0.578-1.305-1.445-1.305h-1c-0.922 0-1.812 0.273-2.672 0.57-0.422 0.148-1.141 0.43-1.578 0.43h-0.25v5h0.25c0.617 0 1.547 1.336 1.898 1.789 0.195 0.242 0.383 0.484 0.602 0.711 0.758 0.797 0.5 1.992 1 2.5 1.070 0 1.25-0.586 1.25-1.5 0-0.922-0.75-1.586-0.75-2.5h2.75c0.523 0 1-0.469 1-1zM12 8.008c0 1.078-0.922 1.992-2 1.992h-1.375c0.234 0.484 0.375 0.953 0.375 1.5 0 0.516-0.031 0.984-0.273 1.453-0.383 0.758-1.164 1.047-1.977 1.047-0.266 0-0.516-0.109-0.703-0.289-0.781-0.766-0.539-2-1-2.508-0.297-0.312-0.57-0.648-0.836-0.992-0.234-0.305-0.766-1.008-1.070-1.211h-2.141c-0.555 0-1-0.445-1-1v-5c0-0.555 0.445-1 1-1h2.25c0.219 0 0.852-0.234 1.078-0.312 1.125-0.391 2.102-0.688 3.305-0.688h0.875c1.422 0 2.445 0.844 2.438 2.305v0.039c0.305 0.391 0.469 0.891 0.469 1.391 0 0.109-0.008 0.227-0.023 0.336 0.195 0.344 0.297 0.734 0.297 1.125 0 0.18-0.023 0.367-0.070 0.539 0.25 0.375 0.383 0.82 0.383 1.273z"></path>
</svg>
