<!-- Generated by IcoMoon.io -->
<svg version="1.1" xmlns="http://www.w3.org/2000/svg" width="12" height="14" viewBox="0 0 12 14">
<title>thumbs-o-up</title>
<path d="M2 10.5c0-0.273-0.227-0.5-0.5-0.5s-0.5 0.227-0.5 0.5 0.227 0.5 0.5 0.5 0.5-0.227 0.5-0.5zM11 6c0-0.531-0.477-1-1-1h-2.75c0-0.914 0.75-1.578 0.75-2.5 0-0.914-0.18-1.5-1.25-1.5-0.5 0.508-0.242 1.703-1 2.5-0.219 0.227-0.406 0.469-0.602 0.711-0.352 0.453-1.281 1.789-1.898 1.789h-0.25v5h0.25c0.438 0 1.156 0.281 1.578 0.43 0.859 0.297 1.75 0.57 2.672 0.57h0.945c0.883 0 1.5-0.352 1.5-1.305 0-0.148-0.016-0.297-0.039-0.438 0.328-0.18 0.508-0.625 0.508-0.984 0-0.187-0.047-0.375-0.141-0.539 0.266-0.25 0.414-0.563 0.414-0.93 0-0.25-0.109-0.617-0.273-0.805 0.367-0.008 0.586-0.711 0.586-1zM12 5.992c0 0.453-0.133 0.898-0.383 1.273 0.047 0.172 0.070 0.359 0.070 0.539 0 0.391-0.102 0.781-0.297 1.125 0.016 0.109 0.023 0.227 0.023 0.336 0 0.5-0.164 1-0.469 1.391 0.016 1.477-0.992 2.344-2.438 2.344h-1.008c-1.109 0-2.141-0.328-3.172-0.688-0.227-0.078-0.859-0.312-1.078-0.312h-2.25c-0.555 0-1-0.445-1-1v-5c0-0.555 0.445-1 1-1h2.141c0.305-0.203 0.836-0.906 1.070-1.211 0.266-0.344 0.539-0.68 0.836-1 0.469-0.5 0.219-1.734 1-2.5 0.187-0.18 0.438-0.289 0.703-0.289 0.813 0 1.594 0.289 1.977 1.047 0.242 0.477 0.273 0.93 0.273 1.453 0 0.547-0.141 1.016-0.375 1.5h1.375c1.078 0 2 0.914 2 1.992z"></path>
</svg>
