<!-- Generated by IcoMoon.io -->
<svg version="1.1" xmlns="http://www.w3.org/2000/svg" width="13" height="14" viewBox="0 0 13 14">
<title>thumbs-down</title>
<path d="M2 4.5c0 0.273-0.227 0.5-0.5 0.5-0.281 0-0.5-0.227-0.5-0.5 0-0.281 0.219-0.5 0.5-0.5 0.273 0 0.5 0.219 0.5 0.5zM3.25 8.5v-5c0-0.273-0.227-0.5-0.5-0.5h-2.25c-0.273 0-0.5 0.227-0.5 0.5v5c0 0.273 0.227 0.5 0.5 0.5h2.25c0.273 0 0.5-0.227 0.5-0.5zM12.070 7.336c0.266 0.297 0.43 0.75 0.43 1.164-0.008 0.813-0.688 1.5-1.5 1.5h-2.164c0.062 0.25 0.141 0.328 0.227 0.5 0.203 0.406 0.438 0.859 0.438 1.5 0 0.602 0 2-1.75 2-0.133 0-0.258-0.055-0.352-0.148-0.336-0.328-0.43-0.813-0.516-1.273-0.094-0.453-0.18-0.922-0.484-1.227-0.242-0.242-0.508-0.578-0.789-0.937-0.344-0.453-1.094-1.383-1.383-1.406-0.258-0.023-0.477-0.242-0.477-0.5v-5.008c0-0.273 0.234-0.492 0.5-0.5 0.273-0.008 0.742-0.172 1.234-0.344 0.844-0.289 1.898-0.656 3.016-0.656h1.008c0.688 0.008 1.203 0.211 1.539 0.609 0.297 0.352 0.43 0.828 0.383 1.414 0.195 0.187 0.344 0.445 0.422 0.734 0.086 0.312 0.086 0.625 0 0.914 0.234 0.312 0.352 0.68 0.336 1.070 0 0.109-0.031 0.344-0.117 0.594z"></path>
</svg>
