<!-- Generated by IcoMoon.io -->
<svg version="1.1" xmlns="http://www.w3.org/2000/svg" width="13" height="14" viewBox="0 0 13 14">
<title>thumbs-up</title>
<path d="M2 10.5c0-0.273-0.227-0.5-0.5-0.5-0.281 0-0.5 0.227-0.5 0.5 0 0.281 0.219 0.5 0.5 0.5 0.273 0 0.5-0.219 0.5-0.5zM3.25 6.5v5c0 0.273-0.227 0.5-0.5 0.5h-2.25c-0.273 0-0.5-0.227-0.5-0.5v-5c0-0.273 0.227-0.5 0.5-0.5h2.25c0.273 0 0.5 0.227 0.5 0.5zM12.5 6.5c0 0.414-0.164 0.859-0.43 1.164 0.086 0.25 0.117 0.484 0.117 0.594 0.016 0.391-0.102 0.758-0.336 1.070 0.086 0.289 0.086 0.602 0 0.914-0.078 0.289-0.227 0.547-0.422 0.734 0.047 0.586-0.086 1.062-0.383 1.414-0.336 0.398-0.852 0.602-1.539 0.609h-1.008c-1.117 0-2.172-0.367-3.016-0.656-0.492-0.172-0.961-0.336-1.234-0.344-0.266-0.008-0.5-0.227-0.5-0.5v-5.008c0-0.258 0.219-0.477 0.477-0.5 0.289-0.023 1.039-0.953 1.383-1.406 0.281-0.359 0.547-0.695 0.789-0.937 0.305-0.305 0.391-0.773 0.484-1.227 0.086-0.461 0.18-0.945 0.516-1.273 0.094-0.094 0.219-0.148 0.352-0.148 1.75 0 1.75 1.398 1.75 2 0 0.641-0.227 1.094-0.438 1.5-0.086 0.172-0.164 0.25-0.227 0.5h2.164c0.813 0 1.5 0.688 1.5 1.5z"></path>
</svg>
