<!-- Generated by IcoMoon.io -->
<svg version="1.1" xmlns="http://www.w3.org/2000/svg" width="14" height="14" viewBox="0 0 14 14">
<title>ticket</title>
<path d="M8 3.531l2.469 2.469-4.469 4.469-2.469-2.469zM6.352 11.18l4.828-4.828c0.195-0.195 0.195-0.508 0-0.703l-2.828-2.828c-0.187-0.187-0.516-0.187-0.703 0l-4.828 4.828c-0.195 0.195-0.195 0.508 0 0.703l2.828 2.828c0.094 0.094 0.219 0.141 0.352 0.141s0.258-0.047 0.352-0.141zM13.297 6.203l-7.086 7.094c-0.391 0.383-1.031 0.383-1.414 0l-0.984-0.984c0.586-0.586 0.586-1.539 0-2.125s-1.539-0.586-2.125 0l-0.977-0.984c-0.391-0.383-0.391-1.023 0-1.414l7.086-7.078c0.383-0.391 1.023-0.391 1.414 0l0.977 0.977c-0.586 0.586-0.586 1.539 0 2.125s1.539 0.586 2.125 0l0.984 0.977c0.383 0.391 0.383 1.031 0 1.414z"></path>
</svg>
