<!-- Generated by IcoMoon.io -->
<svg version="1.1" xmlns="http://www.w3.org/2000/svg" width="14" height="14" viewBox="0 0 14 14">
<title>times-rectangle</title>
<path d="M9.18 10.32l1.141-1.141c0.102-0.102 0.102-0.258 0-0.359l-1.82-1.82 1.82-1.82c0.102-0.102 0.102-0.258 0-0.359l-1.141-1.141c-0.102-0.102-0.258-0.102-0.359 0l-1.82 1.82-1.82-1.82c-0.102-0.102-0.258-0.102-0.359 0l-1.141 1.141c-0.102 0.102-0.102 0.258 0 0.359l1.82 1.82-1.82 1.82c-0.102 0.102-0.102 0.258 0 0.359l1.141 1.141c0.102 0.102 0.258 0.102 0.359 0l1.82-1.82 1.82 1.82c0.102 0.102 0.258 0.102 0.359 0zM14 2.25v9.5c0 0.688-0.563 1.25-1.25 1.25h-11.5c-0.688 0-1.25-0.563-1.25-1.25v-9.5c0-0.688 0.563-1.25 1.25-1.25h11.5c0.688 0 1.25 0.563 1.25 1.25z"></path>
</svg>
