<!-- Generated by IcoMoon.io -->
<svg version="1.1" xmlns="http://www.w3.org/2000/svg" width="12" height="14" viewBox="0 0 12 14">
<title>times-circle-o</title>
<path d="M8.57 8.43l-1.141 1.141c-0.102 0.102-0.258 0.102-0.359 0l-1.070-1.070-1.070 1.070c-0.102 0.102-0.258 0.102-0.359 0l-1.141-1.141c-0.102-0.102-0.102-0.258 0-0.359l1.070-1.070-1.070-1.070c-0.102-0.102-0.102-0.258 0-0.359l1.141-1.141c0.102-0.102 0.258-0.102 0.359 0l1.070 1.070 1.070-1.070c0.102-0.102 0.258-0.102 0.359 0l1.141 1.141c0.102 0.102 0.102 0.258 0 0.359l-1.070 1.070 1.070 1.070c0.102 0.102 0.102 0.258 0 0.359zM10.25 7c0-2.344-1.906-4.25-4.25-4.25s-4.25 1.906-4.25 4.25 1.906 4.25 4.25 4.25 4.25-1.906 4.25-4.25zM12 7c0 3.313-2.687 6-6 6s-6-2.687-6-6 2.687-6 6-6 6 2.687 6 6z"></path>
</svg>
