<!-- Generated by IcoMoon.io -->
<svg version="1.1" xmlns="http://www.w3.org/2000/svg" width="8" height="14" viewBox="0 0 8 14">
<title>tint</title>
<path d="M4 9c0-0.195-0.062-0.383-0.156-0.539-0.102-0.156-0.516-0.688-0.68-1.211-0.023-0.086-0.102-0.125-0.164-0.125s-0.141 0.039-0.164 0.125c-0.164 0.523-0.578 1.055-0.68 1.211-0.094 0.156-0.156 0.344-0.156 0.539 0 0.555 0.445 1 1 1s1-0.445 1-1zM8 8c0 2.211-1.789 4-4 4s-4-1.789-4-4c0-0.789 0.242-1.523 0.633-2.148 0.398-0.625 2.070-2.742 2.703-4.852 0.102-0.336 0.414-0.5 0.664-0.5s0.57 0.164 0.664 0.5c0.633 2.109 2.305 4.227 2.703 4.852s0.633 1.359 0.633 2.148z"></path>
</svg>
