<!-- Generated by IcoMoon.io -->
<svg version="1.1" xmlns="http://www.w3.org/2000/svg" width="15" height="14" viewBox="0 0 15 14">
<title>trademark</title>
<path d="M6.695 4.25v0.914c0 0.133-0.117 0.242-0.25 0.242h-2.328v6.344c0 0.141-0.109 0.25-0.242 0.25h-1.055c-0.141 0-0.25-0.109-0.25-0.25v-6.344h-2.32c-0.141 0-0.25-0.109-0.25-0.242v-0.914c0-0.141 0.109-0.25 0.25-0.25h6.195c0.133 0 0.25 0.109 0.25 0.25zM14.805 4.227l0.602 7.508c0.008 0.070-0.016 0.133-0.062 0.187-0.047 0.047-0.109 0.078-0.18 0.078h-1.047c-0.125 0-0.234-0.102-0.242-0.227l-0.359-4.594-1.477 3.32c-0.039 0.094-0.125 0.148-0.227 0.148h-0.937c-0.094 0-0.18-0.055-0.227-0.148l-1.469-3.336-0.352 4.609c-0.008 0.125-0.117 0.227-0.242 0.227h-1.055c-0.070 0-0.133-0.031-0.18-0.078-0.047-0.055-0.070-0.117-0.070-0.187l0.609-7.508c0.008-0.125 0.117-0.227 0.242-0.227h1.109c0.102 0 0.187 0.062 0.227 0.148l1.719 4.063c0.055 0.125 0.109 0.266 0.156 0.398 0.055-0.133 0.102-0.273 0.156-0.398l1.727-4.063c0.039-0.086 0.125-0.148 0.227-0.148h1.102c0.133 0 0.242 0.102 0.25 0.227z"></path>
</svg>
