<!-- Generated by IcoMoon.io -->
<svg version="1.1" xmlns="http://www.w3.org/2000/svg" width="13" height="14" viewBox="0 0 13 14">
<title>transgender-alt</title>
<path d="M10 0.25c0-0.141 0.109-0.25 0.25-0.25h2.25c0.273 0 0.5 0.227 0.5 0.5v2.25c0 0.141-0.109 0.25-0.25 0.25h-0.5c-0.141 0-0.25-0.109-0.25-0.25v-1.047l-1.984 1.992c0.609 0.766 0.984 1.742 0.984 2.805 0 2.313-1.75 4.219-4 4.469v1.031h0.75c0.141 0 0.25 0.109 0.25 0.25v0.5c0 0.141-0.109 0.25-0.25 0.25h-0.75v0.75c0 0.141-0.109 0.25-0.25 0.25h-0.5c-0.141 0-0.25-0.109-0.25-0.25v-0.75h-0.75c-0.141 0-0.25-0.109-0.25-0.25v-0.5c0-0.141 0.109-0.25 0.25-0.25h0.75v-1.031c-2.25-0.25-4-2.156-4-4.469 0-1.062 0.375-2.039 0.984-2.805l-0.406-0.414-0.789 0.867c-0.094 0.102-0.25 0.109-0.352 0.023l-0.375-0.344c-0.102-0.086-0.109-0.25-0.016-0.352l0.82-0.898-0.867-0.875v1.047c0 0.141-0.109 0.25-0.25 0.25h-0.5c-0.141 0-0.25-0.109-0.25-0.25v-2.25c0-0.273 0.227-0.5 0.5-0.5h2.25c0.141 0 0.25 0.109 0.25 0.25v0.5c0 0.141-0.109 0.25-0.25 0.25h-1.039l0.828 0.836 0.672-0.734c0.094-0.102 0.25-0.109 0.352-0.023l0.375 0.344c0.102 0.086 0.109 0.25 0.016 0.352l-0.703 0.773 0.445 0.438c0.766-0.609 1.742-0.984 2.805-0.984s2.039 0.375 2.805 0.984l1.992-1.984h-1.047c-0.141 0-0.25-0.109-0.25-0.25v-0.5zM6.5 10c1.93 0 3.5-1.57 3.5-3.5s-1.57-3.5-3.5-3.5-3.5 1.57-3.5 3.5 1.57 3.5 3.5 3.5z"></path>
</svg>
