<!-- Generated by IcoMoon.io -->
<svg version="1.1" xmlns="http://www.w3.org/2000/svg" width="11" height="14" viewBox="0 0 11 14">
<title>trash-o</title>
<path d="M4 5.75v4.5c0 0.141-0.109 0.25-0.25 0.25h-0.5c-0.141 0-0.25-0.109-0.25-0.25v-4.5c0-0.141 0.109-0.25 0.25-0.25h0.5c0.141 0 0.25 0.109 0.25 0.25zM6 5.75v4.5c0 0.141-0.109 0.25-0.25 0.25h-0.5c-0.141 0-0.25-0.109-0.25-0.25v-4.5c0-0.141 0.109-0.25 0.25-0.25h0.5c0.141 0 0.25 0.109 0.25 0.25zM8 5.75v4.5c0 0.141-0.109 0.25-0.25 0.25h-0.5c-0.141 0-0.25-0.109-0.25-0.25v-4.5c0-0.141 0.109-0.25 0.25-0.25h0.5c0.141 0 0.25 0.109 0.25 0.25zM9 11.406v-7.406h-7v7.406c0 0.375 0.211 0.594 0.25 0.594h6.5c0.039 0 0.25-0.219 0.25-0.594zM3.75 3h3.5l-0.375-0.914c-0.023-0.031-0.094-0.078-0.133-0.086h-2.477c-0.047 0.008-0.109 0.055-0.133 0.086zM11 3.25v0.5c0 0.141-0.109 0.25-0.25 0.25h-0.75v7.406c0 0.859-0.563 1.594-1.25 1.594h-6.5c-0.688 0-1.25-0.703-1.25-1.563v-7.438h-0.75c-0.141 0-0.25-0.109-0.25-0.25v-0.5c0-0.141 0.109-0.25 0.25-0.25h2.414l0.547-1.305c0.156-0.383 0.625-0.695 1.039-0.695h2.5c0.414 0 0.883 0.312 1.039 0.695l0.547 1.305h2.414c0.141 0 0.25 0.109 0.25 0.25z"></path>
</svg>
