<!-- Generated by IcoMoon.io -->
<svg version="1.1" xmlns="http://www.w3.org/2000/svg" width="12" height="14" viewBox="0 0 12 14">
<title>tree</title>
<path d="M11.75 11.5c0 0.273-0.227 0.5-0.5 0.5h-3.609c0.023 0.5 0.086 1.023 0.086 1.531 0 0.258-0.211 0.469-0.477 0.469h-2.5c-0.266 0-0.477-0.211-0.477-0.469 0-0.508 0.062-1.031 0.086-1.531h-3.609c-0.273 0-0.5-0.227-0.5-0.5 0-0.133 0.055-0.258 0.148-0.352l3.141-3.148h-1.789c-0.273 0-0.5-0.227-0.5-0.5 0-0.133 0.055-0.258 0.148-0.352l3.141-3.148h-1.539c-0.273 0-0.5-0.227-0.5-0.5 0-0.133 0.055-0.258 0.148-0.352l3-3c0.094-0.094 0.219-0.148 0.352-0.148s0.258 0.055 0.352 0.148l3 3c0.094 0.094 0.148 0.219 0.148 0.352 0 0.273-0.227 0.5-0.5 0.5h-1.539l3.141 3.148c0.094 0.094 0.148 0.219 0.148 0.352 0 0.273-0.227 0.5-0.5 0.5h-1.789l3.141 3.148c0.094 0.094 0.148 0.219 0.148 0.352z"></path>
</svg>
