<!-- Generated by IcoMoon.io -->
<svg version="1.1" xmlns="http://www.w3.org/2000/svg" width="12" height="14" viewBox="0 0 12 14">
<title>trello</title>
<path d="M5.5 10.5v-8c0-0.141-0.109-0.25-0.25-0.25h-3.75c-0.141 0-0.25 0.109-0.25 0.25v8c0 0.141 0.109 0.25 0.25 0.25h3.75c0.141 0 0.25-0.109 0.25-0.25zM10.75 7.5v-5c0-0.141-0.109-0.25-0.25-0.25h-3.75c-0.141 0-0.25 0.109-0.25 0.25v5c0 0.141 0.109 0.25 0.25 0.25h3.75c0.141 0 0.25-0.109 0.25-0.25zM12 1.5v11c0 0.273-0.227 0.5-0.5 0.5h-11c-0.273 0-0.5-0.227-0.5-0.5v-11c0-0.273 0.227-0.5 0.5-0.5h11c0.273 0 0.5 0.227 0.5 0.5z"></path>
</svg>
