<!-- Generated by IcoMoon.io -->
<svg version="1.1" xmlns="http://www.w3.org/2000/svg" width="18" height="14" viewBox="0 0 18 14">
<title>tripadvisor</title>
<path d="M5.086 7.789c0 0.406-0.328 0.734-0.727 0.734-0.406 0-0.734-0.328-0.734-0.734 0-0.398 0.328-0.727 0.734-0.727 0.398 0 0.727 0.328 0.727 0.727zM14.102 7.781c0 0.406-0.328 0.734-0.734 0.734s-0.734-0.328-0.734-0.734 0.328-0.727 0.734-0.727 0.734 0.32 0.734 0.727zM5.977 7.789c0-0.828-0.68-1.508-1.508-1.508-0.836 0-1.508 0.68-1.508 1.508 0 0.836 0.672 1.508 1.508 1.508 0.828 0 1.508-0.672 1.508-1.508zM14.984 7.781c0-0.828-0.672-1.508-1.508-1.508-0.828 0-1.508 0.68-1.508 1.508 0 0.836 0.68 1.508 1.508 1.508 0.836 0 1.508-0.672 1.508-1.508zM6.641 7.789c0 1.203-0.969 2.18-2.172 2.18s-2.18-0.977-2.18-2.18c0-1.195 0.977-2.172 2.18-2.172s2.172 0.977 2.172 2.172zM15.656 7.781c0 1.203-0.977 2.172-2.18 2.172-1.195 0-2.172-0.969-2.172-2.172s0.977-2.172 2.172-2.172c1.203 0 2.18 0.969 2.18 2.172zM8.125 7.805c0-1.992-1.617-3.609-3.609-3.609-1.984 0-3.602 1.617-3.602 3.609s1.617 3.609 3.602 3.609c1.992 0 3.609-1.617 3.609-3.609zM13.344 3.328c-1.289-0.563-2.742-0.867-4.344-0.867s-3.195 0.305-4.477 0.859c2.477 0.008 4.477 2.008 4.477 4.484 0-2.43 1.93-4.406 4.344-4.477zM17.086 7.805c0-1.992-1.609-3.609-3.602-3.609s-3.609 1.617-3.609 3.609 1.617 3.609 3.609 3.609 3.602-1.617 3.602-3.609zM15.008 3.383h2.992c-0.469 0.547-0.813 1.281-0.898 1.789 0.539 0.742 0.859 1.648 0.859 2.633 0 2.477-2.008 4.477-4.477 4.477-1.406 0-2.656-0.641-3.477-1.648 0 0-0.367 0.438-1.008 1.398-0.109-0.227-0.664-1.016-1-1.406-0.82 1.016-2.078 1.656-3.484 1.656-2.469 0-4.477-2-4.477-4.477 0-0.984 0.32-1.891 0.859-2.633-0.086-0.508-0.43-1.242-0.898-1.789h2.852c1.531-1.023 3.758-1.664 6.148-1.664s4.477 0.641 6.008 1.664z"></path>
</svg>
