<!-- Generated by IcoMoon.io -->
<svg version="1.1" xmlns="http://www.w3.org/2000/svg" width="14" height="14" viewBox="0 0 14 14">
<title>truck</title>
<path d="M5 11c0-0.547-0.453-1-1-1s-1 0.453-1 1 0.453 1 1 1 1-0.453 1-1zM2 7h3v-2h-1.234c-0.031 0-0.148 0.047-0.172 0.070l-1.523 1.523c-0.023 0.023-0.070 0.141-0.070 0.172v0.234zM12 11c0-0.547-0.453-1-1-1s-1 0.453-1 1 0.453 1 1 1 1-0.453 1-1zM14 2.5v8c0 0.578-0.609 0.5-1 0.5 0 1.102-0.898 2-2 2s-2-0.898-2-2h-3c0 1.102-0.898 2-2 2s-2-0.898-2-2h-0.5c-0.391 0-1 0.078-1-0.5 0-0.273 0.227-0.5 0.5-0.5v-2.5c0-0.555-0.078-1.172 0.352-1.602l1.547-1.547c0.195-0.195 0.57-0.352 0.852-0.352h1.25v-1.5c0-0.273 0.227-0.5 0.5-0.5h8c0.273 0 0.5 0.227 0.5 0.5z"></path>
</svg>
