<!-- Generated by IcoMoon.io -->
<svg version="1.1" xmlns="http://www.w3.org/2000/svg" width="9" height="14" viewBox="0 0 9 14">
<title>try</title>
<path d="M9 6.5c0 3.031-2.469 5.5-5.5 5.5h-1.25c-0.141 0-0.25-0.109-0.25-0.25v-4.773l-1.68 0.516c-0.023 0.008-0.047 0.008-0.070 0.008-0.055 0-0.102-0.016-0.148-0.047-0.062-0.047-0.102-0.125-0.102-0.203v-1c0-0.109 0.070-0.203 0.18-0.242l1.82-0.555v-0.727l-1.68 0.516c-0.023 0.008-0.047 0.008-0.070 0.008-0.055 0-0.102-0.016-0.148-0.047-0.062-0.047-0.102-0.125-0.102-0.203v-1c0-0.109 0.070-0.203 0.18-0.242l1.82-0.555v-1.953c0-0.141 0.109-0.25 0.25-0.25h1.25c0.141 0 0.25 0.109 0.25 0.25v1.414l2.93-0.906c0.070-0.023 0.156-0.008 0.219 0.039s0.102 0.125 0.102 0.203v1c0 0.109-0.070 0.203-0.18 0.242l-3.070 0.945v0.727l2.93-0.906c0.070-0.023 0.156-0.008 0.219 0.039s0.102 0.125 0.102 0.203v1c0 0.109-0.070 0.203-0.18 0.242l-3.070 0.945v3.805c1.953-0.133 3.5-1.758 3.5-3.742 0-0.141 0.109-0.25 0.25-0.25h1.25c0.141 0 0.25 0.109 0.25 0.25z"></path>
</svg>
