<!-- Generated by IcoMoon.io -->
<svg version="1.1" xmlns="http://www.w3.org/2000/svg" width="14" height="14" viewBox="0 0 14 14">
<title>tty</title>
<path d="M3.5 10.25v1.5c0 0.141-0.109 0.25-0.25 0.25h-1.5c-0.141 0-0.25-0.109-0.25-0.25v-1.5c0-0.141 0.109-0.25 0.25-0.25h1.5c0.141 0 0.25 0.109 0.25 0.25zM2 7.25v1.5c0 0.141-0.109 0.25-0.25 0.25h-1.5c-0.141 0-0.25-0.109-0.25-0.25v-1.5c0-0.141 0.109-0.25 0.25-0.25h1.5c0.141 0 0.25 0.109 0.25 0.25zM6.5 10.25v1.5c0 0.141-0.109 0.25-0.25 0.25h-1.5c-0.141 0-0.25-0.109-0.25-0.25v-1.5c0-0.141 0.109-0.25 0.25-0.25h1.5c0.141 0 0.25 0.109 0.25 0.25zM5 7.25v1.5c0 0.141-0.109 0.25-0.25 0.25h-1.5c-0.141 0-0.25-0.109-0.25-0.25v-1.5c0-0.141 0.109-0.25 0.25-0.25h1.5c0.141 0 0.25 0.109 0.25 0.25zM0.516 6c-0.289 0-0.516-0.227-0.516-0.508v-1.008h4.016v1.008c0 0.281-0.227 0.508-0.508 0.508h-2.992zM9.5 10.25v1.5c0 0.141-0.109 0.25-0.25 0.25h-1.5c-0.141 0-0.25-0.109-0.25-0.25v-1.5c0-0.141 0.109-0.25 0.25-0.25h1.5c0.141 0 0.25 0.109 0.25 0.25zM8 7.25v1.5c0 0.141-0.109 0.25-0.25 0.25h-1.5c-0.141 0-0.25-0.109-0.25-0.25v-1.5c0-0.141 0.109-0.25 0.25-0.25h1.5c0.141 0 0.25 0.109 0.25 0.25zM12.5 10.25v1.5c0 0.141-0.109 0.25-0.25 0.25h-1.5c-0.141 0-0.25-0.109-0.25-0.25v-1.5c0-0.141 0.109-0.25 0.25-0.25h1.5c0.141 0 0.25 0.109 0.25 0.25zM11 7.25v1.5c0 0.141-0.109 0.25-0.25 0.25h-1.5c-0.141 0-0.25-0.109-0.25-0.25v-1.5c0-0.141 0.109-0.25 0.25-0.25h1.5c0.141 0 0.25 0.109 0.25 0.25zM14 4.063v0.102h-4.016v-0.078c0-0.289-0.25-0.813-2.984-0.797-2.734 0.008-2.984 0.508-2.984 0.797v0.078h-4.016v-0.102c0-0.523 0.937-3.063 7-3.063 6.055 0 7 2.539 7 3.063zM14 7.25v1.5c0 0.141-0.109 0.25-0.25 0.25h-1.5c-0.141 0-0.25-0.109-0.25-0.25v-1.5c0-0.141 0.109-0.25 0.25-0.25h1.5c0.141 0 0.25 0.109 0.25 0.25zM14 4.484v1.008c0 0.281-0.227 0.508-0.508 0.508h-3c-0.281 0-0.508-0.227-0.508-0.508v-1.008h4.016z"></path>
</svg>
