<!-- Generated by IcoMoon.io -->
<svg version="1.1" xmlns="http://www.w3.org/2000/svg" width="12" height="14" viewBox="0 0 12 14">
<title>tumblr-square</title>
<path d="M8.875 11.414l-0.484-1.43c-0.187 0.094-0.539 0.172-0.805 0.172-0.797 0.023-0.961-0.555-0.961-0.984v-3.109h2.008v-1.516h-2v-2.547h-1.469c-0.023 0-0.062 0.023-0.070 0.078-0.086 0.773-0.453 2.148-1.969 2.695v1.289h1.016v3.266c0 1.117 0.82 2.711 3 2.672 0.734-0.016 1.555-0.32 1.734-0.586zM12 3.25v7.5c0 1.242-1.008 2.25-2.25 2.25h-7.5c-1.242 0-2.25-1.008-2.25-2.25v-7.5c0-1.242 1.008-2.25 2.25-2.25h7.5c1.242 0 2.25 1.008 2.25 2.25z"></path>
</svg>
