<!-- Generated by IcoMoon.io -->
<svg version="1.1" xmlns="http://www.w3.org/2000/svg" width="13" height="14" viewBox="0 0 13 14">
<title>twitter</title>
<path d="M12.656 3.188c-0.344 0.5-0.773 0.945-1.266 1.305 0.008 0.109 0.008 0.219 0.008 0.328 0 3.336-2.539 7.18-7.18 7.18-1.43 0-2.758-0.414-3.875-1.133 0.203 0.023 0.398 0.031 0.609 0.031 1.18 0 2.266-0.398 3.133-1.078-1.109-0.023-2.039-0.75-2.359-1.75 0.156 0.023 0.312 0.039 0.477 0.039 0.227 0 0.453-0.031 0.664-0.086-1.156-0.234-2.023-1.25-2.023-2.477v-0.031c0.336 0.187 0.727 0.305 1.141 0.32-0.68-0.453-1.125-1.227-1.125-2.102 0-0.469 0.125-0.898 0.344-1.273 1.242 1.531 3.109 2.531 5.203 2.641-0.039-0.187-0.062-0.383-0.062-0.578 0-1.391 1.125-2.523 2.523-2.523 0.727 0 1.383 0.305 1.844 0.797 0.57-0.109 1.117-0.32 1.602-0.609-0.187 0.586-0.586 1.078-1.109 1.391 0.508-0.055 1-0.195 1.453-0.391z"></path>
</svg>
