<!-- Generated by IcoMoon.io -->
<svg version="1.1" xmlns="http://www.w3.org/2000/svg" width="12" height="14" viewBox="0 0 12 14">
<title>twitter-square</title>
<path d="M10 4.766c-0.297 0.133-0.609 0.219-0.945 0.266 0.344-0.203 0.602-0.531 0.727-0.914-0.32 0.187-0.672 0.328-1.047 0.398-0.297-0.32-0.727-0.516-1.195-0.516-0.906 0-1.641 0.734-1.641 1.641 0 0.125 0.008 0.258 0.039 0.375-1.367-0.070-2.578-0.719-3.391-1.719-0.141 0.242-0.227 0.531-0.227 0.828 0 0.57 0.266 1.070 0.711 1.367-0.273-0.008-0.531-0.086-0.781-0.203v0.016c0 0.797 0.602 1.461 1.352 1.609-0.141 0.039-0.25 0.062-0.398 0.062-0.102 0-0.203-0.016-0.305-0.031 0.211 0.648 0.813 1.125 1.531 1.141-0.563 0.438-1.266 0.703-2.039 0.703-0.133 0-0.266-0.008-0.391-0.023 0.727 0.461 1.586 0.734 2.516 0.734 3.016 0 4.672-2.5 4.672-4.672 0-0.070 0-0.141-0.008-0.211 0.32-0.227 0.602-0.516 0.82-0.852zM12 3.25v7.5c0 1.242-1.008 2.25-2.25 2.25h-7.5c-1.242 0-2.25-1.008-2.25-2.25v-7.5c0-1.242 1.008-2.25 2.25-2.25h7.5c1.242 0 2.25 1.008 2.25 2.25z"></path>
</svg>
