<!-- Generated by IcoMoon.io -->
<svg version="1.1" xmlns="http://www.w3.org/2000/svg" width="13" height="14" viewBox="0 0 13 14">
<title>umbrella</title>
<path d="M7 6.469v4.531c0 1.086-0.914 2-2 2s-2-0.914-2-2c0-0.273 0.227-0.5 0.5-0.5s0.5 0.227 0.5 0.5c0 0.523 0.477 1 1 1s1-0.477 1-1v-4.531c0.164-0.055 0.328-0.086 0.5-0.086s0.336 0.031 0.5 0.086zM13 6.68c0 0.133-0.117 0.25-0.25 0.25-0.070 0-0.125-0.031-0.18-0.078-0.453-0.422-0.875-0.719-1.523-0.719-0.742 0-1.383 0.461-1.805 1.047-0.094 0.133-0.164 0.273-0.25 0.406-0.055 0.086-0.117 0.133-0.219 0.133-0.109 0-0.172-0.047-0.227-0.133-0.086-0.133-0.156-0.273-0.25-0.406-0.422-0.586-1.055-1.047-1.797-1.047s-1.375 0.461-1.797 1.047c-0.094 0.133-0.164 0.273-0.25 0.406-0.055 0.086-0.117 0.133-0.227 0.133-0.102 0-0.164-0.047-0.219-0.133-0.086-0.133-0.156-0.273-0.25-0.406-0.422-0.586-1.062-1.047-1.805-1.047-0.648 0-1.070 0.297-1.523 0.719-0.055 0.047-0.109 0.078-0.18 0.078-0.133 0-0.25-0.117-0.25-0.25 0-0.023 0-0.039 0.008-0.055 0.719-2.953 3.57-4.625 6.492-4.625 2.906 0 5.789 1.672 6.492 4.625 0.008 0.016 0.008 0.031 0.008 0.055zM7 1v0.766c-0.164-0.008-0.336-0.016-0.5-0.016s-0.336 0.008-0.5 0.016v-0.766c0-0.273 0.227-0.5 0.5-0.5s0.5 0.227 0.5 0.5z"></path>
</svg>
