<!-- Generated by IcoMoon.io -->
<svg version="1.1" xmlns="http://www.w3.org/2000/svg" width="12" height="14" viewBox="0 0 12 14">
<title>underline</title>
<path d="M0.375 1.742c-0.141-0.008-0.258-0.008-0.352-0.031l-0.023-0.688c0.102-0.008 0.203-0.008 0.312-0.008 0.273 0 0.57 0.008 0.875 0.031 0.734 0.039 1.172 0.055 1.297 0.055 0.445 0 0.883-0.008 1.313-0.023 0.422-0.016 0.805-0.031 1.141-0.039 0.328 0 0.555-0.008 0.672-0.016l-0.008 0.109 0.016 0.5v0.070c-0.312 0.047-0.633 0.070-0.969 0.070-0.312 0-0.516 0.062-0.617 0.195-0.070 0.078-0.102 0.422-0.102 1.031 0 0.187 0.008 0.336 0.008 0.453l0.008 1.789 0.109 2.188c0.031 0.633 0.156 1.156 0.398 1.578 0.18 0.305 0.43 0.547 0.75 0.719 0.469 0.25 0.93 0.367 1.383 0.367 0.531 0 1.031-0.070 1.492-0.219 0.273-0.086 0.531-0.211 0.773-0.398 0.242-0.18 0.414-0.344 0.508-0.5 0.203-0.312 0.336-0.617 0.414-0.891 0.109-0.383 0.164-0.977 0.164-1.789 0-1.398-0.102-1.438-0.219-3.203l-0.031-0.461c-0.023-0.336-0.078-0.57-0.187-0.688-0.172-0.18-0.375-0.273-0.602-0.266l-0.781 0.016-0.109-0.023 0.016-0.672h0.656l1.602 0.078c0.531 0.023 1.039-0.023 1.531-0.078l0.141 0.016c0.031 0.195 0.047 0.328 0.047 0.398s-0.016 0.148-0.031 0.242c-0.211 0.055-0.43 0.094-0.656 0.102-0.367 0.055-0.578 0.094-0.617 0.133-0.070 0.070-0.117 0.172-0.117 0.32 0 0.102 0.016 0.258 0.023 0.453 0 0 0.062 0.141 0.172 3.094 0.039 1.18-0.039 1.977-0.117 2.375s-0.187 0.719-0.32 0.953c-0.203 0.344-0.5 0.664-0.875 0.961-0.383 0.289-0.852 0.523-1.422 0.695s-1.234 0.258-1.992 0.258c-0.859 0-1.602-0.117-2.219-0.359s-1.086-0.563-1.398-0.953-0.531-0.898-0.648-1.523c-0.086-0.43-0.125-1.047-0.125-1.852v-2.602c0-0.984-0.047-1.539-0.133-1.664-0.125-0.18-0.508-0.289-1.148-0.305zM12 12.75v-0.5c0-0.141-0.109-0.25-0.25-0.25h-11.5c-0.141 0-0.25 0.109-0.25 0.25v0.5c0 0.141 0.109 0.25 0.25 0.25h11.5c0.141 0 0.25-0.109 0.25-0.25z"></path>
</svg>
