<!-- Generated by IcoMoon.io -->
<svg version="1.1" xmlns="http://www.w3.org/2000/svg" width="14" height="14" viewBox="0 0 14 14">
<title>universal-access</title>
<path d="M10.734 5.133c-0.062-0.266-0.328-0.43-0.602-0.367-1.117 0.266-2.133 0.484-3.133 0.484s-2.016-0.219-3.133-0.484c-0.273-0.062-0.539 0.102-0.602 0.367-0.062 0.273 0.102 0.539 0.367 0.602 0.828 0.195 1.602 0.367 2.367 0.453-0.031 2.641-0.32 3.375-0.648 4.219l-0.070 0.164c-0.102 0.258 0.031 0.547 0.289 0.648 0.055 0.023 0.117 0.031 0.18 0.031 0.203 0 0.391-0.117 0.469-0.32l0.062-0.156c0.219-0.563 0.422-1.086 0.555-2.023h0.328c0.133 0.937 0.336 1.461 0.555 2.023l0.062 0.156c0.078 0.203 0.266 0.32 0.469 0.32 0.062 0 0.125-0.008 0.18-0.031 0.258-0.102 0.391-0.391 0.289-0.648l-0.070-0.164c-0.328-0.844-0.617-1.578-0.648-4.219 0.766-0.086 1.539-0.258 2.367-0.453 0.266-0.062 0.43-0.328 0.367-0.602zM8 4c0-0.555-0.445-1-1-1s-1 0.445-1 1 0.445 1 1 1 1-0.445 1-1zM12.5 7c0 3.039-2.461 5.5-5.5 5.5s-5.5-2.461-5.5-5.5 2.461-5.5 5.5-5.5 5.5 2.461 5.5 5.5zM7 1c-3.305 0-6 2.695-6 6s2.695 6 6 6 6-2.695 6-6-2.695-6-6-6zM14 7c0 3.867-3.133 7-7 7s-7-3.133-7-7 3.133-7 7-7v0c3.867 0 7 3.133 7 7z"></path>
</svg>
