<!-- Generated by IcoMoon.io -->
<svg version="1.1" xmlns="http://www.w3.org/2000/svg" width="13" height="14" viewBox="0 0 13 14">
<title>upload</title>
<path d="M10 11.5c0-0.273-0.227-0.5-0.5-0.5s-0.5 0.227-0.5 0.5 0.227 0.5 0.5 0.5 0.5-0.227 0.5-0.5zM12 11.5c0-0.273-0.227-0.5-0.5-0.5s-0.5 0.227-0.5 0.5 0.227 0.5 0.5 0.5 0.5-0.227 0.5-0.5zM13 9.75v2.5c0 0.414-0.336 0.75-0.75 0.75h-11.5c-0.414 0-0.75-0.336-0.75-0.75v-2.5c0-0.414 0.336-0.75 0.75-0.75h3.336c0.211 0.578 0.766 1 1.414 1h2c0.648 0 1.203-0.422 1.414-1h3.336c0.414 0 0.75 0.336 0.75 0.75zM10.461 4.687c-0.078 0.187-0.258 0.312-0.461 0.312h-2v3.5c0 0.273-0.227 0.5-0.5 0.5h-2c-0.273 0-0.5-0.227-0.5-0.5v-3.5h-2c-0.203 0-0.383-0.125-0.461-0.312-0.078-0.18-0.039-0.398 0.109-0.539l3.5-3.5c0.094-0.102 0.227-0.148 0.352-0.148s0.258 0.047 0.352 0.148l3.5 3.5c0.148 0.141 0.187 0.359 0.109 0.539z"></path>
</svg>
