<!-- Generated by IcoMoon.io -->
<svg version="1.1" xmlns="http://www.w3.org/2000/svg" width="18" height="14" viewBox="0 0 18 14">
<title>usb</title>
<path d="M17.875 6.289c0.078 0.039 0.125 0.125 0.125 0.211s-0.047 0.172-0.125 0.211l-2.5 1.5c-0.039 0.023-0.078 0.039-0.125 0.039-0.039 0-0.086-0.008-0.125-0.031-0.078-0.047-0.125-0.125-0.125-0.219v-1h-6.703c0.25 0.391 0.461 0.852 0.648 1.289 0.375 0.844 0.758 1.711 1.305 1.711h0.75v-0.75c0-0.141 0.109-0.25 0.25-0.25h2.5c0.141 0 0.25 0.109 0.25 0.25v2.5c0 0.141-0.109 0.25-0.25 0.25h-2.5c-0.141 0-0.25-0.109-0.25-0.25v-0.75h-0.75c-1.195 0-1.734-1.227-2.219-2.305-0.367-0.836-0.75-1.695-1.281-1.695h-2.812c-0.227 0.859-1.008 1.5-1.937 1.5-1.102 0-2-0.898-2-2s0.898-2 2-2c0.93 0 1.711 0.641 1.937 1.5h0.813c0.531 0 0.914-0.859 1.281-1.695 0.484-1.078 1.023-2.305 2.219-2.305h0.836c0.211-0.586 0.758-1 1.414-1 0.828 0 1.5 0.672 1.5 1.5s-0.672 1.5-1.5 1.5c-0.656 0-1.203-0.414-1.414-1h-0.836c-0.547 0-0.93 0.867-1.305 1.711-0.187 0.438-0.398 0.898-0.648 1.289h8.703v-1c0-0.094 0.047-0.172 0.125-0.219s0.18-0.039 0.25 0.008z"></path>
</svg>
