<!-- Generated by IcoMoon.io -->
<svg version="1.1" xmlns="http://www.w3.org/2000/svg" width="16" height="14" viewBox="0 0 16 14">
<title>user-times</title>
<path d="M5.5 7c-1.656 0-3-1.344-3-3s1.344-3 3-3 3 1.344 3 3-1.344 3-3 3zM13.914 9.5l1.945 1.945c0.047 0.047 0.070 0.109 0.070 0.18 0 0.062-0.023 0.125-0.070 0.172l-1.062 1.062c-0.047 0.047-0.109 0.070-0.172 0.070-0.070 0-0.133-0.023-0.18-0.070l-1.945-1.945-1.945 1.945c-0.047 0.047-0.109 0.070-0.18 0.070-0.062 0-0.125-0.023-0.172-0.070l-1.062-1.062c-0.047-0.047-0.070-0.109-0.070-0.172 0-0.070 0.023-0.133 0.070-0.18l1.945-1.945-1.945-1.945c-0.047-0.047-0.070-0.109-0.070-0.18 0-0.062 0.023-0.125 0.070-0.172l1.062-1.062c0.047-0.047 0.109-0.070 0.172-0.070 0.070 0 0.133 0.023 0.18 0.070l1.945 1.945 1.945-1.945c0.047-0.047 0.109-0.070 0.18-0.070 0.062 0 0.125 0.023 0.172 0.070l1.062 1.062c0.047 0.047 0.070 0.109 0.070 0.172 0 0.070-0.023 0.133-0.070 0.18zM10.023 9.5l-1.414 1.414c-0.187 0.187-0.289 0.445-0.289 0.711 0 0.258 0.102 0.516 0.289 0.703l0.648 0.648c-0.109 0.016-0.227 0.023-0.344 0.023h-6.828c-1.25 0-2.086-0.75-2.086-2.023 0-1.766 0.414-4.477 2.703-4.477 0.125 0 0.211 0.055 0.305 0.133 0.75 0.594 1.516 0.953 2.492 0.953s1.742-0.359 2.492-0.953c0.094-0.078 0.18-0.133 0.305-0.133 0.148 0 0.297 0.016 0.445 0.047-0.258 0.25-0.422 0.453-0.422 0.828 0 0.266 0.102 0.523 0.289 0.711z"></path>
</svg>
