<!-- Generated by IcoMoon.io -->
<svg version="1.1" xmlns="http://www.w3.org/2000/svg" width="11" height="14" viewBox="0 0 11 14">
<title>user-secret</title>
<path d="M4.5 12l0.75-3.5-0.75-1-1-0.5zM6.5 12l1-5-1 0.5-0.75 1zM7.75 4.109c-0.008-0.016-0.016-0.031-0.031-0.047-0.070-0.055-0.633-0.062-0.75-0.062-0.445 0-0.867 0.062-1.305 0.148-0.055 0.016-0.109 0.016-0.164 0.016s-0.109 0-0.164-0.016c-0.438-0.086-0.859-0.148-1.305-0.148-0.117 0-0.68 0.008-0.75 0.062-0.016 0.016-0.023 0.031-0.031 0.047 0.008 0.070 0.016 0.141 0.031 0.211 0.047 0.062 0.086 0.039 0.117 0.133 0.203 0.555 0.297 0.984 1 0.984 1.008 0 0.727-0.93 1.055-0.93h0.094c0.328 0 0.047 0.93 1.055 0.93 0.703 0 0.797-0.43 1-0.984 0.031-0.094 0.070-0.070 0.117-0.133 0.016-0.070 0.023-0.141 0.031-0.211zM11 10.977c0 1.273-0.836 2.023-2.086 2.023h-6.828c-1.25 0-2.086-0.75-2.086-2.023 0-1.414 0.25-3.555 1.703-4.258l-0.703-1.719h1.672c-0.109-0.32-0.172-0.656-0.172-1 0-0.086 0.008-0.172 0.016-0.25-0.305-0.062-1.516-0.312-1.516-0.75 0-0.461 1.328-0.711 1.641-0.773 0.164-0.586 0.555-1.477 0.953-1.937 0.156-0.18 0.352-0.289 0.594-0.289 0.469 0 0.844 0.484 1.313 0.484s0.844-0.484 1.313-0.484c0.242 0 0.438 0.109 0.594 0.289 0.398 0.461 0.789 1.352 0.953 1.937 0.312 0.062 1.641 0.312 1.641 0.773 0 0.438-1.211 0.688-1.516 0.75 0.039 0.422-0.016 0.844-0.156 1.25h1.672l-0.641 1.758c1.398 0.727 1.641 2.828 1.641 4.219z"></path>
</svg>
