<!-- Generated by IcoMoon.io -->
<svg version="1.1" xmlns="http://www.w3.org/2000/svg" width="11" height="14" viewBox="0 0 11 14">
<title>user-md</title>
<path d="M3 10.5c0 0.273-0.227 0.5-0.5 0.5s-0.5-0.227-0.5-0.5 0.227-0.5 0.5-0.5 0.5 0.227 0.5 0.5zM11 10.977c0 1.273-0.836 2.023-2.086 2.023h-6.828c-1.25 0-2.086-0.75-2.086-2.023 0-1.555 0.312-4.008 2.172-4.414-0.125 0.297-0.172 0.617-0.172 0.937v1.586c-0.602 0.211-1 0.781-1 1.414 0 0.828 0.672 1.5 1.5 1.5s1.5-0.672 1.5-1.5c0-0.633-0.406-1.203-1-1.414v-1.586c0-0.258 0.023-0.516 0.195-0.727 0.656 0.516 1.469 0.813 2.305 0.813s1.648-0.297 2.305-0.813c0.172 0.211 0.195 0.469 0.195 0.727v0.5c-1.102 0-2 0.898-2 2v0.695c-0.156 0.141-0.25 0.344-0.25 0.555 0 0.414 0.336 0.75 0.75 0.75s0.75-0.336 0.75-0.75c0-0.211-0.094-0.414-0.25-0.555v-0.695c0-0.547 0.453-1 1-1s1 0.453 1 1v0.695c-0.156 0.141-0.25 0.344-0.25 0.555 0 0.414 0.336 0.75 0.75 0.75s0.75-0.336 0.75-0.75c0-0.211-0.094-0.414-0.25-0.555v-0.695c0-0.711-0.383-1.375-1-1.727 0-0.57 0.055-1.18-0.172-1.711 1.859 0.406 2.172 2.859 2.172 4.414zM8.5 4c0 1.656-1.344 3-3 3s-3-1.344-3-3 1.344-3 3-3 3 1.344 3 3z"></path>
</svg>
