<!-- Generated by IcoMoon.io -->
<svg version="1.1" xmlns="http://www.w3.org/2000/svg" width="14" height="14" viewBox="0 0 14 14">
<title>user-circle-o</title>
<path d="M7 0c3.867 0 7 3.133 7 7 0 3.844-3.117 7-7 7-3.875 0-7-3.148-7-7 0-3.867 3.133-7 7-7zM11.836 10.555c0.727-1 1.164-2.227 1.164-3.555 0-3.305-2.695-6-6-6s-6 2.695-6 6c0 1.328 0.438 2.555 1.164 3.555 0.281-1.398 0.961-2.555 2.391-2.555 0.633 0.617 1.492 1 2.445 1s1.812-0.383 2.445-1c1.43 0 2.109 1.156 2.391 2.555zM10 5.5c0-1.656-1.344-3-3-3s-3 1.344-3 3 1.344 3 3 3 3-1.344 3-3z"></path>
</svg>
