<!-- Generated by IcoMoon.io -->
<svg version="1.1" xmlns="http://www.w3.org/2000/svg" width="16" height="14" viewBox="0 0 16 14">
<title>user-plus</title>
<path d="M5.5 7c-1.656 0-3-1.344-3-3s1.344-3 3-3 3 1.344 3 3-1.344 3-3 3zM13 8h2.75c0.133 0 0.25 0.117 0.25 0.25v1.5c0 0.133-0.117 0.25-0.25 0.25h-2.75v2.75c0 0.133-0.117 0.25-0.25 0.25h-1.5c-0.133 0-0.25-0.117-0.25-0.25v-2.75h-2.75c-0.133 0-0.25-0.117-0.25-0.25v-1.5c0-0.133 0.117-0.25 0.25-0.25h2.75v-2.75c0-0.133 0.117-0.25 0.25-0.25h1.5c0.133 0 0.25 0.117 0.25 0.25v2.75zM7.25 9.75c0 0.547 0.453 1 1 1h2v1.859c-0.383 0.281-0.867 0.391-1.336 0.391h-6.828c-1.25 0-2.086-0.75-2.086-2.023 0-1.766 0.414-4.477 2.703-4.477 0.125 0 0.211 0.055 0.305 0.133 0.766 0.586 1.508 0.953 2.492 0.953s1.727-0.367 2.492-0.953c0.094-0.078 0.18-0.133 0.305-0.133 0.664 0 1.25 0.25 1.695 0.75h-1.742c-0.547 0-1 0.453-1 1v1.5z"></path>
</svg>
