<!-- Generated by IcoMoon.io -->
<svg version="1.1" xmlns="http://www.w3.org/2000/svg" width="9" height="14" viewBox="0 0 9 14">
<title>venus</title>
<path d="M9 4.5c0 2.313-1.75 4.219-4 4.469v2.031h1.75c0.141 0 0.25 0.109 0.25 0.25v0.5c0 0.141-0.109 0.25-0.25 0.25h-1.75v1.75c0 0.141-0.109 0.25-0.25 0.25h-0.5c-0.141 0-0.25-0.109-0.25-0.25v-1.75h-1.75c-0.141 0-0.25-0.109-0.25-0.25v-0.5c0-0.141 0.109-0.25 0.25-0.25h1.75v-2.031c-2.367-0.258-4.18-2.359-3.984-4.836 0.172-2.125 1.859-3.867 3.969-4.102 2.719-0.305 5.016 1.812 5.016 4.469zM1 4.5c0 1.93 1.57 3.5 3.5 3.5s3.5-1.57 3.5-3.5-1.57-3.5-3.5-3.5-3.5 1.57-3.5 3.5z"></path>
</svg>
