<!-- Generated by IcoMoon.io -->
<svg version="1.1" xmlns="http://www.w3.org/2000/svg" width="14" height="14" viewBox="0 0 14 14">
<title>venus-double</title>
<path d="M13.984 4.133c0.195 2.477-1.617 4.578-3.984 4.836v2.031h1.75c0.141 0 0.25 0.109 0.25 0.25v0.5c0 0.141-0.109 0.25-0.25 0.25h-1.75v1.75c0 0.141-0.109 0.25-0.25 0.25h-0.5c-0.141 0-0.25-0.109-0.25-0.25v-1.75h-4v1.75c0 0.141-0.109 0.25-0.25 0.25h-0.5c-0.141 0-0.25-0.109-0.25-0.25v-1.75h-1.75c-0.141 0-0.25-0.109-0.25-0.25v-0.5c0-0.141 0.109-0.25 0.25-0.25h1.75v-2.031c-2.367-0.258-4.18-2.359-3.984-4.836 0.172-2.148 1.898-3.906 4.039-4.109 1.094-0.109 2.117 0.18 2.945 0.734 0.828-0.555 1.852-0.844 2.945-0.734 2.141 0.203 3.867 1.961 4.039 4.109zM7 6.945c0.617-0.633 1-1.492 1-2.445s-0.383-1.812-1-2.445c-0.617 0.633-1 1.492-1 2.445s0.383 1.812 1 2.445zM4.5 8c0.617 0 1.195-0.164 1.703-0.445-0.75-0.805-1.203-1.875-1.203-3.055s0.461-2.25 1.203-3.055c-0.508-0.281-1.086-0.445-1.703-0.445-1.93 0-3.5 1.57-3.5 3.5s1.57 3.5 3.5 3.5zM9 11v-2.031c-0.734-0.078-1.414-0.344-2-0.734-0.586 0.391-1.266 0.656-2 0.734v2.031h4zM9.5 8c1.93 0 3.5-1.57 3.5-3.5s-1.57-3.5-3.5-3.5c-0.617 0-1.195 0.164-1.703 0.445 0.742 0.805 1.203 1.875 1.203 3.055s-0.453 2.25-1.203 3.055c0.508 0.281 1.086 0.445 1.703 0.445z"></path>
</svg>
