<!-- Generated by IcoMoon.io -->
<svg version="1.1" xmlns="http://www.w3.org/2000/svg" width="16" height="14" viewBox="0 0 16 14">
<title>venus-mars</title>
<path d="M13 0.25c0-0.141 0.109-0.25 0.25-0.25h2.25c0.273 0 0.5 0.227 0.5 0.5v2.25c0 0.141-0.109 0.25-0.25 0.25h-0.5c-0.141 0-0.25-0.109-0.25-0.25v-1.047l-1.984 1.992c0.766 0.961 1.148 2.234 0.914 3.602-0.328 1.875-1.852 3.367-3.734 3.648-1.187 0.18-2.305-0.109-3.195-0.703-0.586 0.391-1.266 0.648-2 0.727v1.031h0.75c0.141 0 0.25 0.109 0.25 0.25v0.5c0 0.141-0.109 0.25-0.25 0.25h-0.75v0.75c0 0.141-0.109 0.25-0.25 0.25h-0.5c-0.141 0-0.25-0.109-0.25-0.25v-0.75h-0.75c-0.141 0-0.25-0.109-0.25-0.25v-0.5c0-0.141 0.109-0.25 0.25-0.25h0.75v-1.031c-2.453-0.273-4.32-2.523-3.953-5.109 0.266-1.945 1.812-3.508 3.75-3.805 1.195-0.18 2.313 0.109 3.203 0.703 0.719-0.477 1.578-0.758 2.5-0.758 1.062 0 2.039 0.375 2.805 0.984l1.992-1.984h-1.047c-0.141 0-0.25-0.109-0.25-0.25v-0.5zM7 8.945c0.617-0.633 1-1.492 1-2.445s-0.383-1.812-1-2.445c-0.617 0.633-1 1.492-1 2.445s0.383 1.812 1 2.445zM1 6.5c0 1.93 1.57 3.5 3.5 3.5 0.617 0 1.203-0.164 1.703-0.445-0.742-0.805-1.203-1.875-1.203-3.055s0.461-2.25 1.203-3.055c-0.5-0.281-1.086-0.445-1.703-0.445-1.93 0-3.5 1.57-3.5 3.5zM9.5 10c1.93 0 3.5-1.57 3.5-3.5s-1.57-3.5-3.5-3.5c-0.617 0-1.203 0.164-1.703 0.445 0.742 0.805 1.203 1.875 1.203 3.055s-0.461 2.25-1.203 3.055c0.5 0.281 1.086 0.445 1.703 0.445z"></path>
</svg>
