<!-- Generated by IcoMoon.io -->
<svg version="1.1" xmlns="http://www.w3.org/2000/svg" width="12" height="14" viewBox="0 0 12 14">
<title>viadeo-square</title>
<path d="M8.203 8.133c0-0.391-0.070-0.781-0.219-1.148-0.203 0.125-0.43 0.219-0.664 0.266 0.125 0.281 0.172 0.586 0.172 0.891 0 1.203-0.891 2.188-2.109 2.188-1.227 0-2.117-0.984-2.117-2.188 0-1.18 0.898-2.219 2.117-2.219 0.266 0 0.523 0.047 0.766 0.148 0.023-0.234 0.102-0.469 0.211-0.68-0.312-0.109-0.641-0.164-0.977-0.164-1.617 0-2.82 1.305-2.82 2.906s1.211 2.867 2.82 2.867 2.82-1.273 2.82-2.867zM6.813 5.359c0.016 0.187 0.016 0.375 0.016 0.555 0 1.445-0.281 3.797-1.836 4.391 0.109 0.016 0.219 0.023 0.328 0.023h0.078c1.156-0.734 1.711-1.859 1.711-3.211 0-0.602-0.102-1.195-0.297-1.758zM6.813 5.359c-0.039-0.758-0.469-1.93-1.109-2.359 0.438 0.742 0.828 1.539 1.109 2.359zM9.43 4.539c0-0.477-0.117-0.961-0.398-1.359-0.187 0.398-0.539 0.734-0.969 0.852-0.617 0.172-1.164 0.461-1.164 1.195 0 0.211 0.070 0.422 0.187 0.602 0.742-0.172 1.531-0.719 1.844-1.422-0.047 0.625-1.211 1.383-1.664 1.633 0.227 0.227 0.523 0.406 0.859 0.406 0.57 0 0.977-0.508 1.172-0.992 0.094-0.234 0.133-0.672 0.133-0.914zM12 3.25v7.5c0 1.242-1.008 2.25-2.25 2.25h-7.5c-1.242 0-2.25-1.008-2.25-2.25v-7.5c0-1.242 1.008-2.25 2.25-2.25h7.5c1.242 0 2.25 1.008 2.25 2.25z"></path>
</svg>
