<!-- Generated by IcoMoon.io -->
<svg version="1.1" xmlns="http://www.w3.org/2000/svg" width="10" height="14" viewBox="0 0 10 14">
<title>viadeo</title>
<path d="M8.203 8.641c0 1.117-0.391 2.102-1.148 2.922-0.789 0.859-1.789 1.258-2.953 1.258-1.156 0-2.164-0.391-2.953-1.258-0.758-0.82-1.148-1.805-1.148-2.922 0-2.32 1.75-4.219 4.102-4.219 0.484 0 0.969 0.078 1.422 0.242-0.156 0.305-0.266 0.641-0.305 0.984-0.352-0.148-0.734-0.219-1.117-0.219-1.773 0-3.078 1.516-3.078 3.234 0 1.75 1.297 3.18 3.078 3.18s3.070-1.43 3.070-3.18c0-0.445-0.078-0.883-0.25-1.297 0.344-0.070 0.672-0.203 0.961-0.383 0.219 0.523 0.32 1.094 0.32 1.656zM6.609 7.164c0 1.969-0.797 3.609-2.484 4.672l-0.109 0.008c-0.164 0-0.328-0.016-0.484-0.039 2.258-0.859 2.672-4.289 2.672-6.383 0-0.266 0-0.539-0.023-0.805 0.281 0.82 0.43 1.68 0.43 2.547zM6.18 4.602v0.016c-0.406-1.195-0.969-2.352-1.609-3.438 0.984 0.664 1.523 2.273 1.609 3.422zM8.086 6.187c-0.484 0-0.914-0.258-1.25-0.586 0.797-0.438 1.805-1.117 2.266-1.93 0.055-0.109 0.148-0.312 0.164-0.438-0.453 1.016-1.609 1.812-2.687 2.062-0.172-0.266-0.273-0.563-0.273-0.883 0-0.375 0.187-0.875 0.469-1.148 0.32-0.305 0.797-0.461 1.227-0.578 0.625-0.172 1.133-0.656 1.406-1.242 0.406 0.578 0.578 1.281 0.578 1.977 0 0.352-0.055 0.992-0.187 1.328-0.289 0.703-0.875 1.438-1.711 1.438z"></path>
</svg>
