<!-- Generated by IcoMoon.io -->
<svg version="1.1" xmlns="http://www.w3.org/2000/svg" width="14" height="14" viewBox="0 0 14 14">
<title>video-camera</title>
<path d="M14 2.75v8.5c0 0.203-0.125 0.383-0.305 0.461-0.062 0.023-0.133 0.039-0.195 0.039-0.133 0-0.258-0.047-0.352-0.148l-3.148-3.148v1.297c0 1.242-1.008 2.25-2.25 2.25h-5.5c-1.242 0-2.25-1.008-2.25-2.25v-5.5c0-1.242 1.008-2.25 2.25-2.25h5.5c1.242 0 2.25 1.008 2.25 2.25v1.289l3.148-3.141c0.094-0.102 0.219-0.148 0.352-0.148 0.062 0 0.133 0.016 0.195 0.039 0.18 0.078 0.305 0.258 0.305 0.461z"></path>
</svg>
