<!-- Generated by IcoMoon.io -->
<svg version="1.1" xmlns="http://www.w3.org/2000/svg" width="14" height="14" viewBox="0 0 14 14">
<title>vimeo</title>
<path d="M13.352 4.047c-0.055 1.234-0.922 2.93-2.594 5.086-1.734 2.242-3.188 3.367-4.391 3.367-0.742 0-1.367-0.688-1.875-2.055-0.344-1.25-0.688-2.508-1.031-3.766-0.375-1.367-0.789-2.047-1.227-2.047-0.094 0-0.422 0.195-0.992 0.594l-0.602-0.766c0.625-0.555 1.242-1.117 1.859-1.656 0.828-0.734 1.461-1.102 1.883-1.141 0.992-0.094 1.594 0.578 1.828 2.023 0.242 1.563 0.422 2.539 0.516 2.914 0.289 1.297 0.594 1.945 0.937 1.945 0.266 0 0.664-0.414 1.203-1.258 0.531-0.844 0.813-1.484 0.852-1.922 0.070-0.727-0.211-1.086-0.852-1.086-0.305 0-0.617 0.070-0.945 0.203 0.625-2.047 1.82-3.039 3.586-2.984 1.305 0.039 1.922 0.891 1.844 2.547z"></path>
</svg>
