<!-- Generated by IcoMoon.io -->
<svg version="1.1" xmlns="http://www.w3.org/2000/svg" width="12" height="14" viewBox="0 0 12 14">
<title>vimeo-square</title>
<path d="M10.094 4.984c0.055-1.133-0.367-1.703-1.258-1.734-1.203-0.039-2.016 0.641-2.438 2.039 0.219-0.094 0.43-0.148 0.641-0.148 0.438 0 0.633 0.25 0.578 0.75-0.023 0.297-0.219 0.734-0.578 1.305-0.367 0.578-0.641 0.859-0.82 0.859-0.234 0-0.438-0.438-0.641-1.32-0.062-0.266-0.18-0.922-0.352-1.992-0.156-0.984-0.57-1.445-1.25-1.383-0.281 0.031-0.719 0.281-1.281 0.781-0.422 0.367-0.836 0.75-1.266 1.125l0.406 0.523c0.391-0.266 0.617-0.406 0.68-0.406 0.297 0 0.578 0.469 0.836 1.398 0.234 0.859 0.469 1.711 0.703 2.57 0.352 0.93 0.773 1.398 1.281 1.398 0.813 0 1.812-0.766 2.992-2.297 1.141-1.469 1.734-2.625 1.766-3.469zM12 3.25v7.5c0 1.242-1.008 2.25-2.25 2.25h-7.5c-1.242 0-2.25-1.008-2.25-2.25v-7.5c0-1.242 1.008-2.25 2.25-2.25h7.5c1.242 0 2.25 1.008 2.25 2.25z"></path>
</svg>
