<!-- Generated by IcoMoon.io -->
<svg version="1.1" xmlns="http://www.w3.org/2000/svg" width="12" height="14" viewBox="0 0 12 14">
<title>vine</title>
<path d="M11.695 6.461v1.547c-0.547 0.125-1.094 0.18-1.547 0.18-1.094 2.297-3.055 4.266-3.711 4.633-0.414 0.234-0.805 0.25-1.266-0.023-0.805-0.484-3.852-2.984-4.867-10.844h2.211c0.555 4.719 1.914 7.141 3.406 8.953 0.828-0.828 1.625-1.93 2.242-3.172-1.477-0.75-2.375-2.398-2.375-4.32 0-1.945 1.117-3.414 3.031-3.414 1.859 0 2.875 1.156 2.875 3.148 0 0.742-0.156 1.586-0.453 2.234 0 0-1.375 0.273-1.883-0.609 0.102-0.336 0.242-0.914 0.242-1.438 0-0.93-0.336-1.383-0.844-1.383-0.539 0-0.914 0.508-0.914 1.484 0 1.992 1.266 3.133 2.906 3.133 0.289 0 0.617-0.031 0.945-0.109z"></path>
</svg>
