<!-- Generated by IcoMoon.io -->
<svg version="1.1" xmlns="http://www.w3.org/2000/svg" width="15" height="14" viewBox="0 0 15 14">
<title>vk</title>
<path d="M14.977 4.063c0.117 0.32-0.25 1.070-1.172 2.297-1.516 2.016-1.68 1.828-0.43 2.992 1.203 1.117 1.453 1.656 1.492 1.727 0 0 0.5 0.875-0.555 0.883l-2 0.031c-0.43 0.086-1-0.305-1-0.305-0.75-0.516-1.453-1.852-2-1.68 0 0-0.563 0.18-0.547 1.383 0.008 0.258-0.117 0.398-0.117 0.398s-0.141 0.148-0.414 0.172h-0.898c-1.977 0.125-3.719-1.695-3.719-1.695s-1.906-1.969-3.578-5.898c-0.109-0.258 0.008-0.383 0.008-0.383s0.117-0.148 0.445-0.148l2.141-0.016c0.203 0.031 0.344 0.141 0.344 0.141s0.125 0.086 0.187 0.25c0.352 0.875 0.805 1.672 0.805 1.672 0.781 1.609 1.313 1.883 1.617 1.719 0 0 0.398-0.242 0.312-2.188-0.031-0.703-0.227-1.023-0.227-1.023-0.18-0.242-0.516-0.312-0.664-0.336-0.117-0.016 0.078-0.297 0.336-0.422 0.383-0.187 1.062-0.195 1.867-0.187 0.633 0.008 0.813 0.047 1.055 0.102 0.742 0.18 0.492 0.867 0.492 2.523 0 0.531-0.102 1.273 0.281 1.516 0.164 0.109 0.57 0.016 1.57-1.688 0 0 0.469-0.813 0.836-1.758 0.062-0.172 0.195-0.242 0.195-0.242s0.125-0.070 0.297-0.047l2.25-0.016c0.68-0.086 0.789 0.227 0.789 0.227z"></path>
</svg>
