<!-- Generated by IcoMoon.io -->
<svg version="1.1" xmlns="http://www.w3.org/2000/svg" width="9" height="14" viewBox="0 0 9 14">
<title>volume-down</title>
<path d="M6 2.75v8.5c0 0.273-0.227 0.5-0.5 0.5-0.133 0-0.258-0.055-0.352-0.148l-2.602-2.602h-2.047c-0.273 0-0.5-0.227-0.5-0.5v-3c0-0.273 0.227-0.5 0.5-0.5h2.047l2.602-2.602c0.094-0.094 0.219-0.148 0.352-0.148 0.273 0 0.5 0.227 0.5 0.5zM9 7c0 0.781-0.477 1.539-1.211 1.836-0.062 0.031-0.133 0.039-0.195 0.039-0.273 0-0.5-0.219-0.5-0.5 0-0.594 0.906-0.43 0.906-1.375s-0.906-0.781-0.906-1.375c0-0.281 0.227-0.5 0.5-0.5 0.062 0 0.133 0.008 0.195 0.039 0.734 0.289 1.211 1.055 1.211 1.836z"></path>
</svg>
