<!-- Generated by IcoMoon.io -->
<svg version="1.1" xmlns="http://www.w3.org/2000/svg" width="13" height="14" viewBox="0 0 13 14">
<title>volume-up</title>
<path d="M6 2.75v8.5c0 0.273-0.227 0.5-0.5 0.5-0.133 0-0.258-0.055-0.352-0.148l-2.602-2.602h-2.047c-0.273 0-0.5-0.227-0.5-0.5v-3c0-0.273 0.227-0.5 0.5-0.5h2.047l2.602-2.602c0.094-0.094 0.219-0.148 0.352-0.148 0.273 0 0.5 0.227 0.5 0.5zM9 7c0 0.781-0.477 1.539-1.211 1.836-0.062 0.031-0.133 0.039-0.195 0.039-0.273 0-0.5-0.219-0.5-0.5 0-0.594 0.906-0.43 0.906-1.375s-0.906-0.781-0.906-1.375c0-0.281 0.227-0.5 0.5-0.5 0.062 0 0.133 0.008 0.195 0.039 0.734 0.289 1.211 1.055 1.211 1.836zM11 7c0 1.586-0.953 3.063-2.422 3.68-0.062 0.023-0.133 0.039-0.195 0.039-0.281 0-0.508-0.227-0.508-0.5 0-0.219 0.125-0.367 0.305-0.461 0.211-0.109 0.406-0.203 0.594-0.344 0.773-0.563 1.227-1.461 1.227-2.414s-0.453-1.852-1.227-2.414c-0.187-0.141-0.383-0.234-0.594-0.344-0.18-0.094-0.305-0.242-0.305-0.461 0-0.273 0.227-0.5 0.5-0.5 0.070 0 0.141 0.016 0.203 0.039 1.469 0.617 2.422 2.094 2.422 3.68zM13 7c0 2.398-1.43 4.57-3.633 5.516-0.062 0.023-0.133 0.039-0.203 0.039-0.273 0-0.5-0.227-0.5-0.5 0-0.227 0.117-0.352 0.305-0.461 0.109-0.062 0.234-0.102 0.352-0.164 0.219-0.117 0.438-0.25 0.641-0.398 1.281-0.945 2.039-2.438 2.039-4.031s-0.758-3.086-2.039-4.031c-0.203-0.148-0.422-0.281-0.641-0.398-0.117-0.062-0.242-0.102-0.352-0.164-0.187-0.109-0.305-0.234-0.305-0.461 0-0.273 0.227-0.5 0.5-0.5 0.070 0 0.141 0.016 0.203 0.039 2.203 0.945 3.633 3.117 3.633 5.516z"></path>
</svg>
