<!-- Generated by IcoMoon.io -->
<svg version="1.1" xmlns="http://www.w3.org/2000/svg" width="11" height="14" viewBox="0 0 11 14">
<title>volume-control-phone</title>
<path d="M4.82 13.195c0-0.187-0.414-1.516-0.5-1.828-0.047-0.195-0.062-0.516-0.211-0.656-0.102-0.094-0.266-0.109-0.398-0.109-0.367 0-0.734 0.086-1.102 0.086-0.109 0-0.273-0.008-0.367-0.086-0.125-0.102-0.187-0.453-0.234-0.609-0.187-0.648-0.289-1.313-0.289-1.992s0.102-1.344 0.289-1.992c0.047-0.156 0.109-0.508 0.234-0.609 0.094-0.078 0.258-0.086 0.367-0.086 0.367 0 0.734 0.086 1.102 0.086 0.133 0 0.297-0.016 0.398-0.109 0.148-0.141 0.164-0.461 0.211-0.656 0.086-0.312 0.5-1.641 0.5-1.828 0-0.266-0.703-0.656-0.93-0.742-0.117-0.047-0.234-0.062-0.352-0.062-0.258 0-0.516 0.070-0.766 0.141-1.281 0.383-1.586 1.164-2.094 2.266-0.547 1.18-0.68 2.305-0.68 3.594s0.133 2.414 0.68 3.594c0.508 1.102 0.813 1.883 2.094 2.266 0.25 0.070 0.508 0.141 0.766 0.141 0.117 0 0.234-0.016 0.352-0.062 0.227-0.086 0.93-0.477 0.93-0.742zM6.063 6.063c-0.133 0-0.258-0.055-0.352-0.148-0.195-0.195-0.203-0.516 0-0.711 0.187-0.187 0.289-0.438 0.289-0.703s-0.102-0.516-0.289-0.711c-0.203-0.195-0.195-0.508 0-0.703s0.508-0.195 0.703 0c0.375 0.375 0.586 0.883 0.586 1.414s-0.211 1.039-0.586 1.414c-0.102 0.094-0.227 0.148-0.352 0.148zM7.477 7.477c-0.133 0-0.258-0.047-0.352-0.148-0.195-0.195-0.195-0.508 0-0.703 0.563-0.57 0.875-1.32 0.875-2.125s-0.312-1.555-0.875-2.125c-0.195-0.195-0.195-0.508 0-0.703s0.508-0.195 0.703 0c0.758 0.758 1.172 1.758 1.172 2.828s-0.414 2.070-1.172 2.828c-0.094 0.102-0.227 0.148-0.352 0.148zM8.891 8.891c-0.133 0-0.258-0.047-0.352-0.148-0.195-0.195-0.195-0.508 0-0.703 0.937-0.945 1.461-2.203 1.461-3.539s-0.523-2.594-1.461-3.539c-0.195-0.195-0.195-0.508 0-0.703s0.508-0.195 0.703 0c1.133 1.133 1.758 2.641 1.758 4.242s-0.625 3.109-1.758 4.242c-0.094 0.102-0.227 0.148-0.352 0.148z"></path>
</svg>
