<!-- Generated by IcoMoon.io -->
<svg version="1.1" xmlns="http://www.w3.org/2000/svg" width="16" height="14" viewBox="0 0 16 14">
<title>wechat</title>
<path d="M4.531 3.602c0-0.43-0.281-0.711-0.711-0.711-0.422 0-0.852 0.281-0.852 0.711 0 0.422 0.43 0.703 0.852 0.703 0.43 0 0.711-0.281 0.711-0.703zM10.336 7.563c0-0.281-0.281-0.563-0.711-0.563-0.281 0-0.563 0.281-0.563 0.563 0 0.289 0.281 0.57 0.563 0.57 0.43 0 0.711-0.281 0.711-0.57zM8.492 3.602c0-0.43-0.281-0.711-0.703-0.711-0.43 0-0.852 0.281-0.852 0.711 0 0.422 0.422 0.703 0.852 0.703 0.422 0 0.703-0.281 0.703-0.703zM13.453 7.563c0-0.281-0.289-0.563-0.711-0.563-0.281 0-0.563 0.281-0.563 0.563 0 0.289 0.281 0.57 0.563 0.57 0.422 0 0.711-0.281 0.711-0.57zM11.375 4.461c-0.18-0.023-0.359-0.031-0.547-0.031-2.687 0-4.813 2.008-4.813 4.477 0 0.414 0.062 0.813 0.18 1.187-0.18 0.016-0.352 0.023-0.531 0.023-0.711 0-1.273-0.141-1.984-0.281l-1.977 0.992 0.563-1.703c-1.414-0.992-2.266-2.273-2.266-3.828 0-2.695 2.547-4.813 5.664-4.813 2.781 0 5.227 1.695 5.711 3.977zM16 8.844c0 1.273-0.844 2.406-1.984 3.258l0.43 1.414-1.555-0.852c-0.57 0.141-1.141 0.289-1.703 0.289-2.695 0-4.813-1.844-4.813-4.109s2.117-4.109 4.813-4.109c2.547 0 4.813 1.844 4.813 4.109z"></path>
</svg>
