<!-- Generated by IcoMoon.io -->
<svg version="1.1" xmlns="http://www.w3.org/2000/svg" width="14" height="14" viewBox="0 0 14 14">
<title>weibo</title>
<path d="M5.273 10.031c0.219-0.359 0.102-0.773-0.266-0.93-0.352-0.148-0.82 0.008-1.039 0.352-0.227 0.352-0.117 0.766 0.234 0.93 0.359 0.164 0.844 0.008 1.070-0.352zM6.008 9.086c0.078-0.141 0.031-0.297-0.109-0.352-0.141-0.047-0.312 0.016-0.391 0.148-0.078 0.141-0.039 0.289 0.102 0.352 0.141 0.055 0.32-0.008 0.398-0.148zM7.367 9.922c-0.469 1.062-1.828 1.641-2.984 1.266-1.117-0.359-1.586-1.461-1.102-2.453 0.484-0.969 1.727-1.516 2.828-1.234 1.148 0.297 1.727 1.375 1.258 2.422zM9.805 8.672c-0.148-1.523-2.148-2.57-4.469-2.344-2.32 0.234-4.070 1.648-3.922 3.172s2.148 2.57 4.469 2.344c2.32-0.234 4.070-1.648 3.922-3.172zM12.211 8.703c0 1.758-2.531 3.969-6.336 3.969-2.906 0-5.875-1.406-5.875-3.727 0-1.211 0.766-2.609 2.086-3.93 1.766-1.766 3.82-2.563 4.594-1.789 0.344 0.336 0.375 0.93 0.156 1.633-0.109 0.359 0.336 0.156 0.336 0.164 1.422-0.602 2.664-0.633 3.117 0.016 0.242 0.344 0.219 0.828 0 1.391-0.102 0.258 0.031 0.297 0.227 0.359 0.805 0.25 1.695 0.852 1.695 1.914zM11.633 3.828c0.445 0.492 0.57 1.172 0.375 1.766-0.078 0.242-0.336 0.375-0.578 0.297s-0.375-0.336-0.297-0.578v0c0.094-0.297 0.031-0.625-0.187-0.867s-0.539-0.336-0.836-0.273v0c-0.25 0.055-0.5-0.102-0.547-0.352-0.055-0.25 0.102-0.492 0.352-0.547 0.609-0.133 1.273 0.055 1.719 0.555zM13.047 2.555c0.922 1.016 1.164 2.406 0.773 3.625v0c-0.094 0.281-0.391 0.438-0.672 0.344s-0.438-0.391-0.352-0.672v0c0.281-0.867 0.109-1.859-0.547-2.578-0.656-0.727-1.617-1-2.508-0.813-0.289 0.062-0.578-0.125-0.641-0.414s0.125-0.57 0.414-0.633v0c1.258-0.266 2.609 0.117 3.531 1.141z"></path>
</svg>
