<!-- Generated by IcoMoon.io -->
<svg version="1.1" xmlns="http://www.w3.org/2000/svg" width="12" height="14" viewBox="0 0 12 14">
<title>whatsapp</title>
<path d="M7.695 7.609c0.133 0 1.406 0.664 1.461 0.758 0.016 0.039 0.016 0.086 0.016 0.117 0 0.195-0.062 0.414-0.133 0.594-0.18 0.438-0.906 0.719-1.352 0.719-0.375 0-1.148-0.328-1.484-0.484-1.117-0.508-1.812-1.375-2.484-2.367-0.297-0.438-0.563-0.977-0.555-1.516v-0.062c0.016-0.516 0.203-0.883 0.578-1.234 0.117-0.109 0.242-0.172 0.406-0.172 0.094 0 0.187 0.023 0.289 0.023 0.211 0 0.25 0.062 0.328 0.266 0.055 0.133 0.453 1.195 0.453 1.273 0 0.297-0.539 0.633-0.539 0.813 0 0.039 0.016 0.078 0.039 0.117 0.172 0.367 0.5 0.789 0.797 1.070 0.359 0.344 0.742 0.57 1.18 0.789 0.055 0.031 0.109 0.055 0.172 0.055 0.234 0 0.625-0.758 0.828-0.758zM6.109 11.75c2.703 0 4.906-2.203 4.906-4.906s-2.203-4.906-4.906-4.906-4.906 2.203-4.906 4.906c0 1.031 0.328 2.039 0.937 2.875l-0.617 1.82 1.891-0.602c0.797 0.523 1.742 0.813 2.695 0.813zM6.109 0.953c3.25 0 5.891 2.641 5.891 5.891s-2.641 5.891-5.891 5.891c-0.992 0-1.977-0.25-2.852-0.734l-3.258 1.047 1.062-3.164c-0.555-0.914-0.844-1.969-0.844-3.039 0-3.25 2.641-5.891 5.891-5.891z"></path>
</svg>
