<!-- Generated by IcoMoon.io -->
<svg version="1.1" xmlns="http://www.w3.org/2000/svg" width="13" height="14" viewBox="0 0 13 14">
<title>wheelchair</title>
<path d="M7.992 9.273l0.797 1.594c-0.602 1.859-2.336 3.133-4.289 3.133-2.477 0-4.5-2.023-4.5-4.5 0-1.891 1.187-3.578 2.961-4.227l0.133 1.023c-1.273 0.563-2.094 1.812-2.094 3.203 0 1.93 1.57 3.5 3.5 3.5 2.008 0 3.633-1.719 3.492-3.727zM12.273 10.055l0.453 0.891-2 1c-0.070 0.039-0.148 0.055-0.227 0.055-0.187 0-0.367-0.109-0.445-0.273l-1.867-3.727h-3.687c-0.25 0-0.469-0.195-0.5-0.445l-0.75-6.086c-0.008-0.078 0.023-0.25 0.047-0.328 0.148-0.539 0.648-0.891 1.203-0.891 0.688 0 1.25 0.563 1.25 1.25 0 0.711-0.625 1.32-1.344 1.242l0.289 2.258h3.305v1h-3.18l0.125 1h3.555c0.187 0 0.367 0.109 0.445 0.273l1.781 3.555z"></path>
</svg>
