<!-- Generated by IcoMoon.io -->
<svg version="1.1" xmlns="http://www.w3.org/2000/svg" width="12" height="14" viewBox="0 0 12 14">
<title>wheelchair-alt</title>
<path d="M11.234 6.352c0.164 0.172 0.25 0.406 0.227 0.641l-0.344 4.305c-0.039 0.438-0.398 0.766-0.828 0.766-0.023 0-0.047 0-0.070-0.008-0.461-0.031-0.797-0.438-0.766-0.891l0.273-3.352-1.117 0.062c0.273 0.563 0.43 1.203 0.43 1.875 0 1.125-0.438 2.148-1.156 2.906l-1.070-1.070c0.437-0.484 0.711-1.133 0.711-1.836 0-1.516-1.227-2.742-2.734-2.742-0.711 0-1.352 0.273-1.844 0.719l-1.070-1.078c0.602-0.57 1.367-0.961 2.219-1.102l2.062-2.344-1.164-0.68-1.414 1.258c-0.344 0.312-0.867 0.281-1.172-0.062s-0.273-0.867 0.062-1.172l1.867-1.664c0.266-0.242 0.656-0.281 0.969-0.094 3.805 2.211 3.812 2.211 3.812 2.211 0.203 0.117 0.32 0.32 0.375 0.531 0.078 0.305 0.023 0.648-0.203 0.914l-1.602 1.812 2.898-0.156c0.242-0.016 0.477 0.070 0.648 0.25zM9.687 2.781c-0.766 0-1.391-0.617-1.391-1.391 0-0.766 0.625-1.391 1.391-1.391 0.773 0 1.398 0.625 1.398 1.391 0 0.773-0.625 1.391-1.398 1.391zM4.789 12.484c0.563 0 1.094-0.18 1.531-0.477l1.086 1.086c-0.719 0.57-1.633 0.906-2.617 0.906-2.352 0-4.258-1.906-4.258-4.25 0-0.992 0.336-1.898 0.906-2.625l1.086 1.086c-0.297 0.438-0.469 0.969-0.469 1.539 0 1.508 1.227 2.734 2.734 2.734z"></path>
</svg>
