<!-- Generated by IcoMoon.io -->
<svg version="1.1" xmlns="http://www.w3.org/2000/svg" width="18" height="14" viewBox="0 0 18 14">
<title>wikipedia-w</title>
<path d="M11.672 12.805l-2.305-5.43c-0.914 1.789-1.922 3.656-2.789 5.43-0.008 0.008-0.422 0-0.422-0.008-1.32-3.086-2.703-6.148-4.023-9.242-0.32-0.75-1.391-1.969-2.125-1.961 0-0.086-0.008-0.281-0.008-0.398h4.555v0.391c-0.539 0.031-1.484 0.375-1.219 0.961 0.617 1.398 2.914 6.758 3.531 8.117 0.422-0.836 1.625-3.070 2.117-4.016-0.391-0.797-1.648-3.766-2.047-4.5-0.273-0.5-1.016-0.547-1.57-0.555v-0.391l4.008 0.008v0.367c-0.547 0.016-1.070 0.219-0.828 0.734 0.531 1.125 0.859 1.914 1.352 2.945 0.156-0.305 0.977-1.953 1.352-2.836 0.25-0.578-0.109-0.805-1.086-0.828 0.008-0.102 0-0.289 0.008-0.383 1.25-0.008 3.125-0.008 3.461-0.016v0.383c-0.633 0.023-1.289 0.359-1.633 0.891l-1.664 3.453c0.18 0.453 1.781 4.016 1.945 4.406l3.445-7.945c-0.242-0.648-1.023-0.789-1.328-0.797v-0.391l3.594 0.031 0.008 0.016-0.008 0.344c-0.789 0.023-1.266 0.445-1.57 1.133-0.703 1.625-2.906 6.75-4.367 10.086h-0.383z"></path>
</svg>
