<!-- Generated by IcoMoon.io -->
<svg version="1.1" xmlns="http://www.w3.org/2000/svg" width="14" height="14" viewBox="0 0 14 14">
<title>wordpress</title>
<path d="M0.992 7c0-0.867 0.187-1.695 0.523-2.445l2.867 7.852c-2.008-0.977-3.391-3.031-3.391-5.406zM11.055 6.695c0 0.516-0.211 1.109-0.461 1.945l-0.594 2-2.172-6.453s0.359-0.023 0.688-0.062c0.32-0.039 0.281-0.516-0.039-0.492-0.977 0.070-1.602 0.078-1.602 0.078s-0.586-0.008-1.578-0.078c-0.328-0.023-0.367 0.469-0.039 0.492 0.305 0.031 0.625 0.062 0.625 0.062l0.937 2.563-1.313 3.938-2.188-6.5s0.359-0.023 0.688-0.062c0.32-0.039 0.281-0.516-0.039-0.492-0.969 0.070-1.602 0.078-1.602 0.078-0.109 0-0.242-0.008-0.383-0.008 1.070-1.633 2.914-2.711 5.016-2.711 1.563 0 2.984 0.602 4.055 1.578h-0.078c-0.586 0-1.008 0.508-1.008 1.062 0 0.492 0.289 0.906 0.594 1.406 0.234 0.398 0.492 0.914 0.492 1.656zM7.102 7.523l1.852 5.055c0.008 0.031 0.023 0.062 0.039 0.086-0.625 0.219-1.289 0.344-1.992 0.344-0.586 0-1.156-0.086-1.695-0.25zM12.266 4.117c0.469 0.859 0.742 1.836 0.742 2.883 0 2.219-1.203 4.148-2.992 5.188l1.836-5.297c0.305-0.875 0.461-1.547 0.461-2.156 0-0.219-0.016-0.422-0.047-0.617zM7 0c3.859 0 7 3.141 7 7s-3.141 7-7 7-7-3.141-7-7 3.141-7 7-7zM7 13.68c3.68 0 6.68-3 6.68-6.68s-3-6.68-6.68-6.68-6.68 3-6.68 6.68 3 6.68 6.68 6.68z"></path>
</svg>
