<!-- Generated by IcoMoon.io -->
<svg version="1.1" xmlns="http://www.w3.org/2000/svg" width="14" height="14" viewBox="0 0 14 14">
<title>wpbeginner</title>
<path d="M3 6.5h1.25v-1.75h-1.25v1.75zM9.539 9.094v-0.719c-0.672 0.234-1.227 0.289-1.898 0.297-1.508 0.008-2.844-0.617-3.75-1.32l0.008 0.75c0.852 0.773 2.156 1.383 3.781 1.375 0.68 0 1.32-0.141 1.859-0.383zM5 6.5h5v-1.75h-5v1.75zM14 6.25c0 0.992-0.281 1.93-0.773 2.75 0.438 0.5 0.695 1.117 0.695 1.789 0 1.633-1.547 2.961-3.461 2.961-1.297 0-2.422-0.609-3.016-1.508-0.148 0.008-0.297 0.008-0.445 0.008s-0.297 0-0.445-0.008c-0.594 0.898-1.719 1.508-3.016 1.508-1.914 0-3.461-1.328-3.461-2.961 0-0.672 0.258-1.289 0.695-1.789-0.492-0.82-0.773-1.758-0.773-2.75 0-3.313 3.133-6 7-6s7 2.687 7 6z"></path>
</svg>
