<!-- Generated by IcoMoon.io -->
<svg version="1.1" xmlns="http://www.w3.org/2000/svg" width="14" height="14" viewBox="0 0 14 14">
<title>wpexplorer</title>
<path d="M7.406 8.031l1.273 2.57h-0.398l-1.367-2.734-1.336 2.734h-0.383l1.398-2.922-0.609-0.258 0.164-0.383 1.875 0.797-0.164 0.391zM4.398 3.406l2.375 1.016-1.016 2.375-2.375-1.016zM7.086 4.852l1.875 0.805-0.805 1.867-1.867-0.797zM9.281 6.023l1.492 0.633-0.641 1.484-1.484-0.633zM13.125 7c0-3.375-2.75-6.125-6.125-6.125s-6.125 2.75-6.125 6.125 2.75 6.125 6.125 6.125 6.125-2.75 6.125-6.125zM14 7c0 3.859-3.141 7-7 7s-7-3.141-7-7 3.141-7 7-7 7 3.141 7 7z"></path>
</svg>
