<!-- Generated by IcoMoon.io -->
<svg version="1.1" xmlns="http://www.w3.org/2000/svg" width="12" height="14" viewBox="0 0 12 14">
<title>wpforms</title>
<path d="M4.023 7.117v1h-1.969v-1h1.969zM4.023 5.125v0.992h-1.969v-0.992h1.969zM9.945 9.117v1h-2.664v-1h2.664zM9.945 7.117v1h-5.25v-1h5.25zM9.945 5.125v0.992h-5.25v-0.992h5.25zM11 11.844v-9.687c0-0.086-0.070-0.156-0.156-0.156h-0.25l-2.953 2-1.641-1.336-1.641 1.336-2.953-2h-0.25c-0.086 0-0.156 0.070-0.156 0.156v9.687c0 0.086 0.070 0.156 0.156 0.156h9.687c0.086 0 0.156-0.070 0.156-0.156zM4.32 3.172l1.445-1.172h-3.172zM7.68 3.172l1.727-1.172h-3.172zM12 2.156v9.687c0 0.641-0.516 1.156-1.156 1.156h-9.687c-0.641 0-1.156-0.516-1.156-1.156v-9.687c0-0.641 0.516-1.156 1.156-1.156h9.687c0.641 0 1.156 0.516 1.156 1.156z"></path>
</svg>
