<!-- Generated by IcoMoon.io -->
<svg version="1.1" xmlns="http://www.w3.org/2000/svg" width="13" height="14" viewBox="0 0 13 14">
<title>wrench</title>
<path d="M3 11.5c0-0.273-0.227-0.5-0.5-0.5s-0.5 0.227-0.5 0.5 0.227 0.5 0.5 0.5 0.5-0.227 0.5-0.5zM8.031 8.219l-5.328 5.328c-0.18 0.18-0.438 0.289-0.703 0.289s-0.523-0.109-0.711-0.289l-0.828-0.844c-0.187-0.18-0.297-0.438-0.297-0.703s0.109-0.523 0.297-0.711l5.32-5.32c0.406 1.023 1.227 1.844 2.25 2.25zM12.984 4.82c0 0.258-0.094 0.578-0.18 0.828-0.492 1.391-1.828 2.352-3.305 2.352-1.93 0-3.5-1.57-3.5-3.5s1.57-3.5 3.5-3.5c0.57 0 1.313 0.172 1.789 0.492 0.078 0.055 0.125 0.125 0.125 0.219 0 0.086-0.055 0.172-0.125 0.219l-2.289 1.32v1.75l1.508 0.836c0.258-0.148 2.070-1.289 2.227-1.289s0.25 0.117 0.25 0.273z"></path>
</svg>
