<!-- Generated by IcoMoon.io -->
<svg version="1.1" xmlns="http://www.w3.org/2000/svg" width="12" height="14" viewBox="0 0 12 14">
<title>xing-square</title>
<path d="M5.352 5.977c0 0 0-0.008-0.984-1.734-0.078-0.125-0.187-0.266-0.406-0.266h-1.438c-0.094 0-0.164 0.031-0.203 0.086-0.039 0.062-0.031 0.148 0.008 0.227l0.977 1.688v0.008l-1.531 2.703c-0.047 0.078-0.039 0.156 0 0.219s0.102 0.102 0.187 0.102h1.445c0.211 0 0.32-0.148 0.391-0.281 1.5-2.648 1.555-2.75 1.555-2.75zM10.227 2.094c-0.039-0.062-0.102-0.094-0.187-0.094h-1.461c-0.211 0-0.305 0.133-0.383 0.273-3.109 5.516-3.211 5.695-3.211 5.695s0 0.008 2.047 3.758c0.070 0.125 0.18 0.273 0.406 0.273h1.438c0.086 0 0.156-0.031 0.195-0.094s0.039-0.141-0.008-0.219l-2.031-3.719v-0.008l3.195-5.648c0.039-0.078 0.039-0.156 0-0.219zM12 3.25v7.5c0 1.242-1.008 2.25-2.25 2.25h-7.5c-1.242 0-2.25-1.008-2.25-2.25v-7.5c0-1.242 1.008-2.25 2.25-2.25h7.5c1.242 0 2.25 1.008 2.25 2.25z"></path>
</svg>
