<!-- Generated by IcoMoon.io -->
<svg version="1.1" xmlns="http://www.w3.org/2000/svg" width="11" height="14" viewBox="0 0 11 14">
<title>xing</title>
<path d="M4.664 5.211c0 0-0.078 0.133-2.008 3.562-0.102 0.172-0.234 0.359-0.508 0.359h-1.867c-0.109 0-0.195-0.055-0.242-0.133s-0.055-0.18 0-0.281l1.977-3.5c0.008 0 0.008 0 0-0.008l-1.258-2.18c-0.055-0.102-0.062-0.211-0.008-0.289 0.047-0.078 0.141-0.117 0.25-0.117h1.867c0.281 0 0.422 0.187 0.516 0.352 1.273 2.227 1.281 2.234 1.281 2.234zM10.961 0.195c0.055 0.078 0.055 0.187 0 0.289l-4.125 7.297c-0.008 0-0.008 0.008 0 0.008l2.625 4.805c0.055 0.102 0.055 0.211 0.008 0.289-0.055 0.078-0.141 0.117-0.25 0.117h-1.867c-0.281 0-0.43-0.187-0.516-0.352-2.648-4.852-2.648-4.859-2.648-4.859s0.133-0.234 4.148-7.359c0.102-0.18 0.219-0.352 0.5-0.352h1.883c0.109 0 0.195 0.039 0.242 0.117z"></path>
</svg>
