<!-- Generated by IcoMoon.io -->
<svg version="1.1" xmlns="http://www.w3.org/2000/svg" width="12" height="14" viewBox="0 0 12 14">
<title>yahoo</title>
<path d="M6.711 7.477l0.102 5.523c-0.266-0.047-0.539-0.086-0.82-0.086-0.273 0-0.547 0.039-0.82 0.086l0.102-5.523c-1.453-2.508-2.82-5.063-4.422-7.477 0.273 0.070 0.555 0.117 0.844 0.117s0.586-0.055 0.867-0.117c1.094 1.937 2.281 3.82 3.43 5.727 1.156-1.891 2.383-3.773 3.43-5.727 0.273 0.070 0.555 0.109 0.836 0.109 0.297 0 0.602-0.039 0.891-0.109v0 0c-0.625 0.859-1.141 1.797-1.68 2.711-0.93 1.586-1.844 3.172-2.758 4.766z"></path>
</svg>
