<!-- Generated by IcoMoon.io -->
<svg version="1.1" xmlns="http://www.w3.org/2000/svg" width="12" height="14" viewBox="0 0 12 14">
<title>yelp</title>
<path d="M6.039 10.305v0.992c-0.008 2.203-0.008 2.281-0.047 2.383-0.062 0.164-0.203 0.273-0.398 0.312-0.563 0.094-2.32-0.555-2.687-0.992-0.078-0.086-0.117-0.187-0.133-0.281-0.008-0.070 0.008-0.141 0.031-0.203 0.039-0.109 0.109-0.195 1.68-2.055 0 0 0.008 0 0.469-0.547 0.156-0.195 0.438-0.258 0.695-0.164 0.258 0.102 0.398 0.32 0.391 0.555zM4.875 8.344c-0.016 0.273-0.172 0.477-0.406 0.547l-0.937 0.305c-2.102 0.672-2.172 0.688-2.281 0.688-0.172-0.008-0.328-0.109-0.422-0.281-0.062-0.125-0.109-0.336-0.133-0.586-0.086-0.766 0.016-1.914 0.242-2.273 0.109-0.172 0.266-0.258 0.437-0.25 0.117 0 0.211 0.047 2.477 0.969 0 0-0.008 0.008 0.656 0.266 0.234 0.094 0.383 0.336 0.367 0.617zM11.328 10.664c-0.078 0.563-1.242 2.039-1.773 2.25-0.18 0.070-0.359 0.055-0.492-0.055-0.094-0.070-0.187-0.211-1.438-2.242l-0.367-0.602c-0.141-0.219-0.117-0.5 0.062-0.719 0.172-0.211 0.422-0.281 0.648-0.203 0 0 0.008 0.008 0.93 0.312 2.102 0.688 2.172 0.711 2.258 0.781 0.141 0.109 0.203 0.273 0.172 0.477zM6.078 5.727c0.039 0.813-0.305 0.914-0.422 0.953-0.109 0.031-0.453 0.133-0.891-0.555-2.875-4.539-2.953-4.672-2.953-4.672-0.039-0.164 0.008-0.344 0.148-0.484 0.43-0.445 2.766-1.102 3.375-0.945 0.195 0.047 0.336 0.172 0.383 0.352 0.031 0.195 0.312 4.406 0.359 5.352zM11.25 6.57c0.016 0.195-0.055 0.359-0.203 0.461-0.094 0.062-0.187 0.094-2.57 0.672-0.383 0.086-0.594 0.141-0.711 0.18l0.008-0.016c-0.234 0.062-0.5-0.047-0.648-0.281s-0.141-0.492 0-0.68c0 0 0.008-0.008 0.586-0.797 1.281-1.75 1.344-1.836 1.438-1.898 0.148-0.102 0.328-0.102 0.508-0.016 0.508 0.242 1.531 1.766 1.594 2.352v0.023z"></path>
</svg>
