<!-- Generated by IcoMoon.io -->
<svg version="1.1" xmlns="http://www.w3.org/2000/svg" width="13" height="14" viewBox="0 0 13 14">
<title>yoast</title>
<path d="M2.648 1.703h5.398l-0.203 0.563h-5.195c-1.148 0-2.086 0.945-2.086 2.094v6.023c0 0.984 0.703 1.852 1.672 2.055 0.25 0.055 0.508 0.039 0.766 0.039v0.563h-0.352c-1.461 0-2.648-1.195-2.648-2.656v-6.023c0-1.461 1.187-2.656 2.648-2.656zM9.297 0h1.93l-3.766 10.109c-0.703 1.875-1.555 3.828-3.867 3.891v-1.523c0.867-0.141 1.422-0.617 1.719-1.422 0.102-0.266 0.156-0.539 0.156-0.82s-0.055-0.563-0.156-0.828l-2.227-5.727h1.781l1.461 4.57zM13 4.359v8.68h-6.211c0.125-0.187 0.258-0.367 0.352-0.57h5.297v-8.109c0-0.891-0.563-1.688-1.398-1.984l0.195-0.523c1.062 0.359 1.766 1.391 1.766 2.508z"></path>
</svg>
