<!-- Generated by IcoMoon.io -->
<svg version="1.1" xmlns="http://www.w3.org/2000/svg" width="14" height="14" viewBox="0 0 14 14">
<title>youtube-play</title>
<path d="M5.555 8.812l3.781-1.953-3.781-1.977v3.93zM7 2.078c2.945 0 4.898 0.141 4.898 0.141 0.273 0.031 0.875 0.031 1.406 0.594 0 0 0.43 0.422 0.555 1.391 0.148 1.133 0.141 2.266 0.141 2.266v1.062s0.008 1.133-0.141 2.266c-0.125 0.961-0.555 1.391-0.555 1.391-0.531 0.555-1.133 0.555-1.406 0.586 0 0-1.953 0.148-4.898 0.148v0c-3.641-0.031-4.758-0.141-4.758-0.141-0.312-0.055-1.016-0.039-1.547-0.594 0 0-0.43-0.43-0.555-1.391-0.148-1.133-0.141-2.266-0.141-2.266v-1.062s-0.008-1.133 0.141-2.266c0.125-0.969 0.555-1.391 0.555-1.391 0.531-0.563 1.133-0.563 1.406-0.594 0 0 1.953-0.141 4.898-0.141v0z"></path>
</svg>
