<!-- Generated by IcoMoon.io -->
<svg version="1.1" xmlns="http://www.w3.org/2000/svg" width="12" height="14" viewBox="0 0 12 14">
<title>youtube-square</title>
<path d="M7.18 10.18v-1.227c0-0.258-0.078-0.391-0.227-0.391-0.086 0-0.172 0.039-0.258 0.125v1.75c0.086 0.086 0.172 0.125 0.258 0.125 0.148 0 0.227-0.125 0.227-0.383zM8.617 9.227h0.516v-0.266c0-0.266-0.086-0.398-0.258-0.398s-0.258 0.133-0.258 0.398v0.266zM4.156 7.148v0.547h-0.625v3.305h-0.578v-3.305h-0.609v-0.547h1.812zM5.727 8.133v2.867h-0.523v-0.312c-0.203 0.234-0.398 0.352-0.594 0.352-0.164 0-0.281-0.070-0.328-0.219-0.031-0.086-0.047-0.219-0.047-0.422v-2.266h0.516v2.109c0 0.117 0 0.187 0.008 0.203 0.008 0.078 0.047 0.117 0.117 0.117 0.109 0 0.211-0.078 0.328-0.242v-2.188h0.523zM7.695 9v1.141c0 0.258-0.016 0.453-0.055 0.57-0.062 0.219-0.203 0.328-0.414 0.328-0.18 0-0.359-0.109-0.531-0.32v0.281h-0.523v-3.852h0.523v1.258c0.164-0.203 0.344-0.312 0.531-0.312 0.211 0 0.352 0.109 0.414 0.328 0.039 0.117 0.055 0.305 0.055 0.578zM9.656 10.008v0.070c0 0.172-0.008 0.281-0.016 0.336-0.016 0.117-0.055 0.219-0.117 0.312-0.141 0.211-0.359 0.312-0.625 0.312-0.273 0-0.484-0.102-0.633-0.297-0.109-0.141-0.164-0.367-0.164-0.672v-1.008c0-0.305 0.047-0.523 0.156-0.672 0.148-0.195 0.359-0.297 0.625-0.297 0.258 0 0.469 0.102 0.609 0.297 0.109 0.148 0.164 0.367 0.164 0.672v0.594h-1.039v0.508c0 0.266 0.086 0.398 0.266 0.398 0.125 0 0.203-0.070 0.234-0.203 0-0.031 0.008-0.148 0.008-0.352h0.531zM6.133 3.57v1.219c0 0.266-0.086 0.398-0.25 0.398-0.172 0-0.25-0.133-0.25-0.398v-1.219c0-0.266 0.078-0.406 0.25-0.406 0.164 0 0.25 0.141 0.25 0.406zM10.297 9.141v0c0-0.672 0-1.383-0.148-2.031-0.109-0.461-0.484-0.797-0.93-0.844-1.062-0.117-2.141-0.117-3.219-0.117-1.070 0-2.148 0-3.211 0.117-0.453 0.047-0.828 0.383-0.93 0.844-0.148 0.648-0.156 1.359-0.156 2.031v0c0 0.664 0 1.375 0.156 2.031 0.102 0.453 0.477 0.789 0.922 0.844 1.070 0.117 2.148 0.117 3.219 0.117s2.148 0 3.219-0.117c0.445-0.055 0.82-0.391 0.922-0.844 0.156-0.656 0.156-1.367 0.156-2.031zM4.398 4.055l0.703-2.313h-0.586l-0.398 1.523-0.414-1.523h-0.609c0.117 0.359 0.25 0.719 0.367 1.078 0.187 0.547 0.305 0.953 0.359 1.234v1.57h0.578v-1.57zM6.656 4.687v-1.016c0-0.305-0.055-0.531-0.164-0.68-0.148-0.195-0.352-0.297-0.609-0.297-0.266 0-0.469 0.102-0.609 0.297-0.109 0.148-0.164 0.375-0.164 0.68v1.016c0 0.305 0.055 0.531 0.164 0.68 0.141 0.195 0.344 0.297 0.609 0.297 0.258 0 0.461-0.102 0.609-0.297 0.109-0.141 0.164-0.375 0.164-0.68zM8.070 5.625h0.523v-2.891h-0.523v2.211c-0.117 0.164-0.227 0.242-0.328 0.242-0.070 0-0.117-0.039-0.125-0.125-0.008-0.016-0.008-0.078-0.008-0.203v-2.125h-0.523v2.289c0 0.203 0.016 0.336 0.047 0.43 0.055 0.141 0.172 0.211 0.336 0.211 0.195 0 0.391-0.117 0.602-0.352v0.312zM12 3.25v7.5c0 1.242-1.008 2.25-2.25 2.25h-7.5c-1.242 0-2.25-1.008-2.25-2.25v-7.5c0-1.242 1.008-2.25 2.25-2.25h7.5c1.242 0 2.25 1.008 2.25 2.25z"></path>
</svg>
