<!-- Generated by IcoMoon.io -->
<svg version="1.1" xmlns="http://www.w3.org/2000/svg" width="12" height="14" viewBox="0 0 12 14">
<title>youtube</title>
<path d="M7.586 9.719v1.648c0 0.352-0.102 0.523-0.305 0.523-0.117 0-0.234-0.055-0.352-0.172v-2.352c0.117-0.117 0.234-0.172 0.352-0.172 0.203 0 0.305 0.18 0.305 0.523zM10.227 9.727v0.359h-0.703v-0.359c0-0.352 0.117-0.531 0.352-0.531s0.352 0.18 0.352 0.531zM2.68 8.023h0.836v-0.734h-2.438v0.734h0.82v4.445h0.781v-4.445zM4.93 12.469h0.695v-3.859h-0.695v2.953c-0.156 0.219-0.305 0.328-0.445 0.328-0.094 0-0.148-0.055-0.164-0.164-0.008-0.023-0.008-0.109-0.008-0.273v-2.844h-0.695v3.055c0 0.273 0.023 0.453 0.062 0.57 0.062 0.195 0.227 0.289 0.453 0.289 0.25 0 0.516-0.156 0.797-0.477v0.422zM8.281 11.313v-1.539c0-0.359-0.016-0.617-0.070-0.773-0.086-0.289-0.281-0.438-0.555-0.438-0.258 0-0.5 0.141-0.727 0.422v-1.695h-0.695v5.18h0.695v-0.375c0.234 0.289 0.477 0.43 0.727 0.43 0.273 0 0.469-0.148 0.555-0.43 0.055-0.164 0.070-0.422 0.070-0.781zM10.922 11.234v-0.102h-0.711c0 0.281-0.008 0.438-0.016 0.477-0.039 0.187-0.141 0.281-0.312 0.281-0.242 0-0.359-0.18-0.359-0.539v-0.68h1.398v-0.805c0-0.414-0.070-0.711-0.211-0.906-0.203-0.266-0.477-0.398-0.828-0.398-0.359 0-0.633 0.133-0.836 0.398-0.148 0.195-0.219 0.492-0.219 0.906v1.352c0 0.414 0.078 0.719 0.227 0.906 0.203 0.266 0.477 0.398 0.844 0.398s0.656-0.141 0.844-0.414c0.086-0.125 0.148-0.266 0.164-0.422 0.016-0.070 0.016-0.227 0.016-0.453zM6.172 4.102v-1.641c0-0.359-0.102-0.539-0.336-0.539-0.227 0-0.336 0.18-0.336 0.539v1.641c0 0.359 0.109 0.547 0.336 0.547 0.234 0 0.336-0.187 0.336-0.547zM11.789 9.969c0 0.898-0.008 1.859-0.203 2.734-0.148 0.617-0.648 1.070-1.25 1.133-1.438 0.164-2.891 0.164-4.336 0.164s-2.898 0-4.336-0.164c-0.602-0.062-1.109-0.516-1.25-1.133-0.203-0.875-0.203-1.836-0.203-2.734v0c0-0.906 0.008-1.859 0.203-2.734 0.148-0.617 0.648-1.070 1.258-1.141 1.43-0.156 2.883-0.156 4.328-0.156s2.898 0 4.336 0.156c0.602 0.070 1.109 0.523 1.25 1.141 0.203 0.875 0.203 1.828 0.203 2.734zM3.992 0h0.797l-0.945 3.117v2.117h-0.781v-2.117c-0.070-0.383-0.227-0.93-0.477-1.656-0.172-0.484-0.344-0.977-0.508-1.461h0.828l0.555 2.055zM6.883 2.602v1.367c0 0.414-0.070 0.727-0.219 0.922-0.195 0.266-0.469 0.398-0.828 0.398-0.352 0-0.625-0.133-0.82-0.398-0.148-0.203-0.219-0.508-0.219-0.922v-1.367c0-0.414 0.070-0.719 0.219-0.914 0.195-0.266 0.469-0.398 0.82-0.398 0.359 0 0.633 0.133 0.828 0.398 0.148 0.195 0.219 0.5 0.219 0.914zM9.5 1.336v3.898h-0.711v-0.43c-0.281 0.328-0.547 0.484-0.805 0.484-0.227 0-0.391-0.094-0.461-0.289-0.039-0.117-0.062-0.305-0.062-0.586v-3.078h0.711v2.867c0 0.164 0 0.258 0.008 0.273 0.016 0.109 0.070 0.172 0.164 0.172 0.141 0 0.289-0.109 0.445-0.336v-2.977h0.711z"></path>
</svg>
